<svg xmlns="http://www.w3.org/2000/svg" width="429.697" height="519.186" viewBox="0 0 429.697 519.186">
  <g id="Video_call-pana" data-name="Video call-pana" transform="translate(-71.942 -46.87)">
    <g id="freepik--background-complete--inject-94" transform="translate(71.942 77.752)">
      <path id="Path_5715" data-name="Path 5715" d="M77.586,248.491s-12.862,4.436.247,31.914,22.326,41.181,22.326,41.181,2.286,6.351-3.039,7.191-16.952-1.334-19.484,5.078c-2.632,6.66,2.088,13.134,11.836,18.966s30.666,19.4,32.544,20.634,3.707,4.188.124,5.337-29.851,3.188-28.146,15.617,31.556,24.192,34.855,25.563,3.991,2.755,3.707,4.547-9.217,1.631-16.68,2.471-15.963,3.212-14.369,10.3,19.04,22.363,62.271,27.787l20.2,1.236,11.367-16.828c22.339-37.412,21-60.542,16.433-66.188s-11.688-.346-16.976,4.942-10.65,12.454-12.257,11.6-2.249-2.31-1.322-5.7,10.008-34.15,1.236-43.157-26.539,10.5-29.653,12.578-4.312-1.236-4.127-3.385,2.36-27.071,3.707-38.3-.8-18.978-7.673-21c-6.61-1.952-12.047,8.538-15.988,12.22s-7.537-2.026-7.537-2.026-5.115-15.691-18.718-42.935S77.326,248.6,77.326,248.6" transform="translate(-71.942 -30.473)" fill="#ebebeb"/>
      <path id="Path_5716" data-name="Path 5716" d="M181.49,466.243c-9.884-20.053-26.922-55.982-41.687-86.747s-28.158-58.6-37.968-78.7L90.2,277.008l-3.163-6.474c-.346-.729-.618-1.236-.8-1.693a5.175,5.175,0,0,0-.259-.581s.111.185.309.556l.865,1.656,3.274,6.425c2.829,5.572,6.87,13.677,11.812,23.7,9.884,20.053,23.376,47.865,38.141,78.63s31.716,66.719,41.527,86.821" transform="translate(-68.638 -25.605)" fill="#e0e0e0"/>
      <path id="Path_5717" data-name="Path 5717" d="M89.61,320.4a7.719,7.719,0,0,1,1.4.432c.89.321,2.162.8,3.707,1.421,3.126,1.236,7.413,3.077,12.071,5.177l11.96,5.412,3.62,1.619a6.241,6.241,0,0,1,1.322.655,6.644,6.644,0,0,1-1.408-.42c-.89-.321-2.15-.8-3.707-1.446-3.1-1.236-7.413-3.151-12.034-5.251l-11.985-5.338-3.632-1.594a5.225,5.225,0,0,1-1.31-.667Z" transform="translate(-67.781 -13.324)" fill="#e0e0e0"/>
      <path id="Path_5718" data-name="Path 5718" d="M118.341,338.9c-.161-.062,3.225-9.032,7.549-20.04S133.859,299,133.983,299s-3.225,9.032-7.549,20.04S118.5,338.957,118.341,338.9Z" transform="translate(-61.015 -18.365)" fill="#e0e0e0"/>
      <path id="Path_5719" data-name="Path 5719" d="M135,376.263a7.2,7.2,0,0,1,.853-1.236l2.471-3.212c2.1-2.718,4.942-6.487,7.994-10.749s5.634-8.216,7.5-11.12l2.212-3.41a6.054,6.054,0,0,1,.877-1.236,7.409,7.409,0,0,1-.667,1.334c-.47.84-1.161,2.051-2.051,3.521-1.767,2.941-4.324,6.944-7.413,11.219s-5.968,8.006-8.142,10.65c-1.1,1.322-2,2.372-2.644,3.089a6.866,6.866,0,0,1-.988,1.149Z" transform="translate(-57.089 -7.459)" fill="#e0e0e0"/>
      <path id="Path_5720" data-name="Path 5720" d="M106.81,366.237a6.9,6.9,0,0,1,1.384,0l3.707.4c3.151.371,7.5.914,12.355,1.557s9.131,1.236,12.257,1.73l3.707.593a5.883,5.883,0,0,1,1.347.3,5.043,5.043,0,0,1-1.371-.062l-3.707-.4c-3.138-.358-7.487-.9-12.281-1.544s-9.131-1.236-12.269-1.73l-3.707-.593A5.854,5.854,0,0,1,106.81,366.237Z" transform="translate(-63.729 -2.536)" fill="#e0e0e0"/>
      <path id="Path_5721" data-name="Path 5721" d="M117.11,402.592a8.654,8.654,0,0,1,1.767.087l4.782.494c4.04.445,9.613,1.1,15.765,1.866s11.725,1.483,15.741,2.039l4.769.692a8.451,8.451,0,0,1,1.73.334,9.478,9.478,0,0,1-1.767-.1l-4.782-.494c-4.04-.432-9.613-1.087-15.765-1.853s-11.713-1.483-15.741-2.039l-4.757-.692a10.392,10.392,0,0,1-1.742-.334Z" transform="translate(-61.303 6.032)" fill="#e0e0e0"/>
      <path id="Path_5722" data-name="Path 5722" d="M152.34,414.315a10.108,10.108,0,0,1,1.038-1.581c.778-1.075,1.792-2.471,3-4.189,2.471-3.534,6-8.439,9.7-13.949s6.907-10.589,9.2-14.283L178,375.939a13.147,13.147,0,0,1,1.063-1.569,9.651,9.651,0,0,1-.853,1.693c-.581,1.075-1.446,2.607-2.558,4.485-2.2,3.707-5.362,8.871-9.056,14.394s-7.228,10.391-9.884,13.875c-1.31,1.73-2.4,3.126-3.163,4.065a10.787,10.787,0,0,1-1.211,1.433Z" transform="translate(-53.005 -0.612)" fill="#e0e0e0"/>
      <path id="Path_5723" data-name="Path 5723" d="M350.014,415.227c-31.346-15.481-43.355-51.25-47.259-84.437-.655-5.548-2.137-11.268-.259-16.494s7.5-9.477,12.788-7.907c4.4,1.31,6.907,5.795,9.785,9.39a32.755,32.755,0,0,0,14.826,10.379c3.781,1.236,8.3,1.742,11.478-.692,4.349-3.348,3.917-10.008,3.039-15.481l-4.868-30.666c-.865-5.473-1.73-11.12-.815-16.532s3.941-10.873,8.933-13.121,11.9-.235,13.826,4.942c.791,2.162.692,4.547,1.236,6.8s1.94,4.609,4.2,4.942,4.25-1.582,5.634-3.435c4.819-6.388,7.574-14.11,10.082-21.746s4.942-15.432,9.106-22.24,10.589-12.677,18.372-14.32,16.89,1.94,20.053,9.341-.148,15.951-4.114,22.956a123.556,123.556,0,0,1-21.783,28.17c-1.544,1.483-3.212,3.1-3.558,5.226-.642,3.842,3.373,6.944,7.166,7.6,4.3.741,8.649-.358,13.023-.507s9.267,1.025,11.491,4.819c3.1,5.263-.692,11.849-4.72,16.408a106.073,106.073,0,0,1-28.343,22.709c-3.818,2.088-7.858,4.028-10.675,7.413s-4.04,8.55-1.483,12.108,7.784,4.04,11.886,2.619,7.537-4.3,11.33-6.425c7.1-3.991,16.915-4.942,22.734.815,3.818,3.805,5,9.724,4.176,15.061s-3.41,10.243-6.252,14.826c-9.884,16.062-23.636,29.764-40.192,38.487s-32.507,12.7-50.842,8.995" transform="translate(-17.854 -40.691)" fill="#f5f5f5"/>
      <path id="Path_5724" data-name="Path 5724" d="M345.13,392.561a497.519,497.519,0,0,1,11.453-55.834q1.915-7.339,3.707-14.481c1.236-4.757,2.471-9.464,3.966-14a246.681,246.681,0,0,1,10.057-25.576c3.6-7.982,7.29-15.42,10.8-22.351S392.043,247,395.4,241.306a196.53,196.53,0,0,1,17.866-25.662c2.335-2.854,4.213-5.016,5.51-6.462.63-.68,1.112-1.236,1.483-1.631a4.112,4.112,0,0,1,.531-.531,4.062,4.062,0,0,1-.457.605l-1.409,1.693c-1.236,1.5-3.064,3.707-5.35,6.573a210.191,210.191,0,0,0-17.508,25.786c-3.3,5.708-6.672,12.108-10.156,19.04s-7.141,14.382-10.7,22.351a253.485,253.485,0,0,0-9.958,25.489c-1.483,4.51-2.693,9.192-3.941,13.949s-2.471,9.6-3.707,14.481a510.186,510.186,0,0,0-11.515,55.735" transform="translate(-7.595 -40.03)" fill="#e0e0e0"/>
      <path id="Path_5725" data-name="Path 5725" d="M364.149,300.133a10.515,10.515,0,0,1-.89-2.261c-.519-1.47-1.236-3.62-2-6.289-1.606-5.35-3.571-12.8-5.708-21s-4.2-15.63-5.881-20.93c-.84-2.656-1.532-4.794-2.039-6.277A11.122,11.122,0,0,1,347,241a10.785,10.785,0,0,1,1.038,2.187c.618,1.433,1.421,3.546,2.348,6.178,1.866,5.263,4.053,12.664,6.178,20.905s3.966,15.457,5.412,21.078c.667,2.533,1.236,4.658,1.68,6.375A11.732,11.732,0,0,1,364.149,300.133Z" transform="translate(-7.155 -32.026)" fill="#e0e0e0"/>
      <path id="Path_5726" data-name="Path 5726" d="M429.366,269.52a16.5,16.5,0,0,1-2.768.754c-1.779.445-4.361,1.063-7.537,1.927-6.351,1.68-15.037,4.3-24.5,7.623s-17.891,6.709-23.92,9.341c-3.015,1.236-5.436,2.4-7.117,3.151a15.8,15.8,0,0,1-2.644,1.1,15.224,15.224,0,0,1,2.471-1.458c1.631-.865,4-2.088,7.006-3.459,5.968-2.8,14.382-6.3,23.871-9.65a253.311,253.311,0,0,1,24.711-7.413c3.2-.766,5.819-1.236,7.636-1.594a14.3,14.3,0,0,1,2.792-.321Z" transform="translate(-3.886 -25.309)" fill="#e0e0e0"/>
      <path id="Path_5727" data-name="Path 5727" d="M355.047,372.135a4.561,4.561,0,0,1-.605-.791c-.432-.642-.964-1.421-1.594-2.372-1.384-2.051-3.287-5.09-5.6-8.871-4.633-7.561-10.7-18.2-17.236-30.036s-12.5-22.512-16.964-30.16l-5.313-9.032L306.3,288.4a3.708,3.708,0,0,1-.445-.9,3.7,3.7,0,0,1,.618.791l1.594,2.36c1.371,2.063,3.287,5.1,5.6,8.884,4.633,7.549,10.7,18.2,17.236,30.036s12.491,22.512,16.964,30.16l5.313,9.032c.568.988,1.038,1.8,1.433,2.471A3.361,3.361,0,0,1,355.047,372.135Z" transform="translate(-16.845 -21.074)" fill="#e0e0e0"/>
      <path id="Path_5728" data-name="Path 5728" d="M434.752,320.07a4.65,4.65,0,0,1-.877.519c-.692.358-1.544.8-2.582,1.322l-9.538,4.781c-8.043,4.04-19.1,9.736-31.309,16.062s-23.364,11.911-31.469,15.778c-4.065,1.94-7.413,3.472-9.687,4.485l-2.656,1.149a4.25,4.25,0,0,1-.964.346,3.347,3.347,0,0,1,.877-.531l2.582-1.322,9.526-4.782c8.056-4.028,19.114-9.736,31.321-16.062s23.327-11.948,31.469-15.778c4.065-1.94,7.413-3.472,9.674-4.485l2.669-1.149A3.594,3.594,0,0,1,434.752,320.07Z" transform="translate(-7.468 -13.402)" fill="#e0e0e0"/>
      <path id="Path_5729" data-name="Path 5729" d="M112.268,72.032a18.644,18.644,0,0,1,14.122,3.9,32.829,32.829,0,0,1,9.143,11.787c4.312,8.649,4.942,19.867,4.213,29.542-10.675-1.544-18.953-10.935-22.857-15.951-6.178-7.945-12.479-26.033-4.6-29.344" transform="translate(-63.306 -71.864)" fill="#f5f5f5"/>
      <path id="Path_5730" data-name="Path 5730" d="M148.06,120.944a15.963,15.963,0,0,1-3.892-15.531,21.2,21.2,0,0,1,10.49-12.578c2.273-1.236,5.029-2.113,7.413-1.124a6.8,6.8,0,0,1,3.843,5.745,13.875,13.875,0,0,1-1.569,7.018c-3.521,7.524-8.3,14.172-16.3,16.47" transform="translate(-55.076 -67.29)" fill="#f5f5f5"/>
      <path id="Path_5731" data-name="Path 5731" d="M151.32,142.57a31.247,31.247,0,0,1-2.471-5.906,29.441,29.441,0,0,1-1.507-6.857,65.252,65.252,0,0,1-.531-8.538,31.9,31.9,0,0,1,3.867-15.037,22.547,22.547,0,0,1,2.755-3.83c.778-.815,1.236-1.236,1.3-1.161a44.923,44.923,0,0,0-3.385,5.362,34.2,34.2,0,0,0-3.447,14.691,75.1,75.1,0,0,0,.445,8.414,33.224,33.224,0,0,0,1.236,6.721,45.1,45.1,0,0,1,1.742,6.141Z" transform="translate(-54.308 -64.947)" fill="#e0e0e0"/>
      <path id="Path_5732" data-name="Path 5732" d="M116.46,82.75a18.67,18.67,0,0,1,2.014,2.545c1.236,1.68,3.015,4.127,5.177,7.166,4.312,6.091,10.193,14.579,16.445,24.105s11.663,18.323,15.444,24.711c1.9,3.212,3.4,5.844,4.4,7.673a19.667,19.667,0,0,1,1.47,2.9,17.68,17.68,0,0,1-1.829-2.693l-4.7-7.487c-3.941-6.326-9.464-15.037-15.7-24.563L123.021,92.943l-4.942-7.413a17.3,17.3,0,0,1-1.619-2.78Z" transform="translate(-61.456 -69.3)" fill="#e0e0e0"/>
      <path id="Path_5733" data-name="Path 5733" d="M148.082,124.844a37.313,37.313,0,0,0-33.273-7.413c-2.916.791-6.178,2.471-6.524,5.436s2.372,5.424,5.041,6.833a31.877,31.877,0,0,0,35.126-4.127" transform="translate(-63.389 -61.417)" fill="#f5f5f5"/>
      <path id="Path_5734" data-name="Path 5734" d="M119.28,121.682a5.2,5.2,0,0,1,1.656-.4c1.087-.2,2.656-.383,4.621-.568a42.008,42.008,0,0,1,15.284,1.322,26.33,26.33,0,0,1,7.648,3.781,24.921,24.921,0,0,1,4.942,4.856,23.993,23.993,0,0,1,2.533,3.917,5.412,5.412,0,0,1,.692,1.569c-.2.111-1.322-2.051-3.818-5a25.835,25.835,0,0,0-12.355-8.08,47.345,47.345,0,0,0-14.925-1.594,52.446,52.446,0,0,1-6.277.2Z" transform="translate(-60.792 -60.404)" fill="#e0e0e0"/>
    </g>
    <g id="freepik--Icons--inject-94" transform="translate(76.361 113.623)">
      <rect id="Rectangle_1438" data-name="Rectangle 1438" width="49.125" height="49.125" rx="4.98" transform="translate(349.315 47.109) rotate(-73.53)" fill="#455a64"/>
      <path id="Path_5735" data-name="Path 5735" d="M396.908,142.632a2.354,2.354,0,0,1,.087-.42l.3-1.149,1.174-4.3,4.25-15.234.161.3-27.355-7.784.358-.2h0v.272l-.1.358-.21.7-.432,1.409c-.272.939-.544,1.866-.8,2.78l-1.668,5.449c-1.026,3.521-2,6.894-2.9,10.045l-.185-.321,19.645,5.77,5.6,1.68,1.507.457.531.185-.494-.111-1.47-.383-5.585-1.532-19.88-5.56-.259-.074.074-.259c.9-3.151,1.853-6.524,2.866-10.057.507-1.767,1.013-3.583,1.544-5.424.259-.914.531-1.841.791-2.78l.408-1.409.21-.717.1-.346v-.272h0l.371-.2,27.33,7.883.235.074-.062.235c-1.878,6.351-3.435,11.614-4.534,15.358-.544,1.779-.964,3.2-1.236,4.213-.148.445-.259.8-.346,1.087a2.358,2.358,0,0,1-.012.272Z" transform="translate(-6.352 -97.926)" fill="#fafafa"/>
      <path id="Path_5736" data-name="Path 5736" d="M383.548,112.521a16.307,16.307,0,0,1,2.471.531c1.532.4,3.707.976,6.289,1.693h.136v.148c.383,1.47.8,3.064,1.236,4.744l.136.494-.494-.148-2.595-.741c-4.312-1.236-8.216-2.385-11.058-3.249l-.358-.111.272-.247c2.3-2.113,3.843-3.336,3.954-3.151,0,0-.371.3-1.013.89l-2.656,2.57-.086-.358c2.879.766,6.8,1.853,11.12,3.089l2.595.754-.371.346-1.236-4.744.185.185c-2.57-.754-4.72-1.421-6.178-1.89a13.837,13.837,0,0,1-2.347-.8Z" transform="translate(-3.963 -98.172)" fill="#fafafa"/>
      <path id="Path_5737" data-name="Path 5737" d="M389.428,130.227a9.047,9.047,0,0,0,.642-1.458,6.425,6.425,0,0,0,0-4.2,6.264,6.264,0,1,0-5.807,8.2,6.523,6.523,0,0,0,3.954-1.446c.791-.642,1.112-1.137,1.161-1.1a1.323,1.323,0,0,1-.21.371,5.114,5.114,0,0,1-.8.9,6.474,6.474,0,0,1-4.09,1.693,6.771,6.771,0,0,1-5.819-2.854,6.773,6.773,0,1,1,12-5.894,6.511,6.511,0,0,1-.222,4.411,5.144,5.144,0,0,1-.593,1.063C389.539,130.14,389.44,130.239,389.428,130.227Z" transform="translate(-4.456 -96.48)" fill="#fafafa"/>
      <rect id="Rectangle_1439" data-name="Rectangle 1439" width="68.832" height="68.832" rx="6.37" transform="translate(0 87.557) rotate(-12.08)" fill="#8dc63f"/>
      <path id="Path_5738" data-name="Path 5738" d="M103.921,180.679a7.151,7.151,0,0,1,1.236.519l3.46,1.656h.136l-.074.148c-1.137,2.113-2.656,4.942-4.485,8.278l-.074-.321,16.853,10.811-.494.111c1.433-2.471,2.953-5.053,4.51-7.747l.148-.235.259.062a26.438,26.438,0,0,1,6.178,2.385,11.861,11.861,0,0,1,5.078,4.769,6.178,6.178,0,0,1,.544,1.754l.136.927-.074.939a6.264,6.264,0,0,1-.42,1.816,7.919,7.919,0,0,1-.717,1.705,11.243,11.243,0,0,1-5.375,5.1,12.071,12.071,0,0,1-7.413.766,13.589,13.589,0,0,1-3.472-1.236c-1.087-.568-2.026-1.236-3.027-1.853l-11.28-7.2-10.193-6.548L93,195.778a13.973,13.973,0,0,1-2.212-1.631,6.672,6.672,0,0,1-2.187-4.658,9.785,9.785,0,0,1,3.707-7.809,10.527,10.527,0,0,1,6.178-2.348,10.293,10.293,0,0,1,4.127.63,8.291,8.291,0,0,1,.988.445,1.372,1.372,0,0,1,.321.185,12.2,12.2,0,0,0-5.424-.939,10.23,10.23,0,0,0-5.881,2.372,9.353,9.353,0,0,0-3.4,7.413,6.079,6.079,0,0,0,2.076,4.312,13.665,13.665,0,0,0,2.15,1.544l2.36,1.483,10.23,6.474,11.305,7.166c.988.618,1.965,1.3,2.965,1.816a12.59,12.59,0,0,0,3.262,1.124,11.28,11.28,0,0,0,6.882-.717,10.329,10.329,0,0,0,4.942-4.732,8.08,8.08,0,0,0,.667-1.594,5.806,5.806,0,0,0,.383-1.631l.074-.828-.124-.8a5.3,5.3,0,0,0-.482-1.557,11.12,11.12,0,0,0-4.732-4.436,25.71,25.71,0,0,0-5.98-2.323l.408-.185-4.559,7.722-.2.321-.3-.2-16.63-10.972-.2-.124.111-.2,4.658-8.192v.21l-3.336-1.73a8.425,8.425,0,0,1-1.236-.717Z" transform="translate(-72.437 -82.426)" fill="#fafafa"/>
      <path id="Path_5739" data-name="Path 5739" d="M115.7,189.693a24.5,24.5,0,0,1-1.384-5.473,24.178,24.178,0,0,1-.754-5.609,25.316,25.316,0,0,1,1.384,5.486,24.871,24.871,0,0,1,.754,5.6Z" transform="translate(-66.558 -82.593)" fill="#fafafa"/>
      <path id="Path_5740" data-name="Path 5740" d="M121.162,182.12a26.574,26.574,0,0,1-5.585,1.52,27.824,27.824,0,0,1-5.758.89,26.5,26.5,0,0,1,5.585-1.507A26.154,26.154,0,0,1,121.162,182.12Z" transform="translate(-67.439 -81.766)" fill="#fafafa"/>
    </g>
    <g id="freepik--character-2--inject-94" transform="translate(323.36 98.553)">
      <rect id="Rectangle_1440" data-name="Rectangle 1440" width="78.173" height="114.621" transform="translate(0.272 0.321)" fill="#f5f5f5"/>
      <path id="Path_5741" data-name="Path 5741" d="M353.862,203.642v-8.463c0-5.5,0-13.492-.087-23.6,0-20.189-.086-48.8-.148-82.559l.3.3h-78.16l.321-.321c0,43.12,0,82.917-.074,114.621l-.247-.259,56.835.136,15.741.062h.111l-15.691.062-57.008.136h-.259v-.259c0-31.7,0-71.5-.062-114.621V88.7h78.778v.371c0,33.829-.111,62.506-.148,82.781,0,10.07,0,18.051-.074,23.475V203.1A1.04,1.04,0,0,1,353.862,203.642Z" transform="translate(-275.43 -88.7)" fill="#263238"/>
      <path id="Path_5742" data-name="Path 5742" d="M282.8,183.867a10.774,10.774,0,0,1,.086-19.559,4.535,4.535,0,0,0,1.89-1.236c.692-.914.42-2.2.445-3.348a6.029,6.029,0,0,1,5.807-5.634l17.606,6.919v18.533Z" transform="translate(-275.156 -73.298)" fill="#263238"/>
      <path id="Path_5743" data-name="Path 5743" d="M276.41,184.109s13.084-10.292,29.146-12.714,33.99,0,33.99,0a49.558,49.558,0,0,1,14.023,4.856l.086,8.118-17.3-.062Z" transform="translate(-275.199 -69.475)" fill="#8dc63f"/>
      <path id="Path_5744" data-name="Path 5744" d="M345.772,115.771c-1.68-4.658-9.637-8.649-14.011-10.984-6.536-3.472-12.467-2.471-16.062.865-6.808-5.338-15.7-10.379-23.994-7.92S276.879,108.988,278.72,117.5c1.063,4.942,4.683,9.365,4.646,14.468,0,3.472-1.754,6.66-3.114,9.884s-2.36,6.907-.951,10.082c1.322,2.953,4.411,4.72,6.178,7.413,1.409,2.224,1.8,4.942,2.731,7.413,3.459,9.131,14.53,13.937,24.093,12s17.3-9.452,21.585-18.237,5.436-18.743,5.634-28.492" transform="translate(-274.729 -86.723)" fill="#263238"/>
      <path id="Path_5745" data-name="Path 5745" d="M336.806,188.24l-.334-68.733L307.561,110.7A15.79,15.79,0,0,0,289.7,124.833c-1.038,10.65-1.9,24.044-.877,32.124,2.014,15.852,14.036,18.237,14.036,18.237s-.1,5.881-.222,12.763a17.026,17.026,0,0,0,3.287,10.391h27.59A17,17,0,0,0,336.806,188.24Z" transform="translate(-272.385 -83.553)" fill="#ffbe9d"/>
      <path id="Path_5746" data-name="Path 5746" d="M300.1,163.873a41.193,41.193,0,0,0,21.313-5.1s-5.646,11.268-21.387,9.291Z" transform="translate(-269.636 -72.196)" fill="#eb996e"/>
      <path id="Path_5747" data-name="Path 5747" d="M308,123.757c.2.605,2.385.4,4.942.778s4.584,1.149,4.942.63c.161-.247-.185-.815-1-1.421a8.4,8.4,0,0,0-3.632-1.4,8.216,8.216,0,0,0-3.88.334C308.42,123.028,308,123.485,308,123.757Z" transform="translate(-267.758 -80.797)" fill="#263238"/>
      <path id="Path_5748" data-name="Path 5748" d="M291.759,124.86c.371.507,1.89,0,3.707,0s3.311.445,3.707,0c.161-.247-.062-.754-.717-1.236a5.288,5.288,0,0,0-5.943,0C291.833,124.106,291.6,124.613,291.759,124.86Z" transform="translate(-271.595 -80.689)" fill="#263238"/>
      <path id="Path_5749" data-name="Path 5749" d="M307.55,137.978a.581.581,0,0,0,.593.556.593.593,0,0,0,.568-.593.581.581,0,1,0-1.161,0Z" transform="translate(-267.864 -77.239)" fill="#eb996e"/>
      <path id="Path_5750" data-name="Path 5750" d="M294.281,136.108a.581.581,0,1,0,1.149,0,.593.593,0,0,0-.593-.568.581.581,0,0,0-.556.568Z" transform="translate(-270.991 -77.667)" fill="#eb996e"/>
      <path id="Path_5751" data-name="Path 5751" d="M291.74,137.435a.587.587,0,1,0,.593-.605.593.593,0,0,0-.593.605Z" transform="translate(-271.588 -77.363)" fill="#eb996e"/>
      <path id="Path_5752" data-name="Path 5752" d="M290.89,135.5a.581.581,0,1,0,.556-.593A.581.581,0,0,0,290.89,135.5Z" transform="translate(-271.789 -77.816)" fill="#eb996e"/>
      <path id="Path_5753" data-name="Path 5753" d="M309.76,139.965a.568.568,0,0,0,.593.556.581.581,0,1,0-.593-.556Z" transform="translate(-267.344 -76.768)" fill="#eb996e"/>
      <path id="Path_5754" data-name="Path 5754" d="M311.44,138.036a.581.581,0,1,0,.556-.605A.593.593,0,0,0,311.44,138.036Z" transform="translate(-266.948 -77.222)" fill="#eb996e"/>
      <path id="Path_5755" data-name="Path 5755" d="M303.74,109.673a27.293,27.293,0,0,1,29.146-1.483c8.958,5.276,13.838,12.887,14.308,25.44v16c-.47,7.29,1.087,11.515-2.471,12.751-4.942,1.68-8.649,14.975-12.874,14.048-5.2-4.04-5.288-6.4-5.473-14.666-.2-8.884-2.866-19.447.618-25.168-11.491-3.422-20.658-14.419-22.413-26.91" transform="translate(-268.762 -84.938)" fill="#263238"/>
      <path id="Path_5756" data-name="Path 5756" d="M290.68,97.215c0,.086,1.359.086,3.472.568a13.5,13.5,0,0,1,1.705.494,18.349,18.349,0,0,1,1.9.717,23.139,23.139,0,0,1,4.015,2.347,22.9,22.9,0,0,1,3.41,3.163,18.712,18.712,0,0,1,1.236,1.606,15.54,15.54,0,0,1,.951,1.5c1.087,1.878,1.483,3.188,1.557,3.151a4.942,4.942,0,0,0-.272-.9,7.409,7.409,0,0,0-.408-1.05,13,13,0,0,0-.655-1.322,15.444,15.444,0,0,0-.927-1.544c-.346-.544-.791-1.075-1.236-1.656a20.321,20.321,0,0,0-9.477-6.3,17.3,17.3,0,0,0-1.742-.445,13.235,13.235,0,0,0-1.47-.235,7.922,7.922,0,0,0-1.112-.086,4.673,4.673,0,0,0-.951,0Z" transform="translate(-271.838 -86.7)" fill="#455a64"/>
      <path id="Path_5757" data-name="Path 5757" d="M283.926,155.045l-.111-.124-.334-.383a18.224,18.224,0,0,1-1.235-1.47,8.375,8.375,0,0,1-1.495-2.656,4.855,4.855,0,0,1-.2-1.866,5.141,5.141,0,0,1,.643-1.989,34.416,34.416,0,0,1,2.978-3.941,22.177,22.177,0,0,0,4.312-11.12,44.33,44.33,0,0,0,0-6.771,23.806,23.806,0,0,1,.383-6.672,13.591,13.591,0,0,1,7.24-8.9,12.826,12.826,0,0,1,4.707-1.236,14.147,14.147,0,0,1,6.944,1.236,15.37,15.37,0,0,1,1.693.951l.42.272c.1,0,.148.1.148.086a9.883,9.883,0,0,0-2.2-1.433,13.888,13.888,0,0,0-7.018-1.409,12.764,12.764,0,0,0-4.831,1.236,13.961,13.961,0,0,0-7.413,9.081,23.262,23.262,0,0,0-.408,6.771,49.032,49.032,0,0,1,.062,6.721,22.239,22.239,0,0,1-4.2,10.984,33.545,33.545,0,0,0-2.965,3.991,5.388,5.388,0,0,0-.655,2.1,4.943,4.943,0,0,0,.247,1.94,8.253,8.253,0,0,0,1.569,2.681c.544.655,1.013,1.124,1.322,1.433l.371.358Z" transform="translate(-274.264 -84.249)" fill="#455a64"/>
      <path id="Path_5758" data-name="Path 5758" d="M291.776,132.669c.235.272,1.792-.828,3.954-.778s3.707,1.161,3.978.9-.124-.593-.8-1.112a5.473,5.473,0,0,0-3.175-1.05,5.263,5.263,0,0,0-3.163.951C291.887,132.076,291.652,132.545,291.776,132.669Z" transform="translate(-271.587 -78.824)" fill="#263238"/>
      <path id="Path_5759" data-name="Path 5759" d="M309.706,132.959c.247.259,1.792-.84,3.966-.791s3.707,1.174,3.978.914-.124-.605-.815-1.124a5.523,5.523,0,0,0-3.175-1.038,5.2,5.2,0,0,0-3.163.951C309.817,132.366,309.582,132.836,309.706,132.959Z" transform="translate(-267.364 -78.756)" fill="#263238"/>
      <path id="Path_5760" data-name="Path 5760" d="M304.112,146.6a14.346,14.346,0,0,0-3.509-.7c-.556-.062-1.075-.185-1.161-.568a2.8,2.8,0,0,1,.408-1.631c.544-1.334,1.112-2.731,1.717-4.188,2.4-5.955,4.139-10.86,3.892-10.959s-2.372,4.658-4.769,10.626c-.568,1.47-1.124,2.866-1.656,4.213a3.151,3.151,0,0,0-.321,2.162,1.372,1.372,0,0,0,.89.828,4.18,4.18,0,0,0,.939.148,14.11,14.11,0,0,0,3.571.074Z" transform="translate(-269.962 -79.314)" fill="#263238"/>
      <path id="Path_5761" data-name="Path 5761" d="M303.768,147.68A3.917,3.917,0,0,1,307.3,146.3a3.571,3.571,0,0,1,2.471,1.371,2.261,2.261,0,0,1,.124,2.582,2.607,2.607,0,0,1-2.854.667,8.055,8.055,0,0,1-2.743-1.705,2.334,2.334,0,0,1-.605-.655.729.729,0,0,1,0-.815" transform="translate(-268.802 -75.142)" fill="#8dc63f"/>
      <path id="Path_5762" data-name="Path 5762" d="M309.553,144.48c-.346,0-.4,2.323-2.471,3.954s-4.547,1.322-4.572,1.656c0,.148.544.469,1.606.519a5.906,5.906,0,0,0,3.818-1.236,5.115,5.115,0,0,0,1.9-3.324C309.973,145.123,309.713,144.468,309.553,144.48Z" transform="translate(-269.052 -75.562)" fill="#263238"/>
      <path id="Path_5763" data-name="Path 5763" d="M345.781,128.246a8.647,8.647,0,0,1-1.8.383,33.435,33.435,0,0,1-5.041.346,36.782,36.782,0,0,1-28.961-14.258,33.609,33.609,0,0,1-2.792-4.2,10.108,10.108,0,0,1-.8-1.656,11.244,11.244,0,0,1,1.025,1.532,40.635,40.635,0,0,0,2.928,4.04,38.1,38.1,0,0,0,28.615,14.085,41.094,41.094,0,0,0,4.942-.136,11.861,11.861,0,0,1,1.89-.136Z" transform="translate(-268.14 -83.952)" fill="#455a64"/>
      <path id="Path_5764" data-name="Path 5764" d="M341.6,163.536a28.96,28.96,0,0,0,1.767-2.471,19.941,19.941,0,0,0,2.941-7.549,17.7,17.7,0,0,0-2.236-11.6,19.188,19.188,0,0,0-4.609-5.35,22.7,22.7,0,0,0-6.734-3.534c-2.471-.9-4.942-1.582-7.351-2.471a30.7,30.7,0,0,1-6.487-3.287,32.123,32.123,0,0,1-8.649-8.649,30.048,30.048,0,0,1-3.707-7.413,19.766,19.766,0,0,1-.618-2.162,5.588,5.588,0,0,1-.148-.778c.074,0,.309,1.038,1,2.854a32.285,32.285,0,0,0,12.442,15.63,30.544,30.544,0,0,0,6.388,3.188c2.323.865,4.831,1.544,7.351,2.471a23.364,23.364,0,0,1,6.907,3.707,19.422,19.422,0,0,1,4.72,5.56,17.915,17.915,0,0,1,2.175,11.96,19.164,19.164,0,0,1-3.188,7.611A15.424,15.424,0,0,1,342.157,163a3.6,3.6,0,0,1-.556.531Z" transform="translate(-268.284 -84.09)" fill="#455a64"/>
      <path id="Path_5765" data-name="Path 5765" d="M303.276,165a3.447,3.447,0,0,1-.828.259,11.12,11.12,0,0,1-2.385.173,15.445,15.445,0,0,1-7.413-2.471,14.023,14.023,0,0,1-5.177-5.856,11.813,11.813,0,0,1-.791-2.236,2.249,2.249,0,0,1-.111-.877c.111,0,.4,1.236,1.31,2.916A14.74,14.74,0,0,0,293,162.416a16.643,16.643,0,0,0,7.129,2.471C302.04,165.122,303.263,164.887,303.276,165Z" transform="translate(-272.807 -73.322)" fill="#455a64"/>
    </g>
    <g id="freepik--character-1--inject-94" transform="translate(181.211 159.328)">
      <path id="Path_5766" data-name="Path 5766" d="M321.6,220.861c-3.262-4.942-5.387-25.094-9.625-23.957-5.412,1.433,2.187,22.895,2.718,24.859s-2.31,2.718-2.693.927c-.544-2.582-6.6-27.787-11.874-25.86-2.928,1.075-1.05,6.412-1.05,6.412s8.575,24.525,6.054,25.341-7.413-13.48-9.081-18.533c-1.569-4.856-4.176-6.24-5.98-3.966s2.731,16.927,4.213,21.869,5.807,18.249-1.705,13.257-15.135-6.079-17.372-4.942-1.409,4.633,1.347,5.09a33.743,33.743,0,0,1,8.377,3.546,32.4,32.4,0,0,1,5.745,4.485,28.171,28.171,0,0,1,5.721,7.339,17.52,17.52,0,0,0,11.515,8.538h0l2.261,9.229,25.687-9.563-4.275-17.446c-3.385-13.319-3.521-22.857-4.3-31.111-1.236-13.171-2.965-13.109-4.46-12.627C319.549,204.737,324.787,225.643,321.6,220.861Z" transform="translate(-133.637 -124.031)" fill="#ffbe9d"/>
      <path id="Path_5767" data-name="Path 5767" d="M320.062,230a27.542,27.542,0,0,0-3.373,1.89,14.481,14.481,0,0,0-5.313,7.413,13.241,13.241,0,0,0-.544,2.755v.445l-.4-.185a22.451,22.451,0,0,0-7.092-1.89c-1.841-.185-2.953-.124-2.965-.21a9.093,9.093,0,0,1,2.99-.2,20.374,20.374,0,0,1,7.327,1.73l-.445.259a13.816,13.816,0,0,1,.556-2.9,14.258,14.258,0,0,1,2.471-4.646,13.776,13.776,0,0,1,3.188-2.891,12.961,12.961,0,0,1,2.595-1.236A2.954,2.954,0,0,1,320.062,230Z" transform="translate(-127.404 -116.193)" fill="#eb996e"/>
      <path id="Path_5768" data-name="Path 5768" d="M319.878,245.812a23.142,23.142,0,0,1-12.578,5.177c0-.185,2.965-.815,6.437-2.273S319.767,245.651,319.878,245.812Z" transform="translate(-125.774 -112.472)" fill="#eb996e"/>
      <path id="Path_5769" data-name="Path 5769" d="M361.841,376.387a27.923,27.923,0,0,1-15.358-6.474l-41.452-35.04.371,40.39,8.216.593-2.31,30.036H182.971v-.717c-7.9-6.721-12.751-16.853-14.468-27.911-3.126-19.991-4.287-52.572-7.08-75.6-1.952-16.21,1.619-37.2,16.062-44.862l11.12-4.386h0L223.67,238.6l45.048,2.076,30.073,8.439c8.34,3.163,15.531,13.158,20.658,20.522l25.069,34.879c-.272-5.7-10.65-40.068-11.33-41.613l30.641-12.689s31.617,70.253,27.367,100.61C387.651,376.116,361.841,376.387,361.841,376.387Z" transform="translate(-160.25 -114.168)" fill="#263238"/>
      <path id="Path_5770" data-name="Path 5770" d="M275.15,309.535c0-.185,2.8.185,7.191-.457a31.951,31.951,0,0,0,15.345-6.536,26.181,26.181,0,0,0,8.649-13.01,51.55,51.55,0,0,0,1.075-6.3,4.584,4.584,0,0,1,.185,1.73,19.609,19.609,0,0,1-.556,4.72,25.032,25.032,0,0,1-8.649,13.529,30.987,30.987,0,0,1-15.926,6.511,29.093,29.093,0,0,1-5.375.111,7.339,7.339,0,0,1-1.94-.3Z" transform="translate(-133.347 -103.656)" fill="#fff"/>
      <path id="Path_5771" data-name="Path 5771" d="M277.9,364.176c.309,0,.655-17.013.791-37.98s0-37.993-.3-38.005-.642,17-.791,37.98S277.6,364.163,277.9,364.176Z" transform="translate(-132.783 -102.487)" fill="#455a64"/>
      <path id="Path_5772" data-name="Path 5772" d="M190.47,363.288a11.193,11.193,0,0,1,1.4-4.114,26.465,26.465,0,0,1,15.617-13.332,11.119,11.119,0,0,1,4.275-.741c0,.161-1.582.482-4.028,1.421a29.875,29.875,0,0,0-15.222,13C191.2,361.793,190.631,363.337,190.47,363.288Z" transform="translate(-153.293 -89.083)" fill="#455a64"/>
      <path id="Path_5773" data-name="Path 5773" d="M202.72,328.92a2.732,2.732,0,0,1,.494.21l1.371.729a46.722,46.722,0,0,0,5.5,2.323,43.528,43.528,0,0,0,21.585,1.853,42.663,42.663,0,0,0,26.824-16.7,35.472,35.472,0,0,0,7.018-17.446A23.771,23.771,0,0,0,264.485,290a19.892,19.892,0,0,0-5.548-8.476,16.729,16.729,0,0,0-9.044-4.4,10.749,10.749,0,0,0-9.057,2.545,5.819,5.819,0,0,0-1.767,4.1A7.191,7.191,0,0,0,240.552,288a11.577,11.577,0,0,0,7.833,4.09,31.63,31.63,0,0,0,16.828-2.409,31.2,31.2,0,0,0,17.73-19.769,33.27,33.27,0,0,0,1.47-9.266,35.834,35.834,0,0,0-.432-5.943c-.111-.618-.21-1.124-.284-1.52a1.581,1.581,0,0,1-.062-.531,24.823,24.823,0,0,1,1.236,7.994,32.8,32.8,0,0,1-1.31,9.427,32.125,32.125,0,0,1-5.782,11.194,32.952,32.952,0,0,1-29.468,11.812,12.516,12.516,0,0,1-8.488-4.436,8.142,8.142,0,0,1-1.693-4.819,6.832,6.832,0,0,1,2-4.794,11.75,11.75,0,0,1,9.884-2.842,17.816,17.816,0,0,1,9.6,4.646,21,21,0,0,1,5.832,8.921,24.624,24.624,0,0,1,1.05,10.292,36.1,36.1,0,0,1-7.265,17.9,42.515,42.515,0,0,1-49.3,14.641A31.359,31.359,0,0,1,202.72,328.92Z" transform="translate(-150.407 -110.858)" fill="#fff"/>
      <path id="Path_5774" data-name="Path 5774" d="M161.9,300.62a6.845,6.845,0,0,1,1.236-1.569,27.715,27.715,0,0,1,4.151-3.62,34.83,34.83,0,0,1,17.038-6.042,33.063,33.063,0,0,1,10.033.42,30.609,30.609,0,0,1,7.734,2.718,34.7,34.7,0,0,1,4.707,2.866,7.416,7.416,0,0,1,1.544,1.3c-.111.173-2.471-1.569-6.561-3.5a32.272,32.272,0,0,0-17.3-2.78,36.733,36.733,0,0,0-16.729,5.609C163.926,298.569,162.024,300.768,161.9,300.62Z" transform="translate(-160.022 -102.253)" fill="#fff"/>
      <path id="Path_5775" data-name="Path 5775" d="M171.87,258.657a31.46,31.46,0,0,0,6.178,4.534,22.5,22.5,0,0,0,7.932,2.323,19.88,19.88,0,0,0,17.94-7.413,22.549,22.549,0,0,0,3.966-7.24,31.594,31.594,0,0,0,1.236-7.611,6.277,6.277,0,0,1,.259,2.088,18.644,18.644,0,0,1-.766,5.733,21.979,21.979,0,0,1-3.929,7.636,20.263,20.263,0,0,1-18.756,7.71,21.843,21.843,0,0,1-8.167-2.619,19.088,19.088,0,0,1-4.6-3.509A6.436,6.436,0,0,1,171.87,258.657Z" transform="translate(-157.674 -113.073)" fill="#fff"/>
      <path id="Path_5776" data-name="Path 5776" d="M224.91,347.9a7.932,7.932,0,0,1,.161-1.458,15.728,15.728,0,0,1,1.359-3.991c1.557-3.311,5.424-7.475,11.528-10.008a34.785,34.785,0,0,1,22.635-.8c4.077,1.236,8.748,2.706,11.8,6.672a7.154,7.154,0,0,1,.865,7.24,11.391,11.391,0,0,1-5.486,5.177,17.445,17.445,0,0,1-7.29,1.816,10.638,10.638,0,0,1-6.993-2.175,8.933,8.933,0,0,1-3.138-6.351,15.766,15.766,0,0,1,1.05-6.66A29.95,29.95,0,0,1,267.264,321.3a31.222,31.222,0,0,1,15.148-2.595,21.312,21.312,0,0,1,5.535,1.161c0,.136-1.965-.519-5.56-.766a31.742,31.742,0,0,0-14.827,2.866,31,31,0,0,0-8.649,5.869,27.75,27.75,0,0,0-6.635,9.884,15.124,15.124,0,0,0-.964,6.264,7.969,7.969,0,0,0,2.792,5.646,9.687,9.687,0,0,0,6.351,1.928,16.568,16.568,0,0,0,6.845-1.705,10.589,10.589,0,0,0,5.016-4.683,6.178,6.178,0,0,0-.754-6.178,14.456,14.456,0,0,0-5.152-4.09,36.218,36.218,0,0,0-6.091-2.261c-8.167-2.471-16.186-1.977-22.091.568a21.931,21.931,0,0,0-11.453,9.514A22.708,22.708,0,0,0,224.91,347.9Z" transform="translate(-145.181 -95.322)" fill="#fff"/>
      <path id="Path_5777" data-name="Path 5777" d="M164.49,330.963a3.47,3.47,0,0,1,.927-.371c.618-.21,1.544-.494,2.743-.791a33.36,33.36,0,0,1,10.49-1.075,22.08,22.08,0,0,1,7.129,1.767,16.433,16.433,0,0,1,6.66,5.226,13.591,13.591,0,0,1,2.582,8.97,10.922,10.922,0,0,1-1.483,4.806,7.624,7.624,0,0,1-4.028,3.373,5.313,5.313,0,0,1-5.2-1.025,6.907,6.907,0,0,1-1.89-4.819,20.609,20.609,0,0,1,1.8-9.155,20.016,20.016,0,0,1,11.231-10.65,20.324,20.324,0,0,1,10.477-1.038,16.368,16.368,0,0,1,2.78.7,3.608,3.608,0,0,1,.927.408c0,.1-1.322-.42-3.707-.717a20.782,20.782,0,0,0-10.144,1.322,19.435,19.435,0,0,0-10.626,10.354,19.769,19.769,0,0,0-1.68,8.723,6,6,0,0,0,1.5,4.114,4.324,4.324,0,0,0,4.188.791,6.734,6.734,0,0,0,3.472-2.941,10.069,10.069,0,0,0,1.4-4.361,12.751,12.751,0,0,0-2.36-8.34,15.7,15.7,0,0,0-6.178-4.942,21.8,21.8,0,0,0-6.845-1.816,35.7,35.7,0,0,0-10.329.729A36.254,36.254,0,0,1,164.49,330.963Z" transform="translate(-159.412 -93.603)" fill="#fff"/>
      <path id="Path_5778" data-name="Path 5778" d="M321.683,346.944a2.78,2.78,0,0,1-.519-.445,19.158,19.158,0,0,1-1.359-1.4,29.364,29.364,0,0,1-4.04-5.918,40.438,40.438,0,0,1-3.6-10,71.276,71.276,0,0,1-1.544-12.887c-.185-4.609,0-9.019-.148-12.973a89.756,89.756,0,0,0-1.149-10.5c-.47-2.978-.951-5.362-1.236-7.018-.161-.766-.284-1.4-.383-1.9a2.472,2.472,0,0,1-.1-.667,2.235,2.235,0,0,1,.222.642c.124.42.3,1.05.494,1.878.42,1.631.964,4.016,1.495,6.981a80.81,80.81,0,0,1,1.236,10.552c.148,4,0,8.377.2,12.973a72.437,72.437,0,0,0,1.458,12.813,42,42,0,0,0,3.422,9.884,32.493,32.493,0,0,0,3.818,5.968C321.028,346.24,321.683,346.9,321.683,346.944Z" transform="translate(-125.701 -103.653)" fill="#455a64"/>
      <path id="Path_5779" data-name="Path 5779" d="M316.692,328.72a46.74,46.74,0,0,0-14.122,11.231,8.651,8.651,0,0,1,1.5-2.236,29.936,29.936,0,0,1,4.621-4.572,29.531,29.531,0,0,1,5.5-3.472,8.711,8.711,0,0,1,2.508-.951Z" transform="translate(-126.889 -92.941)" fill="#fff"/>
      <path id="Path_5780" data-name="Path 5780" d="M350.829,298.45a11.124,11.124,0,0,1-1.68.679c-1.087.371-2.681.9-4.609,1.643a73.344,73.344,0,0,0-14.332,7.265c-5.263,3.447-9.328,7.487-12.528,10.156a12.355,12.355,0,0,1-4.226,2.533,4.671,4.671,0,0,1-1.334.223h-.47a17.676,17.676,0,0,0,1.73-.42,13.393,13.393,0,0,0,4.015-2.656c3.076-2.706,7.129-6.845,12.467-10.329a64.58,64.58,0,0,1,14.518-7.178c1.952-.692,3.571-1.161,4.683-1.458a8.9,8.9,0,0,1,1.767-.457Z" transform="translate(-124.75 -100.071)" fill="#fff"/>
      <path id="Path_5781" data-name="Path 5781" d="M339.552,267.757a4.942,4.942,0,0,1-1.322.247l-3.62.544c-3.052.469-7.253,1.236-11.861,2.2a113.551,113.551,0,0,0-11.663,3.027c-2.928.964-4.646,1.792-4.7,1.705a4.757,4.757,0,0,1,1.161-.7,34.435,34.435,0,0,1,3.385-1.433,90.2,90.2,0,0,1,11.676-3.225c4.621-.988,8.859-1.668,11.935-2.026,1.544-.173,2.792-.284,3.707-.334a5.4,5.4,0,0,1,1.3,0Z" transform="translate(-125.989 -107.309)" fill="#fff"/>
      <path id="Path_5782" data-name="Path 5782" d="M281.989,143.512c-7.809-2.113-15.63,5.09-23.624,3.805-4.856-.791-8.649-4.51-12.985-6.758-6.536-3.373-15.617-3.707-22.054-.1s-10.539,7.24-11.12,14.567c-6.079-3.225-15.765,4.621-18.9,11.972s-2.039,14.826.136,22.5a105.564,105.564,0,0,0,18.706,36.535c.754.951,1.952,2,3.027,1.446a2.632,2.632,0,0,0,1.075-2.174c.9-7.141-.247-14.345-1.1-21.486s-1.409-14.505.618-21.4,7.166-13.307,14.159-14.938c5.177-1.236,10.638.309,15.358,2.755s8.9,5.77,13.406,8.649,9.538,5.127,14.826,5.177,10.91-2.632,13.01-7.512-.667-11.626-5.893-12.541a10.44,10.44,0,0,0,1.4-20.436Z" transform="translate(-153.085 -137.889)" fill="#263238"/>
      <path id="Path_5783" data-name="Path 5783" d="M202.2,189.363l10.4,79.952a23.97,23.97,0,0,0,28.034,20.5h0a24.007,24.007,0,0,0,19.534-26.725c-.791-6.017-1.446-11.033-1.483-11.663,0,0,20.1-4.559,18.953-24.9-.556-9.823-3.348-29.974-6.091-48.186a37.943,37.943,0,0,0-40.13-32.124l-1.965.136C208.391,149.01,198.927,168.4,202.2,189.363Z" transform="translate(-150.679 -135.949)" fill="#ffbe9d"/>
      <path id="Path_5784" data-name="Path 5784" d="M252.935,232.2A47.371,47.371,0,0,1,226,226.5s7.265,14.184,27.417,10.959Z" transform="translate(-144.924 -117.018)" fill="#eb996e"/>
      <path id="Path_5785" data-name="Path 5785" d="M253.159,184.477a2.891,2.891,0,0,1-2.595,3.114,2.78,2.78,0,0,1-3.163-2.471A2.9,2.9,0,0,1,250,182.006a2.768,2.768,0,0,1,3.163,2.471Z" transform="translate(-139.885 -127.505)" fill="#263238"/>
      <path id="Path_5786" data-name="Path 5786" d="M257.42,181.043c-.334.4-2.644-1.075-5.77-.853s-5.3,1.94-5.671,1.581c-.173-.148.148-.865,1.087-1.656a8.068,8.068,0,0,1,4.51-1.742,7.673,7.673,0,0,1,4.621,1.149C257.21,180.2,257.58,180.857,257.42,181.043Z" transform="translate(-140.229 -128.358)" fill="#263238"/>
      <path id="Path_5787" data-name="Path 5787" d="M228.852,186.135a2.916,2.916,0,0,1-2.595,3.126,2.792,2.792,0,0,1-3.175-2.409,2.916,2.916,0,0,1,2.595-3.126,2.792,2.792,0,0,1,3.175,2.409Z" transform="translate(-145.613 -127.1)" fill="#263238"/>
      <path id="Path_5788" data-name="Path 5788" d="M232.608,183.22c-.334.408-2.644-1.063-5.77-.84s-5.3,1.94-5.659,1.581c-.185-.161.136-.865,1.087-1.656a7.945,7.945,0,0,1,4.5-1.742,7.648,7.648,0,0,1,4.621,1.149C232.4,182.343,232.769,183.047,232.608,183.22Z" transform="translate(-146.071 -127.842)" fill="#263238"/>
      <path id="Path_5789" data-name="Path 5789" d="M241.5,205.755c0-.173,1.89-.642,5.016-1.236.791-.136,1.532-.346,1.631-.9a4.127,4.127,0,0,0-.692-2.335c-.89-1.866-1.816-3.842-2.78-5.906-3.88-8.414-6.734-15.358-6.4-15.506s3.707,6.536,7.636,14.962c.927,2.076,1.829,4.053,2.681,5.943a4.683,4.683,0,0,1,.63,3.1,2.014,2.014,0,0,1-1.235,1.236,5.732,5.732,0,0,1-1.347.284C243.489,205.78,241.525,205.977,241.5,205.755Z" transform="translate(-142.039 -128.002)" fill="#263238"/>
      <path id="Path_5790" data-name="Path 5790" d="M233.648,203.08c.507-.062.741,3.324,3.805,5.535s6.647,1.581,6.709,2.051c0,.21-.754.717-2.273.865A8.426,8.426,0,0,1,236.3,210a7.413,7.413,0,0,1-2.99-4.646C233.092,203.945,233.413,203.08,233.648,203.08Z" transform="translate(-143.219 -122.534)" fill="#263238"/>
      <path id="Path_5791" data-name="Path 5791" d="M233.089,173.132c-.247.865-3.4.68-7.03,1.371s-6.524,1.9-7.067,1.236c-.235-.346.222-1.236,1.359-2.088a12.355,12.355,0,0,1,10.737-1.94C232.471,172.094,233.188,172.712,233.089,173.132Z" transform="translate(-146.589 -130.035)" fill="#263238"/>
      <path id="Path_5792" data-name="Path 5792" d="M255.826,173.83c-.494.741-2.693.161-5.288.3s-4.744.815-5.3.1c-.247-.334,0-1.075.964-1.816a7.66,7.66,0,0,1,8.525-.321C255.7,172.755,256.085,173.484,255.826,173.83Z" transform="translate(-140.414 -130.103)" fill="#263238"/>
      <path id="Path_5793" data-name="Path 5793" d="M206.726,193.281c-.358-.136-14.246-3.175-12.837,10.687s14.987,9.588,14.987,9.192S206.726,193.281,206.726,193.281Z" transform="translate(-152.511 -124.93)" fill="#ffbe9d"/>
      <path id="Path_5794" data-name="Path 5794" d="M203.448,207.443a5.206,5.206,0,0,1-.618.42,2.471,2.471,0,0,1-1.8.222c-1.507-.4-2.978-2.595-3.3-5.078a8.093,8.093,0,0,1,.321-3.534,2.817,2.817,0,0,1,1.631-2.039,1.235,1.235,0,0,1,1.495.519c.222.371.161.655.235.68s.272-.272.111-.828a1.544,1.544,0,0,0-.642-.815,1.792,1.792,0,0,0-1.359-.21,3.4,3.4,0,0,0-2.31,2.4,8.154,8.154,0,0,0-.445,3.954c.371,2.78,2.063,5.251,4.127,5.622a2.6,2.6,0,0,0,2.175-.593C203.461,207.776,203.5,207.455,203.448,207.443Z" transform="translate(-151.827 -124.03)" fill="#eb996e"/>
      <path id="Path_5795" data-name="Path 5795" d="M275.979,174.528a29.393,29.393,0,0,1-26.478-4.077c-5.226-3.843-9.464-9.6-15.778-11.12a16.519,16.519,0,0,0-12.5,2.595,31.916,31.916,0,0,0-8.958,9.452c4.633,10.057,2.792,21.758.865,32.668a5.585,5.585,0,0,1-1.4,3.311c-1.557,1.384-4.09.568-5.622-.84-2.471-2.236-3.583-5.572-4.4-8.8a57.354,57.354,0,0,1-1.421-22.536,39.081,39.081,0,0,1,9.341-20.374A36.955,36.955,0,0,1,234.8,143.257a45.32,45.32,0,0,1,26.9,7.574,26.576,26.576,0,0,1,9.2,9.242" transform="translate(-151.103 -136.633)" fill="#263238"/>
      <path id="Path_5796" data-name="Path 5796" d="M283.725,146.657a3.027,3.027,0,0,1,0,1.236,5.622,5.622,0,0,1-1.755,3,8.858,8.858,0,0,1-5.066,2.088,14.652,14.652,0,0,1-3.46,0,7.413,7.413,0,0,1-3.707-1.4,4.942,4.942,0,0,1-2-3.805,4.324,4.324,0,0,1,2.706-3.707,5.4,5.4,0,0,1,2.471-.494,4.485,4.485,0,0,1,2.471.914,6.289,6.289,0,0,1,2.471,4.707,7.413,7.413,0,0,1-1.841,5.251,11.232,11.232,0,0,1-4.831,3.2,18.348,18.348,0,0,1-11.96-.469,52.5,52.5,0,0,1-10.7-5.473A66.4,66.4,0,0,0,238.8,146.4a20.72,20.72,0,0,0-9.711-1.656,19.6,19.6,0,0,0-8.155,2.706,24.538,24.538,0,0,0-8.649,9.007,31.981,31.981,0,0,0-1.569,3.077,9.31,9.31,0,0,1-.507,1.087.964.964,0,0,1,.074-.3c.074-.185.161-.482.309-.84a24.579,24.579,0,0,1,1.458-3.151,24.118,24.118,0,0,1,8.649-9.3,20.053,20.053,0,0,1,8.278-2.928,21.005,21.005,0,0,1,10,1.643,64.966,64.966,0,0,1,9.884,5.313,52.474,52.474,0,0,0,10.514,5.4,17.693,17.693,0,0,0,11.515.482,10.44,10.44,0,0,0,4.547-2.953,6.61,6.61,0,0,0,1.705-4.782,5.7,5.7,0,0,0-2.125-4.263,4.176,4.176,0,0,0-4.337-.383,3.781,3.781,0,0,0-2.471,3.237,4.386,4.386,0,0,0,1.779,3.41,6.894,6.894,0,0,0,3.41,1.347,14.6,14.6,0,0,0,3.361,0,8.648,8.648,0,0,0,4.942-1.9,5.82,5.82,0,0,0,1.792-2.829A10.1,10.1,0,0,0,283.725,146.657Z" transform="translate(-148.643 -136.55)" fill="#455a64"/>
      <path id="Path_5797" data-name="Path 5797" d="M191.54,174.3a23.806,23.806,0,0,0,4.324.815,12.058,12.058,0,0,0,4.621-.815,19.658,19.658,0,0,0,5.029-2.866,16.272,16.272,0,0,0,5.622-8.649,32.663,32.663,0,0,0,.618-4.361,3.213,3.213,0,0,1,.161,1.235,14.133,14.133,0,0,1-.309,3.274,15.9,15.9,0,0,1-5.659,9.131,19.424,19.424,0,0,1-5.251,2.928,11.811,11.811,0,0,1-4.856.692,11.119,11.119,0,0,1-3.225-.741A3.706,3.706,0,0,1,191.54,174.3Z" transform="translate(-153.041 -133.053)" fill="#455a64"/>
      <path id="Path_5798" data-name="Path 5798" d="M192.59,182.439c0-.124,1.656.124,4.275-.2A19.151,19.151,0,0,0,212.334,170.4a40.769,40.769,0,0,0,1.31-4.065,3.212,3.212,0,0,1,0,1.161,17.3,17.3,0,0,1-.791,3.077,18.434,18.434,0,0,1-15.877,12.145,17.149,17.149,0,0,1-3.175,0,3.372,3.372,0,0,1-1.211-.284Z" transform="translate(-152.793 -131.188)" fill="#455a64"/>
      <path id="Path_5799" data-name="Path 5799" d="M222.871,194.14a.383.383,0,1,1,.222-.457.358.358,0,0,1-.222.457Z" transform="translate(-145.786 -124.813)" fill="#eb996e"/>
      <path id="Path_5800" data-name="Path 5800" d="M227.646,192.769a.445.445,0,1,1,.21-.507.383.383,0,0,1-.21.507Z" transform="translate(-144.692 -125.159)" fill="#eb996e"/>
      <path id="Path_5801" data-name="Path 5801" d="M230.849,192.51c-.185,0-.383-.173-.445-.482s0-.581.235-.618.383.173.445.482S231.034,192.473,230.849,192.51Z" transform="translate(-143.892 -125.284)" fill="#eb996e"/>
      <path id="Path_5802" data-name="Path 5802" d="M225.418,196.983c-.2,0-.358-.074-.358-.2s.136-.222.321-.235.358.074.358.2S225.6,196.97,225.418,196.983Z" transform="translate(-145.145 -124.072)" fill="#eb996e"/>
      <path id="Path_5803" data-name="Path 5803" d="M229.8,195.718a.4.4,0,1,1,.284-.445.358.358,0,0,1-.284.445Z" transform="translate(-144.148 -124.451)" fill="#eb996e"/>
      <path id="Path_5804" data-name="Path 5804" d="M252.666,191.374a.4.4,0,1,1,.222-.469.358.358,0,0,1-.222.47Z" transform="translate(-138.773 -125.47)" fill="#eb996e"/>
      <path id="Path_5805" data-name="Path 5805" d="M255.913,190.863a.442.442,0,0,1-.42-.371.4.4,0,0,1,.272-.482.42.42,0,0,1,.408.371.383.383,0,0,1-.259.482Z" transform="translate(-137.98 -125.613)" fill="#eb996e"/>
      <path id="Path_5806" data-name="Path 5806" d="M249.747,191.628a.309.309,0,1,1,.278-.209A.309.309,0,0,1,249.747,191.628Z" transform="translate(-139.438 -125.377)" fill="#eb996e"/>
      <path id="Path_5807" data-name="Path 5807" d="M252.424,194.77a.358.358,0,0,1-.482-.185.346.346,0,1,1,.605-.321A.371.371,0,0,1,252.424,194.77Z" transform="translate(-138.829 -124.664)" fill="#eb996e"/>
      <path id="Path_5808" data-name="Path 5808" d="M255.155,194.011a.321.321,0,0,1-.284-.358.346.346,0,1,1,.284.358Z" transform="translate(-138.124 -124.832)" fill="#eb996e"/>
      <path id="Path_5809" data-name="Path 5809" d="M198.013,209.081a8.648,8.648,0,0,0-.161,3.188,4.6,4.6,0,0,0,1.717,2.8,4.164,4.164,0,0,0,3.805.717,3.855,3.855,0,0,0,2.471-2.879,4.942,4.942,0,0,0-.8-3.2,6.919,6.919,0,0,0-2.2-2.3c0-.1,1.433.235,2.619,2.039a5.263,5.263,0,0,1,1.013,3.558,4.411,4.411,0,0,1-2.928,3.435,4.732,4.732,0,0,1-4.423-.877,4.942,4.942,0,0,1-1.8-3.225,5.177,5.177,0,0,1,.222-2.471A2.6,2.6,0,0,1,198.013,209.081Z" transform="translate(-151.693 -121.517)" fill="#263238"/>
      <path id="Path_5810" data-name="Path 5810" d="M198.3,206.863c0-.074.519.136.84.89a2.088,2.088,0,0,1,0,1.409A2.014,2.014,0,0,1,197.9,210.4a1.891,1.891,0,0,1-1.754-.309,1.569,1.569,0,0,1-.618-1.31c.062-.865.63-1.124.655-1.05a2.224,2.224,0,0,0-.161,1.038,1.124,1.124,0,0,0,.494.815,1.334,1.334,0,0,0,1.149.161,1.482,1.482,0,0,0,.865-.84,1.705,1.705,0,0,0,.1-1.038C198.582,207.27,198.224,206.937,198.3,206.863Z" transform="translate(-152.101 -121.646)" fill="#263238"/>
      <path id="Path_5811" data-name="Path 5811" d="M284.69,354.373l-2.36,26.181h12.355l10.922-.173a76.726,76.726,0,0,0,12.528.334,1.236,1.236,0,0,0,.581-.136,9.971,9.971,0,0,0,1.9-.457h0c1.112-.408,2.261-1.124,2.088-2.348-.544-3.707-2.768-4.053-2.768-4.053l-1.124-.074-.087-.321a31.477,31.477,0,0,0,3.867-.124c.358,0,.556-.087.581-.136s4.374-.519,4.04-2.829c-.531-3.707-2.768-4.053-2.768-4.053l-3.6-.235a33.8,33.8,0,0,0,4-.124c.346,0,.556-.074.581-.124s4.374-.531,4.04-2.842c-.544-3.707-2.768-4.04-2.768-4.04l-2.978-.21a24.782,24.782,0,0,0,3.237-.111c.358,0,.556-.086.581-.136s4.374-.519,4.04-2.829c-.531-3.707-2.768-4.053-2.768-4.053s-6.882-.494-11.6-.68c0,0-5.362-4.843-7.413-4.621-3.151.334-21.5,7.117-21.5,7.117Z" transform="translate(-131.656 -88.83)" fill="#ffbe9d"/>
      <path id="Path_5812" data-name="Path 5812" d="M303,367.8c0,.222,2.755.482,6.116.593s6.079,0,6.054-.2-2.755-.482-6.116-.593S303,367.586,303,367.8Z" transform="translate(-126.787 -83.794)" fill="#eb996e"/>
      <path id="Path_5813" data-name="Path 5813" d="M302.94,361.8c0,.21,3.892.531,8.649.7s8.649.124,8.723-.087-3.892-.544-8.649-.7S303.014,361.574,302.94,361.8Z" transform="translate(-126.801 -85.195)" fill="#eb996e"/>
      <g id="Group_1194" data-name="Group 1194" transform="translate(176.769 268.873)" opacity="0.78">
        <path id="Path_5814" data-name="Path 5814" d="M303.45,355.7c0,.222,3.88.544,8.649.7s8.723.136,8.723-.087-3.88-.531-8.649-.7S303.45,355.486,303.45,355.7Z" transform="translate(-303.45 -355.505)" fill="#eb996e"/>
      </g>
      <path id="Path_5815" data-name="Path 5815" d="M315.786,349.988a13.112,13.112,0,0,1-2.768.21l-6.684.222-6.684.235a11.662,11.662,0,0,1-2.78,0,12,12,0,0,1,2.755-.42c1.7-.173,4.077-.346,6.684-.432s4.942-.086,6.709,0a11.12,11.12,0,0,1,2.768.185Z" transform="translate(-128.231 -87.99)" fill="#eb996e"/>
      <path id="Path_5816" data-name="Path 5816" d="M303.755,364.171h-.432l-1.236-.062-4.819-.284-17.705-1.087c-14.962-.914-35.633-2.212-58.466-3.373l-12.232-.556h-.3v-.3c-.185-4.942-.642-9.81-1-14.456s-.778-9.106-1.149-13.332c-.741-8.451-1.409-15.988-1.977-22.3s-.988-11.318-1.236-14.826c-.148-1.705-.247-3.039-.334-3.991a4.948,4.948,0,0,0-.062-1.038,1.965,1.965,0,0,1,0-.358,1.235,1.235,0,0,1,.062.346,8.918,8.918,0,0,0,.136,1.038c.1.951.247,2.286.432,3.991.358,3.509.865,8.55,1.5,14.827s1.322,13.838,2.125,22.24c.371,4.226.766,8.649,1.236,13.331s.84,9.464,1.038,14.505l-.309-.321,12.244.544c22.833,1.161,43.5,2.533,58.453,3.558l17.705,1.236,4.806.4,1.236.124Z" transform="translate(-150.388 -102.483)" fill="#455a64"/>
      <path id="Path_5817" data-name="Path 5817" d="M215.1,380.541a5.632,5.632,0,0,1-.618-1.334,11.993,11.993,0,0,1-.568-1.619,18.335,18.335,0,0,1-.581-2.212,22.631,22.631,0,0,1-.457-2.743,30.976,30.976,0,0,1,2.978-17.322,30.537,30.537,0,0,1,1.557-2.78,25.888,25.888,0,0,1,1.594-2.273,18.964,18.964,0,0,1,1.483-1.841,10.33,10.33,0,0,1,1.236-1.236,7.9,7.9,0,0,1,1.124-.951c.1.1-1.483,1.483-3.447,4.188a26.247,26.247,0,0,0-1.495,2.286c-.531.828-.976,1.779-1.483,2.755a32.89,32.89,0,0,0-3.163,13.962,31.2,31.2,0,0,0,.148,3.126,23.478,23.478,0,0,0,.371,2.706C214.4,378.515,215.228,380.442,215.1,380.541Z" transform="translate(-148.064 -88.817)" fill="#fff"/>
      <path id="Path_5818" data-name="Path 5818" d="M390.191,374.141c0,.173-51.448.321-114.905.321s-114.905-.148-114.905-.321,51.436-.321,114.905-.321S390.191,373.956,390.191,374.141Z" transform="translate(-160.38 -82.318)" fill="#263238"/>
    </g>
    <g id="freepik--Device--inject-94" transform="translate(168.769 46.87)">
      <path id="Path_5819" data-name="Path 5819" d="M365.232,47.031,188.846,46.87A38.425,38.425,0,0,0,150.4,85.332l-.087,442.225a38.438,38.438,0,0,0,38.4,38.4l176.4.1a38.413,38.413,0,0,0,38.438-38.4l.086-442.225a38.413,38.413,0,0,0-38.4-38.4Zm26.626,474.188a26.9,26.9,0,0,1-26.947,26.861l-176.04-.1a26.91,26.91,0,0,1-26.9-26.922l.086-431.636a26.9,26.9,0,0,1,26.922-26.91h42.008a8.5,8.5,0,0,1,8.3,8.649v6.178a8.5,8.5,0,0,0,8.3,8.649h66.719a8.488,8.488,0,0,0,8.315-8.649V71.161a8.488,8.488,0,0,1,8.3-8.649h34.2a26.91,26.91,0,0,1,26.811,27.021Z" transform="translate(-150.31 -46.87)" fill="#263238"/>
      <rect id="Rectangle_1441" data-name="Rectangle 1441" width="91.529" height="40.748" transform="translate(86.463 404.281)" fill="#263238"/>
      <path id="Path_5820" data-name="Path 5820" d="M389.628,374.08H310.9c0,17.359-14.826,31.482-32.915,31.482s-32.9-14.122-32.9-31.482H159.83v70.611a26.91,26.91,0,0,0,26.861,26.9l176.04.1a26.9,26.9,0,0,0,26.922-26.91Z" transform="translate(-148.068 30.201)" fill="#8dc63f"/>
      <path id="Path_5821" data-name="Path 5821" d="M232.55,409.08h5.387c3.88,0,6.548,2.348,6.548,5.931s-2.669,5.931-6.548,5.931H232.55Zm5.251,9.613a3.707,3.707,0,1,0,0-7.351H235.33v7.352Z" transform="translate(-130.939 38.445)" fill="#fff"/>
      <path id="Path_5822" data-name="Path 5822" d="M251.9,415.248v5.2H249.43v-1.124a3,3,0,0,1-2.78,1.236c-2.137,0-3.41-1.236-3.41-2.755s1.137-2.731,3.917-2.731h2.1c0-1.137-.68-1.792-2.1-1.792a4.385,4.385,0,0,0-2.619.84l-.951-1.841a6.969,6.969,0,0,1,3.929-1.112C250.357,411.2,251.9,412.492,251.9,415.248Zm-2.644,2.323v-.927h-1.8c-1.236,0-1.631.457-1.631,1.063s.556,1.1,1.483,1.1a1.94,1.94,0,0,0,1.952-1.236Z" transform="translate(-128.421 38.937)" fill="#fff"/>
      <path id="Path_5823" data-name="Path 5823" d="M261.508,415.233v5.214h-2.644v-4.806c0-1.47-.68-2.15-1.853-2.15a2.175,2.175,0,0,0-2.187,2.471v4.5H252.18v-9.106h2.471v1.063a3.991,3.991,0,0,1,3.015-1.235C259.877,411.193,261.508,412.453,261.508,415.233Z" transform="translate(-126.316 38.939)" fill="#fff"/>
      <path id="Path_5824" data-name="Path 5824" d="M261.4,409.362a1.507,1.507,0,0,1,1.643-1.47,1.483,1.483,0,0,1,1.643,1.421,1.645,1.645,0,0,1-3.287.049Zm.321,2.755h2.644v9.106h-2.644Z" transform="translate(-124.144 38.163)" fill="#fff"/>
      <path id="Path_5825" data-name="Path 5825" d="M274.811,416.64h-6.894a2.471,2.471,0,0,0,2.607,1.829,3.077,3.077,0,0,0,2.286-.877l1.409,1.52a4.757,4.757,0,0,1-3.707,1.47c-3.151,0-5.2-1.977-5.2-4.7a4.646,4.646,0,0,1,4.856-4.695,4.522,4.522,0,0,1,4.646,4.707ZM267.88,415.1h4.46a2.286,2.286,0,0,0-4.5,0Z" transform="translate(-123.223 38.941)" fill="#fff"/>
      <path id="Path_5826" data-name="Path 5826" d="M274.44,408.51h2.644v12.565H274.44Z" transform="translate(-121.072 38.311)" fill="#fff"/>
      <path id="Path_5827" data-name="Path 5827" d="M246.709,425.58v6.956H246.2V426.1H244.51v-.457Z" transform="translate(-128.122 42.331)" fill="#fff"/>
      <path id="Path_5828" data-name="Path 5828" d="M247.72,429.074c0-2.175,1.124-3.534,2.718-3.534s2.731,1.359,2.731,3.534-1.124,3.521-2.731,3.521S247.72,431.248,247.72,429.074Zm4.942,0c0-1.94-.9-3.064-2.224-3.064s-2.212,1.124-2.212,3.064.9,3.052,2.212,3.052S252.662,431.051,252.662,429.074Z" transform="translate(-127.366 42.322)" fill="#fff"/>
      <path id="Path_5829" data-name="Path 5829" d="M253,427.414a.42.42,0,1,1,.183.423.42.42,0,0,1-.183-.423Zm0,4.423a.42.42,0,1,1,.183.423A.42.42,0,0,1,253,431.837Z" transform="translate(-126.124 42.647)" fill="#fff"/>
      <path id="Path_5830" data-name="Path 5830" d="M254.62,429.074c0-2.175,1.124-3.534,2.731-3.534s2.718,1.359,2.718,3.534-1.124,3.521-2.718,3.521S254.62,431.248,254.62,429.074Zm4.942,0c0-1.94-.9-3.064-2.212-3.064s-2.224,1.124-2.224,3.064.914,3.052,2.224,3.052S259.562,431.051,259.562,429.074Z" transform="translate(-125.741 42.322)" fill="#fff"/>
      <path id="Path_5831" data-name="Path 5831" d="M265.758,430.609h-1.47v1.927h-.531v-1.927H259.79v-.371l3.781-4.658h.568l-3.707,4.584h3.324v-1.705h.482v1.705h1.47Z" transform="translate(-124.523 42.331)" fill="#fff"/>
      <rect id="Rectangle_1442" data-name="Rectangle 1442" width="26.737" height="26.737" rx="4.45" transform="translate(35.213 437.258)" fill="#fafafa"/>
      <path id="Path_5832" data-name="Path 5832" d="M328.564,425.968H313.737a5.819,5.819,0,0,1-5.807-5.807V405.335a5.807,5.807,0,0,1,5.807-5.795h14.827a5.807,5.807,0,0,1,5.807,5.795v14.826a5.819,5.819,0,0,1-5.807,5.807Zm-14.826-25.823a5.189,5.189,0,0,0-5.189,5.177v14.826a5.2,5.2,0,0,0,5.189,5.189h14.826a5.189,5.189,0,0,0,5.189-5.189V405.322a5.189,5.189,0,0,0-5.189-5.177Z" transform="translate(-113.184 36.198)" fill="#fff"/>
      <path id="Path_5833" data-name="Path 5833" d="M195.664,408.07h-9.748a1.236,1.236,0,0,0-1.236,1.236v6.449a1.236,1.236,0,0,0,1.236,1.236h.828v2.842l3.287-2.842h5.634a1.236,1.236,0,0,0,1.236-1.236v-6.412a1.236,1.236,0,0,0-1.236-1.273Zm-7.969,5.684a.964.964,0,1,1,.951-.951.951.951,0,0,1-.951.951Zm2.965,0a.964.964,0,1,1,.964-.951.964.964,0,0,1-.964.951Zm3.175,0a.964.964,0,1,1,.964-.951A.964.964,0,0,1,193.835,413.754Z" transform="translate(-142.215 38.207)" fill="#8dc63f"/>
      <path id="Path_5834" data-name="Path 5834" d="M315.952,414.608a.309.309,0,0,1-.3-.284c-.741-6.178,3.855-8.117,3.9-8.13a.309.309,0,0,1,.4.161.3.3,0,0,1-.161.408c-.173.074-4.213,1.816-3.534,7.5a.3.3,0,0,1-.272.334Z" transform="translate(-111.384 37.76)" fill="#fff"/>
      <path id="Path_5835" data-name="Path 5835" d="M316.313,413.558a.346.346,0,0,1-.235-.111l-1.94-2.286a.309.309,0,0,1,0-.445.321.321,0,0,1,.432,0l1.693,2,1.495-1.989a.3.3,0,0,1,.433,0,.309.309,0,0,1,.062.432l-1.73,2.286a.321.321,0,0,1-.235.124Z" transform="translate(-111.744 38.811)" fill="#fff"/>
      <path id="Path_5836" data-name="Path 5836" d="M318.418,415.909a.311.311,0,0,1-.124-.593c.173-.074,4.213-1.829,3.534-7.5a.309.309,0,0,1,.272-.346.333.333,0,0,1,.346.272c.729,6.178-3.867,8.118-3.917,8.142Z" transform="translate(-110.786 38.066)" fill="#fff"/>
      <path id="Path_5837" data-name="Path 5837" d="M320.059,410.374a.285.285,0,0,1-.185-.062.309.309,0,0,1-.062-.432l1.73-2.286a.3.3,0,0,1,.235-.124h0a.346.346,0,0,1,.235.111l1.94,2.286a.309.309,0,0,1,0,.433.321.321,0,0,1-.445,0l-1.693-2-1.495,1.977A.284.284,0,0,1,320.059,410.374Z" transform="translate(-110.4 38.066)" fill="#fff"/>
      <circle id="Ellipse_93" data-name="Ellipse 93" cx="18.187" cy="18.187" r="18.187" transform="translate(30.197 45.147)" fill="#ebebeb"/>
      <path id="Path_5838" data-name="Path 5838" d="M189.643,104.433a.334.334,0,0,1-.222-.1l-4.744-4.942a.321.321,0,0,1,0-.432l4.744-4.942a.321.321,0,0,1,.445,0,.309.309,0,0,1,0,.445l-4.534,4.769,4.534,4.782a.309.309,0,0,1,0,.445A.358.358,0,0,1,189.643,104.433Z" transform="translate(-142.235 -35.786)" fill="#263238"/>
      <path id="Path_5839" data-name="Path 5839" d="M197.884,98.5H184.9a.309.309,0,0,1-.309-.309.321.321,0,0,1,.309-.309h12.986a.309.309,0,0,1,0,.618Z" transform="translate(-142.236 -34.855)" fill="#263238"/>
      <circle id="Ellipse_94" data-name="Ellipse 94" cx="16.359" cy="16.359" r="16.359" transform="translate(192.702 394.88) rotate(-80.74)" fill="#8dc63f"/>
      <path id="Path_5840" data-name="Path 5840" d="M322.023,360.831a2.953,2.953,0,0,1-2.953-2.941v-6.437a2.953,2.953,0,1,1,5.906,0v6.437A2.953,2.953,0,0,1,322.023,360.831Zm0-11.7a2.335,2.335,0,0,0-2.335,2.323v6.437a2.335,2.335,0,1,0,4.67,0v-6.437a2.335,2.335,0,0,0-2.335-2.335Z" transform="translate(-110.56 24.176)" fill="#fff"/>
      <path id="Path_5841" data-name="Path 5841" d="M322.554,361.57a5.3,5.3,0,0,1-4.139-1.643,7.883,7.883,0,0,1-1.569-5.473.31.31,0,0,1,.618.062,7.413,7.413,0,0,0,1.409,5,4.732,4.732,0,0,0,3.707,1.433,4.942,4.942,0,0,0,3.707-1.433,7.647,7.647,0,0,0,1.693-5.029.309.309,0,0,1,.618-.012,8.167,8.167,0,0,1-1.866,5.473A5.547,5.547,0,0,1,322.554,361.57Z" transform="translate(-111.092 25.512)" fill="#fff"/>
      <path id="Path_5842" data-name="Path 5842" d="M321.519,364.8a.309.309,0,0,1-.309-.309v-4.522a.309.309,0,1,1,.618,0v4.522A.309.309,0,0,1,321.519,364.8Z" transform="translate(-110.056 26.805)" fill="#fff"/>
      <circle id="Ellipse_95" data-name="Ellipse 95" cx="28.763" cy="28.763" r="28.763" transform="translate(101.154 374.109)" fill="#8dc63f"/>
      <path id="Path_5843" data-name="Path 5843" d="M254.873,366.7a4.942,4.942,0,0,0-7.413,1.507,2.978,2.978,0,0,0,.692,3.707c2.644,2.595,8.192,7.8,10.6,10.057a5.98,5.98,0,0,0,4.942,1.594,5.127,5.127,0,0,0,3.484-2.162c2.73-3.707-3.793-6.647-3.793-6.647l-2.854,2.99-6.647-6.412,2.916-3.212Z" transform="translate(-127.514 28.211)" fill="#fff"/>
    </g>
  </g>
</svg>
