<svg id="_876754" data-name="876754" xmlns="http://www.w3.org/2000/svg" width="29" height="29" viewBox="0 0 29 29">
  <g id="Group_386" data-name="Group 386">
    <g id="Group_385" data-name="Group 385">
      <path id="Path_4462" data-name="Path 4462" d="M25.893,3.107H22.786V1.036a1.036,1.036,0,1,0-2.071,0V3.107H8.286V1.036a1.036,1.036,0,1,0-2.071,0V3.107H3.107A3.107,3.107,0,0,0,0,6.214V25.893A3.107,3.107,0,0,0,3.107,29H25.893A3.107,3.107,0,0,0,29,25.893V6.214A3.107,3.107,0,0,0,25.893,3.107Zm1.036,22.786a1.036,1.036,0,0,1-1.036,1.036H3.107a1.036,1.036,0,0,1-1.036-1.036V12.429H26.929Zm0-15.536H2.071V6.214A1.036,1.036,0,0,1,3.107,5.179H6.214V7.25a1.036,1.036,0,0,0,2.071,0V5.179H20.714V7.25a1.036,1.036,0,1,0,2.071,0V5.179h3.107a1.036,1.036,0,0,1,1.036,1.036v4.143Z" fill="#b5b3b3"/>
    </g>
  </g>
  <g id="Group_388" data-name="Group 388" transform="translate(7.263 14.513)">
    <g id="Group_387" data-name="Group 387">
      <path id="Path_4463" data-name="Path 4463" d="M133.834,239.434a1.036,1.036,0,0,0-1.439,0l-7.554,7.553-3.411-3.411a1.036,1.036,0,0,0-1.464,1.465l4.143,4.143a1.036,1.036,0,0,0,1.464,0l8.286-8.286A1.036,1.036,0,0,0,133.834,239.434Z" transform="translate(-119.676 -239.143)" fill="#b5b3b3"/>
    </g>
  </g>
</svg>
