<svg xmlns="http://www.w3.org/2000/svg" width="779.999" height="373.735" viewBox="0 0 779.999 373.735">
  <g id="Setup-pana" transform="translate(-25.36 -121.68)">
    <g id="freepik--Floor--inject-65" transform="translate(25.36 455.782)">
      <path id="Path_4682" data-name="Path 4682" d="M805.359,420.652c0,.157-174.63.291-389.977.291s-390.022-.134-390.022-.291,174.585-.3,390.022-.3S805.359,420.484,805.359,420.652Z" transform="translate(-25.36 -420.35)" fill="#263238"/>
    </g>
    <g id="freepik--Device--inject-65" transform="translate(133.644 154.322)">
      <rect id="Rectangle_1116" data-name="Rectangle 1116" width="449.735" height="297.399" rx="14.57" transform="translate(18.178)" fill="#263238"/>
      <path id="Path_4683" data-name="Path 4683" d="M122.16,397.06H609.4v6.119a19.912,19.912,0,0,1-19.912,19.912H142.116A19.912,19.912,0,0,1,122.2,403.179V397.06Z" transform="translate(-122.16 -121.653)" fill="#455a64"/>
      <rect id="Rectangle_1117" data-name="Rectangle 1117" width="424.33" height="251.155" transform="translate(30.874 11.813)" fill="#ebebeb"/>
      <path id="Path_4684" data-name="Path 4684" d="M300.352,397.084h7.439l20.56-.078,68.74-.145h.515l-.257.436-2.729,4.676-2.931,4.877-.089.134h-.168l-85.072-.157h-.078l-4.475-7.249-1.119-1.835-.358-.6s.157.213.425.638.682,1.04,1.186,1.835l4.553,7.07h-.112l85.072-.168-.246.145,2.886-4.944,2.729-4.665.246.436-68.46-.157-20.65-.078h-7.584Z" transform="translate(-101.023 -121.677)" fill="#263238"/>
      <path id="Path_4685" data-name="Path 4685" d="M289.181,204.106a13.97,13.97,0,0,1,2.7-2.752l-.649-3.524,5.437-2.316,2.092,2.9a14.363,14.363,0,0,1,3.859,0l2.025-2.942,5.481,2.237-.559,3.535a14.285,14.285,0,0,1,2.752,2.7l3.513-.649,2.316,5.437-2.886,2.092a14.376,14.376,0,0,1,0,3.859L318.2,216.7l-2.237,5.481-3.524-.559a14.62,14.62,0,0,1-2.7,2.752l.638,3.513-5.437,2.316-2.092-2.886a14.286,14.286,0,0,1-3.848,0l-2.036,2.942-5.481-2.237.571-3.524a14.3,14.3,0,0,1-2.752-2.7l-3.524.638L283.465,217l2.9-2.092a14.287,14.287,0,0,1,0-3.848l-2.942-2.036,2.237-5.481,3.535.57Zm5.873,6.108a6.343,6.343,0,1,0,8.244-3.524,6.343,6.343,0,0,0-8.244,3.524Z" transform="translate(-103.029 -145.568)" fill="#e0e0e0" fill-rule="evenodd"/>
      <path id="Path_4686" data-name="Path 4686" d="M270.634,307.743a42.218,42.218,0,0,1,7.83-7.976l-1.857-10.18,15.75-6.712,6.063,8.39a42.351,42.351,0,0,1,11.186-.123l5.884-8.513,15.9,6.387-1.644,10.213a41.95,41.95,0,0,1,7.976,7.83l10.18-1.868,6.712,15.75-8.379,6.074a41.88,41.88,0,0,1,.112,11.186l8.513,5.884-6.376,15.885-10.224-1.644a41.892,41.892,0,0,1-7.83,7.976L332.3,376.45l-15.75,6.712-6.063-8.39a42.351,42.351,0,0,1-11.186.123l-5.884,8.513-15.929-6.4,1.644-10.213a41.945,41.945,0,0,1-7.976-7.83l-10.18,1.857-6.712-15.75,8.39-6.063a41.873,41.873,0,0,1-.123-11.186L254,321.995l6.387-15.885,10.213,1.633Zm17.037,17.708a18.368,18.368,0,1,0,23.894-10.2,18.368,18.368,0,0,0-23.894,10.2Z" transform="translate(-106.52 -135.228)" fill="#f5f5f5" fill-rule="evenodd"/>
      <path id="Path_4687" data-name="Path 4687" d="M198.688,325.521a23.489,23.489,0,0,1,4.318-4.419l-1.029-5.593,8.714-3.725,3.356,4.642a23.267,23.267,0,0,1,6.175-.067l3.255-4.709,8.792,3.535-.906,5.649a22.779,22.779,0,0,1,4.407,4.329l5.593-1.029,3.714,8.714-4.631,3.356a23.268,23.268,0,0,1,.067,6.175l4.709,3.255-3.535,8.792-5.593-.917a23.489,23.489,0,0,1-4.329,4.419l1.029,5.593-8.714,3.725-3.356-4.642a23.267,23.267,0,0,1-6.175.067l-3.244,4.71-8.792-3.535.906-5.649A23.042,23.042,0,0,1,199,353.878l-5.593,1.029-3.714-8.714,4.642-3.356a23.267,23.267,0,0,1-.067-6.175l-4.709-3.255,3.524-8.792,5.66.906Zm9.43,9.788a10.168,10.168,0,1,0,13.211-5.593,10.168,10.168,0,0,0-13.211,5.593Z" transform="translate(-114.164 -131.785)" fill="none"/>
      <path id="Path_4688" data-name="Path 4688" d="M206.239,333.5a7.438,7.438,0,0,1,1.119-2.237,10.135,10.135,0,0,1,5.593-3.949,10.291,10.291,0,0,1,9.7,2.237,9.842,9.842,0,0,1,1.924,2.293,9.43,9.43,0,0,1,1.23,2.875,10.37,10.37,0,0,1-4.6,11.466,9.866,9.866,0,0,1-2.886,1.219,9.35,9.35,0,0,1-2.976.324,10.3,10.3,0,0,1-8.546-5.112,10.124,10.124,0,0,1-1.275-6.712,7.708,7.708,0,0,1,.749-2.405,23.715,23.715,0,0,0-.526,2.439,10.2,10.2,0,0,0,1.409,6.454,9.877,9.877,0,0,0,3.21,3.255,10,10,0,0,0,10.582.022A9.821,9.821,0,0,0,225.3,334.84a9.116,9.116,0,0,0-1.119-2.729,9.619,9.619,0,0,0-1.812-2.237,10.068,10.068,0,0,0-4.665-2.36,9.877,9.877,0,0,0-4.564.145,10.067,10.067,0,0,0-5.481,3.68,23.992,23.992,0,0,0-1.421,2.159Z" transform="translate(-112.285 -129.974)" fill="#263238"/>
      <path id="Path_4689" data-name="Path 4689" d="M198.714,325.56h-.358l-1.119-.157-4.24-.626.1-.056c-.884,2.237-2.058,5.224-3.479,8.8v-.168l4.721,3.233.09.056v.045a23.077,23.077,0,0,0,.09,6.13v.112l-.089.067-4.631,3.356.067-.257,3.736,8.714-.246-.145,5.593-1.029h.145l.09.112a23.031,23.031,0,0,0,4.374,4.273l.123.089v.157c-.28,1.745-.593,3.68-.906,5.649l-.157-.28,8.792,3.524-.324.089,3.255-4.709.089-.134h.168a22.887,22.887,0,0,0,6.108-.078h.168l.1.134,3.356,4.642-.347-.1,8.714-3.714-.168.313c-.324-1.779-.682-3.7-1.029-5.593v-.179l.134-.112a22.864,22.864,0,0,0,4.273-4.351h0l.1-.145h.179l5.649.906-.313.179,3.535-8.792.1.347-4.743-3.244-.145-.1v-.168a22.765,22.765,0,0,0,0-6.108v-.168l.134-.1,4.642-3.356-.09.336c-1.275-2.976-2.506-5.884-3.714-8.714l.291.157-5.593,1.029h-.157l-.1-.123a23.179,23.179,0,0,0-4.441-4.273l-.123-.089v-.145c.313-1.946.615-3.826.917-5.649l.145.257-8.781-3.546.268-.089-3.266,4.709-.078.1h-.045a22.765,22.765,0,0,0-6.119,0h-.123l-.067-.1-3.356-4.654.2.067-8.725,3.669.078-.134.984,5.593v.056h0a23.256,23.256,0,0,0-3.356,3.177l-.75.873-.246.291a2.239,2.239,0,0,1,.213-.324c.145-.2.38-.515.7-.906a22.805,22.805,0,0,1,3.356-3.255v.089l-1.063-5.593v-.1h.1l8.692-3.759.123-.056.089.112,3.356,4.631-.179-.078a23.492,23.492,0,0,1,6.231-.078l-.2.078,3.244-4.709.1-.145.168.067,8.792,3.513.179.067v.19c-.3,1.835-.593,3.714-.906,5.66l-.089-.246a23.837,23.837,0,0,1,4.475,4.363l-.257-.089,5.593-1.04h.213l.078.19c1.208,2.83,2.461,5.739,3.725,8.714l.089.2-.179.134-4.642,3.356.123-.268a23.861,23.861,0,0,1,.067,6.253l-.123-.268,4.709,3.244.19.134-.078.213q-1.924,4.407-3.669,8.882l-.089.224h-.224l-5.593-.906.28-.112h0a23.335,23.335,0,0,1-4.374,4.475l.112-.28c.347,1.935.7,3.859,1.029,5.593v.224l-.213.089-8.714,3.714-.213.089-.123-.179-3.356-4.642.268.112a23.961,23.961,0,0,1-6.253.067l.257-.123c-1.119,1.633-2.237,3.244-3.255,4.709l-.123.179-.2-.078-8.86-3.613-.2-.078v-.2c.324-1.969.638-3.9.917-5.593l.1.235a23.286,23.286,0,0,1-4.475-4.374l.235.089-5.593,1.018h-.179l-.078-.168-3.691-8.725-.067-.157.134-.089,4.654-3.356-.078.179a23.212,23.212,0,0,1,0-6.22l.067.157-4.7-3.278-.089-.067v-.1l3.591-8.77v-.078h.078l4.184.727,1.119.2Z" transform="translate(-114.19 -131.824)" fill="#263238"/>
      <path id="Path_4690" data-name="Path 4690" d="M180.213,225.461a57.943,57.943,0,0,1,7.182-13.614l-6.454-12.73,18.178-15.068,11.309,8.692a57.912,57.912,0,0,1,14.71-4.542l4.475-13.569,23.491,2.237,1.846,14.151a57.576,57.576,0,0,1,13.614,7.193l12.73-6.466,15.068,18.178-8.7,11.309a57.485,57.485,0,0,1,4.553,14.71l13.569,4.475-2.237,23.491-14.128,1.745a57.576,57.576,0,0,1-7.193,13.614L288.687,292l-18.178,15.1L259.2,298.4a57.485,57.485,0,0,1-14.71,4.553l-4.475,13.569-23.491-2.237-1.846-14.151a57.574,57.574,0,0,1-13.614-7.193l-12.73,6.466-15.046-18.088L181.981,270a57.913,57.913,0,0,1-4.542-14.755l-13.569-4.475,2.237-23.491,14.151-1.846Zm29.476,16.7A25.337,25.337,0,1,0,237.263,219.3,25.337,25.337,0,0,0,209.689,242.162Z" transform="translate(-117.212 -148.04)" fill="#e0e0e0" fill-rule="evenodd"/>
    </g>
    <g id="freepik--computer-window--inject-65" transform="translate(323.263 121.68)">
      <rect id="Rectangle_1118" data-name="Rectangle 1118" width="367.202" height="250.831" rx="3.27" transform="translate(1.286)" fill="#8dc63f"/>
      <path id="Path_4691" data-name="Path 4691" d="M660.505,370.848,291.67,372.224l.906-234.264H660.505Z" transform="translate(-291.67 -119.749)" fill="#fafafa"/>
      <path id="Path_4692" data-name="Path 4692" d="M316.723,130.831a2.327,2.327,0,1,1-2.316-2.372,2.327,2.327,0,0,1,2.316,2.372Z" transform="translate(-289.25 -120.876)" fill="#263238"/>
      <path id="Path_4693" data-name="Path 4693" d="M304.763,130.9a2.327,2.327,0,1,1-2.327-2.36,2.327,2.327,0,0,1,2.327,2.36Z" transform="translate(-290.669 -120.866)" fill="#263238"/>
      <path id="Path_4694" data-name="Path 4694" d="M310.883,130.831a2.327,2.327,0,1,1-2.327-2.372,2.327,2.327,0,0,1,2.327,2.372Z" transform="translate(-289.943 -120.876)" fill="#263238"/>
      <rect id="Rectangle_1119" data-name="Rectangle 1119" width="325.511" height="69.355" transform="translate(23.581 166.877)" fill="#ebebeb"/>
      <path id="Path_4695" data-name="Path 4695" d="M606.46,282.031c0,.157-63.18.291-141.1.291s-141.115-.134-141.115-.291,63.169-.291,141.115-.291S606.46,281.852,606.46,282.031Z" transform="translate(-287.806 -102.692)" fill="#263238"/>
      <path id="Path_4696" data-name="Path 4696" d="M453.312,320.429c0-.056.805,0,2.237-.291a11.533,11.533,0,0,0,5.772-3.1,11.4,11.4,0,0,0,3.278-9.452,11.991,11.991,0,0,0-.794-3.009,12.216,12.216,0,0,0-1.723-2.83,11.377,11.377,0,0,0-6.007-3.77,14.6,14.6,0,0,0-3.87-.336H375.758a11.533,11.533,0,0,0-5.459,1.421,11.354,11.354,0,0,0-4.038,3.837,11.186,11.186,0,0,0,7.26,16.947,29.89,29.89,0,0,0,5.213.235h5.157l36.154.067,24.364.089,6.622.056h-6.622l-24.364.1-36.154.056h-5.157a30.646,30.646,0,0,1-5.325-.235,11.779,11.779,0,0,1-3.356-21.836,12.026,12.026,0,0,1,5.739-1.5h76.447a14.216,14.216,0,0,1,3.971.369,11.712,11.712,0,0,1,6.2,3.926,12.975,12.975,0,0,1,1.756,2.931,12.722,12.722,0,0,1,.794,3.11,11.578,11.578,0,0,1-9.273,12.708,11.107,11.107,0,0,1-1.723.168Z" transform="translate(-283.09 -100.897)" fill="#263238"/>
      <path id="Path_4697" data-name="Path 4697" d="M562.223,320.429c0-.056.805,0,2.237-.291a11.567,11.567,0,0,0,5.705-3.1,11.4,11.4,0,0,0,3.266-9.452,11.992,11.992,0,0,0-.794-3.009,12.56,12.56,0,0,0-1.711-2.83,11.376,11.376,0,0,0-6.007-3.77,14.642,14.642,0,0,0-3.87-.336H484.59a11.567,11.567,0,0,0-5.459,1.421,11.186,11.186,0,0,0,3.222,20.784,29.936,29.936,0,0,0,5.213.235h5.168l36.143.067,24.364.089,6.633.056H553.24l-24.364.1-36.143.056h-5.168a30.649,30.649,0,0,1-5.325-.235,11.788,11.788,0,0,1-3.39-21.836,12.059,12.059,0,0,1,5.739-1.5h76.458a14.252,14.252,0,0,1,3.971.369,11.723,11.723,0,0,1,6.186,3.926,12.572,12.572,0,0,1,1.756,2.931,12.723,12.723,0,0,1,.794,3.11,11.578,11.578,0,0,1-9.273,12.708,10.979,10.979,0,0,1-1.712.168Z" transform="translate(-270.182 -100.897)" fill="#263238"/>
      <rect id="Rectangle_1120" data-name="Rectangle 1120" width="117.434" height="111.941" transform="translate(20.941 37.765)" fill="#8dc63f"/>
      <path id="Path_4698" data-name="Path 4698" d="M424.6,261.839v-7.361c0-4.788,0-11.79-.067-20.695,0-17.82-.078-43.269-.123-73.83l.246.257H314.583l.291-.291V261.839l-.257-.257,79.658.123,22.429.067h.112l-22.373.067-79.814.134h-.257V159.63H424.991v.246c-.056,30.662-.1,56.166-.123,74.02,0,8.882,0,15.862-.067,20.639v5.414A7.132,7.132,0,0,1,424.6,261.839Z" transform="translate(-288.977 -117.178)" fill="#263238"/>
      <path id="Path_4699" data-name="Path 4699" d="M424.528,204.957a2.961,2.961,0,0,1-.447-.324l-1.253-1-4.732-3.848-16.958-14.016h.3l-32.194,26.355-5.492,4.475-.19.157-.19-.168-16.847-15.348h.358l-22.966,19.822-6.566,5.593-1.756,1.477-.447.369-.168.112s0-.056.134-.145l.425-.4,1.7-1.533,6.466-5.716,22.831-19.979.179-.157.168.157,16.88,15.314h-.369l5.481-4.475L401.137,185.4l.157-.123.145.134,16.88,14.162,4.654,3.96,1.208,1.04a3.651,3.651,0,0,1,.347.38Z" transform="translate(-288.905 -114.135)" fill="#263238"/>
      <path id="Path_4700" data-name="Path 4700" d="M371.5,180.634a15.731,15.731,0,0,0-.369-2,8.334,8.334,0,0,0-3.054-4.475,7.964,7.964,0,0,0-3.423-1.488,8.188,8.188,0,0,0-4.24.369,8.075,8.075,0,0,0,0,15.157,8.188,8.188,0,0,0,4.24.369,7.965,7.965,0,0,0,3.423-1.488,8.334,8.334,0,0,0,3.054-4.475c.336-1.264.3-2.014.369-2.014a3.421,3.421,0,0,1,0,.537,7.261,7.261,0,0,1-.19,1.533,8.267,8.267,0,0,1-3.009,4.721,8.368,8.368,0,0,1-3.591,1.633,8.58,8.58,0,1,1,0-16.835,8.423,8.423,0,0,1,3.591,1.633,8.267,8.267,0,0,1,3.009,4.721,7.261,7.261,0,0,1,.19,1.533,3.022,3.022,0,0,1,0,.57Z" transform="translate(-284.22 -115.709)" fill="#263238"/>
    </g>
    <g id="freepik--character-2--inject-65" transform="translate(637.258 199.388)">
      <path id="Path_4701" data-name="Path 4701" d="M657.487,257.9l-12.607-15.75s-20.348,15.873-22.585,14.665c-12.775-6.712-23.1-19.017-26.6-23.491-.123-.805-.246-1.767-.347-2.9a8.8,8.8,0,0,1,.269-2.908,13.242,13.242,0,0,1,1.275-3.356,1.119,1.119,0,0,0-1.119-1.8c-.962.336-2.763,2.841-3.356,6.387s-3.356-1.387-4.475-3.166-4.542-7.137-5.347-7.249c-1.175-.157-1.566,1.119-.47,2.83s3.971,7.238,3.009,7.741-6.164-8.636-6.164-8.636-.794-2.125-1.935-1.577c-2.047,1,4.206,10.291,4.821,11.186.425.6-.6,1.186-1.029.515s-4.978-9.229-7.081-8.233c-1.611.749,5.067,7.7,5.034,9.989s-4.53-5.783-6.041-4.989c-.559.291-.94.593,2.3,4.855a107.776,107.776,0,0,0,7.831,8.5h0s30.08,46.233,50.976,33.895C656.011,261.253,657.487,257.9,657.487,257.9Z" transform="translate(-572.366 -187.924)" fill="#eb996e"/>
      <path id="Path_4702" data-name="Path 4702" d="M692.81,430.841l-6.51-5.056,9.374-12.3,9.609,7.282-.537.805c-2.394,3.524-12.45,17.764-14.867,19.5C687.195,443.079,692.81,430.841,692.81,430.841Z" transform="translate(-558.85 -164.772)" fill="#8dc63f"/>
      <g id="Group_970" data-name="Group 970" transform="translate(130.321 255.912)" opacity="0.4">
        <path id="Path_4703" data-name="Path 4703" d="M689.944,436.218s-1.745,4.475-.794,4.475S700.806,426.7,704.979,420.1l-.291-.179-12.3,16.433S690.515,435.525,689.944,436.218Z" transform="translate(-688.866 -419.92)" fill="#fff"/>
      </g>
      <path id="Path_4704" data-name="Path 4704" d="M704.825,419.72l-.146.224-.425.638-1.6,2.3c-1.376,1.935-3.356,4.575-5.5,7.461s-4.24,5.437-5.739,7.271c-.7.85-1.309,1.566-1.79,2.159l-.5.571-.179.2s0-.078.145-.224l.481-.593,1.745-2.237c1.477-1.846,3.5-4.419,5.694-7.3s4.139-5.5,5.593-7.417l1.656-2.237.459-.615C704.757,419.787,704.813,419.709,704.825,419.72Z" transform="translate(-558.536 -164.031)" fill="#263238"/>
      <path id="Path_4705" data-name="Path 4705" d="M692.448,434.785a6.151,6.151,0,0,0-1.376-.392,6.512,6.512,0,0,0-1.432.1,2.081,2.081,0,0,1,1.443-.291,1.991,1.991,0,0,1,1.365.582Z" transform="translate(-558.453 -162.316)" fill="#263238"/>
      <path id="Path_4706" data-name="Path 4706" d="M693.16,430.252a2.413,2.413,0,0,1-.761,0c-.414-.067-.761-.112-.749-.168a1.812,1.812,0,0,1,.761,0,1.645,1.645,0,0,1,.75.168Z" transform="translate(-558.215 -162.807)" fill="#263238"/>
      <path id="Path_4707" data-name="Path 4707" d="M693.325,429.005a2.388,2.388,0,0,1-.615.213c-.347.067-.649.078-.66,0s.268-.145.626-.213S693.314,428.938,693.325,429.005Z" transform="translate(-558.167 -162.936)" fill="#263238"/>
      <path id="Path_4708" data-name="Path 4708" d="M692.693,427.63a1.98,1.98,0,0,1-.414.7c-.268.358-.515.626-.559.593a1.981,1.981,0,0,1,.414-.7C692.4,427.865,692.648,427.608,692.693,427.63Z" transform="translate(-558.206 -163.093)" fill="#263238"/>
      <path id="Path_4709" data-name="Path 4709" d="M692.106,426.88a1.569,1.569,0,0,1-.336.873c-.336.436-.626.7-.66.671a5.3,5.3,0,0,1,.5-.772,7.749,7.749,0,0,1,.492-.772Z" transform="translate(-558.279 -163.182)" fill="#263238"/>
      <path id="Path_4710" data-name="Path 4710" d="M692.018,429.871a2.741,2.741,0,0,1-.6.783,5.511,5.511,0,0,1-.828.7,2.941,2.941,0,0,1-.559.324.548.548,0,0,1-.4,0,.414.414,0,0,1-.224-.358,1.835,1.835,0,0,1,2.517-1.32c.157.067.235.134.224.145a2.538,2.538,0,0,0-.951-.134,1.722,1.722,0,0,0-.951.336,1.51,1.51,0,0,0-.66.984c0,.2.179.268.369.19a2.686,2.686,0,0,0,.526-.3,7.35,7.35,0,0,0,.839-.649C691.76,430.151,692,429.86,692.018,429.871Z" transform="translate(-558.482 -162.829)" fill="#263238"/>
      <path id="Path_4711" data-name="Path 4711" d="M691.758,430.3a.962.962,0,0,1-.615-.324,1.488,1.488,0,0,1-.414-.66.984.984,0,0,1,.1-.962.414.414,0,0,1,.548,0,1.12,1.12,0,0,1,.246.4,2.66,2.66,0,0,1,.19.738,1.365,1.365,0,0,1,0,.694,3.141,3.141,0,0,0-.1-.671,3.793,3.793,0,0,0-.224-.694c-.078-.235-.324-.537-.515-.358a.873.873,0,0,0,0,.772,1.543,1.543,0,0,0,.336.615A3,3,0,0,0,691.758,430.3Z" transform="translate(-558.334 -163.02)" fill="#263238"/>
      <path id="Path_4712" data-name="Path 4712" d="M700.164,417.65a5.869,5.869,0,0,0-.66.928,5.078,5.078,0,0,0-.7,2.606,4.99,4.99,0,0,0,.805,2.562c.38.593.727.884.694.906a1.232,1.232,0,0,1-.246-.19,4.48,4.48,0,0,1-.559-.638,4.856,4.856,0,0,1-.873-2.64,4.711,4.711,0,0,1,.772-2.673,3.36,3.36,0,0,1,.526-.66A.555.555,0,0,1,700.164,417.65Z" transform="translate(-557.388 -164.277)" fill="#263238"/>
      <path id="Path_4713" data-name="Path 4713" d="M694.53,415.3a25.57,25.57,0,0,1,2.606,1.823,23.885,23.885,0,0,1,2.483,1.969s-1.186-.783-2.6-1.823a28.914,28.914,0,0,1-2.495-1.969Z" transform="translate(-557.873 -164.556)" fill="#263238"/>
      <path id="Path_4714" data-name="Path 4714" d="M698.287,424.54a8.86,8.86,0,0,1-1.186,1.924,8.087,8.087,0,0,1-1.521,1.678s.626-.794,1.365-1.79S698.287,424.507,698.287,424.54Z" transform="translate(-557.749 -163.46)" fill="#263238"/>
      <path id="Path_4715" data-name="Path 4715" d="M699.663,422.38c.056,0,.123.2.246.425s.246.392.213.425-.246-.078-.38-.336S699.618,422.391,699.663,422.38Z" transform="translate(-557.268 -163.716)" fill="#263238"/>
      <path id="Path_4716" data-name="Path 4716" d="M699.273,420.8c.056,0,.123.179.157.4a1.43,1.43,0,0,1,0,.414,1.067,1.067,0,0,1-.145-.392C699.25,421,699.228,420.811,699.273,420.8Z" transform="translate(-557.313 -163.903)" fill="#263238"/>
      <path id="Path_4717" data-name="Path 4717" d="M699.74,419.291a2.851,2.851,0,0,0-.168.436c-.067.235-.078.436-.134.436s-.145-.213,0-.492S699.707,419.257,699.74,419.291Z" transform="translate(-557.3 -164.083)" fill="#263238"/>
      <path id="Path_4718" data-name="Path 4718" d="M700.132,418.3v.268c0,.134-.112.224-.168.213s-.056-.134,0-.268S700.076,418.289,700.132,418.3Z" transform="translate(-557.234 -164.2)" fill="#263238"/>
      <g id="Group_971" data-name="Group 971" transform="translate(131.366 252.445)" opacity="0.3">
        <path id="Path_4719" data-name="Path 4719" d="M700.83,417.514l-9.564,12.1-1.465-1.152,10.325-11.645Z" transform="translate(-689.8 -416.82)"/>
      </g>
      <path id="Path_4720" data-name="Path 4720" d="M647.958,451.663l-1.04-8.177,15.3-2.036,1.644,11.947-.94.19c-4.195.794-21.366,3.759-24.308,3.278C635.34,456.328,647.958,451.663,647.958,451.663Z" transform="translate(-564.571 -161.454)" fill="#8dc63f"/>
      <g id="Group_972" data-name="Group 972" transform="translate(73.474 291.619)" opacity="0.4">
        <path id="Path_4721" data-name="Path 4721" d="M641.831,452.936s-4.385,1.924-3.714,2.6,18.133-1.667,25.729-3.356l-.067-.336-20.359,2.9S642.726,452.858,641.831,452.936Z" transform="translate(-638.047 -451.84)" fill="#fff"/>
      </g>
      <path id="Path_4722" data-name="Path 4722" d="M664.033,451.79l-.257.067-.749.145-2.763.492c-2.338.392-5.593.906-9.162,1.387s-6.846.85-9.206,1.119l-2.8.257-.761.056h0l.749-.089,2.8-.313c2.349-.268,5.593-.649,9.184-1.119s6.824-.973,9.173-1.342l2.774-.436.749-.112a.973.973,0,0,1,.268-.112Z" transform="translate(-564.571 -160.227)" fill="#263238"/>
      <path id="Path_4723" data-name="Path 4723" d="M643.092,454.863a6.93,6.93,0,0,0-.694-1.253,6.435,6.435,0,0,0-1.119-.94,2.1,2.1,0,0,1,1.242.817,2.058,2.058,0,0,1,.571,1.376Z" transform="translate(-564.19 -160.122)" fill="#263238"/>
      <path id="Path_4724" data-name="Path 4724" d="M646.764,452.175a1.824,1.824,0,0,1-.559-.526c-.268-.324-.459-.615-.414-.649s.291.2.559.526S646.809,452.119,646.764,452.175Z" transform="translate(-563.656 -160.321)" fill="#263238"/>
      <path id="Path_4725" data-name="Path 4725" d="M647.8,451.388a2.372,2.372,0,0,1-.582-.291c-.291-.2-.515-.392-.481-.436s.291.089.582.291S647.837,451.343,647.8,451.388Z" transform="translate(-563.543 -160.362)" fill="#263238"/>
      <path id="Path_4726" data-name="Path 4726" d="M648.39,449.935a1.834,1.834,0,0,1-.783.2,1.712,1.712,0,0,1-.817,0,1.925,1.925,0,0,1,.794-.2,1.667,1.667,0,0,1,.805,0Z" transform="translate(-563.537 -160.453)" fill="#263238"/>
      <path id="Path_4727" data-name="Path 4727" d="M648.53,449a1.532,1.532,0,0,1-.861.38,1.444,1.444,0,0,1-.929,0,4.473,4.473,0,0,1,.895-.179A6.086,6.086,0,0,1,648.53,449Z" transform="translate(-563.543 -160.558)" fill="#263238"/>
      <path id="Path_4728" data-name="Path 4728" d="M646.323,451.028a2.786,2.786,0,0,1-.984.134,5.592,5.592,0,0,1-1.119-.1,2.4,2.4,0,0,1-.638-.157.57.57,0,0,1-.28-.28.38.38,0,0,1,.09-.414,1.857,1.857,0,0,1,2.718.85.56.56,0,0,1,.056.257,3.062,3.062,0,0,0-.559-.783,1.8,1.8,0,0,0-.917-.425,1.51,1.51,0,0,0-1.119.235c-.145.134-.056.313.123.391a3.563,3.563,0,0,0,.593.157,6.48,6.48,0,0,0,1.04.134C645.988,451.05,646.323,451.005,646.323,451.028Z" transform="translate(-563.953 -160.449)" fill="#263238"/>
      <path id="Path_4729" data-name="Path 4729" d="M645.842,451.216a1.007,1.007,0,0,1-.2-.671,1.475,1.475,0,0,1,.168-.749,1,1,0,0,1,.749-.615.4.4,0,0,1,.369.414,1.119,1.119,0,0,1-.112.459,3.222,3.222,0,0,1-.38.66c-.268.347-.5.492-.515.47s.168-.2.4-.548a3.722,3.722,0,0,0,.336-.638c.1-.235.146-.615-.1-.626s-.47.291-.593.5a1.521,1.521,0,0,0-.2.671A3.444,3.444,0,0,0,645.842,451.216Z" transform="translate(-563.673 -160.536)" fill="#263238"/>
      <path id="Path_4730" data-name="Path 4730" d="M661.016,448.095a4.542,4.542,0,0,0-1.119.19,4.955,4.955,0,0,0-2.327,1.342,5.044,5.044,0,0,0-1.253,2.383c-.145.694-.1,1.119-.145,1.119a1.052,1.052,0,0,1,0-.3,4.2,4.2,0,0,1,0-.85,4.665,4.665,0,0,1,3.68-3.837,4.556,4.556,0,0,1,.839-.089.794.794,0,0,1,.324.045Z" transform="translate(-562.426 -160.671)" fill="#263238"/>
      <path id="Path_4731" data-name="Path 4731" d="M658.32,442.58a56.3,56.3,0,0,1,.917,6.276,29.929,29.929,0,0,1-.548-3.121,25.172,25.172,0,0,1-.369-3.155Z" transform="translate(-562.169 -161.319)" fill="#263238"/>
      <path id="Path_4732" data-name="Path 4732" d="M654.724,451.581a8.727,8.727,0,0,1-2.237.526,8.2,8.2,0,0,1-2.237.112s1.007-.123,2.237-.3S654.713,451.525,654.724,451.581Z" transform="translate(-563.126 -160.253)" fill="#263238"/>
      <path id="Path_4733" data-name="Path 4733" d="M656.965,451.22a1.1,1.1,0,0,1-.123.459c-.123.235-.1.459-.145.459s-.112-.224,0-.5S656.931,451.187,656.965,451.22Z" transform="translate(-562.369 -160.295)" fill="#263238"/>
      <path id="Path_4734" data-name="Path 4734" d="M657.835,449.831a.586.586,0,0,1-.179.38c-.179.179-.28.3-.324.268s0-.2.179-.38S657.79,449.8,657.835,449.831Z" transform="translate(-562.288 -160.46)" fill="#263238"/>
      <path id="Path_4735" data-name="Path 4735" d="M659.239,449.066a4.018,4.018,0,0,0-.425.19c-.213.112-.358.246-.4.213s.056-.257.313-.38S659.239,449,659.239,449.066Z" transform="translate(-562.159 -160.557)" fill="#263238"/>
      <path id="Path_4736" data-name="Path 4736" d="M660.187,448.654s0,.134-.179.2-.235.078-.257,0,0-.134.168-.2S660.165,448.61,660.187,448.654Z" transform="translate(-562 -160.604)" fill="#263238"/>
      <g id="Group_973" data-name="Group 973" transform="translate(82.974 285.008)" opacity="0.3">
        <path id="Path_4737" data-name="Path 4737" d="M662.078,447.932l-15.314,1.79-.224-1.846,15.37-1.946Z" transform="translate(-646.54 -445.93)"/>
      </g>
      <path id="Path_4738" data-name="Path 4738" d="M671.852,229.945a17.149,17.149,0,0,1,13.122,4.754l3.155,15.549-5.4,21.791c-1.588,6.376,3.054,15.281,4.3,25.729l-42.687,7.506-.123-25.583-4.474-13.614-7.025,4.553-15-17.384,13.916-11.086a39.488,39.488,0,0,1,24.778-11.1" transform="translate(-566.986 -186.55)" fill="#8dc63f"/>
      <path id="Path_4739" data-name="Path 4739" d="M642.1,249.26c0,.089-.928.425-2.237,1.4a10.068,10.068,0,0,0-3.445,5.023,9.878,9.878,0,0,0,.3,6.085c.559,1.5,1.208,2.293,1.119,2.349a5.168,5.168,0,0,1-1.521-2.237,9.34,9.34,0,0,1,3.356-11.589,5.291,5.291,0,0,1,2.427-1.029Z" transform="translate(-564.876 -184.253)" fill="#263238"/>
      <path id="Path_4740" data-name="Path 4740" d="M651.167,230.936A11.556,11.556,0,0,0,652.286,235a9.094,9.094,0,0,0,2.964,3.356,8.681,8.681,0,0,0,10.28-.649,9.005,9.005,0,0,0,2.517-3.7,11.712,11.712,0,0,0,.559-4.161,3.356,3.356,0,0,1,.224,1.119,8.59,8.59,0,0,1-.391,3.155,8.859,8.859,0,0,1-16.522,1.029,8.222,8.222,0,0,1-.772-3.076A2.717,2.717,0,0,1,651.167,230.936Z" transform="translate(-563.026 -186.557)" fill="#263238"/>
      <path id="Path_4741" data-name="Path 4741" d="M615.473,285.61c-1.2-1.667-9.564-3.087-8.848-4.475.917-1.835,8.658,1.879,9.341,2.148s1.052-.716.425-.928c-.895-.291-10.224-3.647-9.329-5.448.492-1,2.237.112,2.237.112s8.513,3.781,8.949,2.92-4.53-3.278-6.253-3.96-2.081-1.767-1.174-2.237c.615-.347,5.918,1.633,7.6,2.36s6.276,2.774,4.788-.1l-.067-.134c-1.532-2.785-1.79-5.437-1.342-6.253a1.119,1.119,0,0,1,1.958.257,1.049,1.049,0,0,1,.123.436v.246a15.738,15.738,0,0,0,1.242,3.009,8.869,8.869,0,0,0,1.745,2.327c.828.772,1.566,1.409,2.237,1.924,5.593,1.007,21.545,3.266,35.517-.3,2.528-.649,11.477-28.961,11.477-28.961l17.082,8.311c-.694,3.356-3.77,11.746-8.222,25.93-7.282,23.156-60.406,6.913-60.406,6.913h0l-.47-.056a106,106,0,0,1-11.186-2.092c-4.542-1.331-4.474-1.745-4.206-2.237C609.287,283.876,616.681,287.288,615.473,285.61Z" transform="translate(-568.307 -184.338)" fill="#ffbe9d"/>
      <path id="Path_4742" data-name="Path 4742" d="M659.55,272.476a22.369,22.369,0,0,1,1.018-3.457l2.651-8.244c.962-3.155,1.835-6.007,2.539-8.289a24.242,24.242,0,0,1,1.119-3.356,22.264,22.264,0,0,1-.738,3.524c-.548,2.159-1.365,5.112-2.383,8.345s-2.036,6.141-2.83,8.211A21.9,21.9,0,0,1,659.55,272.476Z" transform="translate(-562.023 -184.269)" fill="#263238"/>
      <path id="Path_4743" data-name="Path 4743" d="M675.278,231.361s11.723,2.092,12.193,21.254a74.714,74.714,0,0,1-7.282,33.749L659.55,275.558a127.528,127.528,0,0,0,10.381-29.185l5.336-15.023Z" transform="translate(-562.023 -186.378)" fill="#8dc63f"/>
      <path id="Path_4744" data-name="Path 4744" d="M659.17,270.62a23.549,23.549,0,0,1,3.054,1.544c1.868.984,4.475,2.338,7.338,3.747s5.593,2.584,7.495,3.434a22.472,22.472,0,0,1,3.1,1.443,18.245,18.245,0,0,1-3.255-1.063c-1.98-.75-4.687-1.891-7.6-3.289s-5.47-2.83-7.282-3.915A17.766,17.766,0,0,1,659.17,270.62Z" transform="translate(-562.068 -181.719)" fill="#263238"/>
      <path id="Path_4745" data-name="Path 4745" d="M684.758,259.05a18.5,18.5,0,0,1-.447,3.457c-.38,2.114-1.018,5.023-1.879,8.188s-1.767,6.007-2.45,8.043a20.136,20.136,0,0,1-1.242,3.255,20.425,20.425,0,0,1,.85-3.356l2.237-8.077c.861-3.155,1.566-6.029,2.047-8.121a24,24,0,0,1,.884-3.389Z" transform="translate(-559.746 -183.092)" fill="#263238"/>
      <path id="Path_4746" data-name="Path 4746" d="M674.389,198.06a6.164,6.164,0,0,1,3.837,6.712,6.857,6.857,0,0,1,3.177,12.585,7.3,7.3,0,0,1-10.381,10.068,7.07,7.07,0,0,1-7.182,3.624,11.332,11.332,0,0,1-7.2-4.284,8.009,8.009,0,0,1-13.714-7.83,4.989,4.989,0,0,1-4.352-4.575,6.712,6.712,0,0,1,2.964-5.873s-5.593-9.307,5-8.647" transform="translate(-564.513 -190.327)" fill="#263238"/>
      <path id="Path_4747" data-name="Path 4747" d="M669.292,236.172l1.376-32.63-13.088-9.911-11.891,5.817s-.391,14.934,0,21.411,6.924,7.159,6.924,7.159-.19,3.58-.391,7.338a8.535,8.535,0,0,0,7.92,8.949h0a8.524,8.524,0,0,0,9.15-8.132Z" transform="translate(-563.688 -190.853)" fill="#ffbe9d"/>
      <path id="Path_4748" data-name="Path 4748" d="M646.87,208.438a.828.828,0,1,0,.828-.828.828.828,0,0,0-.828.828Z" transform="translate(-563.527 -189.194)" fill="#263238"/>
      <path id="Path_4749" data-name="Path 4749" d="M646.151,207.646c.112.112.727-.4,1.611-.459s1.566.38,1.656.268-.067-.257-.358-.459a2.171,2.171,0,0,0-1.331-.347,2.237,2.237,0,0,0-1.275.5C646.185,207.4,646.106,207.6,646.151,207.646Z" transform="translate(-563.614 -189.309)" fill="#263238"/>
      <path id="Path_4750" data-name="Path 4750" d="M655.45,208.438a.839.839,0,1,0,.839-.828.839.839,0,0,0-.839.828Z" transform="translate(-562.509 -189.194)" fill="#263238"/>
      <path id="Path_4751" data-name="Path 4751" d="M655,207.856c.112.112.727-.414,1.611-.459s1.566.38,1.656.257,0-.246-.358-.447a2.148,2.148,0,0,0-1.331-.347,2.237,2.237,0,0,0-1.275.5A.623.623,0,0,0,655,207.856Z" transform="translate(-562.563 -189.284)" fill="#263238"/>
      <path id="Path_4752" data-name="Path 4752" d="M651.909,224.677a16.086,16.086,0,0,0,8.58-2.9s-2.17,4.765-8.669,4.475Z" transform="translate(-562.94 -187.513)" fill="#eb996e"/>
      <path id="Path_4753" data-name="Path 4753" d="M652.359,215.312a6.579,6.579,0,0,0-1.465-.179c-.224,0-.447,0-.492-.213a1.23,1.23,0,0,1,.123-.727c.19-.582.392-1.2.615-1.846.425-1.32.783-2.517,1.029-3.356a6.435,6.435,0,0,0,.336-1.432,5.32,5.32,0,0,0-.571,1.354c-.313.861-.716,2.036-1.119,3.356l-.582,1.857a1.477,1.477,0,0,0-.089.94.559.559,0,0,0,.38.313,1.119,1.119,0,0,0,.38,0,5.961,5.961,0,0,0,1.454-.067Z" transform="translate(-563.143 -189.2)" fill="#263238"/>
      <path id="Path_4754" data-name="Path 4754" d="M648.7,193.28a10.845,10.845,0,0,0-1.354-.235A2.629,2.629,0,0,0,645.3,197.4c.526.615,1.052.783,1.018.873s-.615,0-1.309-.593a2.964,2.964,0,0,1,.761-4.8,2.92,2.92,0,0,1,1.6-.235C648.328,192.777,648.742,193.236,648.7,193.28Z" transform="translate(-563.856 -190.973)" fill="#263238"/>
      <path id="Path_4755" data-name="Path 4755" d="M639.379,217.873a1.178,1.178,0,0,0,.078-.5.929.929,0,0,0-.738-.884,1.119,1.119,0,0,0-1.242,1.007,1.711,1.711,0,0,0,1.264,1.712,2.416,2.416,0,0,0,2.237-.447,2.9,2.9,0,0,0,.984-1.712,1.555,1.555,0,0,0-.168-1.286c-.19-.257-.392-.291-.38-.336s.235-.089.548.179a1.723,1.723,0,0,1,.414,1.5,3.277,3.277,0,0,1-1.04,2.07,2.908,2.908,0,0,1-2.785.582,2.237,2.237,0,0,1-1.611-2.327,1.633,1.633,0,0,1,.7-1.119,1.488,1.488,0,0,1,1.119-.19,1.186,1.186,0,0,1,.761.6,1.119,1.119,0,0,1,.112.694C639.614,217.784,639.4,217.907,639.379,217.873Z" transform="translate(-564.706 -188.271)" fill="#263238"/>
      <path id="Path_4756" data-name="Path 4756" d="M676.8,214.069a3.358,3.358,0,0,0,.694.895,2.237,2.237,0,0,0,1.175.515,2.528,2.528,0,0,0,1.633-.38,4.117,4.117,0,0,0,1.678-3.938,5.369,5.369,0,0,0-.794-2.528,3.356,3.356,0,0,0-2.237-1.521,2.673,2.673,0,0,0-2.427.671l-1.421,1.465.962-1.79a7.484,7.484,0,0,0,1.04-4.475,3.591,3.591,0,0,0-1.969-2.841,2.886,2.886,0,0,0-2.338,0c-.515.257-.7.548-.749.515s.123-.347.649-.682a2.953,2.953,0,0,1,2.573-.224,3.938,3.938,0,0,1,2.327,3.11,7.83,7.83,0,0,1-1.029,4.777l-.459-.324a3.289,3.289,0,0,1,2.942-.861,3.882,3.882,0,0,1,2.606,1.8,5.827,5.827,0,0,1,.861,2.8,5.592,5.592,0,0,1-.459,2.606,3.669,3.669,0,0,1-1.555,1.723,2.8,2.8,0,0,1-1.89.347,2.517,2.517,0,0,1-1.275-.671A1.2,1.2,0,0,1,676.8,214.069Z" transform="translate(-560.541 -190.15)" fill="#263238"/>
      <path id="Path_4757" data-name="Path 4757" d="M673.656,210.726a12.529,12.529,0,0,0,.716-6.578,9.978,9.978,0,0,0-1.9-5.135,4.989,4.989,0,0,0-4.911-1.879,5.962,5.962,0,0,0-10.571-3.669,8.647,8.647,0,0,0-5.224-2.3,6.007,6.007,0,0,0-5.1,2.237,4.62,4.62,0,0,0-.123,5.414,3.624,3.624,0,1,0,4.575,4.676,3.468,3.468,0,0,0,3.792,2.707,5.023,5.023,0,0,0,3.848-3.076,5.28,5.28,0,0,0,4.553,5.067,4.788,4.788,0,0,0,1.823-.179,4.318,4.318,0,0,0,1.331,6.9,2.875,2.875,0,0,0-1.834,2.237,6.006,6.006,0,0,0,.268,2.976c.828,2.774,2.785,7.081,5.47,8.166s6.1-1.443,7.495-3.982Z" transform="translate(-563.857 -191.147)" fill="#263238"/>
      <path id="Path_4758" data-name="Path 4758" d="M655.292,215.525a1.684,1.684,0,0,0-2.506.3,1.231,1.231,0,0,0-.246.85,1.309,1.309,0,0,0,.626.928,1.8,1.8,0,0,0,1.633.19,1.566,1.566,0,0,0,.984-1.286,1.118,1.118,0,0,0-.772-1.175" transform="translate(-562.855 -188.306)" fill="#eb996e"/>
      <path id="Path_4759" data-name="Path 4759" d="M655.788,214.891c.145.056-.2,1.119-1.253,1.79s-2.137.649-2.125.492.895-.358,1.8-.984S655.643,214.812,655.788,214.891Z" transform="translate(-562.87 -188.331)" fill="#263238"/>
      <path id="Path_4760" data-name="Path 4760" d="M644.853,297.577s-16.075,81.817-14.318,85.7,61.279,67.118,61.279,67.118l17.9-21.713s-49.533-55.283-49.22-56.771,17.551-80.34,17.551-80.34Z" transform="translate(-565.481 -179.234)" fill="#263238"/>
      <path id="Path_4761" data-name="Path 4761" d="M681.41,433.414a4.543,4.543,0,0,1,.66-1l1.9-2.528c1.611-2.125,3.848-5.067,6.253-8.345s4.553-6.287,6.1-8.468c.727-1,1.342-1.857,1.846-2.562a4.709,4.709,0,0,1,.738-.906,4.332,4.332,0,0,1-.548,1.029c-.38.638-.962,1.555-1.689,2.674-1.465,2.237-3.557,5.291-5.974,8.58s-4.7,6.2-6.4,8.255c-.85,1.029-1.555,1.857-2.058,2.416a4.283,4.283,0,0,1-.828.85Z" transform="translate(-559.43 -165.231)" fill="#455a64"/>
      <path id="Path_4762" data-name="Path 4762" d="M648.935,296.556l-2.3.593,1.007,13.323c-4.049,21.88-12.148,68.091-11.108,82.108,1.376,18.592,4.631,75.541,4.631,75.541l26.6-4.083-1.991-68.8,5.727-28.167,15.225-51.021a35.114,35.114,0,0,0-2.394-26.031l-1.4-2.763" transform="translate(-564.765 -179.745)" fill="#263238"/>
      <path id="Path_4763" data-name="Path 4763" d="M663.865,293.71c.1,0,.157.895.638,2.237a10.189,10.189,0,0,0,3.166,4.475,10.068,10.068,0,0,0,4.385,1.958,13.5,13.5,0,0,0,2.752.179h0c.19,0,.268.078.268.112s-.1,0-.28,0h0a7.585,7.585,0,0,1-2.83.123,9.34,9.34,0,0,1-7.831-6.712A4.91,4.91,0,0,1,663.865,293.71Z" transform="translate(-561.516 -178.98)" fill="#455a64"/>
      <path id="Path_4764" data-name="Path 4764" d="M640.24,443.878a4.372,4.372,0,0,1,1.018-.336c.66-.19,1.622-.425,2.819-.694,2.383-.548,5.705-1.23,9.4-1.835s7.047-1.029,9.486-1.275c1.219-.123,2.237-.2,2.886-.235a4.227,4.227,0,0,1,1.119,0,27.292,27.292,0,0,1-3.915.66c-2.416.347-5.761.839-9.441,1.443s-7,1.208-9.408,1.656a31.4,31.4,0,0,1-3.96.615Z" transform="translate(-564.314 -161.689)" fill="#455a64"/>
      <path id="Path_4765" data-name="Path 4765" d="M647.627,308a3.692,3.692,0,0,1-.1.817c-.1.593-.235,1.365-.391,2.338-.38,2.081-.906,4.989-1.555,8.558-1.309,7.238-3.11,17.216-4.754,28.3s-2.718,21.176-3.356,28.5c-.3,3.658-.515,6.622-.649,8.669-.078.984-.134,1.767-.179,2.36a3.956,3.956,0,0,1-.1.817,5.8,5.8,0,0,1,0-.828c0-.593,0-1.376.067-2.36,0-2.058.213-5.023.47-8.692.492-7.338,1.51-17.451,3.155-28.547s3.513-21.086,4.922-28.3c.7-3.6,1.3-6.51,1.734-8.524.2-.962.38-1.723.5-2.316A4.473,4.473,0,0,1,647.627,308Z" transform="translate(-564.754 -177.285)" fill="#455a64"/>
      <path id="Path_4766" data-name="Path 4766" d="M668.747,357.69a2.892,2.892,0,0,1-.089.593c-.1.447-.213,1-.358,1.678-.324,1.533-.761,3.613-1.286,6.152-1.119,5.213-2.461,12.428-3.938,20.393a.823.823,0,0,1-.078.436l-.291-.347a.336.336,0,0,1,.235.112.124.124,0,0,1,0,.067v.09a.69.69,0,0,1,0,.123v.593l.067.75.1,1.477q.067,1.465.134,2.886c0,1.879.112,3.7.168,5.437.067,3.445.134,6.555.179,9.2s0,4.654.056,6.2V415.2a2.237,2.237,0,0,1,0,.593,2.024,2.024,0,0,1-.067-.582c0-.459-.056-1.007-.089-1.689-.067-1.544-.145-3.636-.235-6.186-.179-5.291-.425-12.473-.694-20.426l-.291-.067.09-.436c1.477-7.976,2.942-15.18,4.105-20.37.582-2.6,1.119-4.7,1.465-6.13.19-.727.358-1.275.47-1.656A2.023,2.023,0,0,1,668.747,357.69Z" transform="translate(-561.7 -171.39)" fill="#455a64"/>
    </g>
    <g id="freepik--character-1--inject-65" transform="translate(364.339 176.828)">
      <path id="Path_4767" data-name="Path 4767" d="M490.125,213.392a12.126,12.126,0,0,1-.168,3.356,7.684,7.684,0,0,1-.85,2.562,32.841,32.841,0,0,1-2.1,3.468s-28.626,15.482-33.883,17.1-29.431-8.949-29.431-8.949a76.581,76.581,0,0,1-8.949,17.137s21.578,7.965,38.28,9.341c10.627.884,43.011-25.035,43.045-25.057a99.318,99.318,0,0,0,9.721-4.273c4.34-2.416,4.128-2.819,3.759-3.266-1-1.23-7.83,3.971-6.98,2s9.061-5.392,7.976-6.633c-1.421-1.611-8.435,3.96-9.072,4.4s-1.264-.47-.682-.828c.85-.515,9.6-6.108,8.222-7.707-.761-.884-2.237.626-2.237.626s-7.83,5.839-8.423,5.067,3.826-4.374,5.414-5.47,1.7-2.237.638-2.584c-.727-.2-5.672,3.065-7.226,4.184s-5.739,4.3-4.944,1.052.19-6.029-.492-6.712S489.979,212.374,490.125,213.392Z" transform="translate(-318.146 -166.118)" fill="#b78876"/>
      <path id="Path_4768" data-name="Path 4768" d="M617.512,307.187,431.92,259.321l22.429-85.061,185.5,48.168Z" transform="translate(-316.108 -170.591)" fill="#e0e0e0"/>
      <path id="Path_4769" data-name="Path 4769" d="M609.628,250.329l-.391-.09-1.119-.28-4.385-1.119-16.153-4.374-53.236-14.453c-20.807-5.593-39.656-10.661-53.314-14.24l-16.175-4.24-4.4-1.119-1.119-.313-.38-.123a1.744,1.744,0,0,1,.392.067l1.119.257,4.475,1.063c3.837.917,9.374,2.316,16.22,4.049,13.692,3.49,32.552,8.457,53.359,14.084s39.544,10.705,53.124,14.52l16.1,4.553,4.363,1.264,1.119.347A1.8,1.8,0,0,1,609.628,250.329Z" transform="translate(-312.9 -166.353)" fill="#263238"/>
      <path id="Path_4770" data-name="Path 4770" d="M604.512,264.364l-.391-.078L603,263.995l-4.4-1.119L582.464,258.5,529.195,244c-20.807-5.593-39.656-10.649-53.314-14.24l-16.175-4.228-4.4-1.119-1.119-.313a1.544,1.544,0,0,1-.38-.134,3.347,3.347,0,0,1,.392.067l1.119.268,4.475,1.052c3.837.917,9.374,2.316,16.22,4.049,13.692,3.49,32.552,8.468,53.359,14.084s39.611,10.817,53.2,14.62l16.1,4.542,4.363,1.275,1.119.347A1.544,1.544,0,0,1,604.512,264.364Z" transform="translate(-313.511 -164.693)" fill="#263238"/>
      <path id="Path_4771" data-name="Path 4771" d="M507.724,253.164a1.934,1.934,0,0,1-.582-.1l-1.644-.38-6.052-1.533-19.956-5.269-19.945-5.425-6.041-1.712-1.633-.492a2.483,2.483,0,0,1-.571-.213,2,2,0,0,1,.571.09l1.656.392,6.052,1.533,19.956,5.258,19.934,5.437,6.041,1.711,1.644.492a2.8,2.8,0,0,1,.57.213Z" transform="translate(-313.809 -163.024)" fill="#263238"/>
      <path id="Path_4772" data-name="Path 4772" d="M540.326,218.146a4.158,4.158,0,0,1-.828-.157l-2.349-.559-8.6-2.17-28.3-7.349-28.29-7.517-8.625-2.293-2.316-.671a4.33,4.33,0,0,1-.805-.268,5.322,5.322,0,0,1,.828.157l2.349.559,8.6,2.17,28.335,7.361,28.335,7.472,8.558,2.338,2.316.671A3.97,3.97,0,0,1,540.326,218.146Z" transform="translate(-312.752 -167.874)" fill="#263238"/>
      <path id="Path_4773" data-name="Path 4773" d="M343.257,438.934l6.712-6.253L338.335,419.94l-9.945,9.016.671.839c3.009,3.691,15.594,18.569,18.457,20.27C350.707,451.989,343.257,438.934,343.257,438.934Z" transform="translate(-328.39 -141.445)" fill="#8dc63f"/>
      <g id="Group_974" data-name="Group 974" transform="translate(0 287.265)" opacity="0.4">
        <path id="Path_4774" data-name="Path 4774" d="M346.7,444.559s2.371,4.788,1.32,4.888S333.681,435,328.39,428.026l.3-.246L344.04,444.9S346,443.844,346.7,444.559Z" transform="translate(-328.39 -427.78)" fill="#fff"/>
      </g>
      <path id="Path_4775" data-name="Path 4775" d="M328.5,427.63a2.24,2.24,0,0,0,.179.235l.537.671,2.014,2.405c1.711,2.025,4.128,4.788,6.846,7.83s5.246,5.593,7.1,7.54l2.237,2.237.6.6.224.19a1.264,1.264,0,0,0-.19-.224l-.582-.626-2.159-2.237c-1.835-1.924-4.34-4.586-7.059-7.584s-5.146-5.727-6.891-7.73l-2.058-2.36-.57-.638Z" transform="translate(-328.377 -140.533)" fill="#263238"/>
      <path id="Path_4776" data-name="Path 4776" d="M342.2,443.36a7.629,7.629,0,0,1,1.5-.582,6.913,6.913,0,0,1,1.611,0,2.316,2.316,0,0,0-1.656-.19A2.237,2.237,0,0,0,342.2,443.36Z" transform="translate(-326.752 -138.767)" fill="#263238"/>
      <path id="Path_4777" data-name="Path 4777" d="M340.84,438.382a1.857,1.857,0,0,0,.85,0,1.812,1.812,0,0,0,.817-.246,1.7,1.7,0,0,0-.85,0C341.187,438.214,340.829,438.326,340.84,438.382Z" transform="translate(-326.913 -139.293)" fill="#263238"/>
      <path id="Path_4778" data-name="Path 4778" d="M340.48,437a2.8,2.8,0,0,0,.716.179,3.306,3.306,0,0,0,.727,0,2.643,2.643,0,0,0-.716-.179C340.8,436.96,340.491,436.927,340.48,437Z" transform="translate(-326.956 -139.426)" fill="#263238"/>
      <path id="Path_4779" data-name="Path 4779" d="M341,435.42a4.108,4.108,0,0,0,.515.738c.324.369.638.638.682.6s-.19-.369-.526-.738S341.067,435.376,341,435.42Z" transform="translate(-326.894 -139.609)" fill="#263238"/>
      <path id="Path_4780" data-name="Path 4780" d="M341.6,434.52a1.723,1.723,0,0,0,.459.94c.369.47.772.727.805.682a5.388,5.388,0,0,0-.638-.805C341.88,434.9,341.656,434.5,341.6,434.52Z" transform="translate(-326.823 -139.716)" fill="#263238"/>
      <path id="Path_4781" data-name="Path 4781" d="M342.192,437.837a3.726,3.726,0,0,0,.761.817,6.244,6.244,0,0,0,.984.694,3.024,3.024,0,0,0,.66.313.548.548,0,0,0,.436,0,.425.425,0,0,0,.213-.425,2.025,2.025,0,0,0-2.125-1.454,2.1,2.1,0,0,0-.794.235.705.705,0,0,0-.246.179,3.357,3.357,0,0,1,1.04-.268,1.991,1.991,0,0,1,1.119.291,1.756,1.756,0,0,1,.828,1.04c0,.213-.179.3-.4.235a3.745,3.745,0,0,1-.615-.28,6.828,6.828,0,0,1-.984-.649C342.505,438.128,342.225,437.814,342.192,437.837Z" transform="translate(-326.766 -139.33)" fill="#263238"/>
      <path id="Path_4782" data-name="Path 4782" d="M342.337,438.3a.913.913,0,0,0,.649-.425,1.745,1.745,0,0,0,.4-.772,1.119,1.119,0,0,0-.212-1.119.436.436,0,0,0-.6.1,1.119,1.119,0,0,0-.235.47,3.143,3.143,0,0,0-.145.839,1.4,1.4,0,0,0,.1.772s0-.3,0-.761a4.15,4.15,0,0,1,.179-.794c.067-.268.313-.626.537-.459a1.029,1.029,0,0,1,.145.861,1.768,1.768,0,0,1-.324.716C342.594,438.159,342.315,438.248,342.337,438.3Z" transform="translate(-326.755 -139.551)" fill="#263238"/>
      <path id="Path_4783" data-name="Path 4783" d="M331.83,425a6.752,6.752,0,0,1,.828.973,5.515,5.515,0,0,1,1.029,2.819,5.593,5.593,0,0,1-.638,2.942c-.369.694-.727,1.052-.694,1.119s.1-.067.257-.235a4.182,4.182,0,0,0,.559-.761,5.235,5.235,0,0,0-.392-5.929,5.11,5.11,0,0,0-.66-.694A2.248,2.248,0,0,0,331.83,425Z" transform="translate(-327.982 -140.845)" fill="#263238"/>
      <path id="Path_4784" data-name="Path 4784" d="M338.211,421.87a29.968,29.968,0,0,0-2.718,2.237,29.507,29.507,0,0,0-2.573,2.427,30.893,30.893,0,0,0,2.718-2.237,30.537,30.537,0,0,0,2.573-2.427Z" transform="translate(-327.853 -141.216)" fill="#263238"/>
      <path id="Path_4785" data-name="Path 4785" d="M334.67,432.5a9.464,9.464,0,0,0,1.51,2.025,9.847,9.847,0,0,0,1.857,1.734s-.772-.839-1.7-1.868S334.715,432.467,334.67,432.5Z" transform="translate(-327.645 -139.955)" fill="#263238"/>
      <path id="Path_4786" data-name="Path 4786" d="M332.676,430.26c-.056,0-.112.235-.224.492s-.235.459-.2.5.268-.123.392-.425S332.732,430.26,332.676,430.26Z" transform="translate(-327.933 -140.221)" fill="#263238"/>
      <path id="Path_4787" data-name="Path 4787" d="M332.923,428.46c-.056,0-.112.2-.123.459s0,.459.078.47.112-.2.134-.459S333.024,428.471,332.923,428.46Z" transform="translate(-327.867 -140.435)" fill="#263238"/>
      <path id="Path_4788" data-name="Path 4788" d="M332.29,426.821c0,.056.123.224.235.47s.123.47.179.481.145-.268,0-.571S332.324,426.776,332.29,426.821Z" transform="translate(-327.927 -140.63)" fill="#263238"/>
      <path id="Path_4789" data-name="Path 4789" d="M331.744,425.76c-.056,0-.056.157,0,.291s.145.246.2.224,0-.157,0-.291S331.8,425.738,331.744,425.76Z" transform="translate(-327.997 -140.755)" fill="#263238"/>
      <g id="Group_975" data-name="Group 975" transform="translate(4.206 282.287)" opacity="0.3">
        <path id="Path_4790" data-name="Path 4790" d="M332.15,424.918l11.835,12.551,1.51-1.421L333.738,423.33Z" transform="translate(-332.15 -423.33)"/>
      </g>
      <path id="Path_4791" data-name="Path 4791" d="M461.446,446.942l-3.77-8.412-15.806,6.924,5.358,12.372,1.018-.369c4.475-1.667,22.6-8.8,25.124-10.974C476.2,444.078,461.446,446.942,461.446,446.942Z" transform="translate(-314.928 -139.24)" fill="#8dc63f"/>
      <g id="Group_976" data-name="Group 976" transform="translate(132.189 306.292)" opacity="0.4">
        <path id="Path_4792" data-name="Path 4792" d="M468.194,445.025s5.3-.7,5.056.324-18.3,8.949-26.568,11.723l-.123-.369,21.131-9.039S467.3,445.472,468.194,445.025Z" transform="translate(-446.56 -444.79)" fill="#fff"/>
      </g>
      <path id="Path_4793" data-name="Path 4793" d="M446.33,456.781a1.118,1.118,0,0,0,.291-.089l.794-.291,2.931-1.119c2.461-.973,5.85-2.36,9.564-3.982s7.025-3.155,9.419-4.307l2.819-1.376.761-.392c.179-.089.268-.134.257-.145l-.268.112-.783.347-2.853,1.32c-2.405,1.119-5.727,2.629-9.441,4.251s-7.081,3.031-9.531,4.038l-2.9,1.2-.794.336a.965.965,0,0,0-.268.1Z" transform="translate(-314.399 -138.463)" fill="#263238"/>
      <path id="Path_4794" data-name="Path 4794" d="M465.573,447.933a7.528,7.528,0,0,1-.056-1.611,7.256,7.256,0,0,1,.492-1.533,2.316,2.316,0,0,0-.7,1.5A2.45,2.45,0,0,0,465.573,447.933Z" transform="translate(-312.153 -138.497)" fill="#263238"/>
      <path id="Path_4795" data-name="Path 4795" d="M460.455,447.478a1.955,1.955,0,0,0,.235-.817,1.9,1.9,0,0,0,0-.861,1.8,1.8,0,0,0-.235.828,1.846,1.846,0,0,0,0,.85Z" transform="translate(-312.729 -138.377)" fill="#263238"/>
      <path id="Path_4796" data-name="Path 4796" d="M459,447.34a2.611,2.611,0,0,0,.392-.615c.168-.369.257-.682.2-.7s-.224.257-.392.615A2.238,2.238,0,0,0,459,447.34Z" transform="translate(-312.896 -138.351)" fill="#263238"/>
      <path id="Path_4797" data-name="Path 4797" d="M457.73,446.255A1.9,1.9,0,0,0,458.6,446c.459-.19.805-.392.783-.448a2.237,2.237,0,0,0-.861.257A2.338,2.338,0,0,0,457.73,446.255Z" transform="translate(-313.046 -138.407)" fill="#263238"/>
      <path id="Path_4798" data-name="Path 4798" d="M457.07,445.421a1.688,1.688,0,0,0,1.04-.134,1.768,1.768,0,0,0,.895-.537,4.89,4.89,0,0,0-.962.336,6.717,6.717,0,0,0-.973.336Z" transform="translate(-313.125 -138.502)" fill="#263238"/>
      <path id="Path_4799" data-name="Path 4799" d="M460.39,446.12a3.289,3.289,0,0,0,1.007-.447,6.709,6.709,0,0,0,.984-.716,3.244,3.244,0,0,0,.5-.526.593.593,0,0,0,.112-.425.436.436,0,0,0-.336-.336,2.025,2.025,0,0,0-2.058,1.555,1.89,1.89,0,0,0,0,.817.715.715,0,0,0,.089.291,3.358,3.358,0,0,1,.089-1.119,1.99,1.99,0,0,1,.615-.94,1.722,1.722,0,0,1,1.253-.447c.213,0,.224.268.1.447a3.265,3.265,0,0,1-.47.492,7.816,7.816,0,0,1-.928.738C460.759,445.919,460.368,446.086,460.39,446.12Z" transform="translate(-312.731 -138.63)" fill="#263238"/>
      <path id="Path_4800" data-name="Path 4800" d="M460.862,445.971a1.119,1.119,0,0,0-.19-.75,1.868,1.868,0,0,0-.6-.626,1.119,1.119,0,0,0-1.119-.145.447.447,0,0,0-.1.6,1.119,1.119,0,0,0,.369.38,2.92,2.92,0,0,0,.75.4,1.521,1.521,0,0,0,.761.157,6.369,6.369,0,0,1-.7-.291,3.746,3.746,0,0,1-.693-.425c-.235-.145-.492-.492-.257-.649a.984.984,0,0,1,.85.134,1.812,1.812,0,0,1,.582.537A3.912,3.912,0,0,1,460.862,445.971Z" transform="translate(-312.922 -138.548)" fill="#263238"/>
      <path id="Path_4801" data-name="Path 4801" d="M444.93,451.646a6.311,6.311,0,0,1,1.186-.47,5.392,5.392,0,0,1,5.593,1.488c.537.571.761,1.018.794,1a1.118,1.118,0,0,0-.134-.324,5.455,5.455,0,0,0-.548-.772,5.246,5.246,0,0,0-5.694-1.532,4.91,4.91,0,0,0-.861.4C445.008,451.556,444.919,451.635,444.93,451.646Z" transform="translate(-314.565 -137.791)" fill="#263238"/>
      <path id="Path_4802" data-name="Path 4802" d="M443.82,445a29.838,29.838,0,0,0,1.286,3.356,29.19,29.19,0,0,0,1.477,3.222,62.524,62.524,0,0,0-2.763-6.533Z" transform="translate(-314.696 -138.472)" fill="#263238"/>
      <path id="Path_4803" data-name="Path 4803" d="M452.92,451.469a9.541,9.541,0,0,0,2.416-.772,9.741,9.741,0,0,0,2.237-1.2c0-.056-1.029.459-2.316,1S452.909,451.413,452.92,451.469Z" transform="translate(-313.617 -137.939)" fill="#263238"/>
      <path id="Path_4804" data-name="Path 4804" d="M450.15,452.472s.179.179.392.38.358.369.414.347,0-.291-.268-.5S450.172,452.416,450.15,452.472Z" transform="translate(-313.945 -137.588)" fill="#263238"/>
      <path id="Path_4805" data-name="Path 4805" d="M448.54,451.633c0,.056.157.179.392.268s.447.123.459.078-.145-.179-.38-.268S448.562,451.577,448.54,451.633Z" transform="translate(-314.136 -137.688)" fill="#263238"/>
      <path id="Path_4806" data-name="Path 4806" d="M446.791,451.716a2.321,2.321,0,0,0,.5-.067,1.162,1.162,0,0,1,.515,0,.623.623,0,0,0-.526-.179C446.958,451.5,446.746,451.672,446.791,451.716Z" transform="translate(-314.345 -137.705)" fill="#263238"/>
      <path id="Path_4807" data-name="Path 4807" d="M445.6,451.893c0,.056.134.089.28.089s.28,0,.28-.123-.134-.089-.28-.089S445.6,451.826,445.6,451.893Z" transform="translate(-314.485 -137.67)" fill="#263238"/>
      <g id="Group_977" data-name="Group 977" transform="translate(129.202 304.346)" opacity="0.3">
        <path id="Path_4808" data-name="Path 4808" d="M444.886,452.122l15.683-7.17-.861-1.9-15.817,7.059Z" transform="translate(-443.89 -443.05)"/>
      </g>
      <path id="Path_4809" data-name="Path 4809" d="M375.707,194.74c.447-3.065-1.51-7.618-.682-10.414.257-.884-.716-1.723-.839-2.64a2.64,2.64,0,0,1,.828-2.506,1.5,1.5,0,0,1,2.237.571,13.536,13.536,0,0,1,1.186-4.139,4.475,4.475,0,0,1,3.356-2.517,2.8,2.8,0,0,1,3.11,2.3,9.15,9.15,0,0,1,3.524-3.624,4.777,4.777,0,0,1,4.217-.526c1.342.6,2.092,2.495,1.119,3.624a10.124,10.124,0,0,1,2.942-2.014,3.412,3.412,0,0,1,3.356.38,2.1,2.1,0,0,1,.089,3.132,13.592,13.592,0,0,1,3.747-1.208,4.721,4.721,0,0,1,3.714.951,2.9,2.9,0,0,1,.682,3.568,5.671,5.671,0,0,1-2.416,1.689,3.222,3.222,0,0,0-1.958,2.114c-.067.515.089,1.052,0,1.555a1.991,1.991,0,0,1-1.443,1.376,5.828,5.828,0,0,1-2.069.089c-3.5-.3-6.98-.872-10.493-.839a18.178,18.178,0,0,0-10.068,2.7" transform="translate(-322.964 -170.98)" fill="#263238"/>
      <path id="Path_4810" data-name="Path 4810" d="M377.589,309s7.394,39.152,6.041,60.641-16.2,30.035-25.057,38.872c-8.446,8.446-27.843,25.2-27.843,25.2l17.384,18.726s55.025-39.678,60.607-65.239c4.284-19.632,5.962-54.332,5.962-54.332Z" transform="translate(-328.112 -154.606)" fill="#263238"/>
      <path id="Path_4811" data-name="Path 4811" d="M373.686,282.76c-.537,0-6.522,17.63-.805,29.331.57,1.119,5.056,7.629,5.056,7.629,15.84,18.737,36.7,58.572,38.828,64.523,6.152,17.26,31.087,87.332,31.087,87.332l26.008-11.1-26.523-86.6L412.86,297.078Z" transform="translate(-323.403 -157.719)" fill="#263238"/>
      <path id="Path_4812" data-name="Path 4812" d="M403.441,295.56a5.225,5.225,0,0,1,.336,2.495A9.553,9.553,0,0,1,396.506,307a5.2,5.2,0,0,1-2.506.168c0-.1.951-.112,2.394-.57a10.269,10.269,0,0,0,4.788-3.2,10.381,10.381,0,0,0,2.237-5.336C403.531,296.522,403.352,295.582,403.441,295.56Z" transform="translate(-320.607 -156.201)" fill="#455a64"/>
      <path id="Path_4813" data-name="Path 4813" d="M439.773,453.174l26.008-11.1-1.286-4.217L438.52,449.65Z" transform="translate(-315.325 -139.319)" fill="#455a64"/>
      <path id="Path_4814" data-name="Path 4814" d="M385.376,233.305h0a9.106,9.106,0,0,0,9.8-8.725c.19-4.956.358-9.956.358-9.956s7.517-.7,8.065-8.132-.313-23.659-.313-23.659l.626-.928c-8.379-4.228-17.686-2.841-25.46,2.416l-1.622,3.087.145,36.915a9.094,9.094,0,0,0,8.4,8.983Z" transform="translate(-322.643 -169.979)" fill="#b78876"/>
      <path id="Path_4815" data-name="Path 4815" d="M398.9,193.5a1.08,1.08,0,1,1,1.544.011A1.119,1.119,0,0,1,398.9,193.5Z" transform="translate(-320.091 -168.555)" fill="#263238"/>
      <path id="Path_4816" data-name="Path 4816" d="M400.86,192.335c-.123.123-.817-.492-1.846-.559s-1.8.414-1.9.28.078-.291.414-.515a2.539,2.539,0,0,1,3,.224C400.827,192.033,400.916,192.279,400.86,192.335Z" transform="translate(-320.241 -168.586)" fill="#263238"/>
      <path id="Path_4817" data-name="Path 4817" d="M390.344,192.09a1.119,1.119,0,1,1-1.51.257A1.119,1.119,0,0,1,390.344,192.09Z" transform="translate(-321.246 -168.498)" fill="#263238"/>
      <path id="Path_4818" data-name="Path 4818" d="M390.87,192.535c-.123.123-.817-.481-1.846-.548s-1.8.414-1.9.28.078-.291.414-.515a2.383,2.383,0,0,1,1.533-.38,2.539,2.539,0,0,1,1.465.593C390.837,192.244,390.938,192.49,390.87,192.535Z" transform="translate(-321.426 -168.562)" fill="#263238"/>
      <path id="Path_4819" data-name="Path 4819" d="M393.726,200.48a4.565,4.565,0,0,1,1.678-.257c.268,0,.481-.056.515-.2a1.51,1.51,0,0,0-.145-.772l-.682-2.137a29.083,29.083,0,0,1-1.421-5.593,28.379,28.379,0,0,1,1.98,5.414c.224.738.425,1.443.638,2.137a1.734,1.734,0,0,1,.078,1.119.7.7,0,0,1-.492.392,1.7,1.7,0,0,1-.459,0,5.056,5.056,0,0,1-1.689-.1Z" transform="translate(-320.646 -168.543)" fill="#263238"/>
      <path id="Path_4820" data-name="Path 4820" d="M390.689,200.35c.615.28,2.841,1.745,4.933,1.779a2.819,2.819,0,0,1-3.356.917C390.041,202.1,390.689,200.35,390.689,200.35Z" transform="translate(-321.01 -167.496)" fill="#fff"/>
      <path id="Path_4821" data-name="Path 4821" d="M394.581,211.146a17.372,17.372,0,0,1-9.531-3.356s1.969,5.492,9.43,5.28Z" transform="translate(-321.668 -166.613)" fill="#a36957"/>
      <path id="Path_4822" data-name="Path 4822" d="M377.53,192.119A1.119,1.119,0,0,0,376.412,191c-1.387,0-3.658.515-3.87,4.34-.3,5.47,4.956,4.105,4.978,3.949S377.53,194.289,377.53,192.119Z" transform="translate(-323.154 -168.605)" fill="#b78876"/>
      <path id="Path_4823" data-name="Path 4823" d="M376.184,196.982a1.756,1.756,0,0,1-.257.134,1.007,1.007,0,0,1-.716,0,2.338,2.338,0,0,1-.973-2.17,3.223,3.223,0,0,1,.336-1.354,1.119,1.119,0,0,1,.761-.694.492.492,0,0,1,.548.291.346.346,0,0,1,0,.28c0,.011.123-.089.089-.313a.649.649,0,0,0-.2-.358.716.716,0,0,0-.515-.168,1.354,1.354,0,0,0-1.04.794,3.166,3.166,0,0,0-.414,1.51,2.483,2.483,0,0,0,1.253,2.439,1.018,1.018,0,0,0,.884-.1C376.173,197.116,376.263,196.993,376.184,196.982Z" transform="translate(-323.005 -168.412)" fill="#a36957"/>
      <path id="Path_4824" data-name="Path 4824" d="M363.95,252.7c.906,7.271,3.356,13.647,3.423,25.561l-.559,27.619L419,308.823l-2.83-33.749-1.879-28.749,11.656,3.02,4.866-19.431s-12.3-5.94-16.533-7.83c-13.837-6.287-13.759-3.7-16.153-4a31.646,31.646,0,0,1-19.017,0h0s-10.28-2.841-15.538,9.62C360.829,234.11,363.95,252.7,363.95,252.7Z" transform="translate(-324.35 -165.425)" fill="#455a64"/>
      <path id="Path_4825" data-name="Path 4825" d="M367.211,221.19h.414a5.166,5.166,0,0,1,1.119.28,6.589,6.589,0,0,1,3.445,2.707,7.025,7.025,0,0,1,.515,6.41,6.712,6.712,0,0,0-.727,3.535c.246,1.208,1.387,2.036,2.405,3.031a5.135,5.135,0,0,1,1.253,1.779,5.2,5.2,0,0,1,.392,2.081,6.913,6.913,0,0,1-1.219,3.736,7.607,7.607,0,0,1-1.219,1.376,7.471,7.471,0,0,1-1.488.906,14.432,14.432,0,0,1-2.908.917,25.347,25.347,0,0,1-4.351.537,6.865,6.865,0,0,1-1.6,0,11.284,11.284,0,0,1,1.588-.179,33.129,33.129,0,0,0,4.273-.7c1.712-.47,3.994-1.063,5.258-3.11a6.477,6.477,0,0,0,1.119-3.434,4.474,4.474,0,0,0-1.488-3.445c-.481-.481-1.018-.928-1.5-1.454a4.027,4.027,0,0,1-1.052-1.879,7.036,7.036,0,0,1,.783-3.837,6.522,6.522,0,0,0-3.535-8.714A14.541,14.541,0,0,0,367.211,221.19Z" transform="translate(-324.256 -165.023)" fill="#fafafa"/>
      <path id="Path_4826" data-name="Path 4826" d="M425.784,227.058a1.868,1.868,0,0,1-.089.548,8.724,8.724,0,0,1-.537,1.51,10.4,10.4,0,0,1-3.848,4.419,10.235,10.235,0,0,1-8.513,1.175,10.448,10.448,0,0,1-4.475-2.64c-1.286-1.242-2.394-2.8-4.038-3.49a4.016,4.016,0,0,0-2.562-.134,13.57,13.57,0,0,0-2.461.973,10.918,10.918,0,0,1-5.034,1.275,9.878,9.878,0,0,1-7.763-3.658,10.068,10.068,0,0,1-2.17-5.437,8.035,8.035,0,0,1,0-1.611,2.519,2.519,0,0,1,.1-.548c.067,0-.078.772.1,2.137a10.28,10.28,0,0,0,2.237,5.2,9.564,9.564,0,0,0,7.45,3.356,10.37,10.37,0,0,0,4.788-1.253,14.063,14.063,0,0,1,2.562-1.018,4.6,4.6,0,0,1,2.92.145c1.879.805,2.976,2.427,4.228,3.624a10.124,10.124,0,0,0,12.383,1.533,10.7,10.7,0,0,0,3.859-4.173A20.51,20.51,0,0,0,425.784,227.058Z" transform="translate(-321.763 -165.231)" fill="#fafafa"/>
      <path id="Path_4827" data-name="Path 4827" d="M421.18,246.029a13.054,13.054,0,0,0-2.517-4.15,7.831,7.831,0,0,0-4.475-2.383,6.779,6.779,0,0,0-5.705,2.058,5.235,5.235,0,0,0-1.376,2.875,9.071,9.071,0,0,1-.772,3.155,5.492,5.492,0,0,1-2.237,1.991c-.794.436-1.577.761-2.237,1.119a5.593,5.593,0,0,0-2.551,2.338,5.021,5.021,0,0,0-.313,1.253.94.94,0,0,1-.067-.347,2.752,2.752,0,0,1,.168-1,5.526,5.526,0,0,1,2.562-2.606c.682-.392,1.443-.727,2.237-1.175a4.989,4.989,0,0,0,1.98-1.823,8.815,8.815,0,0,0,.671-2.987,5.884,5.884,0,0,1,1.51-3.177,7.237,7.237,0,0,1,6.22-2.237,8.076,8.076,0,0,1,4.743,2.629,9.732,9.732,0,0,1,1.9,3.132,3.691,3.691,0,0,1,.257,1.331Z" transform="translate(-320.022 -162.925)" fill="#fafafa"/>
      <path id="Path_4828" data-name="Path 4828" d="M407.421,276.58a1.566,1.566,0,0,1,0,.526,5.324,5.324,0,0,1-.414,1.465,7.931,7.931,0,0,1-7.83,4.475,9.274,9.274,0,0,1-4.206-1.465,11.577,11.577,0,0,1-3.49-3.468c-.984-1.443-1.432-3.188-2.461-4.553a4.083,4.083,0,0,0-1.969-1.421,12.769,12.769,0,0,0-2.45-.436,9.352,9.352,0,0,1-7.663-4.877,8.659,8.659,0,0,1-1.018-3.747,9.184,9.184,0,0,1,1.477-5.347,7.241,7.241,0,0,1,.951-1.175,2.069,2.069,0,0,1,.4-.347,8.466,8.466,0,0,0-1.119,1.644,9.284,9.284,0,0,0-1.253,5.2,8.166,8.166,0,0,0,1.029,3.535,8.949,8.949,0,0,0,7.293,4.553,12.048,12.048,0,0,1,2.584.447,4.553,4.553,0,0,1,2.237,1.622c1.119,1.5,1.555,3.233,2.483,4.586a11,11,0,0,0,3.3,3.356,8.949,8.949,0,0,0,3.96,1.443,7.405,7.405,0,0,0,3.636-.526,7.673,7.673,0,0,0,3.938-3.535,13.763,13.763,0,0,0,.582-1.958Z" transform="translate(-322.752 -160.869)" fill="#fafafa"/>
      <path id="Path_4829" data-name="Path 4829" d="M411.076,300.534a5.693,5.693,0,0,0,.056-2.1,5.817,5.817,0,0,0-3.624-4.128,10,10,0,0,0-3.893-.593,24.614,24.614,0,0,0-4.564.649,31.038,31.038,0,0,1-5.123.817,9.665,9.665,0,0,1-5.481-1.242,10.068,10.068,0,0,1-3.457-4.407,15.907,15.907,0,0,0-2.785-4.206,13.334,13.334,0,0,0-7.417-3.982,13.994,13.994,0,0,0-5.761.257c-1.331.347-2.025.694-2.047.638a2.238,2.238,0,0,1,.492-.28,11.778,11.778,0,0,1,1.5-.57,13.424,13.424,0,0,1,5.884-.447,13.591,13.591,0,0,1,7.741,4,16.109,16.109,0,0,1,2.9,4.329,9.6,9.6,0,0,0,3.266,4.173,9.184,9.184,0,0,0,5.146,1.119,31.126,31.126,0,0,0,5.034-.772,25.106,25.106,0,0,1,4.665-.615,10.224,10.224,0,0,1,4.061.7,6.153,6.153,0,0,1,2.674,2.1,5.459,5.459,0,0,1,1.007,2.36,4.015,4.015,0,0,1-.067,1.622A1.488,1.488,0,0,1,411.076,300.534Z" transform="translate(-323.812 -157.952)" fill="#fafafa"/>
      <path id="Path_4830" data-name="Path 4830" d="M458.089,250.5a12.237,12.237,0,0,1-1.409,3.054,7.93,7.93,0,0,1-1.745,2.058,34.9,34.9,0,0,1-3.244,2.427s-32.34,3.669-37.832,3.21S389.9,242,389.9,242a77.181,77.181,0,0,1-14.688,12.573s17.037,15.437,32.015,22.954c9.531,4.788,49.22-7.148,49.287-7.159a99.486,99.486,0,0,0,10.616-.336c4.933-.626,4.877-1.119,4.709-1.633-.459-1.51-8.714.783-7.226-.738s10.426-1.622,9.878-3.177c-.716-2.036-9.307.526-10.068.682s-1.007-.906-.324-1.018c.973-.157,11.186-2.081,10.5-4.083-.38-1.119-2.3-.246-2.3-.246s-9.419,2.506-9.71,1.555,5.19-2.629,7.07-3.054,2.427-1.488,1.555-2.148c-.593-.459-6.41.716-8.267,1.175s-6.924,1.835-4.978-.873,2.427-5.526,2.025-6.376a1.04,1.04,0,0,0-1.9.4Z" transform="translate(-322.836 -162.555)" fill="#b78876"/>
      <path id="Path_4831" data-name="Path 4831" d="M376.324,194.822a1.79,1.79,0,0,0,2.372.727c.839-.414,1.823-1.063,1.969-1.98s.2-2.092.291-3.02a17.5,17.5,0,0,1,.593-3.11c3.356.671,5.593-.257,7.83-2.819a8.132,8.132,0,0,0,8.658,1.633,5.594,5.594,0,0,1,2.237-.7c1.186,0,2.237,1.04,3.356,1.04a2.5,2.5,0,0,0,2.237-2.45,3.87,3.87,0,0,0-1.745-3.1,9.039,9.039,0,0,0-3.445-1.286,40.27,40.27,0,0,0-12.954-.145,22.374,22.374,0,0,0-5.951,1.4,9.565,9.565,0,0,0-4.631,3.859c-1.544,2.718-1.2,6.074-.794,9.184" transform="translate(-322.742 -170.01)" fill="#263238"/>
      <path id="Path_4832" data-name="Path 4832" d="M416.443,381.021a3.893,3.893,0,0,1-.425-.738l-1.119-2.159c-.94-1.891-2.36-4.586-4.15-7.9-3.591-6.622-8.826-15.661-14.978-25.337S383.869,326.5,379.7,320.2l-4.855-7.495c-.537-.85-.973-1.533-1.3-2.058a4.68,4.68,0,0,1-.414-.738,4.481,4.481,0,0,1,.515.682l1.376,1.991,5.023,7.383c4.217,6.253,10.068,14.878,16.187,24.61s11.432,18.771,14.9,25.46c1.745,3.356,3.11,6.074,3.982,7.987l1.018,2.237a3.971,3.971,0,0,1,.313.761Z" transform="translate(-323.082 -154.498)" fill="#455a64"/>
      <path id="Path_4833" data-name="Path 4833" d="M330.73,420.755l18.457,19.453,4.284-2.707L333.817,418.07Z" transform="translate(-328.112 -141.667)" fill="#455a64"/>
      <path id="Path_4834" data-name="Path 4834" d="M391.41,240.22a17.322,17.322,0,0,1-2.237,2.64c-1.443,1.566-3.513,3.669-5.906,5.862s-4.676,4.072-6.376,5.369a16.68,16.68,0,0,1-2.83,1.969,25.154,25.154,0,0,1,2.573-2.237c1.622-1.376,3.848-3.289,6.242-5.47s4.475-4.228,6.007-5.716a23.867,23.867,0,0,1,2.528-2.416Z" transform="translate(-322.972 -162.766)" fill="#263238"/>
      <path id="Path_4835" data-name="Path 4835" d="M374.07,217.83a3.411,3.411,0,0,1,1.063.6,12.3,12.3,0,0,1,2.338,2.338c1.712,2.237,3.781,5.425,6.018,9.016s4.128,6.712,5.593,9.229l1.712,2.8a5.18,5.18,0,0,1,.57,1.063,4.844,4.844,0,0,1-.761-.94c-.459-.626-1.119-1.544-1.868-2.7-1.533-2.316-3.557-5.593-5.783-9.15s-4.251-6.835-5.85-9.072a16.076,16.076,0,0,0-3.032-3.188Z" transform="translate(-322.971 -165.422)" fill="#263238"/>
      <path id="Path_4836" data-name="Path 4836" d="M364.362,233.68c.089,0,.313,1.387.817,3.624a54.966,54.966,0,0,0,2.707,8.513,56.126,56.126,0,0,0,4.094,7.942c1.219,1.946,2.058,3.087,1.991,3.155s-.28-.246-.694-.738a23.384,23.384,0,0,1-1.633-2.237,43.525,43.525,0,0,1-4.3-7.942,44.429,44.429,0,0,1-2.573-8.647,27.437,27.437,0,0,1-.38-2.718,3.233,3.233,0,0,1-.034-.951Z" transform="translate(-324.125 -163.542)" fill="#263238"/>
    </g>
    <g id="freepik--Plant--inject-65" transform="translate(50.231 307.658)">
      <path id="Path_4837" data-name="Path 4837" d="M78.149,288.008c-6.343,1.018-9.173,8.8-8.625,15.191s3.188,12.652,2.483,19.017c-.895,8.1-7.014,14.945-7.73,23.066-.839,9.575,5.929,18.066,7.953,27.462.984,4.575.85,9.408,2.55,13.77A17.2,17.2,0,0,0,108,380.574c.145-7.349-4.4-14.274-3.848-21.612.414-5.414,3.591-10.549,2.908-15.94-.805-6.421-6.712-10.974-8.848-17.093s-.089-12.864-.817-19.3c-1.3-11.511-7.7-19.554-19.252-18.625" transform="translate(-45.622 -287.935)" fill="#8dc63f"/>
      <path id="Path_4838" data-name="Path 4838" d="M47.757,337.91c-1.119,10.683,3.647,23.256,9.139,32.44a50.954,50.954,0,0,0,23.928,20.807c1.119.47,2.506.861,3.445.1a3.468,3.468,0,0,0,.873-2.741A52.464,52.464,0,0,0,47.757,337.91" transform="translate(-47.593 -282.006)" fill="#8dc63f"/>
      <g id="Group_978" data-name="Group 978" transform="translate(0 55.904)" opacity="0.2">
        <path id="Path_4839" data-name="Path 4839" d="M47.757,337.91c-1.119,10.683,3.647,23.256,9.139,32.44a50.954,50.954,0,0,0,23.928,20.807c1.119.47,2.506.861,3.445.1a3.468,3.468,0,0,0,.873-2.741A52.464,52.464,0,0,0,47.757,337.91" transform="translate(-47.593 -337.91)"/>
      </g>
      <path id="Path_4840" data-name="Path 4840" d="M92.843,411.451a2.316,2.316,0,0,1-.3-.593c-.2-.459-.459-1.04-.761-1.745-.649-1.533-1.6-3.725-2.83-6.421a227.572,227.572,0,0,0-10.6-20.538A229.321,229.321,0,0,0,65.6,362.813c-1.745-2.383-3.188-4.307-4.206-5.593L60.279,355.7a2.5,2.5,0,0,1-.369-.548,5.856,5.856,0,0,1,.459.47c.291.324.738.873,1.242,1.454,1.119,1.264,2.573,3.143,4.363,5.5a194.551,194.551,0,0,1,12.9,19.252A194.993,194.993,0,0,1,89.341,402.5c1.119,2.729,2.081,4.955,2.651,6.51.268.727.492,1.32.66,1.79a2.616,2.616,0,0,1,.19.649Z" transform="translate(-46.132 -279.961)" fill="#263238"/>
      <path id="Path_4841" data-name="Path 4841" d="M83.209,314.42a5.918,5.918,0,0,1,.123,1.029c0,.727.123,1.7.213,2.942l.694,10.828c.57,9.139,1.387,21.769,2.372,35.718s1.946,26.556,2.651,35.7c.347,4.475.626,8.2.828,10.817.089,1.23.157,2.237.2,2.942a5.95,5.95,0,0,1,0,1.029,5.758,5.758,0,0,1-.157-1.018c-.078-.727-.179-1.7-.313-2.931L88.8,400.667c-.817-9.128-1.857-21.746-2.841-35.7s-1.723-26.579-2.237-35.729c-.213-4.53-.392-8.222-.5-10.84,0-1.242-.078-2.237-.1-2.942a6.131,6.131,0,0,1,.089-1.04Z" transform="translate(-43.379 -284.793)" fill="#263238"/>
      <path id="Path_4842" data-name="Path 4842" d="M74.42,391.86h26.758V411.5a12.842,12.842,0,0,1-12.853,12.853h0a12.842,12.842,0,0,1-12.82-12.2Z" transform="translate(-44.411 -275.606)" fill="#263238"/>
    </g>
  </g>
</svg>
