<svg xmlns="http://www.w3.org/2000/svg" width="82.561" height="80.798" viewBox="0 0 82.561 80.798">
  <g id="Group_1302" data-name="Group 1302" transform="translate(-16664.914 -8641)">
    <g id="Group_1301" data-name="Group 1301" transform="translate(16664.914 8641)">
      <path id="Path_5944" data-name="Path 5944" d="M231.766,359.872a2.756,2.756,0,1,0,2.756,2.756A2.756,2.756,0,0,0,231.766,359.872Zm0,3.848a1.092,1.092,0,1,1,1.092-1.092A1.092,1.092,0,0,1,231.766,363.72Z" transform="translate(-192.22 -302.189)" fill="#fff"/>
      <path id="Path_5945" data-name="Path 5945" d="M224.579,210.951a.749.749,0,0,0,.99-.709V205.7a.749.749,0,0,0-.99-.709l-2.421.823v-.934a.749.749,0,0,0-.749-.749H215.39a1.947,1.947,0,0,0-1.945,1.945v3.718a1.947,1.947,0,0,0,1.945,1.945h6.019a.749.749,0,0,0,.749-.749v-.861Zm-2.4-3.563,1.893-.644V209.2l-1.893-.644Zm-1.518,2.852h-5.27a.448.448,0,0,1-.447-.447v-3.718a.448.448,0,0,1,.447-.447h5.27Z" transform="translate(-179.246 -172.362)" fill="#fff"/>
      <path id="Path_5946" data-name="Path 5946" d="M129.157,76.423a.751.751,0,0,0,.471-.166c.083-.067,2.079-1.622,5.834-.635a.749.749,0,1,0,.381-1.448c-4.541-1.194-7.061.84-7.166.927a.748.748,0,0,0,.48,1.322Z" transform="translate(-108.358 -63.718)" fill="#fff"/>
      <path id="Path_5947" data-name="Path 5947" d="M129.157,96.9a.751.751,0,0,0,.471-.166c.083-.067,2.079-1.622,5.834-.635a.749.749,0,1,0,.381-1.448c-4.541-1.194-7.061.84-7.166.927a.748.748,0,0,0,.48,1.322Z" transform="translate(-108.358 -80.787)" fill="#fff"/>
      <path id="Path_5948" data-name="Path 5948" d="M129.157,118.329a.751.751,0,0,0,.471-.166c.083-.067,2.079-1.622,5.834-.635a.749.749,0,1,0,.381-1.448c-4.541-1.194-7.061.84-7.166.927a.748.748,0,0,0,.48,1.322Z" transform="translate(-108.358 -98.65)" fill="#fff"/>
      <path id="Path_5949" data-name="Path 5949" d="M47.753,75.622c3.747-.985,5.742.562,5.834.635a.749.749,0,0,0,.952-1.156c-.105-.087-2.626-2.121-7.166-.927a.749.749,0,1,0,.381,1.448Z" transform="translate(-40.341 -63.718)" fill="#fff"/>
      <path id="Path_5950" data-name="Path 5950" d="M47.753,96.1c3.745-.984,5.74.56,5.834.635a.749.749,0,1,0,.952-1.156c-.105-.087-2.626-2.121-7.166-.927a.749.749,0,1,0,.381,1.448Z" transform="translate(-40.341 -80.787)" fill="#fff"/>
      <path id="Path_5951" data-name="Path 5951" d="M47.753,117.528c3.745-.984,5.74.56,5.834.635a.749.749,0,1,0,.952-1.156c-.105-.087-2.626-2.121-7.166-.927a.749.749,0,1,0,.381,1.448Z" transform="translate(-40.341 -98.65)" fill="#fff"/>
      <path id="Path_5952" data-name="Path 5952" d="M88.111,25.058H86.976a5.193,5.193,0,0,0-5.158-4.66H42.534v-3.28a2.157,2.157,0,0,0-1.875-2.132c-.222-.029-.775-.047-1.288-.055a1.52,1.52,0,0,0-1.264-1.385c-2.676-.452-9.241-1.08-12.389,2.863a.626.626,0,0,1-.987,0c-3.147-3.943-9.712-3.316-12.388-2.863a1.519,1.519,0,0,0-1.264,1.385c-.524.009-1.075.027-1.288.054a2.155,2.155,0,0,0-1.875,2.132V36.967c0,.01,0,.02,0,.031V68.074s0,0,0,.006,0,0,0,.006v6.763A5.192,5.192,0,0,0,13.1,80.035H41.24L39.555,92.345H35.563a.832.832,0,1,0,0,1.664H59.67a.832.832,0,1,0,0-1.664H55.678L53.993,80.035H81.818A5.192,5.192,0,0,0,87,74.849V68.088s0-.005,0-.008,0-.005,0-.008V36.79h1.108a2.366,2.366,0,0,0,2.363-2.363V27.421a2.366,2.366,0,0,0-2.363-2.363ZM41.235,92.345,42.92,80.036h9.394L54,92.345ZM81.818,22.062a3.524,3.524,0,0,1,3.477,3H78.016a2.366,2.366,0,0,0-2.363,2.363v1.156H42.534V22.062Zm-54.93-4.717c2.725-3.414,9.085-2.639,10.968-2.321a.027.027,0,0,1,.022.027V34.481a.023.023,0,0,1-.009.02.028.028,0,0,1-.024.008c-6.535-.582-10.154,1.273-11.873,2.623V18.01a2.132,2.132,0,0,0,.915-.666ZM12.569,15.051a.027.027,0,0,1,.022-.027c1.884-.319,8.243-1.093,10.968,2.321a2.132,2.132,0,0,0,.915.666V37.132C22.979,35.957,20.044,34.4,15,34.4c-.751,0-1.551.035-2.4.11a.029.029,0,0,1-.024-.008.023.023,0,0,1-.009-.02ZM9.411,17.118a.653.653,0,0,1,.569-.646c.165-.021.63-.035,1.092-.042V34.481A1.526,1.526,0,0,0,12.735,36c6.449-.575,9.722,1.346,11.1,2.543a2.128,2.128,0,0,0,2.78,0c1.377-1.2,4.649-3.118,11.1-2.543a1.526,1.526,0,0,0,1.663-1.519V16.426h.273a6.307,6.307,0,0,1,.819.047.653.653,0,0,1,.569.646V36.967a.652.652,0,0,1-.691.649c-7.29-.474-11.43,1.364-13.623,2.992a2.531,2.531,0,0,1-3,0c-1.953-1.449-5.453-3.068-11.348-3.068q-1.083,0-2.275.077a.635.635,0,0,1-.484-.175.644.644,0,0,1-.206-.474ZM36.086,49.472a8,8,0,0,0,7.953,7.273H46.82v10.5H33.059V65.5a4.6,4.6,0,0,0-2.789-4.293,1.94,1.94,0,0,1-.4-.226,1.1,1.1,0,0,1-.449-.792,1.273,1.273,0,0,1,.343-.988,4,4,0,1,0-5.889-.012,1.319,1.319,0,0,1,.341,1.1,1.125,1.125,0,0,1-.566.82,1.931,1.931,0,0,1-.213.1,4.561,4.561,0,0,0-2.782,4.263v1.773H9.579V49.472Zm7.953,5.775a6.49,6.49,0,1,1,0-12.979h6.944a6.49,6.49,0,1,1,0,12.979ZM25.1,58.067a2.337,2.337,0,1,1,3.441.007,2.941,2.941,0,0,0-.777,2.278,2.741,2.741,0,0,0,1.123,1.977,3.693,3.693,0,0,0,.74.418A2.981,2.981,0,0,1,31.4,65.5v1.744H22.32V65.475a2.939,2.939,0,0,1,1.752-2.724,3.54,3.54,0,0,0,.4-.195,2.791,2.791,0,0,0,1.389-2.008,2.972,2.972,0,0,0-.759-2.481Zm56.715,20.3H13.1a3.525,3.525,0,0,1-3.521-3.523V68.912h64.3a.832.832,0,0,0,.832-.832V65.5a4.6,4.6,0,0,0-2.789-4.293,1.932,1.932,0,0,1-.4-.225,1.106,1.106,0,0,1-.449-.794,1.274,1.274,0,0,1,.341-.987,4,4,0,1,0-5.887-.013,1.322,1.322,0,0,1,.341,1.1,1.128,1.128,0,0,1-.566.82,1.935,1.935,0,0,1-.213.1,4.557,4.557,0,0,0-2.782,4.261v1.774H48.318v-10.5h2.665a8,8,0,0,0,7.954-7.273h26.4V67.248h-8.11a.832.832,0,0,0,0,1.664h8.11v5.937a3.525,3.525,0,0,1-3.521,3.523ZM66.756,58.066a2.337,2.337,0,1,1,3.441.007,2.95,2.95,0,0,0-.775,2.278,2.738,2.738,0,0,0,1.123,1.977,3.615,3.615,0,0,0,.74.418A2.981,2.981,0,0,1,73.051,65.5v1.745H63.976V65.474a2.941,2.941,0,0,1,1.752-2.724,3.527,3.527,0,0,0,.4-.193,2.8,2.8,0,0,0,1.388-2.008,2.965,2.965,0,0,0-.759-2.483Zm0-19.583a2.337,2.337,0,1,1,3.441.007,2.952,2.952,0,0,0-.775,2.28,2.738,2.738,0,0,0,1.123,1.975,3.539,3.539,0,0,0,.74.418,2.983,2.983,0,0,1,1.765,2.757v2.055H63.976V45.891a2.938,2.938,0,0,1,1.752-2.722,3.844,3.844,0,0,0,.4-.195,2.8,2.8,0,0,0,1.388-2.008,2.965,2.965,0,0,0-.759-2.483Zm18.583,9.491H74.715V45.919a4.6,4.6,0,0,0-2.789-4.293,1.932,1.932,0,0,1-.4-.225,1.106,1.106,0,0,1-.449-.794,1.274,1.274,0,0,1,.341-.987,4,4,0,1,0-5.887-.013,1.322,1.322,0,0,1,.341,1.1,1.125,1.125,0,0,1-.566.82,1.935,1.935,0,0,1-.213.1,4.557,4.557,0,0,0-2.782,4.261v2.083H58.931a8,8,0,0,0-7.948-7.2H44.039a8,8,0,0,0-7.948,7.2H9.579V39.057a2.161,2.161,0,0,0,.621.053c6.832-.446,10.641,1.223,12.631,2.7a3.99,3.99,0,0,0,4.786,0c1.99-1.478,5.8-3.147,12.631-2.7a2.149,2.149,0,0,0,2.286-2.143V30.241H74.364l-1.509,1.877a.832.832,0,0,0,.649,1.353h2.474v.955a2.366,2.366,0,0,0,2.363,2.363h7ZM88.81,34.427a.7.7,0,0,1-.7.7h-9.77a.7.7,0,0,1-.7-.7V32.64a.832.832,0,0,0-.832-.832H75.24l1.893-2.355a.832.832,0,0,0,.183-.521v-1.51a.7.7,0,0,1,.7-.7H88.111a.7.7,0,0,1,.7.7Z" transform="translate(-7.914 -13.211)" fill="#fff"/>
    </g>
  </g>
</svg>
