<svg xmlns="http://www.w3.org/2000/svg" width="90" height="90" viewBox="0 0 90 90">
  <g id="Group_760" data-name="Group 760" transform="translate(-160 -303)">
    <rect id="Rectangle_462" data-name="Rectangle 462" width="90" height="90" rx="20" transform="translate(160 303)" fill="#ec008c"/>
    <g id="_263115" data-name="263115" transform="translate(179 297.203)">
      <g id="Group_276" data-name="Group 276" transform="translate(-0.001 27.798)">
        <g id="Group_275" data-name="Group 275" transform="translate(0 0)">
          <path id="Path_3439" data-name="Path 3439" d="M50.6,45.8,26.356,28.054a1.329,1.329,0,0,0-1.57,0L.543,45.8a1.329,1.329,0,1,0,1.57,2.144L25.571,30.773,49.029,47.949A1.329,1.329,0,0,0,50.6,45.8Z" transform="translate(0.001 -27.798)" fill="#fff"/>
        </g>
      </g>
      <g id="Group_278" data-name="Group 278" transform="translate(5.638 48.249)">
        <g id="Group_277" data-name="Group 277" transform="translate(0 0)">
          <path id="Path_3440" data-name="Path 3440" d="M94.989,232.543a1.329,1.329,0,0,0-1.329,1.329v21.151H83.029V243.477a6.645,6.645,0,0,0-13.289,0v11.546H59.11V233.872a1.329,1.329,0,0,0-2.658,0v22.48a1.329,1.329,0,0,0,1.329,1.329H71.069a1.328,1.328,0,0,0,1.324-1.225,1,1,0,0,0,.005-.1V243.478a3.987,3.987,0,0,1,7.974,0v12.875a.981.981,0,0,0,.005.1,1.328,1.328,0,0,0,1.324,1.227H94.989a1.329,1.329,0,0,0,1.329-1.329v-22.48A1.329,1.329,0,0,0,94.989,232.543Z" transform="translate(-56.452 -232.543)" fill="#fff"/>
        </g>
      </g>
    </g>
  </g>
</svg>
