<svg xmlns="http://www.w3.org/2000/svg" width="60" height="60" viewBox="0 0 60 60">
  <g id="Group_1032" data-name="Group 1032" transform="translate(-470 -1302)">
    <rect id="Rectangle_1218" data-name="Rectangle 1218" width="60" height="60" rx="10" transform="translate(470 1302)" fill="#ec008c"/>
    <g id="_747993" data-name="747993" transform="translate(484 1313.988)">
      <g id="Group_1005" data-name="Group 1005">
        <g id="Group_1004" data-name="Group 1004">
          <path id="Path_5257" data-name="Path 5257" d="M30.773,22.016a1.251,1.251,0,0,0,1.251-1.251V7.505a5.009,5.009,0,0,0-5-5H25.394V1.251a1.251,1.251,0,0,0-2.5,0V2.5H17.2V1.251a1.251,1.251,0,1,0-2.5,0V2.5H9.069V1.251a1.251,1.251,0,1,0-2.5,0V2.5H5a5.009,5.009,0,0,0-5,5V27.02a5.009,5.009,0,0,0,5,5H27.02a5.009,5.009,0,0,0,5-5,1.251,1.251,0,0,0-2.5,0,2.5,2.5,0,0,1-2.5,2.5H5a2.5,2.5,0,0,1-2.5-2.5V7.505A2.5,2.5,0,0,1,5,5H6.567V6.255a1.251,1.251,0,0,0,2.5,0V5H14.7V6.255a1.251,1.251,0,0,0,2.5,0V5h5.692V6.255a1.251,1.251,0,0,0,2.5,0V5H27.02a2.5,2.5,0,0,1,2.5,2.5v13.26A1.251,1.251,0,0,0,30.773,22.016Z" fill="#fff"/>
        </g>
      </g>
      <g id="Group_1007" data-name="Group 1007" transform="translate(6.937 11.887)">
        <g id="Group_1006" data-name="Group 1006" transform="translate(0 0)">
          <circle id="Ellipse_74" data-name="Ellipse 74" cx="1" cy="1" r="1" transform="translate(0.074 0.125)" fill="#fff"/>
        </g>
      </g>
      <g id="Group_1009" data-name="Group 1009" transform="translate(17.662 11.887)">
        <g id="Group_1008" data-name="Group 1008" transform="translate(0 0)">
          <circle id="Ellipse_75" data-name="Ellipse 75" cx="1" cy="1" r="1" transform="translate(0.35 0.125)" fill="#fff"/>
        </g>
      </g>
      <g id="Group_1011" data-name="Group 1011" transform="translate(22.611 11.887)">
        <g id="Group_1010" data-name="Group 1010" transform="translate(0 0)">
          <circle id="Ellipse_76" data-name="Ellipse 76" cx="1" cy="1" r="1" transform="translate(0.4 0.125)" fill="#fff"/>
        </g>
      </g>
      <g id="Group_1013" data-name="Group 1013" transform="translate(6.937 17.662)">
        <g id="Group_1012" data-name="Group 1012" transform="translate(0 0)">
          <circle id="Ellipse_77" data-name="Ellipse 77" cx="1" cy="1" r="1" transform="translate(0.074 0.35)" fill="#fff"/>
        </g>
      </g>
      <g id="Group_1015" data-name="Group 1015" transform="translate(6.937 22.611)">
        <g id="Group_1014" data-name="Group 1014" transform="translate(0 0)">
          <circle id="Ellipse_78" data-name="Ellipse 78" cx="1" cy="1" r="1" transform="translate(0.074 0.401)" fill="#fff"/>
        </g>
      </g>
      <g id="Group_1017" data-name="Group 1017" transform="translate(11.886 11.887)">
        <g id="Group_1016" data-name="Group 1016" transform="translate(0 0)">
          <circle id="Ellipse_79" data-name="Ellipse 79" cx="1" cy="1" r="1" transform="translate(0.125 0.125)" fill="#fff"/>
        </g>
      </g>
      <g id="Group_1019" data-name="Group 1019" transform="translate(11.886 17.662)">
        <g id="Group_1018" data-name="Group 1018" transform="translate(0 0)">
          <circle id="Ellipse_80" data-name="Ellipse 80" cx="1" cy="1" r="1" transform="translate(0.125 0.35)" fill="#fff"/>
        </g>
      </g>
      <g id="Group_1021" data-name="Group 1021" transform="translate(11.886 22.611)">
        <g id="Group_1020" data-name="Group 1020" transform="translate(0 0)">
          <circle id="Ellipse_81" data-name="Ellipse 81" cx="1" cy="1" r="1" transform="translate(0.125 0.401)" fill="#fff"/>
        </g>
      </g>
      <g id="Group_1023" data-name="Group 1023" transform="translate(17.662 17.662)">
        <g id="Group_1022" data-name="Group 1022" transform="translate(0 0)">
          <circle id="Ellipse_82" data-name="Ellipse 82" cx="1" cy="1" r="1" transform="translate(0.35 0.35)" fill="#fff"/>
        </g>
      </g>
      <g id="Group_1025" data-name="Group 1025" transform="translate(22.611 17.662)">
        <g id="Group_1024" data-name="Group 1024" transform="translate(0 0)">
          <circle id="Ellipse_83" data-name="Ellipse 83" cx="1" cy="1" r="1" transform="translate(0.4 0.35)" fill="#fff"/>
        </g>
      </g>
      <g id="Group_1027" data-name="Group 1027" transform="translate(17.662 22.611)">
        <g id="Group_1026" data-name="Group 1026" transform="translate(0 0)">
          <circle id="Ellipse_84" data-name="Ellipse 84" cx="1" cy="1" r="1" transform="translate(0.35 0.401)" fill="#fff"/>
        </g>
      </g>
    </g>
  </g>
</svg>
