<svg xmlns="http://www.w3.org/2000/svg" xmlns:xlink="http://www.w3.org/1999/xlink" width="46" height="42" viewBox="0 0 46 42">
  <defs>
    <clipPath id="clip-_1">
      <rect width="46" height="42"/>
    </clipPath>
  </defs>
  <g id="_1" data-name="1" clip-path="url(#clip-_1)">
    <path id="_1159798" data-name="1159798" d="M45.523,2.585a.975.975,0,0,0-.965-.018L34,8.331V4.873A4.878,4.878,0,0,0,29.131,0H4.873A4.878,4.878,0,0,0,0,4.873v19.24a4.878,4.878,0,0,0,4.873,4.873H29.131A4.878,4.878,0,0,0,34,24.113v-3.4l10.555,5.763A.975.975,0,0,0,46,25.626V3.423a.974.974,0,0,0-.477-.838ZM32.054,24.113a2.927,2.927,0,0,1-2.924,2.924H4.873A2.927,2.927,0,0,1,1.95,24.113V4.873A2.927,2.927,0,0,1,4.873,1.949H29.131a2.927,2.927,0,0,1,2.924,2.924Zm12-.13L34,18.5V10.551L44.051,5.066Zm0,0" transform="translate(0 6.5)" fill="#b5b3b3" stroke="#b5b3b3" stroke-width="0.5"/>
  </g>
</svg>
