<svg xmlns="http://www.w3.org/2000/svg" xmlns:xlink="http://www.w3.org/1999/xlink" width="46" height="42" viewBox="0 0 46 42">
  <defs>
    <clipPath id="clip-_5">
      <rect width="46" height="42"/>
    </clipPath>
  </defs>
  <g id="_5" data-name="5" clip-path="url(#clip-_5)">
    <g id="_937819" data-name="937819" transform="translate(-1.366)">
      <g id="Group_608" data-name="Group 608" transform="translate(3.366)">
        <g id="Group_607" data-name="Group 607" transform="translate(0)">
          <path id="Path_4511" data-name="Path 4511" d="M24.083,0c-.011.011-.034.011-.068.011A20.6,20.6,0,0,0,7.856,33.455l-3,6.977a1.12,1.12,0,0,0,.585,1.474,1.144,1.144,0,0,0,.641.079L17.095,40.05a19.853,19.853,0,0,0,6.864,1.193A20.621,20.621,0,0,0,24.083,0ZM23.97,39a18.063,18.063,0,0,1-6.358-1.159,1.079,1.079,0,0,0-.6-.056l-9.273,1.62L10.2,33.7a1.132,1.132,0,0,0-.18-1.182,17.99,17.99,0,0,1-3.128-5.2,18.373,18.373,0,1,1,35.481-6.8v.068A18.423,18.423,0,0,1,23.97,39Z" transform="translate(-3.366)" fill="#b5b3b3"/>
        </g>
      </g>
      <g id="Group_610" data-name="Group 610" transform="translate(15.891 16.508)">
        <g id="Group_609" data-name="Group 609">
          <path id="Path_4512" data-name="Path 4512" d="M121.868,146.7h-6.077a1.125,1.125,0,1,0,0,2.251h6.077a1.125,1.125,0,0,0,0-2.251Z" transform="translate(-114.666 -146.7)" fill="#b5b3b3"/>
        </g>
      </g>
      <g id="Group_612" data-name="Group 612" transform="translate(15.891 22.135)">
        <g id="Group_611" data-name="Group 611">
          <path id="Path_4513" data-name="Path 4513" d="M129.745,196.7H115.791a1.125,1.125,0,1,0,0,2.251h13.954a1.125,1.125,0,1,0,0-2.251Z" transform="translate(-114.666 -196.7)" fill="#b5b3b3"/>
        </g>
      </g>
    </g>
  </g>
</svg>
