<svg xmlns="http://www.w3.org/2000/svg" xmlns:xlink="http://www.w3.org/1999/xlink" width="1000" height="1131" viewBox="0 0 1000 1131">
  <defs>
    <linearGradient id="linear-gradient" x1="0.537" y1="1.609" x2="0.521" y2="-0.39" gradientUnits="objectBoundingBox">
      <stop offset="0"/>
      <stop offset="0.485" stop-color="#545454" stop-opacity="0.302"/>
      <stop offset="0.602" stop-color="#535353" stop-opacity="0.008"/>
      <stop offset="1" stop-color="#545454" stop-opacity="0"/>
    </linearGradient>
  </defs>
  <g id="Group_617" data-name="Group 617" transform="translate(-40 -218)">
    <rect id="Rectangle_782" data-name="Rectangle 782" width="1000" height="1131" rx="20" transform="translate(40 218)" fill="#e2e2e2"/>
    <g id="_1077114" data-name="1077114" transform="translate(135.136 362.224)">
      <path id="Path_12" data-name="Path 12" d="M320.8,467.516c64.228,0,119.845-23.036,165.287-68.486s68.478-101.044,68.478-165.279c0-64.213-23.036-119.822-68.486-165.279C440.626,23.036,385.018,0,320.8,0S200.96,23.036,155.517,68.479,87.032,169.53,87.032,233.751,110.075,353.6,155.525,399.037,256.584,467.516,320.8,467.516Zm0,0" transform="translate(77.945 0)" fill="#fff"/>
      <path id="Path_13" data-name="Path 13" d="M807.768,524.806a577.375,577.375,0,0,0-7.864-61.326,483.165,483.165,0,0,0-15.083-61.659,304.551,304.551,0,0,0-25.346-57.5,217,217,0,0,0-38.223-49.811c-15.083-14.432-33.551-26.035-54.906-34.5-21.281-8.419-44.865-12.684-70.093-12.684-9.907,0-19.489,4.065-37.993,16.113-11.388,7.427-24.709,16.016-39.578,25.516-12.714,8.1-29.937,15.69-51.211,22.562a198.858,198.858,0,0,1-125.272,0c-21.251-6.864-38.475-14.454-51.174-22.555-14.728-9.411-28.056-18-39.615-25.531-18.482-12.047-28.071-16.112-37.979-16.112-25.235,0-48.812,4.272-70.085,12.7-21.34,8.449-39.815,20.052-54.913,34.5a217.027,217.027,0,0,0-38.208,49.8A305.146,305.146,0,0,0,24.88,401.829,484.319,484.319,0,0,0,9.8,463.48,575.353,575.353,0,0,0,1.94,524.828C.651,543.4,0,562.673,0,582.14,0,632.8,16.1,673.817,47.864,704.065c31.366,29.848,72.869,44.991,123.339,44.991H638.526c50.47,0,91.958-15.135,123.332-44.991,31.766-30.226,47.871-71.248,47.871-121.933-.007-19.556-.666-38.845-1.962-57.327Zm0,0" transform="translate(0 221.495)" fill="#fff"/>
    </g>
    <rect id="senior-man-listening-music-through-headphones" width="170" height="170" rx="20" transform="translate(850 1149)" fill="#8e8e8e"/>
    <g id="_1077114-2" data-name="1077114" transform="translate(875.765 1173)">
      <path id="Path_14" data-name="Path 14" d="M63.1,68.4a33.093,33.093,0,0,0,24.183-10.02A33.092,33.092,0,0,0,97.3,34.2a33.1,33.1,0,0,0-10.02-24.182A33.1,33.1,0,0,0,63.1,0,33.092,33.092,0,0,0,38.917,10.019,33.094,33.094,0,0,0,28.9,34.2,33.092,33.092,0,0,0,38.918,58.383,33.1,33.1,0,0,0,63.1,68.4Zm0,0" transform="translate(-4.76)" fill="#fff"/>
      <path id="Path_15" data-name="Path 15" d="M118.183,122.715a84.48,84.48,0,0,0-1.151-8.972,70.693,70.693,0,0,0-2.207-9.021,44.558,44.558,0,0,0-3.708-8.413,31.748,31.748,0,0,0-5.592-7.288,24.656,24.656,0,0,0-8.033-5.047,27.762,27.762,0,0,0-10.255-1.856c-1.45,0-2.851.595-5.559,2.357-1.666,1.087-3.615,2.343-5.791,3.733a33.181,33.181,0,0,1-7.493,3.3,29.095,29.095,0,0,1-18.328,0,33.1,33.1,0,0,1-7.487-3.3c-2.155-1.377-4.1-2.634-5.8-3.735-2.7-1.763-4.107-2.357-5.557-2.357a27.727,27.727,0,0,0-10.254,1.858,24.636,24.636,0,0,0-8.034,5.047,31.753,31.753,0,0,0-5.59,7.287,44.646,44.646,0,0,0-3.708,8.415,70.86,70.86,0,0,0-2.206,9.02,84.179,84.179,0,0,0-1.151,8.976C.1,125.436,0,128.256,0,131.1c0,7.412,2.356,13.413,7,17.839,4.589,4.367,10.661,6.583,18.046,6.583H93.422c7.384,0,13.454-2.214,18.045-6.583,4.648-4.422,7-10.424,7-17.84,0-2.861-.1-5.683-.287-8.387Zm0,0" transform="translate(0 -13.525)" fill="#fff"/>
    </g>
    <rect id="Rectangle_781" data-name="Rectangle 781" width="160" height="160" rx="15" transform="translate(855 1155)" fill="url(#linear-gradient)"/>
    <text id="John" transform="translate(911 1299)" fill="#fff" font-size="20" font-family="WorkSans-Regular, Work Sans"><tspan x="0" y="0">John</tspan></text>
  </g>
</svg>
