<svg xmlns="http://www.w3.org/2000/svg" width="698.75" height="545.874" viewBox="0 0 698.75 545.874">
  <g id="Group_287" data-name="Group 287" transform="translate(-1061.25 -271)">
    <g id="freepik--Plant--inject-40" transform="translate(1061.25 560.753)">
      <path id="Path_3593" data-name="Path 3593" d="M77.417,344.121c7.868-4.054,17.117-4.579,25.841-3.138,4.685.781,9.564,2.177,12.763,5.706s3.784,9.715.12,12.733c-2.177,1.8-5.21,2.072-8.033,2.042-6.832-.075-14.414-1.276-19.865,2.823-3.123,2.357-5.2,6.246-8.9,7.4s-7.763-1.021-9.685-4.309a15.015,15.015,0,0,1-1.1-11.1,16.937,16.937,0,0,1,8.859-12.162Z" transform="translate(9.116 -238.21)" fill="#8dc63f"/>
      <path id="Path_3594" data-name="Path 3594" d="M63.784,343.46c4.8,6.862,14.144,4.579,18.483.405s6.156-10.27,7.823-16.051c3.8-13.228,7.643-27.027,4.8-40.54a22.417,22.417,0,0,0-5.18-11.021,11.772,11.772,0,0,0-11.156-3.724c-4.715,1.246-7.628,5.856-9.745,10.255a96.591,96.591,0,0,0-9.564,41.5c0,6.682.766,13.694,4.5,19.219" transform="translate(4.746 -272.292)" fill="#8dc63f"/>
      <path id="Path_3595" data-name="Path 3595" d="M71.961,345.954c5.225-6.2,6.216-15.225,3.889-22.988s-7.507-14.354-13.6-19.745a73.288,73.288,0,0,0-24.369-14.369,25.827,25.827,0,0,0-10.961-1.862,11.5,11.5,0,0,0-9.2,5.556c-2.568,4.895-.105,10.826,2.553,15.676A185.675,185.675,0,0,0,36.27,332.59c4.8,6.186,10.3,12.282,17.612,15.015s14.91,2.477,18.859-2.538" transform="translate(-16.629 -264.936)" fill="#8dc63f"/>
      <path id="Path_3596" data-name="Path 3596" d="M62.1,409.687a15.554,15.554,0,0,0,.435-3.108c.21-2.282.5-5.12.826-8.513a121.877,121.877,0,0,1,1.907-12.492,97.747,97.747,0,0,1,4.5-14.73,54.55,54.55,0,0,1,7.507-13.333,27.973,27.973,0,0,1,9.519-7.9,26.532,26.532,0,0,1,8.048-2.432,15.222,15.222,0,0,0,3.108-.45,14.188,14.188,0,0,0-3.153,0,24.489,24.489,0,0,0-8.363,2.162,28.138,28.138,0,0,0-10.03,7.973,53.393,53.393,0,0,0-7.793,13.6,90.094,90.094,0,0,0-4.5,15.015,106.3,106.3,0,0,0-1.667,12.642c-.27,3.619-.36,6.547-.42,8.574a13.858,13.858,0,0,0,.075,2.988Z" transform="translate(6.114 -235.007)" fill="#263238"/>
      <path id="Path_3597" data-name="Path 3597" d="M62.691,431.295a6.682,6.682,0,0,0,0-1.5v-4.144c0-3.589,0-8.784.18-15.2.315-12.838,1.5-26.651,3.559-46.126,2.012-18.3,4.73-39.624,7.6-53.468.6-3.153,1.231-6.006,1.8-8.468s1.036-4.64,1.5-6.381.721-3,.976-4.009a6.007,6.007,0,0,0,.255-1.5,5.376,5.376,0,0,0-.511,1.351c-.315,1.036-.706,2.357-1.2,3.964s-1.081,3.844-1.7,6.336-1.336,5.3-2.012,8.438a474.084,474.084,0,0,0-7.988,49.549c-2.132,19.519-3.093,37.282-3.183,50.135,0,6.441,0,11.652.225,15.24.105,1.682.2,3,.255,4.129a6.157,6.157,0,0,0,.24,1.652Z" transform="translate(6.11 -263.161)" fill="#263238"/>
      <path id="Path_3598" data-name="Path 3598" d="M77.8,393.485a27.25,27.25,0,0,0,0-4.324,117.684,117.684,0,0,0-1.321-11.712,153.522,153.522,0,0,0-3.8-17.057A139.453,139.453,0,0,0,65.5,340.257,107.567,107.567,0,0,0,44.479,307.63a55.076,55.076,0,0,0-4.925-4.58c-.766-.631-1.426-1.276-2.117-1.772l-1.907-1.321A27.028,27.028,0,0,0,32,297.57c-.21.27,5.15,3.438,11.922,10.631a113.468,113.468,0,0,1,20.405,32.507,160.812,160.812,0,0,1,7.177,20A172.469,172.469,0,0,1,75.545,377.6c.931,4.88,1.411,8.844,1.727,11.607a30.659,30.659,0,0,0,.526,4.279Z" transform="translate(-8.922 -259.615)" fill="#263238"/>
      <path id="Path_3599" data-name="Path 3599" d="M40.45,401.71l3.423,47.042h60.435l3.438-47.042Z" transform="translate(-4.682 -207.39)" fill="#263238"/>
      <rect id="Rectangle_321" data-name="Rectangle 321" width="80.345" height="18.543" transform="translate(29.927 175.776)" fill="#263238"/>
      <path id="Path_3600" data-name="Path 3600" d="M36.56,431.84v5.135h79.023V431.84Z" transform="translate(-6.633 -192.281)" fill="#455a64"/>
      <path id="Path_3601" data-name="Path 3601" d="M42.779,444.314,39.07,435.26h72.372l-4.324,9.054Z" transform="translate(-5.374 -190.565)" fill="#455a64"/>
      <path id="Path_3602" data-name="Path 3602" d="M106.28,414.2a1.833,1.833,0,0,1-.285.42c-.24.33-.526.721-.9,1.2l-3.513,4.5-.165.21-.15-.21-8.649-12.012h.5L84.6,420.323l-.27.375-.3-.345-10.09-12.012h.586c-.18.21-.375.45-.556.691l-9.009,11.321-.3.375-.27-.39L55.86,408.326h.5c-4.189,4.79-7.763,8.844-10.51,12.012l-.18.21-.135-.24c-1.4-2.312-2.492-4.174-3.288-5.51-.345-.6-.631-1.081-.841-1.5a2.116,2.116,0,0,1-.27-.526,5.839,5.839,0,0,1,.36.465l.931,1.411,3.453,5.42h-.33l10.315-12.1.27-.3.225.33,8.6,12.012h-.6l9.009-11.336.556-.691.3-.36.285.345c3.544,4.219,6.937,8.288,10.075,12.012h-.571l8.6-12.012.255-.345.24.345,8.468,12.1h-.3l3.664-4.369.976-1.141Q106.265,414.091,106.28,414.2Z" transform="translate(-4.341 -204.427)" fill="#e0e0e0"/>
      <path id="Path_3603" data-name="Path 3603" d="M108.422,401.625c0,.21-15.15.375-33.814.375s-33.829-.165-33.829-.375,15.135-.375,33.829-.375S108.422,401.415,108.422,401.625Z" transform="translate(-4.517 -207.621)" fill="#455a64"/>
      <path id="Path_3604" data-name="Path 3604" d="M112.413,435.725c0,.21-16.516.375-36.756.375s-36.756-.165-36.756-.375,16.516-.375,36.756-.375S112.413,435.515,112.413,435.725Z" transform="translate(-5.46 -190.52)" fill="#263238"/>
    </g>
    <g id="freepik--Chair--inject-40" transform="translate(1558.801 616.034)">
      <path id="Path_3605" data-name="Path 3605" d="M370.673,309.11H511.107a22.717,22.717,0,0,1,22.718,22.718V508.433H348V331.828a22.718,22.718,0,0,1,22.673-22.718Z" transform="translate(-348 -309.11)" fill="#455a64"/>
      <path id="Path_3606" data-name="Path 3606" d="M461.47,309.79c.225,0,.39,44.369.39,99.1s-.165,99.1-.39,99.1-.39-44.369-.39-99.1S461.26,309.79,461.47,309.79Z" transform="translate(-291.292 -308.769)" fill="#263238"/>
    </g>
    <g id="freepik--Character--inject-40" transform="translate(1334.018 364.497)">
      <path id="Path_3607" data-name="Path 3607" d="M418.187,168.806A157.747,157.747,0,0,1,446.445,251.9c.871,19.97-1.817,41.246,7.658,58.843,13.6,25.255,43.018,24.4,52.027,51.621,3.919,11.847-3.3,37.9-5.255,50.225-2.207,13.994,6.351,25.751,4.144,39.759-2.027,12.838-11.637,22-23.168,27.973-10.27,5.315-19.76,5.465-30.435,1.036-20.36-8.423-37.3-17.312-51.786-33.889-20.36-23.273-26.516-55.555-30.03-86.231a756.552,756.552,0,0,1,4.609-203.827" transform="translate(-114.786 -133.648)" fill="#263238"/>
      <path id="Path_3608" data-name="Path 3608" d="M441.832,449.937a5.393,5.393,0,0,1,.646-.165c.435-.105,1.1-.21,1.937-.466a33.033,33.033,0,0,0,16.306-10.255,19.233,19.233,0,0,0,3.634-6.441,35.342,35.342,0,0,0,1.276-8.243,81.218,81.218,0,0,0-1.952-19.129c-1.306-6.817-3-14.084-3.513-21.967a45.5,45.5,0,0,1,.856-12.012,77.013,77.013,0,0,1,3.814-12.012,128.722,128.722,0,0,0,4.294-12.207,31.142,31.142,0,0,0,1.051-13.063,29.535,29.535,0,0,0-4.88-12.132,55.672,55.672,0,0,0-8.513-9.64c-6.2-5.8-12.913-10.51-18.649-15.946a105.629,105.629,0,0,1-24.294-33.543,102.8,102.8,0,0,1-5.586-15.015c-.721-2.237-1.141-4.4-1.652-6.351s-.736-3.784-1.066-5.405c-.465-3.288-.826-5.826-.916-7.507,0-.841-.12-1.5-.15-1.982a3.632,3.632,0,0,1,0-.676,3.361,3.361,0,0,0,.105.676c.105.45.135,1.126.24,1.967.135,1.727.54,4.264,1.051,7.507.345,1.622.721,3.423,1.126,5.39a54.179,54.179,0,0,0,1.712,6.306,104.708,104.708,0,0,0,5.661,14.865,106.125,106.125,0,0,0,24.279,33.243c5.706,5.315,12.432,10.075,18.694,15.9a56.831,56.831,0,0,1,8.634,9.775,30.27,30.27,0,0,1,5,12.462,31.832,31.832,0,0,1-1.066,13.378c-1.171,4.264-2.808,8.3-4.324,12.267a78.269,78.269,0,0,0-3.814,11.862,44.7,44.7,0,0,0-.856,11.847c.405,7.778,2.147,15.015,3.438,21.877a81.8,81.8,0,0,1,1.862,19.279,36.871,36.871,0,0,1-1.351,8.378,20.314,20.314,0,0,1-3.769,6.562,31.11,31.11,0,0,1-9.489,7.432,30.392,30.392,0,0,1-7.132,2.7,17.556,17.556,0,0,1-2.643.48Z" transform="translate(-94.902 -99.361)" fill="#455a64"/>
      <path id="Path_3609" data-name="Path 3609" d="M243.16,477.523,315.231,443.3s28.063-136.26,33.378-146.485,27.477-19.069,27.477-19.069l-3.709,184.5-6.607,42.6-101.621,9.625Z" transform="translate(-175.793 -73.299)" fill="#8dc63f"/>
      <path id="Path_3610" data-name="Path 3610" d="M202.674,432.3c-.405,0-2.4,1.231-.736,4.4s13.889,13.633,17.477,9.985-1.892-8.093-1.892-8.093Z" transform="translate(-196.793 4.206)" fill="#ffbe9d"/>
      <path id="Path_3611" data-name="Path 3611" d="M219.534,450.446s14.745,1.862,20.405,4.024c6.171,2.342,13.679.736,18.724-2.673a53.293,53.293,0,0,0,7.988-6.516l18.8-.3a22.522,22.522,0,0,0,3.664-23.288,25.27,25.27,0,0,0-4.294-7.342c-2.237-2.417-5.766-4.369-11.862-5.42l-22.327,4.82s-34.534-2.477-40.75.435c0,0-7.733,4.58-10.12,6.5-.9.736-3.649,9.534,1.982,14.114,0,0-4.895,3.889-2.237,7.387l1.261,1.5s-3.288,4.264-1.592,6.126,16.516,10.51,21.787,8.468.916-6.982-1.426-7.883" transform="translate(-198.293 -7.514)" fill="#ffbe9d"/>
      <path id="Path_3612" data-name="Path 3612" d="M204.324,421.09a16.249,16.249,0,0,1,1.832.661c1.156.435,2.853,1.066,4.985,1.742,1.051.345,2.222.691,3.5,1.021s2.643.616,4.069,1.081a8.693,8.693,0,0,1,4.054,2.447,4.97,4.97,0,0,1,1.081,4.94,3.873,3.873,0,0,1-1.817,1.967,7.057,7.057,0,0,1-2.462.691,20.826,20.826,0,0,1-4.7-.255,42.047,42.047,0,0,1-7.628-1.982c-2.117-.751-3.784-1.5-4.94-1.952a9.811,9.811,0,0,1-1.757-.841,15.813,15.813,0,0,1,1.847.616c1.171.42,2.868,1.066,4.985,1.757a45.029,45.029,0,0,0,7.507,1.847,20.757,20.757,0,0,0,4.5.21,6.3,6.3,0,0,0,2.237-.631,3.243,3.243,0,0,0,1.5-1.652,4.4,4.4,0,0,0-.871-4.294,8.212,8.212,0,0,0-3.769-2.3c-1.381-.465-2.763-.766-4.024-1.126s-2.447-.736-3.5-1.1c-2.132-.736-3.8-1.5-4.94-1.937a10.256,10.256,0,0,1-1.7-.916Z" transform="translate(-197.167 -1.416)" fill="#eb996e"/>
      <path id="Path_3613" data-name="Path 3613" d="M205.038,414a12.653,12.653,0,0,1,1.817.661c1.171.45,2.853,1.1,4.955,1.787s4.64,1.5,7.507,2.147a10.361,10.361,0,0,1,4.369,1.772,3.648,3.648,0,0,1,1.276,2.267,4.67,4.67,0,0,1-.375,2.628,6.291,6.291,0,0,1-3.859,3.273,10.135,10.135,0,0,1-4.7.375,45.167,45.167,0,0,1-7.507-2.192l-4.97-1.742a13.867,13.867,0,0,1-1.8-.706,11.469,11.469,0,0,1,1.877.481l5.03,1.5a51.065,51.065,0,0,0,7.507,2.042,9.744,9.744,0,0,0,4.429-.39,5.751,5.751,0,0,0,3.5-3,3.5,3.5,0,0,0-.736-4.189,9.984,9.984,0,0,0-4.114-1.667,72.96,72.96,0,0,1-7.507-2.282c-2.1-.781-3.754-1.5-4.895-1.982A12.108,12.108,0,0,1,205.038,414Z" transform="translate(-196.56 -4.971)" fill="#eb996e"/>
      <path id="Path_3614" data-name="Path 3614" d="M209.141,418.006a18.7,18.7,0,0,1-.676-3,16.515,16.515,0,0,1-.736-3,5.3,5.3,0,0,1,1.336,2.808,4.985,4.985,0,0,1,.075,3.2Z" transform="translate(-193.561 -5.974)" fill="#eb996e"/>
      <path id="Path_3615" data-name="Path 3615" d="M260.818,423.373l-13.138-4.985s-36.471-17.027-37.087-16.1-2.6.811-2.162,5.255,21.682,13.423,22.357,15.015-.45,9.339,7.4,14.91,13.513,5.706,13.513,5.706" transform="translate(-193.241 -10.861)" fill="#ffbe9d"/>
      <path id="Path_3616" data-name="Path 3616" d="M251.8,443.178h-.345l-.9-.09a21.843,21.843,0,0,1-3.408-.826,33.349,33.349,0,0,1-11.141-6.411,15.706,15.706,0,0,1-4.5-7.673,34.863,34.863,0,0,1-.781-4.91,2.733,2.733,0,0,0-.135-.556,1.081,1.081,0,0,0-.345-.36,11.888,11.888,0,0,0-1.066-.691c-.736-.435-1.5-.856-2.312-1.276-3.153-1.7-6.532-3.393-9.925-5.345a59.211,59.211,0,0,1-5.06-3.2,18.449,18.449,0,0,1-2.372-1.982A6,6,0,0,1,208.5,408.6a2.463,2.463,0,0,1-.3-.826,3.707,3.707,0,0,1,0-.811,5.75,5.75,0,0,1,.556-3.168,3.859,3.859,0,0,1,1.156-1.156,2.568,2.568,0,0,0,.51-.435l.12-.135a.375.375,0,0,1,.255-.075,1.137,1.137,0,0,1,.255,0l.405.105c1.967.6,3.784,1.4,5.6,2.147q5.405,2.252,10.315,4.5c6.562,3,12.417,5.676,17.342,7.988,1.231.556,2.387,1.141,3.5,1.622l3.213,1.261,5.15,2.042,3.243,1.306.826.36a.311.311,0,0,1,.285.135c0,.015-.105,0-.3-.09l-.856-.285-3.288-1.216-5.2-1.847-3.243-1.216c-1.141-.465-2.3-1.036-3.529-1.592l-17.387-7.853q-4.932-2.252-10.33-4.5c-1.8-.736-3.634-1.5-5.525-2.117l-.33-.075h-.12v-.15h0c.42.27.105.09.2.15h0a2.75,2.75,0,0,1-.631.571,3.077,3.077,0,0,0-.991.976,5.225,5.225,0,0,0-.481,2.838,2.807,2.807,0,0,0,.315,1.351,5.779,5.779,0,0,0,.9,1.141,17.594,17.594,0,0,0,2.3,1.907c1.622,1.171,3.318,2.192,5,3.168,3.378,1.952,6.727,3.664,9.895,5.36.8.435,1.5.856,2.327,1.321a12.945,12.945,0,0,1,1.126.721,1.5,1.5,0,0,1,.51.586,3,3,0,0,1,.15.676,38.935,38.935,0,0,0,.736,4.865,15.435,15.435,0,0,0,4.294,7.508,34.144,34.144,0,0,0,10.916,6.5,24.134,24.134,0,0,0,3.348.916c.39.09.691.12.9.15Z" transform="translate(-193.342 -10.996)" fill="#eb996e"/>
      <path id="Path_3617" data-name="Path 3617" d="M215.455,430.56a4.5,4.5,0,0,1,1.4.405,14.129,14.129,0,0,1,3.438,1.982,12.6,12.6,0,0,1,1.982,1.937,4.1,4.1,0,0,1,1.066,3,3.393,3.393,0,0,1-2.432,2.628,6.487,6.487,0,0,1-3.814-.12,69.893,69.893,0,0,1-12.1-4.85,36.244,36.244,0,0,1-3.393-2.012,5.793,5.793,0,0,1-1.156-.871,7.091,7.091,0,0,1,1.276.661c.811.465,1.982,1.111,3.468,1.832a84.781,84.781,0,0,0,12.012,4.655,6.006,6.006,0,0,0,3.483.135,2.853,2.853,0,0,0,2.057-2.132,3.679,3.679,0,0,0-.9-2.673,12.5,12.5,0,0,0-1.862-1.907,20.854,20.854,0,0,0-4.519-2.673Z" transform="translate(-197.217 3.333)" fill="#eb996e"/>
      <g id="Group_283" data-name="Group 283" transform="translate(153.909 300.681)" opacity="0.3">
        <path id="Path_3618" data-name="Path 3618" d="M336.356,472.71c-11.8-39.8-22.207-91.065-34.009-130.87-4.324,36.741,1.081,85.255,7.838,121.621.8,4.264,1.156,8.438,4.5,11.246l21.667-2" transform="translate(-300.798 -341.84)"/>
      </g>
      <path id="Path_3619" data-name="Path 3619" d="M321.926,421.908c-.165,0-.661-2.6-2.267-6.577a46.685,46.685,0,0,0-3.378-6.7,50.8,50.8,0,0,0-5.556-7.3,49.461,49.461,0,0,0-6.877-6.081,44.74,44.74,0,0,0-6.426-3.874c-3.844-1.892-6.426-2.582-6.381-2.733a8.076,8.076,0,0,1,1.832.435,15.241,15.241,0,0,1,2.087.691,27.344,27.344,0,0,1,2.7,1.111,42.048,42.048,0,0,1,6.607,3.784,48.047,48.047,0,0,1,7.042,6.126A48.572,48.572,0,0,1,316.9,408.3a42.941,42.941,0,0,1,3.288,6.862c.405,1.006.646,1.952.9,2.778a15.438,15.438,0,0,1,.541,2.147,9.6,9.6,0,0,1,.3,1.817Z" transform="translate(-151.782 -17.684)" fill="#263238"/>
      <path id="Path_3620" data-name="Path 3620" d="M339.192,288.195S301.46,372.5,301.46,388.029s28.273,123.017,28.273,123.017c-.27,4.279-1.366,25.706-1.366,25.706l158.542.556h0l2.417-34.084-12.372-32.477,12.357-91.816s8.318-53.3,9.009-68.213c.931-18.649-62.252-40.27-60.525-42.853l-10.9-14.654-62.477,50.735L352.06,268.27l-14.8,13.979Z" transform="translate(-146.556 -85.606)" fill="#8dc63f"/>
      <path id="Path_3621" data-name="Path 3621" d="M431.061,297.165C413.9,326.189,382.5,379.071,382.5,379.071l-56.276,64.174s-3.679,32.6,3.679,42.6,19.985,16.832,19.985,16.832,14.85,0,33.723-15.781,70.93-80.99,70.93-80.99l17.883-21.576s21.321-52.372,17.342-79.023c-1.5-10.285-5.916-14.549-11.742-19.264C463.358,274.222,440.656,280.934,431.061,297.165Z" transform="translate(-134.597 -72.144)" fill="#8dc63f"/>
      <path id="Path_3622" data-name="Path 3622" d="M480.373,337.4a4.646,4.646,0,0,1-.27.6c-.2.42-.481.976-.826,1.712-.751,1.5-1.892,3.679-3.453,6.441-3.108,5.54-7.943,13.363-14.249,22.808-3.168,4.715-6.7,9.835-10.585,15.27s-8.3,11.036-11.937,17.582-6.937,13.694-10.916,20.841a131.653,131.653,0,0,1-14.309,20.886A83.693,83.693,0,0,1,394.878,460.3a59.668,59.668,0,0,1-21.952,8.5,49.2,49.2,0,0,1-21.261-.9,40.284,40.284,0,0,1-9.009-3.649,41.129,41.129,0,0,1-7.417-5.015,33.647,33.647,0,0,1-5.586-5.9,33.183,33.183,0,0,1-3.694-6.246,39.523,39.523,0,0,1-3-11.171,51.634,51.634,0,0,1-.255-7.312c0-.811.09-1.5.12-1.907a4.5,4.5,0,0,1,0-.646,4.292,4.292,0,0,1,0,.646c0,.466,0,1.1,0,1.907a55.574,55.574,0,0,0,.39,7.267,39.91,39.91,0,0,0,3.123,11.036,33.561,33.561,0,0,0,3.694,6.126,32.9,32.9,0,0,0,5.555,5.781,40.631,40.631,0,0,0,7.342,4.91,40.155,40.155,0,0,0,8.874,3.558,48.874,48.874,0,0,0,21.021.811,59.069,59.069,0,0,0,21.652-8.438,83.259,83.259,0,0,0,18.784-16.622,130.292,130.292,0,0,0,14.219-20.751c3.979-7.1,7.192-14.309,10.961-20.826a195.36,195.36,0,0,1,12.012-17.613c3.9-5.405,7.507-10.51,10.646-15.195,6.366-9.384,11.261-17.162,14.444-22.642,1.607-2.748,2.793-4.895,3.573-6.366l.916-1.682a2.893,2.893,0,0,1,.345-.556Z" transform="translate(-135.921 -43.385)" fill="#263238"/>
      <path id="Path_3623" data-name="Path 3623" d="M325.678,386.83c0,.105-.8.6-1.832,1.757a9.009,9.009,0,0,0-1.021,11.051,21.187,21.187,0,0,0,1.5,2.057c0,.09-.946-.42-1.937-1.742a8.859,8.859,0,0,1,1.1-11.757A4.5,4.5,0,0,1,325.678,386.83Z" transform="translate(-136.93 -18.597)" fill="#263238"/>
      <path id="Path_3624" data-name="Path 3624" d="M330.93,416.189a4.5,4.5,0,0,1,.886.21l1.051.285,1.5.27a20.917,20.917,0,0,0,9.279-.871,33.979,33.979,0,0,0,12.012-7.027,90.463,90.463,0,0,0,11.186-12.988,78.508,78.508,0,0,1,11.546-12.9c2.042-1.712,4.039-3.228,5.706-4.865a15.991,15.991,0,0,0,3.754-5.18,9.445,9.445,0,0,0-.856-8.859,6.967,6.967,0,0,0-2.718-2.027,4.611,4.611,0,0,1,.871.255,5.75,5.75,0,0,1,2.087,1.592,9.7,9.7,0,0,1,1.141,9.249,16.7,16.7,0,0,1-3.814,5.435c-1.7,1.682-3.709,3.243-5.706,4.955a80.177,80.177,0,0,0-11.381,12.823,88.668,88.668,0,0,1-11.351,13.063,33.979,33.979,0,0,1-12.252,7,20.405,20.405,0,0,1-9.5.646l-1.5-.345c-.42-.12-.766-.27-1.036-.36a4.07,4.07,0,0,1-.9-.36Z" transform="translate(-131.777 -30.928)" fill="#263238"/>
      <path id="Path_3625" data-name="Path 3625" d="M418.994,285.51a8.129,8.129,0,0,1-.631.9c-.5.631-1.126,1.5-1.922,2.507-1.712,2.132-4.069,5.315-6.952,9.279a303.718,303.718,0,0,0-20.015,32.537c-7.087,13.153-12.943,25.36-17.432,34.069-2.222,4.369-4.054,7.883-5.39,10.285l-1.456,2.748a5.509,5.509,0,0,1-.586.931,5.826,5.826,0,0,1,.435-1.006l1.411-2.838,5.15-10.375c4.354-8.784,10.15-21.021,17.237-34.2a273.27,273.27,0,0,1,20.27-32.492c3-3.919,5.36-7.072,7.147-9.144l2.042-2.417a4.778,4.778,0,0,1,.691-.781Z" transform="translate(-114.887 -69.408)" fill="#263238"/>
      <g id="Group_284" data-name="Group 284" transform="translate(186.885 372.032)" opacity="0.3">
        <path id="Path_3626" data-name="Path 3626" d="M322.82,399.991c7.312,3.964,15.36,3.543,23.528,1.952a36.516,36.516,0,0,0,21.021-12.583,36.471,36.471,0,0,1-9.715,19.189c-5.2,5.09-12.733,8.033-19.88,6.727s-14.384-8.033-15.015-15.285" transform="translate(-322.76 -389.36)"/>
      </g>
      <g id="Group_285" data-name="Group 285" transform="translate(249.698 298.88)" opacity="0.3">
        <path id="Path_3627" data-name="Path 3627" d="M371.06,381.09a32.267,32.267,0,0,1,4.5,24.2c6.2-9.489,7.658-21.5,6.006-32.717s-6.231-21.8-11.306-31.937c0,0-5.586,9.459-5.646,10.51-.27,5.465,1.742,15.736,2.793,21.1a11.726,11.726,0,0,1,3.408,10.6" transform="translate(-364.594 -340.64)"/>
      </g>
      <g id="Group_286" data-name="Group 286" transform="translate(211.75 301.672)" opacity="0.3">
        <path id="Path_3628" data-name="Path 3628" d="M339.32,462.769c14.925,11.637,37.072,12.177,53.393,2.628,15.721-9.2,25.405-25.781,34.384-41.621,13.919-24.534,30.886-54.879,40.826-81.276,0,0-27.853,38-36.246,54.384a270.347,270.347,0,0,1-19.009,31.952,81.922,81.922,0,0,1-71.891,35.03" transform="translate(-339.32 -342.5)"/>
      </g>
      <path id="Path_3629" data-name="Path 3629" d="M326.777,480.178a1.5,1.5,0,0,1,0-.465v-1.366c0-1.276.105-3,.2-5.21.21-4.5.5-10.961.856-18.663v.18c-2.688-9.009-5.841-19.94-9.114-31.742-4.324-15.646-7.973-29.88-10.435-40.225-1.216-5.165-2.177-9.369-2.778-12.282-.285-1.4-.51-2.522-.676-3.348a10.016,10.016,0,0,1-.2-1.186,6.144,6.144,0,0,1,.345,1.141l.826,3.333c.736,3,1.757,7.117,3,12.207,2.6,10.315,6.336,24.519,10.661,40.15,3.258,11.8,6.366,22.733,9.009,31.756v.105c-.465,7.7-.856,14.114-1.141,18.679-.15,2.177-.27,3.919-.36,5.2a13.257,13.257,0,0,1-.12,1.351A1.578,1.578,0,0,1,326.777,480.178Z" transform="translate(-144.967 -29.108)" fill="#263238"/>
      <path id="Path_3630" data-name="Path 3630" d="M434.774,284.594c0,.12-1.622-.45-4.219-1.1A50.9,50.9,0,0,0,420.21,282a49.817,49.817,0,0,0-10.42.811c-2.643.5-4.249.946-4.279.826a3.872,3.872,0,0,1,1.081-.48,30.949,30.949,0,0,1,3.078-.886,40.872,40.872,0,0,1,10.51-1.051,41.484,41.484,0,0,1,10.51,1.682,25.526,25.526,0,0,1,3,1.081C434.444,284.354,434.774,284.534,434.774,284.594Z" transform="translate(-94.376 -71.57)" fill="#263238"/>
      <path id="Path_3631" data-name="Path 3631" d="M407.522,265a4.413,4.413,0,0,1-.405.781l-1.276,2.147c-1.126,1.862-2.793,4.5-4.91,7.793-4.249,6.5-10.33,15.375-17.522,24.8-5.781,7.613-11.381,14.444-15.961,19.79l-.33.375-.2-.45c-2.192-4.775-3.994-8.739-5.3-11.607-.586-1.321-1.051-2.4-1.426-3.228a6.008,6.008,0,0,1-.435-1.156,6.149,6.149,0,0,1,.616,1.081c.405.811.916,1.862,1.577,3.153,1.366,2.838,3.258,6.757,5.525,11.5l-.51-.075c4.5-5.405,10.045-12.252,15.826-19.85,7.177-9.429,13.3-18.228,17.673-24.654l5.12-7.643,1.4-2.072a3.315,3.315,0,0,1,.541-.691Z" transform="translate(-117.319 -79.693)" fill="#263238"/>
      <path id="Path_3632" data-name="Path 3632" d="M415.894,437.869c-.225,0,.465-7.823,1.5-17.417s2.1-17.342,2.312-17.312-.48,7.808-1.5,17.4S416.074,437.885,415.894,437.869Z" transform="translate(-89.19 -10.417)" fill="#263238"/>
      <path id="Path_3633" data-name="Path 3633" d="M343.5,424.9a111.841,111.841,0,0,1,1.787,13.093,106.35,106.35,0,0,1,1.006,13.168,115.8,115.8,0,0,1-1.787-13.093A113.835,113.835,0,0,1,343.5,424.9Z" transform="translate(-125.474 0.495)" fill="#263238"/>
      <path id="Path_3634" data-name="Path 3634" d="M398.121,311.18a1.922,1.922,0,0,0-2.913-1.156l-.105.09a1.817,1.817,0,1,0,3,1.066Z" transform="translate(-99.9 -57.27)" fill="#fff"/>
      <path id="Path_3635" data-name="Path 3635" d="M387.686,285.76a1.922,1.922,0,0,0-2.913-1.156l-.09.09a1.817,1.817,0,1,0,3,1.066Z" transform="translate(-105.126 -70.017)" fill="#fff"/>
      <path id="Path_3636" data-name="Path 3636" d="M363.757,306.23a1.922,1.922,0,0,0-2.913-1.156h-.09a1.817,1.817,0,1,0,3,1.081Z" transform="translate(-117.127 -59.752)" fill="#fff"/>
      <path id="Path_3637" data-name="Path 3637" d="M337.886,295.95a1.907,1.907,0,0,0-2.9-1.156l-.105.09a1.817,1.817,0,1,0,3,1.066Z" transform="translate(-130.1 -64.907)" fill="#fff"/>
      <path id="Path_3638" data-name="Path 3638" d="M333.329,285.82a1.922,1.922,0,0,0-2.913-1.156l-.105.09a1.832,1.832,0,1,0,3,1.066Z" transform="translate(-132.405 -69.987)" fill="#fff"/>
      <path id="Path_3639" data-name="Path 3639" d="M335.312,274.12a1.922,1.922,0,0,0-2.913-1.156l-.105.075a1.817,1.817,0,1,0,3,1.081Z" transform="translate(-131.399 -75.855)" fill="#fff"/>
      <path id="Path_3640" data-name="Path 3640" d="M320.982,290.22a1.922,1.922,0,0,0-2.913-1.156l-.105.075a1.817,1.817,0,1,0,3,1.081Z" transform="translate(-138.586 -67.781)" fill="#fff"/>
      <path id="Path_3641" data-name="Path 3641" d="M354.206,294.86a1.907,1.907,0,0,0-2.9-1.156l-.105.09a1.817,1.817,0,1,0,3,1.066Z" transform="translate(-121.915 -65.454)" fill="#fff"/>
      <path id="Path_3642" data-name="Path 3642" d="M326.072,315.73a1.922,1.922,0,0,0-2.913-1.156h-.105a1.817,1.817,0,1,0,3,1.081Z" transform="translate(-136.033 -54.988)" fill="#fff"/>
      <path id="Path_3643" data-name="Path 3643" d="M300.347,375.75a1.922,1.922,0,0,0-2.913-1.156l-.09.075a1.817,1.817,0,1,0,3,1.081Z" transform="translate(-148.926 -24.888)" fill="#fff"/>
      <path id="Path_3644" data-name="Path 3644" d="M309.531,341.13a1.922,1.922,0,0,0-2.913-1.156l-.105.09a1.817,1.817,0,1,0,3,1.066Z" transform="translate(-144.327 -42.25)" fill="#fff"/>
      <path id="Path_3645" data-name="Path 3645" d="M377.212,280.35a1.922,1.922,0,0,0-2.913-1.156l-.105.075a1.817,1.817,0,1,0,3,1.081Z" transform="translate(-110.387 -72.731)" fill="#fff"/>
      <path id="Path_3646" data-name="Path 3646" d="M409.459,349.27a1.922,1.922,0,0,0-2.913-1.156l-.105.09a1.832,1.832,0,1,0,3,1.066Z" transform="translate(-94.227 -38.168)" fill="#fff"/>
      <path id="Path_3647" data-name="Path 3647" d="M422.017,289.96a1.907,1.907,0,0,0-2.9-1.156l-.105.075a1.817,1.817,0,1,0,3,1.081Z" transform="translate(-87.91 -67.911)" fill="#fff"/>
      <path id="Path_3648" data-name="Path 3648" d="M417.1,328.8a1.922,1.922,0,0,0-2.913-1.156l-.105.09a1.832,1.832,0,1,0,3,1.066Z" transform="translate(-90.395 -48.433)" fill="#fff"/>
      <path id="Path_3649" data-name="Path 3649" d="M388.881,356.85a1.922,1.922,0,0,0-2.913-1.156l-.105.09a1.817,1.817,0,1,0,3,1.066Z" transform="translate(-104.534 -34.367)" fill="#fff"/>
      <path id="Path_3650" data-name="Path 3650" d="M390.079,333.49a1.922,1.922,0,0,0-2.913-1.156l-.105.09a1.832,1.832,0,1,0,3,1.066Z" transform="translate(-103.945 -46.081)" fill="#fff"/>
      <path id="Path_3651" data-name="Path 3651" d="M407.076,290.16a1.907,1.907,0,0,0-2.9-1.156l-.105.09a1.817,1.817,0,1,0,3,1.066Z" transform="translate(-95.402 -67.811)" fill="#fff"/>
      <path id="Path_3652" data-name="Path 3652" d="M384.207,267.54a1.907,1.907,0,0,0-2.9-1.156l-.105.075a1.817,1.817,0,1,0,3,1.081Z" transform="translate(-106.871 -79.155)" fill="#fff"/>
      <path id="Path_3653" data-name="Path 3653" d="M383.337,304.013a1.907,1.907,0,0,0-2.913-1.156l-.09.075a1.817,1.817,0,1,0,3,1.081Z" transform="translate(-107.308 -60.868)" fill="#fff"/>
      <path id="Path_3654" data-name="Path 3654" d="M354.077,415.249a1.907,1.907,0,0,0-2.838-1.156l-.105.075a1.817,1.817,0,1,0,3,1.081Z" transform="translate(-121.951 -5.064)" fill="#fff"/>
      <path id="Path_3655" data-name="Path 3655" d="M320.551,396.96a1.922,1.922,0,0,0-2.913-1.156l-.105.09a1.817,1.817,0,1,0,3,1.066Z" transform="translate(-138.801 -14.252)" fill="#fff"/>
      <path id="Path_3656" data-name="Path 3656" d="M293.417,405.93a1.922,1.922,0,0,0-2.913-1.156l-.09.075a1.817,1.817,0,1,0,3,1.081Z" transform="translate(-152.402 -9.753)" fill="#fff"/>
      <path id="Path_3657" data-name="Path 3657" d="M290.522,421.38a1.922,1.922,0,0,0-2.913-1.156l-.105.075a1.817,1.817,0,1,0,3,1.081Z" transform="translate(-153.861 -2.005)" fill="#fff"/>
      <path id="Path_3658" data-name="Path 3658" d="M315.946,426.55a1.922,1.922,0,0,0-2.913-1.156l-.09.09a1.817,1.817,0,1,0,3,1.066Z" transform="translate(-141.102 0.587)" fill="#fff"/>
      <path id="Path_3659" data-name="Path 3659" d="M307.459,391.95a1.922,1.922,0,0,0-2.913-1.156l-.105.09a1.832,1.832,0,1,0,3,1.066Z" transform="translate(-145.379 -16.764)" fill="#fff"/>
      <path id="Path_3660" data-name="Path 3660" d="M338.647,400.753a1.907,1.907,0,0,0-2.913-1.156l-.09.075a1.817,1.817,0,1,0,3,1.081Z" transform="translate(-129.719 -12.354)" fill="#fff"/>
      <path id="Path_3661" data-name="Path 3661" d="M412.817,391.9a1.892,1.892,0,0,0-2.9-1.156l-.105.075a1.817,1.817,0,1,0,3,1.081Z" transform="translate(-92.524 -16.793)" fill="#fff"/>
      <path id="Path_3662" data-name="Path 3662" d="M366.931,435.87a1.922,1.922,0,0,0-2.913-1.156l-.105.09a1.817,1.817,0,1,0,3,1.066Z" transform="translate(-115.541 5.261)" fill="#fff"/>
      <path id="Path_3663" data-name="Path 3663" d="M386.5,411.39a1.907,1.907,0,0,0-2.9-1.156l-.105.09a1.817,1.817,0,1,0,3,1.066Z" transform="translate(-105.722 -7.016)" fill="#fff"/>
      <path id="Path_3664" data-name="Path 3664" d="M398.116,431.311a1.922,1.922,0,0,0-2.883-1.216l-.09.09a1.817,1.817,0,1,0,3,1.066Z" transform="translate(-99.88 2.957)" fill="#fff"/>
      <path id="Path_3665" data-name="Path 3665" d="M365.781,327.039a1.922,1.922,0,0,0-2.913-1.156l-.105.09a1.817,1.817,0,1,0,3,1.066Z" transform="translate(-116.118 -49.316)" fill="#fff"/>
      <path id="Path_3666" data-name="Path 3666" d="M392.112,377.87a1.922,1.922,0,0,0-2.913-1.156l-.105.075a1.817,1.817,0,1,0,3,1.081Z" transform="translate(-102.915 -23.825)" fill="#fff"/>
      <path id="Path_3667" data-name="Path 3667" d="M383.572,397.12a1.922,1.922,0,0,0-2.913-1.156l-.105.075a1.817,1.817,0,1,0,3,1.081Z" transform="translate(-107.197 -14.172)" fill="#fff"/>
      <path id="Path_3668" data-name="Path 3668" d="M411.641,412.579a1.922,1.922,0,0,0-2.913-1.156l-.105.09a1.817,1.817,0,1,0,3,1.066Z" transform="translate(-93.12 -6.419)" fill="#fff"/>
      <path id="Path_3669" data-name="Path 3669" d="M334.832,434.913a1.907,1.907,0,0,0-2.913-1.156l-.105.075a1.817,1.817,0,1,0,3,1.081Z" transform="translate(-131.64 4.777)" fill="#fff"/>
      <path id="Path_3670" data-name="Path 3670" d="M270.839,429.06a1.922,1.922,0,0,0-2.913-1.156l-.105.09a1.832,1.832,0,1,0,3,1.066Z" transform="translate(-163.743 1.846)" fill="#fff"/>
      <path id="Path_3671" data-name="Path 3671" d="M327.219,418.55a1.922,1.922,0,0,0-2.913-1.156l-.105.09a1.832,1.832,0,1,0,3,1.066Z" transform="translate(-135.469 -3.425)" fill="#fff"/>
      <path id="Path_3672" data-name="Path 3672" d="M273.207,407.123a1.907,1.907,0,0,0-2.913-1.156l-.09.075a1.817,1.817,0,1,0,3,1.081Z" transform="translate(-162.537 -9.16)" fill="#fff"/>
      <path id="Path_3673" data-name="Path 3673" d="M363.412,370.82a1.922,1.922,0,0,0-2.913-1.156l-.105.075a1.817,1.817,0,1,0,3,1.081Z" transform="translate(-117.307 -27.361)" fill="#fff"/>
      <path id="Path_3674" data-name="Path 3674" d="M344.532,315.73a1.922,1.922,0,0,0-2.913-1.156h-.105a1.817,1.817,0,1,0,3,1.081Z" transform="translate(-126.776 -54.988)" fill="#fff"/>
      <path id="Path_3675" data-name="Path 3675" d="M339.806,363.49a1.922,1.922,0,0,0-2.913-1.156l-.09.09a1.817,1.817,0,1,0,3,1.066Z" transform="translate(-129.137 -31.037)" fill="#fff"/>
      <path id="Path_3676" data-name="Path 3676" d="M332.127,347.919a1.922,1.922,0,0,0-2.913-1.156h-.09a1.817,1.817,0,1,0,3,1.081Z" transform="translate(-132.989 -38.845)" fill="#fff"/>
      <path id="Path_3677" data-name="Path 3677" d="M366.109,396.9a1.922,1.922,0,0,0-2.913-1.156l-.105.09a1.832,1.832,0,1,0,3,1.066Z" transform="translate(-115.966 -14.282)" fill="#fff"/>
      <path id="Path_3678" data-name="Path 3678" d="M342.151,387.306a1.907,1.907,0,0,0-2.913-1.2l-.105.09a1.817,1.817,0,1,0,3,1.066Z" transform="translate(-127.968 -19.117)" fill="#fff"/>
      <path id="Path_3679" data-name="Path 3679" d="M352.4,334.54a1.907,1.907,0,0,0-2.9-1.156l-.105.075a1.817,1.817,0,1,0,3,1.081Z" transform="translate(-122.824 -45.555)" fill="#fff"/>
      <path id="Path_3680" data-name="Path 3680" d="M315.946,371.889a1.922,1.922,0,0,0-2.913-1.156l-.09.09a1.817,1.817,0,1,0,3,1.066Z" transform="translate(-141.102 -26.824)" fill="#fff"/>
      <path id="Path_3681" data-name="Path 3681" d="M372.212,354.75a1.922,1.922,0,0,0-2.913-1.156l-.105.075a1.817,1.817,0,1,0,3,1.081Z" transform="translate(-112.894 -35.42)" fill="#fff"/>
      <path id="Path_3682" data-name="Path 3682" d="M424.4,309.99a1.922,1.922,0,0,0-2.913-1.156l-.105.09a1.817,1.817,0,1,0,3,1.066Z" transform="translate(-86.721 -57.866)" fill="#fff"/>
      <path id="Path_3683" data-name="Path 3683" d="M403.211,276.1a1.922,1.922,0,0,0-2.913-1.156l-.105.09a1.817,1.817,0,1,0,3,1.066Z" transform="translate(-97.347 -74.862)" fill="#fff"/>
      <path id="Path_3684" data-name="Path 3684" d="M362.152,280.35a1.922,1.922,0,0,0-2.913-1.156l-.105.075a1.817,1.817,0,1,0,3,1.081Z" transform="translate(-117.939 -72.731)" fill="#fff"/>
      <path id="Path_3685" data-name="Path 3685" d="M326.707,158.21c-11.817,7.507-16.516,23.288-14.294,32.612,1.141,4.7,3.273,9.429,2.342,14.159-.8,4.1-3.754,7.387-6.006,10.931a32.913,32.913,0,0,0,41.141,47.537" transform="translate(-145.392 -133.247)" fill="#263238"/>
      <path id="Path_3686" data-name="Path 3686" d="M316.687,228.093c-28.769-63.273,39.669-95.059,77-84.519,35.09,9.91,50.06,27.372,55.84,50.84s5.5,48.919-3.709,71.276c-4.5,11.021-12.7,22.222-24.549,23.6" transform="translate(-142.369 -141.585)" fill="#263238"/>
      <path id="Path_3687" data-name="Path 3687" d="M348.188,375.642c-.5-30.24-.856-71.756-.856-71.591s-25.931-4.309-31.381-38.183c-2.673-16.862-1.817-44.5-.405-67.1,1.291-20.345,14.76-45.3,35.03-43.153L413.863,171.6a11.907,11.907,0,0,1,10.661,12.1h0l-4.114,130.885" transform="translate(-140.161 -134.614)" fill="#ffbe9d"/>
      <path id="Path_3688" data-name="Path 3688" d="M322.64,199.374a4.309,4.309,0,0,0,4.114,4.4,4.129,4.129,0,0,0,4.5-3.844,4.339,4.339,0,0,0-4.114-4.414,4.144,4.144,0,0,0-4.5,3.859Z" transform="translate(-135.935 -114.547)" fill="#263238"/>
      <path id="Path_3689" data-name="Path 3689" d="M352.56,199.375a4.309,4.309,0,0,0,4.114,4.384,4.129,4.129,0,0,0,4.5-3.844,4.309,4.309,0,0,0-4.114-4.4,4.129,4.129,0,0,0-4.5,3.859Z" transform="translate(-120.93 -114.548)" fill="#263238"/>
      <path id="Path_3690" data-name="Path 3690" d="M319.541,194.232c.526.586,3.9-1.742,8.574-1.5s8.018,2.613,8.558,2.057c.255-.24-.27-1.276-1.727-2.417a11.862,11.862,0,0,0-6.817-2.357,11.5,11.5,0,0,0-6.847,1.967C319.811,193,319.285,193.961,319.541,194.232Z" transform="translate(-137.52 -117.302)" fill="#263238"/>
      <path id="Path_3691" data-name="Path 3691" d="M349.124,195.1c.541.571,3.829-1.892,8.5-1.892s8.123,2.312,8.619,1.742c.255-.255-.3-1.276-1.8-2.357a11.861,11.861,0,0,0-6.907-2.1,11.382,11.382,0,0,0-6.757,2.223C349.334,193.824,348.854,194.845,349.124,195.1Z" transform="translate(-122.689 -117.059)" fill="#263238"/>
      <path id="Path_3692" data-name="Path 3692" d="M342.382,230.585c0-.27-2.883-.766-7.6-1.381-1.2-.12-2.327-.36-2.522-1.171a6.006,6.006,0,0,1,.8-3.544c1.111-2.883,2.3-5.916,3.529-9.1,4.91-12.943,8.453-23.6,7.928-23.8s-4.925,10.15-9.82,23.108l-3.393,9.159a6.877,6.877,0,0,0-.616,4.685,3,3,0,0,0,1.967,1.742,7.63,7.63,0,0,0,2.027.285C339.424,230.825,342.367,230.84,342.382,230.585Z" transform="translate(-131.983 -116.508)" fill="#263238"/>
      <path id="Path_3693" data-name="Path 3693" d="M336.27,258.472a86.291,86.291,0,0,0,45.405-12.1S370.2,269.943,336.27,266.775Z" transform="translate(-129.099 -89.036)" fill="#eb996e"/>
      <path id="Path_3694" data-name="Path 3694" d="M348.339,190.311c.45,1.276,5.135.661,10.616,1.336s9.925,2.147,10.661,1.006c.33-.541-.45-1.742-2.237-3a18.634,18.634,0,0,0-16.216-1.787C349.15,188.7,348.129,189.71,348.339,190.311Z" transform="translate(-123.061 -118.922)" fill="#263238"/>
      <path id="Path_3695" data-name="Path 3695" d="M320.28,186.619c.826,1.066,4.054,0,7.928-.09s7.162.721,7.913-.39c.33-.541-.18-1.607-1.622-2.613a10.961,10.961,0,0,0-6.441-1.742,11.081,11.081,0,0,0-6.321,2.132C320.37,184.982,319.919,186.078,320.28,186.619Z" transform="translate(-137.178 -121.431)" fill="#263238"/>
      <path id="Path_3696" data-name="Path 3696" d="M384.447,204.559c.5-.24,18.153-8.048,18.363,12.252s-20.225,16.321-20.27,15.736S384.447,204.559,384.447,204.559Z" transform="translate(-105.896 -110.843)" fill="#ffbe9d"/>
      <path id="Path_3697" data-name="Path 3697" d="M386.625,222.848c.09,0,.36.24.961.51a3.574,3.574,0,0,0,2.643,0c2.132-.811,3.9-4.234,3.964-7.9a11.367,11.367,0,0,0-1.036-5.045,4.054,4.054,0,0,0-2.688-2.688,1.787,1.787,0,0,0-2.072.991c-.27.571-.135.976-.24,1.006s-.45-.33-.285-1.171a2.236,2.236,0,0,1,.781-1.276,2.643,2.643,0,0,1,1.952-.541,4.97,4.97,0,0,1,3.724,3.108,12.013,12.013,0,0,1,1.291,5.646c-.09,4.084-2.147,7.943-5.075,8.814a3.814,3.814,0,0,1-3.243-.5C386.67,223.343,386.565,222.878,386.625,222.848Z" transform="translate(-103.854 -108.922)" fill="#eb996e"/>
      <path id="Path_3698" data-name="Path 3698" d="M338.3,148.88c-11.291,5.841-15.946,28.934-11.276,40.765s17.267,17.6,29.684,20.315,24.594,3,36.847-.36c.841,8.228,5.781,16.682,13.769,18.859,10.585,2.868,21.246-6.817,23.6-17.522s-1.186-21.727-4.67-32.132" transform="translate(-134.64 -137.926)" fill="#263238"/>
      <path id="Path_3699" data-name="Path 3699" d="M405.716,202.825a14.7,14.7,0,0,1-1.577,1.5,53.019,53.019,0,0,1-4.67,3.529,28.886,28.886,0,0,1-7.9,3.829,17.071,17.071,0,0,1-10.766-.165,16.652,16.652,0,0,1-8.153-7.042,22.628,22.628,0,0,1-2.928-8.288,30.237,30.237,0,0,1-.315-5.886,6.562,6.562,0,0,1,.255-2.132c.225,0,0,3.078.871,7.868a23.3,23.3,0,0,0,3,7.868,16.021,16.021,0,0,0,7.643,6.516,16.426,16.426,0,0,0,10.075.21,30.36,30.36,0,0,0,7.733-3.468C403.163,204.551,405.6,202.659,405.716,202.825Z" transform="translate(-112.495 -118.223)" fill="#263238"/>
      <path id="Path_3700" data-name="Path 3700" d="M339.541,227.866a19.185,19.185,0,0,0,2.522,4.94,6.546,6.546,0,0,0,4.67,2.718,6.006,6.006,0,0,0,4.985-2.718,9.475,9.475,0,0,0,1.381-5.676c-.075-1.787-.9-3.919-2.673-4.129a4.355,4.355,0,0,0-2.147.48l-9.339,3.784" transform="translate(-127.76 -100.757)" fill="#eb996e"/>
      <path id="Path_3701" data-name="Path 3701" d="M343.847,235.881c0-.285,2.1.541,4.985-.616a7.087,7.087,0,0,0,3.769-3.408,7.507,7.507,0,0,0,.12-6.111,7.072,7.072,0,0,0-.811-1.4c-.375-.39-.315-.375-.706-.315a9.837,9.837,0,0,0-1.5.586l-1.5.631c-2,.811-3.814,1.5-5.33,2.087-3,1.141-5,1.742-5.09,1.5s1.682-1.2,4.625-2.613c1.5-.706,3.228-1.5,5.2-2.417l1.5-.676c.556-.225.961-.465,1.712-.706a2.193,2.193,0,0,1,1.381,0,2.553,2.553,0,0,1,1.036.811,8.543,8.543,0,0,1,.766,9.234,7.913,7.913,0,0,1-4.745,3.829,7.4,7.4,0,0,1-4.039.165C344.253,236.3,343.817,235.986,343.847,235.881Z" transform="translate(-128.343 -101.099)" fill="#263238"/>
      <path id="Path_3702" data-name="Path 3702" d="M404.877,194.732c-2.072-.15-18.844,2.027-17.522,33.183,1.231,29.114,21.651,22.7,28.168,11.742C421.649,229.281,425.222,196.159,404.877,194.732Z" transform="translate(-103.518 -114.935)" fill="#455a64"/>
      <path id="Path_3703" data-name="Path 3703" d="M413.106,211.563a5.062,5.062,0,0,1-.075-.811c0-.616,0-1.4-.09-2.387,0-2.147-.15-5.15-.255-8.874-.15-7.643-.36-18.288-.616-30.555l.375.36h-8.634l.39-.39c0,2.312.12,4.76.2,7.252.285,11.682.556,22.522.781,31.7v.27h-.255a15.631,15.631,0,0,0-8.9,5.736,21.021,21.021,0,0,0-3.559,7.508,33.115,33.115,0,0,0-.916,5.33c0,.616-.075,1.1-.09,1.411a4.213,4.213,0,0,0,0,.5,2.089,2.089,0,0,1,0-.5v-1.426a27.924,27.924,0,0,1,.751-5.405,21.021,21.021,0,0,1,3.5-7.748,16.186,16.186,0,0,1,9.174-6.006l-.255.33c-.255-9.114-.571-20-.9-31.7-.075-2.477-.135-4.925-.2-7.252V168.5h9.414v.375c.135,12.282.255,22.913.345,30.57v11.246A3.233,3.233,0,0,1,413.106,211.563Z" transform="translate(-101.432 -128.087)" fill="#455a64"/>
      <path id="Path_3704" data-name="Path 3704" d="M417.264,182.266s-8.769-20.51-29.654-30.645a124.876,124.876,0,0,0-25.03-9.279s12.192-2.883,31.907,5.886c9.009,3.994,18.018,9.174,24.024,16.967,3.784,4.94,8.528,14.594,8.513,17.072Z" transform="translate(-115.905 -141.433)" fill="#455a64"/>
      <path id="Path_3705" data-name="Path 3705" d="M363,386.34s.12-.15.375-.405.646-.646,1.126-1.171a55.729,55.729,0,0,0,4.054-4.8,78.477,78.477,0,0,0,5.48-8.408c1.952-3.408,3.994-7.432,6.2-11.922,4.429-9.009,9.549-19.85,14.865-32.312,2.643-6.231,5.345-12.853,8.048-19.835l2.012-5.285a30.689,30.689,0,0,1,2.417-5.33,11.021,11.021,0,0,1,4.354-4.144,6.185,6.185,0,0,1,3-.766,3.107,3.107,0,0,1,1.591.571,3.408,3.408,0,0,1,1.006,1.351v.225a5.2,5.2,0,0,1-.811,2,3.153,3.153,0,0,1-1.877,1.231,6.8,6.8,0,0,1-4.189-.766,6.637,6.637,0,0,1-3.709-7.282,5.841,5.841,0,0,1,2.447-3.664,6.817,6.817,0,0,1,4.264-1.216,4.7,4.7,0,0,1,3.934,2.177,2.267,2.267,0,0,1-.15,2.447,4.325,4.325,0,0,1-1.907,1.381,6.261,6.261,0,0,1-7.192-2.042,5.27,5.27,0,0,1-.976-3.784,6.5,6.5,0,0,1,1.5-3.543,5.435,5.435,0,0,1,3.378-1.862,4.324,4.324,0,0,1,3.649,1.261,2.7,2.7,0,0,1,.721,1.907,2.523,2.523,0,0,1-.871,1.847,4.2,4.2,0,0,1-3.664.991,4.609,4.609,0,0,1-2.928-2.342,9.654,9.654,0,0,1-1.1-3.468,12.282,12.282,0,0,1,.8-7,5.21,5.21,0,0,1,2.568-2.538,4.7,4.7,0,0,1,3.559.12,3.378,3.378,0,0,1,2.207,2.778,3.093,3.093,0,0,1-1.907,3,3.783,3.783,0,0,1-3.453,0,4.774,4.774,0,0,1-2.147-2.643,6.592,6.592,0,0,1-.2-3.273,14.894,14.894,0,0,1,.691-3.123,5.721,5.721,0,0,1,1.817-2.658,7.281,7.281,0,0,1,2.838-1.4,3,3,0,0,1,1.652,0,3.5,3.5,0,0,1,1.366.871,3.933,3.933,0,0,1,.886,1.321,2.207,2.207,0,0,1,0,1.667,2.7,2.7,0,0,1-2.688,1.5,4.894,4.894,0,0,1-2.823-.946,7.748,7.748,0,0,1-3-4.73,7.973,7.973,0,0,1,.826-5.5,6.082,6.082,0,0,1,1.7-2.057,5.481,5.481,0,0,1,2.387-1.036,3.859,3.859,0,0,1,2.553.36,2.658,2.658,0,0,1,1.381,2.117,3.739,3.739,0,0,1-2.823,3.6,4.084,4.084,0,0,1-4.084-1.5,6.547,6.547,0,0,1-1.5-3.844,24.023,24.023,0,0,1,1.5-7.177c.616-2.162,1.171-4.144,1.682-5.916,1.006-3.529,1.787-6.276,2.342-8.168.255-.916.465-1.622.616-2.117s.24-.721.24-.721a2.553,2.553,0,0,1-.165.736c-.165.48-.315,1.231-.541,2.147-.51,1.907-1.261,4.67-2.207,8.2l-1.607,5.931c-.511,2.177-1.5,4.5-1.4,7.057a6.246,6.246,0,0,0,1.5,3.574,3.649,3.649,0,0,0,3.6,1.351,3.243,3.243,0,0,0,2.432-3,2.148,2.148,0,0,0-1.111-1.7,3.409,3.409,0,0,0-2.192-.285,4.91,4.91,0,0,0-2.162.946,5.645,5.645,0,0,0-1.5,1.877,7.507,7.507,0,0,0-.556,4.955,7.177,7.177,0,0,0,2.793,4.339,4.4,4.4,0,0,0,2.462.826,2.057,2.057,0,0,0,2.072-1.1,2.3,2.3,0,0,0-.8-2.282,3,3,0,0,0-1.1-.706,2.581,2.581,0,0,0-1.306,0,5.706,5.706,0,0,0-4.159,3.649,13.645,13.645,0,0,0-.646,3,5.842,5.842,0,0,0,.18,3,3.949,3.949,0,0,0,1.8,2.237,3.138,3.138,0,0,0,2.808,0,2.357,2.357,0,0,0,1.5-2.237A2.658,2.658,0,0,0,415,270.755a4.084,4.084,0,0,0-3-.105,4.5,4.5,0,0,0-2.177,2.177,11.666,11.666,0,0,0-.706,6.561,9.01,9.01,0,0,0,1.006,3.2,3.873,3.873,0,0,0,2.417,1.967,3.423,3.423,0,0,0,3-.8,1.862,1.862,0,0,0,.105-2.688,3.589,3.589,0,0,0-3-1.006,4.61,4.61,0,0,0-2.883,1.622,5.165,5.165,0,0,0-.54,6.351,5.51,5.51,0,0,0,6.276,1.772,3.738,3.738,0,0,0,1.5-1.126,1.5,1.5,0,0,0,.09-1.621A3.949,3.949,0,0,0,413.8,285.3a5.631,5.631,0,0,0-5.9,4.249,5.8,5.8,0,0,0,3.153,6.321,5.9,5.9,0,0,0,3.679.721,3,3,0,0,0,2.1-2.628v.225a2.252,2.252,0,0,0-1.967-1.5,5.361,5.361,0,0,0-2.658.691,10.209,10.209,0,0,0-4.069,3.874,29.329,29.329,0,0,0-2.357,5.18l-2.042,5.3c-2.7,6.967-5.435,13.513-8.108,19.82-5.345,12.462-10.51,23.333-15.015,32.282-2.237,4.5-4.309,8.483-6.306,11.892a77.015,77.015,0,0,1-5.6,8.363A39.478,39.478,0,0,1,363,386.34Z" transform="translate(-115.695 -97.055)" fill="#fff"/>
      <path id="Path_3706" data-name="Path 3706" d="M451.9,200.19a19.693,19.693,0,0,0-1.366-5.555,21.877,21.877,0,0,0-10.781-10.8,29.114,29.114,0,0,0-10.39-2.538,48.889,48.889,0,0,0-12.327.931c-8.6,1.592-17.643,5.3-27.763,6.832a56.605,56.605,0,0,1-14.865,0,59.817,59.817,0,0,1-13.363-3.634,58.978,58.978,0,0,1-19.519-12.853,52.551,52.551,0,0,1-9.429-12.612,17.858,17.858,0,0,1-1.111-2.207l-.721-1.667c-.18-.405-.315-.751-.436-1.021a1.293,1.293,0,0,1-.12-.36,1.5,1.5,0,0,1,.2.33l.5.991.8,1.622a18.817,18.817,0,0,0,1.171,2.177,54.669,54.669,0,0,0,9.549,12.357A58.558,58.558,0,0,0,374.454,188.3a55.662,55.662,0,0,0,14.655,0c9.985-1.5,19.039-5.2,27.748-6.757a49.188,49.188,0,0,1,12.492-.871,29.2,29.2,0,0,1,10.585,2.688,21.907,21.907,0,0,1,10.826,11.171A16.386,16.386,0,0,1,451.8,198.7v1.111A1.293,1.293,0,0,1,451.9,200.19Z" transform="translate(-132.389 -135.002)" fill="#455a64"/>
      <path id="Path_3707" data-name="Path 3707" d="M429.661,169.237a7.308,7.308,0,0,1-1.081.18c-.706.105-1.757.255-3.093.5-2.673.435-6.5,1.291-11.216,2.462a119.338,119.338,0,0,1-16.8,3.258,84.426,84.426,0,0,1-20.931-.465,88.587,88.587,0,0,1-20.225-5.435,85.586,85.586,0,0,1-15.24-7.883c-2.012-1.366-3.814-2.628-5.345-3.829s-2.823-2.237-3.814-3.168l-2.282-2.147c-.511-.5-.781-.766-.751-.8a5.868,5.868,0,0,1,.856.676l2.372,2.027c1.021.9,2.387,1.862,3.889,3s3.363,2.387,5.375,3.709A90.584,90.584,0,0,0,376.6,174.342a86.172,86.172,0,0,0,20.766.51,122.655,122.655,0,0,0,16.727-3c4.73-1.1,8.6-1.877,11.306-2.237,1.351-.18,2.4-.285,3.123-.33a5.529,5.529,0,0,1,1.141-.045Z" transform="translate(-132.806 -136.407)" fill="#455a64"/>
      <path id="Path_3708" data-name="Path 3708" d="M400.636,247.975a2.868,2.868,0,0,1-.586-.18,9.553,9.553,0,0,1-1.5-.8,13.784,13.784,0,0,1-4.4-4.685,22.628,22.628,0,0,1-2.7-9.144,65.58,65.58,0,0,1,0-11.652,70.994,70.994,0,0,1,1.922-11.486,33.14,33.14,0,0,1,3.348-8.9,13.754,13.754,0,0,1,4.5-4.67,8.231,8.231,0,0,1,1.5-.781c.375-.135.586-.2.586-.165a18.287,18.287,0,0,0-1.982,1.2,14.4,14.4,0,0,0-4.114,4.685,33.787,33.787,0,0,0-3.123,8.814,75.066,75.066,0,0,0-1.862,11.381,70.2,70.2,0,0,0,0,11.5,22.838,22.838,0,0,0,2.462,9.009,14.054,14.054,0,0,0,4.084,4.715C399.915,247.614,400.681,247.9,400.636,247.975Z" transform="translate(-101.559 -114.544)" fill="#263238"/>
      <rect id="Rectangle_322" data-name="Rectangle 322" width="24.264" height="9.144" rx="2.85" transform="translate(211.932 132.639) rotate(-11.1)" fill="#455a64"/>
      <path id="Path_3709" data-name="Path 3709" d="M354.47,236.394l71.246-22.342a3.363,3.363,0,0,1,4.2,2.177h0a3.378,3.378,0,0,1-2.327,4.279l-72.852,19.67Z" transform="translate(-119.972 -105.321)" fill="#455a64"/>
      <path id="Path_3710" data-name="Path 3710" d="M393.823,226.523a15.946,15.946,0,0,1,2.357-.826l6.516-1.982c2.733-.841,6.1-1.742,9.64-2.9a6.456,6.456,0,0,0,2.327-1.5,3.513,3.513,0,0,0,1.006-2.477,2.162,2.162,0,0,0-1.5-2.042,5.451,5.451,0,0,0-3,.09L389.8,221.764l-6.5,2.012a14.886,14.886,0,0,1-2.3.736,16.071,16.071,0,0,1,2.327-.916l6.426-2.252c5.45-1.847,12.928-4.414,21.336-7.1a6.156,6.156,0,0,1,3.423,0A3,3,0,0,1,416.5,217a4.264,4.264,0,0,1-1.231,3,7.208,7.208,0,0,1-2.733,1.5c-3.679,1.156-6.967,1.967-9.745,2.748l-6.516,1.757A13.318,13.318,0,0,1,393.823,226.523Z" transform="translate(-106.668 -105.27)" fill="#263238"/>
      <path id="Path_3711" data-name="Path 3711" d="M323.93,186c2.432,8.558-6.261,15.9-9.324,24.264-3,8.078-.45,17.132,3.2,24.94s8.453,15.2,10.315,23.588c4.61,20.721-14.129,43.048-10.51,63.963,1.291,7.628,4.369,15.585,7.027,22.838a30.179,30.179,0,0,1,0,21.216c-4.054,12.012-10.931,17.643-15.766,29.324-2.477,6.006-2.282,12.673-2.162,19.129s.09,13.213-2.793,19.009-9.459,10.27-15.706,8.589a23.018,23.018,0,0,0,27.507,5.24c8.213-4.384,12.808-13.273,16.742-21.711C351.5,385.533,361.573,382.079,360.987,337c0-2.9-.571-48.048-.571-48.048a45.044,45.044,0,0,1-11.246-4.73c-21.261-14.685-22.042-40.841-21.877-61.126" transform="translate(-153.201 -119.311)" fill="#263238"/>
      <path id="Path_3712" data-name="Path 3712" d="M347.511,277.08v17.012S334.433,360.833,330.5,397.9s-4.58,46.861-4.58,46.861,9.384,14.64,29.009-10.225,23.123-28.784,30.976-29.219c0,0-9.595-104.248-9.159-108.107a15.751,15.751,0,0,1,3.483-7.417Z" transform="translate(-134.29 -73.635)" fill="#ffbe9d"/>
      <path id="Path_3713" data-name="Path 3713" d="M366.036,268.723s-21.366,28.348-23.108,32.252-2.628,6.1-2.628,6.1l32.717,12.658,31.847-34.895,11.772-30.976-3.5-36.636s-6.967-.435-8.273,5.676a45.9,45.9,0,0,0-.886,11.772l-9.76-7.853-15.751-4.79s-3.709,6.1,2.4,9.159,7.853,3,7.853,3l5.5,9.595-2.4,10.751-11.141-10.51a6.351,6.351,0,0,0-8.108-.51l-7.207,5.225-6.742-3-13.078,11.7-5.24,4.79s3.5,6.546,10.51,3.5l6.982-3Z" transform="translate(-127.078 -103.657)" fill="#ffbe9d"/>
      <path id="Path_3714" data-name="Path 3714" d="M340.45,313.008a7.045,7.045,0,0,1,0-.916,25.414,25.414,0,0,1,.21-2.658,31.262,31.262,0,0,1,.826-4.279,18.979,18.979,0,0,1,2.282-5.5c4.895-7.507,12.6-18.018,22.207-30.946v.39l-8.288-6.1h.285l-4.309,1.907a29.823,29.823,0,0,1-4.595,1.787,7.507,7.507,0,0,1-5.1-.586,9.4,9.4,0,0,1-3.844-3.664l-.12-.21.2-.18c5.616-5.285,11.877-10.616,18.3-16.321l.2-.165.21.12,5.811,3.438h-.375l6.787-4.5c1.186-.766,2.252-1.5,3.528-2.282a4.234,4.234,0,0,1,4.384.375l13.228,11.186-.616.21c.721-3.228,1.5-6.727,2.282-10.255v.27l-5.5-9.594.345.2a10.947,10.947,0,0,1-2.718-.736c-.856-.315-1.712-.676-2.568-1.051s-1.7-.8-2.538-1.2c-.435-.21-.856-.5-1.276-.736a7.938,7.938,0,0,1-1.141-.991,5.525,5.525,0,0,1-1.5-4.009,8.844,8.844,0,0,1,1.156-4.084l.15-.255.3.09,15.736,4.8h.075l9.76,7.853-.616.33a46.635,46.635,0,0,1,.826-11.606,7.072,7.072,0,0,1,3.183-4.835,10.12,10.12,0,0,1,5.556-1.4h.405v.33c1.231,13.018,2.387,25.3,3.453,36.636h0v.075c-4.354,11.411-8.318,21.772-11.832,30.946h0L380.54,312.107l-6.7,7.252c-.766.8-1.351,1.426-1.757,1.862l-.616.616s.18-.24.556-.676l1.7-1.907,6.607-7.342,24.534-27.027v.075l11.712-30.991v.15c-1.1-11.336-2.267-23.6-3.529-36.636l.345.345a9.249,9.249,0,0,0-5.105,1.291,6.277,6.277,0,0,0-2.838,4.354,45.048,45.048,0,0,0-.811,11.4v.871l-.676-.54-9.91-7.9h.135l-15.736-4.79.435-.18a8.182,8.182,0,0,0-1.036,3.694,4.76,4.76,0,0,0,1.291,3.468,8.072,8.072,0,0,0,1.006.871c.405.225.766.465,1.186.676.841.405,1.667.826,2.508,1.186a22.055,22.055,0,0,0,4.97,1.727h.24l.09.15,5.5,9.594.075.135v.15c-.8,3.529-1.5,7.027-2.3,10.255l-.135.631-.5-.42L378.6,243.294a3.469,3.469,0,0,0-3.6-.33c-1.111.661-2.312,1.5-3.453,2.237l-6.8,4.5-.18.12-.2-.105-5.811-3.453h.42c-6.426,5.676-12.7,11.006-18.333,16.261l.075-.39a8.664,8.664,0,0,0,3.543,3.393,6.772,6.772,0,0,0,4.685.541,29.735,29.735,0,0,0,4.5-1.727l4.309-1.892h.165l.135.09,8.273,6.126.225.165-.165.225c-9.655,12.928-17.432,23.348-22.387,30.781a19.52,19.52,0,0,0-2.327,5.39,34.81,34.81,0,0,0-.886,4.234c-.165,1.156-.24,2.057-.285,2.643S340.45,313.008,340.45,313.008Z" transform="translate(-127.229 -103.813)" fill="#eb996e"/>
      <path id="Path_3715" data-name="Path 3715" d="M374.908,265.759c-.15,0,.42-2.312.661-6.006a13.784,13.784,0,0,0-1.021-6.306,16.861,16.861,0,0,0-5.21-5.856,129.438,129.438,0,0,0-12.117-8.243l-3.829-2.252a7.355,7.355,0,0,1-1.381-.886,5.4,5.4,0,0,1,1.5.616c.961.435,2.327,1.126,3.979,2.042a100.4,100.4,0,0,1,12.312,8.108,16.861,16.861,0,0,1,5.375,6.171,13.513,13.513,0,0,1,.931,6.637,28.247,28.247,0,0,1-.736,4.414A5.842,5.842,0,0,1,374.908,265.759Z" transform="translate(-121.206 -94.131)" fill="#eb996e"/>
      <path id="Path_3716" data-name="Path 3716" d="M382.585,255.772a29.29,29.29,0,0,1,.556-3.934,61.547,61.547,0,0,0,.676-9.459,62.813,62.813,0,0,0-.841-9.474,30.524,30.524,0,0,1-.616-3.9,15.014,15.014,0,0,1,1.156,3.8,46.382,46.382,0,0,1,.165,19.144A15.014,15.014,0,0,1,382.585,255.772Z" transform="translate(-105.986 -97.747)" fill="#eb996e"/>
    </g>
    <g id="freepik--speech-bubble--inject-40" transform="translate(1312.201 271)">
      <path id="Path_3717" data-name="Path 3717" d="M336.309,219.559l-15.615-27.582a73.888,73.888,0,1,0-17.7,19.7h0Z" transform="translate(-183.703 -79.298)" fill="#fff"/>
      <path id="Path_3718" data-name="Path 3718" d="M336.369,219.576l-33.423-7.658h-.285l.18-.24h0l.27.27a75.253,75.253,0,0,1-15.18,9.144,73.767,73.767,0,0,1-20.225,5.766,66.288,66.288,0,0,1-11.682.586c-2-.105-4.054-.165-6.111-.33l-6.231-.946a74.354,74.354,0,0,1-46.051-29.7,73.407,73.407,0,0,1-12.462-28.528,75.074,75.074,0,0,1,.871-32.808,72.7,72.7,0,0,1,15.811-30.33l3-3.318a43.4,43.4,0,0,1,3.243-3,44.072,44.072,0,0,1,3.348-3l3.544-2.643a31.529,31.529,0,0,1,3.664-2.342l3.739-2.267,3.919-1.877a31.953,31.953,0,0,1,3.949-1.757,75.45,75.45,0,0,1,33.033-5.09,72.9,72.9,0,0,1,30.33,9.009,74.744,74.744,0,0,1,35.015,43.078,79.473,79.473,0,0,1,3.213,24.024,72.973,72.973,0,0,1-3.6,20.706,74.446,74.446,0,0,1-7.4,15.886v-.2l15.48,27.672c-.661-1.156-5.676-9.85-15.811-27.492v-.18a74.908,74.908,0,0,0,7.282-15.826,73.451,73.451,0,0,0,3.5-20.585,79.16,79.16,0,0,0-3.258-23.8,74.2,74.2,0,0,0-34.775-42.627,72.3,72.3,0,0,0-30.03-8.844,74.594,74.594,0,0,0-32.717,5.06,31.243,31.243,0,0,0-3.9,1.742l-3.874,1.877-3.709,2.252a27.5,27.5,0,0,0-3.619,2.4L211.9,96.274c-1.186.841-2.192,1.937-3.3,2.883a35.71,35.71,0,0,0-3.213,3l-3,3.273a72.071,72.071,0,0,0-15.646,30.03,74.534,74.534,0,0,0-.886,32.477,72.838,72.838,0,0,0,12.312,28.213,73.994,73.994,0,0,0,45.615,29.414l6.171.946c2.042.18,4.084.225,6.006.345a66.783,66.783,0,0,0,11.591-.541,73.377,73.377,0,0,0,35.24-14.685l1.171-.9-.9,1.186h0l-.12-.315Z" transform="translate(-183.764 -79.315)" fill="#263238"/>
      <path id="Path_3719" data-name="Path 3719" d="M226.482,130.636a6.006,6.006,0,1,1-6.006-6.006A6.006,6.006,0,0,1,226.482,130.636Z" transform="translate(-168.365 -56.591)" fill="#263238"/>
      <path id="Path_3720" data-name="Path 3720" d="M242.442,130.636a6.006,6.006,0,1,1-6.006-6.006A6.006,6.006,0,0,1,242.442,130.636Z" transform="translate(-160.361 -56.591)" fill="#263238"/>
      <path id="Path_3721" data-name="Path 3721" d="M258.1,127.629a6.006,6.006,0,1,1-8.183-2.192A6.006,6.006,0,0,1,258.1,127.629Z" transform="translate(-152.101 -56.586)" fill="#263238"/>
    </g>
    <g id="freepik--Table--inject-40" transform="translate(1078.324 815.387)">
      <path id="Path_3722" data-name="Path 3722" d="M709.676,442.27c0,.225-152.641.39-340.838.39S28,442.5,28,442.27s152.6-.39,340.913-.39S709.676,442.06,709.676,442.27Z" transform="translate(-28 -441.88)" fill="#263238"/>
    </g>
    <g id="freepik--Device--inject-40" transform="translate(1178.999 441.231)">
      <path id="Path_3723" data-name="Path 3723" d="M353.55,448.455a40.3,40.3,0,0,1,32.117-18.138c21.937-.751,32.9,18.138,32.9,18.138Z" transform="translate(34.585 -73.533)" fill="#455a64"/>
      <path id="Path_3724" data-name="Path 3724" d="M385.607,447.968a24.366,24.366,0,0,1-.646-3.273,21.156,21.156,0,0,0-8.694-12.793,27.782,27.782,0,0,1-2.808-1.8,7.836,7.836,0,0,1,3.168,1.231,18.6,18.6,0,0,1,9.009,13.243A7.913,7.913,0,0,1,385.607,447.968Z" transform="translate(44.57 -73.631)" fill="#263238"/>
      <path id="Path_3725" data-name="Path 3725" d="M412.492,444.673v-.15a8.408,8.408,0,0,0-8.423-8.273h-186.7a8.423,8.423,0,0,0-8.423,8.423H412.492Z" transform="translate(-37.93 -70.547)" fill="#455a64"/>
      <path id="Path_3726" data-name="Path 3726" d="M106.47,239.7c0,3.934,3,238.407,3,238.407l174.173,41.907h14.309L288.8,192.69H275.7Z" transform="translate(-89.323 -192.69)" fill="#263238"/>
      <path id="Path_3727" data-name="Path 3727" d="M149.029,376.29,95.05,475.208h49.339c-8.829-.871,78.077,0,78.077,0L144.389,454.5l24.429-55.48-2.087-22.733Z" transform="translate(-95.05 -100.617)" fill="#263238"/>
      <path id="Path_3728" data-name="Path 3728" d="M133.751,451.728,127.91,267.345l53.033-5.075,6.531,196.86-18.934.961Z" transform="translate(-78.571 -157.796)" fill="#263238"/>
      <path id="Path_3729" data-name="Path 3729" d="M211.36,457.325V444.157c0-8.573-.075-21.021-.12-36.681,0-31.336-.075-75.435-.135-126.576l.375.375H148.793l.39-.39v8.5c0,49.879,0,96.291-.075,134.969h0v.075c-16.246,29.775-29.714,54.489-39.144,71.756-4.715,8.619-8.423,15.375-10.961,20-1.261,2.282-2.237,4.024-2.9,5.24S95.07,523.2,95.07,523.2s.315-.631.946-1.817,1.592-3,2.808-5.3c2.507-4.64,6.156-11.426,10.811-20.075l38.889-71.891V280.42h63.333v.375c0,51.141-.105,95.239-.135,126.576,0,15.645-.09,28.108-.12,36.681v12.312A1.916,1.916,0,0,1,211.36,457.325Z" transform="translate(-95.04 -148.694)" fill="#455a64"/>
      <path id="Path_3730" data-name="Path 3730" d="M155.625,391.43c.2.075-7.312,17.447-16.772,38.769s-17.3,38.558-17.492,38.468,7.312-17.447,16.772-38.783S155.43,391.34,155.625,391.43Z" transform="translate(-81.857 -93.024)" fill="#455a64"/>
      <path id="Path_3731" data-name="Path 3731" d="M227.021,519.784v-3.318c0-2.207-.075-5.405-.12-9.52,0-8.258-.255-20.21-.541-34.985-.556-29.549-1.892-70.345-3.529-115.4s-2.883-85.9-3.3-115.45c-.225-14.775-.33-26.742-.285-35v-9.519c0,2.207,0,5.405.12,9.519,0,8.258.24,20.21.541,34.985.646,29.549,1.982,70.39,3.619,115.434s2.883,85.87,3.3,115.42c.225,14.775.315,26.741.285,35v12A2.825,2.825,0,0,1,227.021,519.784Z" transform="translate(-32.773 -192.399)" fill="#455a64"/>
      <path id="Path_3732" data-name="Path 3732" d="M166.32,279.83c.225,0,.39,39.219.39,87.582s-.165,87.582-.39,87.582-.39-39.2-.39-87.582S166.11,279.83,166.32,279.83Z" transform="translate(-59.504 -148.99)" fill="#455a64"/>
      <path id="Path_3733" data-name="Path 3733" d="M106.64,463.383a6.59,6.59,0,0,1-.751-1.051c-.255-.36-.541-.8-.871-1.291a17.43,17.43,0,0,1-1.081-1.832,46.2,46.2,0,0,1-4.76-12.687,62.852,62.852,0,0,1-.931-20.075,80.329,80.329,0,0,1,6.516-23.739,49.3,49.3,0,0,1,6.8-10.826,27.351,27.351,0,0,1,2-2.342c.691-.751,1.351-1.5,2.042-2.222,1.5-1.366,2.808-2.763,4.294-3.949a69.219,69.219,0,0,1,8.724-6.321c1.5-.811,2.868-1.667,4.279-2.342a44.448,44.448,0,0,1,4.1-1.877,46.965,46.965,0,0,1,13.093-3.483,24.736,24.736,0,0,1,3.679-.225,7.757,7.757,0,0,1,1.291,0,10.022,10.022,0,0,1-1.276.135,32.38,32.38,0,0,0-3.649.375,49.2,49.2,0,0,0-12.928,3.694c-1.336.5-2.628,1.246-4.039,1.892a44.849,44.849,0,0,0-4.219,2.372,69.288,69.288,0,0,0-8.589,6.321c-1.5,1.171-2.808,2.568-4.234,3.919-.676.706-1.336,1.5-2.012,2.192a29.1,29.1,0,0,0-1.952,2.327,48.8,48.8,0,0,0-6.7,10.676,80.494,80.494,0,0,0-6.5,23.483,63.424,63.424,0,0,0,.751,19.88,48.529,48.529,0,0,0,4.5,12.658,15.974,15.974,0,0,0,1.021,1.862l.8,1.336A9.673,9.673,0,0,1,106.64,463.383Z" transform="translate(-93.652 -104.226)" fill="#455a64"/>
    </g>
  </g>
</svg>
