<svg xmlns="http://www.w3.org/2000/svg" width="88.4" height="59.211" viewBox="0 0 88.4 59.211">
  <g id="_1553471" data-name="1553471" transform="translate(0 -84.533)">
    <path id="Path_1832" data-name="Path 1832" d="M232.633,283.68a5.257,5.257,0,0,0,7.535,0,1.295,1.295,0,0,0-2-1.64,2.746,2.746,0,0,1-3.526,0,1.295,1.295,0,1,0-2,1.64Z" transform="translate(-192.226 -163.015)" fill="#fff"/>
    <path id="Path_1833" data-name="Path 1833" d="M88.241,100.2a3.161,3.161,0,0,0-2.334-2.126L75.18,95.662l-5.609-9.457a3.189,3.189,0,0,0-5.486,0l-5.609,9.457-4.73,1.064-6.051-10.2a4.063,4.063,0,0,0-6.989,0l-6.051,10.2-4.73-1.064-5.609-9.457a3.189,3.189,0,0,0-5.486,0L13.22,95.662,2.493,98.074a3.189,3.189,0,0,0-1.7,5.218l7.261,8.257L7.037,122.5a3.2,3.2,0,0,0,3.169,3.489,3.2,3.2,0,0,0,1.269-.265l10.069-4.342,3.527,1.682L23.558,139.3a4.063,4.063,0,0,0,5.654,4.108L44.2,136.943l14.988,6.463a4.079,4.079,0,0,0,1.617.337,4.072,4.072,0,0,0,4.037-4.445l-1.514-16.237,3.527-1.682,10.069,4.342a3.162,3.162,0,0,0,3.138-.348,3.162,3.162,0,0,0,1.3-2.876l-1.021-10.948,7.261-8.257A3.163,3.163,0,0,0,88.241,100.2ZM21.059,118.768,10.45,123.343a.6.6,0,0,1-.834-.606l1.072-11.5a1.3,1.3,0,0,0-.317-.975l-7.629-8.676a.6.6,0,0,1,.319-.981l11.272-2.535a1.3,1.3,0,0,0,.83-.6l5.894-9.937a.6.6,0,0,1,1.031,0l5.894,9.937a1.3,1.3,0,0,0,.83.6l4.454,1-.886,1.494-15.924,3.581a4.063,4.063,0,0,0-2.16,6.647l6.959,7.914A1.29,1.29,0,0,0,21.059,118.768Zm10.6,20.764v-2.39a2.9,2.9,0,0,1,1.757-2.664l3.089-1.324a11.865,11.865,0,0,0,4.818,2.211Zm7.662-7.62a4.056,4.056,0,0,0,2.025-3.512v-1.466a9.616,9.616,0,0,0,5.714,0V128.4a4.056,4.056,0,0,0,2.026,3.513,10.776,10.776,0,0,1-9.765,0Zm17.427,7.62-9.664-4.167a11.857,11.857,0,0,0,4.818-2.211l3.089,1.324a2.9,2.9,0,0,1,1.757,2.667Zm28.913-37.951-7.629,8.676a1.3,1.3,0,0,0-.317.975l1.073,11.5a.6.6,0,0,1-.835.606l-10.609-4.575a1.3,1.3,0,0,0-.195-.064l6.96-7.914a4.063,4.063,0,0,0-2.16-6.647l-9.469-2.129a1.295,1.295,0,0,0-.568,2.527l9.469,2.129a1.473,1.473,0,0,1,.783,2.41L61.013,121.756a1.3,1.3,0,0,0-.317.975l1.567,16.808a1.473,1.473,0,0,1-2.05,1.489l-.879-.379v-3.507a5.482,5.482,0,0,0-3.326-5.045l-5.469-2.344a1.471,1.471,0,0,1-.893-1.354v-2.733a9.594,9.594,0,0,0,4.152-7.9V103.93a1.3,1.3,0,0,0-1.295-1.295H42.816a5.45,5.45,0,0,0-4.767,2.814,4.069,4.069,0,0,0-3.448,4.016v2.658a1.295,1.295,0,1,0,2.59,0v-2.658a1.462,1.462,0,0,1,.286-.868,1.295,1.295,0,0,0,2.482-.516,2.86,2.86,0,0,1,2.857-2.857h8.393v2.946H44.2a1.295,1.295,0,0,0,0,2.59h7.009v7.009a7.009,7.009,0,1,1-14.018,0,1.295,1.295,0,1,0-2.59,0,9.593,9.593,0,0,0,4.152,7.9V128.4a1.472,1.472,0,0,1-.893,1.354L32.391,132.1a5.483,5.483,0,0,0-3.326,5.047v3.5l-.879.379a1.473,1.473,0,0,1-2.05-1.489L27.7,122.732a1.3,1.3,0,0,0-.317-.975L16.24,109.079a1.473,1.473,0,0,1,.783-2.41l16.469-3.7a1.3,1.3,0,0,0,.83-.6l8.612-14.519a1.473,1.473,0,0,1,2.534,0l8.612,14.519a1.3,1.3,0,0,0,.83.6l1.463.329a1.295,1.295,0,1,0,.568-2.527l-.918-.206-.886-1.494,4.454-1a1.3,1.3,0,0,0,.83-.6l5.894-9.937a.6.6,0,0,1,1.031,0l5.894,9.937a1.3,1.3,0,0,0,.83.6L85.339,100.6a.6.6,0,0,1,.319.981Z" transform="translate(0)" fill="#fff"/>
    <circle id="Ellipse_31" data-name="Ellipse 31" cx="1.295" cy="1.295" r="1.295" transform="translate(38.758 113.702)" fill="#fff"/>
    <circle id="Ellipse_32" data-name="Ellipse 32" cx="1.295" cy="1.295" r="1.295" transform="translate(47.06 113.702)" fill="#fff"/>
  </g>
</svg>
