<svg xmlns="http://www.w3.org/2000/svg" width="30.421" height="29" viewBox="0 0 30.421 29">
  <g id="_747420" data-name="747420" transform="translate(0 -11.96)">
    <g id="Group_394" data-name="Group 394" transform="translate(0 11.96)">
      <path id="Path_4468" data-name="Path 4468" d="M15.211,11.96,0,25.169l1.557,1.793,1.424-1.237V37.4A3.566,3.566,0,0,0,6.543,40.96h6.649V29.324h4.156V40.96h6.53A3.566,3.566,0,0,0,27.44,37.4V25.726l1.424,1.237,1.557-1.793ZM25.065,37.4a1.189,1.189,0,0,1-1.187,1.187H19.723V26.949H10.817V38.585H6.543A1.189,1.189,0,0,1,5.356,37.4V23.663l9.855-8.558,9.855,8.558Z" transform="translate(0 -11.96)" fill="#b5b3b3"/>
    </g>
  </g>
</svg>
