<svg xmlns="http://www.w3.org/2000/svg" width="80" height="80" viewBox="0 0 80 80">
  <g id="Group_1176" data-name="Group 1176" transform="translate(-1635 -3072)">
    <rect id="Rectangle_738" data-name="Rectangle 738" width="80" height="80" rx="20" transform="translate(1635 3072)" fill="#ec008c"/>
    <g id="_747993" data-name="747993" transform="translate(1653 3090)">
      <g id="Group_1005" data-name="Group 1005">
        <g id="Group_1004" data-name="Group 1004">
          <path id="Path_5257" data-name="Path 5257" d="M41.812,29.914a1.7,1.7,0,0,0,1.7-1.7V10.2a6.806,6.806,0,0,0-6.8-6.8H34.5V1.7a1.7,1.7,0,0,0-3.4,0V3.4H23.371V1.7a1.7,1.7,0,0,0-3.4,0V3.4H12.323V1.7a1.7,1.7,0,0,0-3.4,0V3.4H6.8A6.806,6.806,0,0,0,0,10.2V36.713a6.806,6.806,0,0,0,6.8,6.8H36.713a6.806,6.806,0,0,0,6.8-6.8,1.7,1.7,0,0,0-3.4,0,3.4,3.4,0,0,1-3.4,3.4H6.8a3.4,3.4,0,0,1-3.4-3.4V10.2A3.4,3.4,0,0,1,6.8,6.8H8.923V8.5a1.7,1.7,0,1,0,3.4,0V6.8h7.649V8.5a1.7,1.7,0,0,0,3.4,0V6.8H31.1V8.5a1.7,1.7,0,1,0,3.4,0V6.8h2.21a3.4,3.4,0,0,1,3.4,3.4V28.215A1.7,1.7,0,0,0,41.812,29.914Z" fill="#fff"/>
        </g>
      </g>
      <g id="Group_1007" data-name="Group 1007" transform="translate(9.527 16.321)">
        <g id="Group_1006" data-name="Group 1006" transform="translate(0 0)">
          <circle id="Ellipse_74" data-name="Ellipse 74" cx="1.359" cy="1.359" r="1.359" transform="translate(0)" fill="#fff"/>
        </g>
      </g>
      <g id="Group_1009" data-name="Group 1009" transform="translate(24.473 16.321)">
        <g id="Group_1008" data-name="Group 1008" transform="translate(0 0)">
          <circle id="Ellipse_75" data-name="Ellipse 75" cx="1.359" cy="1.359" r="1.359" transform="translate(0)" fill="#fff"/>
        </g>
      </g>
      <g id="Group_1011" data-name="Group 1011" transform="translate(31.266 16.321)">
        <g id="Group_1010" data-name="Group 1010" transform="translate(0 0)">
          <circle id="Ellipse_76" data-name="Ellipse 76" cx="1.359" cy="1.359" r="1.359" fill="#fff"/>
        </g>
      </g>
      <g id="Group_1013" data-name="Group 1013" transform="translate(9.527 24.473)">
        <g id="Group_1012" data-name="Group 1012" transform="translate(0 0)">
          <circle id="Ellipse_77" data-name="Ellipse 77" cx="1.359" cy="1.359" r="1.359" transform="translate(0)" fill="#fff"/>
        </g>
      </g>
      <g id="Group_1015" data-name="Group 1015" transform="translate(9.527 31.268)">
        <g id="Group_1014" data-name="Group 1014" transform="translate(0 0)">
          <circle id="Ellipse_78" data-name="Ellipse 78" cx="1.359" cy="1.359" r="1.359" transform="translate(0 0)" fill="#fff"/>
        </g>
      </g>
      <g id="Group_1017" data-name="Group 1017" transform="translate(16.32 16.321)">
        <g id="Group_1016" data-name="Group 1016" transform="translate(0 0)">
          <circle id="Ellipse_79" data-name="Ellipse 79" cx="1.359" cy="1.359" r="1.359" fill="#fff"/>
        </g>
      </g>
      <g id="Group_1019" data-name="Group 1019" transform="translate(16.32 24.473)">
        <g id="Group_1018" data-name="Group 1018" transform="translate(0 0)">
          <circle id="Ellipse_80" data-name="Ellipse 80" cx="1.359" cy="1.359" r="1.359" fill="#fff"/>
        </g>
      </g>
      <g id="Group_1021" data-name="Group 1021" transform="translate(16.32 31.268)">
        <g id="Group_1020" data-name="Group 1020" transform="translate(0 0)">
          <circle id="Ellipse_81" data-name="Ellipse 81" cx="1.359" cy="1.359" r="1.359" transform="translate(0 0)" fill="#fff"/>
        </g>
      </g>
      <g id="Group_1023" data-name="Group 1023" transform="translate(24.473 24.473)">
        <g id="Group_1022" data-name="Group 1022" transform="translate(0 0)">
          <circle id="Ellipse_82" data-name="Ellipse 82" cx="1.359" cy="1.359" r="1.359" transform="translate(0)" fill="#fff"/>
        </g>
      </g>
      <g id="Group_1025" data-name="Group 1025" transform="translate(31.266 24.473)">
        <g id="Group_1024" data-name="Group 1024" transform="translate(0 0)">
          <circle id="Ellipse_83" data-name="Ellipse 83" cx="1.359" cy="1.359" r="1.359" fill="#fff"/>
        </g>
      </g>
      <g id="Group_1027" data-name="Group 1027" transform="translate(24.473 31.268)">
        <g id="Group_1026" data-name="Group 1026" transform="translate(0 0)">
          <circle id="Ellipse_84" data-name="Ellipse 84" cx="1.359" cy="1.359" r="1.359" transform="translate(0 0)" fill="#fff"/>
        </g>
      </g>
    </g>
  </g>
</svg>
