<svg xmlns="http://www.w3.org/2000/svg" width="350.319" height="432.099" viewBox="0 0 350.319 432.099">
  <g id="Creativity-pana" transform="translate(-80.782 -34.854)">
    <g id="freepik--background-complete--inject-59" transform="translate(116.773 76.359)">
      <path id="Path_5351" data-name="Path 5351" d="M332.18,91.846h64.73s-5.72-10.416-22.387-8.86c-15.909,1.447-16.736-5.129-24.809-5.907S334.878,82.405,332.18,91.846Z" transform="translate(-120.672 -77.012)" fill="#e0e0e0"/>
      <path id="Path_5352" data-name="Path 5352" d="M160.286,265.886s-6.488,3.5,2.953,17.051,15.584,20.044,15.584,20.044,1.792,3.2-.984,4.115-9.185.788-9.973,4.44c-.817,3.8,2.284,6.891,8.014,9.107s18.115,7.659,19.227,8.152,2.333,1.92.541,2.845-15.683,4.342-13.675,10.829,19.02,10.16,20.871,10.593,2.373,1.122,2.363,2.107-4.785,1.693-8.7,2.825-8.25,3.141-6.773,6.793,12.168,10.278,35.776,9.343l10.908-1.142L241.063,363c8.634-21.984,5.907-34.26,2.953-36.859s-6.281.847-8.634,4.174-4.6,7.6-5.533,7.285-1.408-1.034-1.211-2.953,2.333-19.158-3.141-23.195-13.271,7.955-14.767,9.343-2.412-.246-2.51-1.447-1.132-14.679-1.378-20.842-2.107-10.081-5.956-10.554-5.69,5.631-7.472,7.955-4.214-.423-4.214-.423-4.125-7.935-13.783-21.3-15.26-8.191-15.26-8.191" transform="translate(-117.972 -79.928)" fill="#ebebeb"/>
      <path id="Path_5353" data-name="Path 5353" d="M237.5,375.685c-7.078-9.845-19.355-27.566-29.978-42.717s-20.241-28.855-27.27-38.74c-3.515-4.922-6.35-8.919-8.329-11.686l-2.264-3.19-.581-.827c-.128-.187-.187-.3-.187-.3s.079.089.217.276l.61.807,2.314,3.15c1.969,2.727,4.922,6.7,8.417,11.627,7.078,9.845,16.736,23.529,27.349,38.681s22.87,32.892,29.9,42.766" transform="translate(-118.14 -80.133)" fill="#e0e0e0"/>
      <path id="Path_5354" data-name="Path 5354" d="M177.12,312.83a4.162,4.162,0,0,1,.788.108c.5.089,1.221.236,2.117.433,1.782.384,4.223.984,6.891,1.693l6.891,1.841,2.087.551a3.26,3.26,0,0,1,.758.226,3.573,3.573,0,0,1-.788-.1c-.5-.089-1.221-.236-2.117-.443-1.772-.4-4.214-.984-6.891-1.743l-6.891-1.792-2.087-.542A2.952,2.952,0,0,1,177.12,312.83Z" transform="translate(-118.267 -80.67)" fill="#e0e0e0"/>
      <path id="Path_5355" data-name="Path 5355" d="M197.62,316.643c-.1,0,.916-5.119,2.254-11.381s2.51-11.331,2.6-11.312-.916,5.109-2.264,11.381S197.709,316.643,197.62,316.643Z" transform="translate(-118.585 -80.377)" fill="#e0e0e0"/>
      <path id="Path_5356" data-name="Path 5356" d="M213.12,341.039a3.3,3.3,0,0,1,.345-.729l1.044-1.969c.876-1.634,2.087-3.938,3.318-6.458s2.294-4.922,3.032-6.586l.886-2.018a2.787,2.787,0,0,1,.364-.729,4.411,4.411,0,0,1-.236.778c-.177.492-.443,1.191-.788,2.058-.689,1.733-1.7,4.1-2.953,6.655s-2.491,4.8-3.416,6.419c-.473.8-.866,1.447-1.142,1.88a4.368,4.368,0,0,1-.453.7Z" transform="translate(-118.826 -80.821)" fill="#e0e0e0"/>
      <path id="Path_5357" data-name="Path 5357" d="M193.76,341.68a2.482,2.482,0,0,1,.738-.089l2.038-.118c1.713-.089,4.086-.177,6.7-.266s4.991-.138,6.714-.158h2.038a4.327,4.327,0,0,1,.748,0,2.775,2.775,0,0,1-.748.1l-2.028.118c-1.723.079-4.1.177-6.714.256s-4.991.138-6.714.158h-2.028a3.211,3.211,0,0,1-.748,0Z" transform="translate(-118.525 -81.107)" fill="#e0e0e0"/>
      <path id="Path_5358" data-name="Path 5358" d="M204.71,364.984a4.515,4.515,0,0,1,.984-.108l2.609-.158c2.2-.118,5.237-.266,8.595-.4s6.4-.236,8.595-.3l2.609-.059a6.179,6.179,0,0,1,.984,0,6.062,6.062,0,0,1-.984.108l-2.609.158c-2.2.118-5.237.266-8.595.4s-6.4.236-8.595.3l-2.609.059A6,6,0,0,1,204.71,364.984Z" transform="translate(-118.695 -81.463)" fill="#e0e0e0"/>
      <path id="Path_5359" data-name="Path 5359" d="M228.81,363.426a6.078,6.078,0,0,1,.413-.935l1.24-2.51c1.044-2.117,2.461-5.041,3.938-8.319s2.757-6.271,3.662-8.457l1.073-2.579a6.8,6.8,0,0,1,.423-.925,5.1,5.1,0,0,1-.305.985c-.217.63-.541,1.526-.985,2.619-.847,2.205-2.087,5.228-3.574,8.506s-2.953,6.2-4.046,8.289c-.551,1.044-.984,1.89-1.339,2.461a6.7,6.7,0,0,1-.5.866Z" transform="translate(-119.069 -81.087)" fill="#e0e0e0"/>
      <path id="Path_5360" data-name="Path 5360" d="M321.654,214.876c-11.715-13.143-10.593-32.114-6.153-48.348.738-2.717,1.122-5.671,2.953-7.758s5.3-3.013,7.472-1.28c1.8,1.437,2.126,4.007,2.8,6.232a16.431,16.431,0,0,0,4.923,7.64c1.526,1.319,3.544,2.373,5.493,1.841,2.668-.748,3.712-3.938,4.342-6.665q1.743-7.61,3.5-15.22a26.425,26.425,0,0,1,2.727-7.876c1.457-2.382,3.938-4.332,6.655-4.44s5.6,2.136,5.513,4.922a25.894,25.894,0,0,1-.719,3.406,2.953,2.953,0,0,0,1.034,3.081c.984.581,2.274.069,3.278-.541,3.456-2.077,6.2-5.159,8.811-8.26s5.188-6.281,8.447-8.673,7.334-3.938,11.282-3.229,7.522,4.1,7.6,8.142-3.072,7.433-6.242,9.953a62.389,62.389,0,0,1-15.437,9.047,5.1,5.1,0,0,0-2.648,1.772c-.984,1.674.266,3.879,1.91,4.922,1.871,1.152,4.115,1.467,6.183,2.215s4.135,2.235,4.46,4.42c.453,3.042-2.56,5.4-5.3,6.773a53.586,53.586,0,0,1-17.465,5.218c-2.176.256-4.43.4-6.38,1.418s-3.495,3.239-2.953,5.385,2.875,3.357,5.06,3.456,4.332-.581,6.507-.857c4.066-.532,8.86.866,10.455,4.666a8.86,8.86,0,0,1-.886,7.876,20.32,20.32,0,0,1-5.71,5.74,53.753,53.753,0,0,1-26.03,10.4c-9.372.984-17.6-.138-25.469-5.326" transform="translate(-120.365 -77.827)" fill="#f5f5f5"/>
      <path id="Path_5361" data-name="Path 5361" d="M324.22,216.509c2.127-6.34-.1-3.16,4.283-10.829a250.375,250.375,0,0,1,15.88-23.943q2.264-3.072,4.479-6.055c1.477-1.969,2.953-3.938,4.489-5.8a126.53,126.53,0,0,1,9.52-10.042c3.18-3.052,6.311-5.828,9.264-8.408s5.749-4.922,8.388-6.941a99.987,99.987,0,0,1,13.163-8.634c1.624-.9,2.953-1.546,3.79-1.969l.984-.482.345-.148a1.9,1.9,0,0,1-.325.2l-.984.532c-.866.463-2.136,1.142-3.741,2.058a104.213,104.213,0,0,0-13.015,8.772c-2.619,2.038-5.4,4.391-8.329,6.97s-6.045,5.375-9.215,8.427a129.2,129.2,0,0,0-9.461,10.022c-1.536,1.831-2.953,3.79-4.46,5.779l-4.479,6.055a257.634,257.634,0,0,0-15.87,23.834c-4.391,7.65-2.186,4.42-4.352,10.721" transform="translate(-120.549 -77.885)" fill="#e0e0e0"/>
      <path id="Path_5362" data-name="Path 5362" d="M354,169.994a6.177,6.177,0,0,1,0-1.221c0-.788.128-1.969.256-3.318.256-2.806.748-6.655,1.3-10.9s.984-8.093,1.191-10.888c.108-1.4.187-2.52.236-3.308a5.326,5.326,0,0,1,.128-1.211,5.992,5.992,0,0,1,.069,1.221c0,.778,0,1.969-.069,3.318-.118,2.816-.492,6.685-1.053,10.938S355,162.6,354.62,165.456c-.167,1.309-.305,2.412-.414,3.3A5.684,5.684,0,0,1,354,169.994Z" transform="translate(-121.01 -77.976)" fill="#e0e0e0"/>
      <path id="Path_5363" data-name="Path 5363" d="M390.425,172.212a6.961,6.961,0,0,1-1.427-.158c-.916-.138-2.245-.335-3.889-.532-3.278-.413-7.876-.817-12.877-1.053s-9.618-.236-12.936-.148c-1.654,0-2.953.1-3.938.138a8.641,8.641,0,0,1-1.447,0,7.817,7.817,0,0,1,1.437-.217c.925-.1,2.264-.217,3.938-.3,3.318-.187,7.876-.236,12.976,0a128.979,128.979,0,0,1,12.907,1.211c1.634.246,2.953.5,3.869.689A7.472,7.472,0,0,1,390.425,172.212Z" transform="translate(-121.009 -78.451)" fill="#e0e0e0"/>
      <path id="Path_5364" data-name="Path 5364" d="M329.05,205.491a1.536,1.536,0,0,1-.138-.482c-.079-.384-.177-.847-.305-1.408-.246-1.221-.571-2.953-.935-5.2-.738-4.4-1.565-10.514-2.392-17.278s-1.595-12.877-2.235-17.288c-.315-2.146-.581-3.938-.778-5.218-.079-.571-.148-1.044-.207-1.428a2.721,2.721,0,0,1,0-.5,1.851,1.851,0,0,1,.148.482l.3,1.408q.384,1.831.935,5.2c.738,4.4,1.565,10.514,2.392,17.278s1.595,12.877,2.235,17.288c.325,2.146.581,3.938.778,5.228.089.561.148,1.034.207,1.418A1.971,1.971,0,0,1,329.05,205.491Z" transform="translate(-120.515 -78.248)" fill="#e0e0e0"/>
      <path id="Path_5365" data-name="Path 5365" d="M379.142,202.23a1.656,1.656,0,0,1-.5.079l-1.457.138-5.356.433c-4.519.364-10.76.984-17.652,1.595s-13.153,1.172-17.721,1.447c-2.264.138-4.1.226-5.365.266h-1.457a1.734,1.734,0,0,1-.512,0,2.016,2.016,0,0,1,.5-.079l1.457-.138,5.356-.433c4.519-.364,10.76-.984,17.652-1.595s13.143-1.172,17.721-1.437c2.274-.138,4.105-.236,5.375-.276h1.457A2.057,2.057,0,0,1,379.142,202.23Z" transform="translate(-120.625 -78.954)" fill="#e0e0e0"/>
      <path id="Path_5366" data-name="Path 5366" d="M418.42,304a2.121,2.121,0,0,1-.158.463l-.542,1.309c-.5,1.181-1.211,2.845-2.1,4.922l-7.59,17.553-.049.1h-.108l-23.844,3.938-7.994,1.309-.364.059.089-.354c1.969-7.669,3.731-14.767,5.257-20.724l.108.227-14.009-6.261-3.869-1.762-.984-.473a1.765,1.765,0,0,1-.335-.187l.354.128,1.034.423,3.938,1.664,14.078,6.1.158.069v.158c-1.5,6.005-3.259,13.074-5.169,20.753l-.276-.3,7.994-1.319,23.854-3.879-.167.128,7.748-17.475c.935-2.087,1.683-3.741,2.215-4.922l.591-1.29A3.26,3.26,0,0,1,418.42,304Z" transform="translate(-121.134 -80.533)" fill="#e0e0e0"/>
      <path id="Path_5367" data-name="Path 5367" d="M379.025,331.24l-.66,1.713,1.044,1.516-1.831-.089-1.112,1.457-.482-1.772-1.733-.61,1.536-1,.049-1.831,1.427,1.152Z" transform="translate(-121.325 -80.946)" fill="#e0e0e0"/>
      <path id="Path_5368" data-name="Path 5368" d="M362.433,303l-.325.857.512.748-.906-.049-.551.729-.246-.876-.857-.305.758-.5.03-.916.709.571Z" transform="translate(-121.105 -80.512)" fill="#e0e0e0"/>
      <path id="Path_5369" data-name="Path 5369" d="M409.4,327.555l-.325.857.512.748-.906-.039-.551.729-.246-.886-.857-.3.758-.5.02-.916.719.571Z" transform="translate(-121.833 -80.893)" fill="#e0e0e0"/>
      <path id="Path_5370" data-name="Path 5370" d="M382.293,311.965l-.325.847.522.758-.916-.049-.551.729-.236-.886-.866-.3.768-.5.02-.916.709.571Z" transform="translate(-121.413 -80.652)" fill="#e0e0e0"/>
      <path id="Path_5371" data-name="Path 5371" d="M420.4,303.125l-.325.857.522.748-.916-.039-.551.729-.236-.886-.866-.305.768-.492.02-.916.709.571Z" transform="translate(-122.004 -80.515)" fill="#e0e0e0"/>
      <path id="Path_5372" data-name="Path 5372" d="M117.34,375.723h51.548s-4.558-8.3-17.829-7.088c-12.67,1.152-13.31-4.086-19.759-4.726S119.5,368.2,117.34,375.723Z" transform="translate(-117.34 -81.461)" fill="#e0e0e0"/>
      <path id="Path_5373" data-name="Path 5373" d="M127.74,169.6h51.538s-4.558-8.289-17.829-7.088c-12.661,1.162-13.31-4.076-19.749-4.716S129.886,162.092,127.74,169.6Z" transform="translate(-117.501 -78.265)" fill="#f5f5f5"/>
      <path id="Path_5374" data-name="Path 5374" d="M393.62,206.046h42.333s-3.741-6.813-14.639-5.828c-10.416.984-10.948-3.347-16.234-3.879S395.382,199.874,393.62,206.046Z" transform="translate(-121.625 -78.862)" fill="#f5f5f5"/>
    </g>
    <g id="freepik--Pencil--inject-59" transform="translate(154.744 34.854)">
      <path id="Path_5375" data-name="Path 5375" d="M305.8,289.129c2.107-15.86-9.047-28.954-22.988-36.82s-30.116-10.524-45.513-14.876c-14.521-4.125-28.964-10.15-39.714-20.743s-17.209-26.512-13.35-41.1c.984-3.662,2.707-7.344,5.858-9.461s7.945-2.058,10.3.916c5,6.34-4.745,17.721,1.359,22.978,1.4,1.221,3.328,1.664,4.775,2.816,3.849,3.081,2.609,9.057,3.15,13.96,1.073,9.7,10.17,16.431,19.1,20.359,11.962,5.257,24.917,7.728,37.6,10.829s25.488,7.049,36.052,14.767,19.749,19.69,19.69,32.774c0,3.652-.482,8.142-2.776,10.977s-5.208,3.436-8.516,1.88-5.612-3.938-5-9.235" transform="translate(-156.331 -36.867)" fill="#8dc63f"/>
      <g id="Group_1176" data-name="Group 1176" transform="translate(26.776 127.791)" opacity="0.8">
        <path id="Path_5376" data-name="Path 5376" d="M305.8,289.129c2.107-15.86-9.047-28.954-22.988-36.82s-30.116-10.524-45.513-14.876c-14.521-4.125-28.964-10.15-39.714-20.743s-17.209-26.512-13.35-41.1c.984-3.662,2.707-7.344,5.858-9.461s7.945-2.058,10.3.916c5,6.34-4.745,17.721,1.359,22.978,1.4,1.221,3.328,1.664,4.775,2.816,3.849,3.081,2.609,9.057,3.15,13.96,1.073,9.7,10.17,16.431,19.1,20.359,11.962,5.257,24.917,7.728,37.6,10.829s25.488,7.049,36.052,14.767,19.749,19.69,19.69,32.774c0,3.652-.482,8.142-2.776,10.977s-5.208,3.436-8.516,1.88-5.612-3.938-5-9.235" transform="translate(-183.107 -164.658)" fill="#fff"/>
      </g>
      <path id="Path_5377" data-name="Path 5377" d="M239.229,161.1c-.5-5.907,3.879-11,8.86-13.734s10.692-3.859,15.821-6.291c12.749-6.045,20.852-20.271,21.452-34.851s-5.73-29.17-15.614-39.882c-4.027-4.351-8.969-8.919-9.028-14.856-.059-6.2,5.907-11.085,11.952-11.007s11.538,4.105,15.132,9.156,5.572,11.046,7.512,16.953c-1.378-2.481,1.447-5.543,4.184-5.277s4.922,2.54,6.567,4.8a51.292,51.292,0,0,1,9.845,34.309,48.339,48.339,0,0,1-15.26,31.445c-9.717,8.86-22.565,13.005-35.028,16.943l-26,8.2" transform="translate(-157.201 -34.941)" fill="#8dc63f"/>
      <g id="Group_1177" data-name="Group 1177" transform="translate(81.989 5.538)" opacity="0.8">
        <path id="Path_5378" data-name="Path 5378" d="M239.229,161.1c-.5-5.907,3.879-11,8.86-13.734s10.692-3.859,15.821-6.291c12.749-6.045,20.852-20.271,21.452-34.851s-5.73-29.17-15.614-39.882c-4.027-4.351-8.969-8.919-9.028-14.856-.059-6.2,5.907-11.085,11.952-11.007s11.538,4.105,15.132,9.156,5.572,11.046,7.512,16.953c-1.378-2.481,1.447-5.543,4.184-5.277s4.922,2.54,6.567,4.8a51.292,51.292,0,0,1,9.845,34.309,48.339,48.339,0,0,1-15.26,31.445c-9.717,8.86-22.565,13.005-35.028,16.943l-26,8.2" transform="translate(-239.19 -40.479)" fill="#fff"/>
      </g>
      <path id="Path_5379" data-name="Path 5379" d="M231.826,37.513a5.533,5.533,0,1,0,.906-.286" transform="translate(-157.033 -34.889)" fill="#8dc63f"/>
      <g id="Group_1178" data-name="Group 1178" transform="translate(71.369 2.205)" opacity="0.8">
        <path id="Path_5380" data-name="Path 5380" d="M231.826,37.513a5.533,5.533,0,1,0,.906-.286" transform="translate(-228.402 -37.094)" fill="#fff"/>
      </g>
      <path id="Path_5381" data-name="Path 5381" d="M264.159,421.079c-3.19-6.606-.4-14.846,4.676-20.143s12.011-8.319,18.705-11.272c14.826-6.537,30.519-14.314,38.051-28.649,2.54-4.834,3.987-10.15,5.415-15.427,2.766-10.2,5.365-21.787-.2-30.775-1.6-2.589-4.007-4.922-7-5.415-3.416-.61-6.891,1.27-9.018,4.017a19.917,19.917,0,0,0-3.436,9.678c-.827,6.527-.138,13.172-.827,19.69s-3.062,13.478-8.417,17.2c-6.567,4.578-15.929,3.554-22.3,8.388-5.149,3.938-7.108,10.672-11.125,15.752-3.387,4.243-8.122,7.138-12.454,10.406s-8.526,7.246-10,12.474A14.767,14.767,0,0,0,266.8,424.357" transform="translate(-157.301 -39.11)" fill="#8dc63f"/>
      <g id="Group_1179" data-name="Group 1179" transform="translate(88.369 270.173)" opacity="0.8">
        <path id="Path_5382" data-name="Path 5382" d="M264.159,421.079c-3.19-6.606-.4-14.846,4.676-20.143s12.011-8.319,18.705-11.272c14.826-6.537,30.519-14.314,38.051-28.649,2.54-4.834,3.987-10.15,5.415-15.427,2.766-10.2,5.365-21.787-.2-30.775-1.6-2.589-4.007-4.922-7-5.415-3.416-.61-6.891,1.27-9.018,4.017a19.917,19.917,0,0,0-3.436,9.678c-.827,6.527-.138,13.172-.827,19.69s-3.062,13.478-8.417,17.2c-6.567,4.578-15.929,3.554-22.3,8.388-5.149,3.938-7.108,10.672-11.125,15.752-3.387,4.243-8.122,7.138-12.454,10.406s-8.526,7.246-10,12.474A14.767,14.767,0,0,0,266.8,424.357" transform="translate(-245.671 -309.283)" fill="#fff"/>
      </g>
      <path id="Path_5383" data-name="Path 5383" d="M164.2,83.1a20.527,20.527,0,0,1,.591-33.384c3.032-2.077,6.616-3.357,9.313-5.907,2.392-2.225,3.938-5.306,6.626-7.177A9.648,9.648,0,0,1,195.378,47.8c-1.231,3.456-4.332,5.986-5.631,9.412-1.4,3.7-.492,7.876-.984,11.755a16.234,16.234,0,0,1-21.738,13.074" transform="translate(-155.909 -34.854)" fill="#8dc63f"/>
      <g id="Group_1180" data-name="Group 1180" opacity="0.8">
        <path id="Path_5384" data-name="Path 5384" d="M164.2,83.1a20.527,20.527,0,0,1,.591-33.384c3.032-2.077,6.616-3.357,9.313-5.907,2.392-2.225,3.938-5.306,6.626-7.177A9.648,9.648,0,0,1,195.378,47.8c-1.231,3.456-4.332,5.986-5.631,9.412-1.4,3.7-.492,7.876-.984,11.755a16.234,16.234,0,0,1-21.738,13.074" transform="translate(-155.909 -34.854)" fill="#fff"/>
      </g>
      <path id="Path_5385" data-name="Path 5385" d="M164.71,62.42h12.1V87.357a5.326,5.326,0,0,1-5.326,5.326h-1.437a5.326,5.326,0,0,1-5.326-5.326V62.42Z" transform="translate(-156.046 -35.281)" fill="#8dc63f"/>
      <path id="Path_5386" data-name="Path 5386" d="M164.71,62.245l6.045-11.1,6.055,11.1Z" transform="translate(-156.046 -35.107)" fill="#ffbe9d"/>
      <path id="Path_5387" data-name="Path 5387" d="M168.42,55.541s1.841,2.766,4.794,0l-2.392-4.391Z" transform="translate(-156.103 -35.107)" fill="#8dc63f"/>
      <path id="Path_5388" data-name="Path 5388" d="M176.976,86.516a38.393,38.393,0,0,1-6.153.246,38.247,38.247,0,0,1-6.143-.246,38.25,38.25,0,0,1,6.143-.246A38.4,38.4,0,0,1,176.976,86.516Z" transform="translate(-156.045 -35.651)" fill="#263238"/>
      <path id="Path_5389" data-name="Path 5389" d="M176.81,84.626a36.832,36.832,0,0,1-6.025.246,36.83,36.83,0,0,1-6.025-.246,38.986,38.986,0,0,1,6.025-.236,38.986,38.986,0,0,1,6.025.236Z" transform="translate(-156.046 -35.622)" fill="#263238"/>
      <path id="Path_5390" data-name="Path 5390" d="M168.316,62.6c.128,0,.246,4.824.246,10.78s-.118,10.829-.246,10.829-.246-4.834-.246-10.829S168.178,62.6,168.316,62.6Z" transform="translate(-156.098 -35.284)" fill="#fafafa"/>
      <path id="Path_5391" data-name="Path 5391" d="M173.286,62.6c.138,0,.246,4.824.246,10.78s-.108,10.829-.246,10.829-.246-4.834-.246-10.829S173.148,62.6,173.286,62.6Z" transform="translate(-156.175 -35.284)" fill="#fafafa"/>
    </g>
    <g id="freepik--Notebook--inject-59" transform="translate(210.536 394.046)">
      <path id="Path_5392" data-name="Path 5392" d="M270.785,408.72l54.964,2.353,1.329,3.2-36.032,58.479-65.035-1.9Z" transform="translate(-212.789 -399.845)" fill="#263238"/>
      <path id="Path_5393" data-name="Path 5393" d="M223.51,465.263,288.929,469l34.181-53.035-24,1.949L238.376,439.3Z" transform="translate(-212.75 -399.957)" fill="#e0e0e0"/>
      <path id="Path_5394" data-name="Path 5394" d="M214.145,461.194l60.054.984c-2.491-7.689,3.387-18.508,11.469-22.151,5.356-2.412,15.427-5.543,20.625-8.211,9.845-5.07,18.8-14.659,18.026-22.9l-24.691-.817-31.5-1.221c-2.638,7.817-8.27,12.926-16.835,16.008-7.659,2.757-16.382,2.747-23.864,5.907-12.031,5.041-17.809,21.373-13.33,32.429" transform="translate(-212.58 -399.816)" fill="#ebebeb"/>
      <path id="Path_5395" data-name="Path 5395" d="M214.145,461.19s-.059-.128-.148-.394l-.413-1.152a13.983,13.983,0,0,1-.512-1.969,19.993,19.993,0,0,1-.413-2.737,28.119,28.119,0,0,1,.473-7.64,28.551,28.551,0,0,1,3.859-9.53,23.185,23.185,0,0,1,1.723-2.422c.325-.384.64-.807.984-1.181l1.112-1.132a10.39,10.39,0,0,1,1.2-1.073c.423-.345.837-.709,1.29-1.034a22.094,22.094,0,0,1,2.954-1.752c4.164-2.1,9.136-2.954,14.314-3.938,2.6-.473,5.277-.984,7.955-1.7a37.209,37.209,0,0,0,7.925-3.19,26.17,26.17,0,0,0,3.692-2.422,22.17,22.17,0,0,0,3.278-3.1,23.626,23.626,0,0,0,4.568-8.053l.059-.167h.167l26.237.984c9.107.354,18.528.6,28.176.925l1.752.059h.217v.217a13.408,13.408,0,0,1-.788,5.553,21.1,21.1,0,0,1-1.1,2.56,24.749,24.749,0,0,1-1.437,2.363,36.555,36.555,0,0,1-7.443,7.876,44.152,44.152,0,0,1-8.988,5.543c-3.17,1.427-6.38,2.589-9.52,3.751s-6.252,2.264-9.2,3.544a18.371,18.371,0,0,0-4.046,2.461c-.64.453-1.172,1.034-1.752,1.536a10.805,10.805,0,0,0-1.546,1.733,22.309,22.309,0,0,0-4.2,7.876,14.668,14.668,0,0,0-.148,8.408l.089.266h-.276l-43.7-.768-12.119-.246-3.17-.089h3.18l12.119.138,43.692.61-.187.256a14.964,14.964,0,0,1,.128-8.644,22.5,22.5,0,0,1,4.263-8.053c.463-.63,1.044-1.172,1.565-1.762a11.039,11.039,0,0,1,1.792-1.585,18.192,18.192,0,0,1,4.135-2.51c2.953-1.3,6.084-2.412,9.225-3.574s6.34-2.333,9.481-3.751a43.173,43.173,0,0,0,8.86-5.493,35.965,35.965,0,0,0,7.344-7.758,26.489,26.489,0,0,0,1.427-2.284,20.661,20.661,0,0,0,1.073-2.491,13.006,13.006,0,0,0,.768-5.346l.236.217-1.762-.049c-9.648-.325-19.07-.581-28.166-.984l-26.246-.984.226-.158a24.3,24.3,0,0,1-4.667,8.2,22.441,22.441,0,0,1-3.347,3.15,25.589,25.589,0,0,1-3.761,2.451,36.945,36.945,0,0,1-8.014,3.209c-2.707.738-5.4,1.231-7.994,1.693-5.178.925-10.13,1.792-14.236,3.84A21.41,21.41,0,0,0,223.5,431.2c-.453.315-.856.679-1.28.984a10.209,10.209,0,0,0-1.191,1.063l-1.142,1.132c-.354.374-.66.788-.984,1.172a21.746,21.746,0,0,0-1.723,2.383,28.155,28.155,0,0,0-3.869,9.431,27.635,27.635,0,0,0-.541,7.581,19.029,19.029,0,0,0,.374,2.727,14.015,14.015,0,0,0,.473,1.969c.167.512.286.9.374,1.172A1.562,1.562,0,0,0,214.145,461.19Z" transform="translate(-212.58 -399.812)" fill="#263238"/>
      <path id="Path_5396" data-name="Path 5396" d="M285.985,407.743a10.315,10.315,0,0,0,.138-1.073,6.055,6.055,0,0,0-.473-2.835,5.818,5.818,0,0,0-2.835-3.052,6.5,6.5,0,0,0-8.723,3.347,7.275,7.275,0,0,0-.581,4.184,7.167,7.167,0,0,0,.984,2.7c.374.591.65.866.62.9a2.834,2.834,0,0,1-.768-.788,6.586,6.586,0,0,1-1.211-2.747,7.393,7.393,0,0,1,.5-4.43,6.891,6.891,0,0,1,9.333-3.564,6.064,6.064,0,0,1,2.954,3.327,5.759,5.759,0,0,1,.335,2.954,4.225,4.225,0,0,1-.2.8C286.044,407.665,286.005,407.743,285.985,407.743Z" transform="translate(-213.517 -399.705)" fill="#263238"/>
      <path id="Path_5397" data-name="Path 5397" d="M295.555,407.743c-.049,0,.079-.384.138-1.073a6.183,6.183,0,0,0-.472-2.835,5.848,5.848,0,0,0-2.845-3.052,6.507,6.507,0,0,0-8.723,3.347,7.266,7.266,0,0,0-.571,4.184,7.01,7.01,0,0,0,.984,2.7c.374.591.65.866.62.9a2.629,2.629,0,0,1-.778-.788,6.713,6.713,0,0,1-1.211-2.747,7.482,7.482,0,0,1,.512-4.43,6.891,6.891,0,0,1,9.323-3.564,6.064,6.064,0,0,1,2.953,3.328,5.905,5.905,0,0,1,.345,2.953,3.491,3.491,0,0,1-.207.8A.7.7,0,0,1,295.555,407.743Z" transform="translate(-213.666 -399.705)" fill="#263238"/>
      <path id="Path_5398" data-name="Path 5398" d="M302.8,408.249a10.014,10.014,0,0,0,.079-1.083,6.134,6.134,0,0,0-.63-2.806,5.828,5.828,0,0,0-3.013-2.875,6.557,6.557,0,0,0-5.06.1,6.635,6.635,0,0,0-3.456,3.721,7.314,7.314,0,0,0-.345,4.214,7.06,7.06,0,0,0,1.181,2.638c.4.561.7.827.669.857a2.639,2.639,0,0,1-.817-.738,6.656,6.656,0,0,1-1.369-2.678,7.472,7.472,0,0,1,.256-4.45,6.891,6.891,0,0,1,9.116-4.086,6.064,6.064,0,0,1,3.14,3.15,5.768,5.768,0,0,1,.512,2.953,3.515,3.515,0,0,1-.158.807A.57.57,0,0,1,302.8,408.249Z" transform="translate(-213.778 -399.718)" fill="#263238"/>
      <path id="Path_5399" data-name="Path 5399" d="M310.6,408.694v-1.083a6.025,6.025,0,0,0-.778-2.766,5.808,5.808,0,0,0-3.16-2.717,6.5,6.5,0,0,0-8.3,4.273,7.245,7.245,0,0,0-.118,4.223,7.157,7.157,0,0,0,1.319,2.579c.433.532.738.778.709.817a2.757,2.757,0,0,1-.857-.7,6.7,6.7,0,0,1-1.506-2.6,7.472,7.472,0,0,1,0-4.46,6.97,6.97,0,0,1,3.456-4.194,6.892,6.892,0,0,1,5.434-.364,6.1,6.1,0,0,1,3.308,2.953,5.809,5.809,0,0,1,.66,2.953,4.1,4.1,0,0,1-.108.807C310.654,408.605,310.624,408.694,310.6,408.694Z" transform="translate(-213.898 -399.73)" fill="#263238"/>
      <path id="Path_5400" data-name="Path 5400" d="M318.405,408.516v-1.083a6.035,6.035,0,0,0-.856-2.747,5.838,5.838,0,0,0-3.229-2.629,6.488,6.488,0,0,0-8.181,4.509,7.2,7.2,0,0,0,1.388,6.763c.453.522.768.758.738.788a2.511,2.511,0,0,1-.876-.66,6.812,6.812,0,0,1-1.575-2.56,7.452,7.452,0,0,1-.108-4.46,7,7,0,0,1,3.337-4.292,6.891,6.891,0,0,1,5.415-.512,6.123,6.123,0,0,1,3.4,2.875,5.838,5.838,0,0,1,.738,2.953,3.859,3.859,0,0,1-.089.817C318.455,408.418,318.425,408.516,318.405,408.516Z" transform="translate(-214.02 -399.73)" fill="#263238"/>
      <path id="Path_5401" data-name="Path 5401" d="M324.985,409.383V408.3a6.016,6.016,0,0,0-.748-2.776,5.838,5.838,0,0,0-3.121-2.747,6.488,6.488,0,0,0-8.349,4.174,7.236,7.236,0,0,0,1.113,6.813c.433.541.728.788.709.827a2.687,2.687,0,0,1-.847-.709,6.566,6.566,0,0,1-1.477-2.619,7.433,7.433,0,0,1,.069-4.46,6.97,6.97,0,0,1,3.5-4.155,6.891,6.891,0,0,1,5.434-.3,6.035,6.035,0,0,1,3.269,3.012,5.779,5.779,0,0,1,.63,2.953,3.94,3.94,0,0,1-.118.807C325.034,409.294,325,409.392,324.985,409.383Z" transform="translate(-214.122 -399.74)" fill="#263238"/>
    </g>
    <g id="freepik--air-balloon--inject-59" transform="translate(307.705 201.992)">
      <path id="Path_5402" data-name="Path 5402" d="M353.406,204.65a53.731,53.731,0,0,0-8.142.374,33.857,33.857,0,0,0-29.535,33.758,60.349,60.349,0,0,0,2.1,16.1c4.735,16.8,6.193,31.592,5.651,38.809l15.85,8.516s7.334-10.544,14.423-15.092,30.677-16.736,40.02-29.19c6.015-8.053,7.177-24.612-7.177-39.045A48.663,48.663,0,0,0,353.406,204.65Z" transform="translate(-311.349 -204.625)" fill="#8dc63f"/>
      <path id="Path_5403" data-name="Path 5403" d="M315.828,313.71l14.314,7.738-9.313,11.834-9.55-4.332Z" transform="translate(-311.28 -206.317)" fill="#455a64"/>
      <path id="Path_5404" data-name="Path 5404" d="M316.61,313.9c-.128-.049,1.29-4.3,3.17-9.491s3.5-9.372,3.633-9.323-1.29,4.292-3.17,9.491S316.738,313.943,316.61,313.9Z" transform="translate(-311.363 -206.029)" fill="#263238"/>
      <path id="Path_5405" data-name="Path 5405" d="M329.53,320.721c-.118-.069,2.127-4.086,5-8.969S339.838,303,339.966,303s-2.126,4.086-5.011,8.969S329.638,320.77,329.53,320.721Z" transform="translate(-311.563 -206.151)" fill="#263238"/>
      <g id="Group_1181" data-name="Group 1181" transform="translate(17.149 0.46)" opacity="0.4">
        <path id="Path_5406" data-name="Path 5406" d="M358.333,205.11c-.64,0-8.516,9.254-12,15.5-11.725,21-12.257,41.427-15.506,65.252-.463,3.406-2.156,10.741-2.126,10.573,1.733,1.359,7.561,4.066,7.561,4.066s5.5-6.635,7.689-9.973c8.742-13.36,18.243-23.785,25.735-37.893s14.7-26.581,7.768-41.014C377.452,211.617,365.422,204.706,358.333,205.11Z" transform="translate(-328.7 -205.093)"/>
      </g>
      <path id="Path_5407" data-name="Path 5407" d="M393.763,260.381a2.64,2.64,0,0,1-.207-.453c-.128-.3-.285-.758-.551-1.329a23.788,23.788,0,0,0-2.766-4.657,24.217,24.217,0,0,0-6.074-5.671,23.254,23.254,0,0,0-9.973-3.692h-.118l-.059-.079a56.246,56.246,0,0,0-6.389-7.344,32.233,32.233,0,0,0-8.732-6.005,22.437,22.437,0,0,0-10.327-1.969,17.042,17.042,0,0,0-9.028,3.013l-.148.1-.128-.118a17.72,17.72,0,0,0-9.648-4.283,17.4,17.4,0,0,0-8.2,1.044,18.41,18.41,0,0,0-4.706,2.648c-.492.394-.866.709-1.1.925a2.478,2.478,0,0,1-.384.315,4.3,4.3,0,0,1,.335-.364c.226-.236.581-.571,1.063-.984a17.278,17.278,0,0,1,4.706-2.786,17.494,17.494,0,0,1,8.339-1.162,18.006,18.006,0,0,1,9.894,4.322h-.276a17.435,17.435,0,0,1,9.264-3.121,22.958,22.958,0,0,1,10.544,1.969,32.488,32.488,0,0,1,8.86,6.114,54.933,54.933,0,0,1,6.419,7.433l-.148-.089a23.263,23.263,0,0,1,10.121,3.82,24.305,24.305,0,0,1,6.094,5.818,22.386,22.386,0,0,1,2.678,4.765c.246.581.384,1.053.492,1.359a3.811,3.811,0,0,1,.157.463Z" transform="translate(-311.341 -204.979)" fill="#263238"/>
      <path id="Path_5408" data-name="Path 5408" d="M364.357,281.813a10.219,10.219,0,0,0-1.368-3.436,9.352,9.352,0,0,0-3.042-2.954,8.516,8.516,0,0,0-5.247-1.24h-.2v-.2a13.81,13.81,0,0,0-20.133-10.042l-.148.079-.118-.128a10.042,10.042,0,0,0-5.5-2.953,11.094,11.094,0,0,0-4.922.158,11.547,11.547,0,0,0-3.938,1.969,1.241,1.241,0,0,1,.207-.217c.148-.128.364-.335.669-.561a9.933,9.933,0,0,1,2.953-1.428,11.126,11.126,0,0,1,5.07-.256,10.279,10.279,0,0,1,5.759,3.042l-.266-.049a14.324,14.324,0,0,1,5.651-1.634,14.511,14.511,0,0,1,6.36.984,13.98,13.98,0,0,1,6.074,4.745,14.147,14.147,0,0,1,2.638,6.33l-.226-.177a8.86,8.86,0,0,1,5.464,1.368,9.49,9.49,0,0,1,3.072,3.081,8.251,8.251,0,0,1,1.044,2.6,6.567,6.567,0,0,1,.108.728A1.162,1.162,0,0,1,364.357,281.813Z" transform="translate(-311.411 -205.491)" fill="#263238"/>
      <path id="Path_5409" data-name="Path 5409" d="M327.423,325.258a1.421,1.421,0,0,0-.522-.354,2.589,2.589,0,0,0-1.674.059,5.059,5.059,0,0,1-1.27.226,1.969,1.969,0,0,1-1.418-.62c-.758-.8-1.044-1.969-1.762-2.727a1.654,1.654,0,0,0-1.319-.561,8.239,8.239,0,0,0-1.5.305,3.356,3.356,0,0,1-1.5.079,2.865,2.865,0,0,1-2.117-2.2,1.143,1.143,0,0,1,0-.669,1.8,1.8,0,0,0,.167.63,2.894,2.894,0,0,0,.984,1.368,2.264,2.264,0,0,0,1.034.463,2.953,2.953,0,0,0,1.309-.118,7.877,7.877,0,0,1,1.585-.335,2.107,2.107,0,0,1,1.693.7c.837.984,1.093,2.067,1.733,2.747a1.6,1.6,0,0,0,1.1.532,4.548,4.548,0,0,0,1.172-.167,2.58,2.58,0,0,1,1.841.118C327.384,324.973,327.443,325.258,327.423,325.258Z" transform="translate(-311.327 -206.396)" fill="#263238"/>
      <path id="Path_5410" data-name="Path 5410" d="M329.083,322.885a60.479,60.479,0,0,1-6.98-3.446,63.9,63.9,0,0,1-6.763-3.879,63.1,63.1,0,0,1,6.99,3.446A64.315,64.315,0,0,1,329.083,322.885Z" transform="translate(-311.343 -206.346)" fill="#263238"/>
      <path id="Path_5411" data-name="Path 5411" d="M326.212,326.6s-.2.1-.541.256c-.177.079-.374.2-.65.315a2.422,2.422,0,0,1-.984.128,4.1,4.1,0,0,1-2.363-.916,3.238,3.238,0,0,1-.9-1.231,4.48,4.48,0,0,0-.7-1.29,3.318,3.318,0,0,0-2.589-.748,5.965,5.965,0,0,1-2.491-.236,2.323,2.323,0,0,1-1.26-1.152c-.158-.384-.1-.63-.079-.62a3.412,3.412,0,0,0,.256.532,2.245,2.245,0,0,0,1.211.916,5.908,5.908,0,0,0,2.343.108,3.682,3.682,0,0,1,2.953.866,4.924,4.924,0,0,1,.768,1.428,2.954,2.954,0,0,0,.758,1.093,4,4,0,0,0,2.1.906,2.954,2.954,0,0,0,1.536-.276C325.985,326.574,326.212,326.574,326.212,326.6Z" transform="translate(-311.317 -206.432)" fill="#263238"/>
    </g>
    <g id="freepik--Character--inject-59" transform="translate(148.859 96.051)">
      <path id="Path_5412" data-name="Path 5412" d="M216.556,232.978l24.76-3.672L229.5,212.57l-6.34.374a11.312,11.312,0,0,0-9.737,6.813h0a11.351,11.351,0,0,0-.719,6.635Z" transform="translate(-150.902 -98.807)" fill="#8dc63f"/>
      <path id="Path_5413" data-name="Path 5413" d="M216.556,232.978l24.76-3.672L229.5,212.57l-6.34.374a11.312,11.312,0,0,0-9.737,6.813h0a11.351,11.351,0,0,0-.719,6.635Z" transform="translate(-150.902 -98.807)" opacity="0.4"/>
      <path id="Path_5414" data-name="Path 5414" d="M324.234,260.107c.256.709.532,1.546.817,2.55a8.073,8.073,0,0,1,.266,2.658,12.327,12.327,0,0,1-.561,3.268c-.4.984.541,1.89,1.339,1.418s1.969-3.032,1.969-6.32,3.288.65,4.538,2.067,5.326,5.621,6.064,5.582c1.083-.059,1.221-1.231-.059-2.619s-4.834-5.808-4.056-6.439,7.039,6.685,7.039,6.685,1.083,1.782,1.969,1.093c1.674-1.25-5.562-8.526-6.271-9.2-.482-.473.335-1.181.837-.65s6.084,7.433,7.8,6.173c1.309-.984-5.907-6.035-6.261-8.1s5.08,4.4,6.291,3.436c.463-.364.748-.7-2.953-3.938-1.772-1.595-8.526-6.32-8.526-6.32l-20.32-58.174-15.693,8.988Z" transform="translate(-152.235 -98.508)" fill="#ffbe9d"/>
      <path id="Path_5415" data-name="Path 5415" d="M200.966,148.815l-22.7-27.093h0a15.81,15.81,0,0,0-1.112-2.707,8.516,8.516,0,0,0-5.356-4.47c-1.437-.315-3.091-.158-4.223-1.1-.5-.423-.837-.984-1.368-1.418a1.209,1.209,0,0,0-1.752.089,1.546,1.546,0,0,0,.1,1.359,12.631,12.631,0,0,0,3.938,5.08c-2.127.65-5.169,1.634-5.169,1.634s-4.794-5.208-7.256-5.2,1.969,4.657,1.969,4.657-3.938-3.643-5.159-2.619,1.91,3.731,1.91,3.731a5.218,5.218,0,0,0-3.2-.9c-1.112.187-2.067,1.5-1.467,2.451a2.56,2.56,0,0,0,.984.8l6.045,3.367a7.315,7.315,0,0,0,3.229,1.181c3.072.1,5.4-1.8,8.467-1.723,0,0,17.12,36.042,18.853,37.9s39.38,4.391,39.38,4.391l21.767-18.755Z" transform="translate(-149.932 -97.243)" fill="#ffbe9d"/>
      <path id="Path_5416" data-name="Path 5416" d="M270.953,348.83l23.185,10.091-12.4,28.915c-2.7-1.349-1.811-18.705-1.811-18.705L264.8,363.272Z" transform="translate(-151.713 -100.921)" fill="#8dc63f"/>
      <g id="Group_1182" data-name="Group 1182" transform="translate(130.539 258.287)" opacity="0.6">
        <path id="Path_5417" data-name="Path 5417" d="M282.766,359.833a1.29,1.29,0,0,1,1.7-.246,1.24,1.24,0,0,1,.246,1.684,1.349,1.349,0,0,1-1.792.246,1.28,1.28,0,0,1-.069-1.782" transform="translate(-282.527 -359.371)" fill="#fff"/>
      </g>
      <path id="Path_5418" data-name="Path 5418" d="M294.389,359.065l-2.382-.925L281,386.208s0,1.536.984,1.772Z" transform="translate(-151.964 -101.065)" fill="#fff" opacity="0.6"/>
      <path id="Path_5419" data-name="Path 5419" d="M279.789,369.848c.148.049.512-.63,1.27-1.122s1.5-.62,1.5-.768-.906-.3-1.8.325S279.652,369.819,279.789,369.848Z" transform="translate(-151.945 -101.215)" fill="#263238"/>
      <path id="Path_5420" data-name="Path 5420" d="M279.74,373.48c.128.1.63-.414,1.437-.64s1.487-.089,1.546-.226-.709-.581-1.7-.285S279.612,373.421,279.74,373.48Z" transform="translate(-151.945 -101.284)" fill="#263238"/>
      <path id="Path_5421" data-name="Path 5421" d="M282.634,376.831c.089-.118-.541-.62-1.467-.591s-1.516.561-1.428.669.679-.118,1.447-.128S282.556,376.988,282.634,376.831Z" transform="translate(-151.945 -101.346)" fill="#263238"/>
      <path id="Path_5422" data-name="Path 5422" d="M276.438,368.084c.158,0,.236-.738.64-1.506s.916-1.29.827-1.418-.857.256-1.309,1.172S276.3,368.1,276.438,368.084Z" transform="translate(-151.891 -101.174)" fill="#263238"/>
      <path id="Path_5423" data-name="Path 5423" d="M273.245,365.849a3.081,3.081,0,0,0,.61-1.447,6.755,6.755,0,0,0,.187-1.713,7.514,7.514,0,0,0-.079-.984,1.91,1.91,0,0,0-.158-.581.66.66,0,0,0-.719-.384.817.817,0,0,0-.591.473,2.149,2.149,0,0,0-.158.581,5.524,5.524,0,0,0,.226,2.747c.325.935.758,1.388.807,1.349s-.226-.561-.453-1.457a6.538,6.538,0,0,1-.167-1.6,6.419,6.419,0,0,1,.1-.984c.049-.335.158-.6.335-.62s.079,0,.148.1a1.969,1.969,0,0,1,.108.433,8.1,8.1,0,0,1,.108.984,8.408,8.408,0,0,1-.069,1.624,11.1,11.1,0,0,0-.236,1.487Z" transform="translate(-151.829 -101.105)" fill="#263238"/>
      <path id="Path_5424" data-name="Path 5424" d="M273.46,365.816a3.1,3.1,0,0,0-1.231-.984,5.02,5.02,0,0,0-1.674-.482,4.511,4.511,0,0,0-.984,0,1.329,1.329,0,0,0-1.132.61.748.748,0,0,0,.148.778,2.244,2.244,0,0,0,.473.374,3.533,3.533,0,0,0,.984.423,3.643,3.643,0,0,0,1.752,0c.985-.246,1.418-.758,1.378-.788a13.292,13.292,0,0,1-1.447.413,3.6,3.6,0,0,1-1.556-.118,3.338,3.338,0,0,1-.827-.394c-.286-.177-.482-.394-.4-.492a.876.876,0,0,1,.689-.305,5.09,5.09,0,0,1,.985,0,5.678,5.678,0,0,1,1.565.335C272.928,365.5,273.411,365.876,273.46,365.816Z" transform="translate(-151.769 -101.161)" fill="#263238"/>
      <path id="Path_5425" data-name="Path 5425" d="M252.91,389.091l9.589,20.093,3,18.134a2.274,2.274,0,0,0,2.776,1.841h0a2.254,2.254,0,0,0,1.585-1.359c1.762-4.361,8.171-20.458,7.384-21.885-.906-1.654-8.713-21.866-8.713-21.866Z" transform="translate(-151.529 -101.467)" fill="#8dc63f"/>
      <path id="Path_5426" data-name="Path 5426" d="M268.52,429.432l8.349-24.612.394.857a3.436,3.436,0,0,1,.167,2.363c-.61,2.1-2.412,7.876-7.266,20A2.264,2.264,0,0,1,268.52,429.432Z" transform="translate(-151.771 -101.789)" fill="#fff" opacity="0.6"/>
      <g id="Group_1183" data-name="Group 1183" transform="translate(117.81 297.735)" opacity="0.6">
        <path id="Path_5427" data-name="Path 5427" d="M269.777,400.06a1.368,1.368,0,0,0,.394,1.792,1.329,1.329,0,0,0,1.792-.374,1.467,1.467,0,0,0-.433-1.9,1.368,1.368,0,0,0-1.811.6" transform="translate(-269.597 -399.44)" fill="#fff"/>
      </g>
      <path id="Path_5428" data-name="Path 5428" d="M269.1,418.67a4.923,4.923,0,0,0-5.031-.177,1.589,1.589,0,0,1,.591-.591,3.524,3.524,0,0,1,1.969-.5,3.574,3.574,0,0,1,1.92.63C268.983,418.345,269.14,418.631,269.1,418.67Z" transform="translate(-151.702 -101.984)" fill="#263238"/>
      <path id="Path_5429" data-name="Path 5429" d="M268.932,422.1a16.986,16.986,0,0,0-2.186-.059,18.863,18.863,0,0,0-2.1.63c-.108-.079.679-.985,2.028-1.122A2.52,2.52,0,0,1,268.932,422.1Z" transform="translate(-151.711 -102.047)" fill="#263238"/>
      <path id="Path_5430" data-name="Path 5430" d="M270.215,413.907a22.2,22.2,0,0,0-3.367-.325,20.924,20.924,0,0,0-3.328.65,6.212,6.212,0,0,1,6.695-.325Z" transform="translate(-151.693 -101.917)" fill="#263238"/>
      <path id="Path_5431" data-name="Path 5431" d="M267.8,407.468c0,.148-1.329.177-2.816.788s-2.481,1.467-2.579,1.359a4.431,4.431,0,0,1,2.4-1.821,4.381,4.381,0,0,1,2.993-.325Z" transform="translate(-151.676 -101.828)" fill="#263238"/>
      <path id="Path_5432" data-name="Path 5432" d="M265.086,401.4a11.333,11.333,0,0,0-2.953.748,10.908,10.908,0,0,0-2.383,1.88c-.049,0,.049-.384.4-.856a4.8,4.8,0,0,1,1.772-1.467,4.854,4.854,0,0,1,2.235-.512C264.751,401.21,265.1,401.348,265.086,401.4Z" transform="translate(-151.635 -101.733)" fill="#263238"/>
      <path id="Path_5433" data-name="Path 5433" d="M261.62,400.922a2.293,2.293,0,0,1-.374-.758,5.957,5.957,0,0,1-.286-2.284,2.589,2.589,0,0,1,.5-1.585.916.916,0,0,1,.984-.246,1.536,1.536,0,0,1,.738.778,3.219,3.219,0,0,1-1.359,3.879,3.751,3.751,0,0,1-4.155-.276,1.29,1.29,0,0,1-.492-.985.9.9,0,0,1,.66-.817,3.239,3.239,0,0,1,1.654.1,6.36,6.36,0,0,1,2.1.984c.443.305.64.532.62.561a9.846,9.846,0,0,0-2.8-1.181,2.884,2.884,0,0,0-1.447-.049.482.482,0,0,0-.364.443.925.925,0,0,0,.364.61,3.337,3.337,0,0,0,3.6.207,2.8,2.8,0,0,0,1.24-3.318,1.034,1.034,0,0,0-.492-.561.482.482,0,0,0-.561.118,2.284,2.284,0,0,0-.453,1.339A8.733,8.733,0,0,0,261.62,400.922Z" transform="translate(-151.595 -101.652)" fill="#263238"/>
      <path id="Path_5434" data-name="Path 5434" d="M284.263,349.383l-26.3-17.721,8.7-85.444-24.908-14.541L218.991,226.4s-9.51,19.788-13.783,32.488c-9,26.945-15.309,36.6-13.862,56.116.453,6.183,23.273,21.659,37.686,30.234a46.834,46.834,0,0,0,.768,5.11c4.922,22.269,19.965,51.883,19.965,51.883l22.84-10.623-7.364-25.252,7.679,4.479Zm-56.52-55.132,3.072-13.694c-.65,8.713-1.24,17.8-1.664,26.512a27.211,27.211,0,0,1-1.408-12.789Z" transform="translate(-150.571 -99.022)" fill="#263238"/>
      <path id="Path_5435" data-name="Path 5435" d="M250.381,402.616a2.175,2.175,0,0,1-.177-.364l-.482-1.073-1.762-4.164c-1.516-3.633-3.692-8.86-6.3-15.407s-5.7-14.3-8.86-23.067c-.778-2.2-1.536-4.45-2.254-6.783-.315-1.181-.719-2.343-.925-3.593-.059-.305-.128-.62-.177-.925l-.108-.935-.207-1.871q-.413-3.78-.66-7.7c-.079-1.3-.148-2.619-.207-3.938a34.164,34.164,0,0,1,0-4.017c.394-10.731,1.29-20.911,2.038-30.175s1.467-17.593,2.058-24.612.984-12.67,1.181-16.6c.128-1.969.2-3.485.236-4.509l.069-1.181a1.49,1.49,0,0,1,0-.394,2.34,2.34,0,0,1,0,.394v1.181c0,1.034-.049,2.56-.138,4.519-.167,3.938-.512,9.609-1.034,16.618s-1.221,15.348-1.969,24.612-1.6,19.444-1.969,30.145c-.079,1.339,0,2.658,0,3.987s.118,2.629.207,3.938q.236,3.938.64,7.669l.207,1.88.108.925c.049.305.118.6.177.906.2,1.2.591,2.373.906,3.544.7,2.314,1.457,4.568,2.225,6.763,3.091,8.752,6.153,16.539,8.713,23.086s4.7,11.814,6.163,15.457c.719,1.811,1.29,3.219,1.684,4.2.177.463.325.827.423,1.093A1.412,1.412,0,0,0,250.381,402.616Z" transform="translate(-151.145 -99.408)" fill="#455a64"/>
      <path id="Path_5436" data-name="Path 5436" d="M232.825,248.075a4.041,4.041,0,0,1-.591-.482,6.211,6.211,0,0,1-1.112-1.792A19.138,19.138,0,0,1,230,239.027a57.333,57.333,0,0,1,.325-6.891,15.649,15.649,0,0,1,.394-2.806,16.645,16.645,0,0,1,0,2.835c-.089,1.743-.226,4.155-.187,6.813a22.023,22.023,0,0,0,.984,6.665,7.61,7.61,0,0,0,.935,1.782A3.794,3.794,0,0,1,232.825,248.075Z" transform="translate(-151.173 -99.067)" fill="#455a64"/>
      <path id="Path_5437" data-name="Path 5437" d="M222.758,227.72a5.73,5.73,0,0,1,.2,2.382,11.026,11.026,0,0,1-6.291,9.235,5.819,5.819,0,0,1-2.294.689c0-.079.856-.315,2.136-.984a11.656,11.656,0,0,0,6.1-8.949C222.778,228.636,222.669,227.72,222.758,227.72Z" transform="translate(-150.931 -99.042)" fill="#455a64"/>
      <path id="Path_5438" data-name="Path 5438" d="M264.293,278.18v.256a3.933,3.933,0,0,1-.059.758q-.118,1.063-.3,2.953c-.286,2.569-.679,6.222-1.172,10.711-.984,9.087-2.442,21.56-4,35.353a64.356,64.356,0,0,0,1.29,19.395,66.95,66.95,0,0,0,2.373,8.171c.886,2.52,1.7,4.873,2.461,7.029,1.487,4.273,2.688,7.748,3.534,10.189.394,1.181.709,2.107.984,2.776l.236.729a.787.787,0,0,1,.059.246.54.54,0,0,0-.108-.236,4.109,4.109,0,0,1-.276-.709c-.256-.66-.591-1.575-.984-2.747l-3.682-10.13c-.768-2.146-1.615-4.5-2.52-7.01a66.509,66.509,0,0,1-2.432-8.22,63.932,63.932,0,0,1-1.349-19.532c1.536-13.832,3.072-26.3,4.145-35.343.561-4.489.984-8.142,1.329-10.7.158-1.24.285-2.205.384-2.953a4.22,4.22,0,0,1,.108-.748A.836.836,0,0,1,264.293,278.18Z" transform="translate(-151.61 -99.825)" fill="#455a64"/>
      <path id="Path_5439" data-name="Path 5439" d="M219.43,226.088l4.036-10.308,9.2,13.724-12.277-3.062" transform="translate(-151.009 -98.857)" fill="#ffbe9d"/>
      <path id="Path_5440" data-name="Path 5440" d="M315.6,194.02l-10.918-24.484c-1.309-3.938-3.761-4.548-5.808-6.832l-27.359-15.427c-19.946-8.171-30.8,19.217-30.8,19.217L222.59,207.842c-21.314,7.059-6.222,23.431-6.222,23.431s-5.8-10.081-.089-13.714c5.966-3.81,12.582,6.222,18.942,15.752,7.512,11.243,31.907,18.548,31.907,18.548,2.855-3.013,2.058-13.537,4.292-19.188.709-1.782,17.6-40.915,17.6-40.915l6.547,15.86s8.388-9.845,12.464-11.4A46.4,46.4,0,0,1,315.6,194.02Z" transform="translate(-150.882 -97.771)" fill="#8dc63f"/>
      <path id="Path_5441" data-name="Path 5441" d="M267.634,212.4a4.086,4.086,0,0,1-.827.581,16,16,0,0,1-2.491,1.172,17.81,17.81,0,0,1-17.288-2.668,15.325,15.325,0,0,1-2.018-1.871,3.209,3.209,0,0,1-.61-.8c.069-.069.984,1.044,2.835,2.392a18.5,18.5,0,0,0,16.963,2.619C266.384,213.1,267.634,212.325,267.634,212.4Z" transform="translate(-151.397 -98.749)" fill="#263238"/>
      <path id="Path_5442" data-name="Path 5442" d="M222,172.567h0l16.884,1.595,27.014-28.55L250,145.06l-28.284,2.8A73.384,73.384,0,0,1,222,172.567Z" transform="translate(-151.045 -97.76)" fill="#8dc63f"/>
      <path id="Path_5443" data-name="Path 5443" d="M245.413,157.74a1.782,1.782,0,0,1-.207.522l-.679,1.457c-.61,1.319-1.467,3.141-2.5,5.346-2.1,4.529-4.922,10.829-7.876,17.819s-5.769,13.32-7.876,17.859c-1.034,2.274-1.89,4.1-2.5,5.356l-.719,1.437a2.4,2.4,0,0,1-.286.492,3.26,3.26,0,0,1,.2-.532l.63-1.477,2.363-5.415c1.969-4.637,4.716-10.948,7.709-17.918s5.907-13.271,8.043-17.77c1.093-2.245,1.969-4.046,2.648-5.287.315-.571.561-1.044.758-1.418A2.609,2.609,0,0,1,245.413,157.74Z" transform="translate(-151.061 -97.957)" fill="#263238"/>
      <path id="Path_5444" data-name="Path 5444" d="M297.979,166.17c.049.089-.984.63-2.432,1.851a17.467,17.467,0,0,0-2.274,2.353,19.281,19.281,0,0,0-2.146,3.4,20.075,20.075,0,0,0-1.339,3.78,17.2,17.2,0,0,0-.433,3.259c-.069,1.871.148,3.032.049,3.042a2.855,2.855,0,0,1-.2-.8,5.808,5.808,0,0,1-.138-.984,10.239,10.239,0,0,1-.069-1.3,15.437,15.437,0,0,1,.345-3.347,18.7,18.7,0,0,1,1.329-3.938,18.911,18.911,0,0,1,2.235-3.465,15.926,15.926,0,0,1,2.412-2.333,9.283,9.283,0,0,1,1.053-.748,6.028,6.028,0,0,1,.837-.5A2.58,2.58,0,0,1,297.979,166.17Z" transform="translate(-152.088 -98.088)" fill="#263238"/>
      <path id="Path_5445" data-name="Path 5445" d="M302.342,125.921,286.5,155.535a10.455,10.455,0,0,1-13.478,4.607h0a10.445,10.445,0,0,1-4.922-14.413l2.727-5.139s-6.891-4.46-3.662-11.9c2.875-6.635,13.428-25.38,15.663-29.338l13.35,5.976a14.994,14.994,0,0,1,6.163,20.6Z" transform="translate(-151.736 -97.051)" fill="#ffbe9d"/>
      <path id="Path_5446" data-name="Path 5446" d="M270.886,141.13a18.892,18.892,0,0,0,10.879,1.575s-4.667,4.3-11.755.335Z" transform="translate(-151.794 -97.699)" fill="#eb996e"/>
      <path id="Path_5447" data-name="Path 5447" d="M276.068,117.071a1.162,1.162,0,0,0,.541,1.526,1.112,1.112,0,0,0,1.516-.463,1.162,1.162,0,0,0-.541-1.526,1.112,1.112,0,0,0-1.516.463Z" transform="translate(-151.886 -97.317)" fill="#263238"/>
      <path id="Path_5448" data-name="Path 5448" d="M276.13,116.123c.069.2,1.132,0,2.274.473s1.713,1.447,1.9,1.368.059-.345-.177-.768a3.229,3.229,0,0,0-1.447-1.27,3.091,3.091,0,0,0-1.89-.207C276.327,115.827,276.091,115.995,276.13,116.123Z" transform="translate(-151.889 -97.304)" fill="#263238"/>
      <path id="Path_5449" data-name="Path 5449" d="M286.878,122.391a1.152,1.152,0,0,0,.541,1.526,1.113,1.113,0,0,0,1.516-.473,1.162,1.162,0,0,0-.541-1.516,1.1,1.1,0,0,0-1.516.463Z" transform="translate(-152.054 -97.399)" fill="#263238"/>
      <path id="Path_5450" data-name="Path 5450" d="M287.39,121.413c.069.2,1.132,0,2.274.473s1.713,1.457,1.9,1.378.069-.345-.177-.778a3.219,3.219,0,0,0-1.447-1.26,3.022,3.022,0,0,0-1.89-.207C287.587,121.127,287.351,121.324,287.39,121.413Z" transform="translate(-152.063 -97.386)" fill="#263238"/>
      <path id="Path_5451" data-name="Path 5451" d="M279.318,127.964a8.566,8.566,0,0,0-1.693-1.152c-.276-.167-.532-.345-.492-.561a1.929,1.929,0,0,1,.581-.778l1.851-1.831a42.09,42.09,0,0,0,4.519-4.922,40.976,40.976,0,0,0-4.922,4.538l-1.821,1.861a1.841,1.841,0,0,0-.66,1.073.837.837,0,0,0,.285.64,2.276,2.276,0,0,0,.463.285A7.542,7.542,0,0,0,279.318,127.964Z" transform="translate(-151.897 -97.352)" fill="#263238"/>
      <path id="Path_5452" data-name="Path 5452" d="M282.321,130.43c-.177-.089-.729,1.142-2.176,1.546s-2.707-.315-2.8-.148.187.364.738.63a3.337,3.337,0,0,0,2.294.2,2.9,2.9,0,0,0,1.752-1.329C282.41,130.834,282.41,130.469,282.321,130.43Z" transform="translate(-151.908 -97.533)" fill="#263238"/>
      <path id="Path_5453" data-name="Path 5453" d="M289.12,116.755c0,.364,1.172.719,2.432,1.477s2.186,1.6,2.481,1.408c.138-.1.079-.473-.217-.984a5,5,0,0,0-3.751-2.2C289.494,116.46,289.13,116.588,289.12,116.755Z" transform="translate(-152.09 -97.317)" fill="#263238"/>
      <path id="Path_5454" data-name="Path 5454" d="M278.05,112.991c.089.354.984.433,1.969.837s1.664.985,1.969.768.138-.413-.108-.807a2.826,2.826,0,0,0-1.368-1.122,2.885,2.885,0,0,0-1.772-.167C278.247,112.578,278,112.794,278.05,112.991Z" transform="translate(-151.919 -97.254)" fill="#263238"/>
      <path id="Path_5455" data-name="Path 5455" d="M297.794,130.85c.158,0,5.759.768,3.337,5.759s-6.891,1.526-6.891,1.378S297.794,130.85,297.794,130.85Z" transform="translate(-152.17 -97.54)" fill="#ffbe9d"/>
      <path id="Path_5456" data-name="Path 5456" d="M296.74,136.874s.059.1.167.246a.984.984,0,0,0,.65.325A2.4,2.4,0,0,0,299.526,136a3.23,3.23,0,0,0,.364-1.359,1.122,1.122,0,0,0-.335-.985.492.492,0,0,0-.63,0c-.128.108-.148.217-.177.217s-.069-.138.069-.325a.63.63,0,0,1,.354-.217.738.738,0,0,1,.541.108,1.369,1.369,0,0,1,.532,1.211,3.3,3.3,0,0,1-.374,1.536,2.52,2.52,0,0,1-2.314,1.546,1.113,1.113,0,0,1-.738-.522C296.69,137,296.72,136.874,296.74,136.874Z" transform="translate(-152.208 -97.578)" fill="#eb996e"/>
      <path id="Path_5457" data-name="Path 5457" d="M300.541,131.545a2.953,2.953,0,0,0-2.953.167c-.65.571-1.093,1.359-1.743,1.969a1.969,1.969,0,0,1-2.382.374,1.7,1.7,0,0,1-.532-1.624,4.706,4.706,0,0,1,.719-1.644c1.349-2.225,2.894-4.351,4.056-6.685a13.281,13.281,0,0,0,1.585-7.551,7.285,7.285,0,0,0-4.43-5.976c-1.624-.571-3.436-.4-5.1-.876a6.8,6.8,0,0,1-4.371-4.017,11.819,11.819,0,0,0-.65-1.122c.059-.118.65-1.122,1.231-1.319,4.391-1.487,10.327.217,13.96,3.081a16.136,16.136,0,0,1,6.222,12.09c.049,4.627-2.865,9.727-5.572,13.172" transform="translate(-152.022 -97.103)" fill="#263238"/>
      <path id="Path_5458" data-name="Path 5458" d="M300.519,130.916c1.388-2.363,3.633-4.066,5.346-6.192s2.954-5.129,1.674-7.571c-.413-.837-1.083-1.536-1.428-2.4a11.9,11.9,0,0,1-.492-2.766,9.609,9.609,0,0,0-4.765-6.891c-1.752-.985-3.771-1.378-5.553-2.314-2.806-1.477-4.863-4.214-7.876-5.385a3.741,3.741,0,0,0-3.062-.1,1.851,1.851,0,0,0-.758,2.648,1.6,1.6,0,0,0-2.215-1.063,2.422,2.422,0,0,0-1.25,2.373,5.267,5.267,0,0,0,1.073,2.6,13.33,13.33,0,0,0,7.581,5.228l6.8-.532,5.572,4.125,4.115,6.567-7.472,9.707Z" transform="translate(-151.951 -97.015)" fill="#263238"/>
    </g>
    <g id="freepik--light-bulb--inject-59" transform="translate(206.95 68.754)">
      <path id="Path_5459" data-name="Path 5459" d="M256.894,91.746A24,24,0,1,0,224.14,115.62c.187,2.835.394,6.045.394,6.045l20.989-1.359s-.089-3.4-.246-6.429a23.982,23.982,0,0,0,11.617-22.131Z" transform="translate(-208.937 -69.288)" fill="#8dc63f"/>
      <path id="Path_5460" data-name="Path 5460" d="M238.108,121.083v-1.172c0-.758.108-1.89.226-3.337s.286-3.229.61-5.267a36.34,36.34,0,0,1,1.743-6.813,23.274,23.274,0,0,1,1.743-3.712,4.46,4.46,0,0,1,1.546-1.575,2.471,2.471,0,0,1,2.274-.069,1.625,1.625,0,0,1,.817.9,1.644,1.644,0,0,1,0,1.24,3.436,3.436,0,0,1-1.743,1.713,6.6,6.6,0,0,1-8.575-3.81,5.04,5.04,0,0,1-.325-2.757,2.156,2.156,0,0,1,2.077-1.8,1.516,1.516,0,0,1,1.27.768,2.156,2.156,0,0,1,.286,1.457,4.706,4.706,0,0,1-1.526,2.491,7.128,7.128,0,0,1-5.484,1.969,6.242,6.242,0,0,1-4.854-3.15,3.633,3.633,0,0,1-.345-2.894,1.752,1.752,0,0,1,2.461-1.083,2.441,2.441,0,0,1,1.083.984,3.821,3.821,0,0,1,.453,1.359,6.822,6.822,0,0,1-.187,2.757,7.128,7.128,0,0,1-3.121,4.233,7.265,7.265,0,0,1-4.922.984,3.83,3.83,0,0,1-2.225-.984,1.851,1.851,0,0,1-.286-2.294,1.585,1.585,0,0,1,1.044-.6,2.333,2.333,0,0,1,1.162.148,3.426,3.426,0,0,1,1.565,1.555c.689,1.26,1.25,2.491,1.821,3.662,2.225,4.706,3.84,8.595,4.922,11.292.541,1.349.984,2.4,1.221,3.111.128.354.226.63.305.817a2.155,2.155,0,0,1,.089.285l-.118-.276-.335-.8-1.27-3.1c-1.122-2.678-2.766-6.557-5.011-11.243-.571-1.162-1.152-2.412-1.831-3.643a3.239,3.239,0,0,0-1.457-1.447,1.654,1.654,0,0,0-1.92.374,1.624,1.624,0,0,0,.276,1.969,3.564,3.564,0,0,0,2.077.916,7,7,0,0,0,4.735-.984,6.891,6.891,0,0,0,2.953-4.076,6.5,6.5,0,0,0,.177-2.648,2.589,2.589,0,0,0-1.368-2.117,1.5,1.5,0,0,0-1.25,0,1.526,1.526,0,0,0-.817.984,3.337,3.337,0,0,0,.325,2.658,5.976,5.976,0,0,0,4.627,2.953,6.823,6.823,0,0,0,5.247-1.9,4.44,4.44,0,0,0,1.427-2.3,1.9,1.9,0,0,0-.246-1.27,1.26,1.26,0,0,0-1.034-.63,1.742,1.742,0,0,0-1.172.463,1.969,1.969,0,0,0-.61,1.112,4.716,4.716,0,0,0,.305,2.6,6.33,6.33,0,0,0,8.27,3.672,3.19,3.19,0,0,0,1.615-1.575,1.418,1.418,0,0,0-.669-1.821,2.235,2.235,0,0,0-2.058.059,4.273,4.273,0,0,0-1.447,1.477,23.268,23.268,0,0,0-1.733,3.662,35.894,35.894,0,0,0-1.772,6.754c-.345,2.038-.532,3.81-.669,5.257s-.207,2.56-.276,3.337c0,.364-.059.66-.069.866A2.672,2.672,0,0,1,238.108,121.083Z" transform="translate(-209.122 -69.671)" fill="#263238"/>
      <path id="Path_5461" data-name="Path 5461" d="M244.4,125.117l-18.016,1.172a1.368,1.368,0,0,1-1.447-1.27h0a1.359,1.359,0,0,1,1.27-1.437l18.026-1.162a1.349,1.349,0,0,1,1.437,1.26h0A1.359,1.359,0,0,1,244.4,125.117Z" transform="translate(-209.185 -70.112)" fill="#263238"/>
      <path id="Path_5462" data-name="Path 5462" d="M244.486,126.36l-18.026,1.172a1.352,1.352,0,0,0,.177,2.7l1.969-.128,2.953,4.834a1.762,1.762,0,0,0,1.6.827l6.439-.413a1.782,1.782,0,0,0,1.487-1.044l2.225-5.149,1.349-.089a1.359,1.359,0,0,0-.177-2.707Z" transform="translate(-209.189 -70.173)" fill="#263238"/>
      <g id="Group_1184" data-name="Group 1184" transform="translate(2.687 4.838)" opacity="0.2">
        <path id="Path_5463" data-name="Path 5463" d="M216.612,79.1a17.445,17.445,0,0,1,4.6-3.495,12.965,12.965,0,0,1,3.584-1.319c.906-.148,1.428-.1,1.487.089.128.433-1.644,1.191-3.938,2.953a19.749,19.749,0,0,0-7.728,19.926c.522,2.9,1.319,4.657.984,4.922-.177.108-.591-.207-1.152-.925a12.455,12.455,0,0,1-1.792-3.416,17.564,17.564,0,0,1-.984-5.671,18.7,18.7,0,0,1,1.231-7.039" transform="translate(-211.667 -74.202)" fill="#fff"/>
      </g>
      <g id="Group_1185" data-name="Group 1185" transform="translate(20.04 2.731)" opacity="0.2">
        <path id="Path_5464" data-name="Path 5464" d="M232.4,75.013c-1.516.079-2.885-.246-3.091-1.044-.089-.394.167-.837.689-1.2a4.863,4.863,0,0,1,4.529-.276c.571.305.866.719.827,1.122" transform="translate(-229.292 -72.062)" fill="#fff"/>
      </g>
      <path id="Path_5465" data-name="Path 5465" d="M240.866,134.867a10.5,10.5,0,0,1-1.27-.305,10.494,10.494,0,0,0-3.081-.187,10.633,10.633,0,0,0-2.953.758c-.729.315-1.162.571-1.181.532a3.653,3.653,0,0,1,1.093-.719,8.861,8.861,0,0,1,3.052-.856,8.7,8.7,0,0,1,3.16.276A3.81,3.81,0,0,1,240.866,134.867Z" transform="translate(-209.301 -70.292)" fill="#455a64"/>
      <path id="Path_5466" data-name="Path 5466" d="M243.421,129.26c0,.079-3.249.354-7.275.62s-7.275.4-7.285.315,3.249-.354,7.266-.61S243.411,129.181,243.421,129.26Z" transform="translate(-209.246 -70.217)" fill="#455a64"/>
      <path id="Path_5467" data-name="Path 5467" d="M242.449,131.51a10.83,10.83,0,0,1-1.762.285c-1.093.148-2.609.305-4.292.443s-3.2.207-4.3.236a9.844,9.844,0,0,1-1.782,0,9.925,9.925,0,0,1,1.772-.2l4.292-.325,4.292-.354a10.5,10.5,0,0,1,1.782-.089Z" transform="translate(-209.269 -70.253)" fill="#455a64"/>
    </g>
    <g id="freepik--Book--inject-59" transform="translate(80.782 182.258)">
      <path id="Path_5468" data-name="Path 5468" d="M110.8,253.855l3.938,6.271S131.474,244.758,148,249.1C147.974,249.08,133.089,236.459,110.8,253.855Z" transform="translate(-81.248 -185.512)" fill="#8dc63f"/>
      <path id="Path_5469" data-name="Path 5469" d="M148.56,248.916s12.257-13.31,30.234-10.278l4.922.738-1.555-2.825S150.864,225.84,148.56,248.916Z" transform="translate(-81.834 -185.348)" fill="#8dc63f"/>
      <path id="Path_5470" data-name="Path 5470" d="M121.64,203.544S97.087,199.32,81,208.033l25.6,48.122s20.93-20.172,40.955-7.748Z" transform="translate(-80.786 -184.858)" fill="#f5f5f5"/>
      <path id="Path_5471" data-name="Path 5471" d="M121.636,203.542a1.7,1.7,0,0,1,.138.2l.364.61,1.418,2.392,5.316,9.116L147.7,248.346a.217.217,0,0,1-.3.3,27.044,27.044,0,0,0-9.422-3.613,29.536,29.536,0,0,0-5.306-.374,33.363,33.363,0,0,0-5.434.689,46.665,46.665,0,0,0-20.3,10.829l-.217.2a.236.236,0,0,1-.345,0v-.049L80.81,208.129a.187.187,0,0,1,.079-.266h0a49.509,49.509,0,0,1,16.362-4.873,83.222,83.222,0,0,1,13.1-.571c3.623.128,6.448.413,8.358.65.984.118,1.693.226,2.186.315l.561.1h-.01l-.561-.069c-.492-.059-1.221-.158-2.186-.256-1.969-.2-4.745-.443-8.358-.532a83.6,83.6,0,0,0-13.044.66,49.392,49.392,0,0,0-16.215,4.922l.079-.266,25.6,48.122-.384-.069.217-.2a51.834,51.834,0,0,1,9.786-6.891,40.855,40.855,0,0,1,10.751-4.076,32.215,32.215,0,0,1,5.523-.689,28.787,28.787,0,0,1,5.395.384,27.7,27.7,0,0,1,9.569,3.692l-.305.3L128.7,216.025l-5.237-9.2-1.368-2.442c-.148-.276-.266-.482-.345-.64a1.652,1.652,0,0,1-.108-.207Z" transform="translate(-80.782 -184.856)" fill="#263238"/>
      <path id="Path_5472" data-name="Path 5472" d="M160.877,193.479s-18.567-11.814-38.277,9.845l25.872,44.883s5.277-18.213,36.17-11.883Z" transform="translate(-81.431 -184.668)" fill="#f5f5f5"/>
      <path id="Path_5473" data-name="Path 5473" d="M160.874,193.476a.868.868,0,0,1,.128.187c.079.148.2.335.335.581l1.309,2.284,4.922,8.7,17.258,31.041a.189.189,0,0,1-.226.286h0L180,235.8a21.062,21.062,0,0,0-2.373-.266l-2.422-.2a20.667,20.667,0,0,0-2.471-.059l-2.491.01c-.847,0-1.683.167-2.53.246a18.859,18.859,0,0,0-2.54.384l-2.53.571-2.491.876a26.359,26.359,0,0,0-2.4,1.112,7.513,7.513,0,0,0-1.162.66l-1.132.729c-.748.5-1.418,1.112-2.117,1.674a22.356,22.356,0,0,0-1.861,1.969,15.507,15.507,0,0,0-2.757,4.726h0a.246.246,0,0,1-.315.148.236.236,0,0,1-.128-.108l-1.044-1.8c-9.146-15.9-17.721-30.716-24.8-43.091a.226.226,0,0,1,0-.246A43.554,43.554,0,0,1,136.449,192.6a27.979,27.979,0,0,1,13.222-2.481,27.152,27.152,0,0,1,8.457,1.89,20.939,20.939,0,0,1,2.067.984l.512.3.158.118-.177-.089-.522-.266c-.463-.226-1.152-.561-2.077-.916a27.635,27.635,0,0,0-21.5.778,43.4,43.4,0,0,0-13.842,10.5v-.236L147.6,246.3l1.083,1.782-.453.059a16.2,16.2,0,0,1,2.845-4.922,26.711,26.711,0,0,1,1.91-2.038c.729-.581,1.408-1.211,2.176-1.713l1.152-.748a7.875,7.875,0,0,1,1.191-.669c.827-.384,1.6-.847,2.451-1.142l2.53-.876,2.579-.581a17.722,17.722,0,0,1,2.579-.384c.856-.079,1.7-.236,2.55-.246h2.53a17.474,17.474,0,0,1,2.491.059l2.442.207a19.122,19.122,0,0,1,2.392.266l4.627.778-.226.315c-7.059-12.8-12.956-23.519-17.11-31.071-2.058-3.751-3.682-6.724-4.794-8.772l-1.26-2.323c-.128-.256-.236-.453-.315-.6A1.61,1.61,0,0,1,160.874,193.476Z" transform="translate(-81.428 -184.665)" fill="#263238"/>
      <path id="Path_5474" data-name="Path 5474" d="M88,184.62l27.694,53.31s22.5-.984,32.025,9.983l-25.656-44.647S107.02,184.62,88,184.62Z" transform="translate(-80.894 -184.581)" fill="#f5f5f5"/>
      <path id="Path_5475" data-name="Path 5475" d="M88,184.619h.709l2.127.089h.748l.817.138,1.851.305a14.924,14.924,0,0,1,2.117.512,24.159,24.159,0,0,1,2.373.7c6.616,2.205,15.5,7.541,23.47,16.736h0l25.7,44.617a.246.246,0,0,1-.089.335.236.236,0,0,1-.3,0h0l-1.083-1.083a23.48,23.48,0,0,0-7.088-4.676,40.361,40.361,0,0,0-7.925-2.6,66.157,66.157,0,0,0-15.752-1.555h0a.236.236,0,0,1-.207-.118c-8.073-15.653-14.964-29.033-19.857-38.5-2.382-4.676-4.292-8.417-5.641-11-.64-1.25-1.142-2.225-1.487-2.953l-.374-.738-.118-.246a1.389,1.389,0,0,1,.148.266l.413.758,1.556,2.953L95.876,199.6l19.985,38.218-.207-.118a66.149,66.149,0,0,1,15.86,1.536,41.429,41.429,0,0,1,8.014,2.619,24.011,24.011,0,0,1,7.226,4.785l1.122,1.1-.4.285c-9.52-16.589-18.331-31.966-25.6-44.656h0a64.582,64.582,0,0,0-12.119-10.967,46.694,46.694,0,0,0-11.105-5.789,24.329,24.329,0,0,0-2.363-.719,14.562,14.562,0,0,0-2.1-.532l-1.841-.335-.8-.148-.729-.059Z" transform="translate(-80.894 -184.58)" fill="#263238"/>
    </g>
    <g id="freepik--Stars--inject-59" transform="translate(115.611 103.912)">
      <path id="Path_5476" data-name="Path 5476" d="M175.735,338.2l.591.984a6.793,6.793,0,0,0,2.8,2.579l.984.512-.984.591a6.892,6.892,0,0,0-2.579,2.8l-.512,1.034-.591-.984a6.793,6.793,0,0,0-2.8-2.579l-1.034-.512.984-.591a6.725,6.725,0,0,0,2.579-2.8Z" transform="translate(-117.02 -108.617)" fill="#8dc63f"/>
      <path id="Path_5477" data-name="Path 5477" d="M120.295,131.93l.591.984a6.773,6.773,0,0,0,2.8,2.57l.984.512-.984.6a6.675,6.675,0,0,0-2.579,2.8l-.512.984-.591-.984a6.754,6.754,0,0,0-2.806-2.579l-1.034-.512.984-.591a6.891,6.891,0,0,0,2.579-2.806Z" transform="translate(-116.16 -105.418)" fill="#8dc63f"/>
      <path id="Path_5478" data-name="Path 5478" d="M376.876,167.52l.591.984a6.754,6.754,0,0,0,2.806,2.579l1.034.512-.984.591a6.793,6.793,0,0,0-2.569,2.806l-.512.984-.6-.984a6.714,6.714,0,0,0-2.8-2.57l-1.044-.492.985-.6a6.675,6.675,0,0,0,2.579-2.8Z" transform="translate(-120.14 -105.97)" fill="#8dc63f"/>
      <path id="Path_5479" data-name="Path 5479" d="M346.576,351.15l.591.984a6.793,6.793,0,0,0,2.806,2.569l1.034.512-.984.6a6.8,6.8,0,0,0-2.579,2.8l-.5,1.034-.6-.984a6.724,6.724,0,0,0-2.8-2.579l-1.034-.512.984-.591a6.753,6.753,0,0,0,2.579-2.806Z" transform="translate(-119.671 -108.818)" fill="#8dc63f"/>
      <path id="Path_5480" data-name="Path 5480" d="M352.408,389.74l.285.118a1.842,1.842,0,0,0,.984.1l.305-.059-.118.285a1.841,1.841,0,0,0-.1.984l.059.305-.286-.118a1.85,1.85,0,0,0-.984-.1l-.305.059.118-.286a1.84,1.84,0,0,0,.1-.984Z" transform="translate(-119.822 -109.416)" fill="#8dc63f"/>
      <path id="Path_5481" data-name="Path 5481" d="M369.858,128.81l.276.118a1.871,1.871,0,0,0,.984.1l.3-.059-.108.286a1.752,1.752,0,0,0-.1.984l.059.305-.285-.118a1.87,1.87,0,0,0-.984-.1l-.3.059.108-.286a1.752,1.752,0,0,0,.1-.984Z" transform="translate(-120.092 -105.369)" fill="#8dc63f"/>
      <path id="Path_5482" data-name="Path 5482" d="M131.628,105l.286.108a1.753,1.753,0,0,0,.984.1h.305l-.118.276a1.871,1.871,0,0,0-.1.984l.059.3-.285-.108a1.753,1.753,0,0,0-.984-.1h-.305l.118-.276a1.871,1.871,0,0,0,.1-.984Z" transform="translate(-116.397 -105)" fill="#8dc63f"/>
      <path id="Path_5483" data-name="Path 5483" d="M161,308.16l.285.108a1.674,1.674,0,0,0,.984.1l.305-.049-.118.285a1.841,1.841,0,0,0-.1.984l.059.3-.286-.108a1.752,1.752,0,0,0-.984-.1l-.305.059.118-.286a1.87,1.87,0,0,0,.1-.984Z" transform="translate(-116.853 -108.151)" fill="#8dc63f"/>
      <path id="Path_5484" data-name="Path 5484" d="M191.979,386.69l-.276.285-.817.817-3.18,3.141-11.814,11.391v-.118c.62,12.355,1.408,29.092,2.235,47.8v.414l-.354-.226-4.263-2.855L146.5,429.25h-.059v-.059c-4.036-12.04-7.433-22.2-9.845-29.367-1.181-3.564-2.107-6.38-2.757-8.329l-.709-2.215q-.118-.354-.177-.561a.437.437,0,0,0-.049-.2l.079.177.207.561c.177.522.433,1.25.768,2.2l2.855,8.3c2.442,7.157,5.907,17.288,9.983,29.308l-.079-.1,27.044,18.056,4.263,2.845-.335.187c-.8-18.705-1.516-35.442-2.048-47.817v-.069h.049l11.893-11.282,3.239-3.042.847-.778A1.742,1.742,0,0,1,191.979,386.69Z" transform="translate(-116.42 -109.369)" fill="#8dc63f"/>
      <path id="Path_5485" data-name="Path 5485" d="M180.039,445.25l-.089,2.786,2.255,1.654-2.678.778-.876,2.648-1.575-2.3-2.786-.01L176,448.6l-.856-2.658,2.629.945Z" transform="translate(-117.062 -110.277)" fill="#8dc63f"/>
      <path id="Path_5486" data-name="Path 5486" d="M147.015,426.04l.059,1.8,1.516.984-1.7.6-.463,1.752-1.1-1.428-1.8.1,1.014-1.5-.65-1.683,1.733.512Z" transform="translate(-116.584 -109.979)" fill="#8dc63f"/>
      <path id="Path_5487" data-name="Path 5487" d="M132.788,385.11l1.359,1.752,2.215-.138-1.24,1.841.807,2.058-2.127-.61-1.713,1.408-.079-2.215-1.861-1.191,2.077-.758Z" transform="translate(-116.377 -109.344)" fill="#8dc63f"/>
      <path id="Path_5488" data-name="Path 5488" d="M191.478,383.34l1.368,1.743,2.205-.128-1.24,1.831.807,2.067-2.126-.62-1.713,1.408-.069-2.215-1.871-1.191,2.087-.758Z" transform="translate(-117.287 -109.317)" fill="#8dc63f"/>
      <path id="Path_5489" data-name="Path 5489" d="M176.093,400.48l.866,1.122,1.408-.089-.788,1.172.512,1.319-1.359-.394-1.093.9-.049-1.408-1.191-.768,1.329-.482Z" transform="translate(-117.063 -109.583)" fill="#8dc63f"/>
    </g>
    <g id="freepik--Planets--inject-59" transform="translate(90.319 93.892)">
      <circle id="Ellipse_90" data-name="Ellipse 90" cx="19.631" cy="19.631" r="19.631" transform="translate(12.583 187.199)" fill="#8dc63f"/>
      <g id="Group_1186" data-name="Group 1186" transform="translate(23.245 209.754)" opacity="0.3">
        <path id="Path_5490" data-name="Path 5490" d="M120.5,311.08a3.209,3.209,0,1,1-3.2-3.2A3.209,3.209,0,0,1,120.5,311.08Z" transform="translate(-114.08 -307.88)" fill="#fff"/>
      </g>
      <g id="Group_1187" data-name="Group 1187" transform="translate(21.394 201.858)" opacity="0.3">
        <path id="Path_5491" data-name="Path 5491" d="M115.941,301.721a1.871,1.871,0,1,1-1.871-1.861A1.871,1.871,0,0,1,115.941,301.721Z" transform="translate(-112.2 -299.86)" fill="#fff"/>
      </g>
      <path id="Path_5492" data-name="Path 5492" d="M103.633,309.274c.089.345-16.805,16.549-12.444,20s22.643-5.4,38.287-18.016,29.879-27.93,25.971-31.986-23.421,7.945-23.421,7.945l2.333,1.5s11.814-7.571,15.535-4.637-6.891,14.413-21.925,25.38S98.434,328.108,96.2,325.1s8.368-13.015,8.368-13.015Z" transform="translate(-90.469 -97.669)" fill="#8dc63f"/>
      <g id="Group_1188" data-name="Group 1188" transform="translate(0 180.77)" opacity="0.3">
        <path id="Path_5493" data-name="Path 5493" d="M103.633,309.274c.089.345-16.805,16.549-12.444,20s22.643-5.4,38.287-18.016,29.879-27.93,25.971-31.986-23.421,7.945-23.421,7.945l2.333,1.5s11.814-7.571,15.535-4.637-6.891,14.413-21.925,25.38S98.434,328.108,96.2,325.1s8.368-13.015,8.368-13.015Z" transform="translate(-90.469 -278.44)"/>
      </g>
      <g id="Group_1189" data-name="Group 1189" transform="translate(14.027 192.984)" opacity="0.3">
        <path id="Path_5494" data-name="Path 5494" d="M112.084,290.86c.158.187-1.172,1.319-2.678,3.584a18.065,18.065,0,0,0-.394,19.857c1.418,2.333,2.7,3.515,2.53,3.692s-1.674-.768-3.426-3.091a17.27,17.27,0,0,1,.423-21.088C110.381,291.569,112,290.722,112.084,290.86Z" transform="translate(-104.717 -290.845)" fill="#fff"/>
      </g>
      <circle id="Ellipse_91" data-name="Ellipse 91" cx="16.195" cy="16.195" r="16.195" transform="translate(225.683 22.443) rotate(-43.86)" fill="#8dc63f"/>
      <g id="Group_1190" data-name="Group 1190" transform="translate(253.861 14.136)" opacity="0.4">
        <path id="Path_5495" data-name="Path 5495" d="M348.33,111.759a2.629,2.629,0,1,1,.728,1.886A2.638,2.638,0,0,1,348.33,111.759Z" transform="translate(-348.329 -109.181)"/>
      </g>
      <g id="Group_1191" data-name="Group 1191" transform="translate(259.138 21.362)" opacity="0.4">
        <path id="Path_5496" data-name="Path 5496" d="M353.69,118.036a1.536,1.536,0,1,1,.425,1.1A1.546,1.546,0,0,1,353.69,118.036Z" transform="translate(-353.689 -116.52)"/>
      </g>
      <g id="Group_1192" data-name="Group 1192" transform="translate(256.5 27.603)" opacity="0.4">
        <path id="Path_5497" data-name="Path 5497" d="M351.591,122.86a.551.551,0,0,1,.551.571.581.581,0,0,1-.581.561.571.571,0,0,1-.551-.581.561.561,0,0,1,.581-.551Z" transform="translate(-351.01 -122.86)"/>
      </g>
    </g>
  </g>
</svg>
