<svg xmlns="http://www.w3.org/2000/svg" width="62" height="62" viewBox="0 0 62 62">
  <g id="_3676668" data-name="3676668" transform="translate(-1 -1)">
    <path id="Path_3244" data-name="Path 3244" d="M63,44a6.973,6.973,0,0,0-2-4.889V6a5.006,5.006,0,0,0-5-5H30a5.006,5.006,0,0,0-5,5V9H1V45H3.32l1.338,8.035a10.994,10.994,0,0,0,1.708,4.316L7,58.3V63H21V58.29a12.449,12.449,0,0,0,2-6.769c0-.378-.017-.754-.051-1.132L22.459,45H25V58a5.006,5.006,0,0,0,5,5H56a5.006,5.006,0,0,0,5-5V46.816A3,3,0,0,0,63,44ZM27,6a3,3,0,0,1,3-3H56a3,3,0,0,1,3,3V37.685a6.937,6.937,0,0,0-2-.6V11a2,2,0,0,0-2-2H27ZM39,35.062a10.157,10.157,0,0,1,2.919.731A12.263,12.263,0,0,0,41,40.4V45H39Zm-2-4.177V47h6V40.4a10.246,10.246,0,0,1,.685-3.655A10.194,10.194,0,0,1,46.5,39.548l4.078,6.117A3,3,0,0,0,53.07,47H55v2H32.444A3.959,3.959,0,0,0,33,47V13a3.959,3.959,0,0,0-.556-2H55V36.919a6.735,6.735,0,0,1-3.547-1.677L43.5,28.01A3.884,3.884,0,0,0,37,30.885ZM19,61H9V59H19Zm.447-4H8.535l-.505-.758a9,9,0,0,1-1.4-3.536L5.347,45H9v2.879a3.121,3.121,0,0,0,5.328,2.207,11.157,11.157,0,0,0,3.138-6.274l.249-1.741a1.246,1.246,0,0,1,2.474.064l.768,8.437c.028.315.043.632.043.949A10.449,10.449,0,0,1,19.447,57ZM11,45h4.145a9.152,9.152,0,0,1-2.231,3.672A1.121,1.121,0,0,1,11,47.879Zm8-10a4,4,0,1,1,4,4A4,4,0,0,1,19,35Zm3.182,6.952a3.246,3.246,0,0,0-.289-1.059A5.936,5.936,0,0,0,23,41a6.023,6.023,0,1,0-4.428-1.965,3.258,3.258,0,0,0-2.838,2.752L15.561,43H3V11H29a2,2,0,0,1,2,2V43.556A3.959,3.959,0,0,0,29,43H22.277ZM29,45a2,2,0,0,1,0,4H27V45ZM56,61H30a3,3,0,0,1-3-3V51H55a2,2,0,0,0,2-2V47h2V58A3,3,0,0,1,56,61Zm4-16H53.07a1,1,0,0,1-.832-.445L48.16,38.438a12.177,12.177,0,0,0-9.16-5.4V30.886a1.885,1.885,0,0,1,3.153-1.4l7.955,7.233A8.748,8.748,0,0,0,56,39a5.006,5.006,0,0,1,5,5A1,1,0,0,1,60,45Z" fill="#fff"/>
    <path id="Path_3245" data-name="Path 3245" d="M46,53H40a3,3,0,0,0,0,6h6a3,3,0,0,0,0-6Zm0,4H40a1,1,0,0,1,0-2h6a1,1,0,0,1,0,2Z" fill="#fff"/>
    <circle id="Ellipse_43" data-name="Ellipse 43" cx="1" cy="1" r="1" transform="translate(29 5)" fill="#fff"/>
    <path id="Path_3246" data-name="Path 3246" d="M37,5H47V7H37Z" fill="#fff"/>
    <path id="Path_3247" data-name="Path 3247" d="M53,13H35v8H53Zm-2,6H37V15H51Z" fill="#fff"/>
    <path id="Path_3248" data-name="Path 3248" d="M35,23H53v2H35Z" fill="#fff"/>
    <path id="Path_3249" data-name="Path 3249" d="M5,27H17V13H5ZM7,15h8V25H7Z" fill="#fff"/>
    <path id="Path_3250" data-name="Path 3250" d="M27,17h2v2H27Z" fill="#fff"/>
    <path id="Path_3251" data-name="Path 3251" d="M19,17h6v2H19Z" fill="#fff"/>
    <path id="Path_3252" data-name="Path 3252" d="M19,13H29v2H19Z" fill="#fff"/>
    <path id="Path_3253" data-name="Path 3253" d="M19,21H29v2H19Z" fill="#fff"/>
    <path id="Path_3254" data-name="Path 3254" d="M19,25H29v2H19Z" fill="#fff"/>
    <path id="Path_3255" data-name="Path 3255" d="M5,29H15v2H5Z" fill="#fff"/>
    <path id="Path_3256" data-name="Path 3256" d="M13,33h2v2H13Z" fill="#fff"/>
    <path id="Path_3257" data-name="Path 3257" d="M5,33h6v2H5Z" fill="#fff"/>
    <path id="Path_3258" data-name="Path 3258" d="M5,37H15v2H5Z" fill="#fff"/>
  </g>
</svg>
