<svg xmlns="http://www.w3.org/2000/svg" width="640.87" height="634.706" viewBox="0 0 640.87 634.706">
  <g id="Sent_Message-pana" data-name="Sent Message-pana" transform="translate(-37 -51.997)">
    <g id="freepik--Plant--inject-123" transform="translate(429.811 401.005)">
      <path id="Path_3950" data-name="Path 3950" d="M391.788,427.538a48.216,48.216,0,0,0-16.1-45.613s-3.731-1.369-3.415,2.813c.2,2.5-2.211,6.018-4.2,4.513-3.475-2.678-2.377-8.109-3.866-12.231-1.76-4.814-6.89-7.387-11.584-9.448-8.665-3.791-17.466-7.522-26.778-9.162s-19.256-1.249-27.741,2.934q3.1,6.213,6.168,12.441a4.363,4.363,0,0,0,5.521,2.768l11.283-.827c1.64-.12,3.746,0,4.227,1.64s-1.595,3.1-3.34,3.716l-11.825,4.242a37.88,37.88,0,0,0,15.646,13.043,113.313,113.313,0,0,0,19.557,6.664,11.508,11.508,0,0,0,6.469.5c3.445-1.113,5.822-5.416,9.418-4.889a15.044,15.044,0,0,1-5.551,10.17c13.946,5.476,23.664,12.171,36.105,16.744" transform="translate(-298.11 -246.906)" fill="#8dc63f"/>
      <path id="Path_3951" data-name="Path 3951" d="M391.522,484.23a3.711,3.711,0,0,1-.105-.361,5.674,5.674,0,0,0-.241-1.068c-.2-.993-.481-2.362-.858-4.122-.722-3.626-1.76-8.786-3.009-15.149q-.948-4.807-2.076-10.531c-.361-1.881-.752-3.836-1.143-5.837l-.6-3.009q-.226-1.5-.451-3.159c-1.309-8.485-2.843-17.962-6.965-26.989s-10.892-15.992-17.285-21.693a145.331,145.331,0,0,0-18.369-13.54c-5.491-3.52-10.064-6.153-13.209-8l-3.626-2.136-.933-.572-.3-.211a.726.726,0,0,1,.346.15l.963.512,3.686,2.016c3.174,1.79,7.793,4.378,13.329,7.838a143.767,143.767,0,0,1,18.534,13.539,93.462,93.462,0,0,1,9.553,9.643,55.26,55.26,0,0,1,7.913,12.231c4.182,9.147,5.7,18.685,6.98,27.184l.436,3.159.587,3.009c.376,2,.752,3.957,1.113,5.837q1.061,5.641,1.986,10.531l2.828,15.179c.316,1.76.572,3.144.737,4.137l.181,1.083A1.411,1.411,0,0,1,391.522,484.23Z" transform="translate(-285.884 -241.692)" fill="#263238"/>
      <path id="Path_3952" data-name="Path 3952" d="M403.186,370.267c-3.009,4.513-11.539,2.3-12.035-3.009s7.4-9.162,11.253-5.356a127.239,127.239,0,0,0-4.754-46.877,24.523,24.523,0,0,1-4.408,8.56c-2.181,2.377-5.687,3.866-8.71,2.723-4.092-1.5-5.3-7.146-3.6-11.178s5.386-6.815,8.906-9.4a43.943,43.943,0,0,0-27.275-21.739c-4.513,7.341-9.132,14.848-11.178,23.228s-1.113,17.962,4.513,24.537c2.377,2.8,5.521,4.979,7.371,8.154s1.715,8.018-1.5,9.733c-3.821,2-8.139-1.775-10.305-5.521s-4.378-8.319-8.65-9.026A82.832,82.832,0,0,0,381.1,411.126l-.436-.406a119.163,119.163,0,0,0,22.521-40.453ZM383.629,337.29a20.684,20.684,0,0,1,7.943-4.513,3.009,3.009,0,0,1,3.4.9,4.393,4.393,0,0,1,.873,3.55,8.529,8.529,0,0,1-1.5,3.445,11.372,11.372,0,0,1-4.513,4.032,7.116,7.116,0,0,1-6.018,0,4.182,4.182,0,0,1-2.392-3.37,5.642,5.642,0,0,1,2.166-4.047Z" transform="translate(-275.674 -283.99)" fill="#8dc63f"/>
      <path id="Path_3953" data-name="Path 3953" d="M376.59,505.953a1.954,1.954,0,0,1,0-.466c0-.346,0-.812,0-1.384,0-1.249-.12-3.009-.2-5.3-.2-4.634-.451-11.268-.782-19.452-.722-16.428-1.881-39.114-3.731-64.147s-3.987-47.644-5.777-63.982c-.873-8.184-1.67-14.788-2.227-19.346-.256-2.257-.466-4.017-.6-5.265a8.985,8.985,0,0,0-.15-1.369,1.5,1.5,0,0,1,0-.466l.09.451c0,.346.12.8.2,1.369.181,1.234.421,3.009.737,5.235.632,4.513,1.5,11.163,2.437,19.331,1.926,16.338,4.167,38.964,6.018,64s2.919,47.734,3.535,64.177c.3,8.214.466,14.863.557,19.467v6.664a3,3,0,0,1-.105.481Z" transform="translate(-265.326 -263.416)" fill="#263238"/>
      <path id="Path_3954" data-name="Path 3954" d="M340.05,426.82l12.005,50.923H415l13.3-50.923Z" transform="translate(-276.956 -211.948)" fill="#455a64"/>
      <path id="Path_3955" data-name="Path 3955" d="M353.21,453.56c0,.963,4.859,30.163,4.859,30.163h38.287l4.212-30.163Z" transform="translate(-270.318 -198.461)" fill="#455a64"/>
      <path id="Path_3956" data-name="Path 3956" d="M409.279,460.636c0,.181-13.735.331-30.674.331s-30.675-.15-30.675-.331,13.735-.346,30.675-.346S409.279,460.441,409.279,460.636Z" transform="translate(-272.981 -195.066)" fill="#263238"/>
      <path id="Path_3957" data-name="Path 3957" d="M417.271,446.981c0,.181-16.187.331-36.105.331s-36.105-.15-36.105-.331,16.2-.331,36.105-.331S417.271,446.8,417.271,446.981Z" transform="translate(-274.429 -201.946)" fill="#263238"/>
      <path id="Path_3958" data-name="Path 3958" d="M414.014,451.691c0,.2-15.254.346-34.044.346s-34.059-.15-34.059-.346,15.255-.331,34.059-.331S414.014,451.51,414.014,451.691Z" transform="translate(-274 -199.57)" fill="#263238"/>
      <path id="Path_3959" data-name="Path 3959" d="M413.012,456.411c0,.181-14.7.331-32.826.331s-32.826-.15-32.826-.331,14.7-.331,32.826-.331S413.012,456.23,413.012,456.411Z" transform="translate(-273.269 -197.19)" fill="#263238"/>
      <path id="Path_3960" data-name="Path 3960" d="M419.626,442.4c0,.181-16.924.331-37.805.331s-37.79-.15-37.79-.331,16.909-.331,37.79-.331S419.626,442.22,419.626,442.4Z" transform="translate(-274.948 -204.256)" fill="#263238"/>
      <path id="Path_3961" data-name="Path 3961" d="M420.9,438.636c0,.181-17.24.331-38.5.331s-38.512-.15-38.512-.331,17.24-.346,38.512-.346S420.9,438.44,420.9,438.636Z" transform="translate(-275.019 -206.163)" fill="#263238"/>
    </g>
    <g id="freepik--Floor--inject-123" transform="translate(37 685.921)">
      <path id="Path_3962" data-name="Path 3962" d="M677.87,473.771c0,.226-143.489.391-320.435.391S37,474,37,473.771s143.459-.391,320.435-.391S677.87,473.561,677.87,473.771Z" transform="translate(-37 -473.38)" fill="#263238"/>
    </g>
    <g id="freepik--Character--inject-123" transform="translate(118.237 125.136)">
      <path id="Path_3963" data-name="Path 3963" d="M252.63,431.7l-4.077,54.068-23.514-.481L221.82,429.02Z" transform="translate(-25.016 65.03)" fill="#ffbe9d"/>
      <path id="Path_3964" data-name="Path 3964" d="M248.8,462.277v1.5s26.417,10.907,26.658,15.931l-52.654-.752.978-17.511a30.088,30.088,0,0,0,25.018.827Z" transform="translate(-24.522 81.387)" fill="#8dc63f"/>
      <path id="Path_3965" data-name="Path 3965" d="M245.674,469.871c-.2,0-.5-1.1.105-2.332s1.67-1.7,1.76-1.5-.572.842-1.053,1.865S245.9,469.855,245.674,469.871Z" transform="translate(-13.111 83.678)" fill="#263238"/>
      <path id="Path_3966" data-name="Path 3966" d="M227.444,465.294a2.181,2.181,0,0,0-1.5,2.437,2.091,2.091,0,0,0,2.407,1.5,2.287,2.287,0,0,0,1.595-2.587,2.136,2.136,0,0,0-2.663-1.324" transform="translate(-22.953 83.29)" fill="#fff"/>
      <path id="Path_3967" data-name="Path 3967" d="M241.809,463.23c0,.256-1.294.361-2.573,1.173s-1.971,1.865-2.2,1.76.165-1.58,1.73-2.527S241.869,463,241.809,463.23Z" transform="translate(-17.369 82.165)" fill="#263238"/>
      <path id="Path_3968" data-name="Path 3968" d="M245.026,464.753c0,.256-1.053.677-1.941,1.745s-1.158,2.226-1.414,2.211-.406-1.5.722-2.783S245.026,464.512,245.026,464.753Z" transform="translate(-15.095 83.004)" fill="#263238"/>
      <path id="Path_3969" data-name="Path 3969" d="M222.8,474.5l.226-3.987,50.788,2.241a4.408,4.408,0,0,1,1.61,2.542Z" transform="translate(-24.522 85.957)" fill="#263238"/>
      <path id="Path_3970" data-name="Path 3970" d="M324.23,127.415s9.854-9.733,12.471-11.373,5.837-5.326,7.868-6.168a59.914,59.914,0,0,0,6.725-4.062l4-4.949s3.009-.316,2.347,3.009l7.447-1.5s2,1.73-1.173,3.776a7.522,7.522,0,0,1-5.416,1.5l-3.129,3.49.542,1.835,18.053,2.362a3.37,3.37,0,0,1-3.325,3.009c-3.009,0-13.9-.466-13.9-.466l16.789,6.333s.888,2.572-4.363,1.82a121.147,121.147,0,0,1-13.63-3.325l-1.5,1.324,4.588,2.678,4.288,5.536a4.649,4.649,0,0,1-5.431-1.219l-2.768-2.708h-4.017s-10.922,7.627-14.578,5.852l-3.1,3.114Z" transform="translate(26.639 -100.493)" fill="#ffbe9d"/>
      <path id="Path_3971" data-name="Path 3971" d="M346.984,109.72a4.077,4.077,0,0,1,.617,1.88,10.14,10.14,0,0,1-.361,4.8,7.522,7.522,0,0,1-2.888,3.866c-1.008.722-1.745.948-1.79.857s.572-.5,1.5-1.294a8.214,8.214,0,0,0,2.482-3.671C347.6,112.744,346.7,109.75,346.984,109.72Z" transform="translate(35.883 -96.022)" fill="#eb996e"/>
      <path id="Path_3972" data-name="Path 3972" d="M335.28,127.19a9.7,9.7,0,0,0,4.513-1.76,12.306,12.306,0,0,0,3.46-4.137,34.6,34.6,0,0,0,2.467-6.544v-.09l.09-.09a18.654,18.654,0,0,0,4.965-6.815,15.179,15.179,0,0,0,1.053-4.152,2.317,2.317,0,0,0-.512-1.685,2.151,2.151,0,0,0-1.5-.557l.271-.165a33.954,33.954,0,0,1-8.846,9.192,24.071,24.071,0,0,1-3.159,1.88,5.008,5.008,0,0,1-1.234.5c0-.105,1.64-.873,4.122-2.753a35.881,35.881,0,0,0,8.5-9.222l.105-.165h.181a2.8,2.8,0,0,1,2.151.767,3.009,3.009,0,0,1,.737,2.242,15.254,15.254,0,0,1-1.1,4.423,19.106,19.106,0,0,1-5.235,7.1l.135-.181a33.911,33.911,0,0,1-2.633,6.619,12.036,12.036,0,0,1-3.746,4.212,7.824,7.824,0,0,1-3.415,1.369,3.144,3.144,0,0,1-1.369.015Z" transform="translate(32.212 -100.614)" fill="#eb996e"/>
      <path id="Path_3973" data-name="Path 3973" d="M235.54,191.7l71.835-30.434,62-44.861,12.547,13.329s-43.447,45.252-54.76,54.489-72.436,48.14-72.436,48.14Z" transform="translate(-18.096 -92.647)" fill="#8dc63f"/>
      <path id="Path_3974" data-name="Path 3974" d="M265.158,172.649a9.267,9.267,0,0,0-5.506.421c-.572.286-1.158.918-.842,1.5.2.346.662.436,1.053.511,7.131,1.1,13.539,3.234,20.655,4.348l1.2-.511A53.225,53.225,0,0,0,265.158,172.649Z" transform="translate(-6.403 -64.4)" fill="#fafafa"/>
      <path id="Path_3975" data-name="Path 3975" d="M271.787,173.135a56.72,56.72,0,0,0,4.513,10.2l.707-.406a55.054,55.054,0,0,0-.632-10.786,17.15,17.15,0,0,0-4.212-9.312,16.548,16.548,0,0,0-.376,10.305Z" transform="translate(-0.139 -69.233)" fill="#fafafa"/>
      <path id="Path_3976" data-name="Path 3976" d="M280.873,168.714c-1.5,4.2-2.934,8.229-4.513,12.426l3.009-3.084a43.042,43.042,0,0,0,6.619-11.644,3.761,3.761,0,0,0,.256-1.5,1.5,1.5,0,0,0-.842-1.249,1.805,1.805,0,0,0-1.64.391A9.553,9.553,0,0,0,280.873,168.714Z" transform="translate(2.493 -68.844)" fill="#fafafa"/>
      <path id="Path_3977" data-name="Path 3977" d="M318.246,134.875a8.154,8.154,0,0,0,4.664-1.5c.436-.361.812-1.053.421-1.5a1.219,1.219,0,0,0-1.023-.226c-6.394.572-12.381.09-18.775.662l-.933.692a46.862,46.862,0,0,0,15.646,1.88Z" transform="translate(15.729 -84.981)" fill="#fafafa"/>
      <path id="Path_3978" data-name="Path 3978" d="M308.344,140.768a49.958,49.958,0,0,0-6.018-7.868l-.527.512a49.142,49.142,0,0,0,2.858,9.177,15.149,15.149,0,0,0,5.641,7.146A14.7,14.7,0,0,0,308.344,140.768Z" transform="translate(15.325 -84.33)" fill="#fafafa"/>
      <path id="Path_3979" data-name="Path 3979" d="M301.322,146.024c.406-3.941.782-7.733,1.188-11.674l-1.88,3.28a38.647,38.647,0,0,0-3.219,11.494,3.369,3.369,0,0,0,.105,1.4,1.309,1.309,0,0,0,1.008.9,1.6,1.6,0,0,0,1.324-.692,8.47,8.47,0,0,0,1.474-4.709Z" transform="translate(13.096 -83.598)" fill="#fafafa"/>
      <path id="Path_3980" data-name="Path 3980" d="M161.43,386.751l-54.414,17.857L97.99,381.471l53.616-25.891Z" transform="translate(-87.474 27.987)" fill="#ffbe9d"/>
      <path id="Path_3981" data-name="Path 3981" d="M117.793,395.042l-1.5.617s0,30.193-4.784,32.45L91,376.418l17.481-6.138a31.848,31.848,0,0,0,9.312,24.762Z" transform="translate(-91 35.402)" fill="#8dc63f"/>
      <path id="Path_3982" data-name="Path 3982" d="M101.622,375.511A2.272,2.272,0,0,0,98.613,375a2.2,2.2,0,0,0-.527,3.009,2.407,2.407,0,0,0,3.174.511,2.287,2.287,0,0,0,.211-3.144" transform="translate(-87.616 37.602)" fill="#fff"/>
      <path id="Path_3983" data-name="Path 3983" d="M91,374.864l4.212-1.5,18.053,50.081s0,2.708-1.805,3.084Z" transform="translate(-91 36.955)" fill="#263238"/>
      <path id="Path_3984" data-name="Path 3984" d="M109.349,388.547c-.256.09-.873-1.128-2.181-2.046s-2.618-1.158-2.618-1.429,1.61-.481,3.174.662S109.6,388.5,109.349,388.547Z" transform="translate(-84.166 42.755)" fill="#263238"/>
      <path id="Path_3985" data-name="Path 3985" d="M109.432,392.288c-.226.15-1.083-.767-2.5-1.2s-2.633-.241-2.723-.5,1.279-.978,3.009-.406S109.672,392.183,109.432,392.288Z" transform="translate(-84.338 45.332)" fill="#263238"/>
      <path id="Path_3986" data-name="Path 3986" d="M104.185,395.6c-.15-.211.978-1.068,2.618-.963s2.663,1.053,2.482,1.249-1.188-.241-2.542-.316S104.3,395.836,104.185,395.6Z" transform="translate(-84.357 47.681)" fill="#263238"/>
      <path id="Path_3987" data-name="Path 3987" d="M302.7,319.81s-39.9,81.237-50.608,87.48-134.041,50.141-134.041,50.141l-9.493-29.305,111.611-58.942s14.578-39.746,20.008-69.939c3.325-18.5,10.952-29.351,21.919-43.763,3.355-4.408,9.026-10.711,11.93-12.652l50.141,9.493Z" transform="translate(-82.143 -28.882)" fill="#263238"/>
      <path id="Path_3988" data-name="Path 3988" d="M282.764,253.846l-53.842-9.026L218,308.125l10.937,132.943s-7.522,46.215-6.243,76.618c1.158,28.674,2.272,39.49,2.272,39.49s23.153.105,28.418.105c2.211,0,21.994-143.895,21.994-143.895Z" transform="translate(-26.943 -27.879)" fill="#263238"/>
      <path id="Path_3989" data-name="Path 3989" d="M258.672,273.9a7.129,7.129,0,0,1-.361.933c-.286.677-.662,1.5-1.143,2.648l-4.257,9.673c-3.58,8.259-8.47,19.557-13.855,32.013s-10.862,23.6-15.044,31.5c-2.091,3.942-3.821,7.116-5.085,9.282l-1.5,2.482a4.9,4.9,0,0,1-.542.842,4.514,4.514,0,0,1,.406-.918c.346-.647.782-1.5,1.324-2.558l4.844-9.387c4.032-7.958,9.342-19.091,14.8-31.592s10.4-23.709,14.141-31.893c1.865-4.062,3.4-7.341,4.513-9.583l1.279-2.573A4.123,4.123,0,0,1,258.672,273.9Z" transform="translate(-27.508 -13.211)" fill="#455a64"/>
      <path id="Path_3990" data-name="Path 3990" d="M113.613,370.021c.09.2-.6.707-1.5,1.158s-1.76.662-1.865.466.6-.722,1.5-1.173S113.508,369.856,113.613,370.021Z" transform="translate(-81.299 35.24)" fill="#455a64"/>
      <path id="Path_3991" data-name="Path 3991" d="M123.686,365.69c.105.2-1.339,1.083-3.189,1.986a9.267,9.267,0,0,1-3.535,1.279c-.105-.2,1.339-1.083,3.189-1.986A9.266,9.266,0,0,1,123.686,365.69Z" transform="translate(-77.908 33.087)" fill="#455a64"/>
      <path id="Path_3992" data-name="Path 3992" d="M132.636,361.33c.105.2-1.339,1.083-3.189,2a9.464,9.464,0,0,1-3.535,1.294c-.105-.2,1.339-1.1,3.189-2A9.462,9.462,0,0,1,132.636,361.33Z" transform="translate(-73.394 30.888)" fill="#455a64"/>
      <path id="Path_3993" data-name="Path 3993" d="M141.55,357a18.428,18.428,0,0,1-6.71,3.31A17.542,17.542,0,0,1,141.55,357Z" transform="translate(-68.888 28.704)" fill="#455a64"/>
      <path id="Path_3994" data-name="Path 3994" d="M150.446,352.52c.105.2-1.324,1.1-3.174,2.031a9.237,9.237,0,0,1-3.52,1.309c-.105-.2,1.324-1.1,3.174-2.016a9.432,9.432,0,0,1,3.52-1.324Z" transform="translate(-64.395 26.444)" fill="#455a64"/>
      <path id="Path_3995" data-name="Path 3995" d="M159.329,348.05c.105.2-1.324,1.1-3.159,2.031a9.223,9.223,0,0,1-3.52,1.339,9.464,9.464,0,0,1,3.159-2.031A9.313,9.313,0,0,1,159.329,348.05Z" transform="translate(-59.904 24.189)" fill="#455a64"/>
      <path id="Path_3996" data-name="Path 3996" d="M168.234,343.5a18.053,18.053,0,0,1-6.664,3.445,9.268,9.268,0,0,1,3.144-2.076,9.6,9.6,0,0,1,3.52-1.369Z" transform="translate(-55.405 21.894)" fill="#455a64"/>
      <path id="Path_3997" data-name="Path 3997" d="M176.949,338.85c.105.2-1.294,1.128-3.114,2.106a9.1,9.1,0,0,1-3.475,1.414,9.507,9.507,0,0,1,3.114-2.106A9.1,9.1,0,0,1,176.949,338.85Z" transform="translate(-50.972 19.549)" fill="#455a64"/>
      <path id="Path_3998" data-name="Path 3998" d="M185.574,334c.105.181-1.249,1.173-3.009,2.211a9.026,9.026,0,0,1-3.445,1.5,9.6,9.6,0,0,1,3.009-2.211,8.876,8.876,0,0,1,3.445-1.5Z" transform="translate(-46.553 17.103)" fill="#455a64"/>
      <path id="Path_3999" data-name="Path 3999" d="M189.475,326.56a10.53,10.53,0,0,1-.256,3.731,13.555,13.555,0,0,0-.15,1.4,2.346,2.346,0,0,0,0,.3.752.752,0,0,1-.12.466,2.393,2.393,0,0,1-.406.5c-.542.481-.933.632-1.008.557s.211-.406.587-.933a1.608,1.608,0,0,0,.241-.406.3.3,0,0,0,0-.12,1.069,1.069,0,0,1,0-.346,8.468,8.468,0,0,1,0-1.5,8.3,8.3,0,0,1,1.113-3.641Z" transform="translate(-42.315 13.35)" fill="#455a64"/>
      <path id="Path_4000" data-name="Path 4000" d="M191.746,316.88a9.357,9.357,0,0,1-.527,3.731,9.223,9.223,0,0,1-1.294,3.535,9.4,9.4,0,0,1,.527-3.731,9.507,9.507,0,0,1,1.294-3.535Z" transform="translate(-41.112 8.468)" fill="#455a64"/>
      <path id="Path_4001" data-name="Path 4001" d="M194.335,307.27a18.429,18.429,0,0,1-1.941,7.221,9.028,9.028,0,0,1,.587-3.716,9.3,9.3,0,0,1,1.354-3.505Z" transform="translate(-39.864 3.62)" fill="#455a64"/>
      <path id="Path_4002" data-name="Path 4002" d="M197.033,297.68A17.722,17.722,0,0,1,195,304.886a9.208,9.208,0,0,1,.632-3.7A9.357,9.357,0,0,1,197.033,297.68Z" transform="translate(-38.546 -1.217)" fill="#455a64"/>
      <path id="Path_4003" data-name="Path 4003" d="M199.811,288.12a9.116,9.116,0,0,1-.677,3.7,9.373,9.373,0,0,1-1.414,3.49A17.647,17.647,0,0,1,199.811,288.12Z" transform="translate(-37.172 -6.039)" fill="#455a64"/>
      <path id="Path_4004" data-name="Path 4004" d="M202.737,278.59a18.157,18.157,0,0,1-2.2,7.161,9.3,9.3,0,0,1,.722-3.7,9.162,9.162,0,0,1,1.474-3.46Z" transform="translate(-35.749 -10.845)" fill="#455a64"/>
      <path id="Path_4005" data-name="Path 4005" d="M206.233,269.22a14.5,14.5,0,0,1-1.083,3.6,9.131,9.131,0,0,1-1.64,3.37,9.613,9.613,0,0,1,.918-3.671,6.815,6.815,0,0,1,1.805-3.295Z" transform="translate(-34.251 -15.572)" fill="#455a64"/>
      <path id="Path_4006" data-name="Path 4006" d="M212.092,260.843a9.192,9.192,0,0,1-1.775,3.325c-1.158,1.7-2.257,3.009-2.437,2.873a9.206,9.206,0,0,1,1.79-3.325C210.829,262.016,211.927,260.722,212.092,260.843Z" transform="translate(-32.047 -19.801)" fill="#455a64"/>
      <path id="Path_4007" data-name="Path 4007" d="M218.033,252.8c.18.135-.677,1.5-1.911,3.234s-2.362,2.9-2.542,2.783a9.359,9.359,0,0,1,1.911-3.249C216.724,253.917,217.867,252.668,218.033,252.8Z" transform="translate(-29.172 -23.857)" fill="#455a64"/>
      <path id="Path_4008" data-name="Path 4008" d="M221.9,246.857c.165.135-.211.9-.842,1.73s-1.279,1.369-1.5,1.249.211-.9.842-1.73S221.762,246.721,221.9,246.857Z" transform="translate(-26.191 -26.862)" fill="#455a64"/>
      <path id="Path_4009" data-name="Path 4009" d="M225.506,322.086c-.211,0-.451-.8-.527-1.835s0-1.9.241-1.911.451.812.527,1.85S225.732,322.071,225.506,322.086Z" transform="translate(-23.436 9.204)" fill="#455a64"/>
      <path id="Path_4010" data-name="Path 4010" d="M226.378,333.763a10.245,10.245,0,0,1-.677-3.851,9.613,9.613,0,0,1,.105-3.911,10.245,10.245,0,0,1,.677,3.851A9.929,9.929,0,0,1,226.378,333.763Z" transform="translate(-23.135 13.068)" fill="#455a64"/>
      <path id="Path_4011" data-name="Path 4011" d="M227.048,344.108a9.853,9.853,0,0,1-.647-3.866,10.081,10.081,0,0,1,.151-3.911,10.185,10.185,0,0,1,.632,3.866A10.3,10.3,0,0,1,227.048,344.108Z" transform="translate(-22.767 18.278)" fill="#455a64"/>
      <path id="Path_4012" data-name="Path 4012" d="M227.512,354.438a9.762,9.762,0,0,1-.557-3.866,9.553,9.553,0,0,1,.226-3.911,19.556,19.556,0,0,1,.331,7.778Z" transform="translate(-22.479 23.488)" fill="#455a64"/>
      <path id="Path_4013" data-name="Path 4013" d="M227.7,364.793a10.156,10.156,0,0,1-.451-3.9,9.959,9.959,0,0,1,.331-3.9A19.557,19.557,0,0,1,227.7,364.793Z" transform="translate(-22.308 28.704)" fill="#455a64"/>
      <path id="Path_4014" data-name="Path 4014" d="M227.591,375.143a10.352,10.352,0,0,1-.331-3.911,9.779,9.779,0,0,1,.451-3.881,10.184,10.184,0,0,1,.331,3.9A9.824,9.824,0,0,1,227.591,375.143Z" transform="translate(-22.302 33.924)" fill="#455a64"/>
      <path id="Path_4015" data-name="Path 4015" d="M227.152,385.493a9.929,9.929,0,0,1-.2-3.911,10.048,10.048,0,0,1,.572-3.881,10.051,10.051,0,0,1,.211,3.911,10.216,10.216,0,0,1-.587,3.881Z" transform="translate(-22.48 39.145)" fill="#455a64"/>
      <path id="Path_4016" data-name="Path 4016" d="M226.369,395.818a19.934,19.934,0,0,1,.587-7.778,9.643,9.643,0,0,1,.105,3.911A10.2,10.2,0,0,1,226.369,395.818Z" transform="translate(-22.795 44.36)" fill="#455a64"/>
      <path id="Path_4017" data-name="Path 4017" d="M225.516,406.118a9.794,9.794,0,0,1,0-3.911,9.959,9.959,0,0,1,.722-3.836,10.138,10.138,0,0,1,0,3.911A9.959,9.959,0,0,1,225.516,406.118Z" transform="translate(-23.251 49.57)" fill="#455a64"/>
      <path id="Path_4018" data-name="Path 4018" d="M224.71,416.458a10.155,10.155,0,0,1-.09-3.911,10.018,10.018,0,0,1,.677-3.866,10.426,10.426,0,0,1,.105,3.926,9.822,9.822,0,0,1-.692,3.851Z" transform="translate(-23.678 54.771)" fill="#455a64"/>
      <path id="Path_4019" data-name="Path 4019" d="M224.173,426.8a10.4,10.4,0,0,1-.211-3.911,10.185,10.185,0,0,1,.572-3.866,9.943,9.943,0,0,1,.211,3.9A9.719,9.719,0,0,1,224.173,426.8Z" transform="translate(-23.984 59.986)" fill="#455a64"/>
      <path id="Path_4020" data-name="Path 4020" d="M224.154,437.168a9.673,9.673,0,0,1-.406-3.9,10.229,10.229,0,0,1,.361-3.911,9.959,9.959,0,0,1,.421,3.9,10.529,10.529,0,0,1-.376,3.911Z" transform="translate(-24.07 65.201)" fill="#455a64"/>
      <path id="Path_4021" data-name="Path 4021" d="M224.828,447.483a9.99,9.99,0,0,1-.677-3.851,9.569,9.569,0,0,1,.105-3.911,19.556,19.556,0,0,1,.572,7.763Z" transform="translate(-23.917 70.427)" fill="#455a64"/>
      <path id="Path_4022" data-name="Path 4022" d="M225.783,453.766c-.211,0-.512-.767-.662-1.805s-.12-1.88.105-1.911.511.782.662,1.805S225.994,453.736,225.783,453.766Z" transform="translate(-23.398 75.637)" fill="#455a64"/>
      <path id="Path_4023" data-name="Path 4023" d="M248.611,251a6.136,6.136,0,0,1-.812,1.5,42.359,42.359,0,0,1-2.678,3.836,35.112,35.112,0,0,1-11.749,9.989,23.212,23.212,0,0,1-15.209,2,16.548,16.548,0,0,1-4.408-1.655,5.522,5.522,0,0,1-1.414-.963,27.967,27.967,0,0,0,5.942,2.076,23.634,23.634,0,0,0,14.743-2.166,37.309,37.309,0,0,0,11.659-9.628C247.2,253.016,248.506,251,248.611,251Z" transform="translate(-29.797 -24.762)" fill="#455a64"/>
      <path id="Path_4024" data-name="Path 4024" d="M258.123,251.64a18.367,18.367,0,0,1-.662,4.3,62.538,62.538,0,0,1-3.219,10.034,61.392,61.392,0,0,1-4.889,9.342,18.746,18.746,0,0,1-2.6,3.505,32.589,32.589,0,0,1,2.121-3.791,80.832,80.832,0,0,0,8.048-19.226,34.325,34.325,0,0,1,1.2-4.167Z" transform="translate(-12.441 -24.439)" fill="#455a64"/>
      <path id="Path_4025" data-name="Path 4025" d="M250.728,252.5c0,.12-.722.181-1.219,1.068a1.9,1.9,0,0,0-.15,1.5,1.7,1.7,0,0,0,3.009,0,1.926,1.926,0,0,0-.165-1.5c-.5-.873-1.249-.933-1.219-1.053s.181-.105.511,0a2.091,2.091,0,0,1,1.173.8,2.422,2.422,0,0,1,.391,2.106,2.306,2.306,0,1,1-4.017-2.106,2.061,2.061,0,0,1,1.158-.812C250.593,252.4,250.728,252.458,250.728,252.5Z" transform="translate(-11.53 -24.038)" fill="#455a64"/>
      <path id="Path_4026" data-name="Path 4026" d="M226.723,122.913a20.64,20.64,0,0,0-27.59,9.312c-2.392,4.829-3.009,10.666-6.574,14.668-3.234,3.565-8.184,4.874-12.742,6.424s-9.4,3.926-11.193,8.41c-1.5,3.821-.5,8.515-2.828,11.9s-7.176,4.032-11.358,4.3a4.513,4.513,0,0,0,4.122,3.43,16.819,16.819,0,0,1-10.109,2.166c1.113,5.085,5.6,8.921,10.531,10.531s10.26,1.595,15.45,1.264c5.882-.361,12.171-1.188,16.548-5.115,5.28-4.724,6.95-13.269,13.434-16.157,3.31-1.5,7.236-1.083,10.531-2.618,4.513-2.106,6.77-7.372,7.266-12.351s-.316-10,0-15.044,2.3-10.305,6.649-12.772Z" transform="translate(-62.023 -90.44)" fill="#263238"/>
      <path id="Path_4027" data-name="Path 4027" d="M204.425,121.9c.436-.963-.677-2.061-1.745-2.016a4.272,4.272,0,0,0-2.663,1.61,18.264,18.264,0,0,0-4.979,10.125,12.577,12.577,0,0,0,3.535,10.531,3.43,3.43,0,0,0,2.257,1.143,2.753,2.753,0,0,0,2.211-1.384,7.521,7.521,0,0,0,.873-2.557,70.122,70.122,0,0,0,1.294-17.646Z" transform="translate(-38.581 -90.897)" fill="#8dc63f"/>
      <path id="Path_4028" data-name="Path 4028" d="M198.2,149.394c0-10.756,1.73-22.175,8.665-30.374,6.183-7.3,16.639-12.035,26.086-13.539a34,34,0,0,1,14.788,1.745c6.153,1.986,9.779,7.823,13.63,13.028,7.7,10.41,10.23,26.131,7.522,31.2l-42.86,35.293c-9.433-2.678-19.948-6.8-24.07-15.676C199.073,165.025,198.23,156,198.2,149.394Z" transform="translate(-36.93 -98.251)" fill="#263238"/>
      <path id="Path_4029" data-name="Path 4029" d="M209.072,125.934,237.5,110.755c9.448-3.43,18.865,6.935,21.889,16.548,3.37,10.651,7.056,23.8,7.778,32.209,1.5,16.879-10.531,22.024-10.531,22.024h0l5.807,19.076,6.664,21.212-43.161-25.575-20.6-63.26A5.9,5.9,0,0,1,209.072,125.934Z" transform="translate(-33.419 -95.838)" fill="#ffbe9d"/>
      <path id="Path_4030" data-name="Path 4030" d="M242.309,129.339a2.136,2.136,0,0,1-1.5,2.6,2.031,2.031,0,0,1-2.6-1.354,2.151,2.151,0,0,1,1.5-2.6,2.046,2.046,0,0,1,2.6,1.354Z" transform="translate(-16.787 -86.861)" fill="#263238"/>
      <path id="Path_4031" data-name="Path 4031" d="M242.908,125.684c-.15.361-2.091-.2-4.257.617s-3.355,2.482-3.686,2.3,0-.647.421-1.414a6.018,6.018,0,0,1,2.828-2.166,5.626,5.626,0,0,1,3.52-.15C242.607,125.172,242.984,125.533,242.908,125.684Z" transform="translate(-18.454 -88.487)" fill="#263238"/>
      <path id="Path_4032" data-name="Path 4032" d="M228.714,133.308a2.151,2.151,0,0,1-1.5,2.6,2.061,2.061,0,0,1-2.618-1.354,2.151,2.151,0,0,1,1.5-2.6,2.076,2.076,0,0,1,2.618,1.354Z" transform="translate(-23.651 -84.858)" fill="#263238"/>
      <path id="Path_4033" data-name="Path 4033" d="M228.726,130.177c-.181.331-2.061-.436-4.288.12s-3.611,2.091-3.926,1.865,0-.647.587-1.339a5.822,5.822,0,0,1,3.009-1.835,5.6,5.6,0,0,1,3.505.241C228.47,129.59,228.831,130.027,228.726,130.177Z" transform="translate(-25.739 -86.391)" fill="#263238"/>
      <path id="Path_4034" data-name="Path 4034" d="M235.9,146.376a15.479,15.479,0,0,1,3.475-1.5c.572-.211,1.083-.451,1.083-.873a2.919,2.919,0,0,0-.812-1.595c-.873-1.264-1.805-2.573-2.768-3.942-3.881-5.626-6.845-10.32-6.619-10.531s3.565,4.288,7.447,9.914l2.708,3.972a3.475,3.475,0,0,1,.857,2.181,1.5,1.5,0,0,1-.737,1.068,4.031,4.031,0,0,1-.933.376A15.042,15.042,0,0,1,235.9,146.376Z" transform="translate(-20.768 -86.839)" fill="#263238"/>
      <path id="Path_4035" data-name="Path 4035" d="M247.168,157.706A42.6,42.6,0,0,1,224,157.3s8.515,9.914,24.4,4.363Z" transform="translate(-23.916 -72.023)" fill="#eb996e"/>
      <path id="Path_4036" data-name="Path 4036" d="M229.82,145.065a3.7,3.7,0,0,1,2.588-2.377,4.844,4.844,0,0,1,4.784,1.068,3.009,3.009,0,0,1,.722,2.046c-.075.406,0,.2-.211.511a8.349,8.349,0,0,1-2.843,2.9,3.611,3.611,0,0,1-4.047-.451,3.671,3.671,0,0,1-.993-3.7Z" transform="translate(-21.056 -79.51)" fill="#eb996e"/>
      <path id="Path_4037" data-name="Path 4037" d="M229.922,142.311c.361-.12.963,2.317,3.475,3.535s5.04.3,5.145.632-.466.617-1.5.918a6.273,6.273,0,0,1-4.257-.391A5.461,5.461,0,0,1,230.028,144C229.636,143,229.757,142.342,229.922,142.311Z" transform="translate(-21.008 -79.585)" fill="#263238"/>
      <path id="Path_4038" data-name="Path 4038" d="M228.832,126.29c0,.677-2.377.933-4.934,1.911s-4.513,2.211-4.98,1.745c-.226-.226,0-.888.722-1.685a8.725,8.725,0,0,1,3.445-2.272,8.936,8.936,0,0,1,4.107-.511C228.245,125.674,228.862,126.035,228.832,126.29Z" transform="translate(-26.522 -88.101)" fill="#263238"/>
      <path id="Path_4039" data-name="Path 4039" d="M241.218,122.1c-.271.6-1.941.451-3.806.888s-3.34,1.188-3.836.752c-.226-.226-.105-.8.466-1.5a5.371,5.371,0,0,1,2.873-1.595,5.311,5.311,0,0,1,3.28.271C240.993,121.33,241.338,121.8,241.218,122.1Z" transform="translate(-19.14 -90.587)" fill="#263238"/>
      <path id="Path_4040" data-name="Path 4040" d="M214.027,137.785c-.256,0-9.763-.737-7.522,8.334s10.892,4.919,10.847,4.664S214.027,137.785,214.027,137.785Z" transform="translate(-32.913 -81.873)" fill="#ffbe9d"/>
      <path id="Path_4041" data-name="Path 4041" d="M212.914,146.847a3.638,3.638,0,0,1-.376.346,1.61,1.61,0,0,1-1.173.316c-1.038-.105-2.226-1.429-2.678-3.009a5.37,5.37,0,0,1-.12-2.377,1.865,1.865,0,0,1,.888-1.5.842.842,0,0,1,1.038.2c.181.226.165.421.226.421s.15-.2,0-.557a1.068,1.068,0,0,0-.5-.466,1.173,1.173,0,0,0-.933,0,2.256,2.256,0,0,0-1.294,1.82,5.552,5.552,0,0,0,0,2.663,4.257,4.257,0,0,0,3.28,3.34,1.79,1.79,0,0,0,1.384-.6C212.944,147.072,212.944,146.862,212.914,146.847Z" transform="translate(-32.071 -80.69)" fill="#eb996e"/>
      <path id="Path_4042" data-name="Path 4042" d="M209.735,147.494a1.5,1.5,0,0,0,0,1.279,1.745,1.745,0,0,0,.948,1.128,1.956,1.956,0,0,0,1.775-.3,1.865,1.865,0,0,0,.9-1.5,1.956,1.956,0,0,0-.587-1.339c-.617-.587-1.2-.512-1.188-.466a2.6,2.6,0,0,1,.948.692,1.775,1.775,0,0,1,.391,1.113,1.5,1.5,0,0,1-.737,1.158,1.6,1.6,0,0,1-1.354.286,1.5,1.5,0,0,1-.782-.842,5.327,5.327,0,0,1-.316-1.2Z" transform="translate(-31.179 -77.591)" fill="#fafafa"/>
      <path id="Path_4043" data-name="Path 4043" d="M252.524,129.239A14.683,14.683,0,0,0,245,124.726c-2.858-.827-5.852-1.219-8.71-2.076a28.012,28.012,0,0,1-15.871-12.336,16.849,16.849,0,0,1,14.593-3.295,22.762,22.762,0,0,1,12.652,8.44,35.744,35.744,0,0,1,6.318,14.051" transform="translate(-25.722 -97.623)" fill="#263238"/>
      <path id="Path_4044" data-name="Path 4044" d="M207.435,123.432c5.175-7.988,17.015-14.562,26.492-13.675.542,7.958-3.159,17.932-6.83,25.018s-4.288,18.2-16.247,17.361c-.827,0-1.5.858-2.332.617a3.009,3.009,0,0,1-1.5-1.429A26.793,26.793,0,0,1,207.435,123.432Z" transform="translate(-34.355 -96.044)" fill="#263238"/>
      <path id="Path_4045" data-name="Path 4045" d="M230.851,110.13a9.523,9.523,0,0,1-.12,2.091c-.15,1.339-.361,3.265-.692,5.656a102.3,102.3,0,0,1-4.047,18.4,55.661,55.661,0,0,1-4.2,9.523,14.412,14.412,0,0,1-5.611,6.379,6.018,6.018,0,0,1-5.687,0,3.852,3.852,0,0,1-1.188-1.038c-.211-.3-.286-.481-.256-.5a5.341,5.341,0,0,0,6.875,1.083,14.321,14.321,0,0,0,5.235-6.243,59.471,59.471,0,0,0,4.092-9.433,121.146,121.146,0,0,0,4.242-18.233c.361-2.257.677-4.137.933-5.611A12.031,12.031,0,0,1,230.851,110.13Z" transform="translate(-31.459 -95.815)" fill="#263238"/>
      <path id="Path_4046" data-name="Path 4046" d="M157.646,170.223a3.3,3.3,0,0,1-.211-.933,8.544,8.544,0,0,1,.15-2.723,10.26,10.26,0,0,1,1.82-3.942,10,10,0,0,1,4.588-3.445,12.261,12.261,0,0,1,6.95,0,12.486,12.486,0,0,0,7.522,0,12.336,12.336,0,0,0,6.018-5.762,26.116,26.116,0,0,0,2.663-8.8,69.885,69.885,0,0,1,1.805-9.252,21.949,21.949,0,0,1,4.182-7.763,21.708,21.708,0,0,1,22.656-7.026,20.127,20.127,0,0,1,2.557.933,4.679,4.679,0,0,1,.842.451c0,.075-1.2-.527-3.49-1.083a22.009,22.009,0,0,0-9.779-.211,21.272,21.272,0,0,0-12.231,7.4,21.513,21.513,0,0,0-4.017,7.522,72.2,72.2,0,0,0-1.745,9.162,26.7,26.7,0,0,1-2.768,9.026,13.013,13.013,0,0,1-6.394,6.018,9.478,9.478,0,0,1-4.152.587,26.616,26.616,0,0,1-3.821-.647,11.629,11.629,0,0,0-6.634-.12,9.613,9.613,0,0,0-4.423,3.189,10.291,10.291,0,0,0-1.865,3.731A10.741,10.741,0,0,0,157.646,170.223Z" transform="translate(-57.514 -90.964)" fill="#263238"/>
      <path id="Path_4047" data-name="Path 4047" d="M199.77,123.754a5.718,5.718,0,0,1,.692-1.384,16.172,16.172,0,0,1,2.693-3.295,25.349,25.349,0,0,1,12.426-6.258,49.163,49.163,0,0,1,13.946-.527c1.775.165,3.2.331,4.2.481a5.386,5.386,0,0,1,1.5.3,53.822,53.822,0,0,1-5.762-.226,55.933,55.933,0,0,0-13.75.737,26.357,26.357,0,0,0-12.2,5.9,33.566,33.566,0,0,0-3.746,4.273Z" transform="translate(-36.138 -94.861)" fill="#455a64"/>
      <path id="Path_4048" data-name="Path 4048" d="M208.08,111.283a12.485,12.485,0,0,1,3.55-1.294,36.977,36.977,0,0,1,9.026-1.188,28.071,28.071,0,0,1,5.025.376,6.394,6.394,0,0,1,3.7,1.956,4.032,4.032,0,0,1,1.068,2.618c0,.677-.211,1.023-.241,1.008a8.664,8.664,0,0,1,0-.993,4.092,4.092,0,0,0-1.173-2.257,6.018,6.018,0,0,0-3.43-1.625,29.4,29.4,0,0,0-4.889-.286,45.644,45.644,0,0,0-8.891.933,36.594,36.594,0,0,1-3.746.752Z" transform="translate(-31.946 -96.487)" fill="#455a64"/>
      <path id="Path_4049" data-name="Path 4049" d="M197.536,159.666a1.805,1.805,0,0,1-.256-.617,7.524,7.524,0,0,1-.421-1.835,12.321,12.321,0,0,1,1.294-6.8,19.964,19.964,0,0,1,6.77-7.7,116,116,0,0,1,10.907-6.2,45.026,45.026,0,0,0,16.262-15.27,44.535,44.535,0,0,0,3.249-6.018,17.858,17.858,0,0,1,1.068-2.287,2.529,2.529,0,0,1-.165.632c-.135.406-.3,1.023-.617,1.775a40.019,40.019,0,0,1-3.009,6.213,43.913,43.913,0,0,1-16.368,15.661,122.351,122.351,0,0,0-10.862,6.018,19.918,19.918,0,0,0-6.695,7.356,12.652,12.652,0,0,0-1.5,6.529C197.281,158.839,197.627,159.666,197.536,159.666Z" transform="translate(-37.635 -94.397)" fill="#455a64"/>
      <path id="Path_4050" data-name="Path 4050" d="M225.746,191.261c-.12,0-.105-1.5-.527-3.972A27.529,27.529,0,0,0,222,178.263a15.21,15.21,0,0,0-6.559-6.68,9.463,9.463,0,0,0-3.851-.617,2.316,2.316,0,0,1,1.068-.286,6.424,6.424,0,0,1,3.009.421,14.547,14.547,0,0,1,7.01,6.785,24.763,24.763,0,0,1,3.1,9.282,11.509,11.509,0,0,1-.03,4.092Z" transform="translate(-30.176 -65.29)" fill="#263238"/>
      <path id="Path_4051" data-name="Path 4051" d="M235.983,168.363l35.609,27.229L261.377,164l8.635,4.423s15.4,28.493,20.309,42.83a101.475,101.475,0,0,1,4.242,17.1c1.143,10.305-4.6,21.829-4.6,21.829l4.919,37.173c.692,4-1.911,7.868-3.671,7.868l-55.768-7.522c-7.266-1.429-10.245-5.235-9.809-9.448l.842-7.793-23.83-79.733c-1.4,4.724-2.858-11.463,7.778-15.36C214.921,173.673,229.138,167.009,235.983,168.363Z" transform="translate(-35.177 -68.643)" fill="#8dc63f"/>
      <path id="Path_4052" data-name="Path 4052" d="M251,177.21a4.516,4.516,0,0,1,.451.572l1.158,1.7c.993,1.5,2.407,3.641,4.077,6.364a101.061,101.061,0,0,1,10.832,22.461,49.645,49.645,0,0,1,1.67,24.777,33.294,33.294,0,0,1-2.332,7.221c-.346.827-.722,1.414-.933,1.835a2.845,2.845,0,0,1-.376.6s.376-.918,1.038-2.557a38.187,38.187,0,0,0,2.091-7.206,51.285,51.285,0,0,0-1.866-24.492,109.96,109.96,0,0,0-10.531-22.415l-3.866-6.484-1.053-1.775A3.007,3.007,0,0,1,251,177.21Z" transform="translate(-10.298 -61.98)" fill="#263238"/>
      <path id="Path_4053" data-name="Path 4053" d="M255.255,246.955a9.6,9.6,0,0,0-1.5,5.386c.075.647.481,1.5,1.128,1.339.406,0,.662-.466.858-.827,3.565-6.409,6.935-11.87,10.531-18.278l-.165-1.264A50.232,50.232,0,0,0,255.255,246.955Z" transform="translate(-8.912 -33.684)" fill="#fafafa"/>
      <path id="Path_4054" data-name="Path 4054" d="M257.378,233.953a57.169,57.169,0,0,0,11.433-.481l-.09-.647a59.714,59.714,0,0,0-10.681-3.55,17.361,17.361,0,0,0-10.35.752A16.819,16.819,0,0,0,257.378,233.953Z" transform="translate(-11.967 -35.952)" fill="#fafafa"/>
      <path id="Path_4055" data-name="Path 4055" d="M255.543,226.052l10.726,9.026-2.362-4.3a43.926,43.926,0,0,0-8.786-10.4,3.716,3.716,0,0,0-1.4-.8,1.5,1.5,0,0,0-1.5.361,1.85,1.85,0,0,0-.2,1.715,9.718,9.718,0,0,0,3.52,4.393Z" transform="translate(-9.846 -40.643)" fill="#fafafa"/>
      <path id="Path_4056" data-name="Path 4056" d="M235.7,219.123c3.009,1.971,6.018,2.6,9.252,3.9h.632a51.931,51.931,0,0,0-7.146-7.717,17.375,17.375,0,0,0-9.508-4.182A16.638,16.638,0,0,0,235.7,219.123Z" transform="translate(-21.43 -44.877)" fill="#fafafa"/>
      <path id="Path_4057" data-name="Path 4057" d="M239.047,212.8c1.7,4.2,3.355,8.2,5.055,12.411l.135-4.333a44.485,44.485,0,0,0-2.9-13.284,4.227,4.227,0,0,0-.857-1.354,1.5,1.5,0,0,0-1.5-.361,1.805,1.805,0,0,0-.963,1.4,9.733,9.733,0,0,0,1.038,5.521Z" transform="translate(-16.879 -47.553)" fill="#fafafa"/>
      <path id="Path_4058" data-name="Path 4058" d="M260.483,207.73a4.172,4.172,0,0,1-.3,1.2,8.451,8.451,0,0,1-.5,1.339,18.486,18.486,0,0,1-.8,1.73,25.578,25.578,0,0,1-2.753,4.152,26.387,26.387,0,0,1-9.613,7.341A24.881,24.881,0,0,1,241.8,225a17.764,17.764,0,0,1-3.31.451,4.064,4.064,0,0,1-1.219,0c0-.15,1.73-.226,4.408-.933a27.3,27.3,0,0,0,4.513-1.67,31.2,31.2,0,0,0,5.07-3.009,30.423,30.423,0,0,0,4.3-4.092,28.1,28.1,0,0,0,2.813-3.957C259.806,209.34,260.347,207.685,260.483,207.73Z" transform="translate(-17.223 -46.587)" fill="#263238"/>
      <g id="Group_301" data-name="Group 301" transform="translate(216.632 164.649)" opacity="0.3">
        <path id="Path_4059" data-name="Path 4059" d="M235,224.833a14.878,14.878,0,0,0,16.8.271c5.356-3.355,7.958-9.147,8.65-15.044A30.374,30.374,0,0,1,235,224.833Z" transform="translate(-235 -210.06)"/>
      </g>
      <g id="Group_302" data-name="Group 302" transform="translate(176.856 143.858)" opacity="0.3">
        <path id="Path_4060" data-name="Path 4060" d="M215.33,196.24l-6.77,9.628c1.414,5.341,3.28,10.365,4.694,15.691a45.493,45.493,0,0,0,2.076-25.319Z" transform="translate(-208.56 -196.24)"/>
      </g>
      <path id="Path_4061" data-name="Path 4061" d="M161.99,275.051l-9.733,15.465L130.7,296.955a5.386,5.386,0,0,1,1.234-4.032c1.5-1.384-4.513.572-4.513.572l-4.513,9.387s-3.009-.211-2.843-2.843,3.58-10.907,3.58-10.907l1.61-.271a4.8,4.8,0,0,1,.617-4.333,14.833,14.833,0,0,1,2.437-7.251,22.972,22.972,0,0,1,4.423-5.235l18.835-7.763Z" transform="translate(-76.345 -18.063)" fill="#ffbe9d"/>
      <path id="Path_4062" data-name="Path 4062" d="M142.772,279.405a28.133,28.133,0,0,1-7.01,3.46,27.82,27.82,0,0,1-7.522,2.061c0-.2,3.295-1.188,7.3-2.708S142.682,279.224,142.772,279.405Z" transform="translate(-72.217 -10.442)" fill="#eb996e"/>
      <path id="Path_4063" data-name="Path 4063" d="M133.778,278.12a26.659,26.659,0,0,1-5.521,2.452,26.21,26.21,0,0,1-5.747,1.805,25.831,25.831,0,0,1,5.506-2.452A26.442,26.442,0,0,1,133.778,278.12Z" transform="translate(-75.107 -11.083)" fill="#eb996e"/>
      <path id="Path_4064" data-name="Path 4064" d="M132.706,275a40.822,40.822,0,0,1-4.423,2.046,41.1,41.1,0,0,1-4.363,2.181A15.736,15.736,0,0,1,132.706,275Z" transform="translate(-74.396 -12.656)" fill="#eb996e"/>
      <path id="Path_4065" data-name="Path 4065" d="M132.2,271.86a16.545,16.545,0,0,1-3.505,1.685,17.5,17.5,0,0,1-3.6,1.5,8.409,8.409,0,0,1,3.31-2.121,8.319,8.319,0,0,1,3.791-1.068Z" transform="translate(-73.8 -14.24)" fill="#eb996e"/>
      <path id="Path_4066" data-name="Path 4066" d="M214.833,172.51a12.217,12.217,0,0,1,2.648,2.888,26.7,26.7,0,0,1,4.077,8.56,26.389,26.389,0,0,1,.8,9.433,12.034,12.034,0,0,1-.827,3.836c-.135,0,.166-1.5.271-3.881a29.938,29.938,0,0,0-4.769-17.631C215.72,173.713,214.727,172.6,214.833,172.51Z" transform="translate(-28.544 -64.351)" fill="#263238"/>
      <path id="Path_4067" data-name="Path 4067" d="M246.1,171.2c4.964,0,9.538,4.588,9.959,9.538.511,5.867.572,14.562-2.332,21.377-4.859,11.373-54.158,69.849-54.158,69.849L152.046,322,139.8,309.739s25.259-41.28,28.689-46.26c7.131-10.4,25.078-28.7,32.194-40.859S223.7,188.17,228.5,183.31,237.33,171.215,246.1,171.2Z" transform="translate(-66.386 -65.012)" fill="#8dc63f"/>
      <path id="Path_4068" data-name="Path 4068" d="M192.929,209.24a9.659,9.659,0,0,0-5.371,2c-.481.451-.888,1.264-.406,1.73a1.369,1.369,0,0,0,1.188.211c7.447-.963,14.337-1.5,21.784-2.482l.572-.873A51.465,51.465,0,0,0,192.929,209.24Z" transform="translate(-42.611 -46.081)" fill="#fafafa"/>
      <path id="Path_4069" data-name="Path 4069" d="M199.815,205.865a53.857,53.857,0,0,0,7,8.7l.406-.692a52.007,52.007,0,0,0-3.159-10.305,17.617,17.617,0,0,0-6.905-8.063A17.165,17.165,0,0,0,199.815,205.865Z" transform="translate(-37.477 -52.755)" fill="#fafafa"/>
      <path id="Path_4070" data-name="Path 4070" d="M206.207,199.229c-.3,4.618-.557,9.026-.857,13.675l2.031-3.911a44.811,44.811,0,0,0,3.234-13.539,4.031,4.031,0,0,0-.181-1.64,1.5,1.5,0,0,0-1.219-.993,1.866,1.866,0,0,0-1.5.873A9.9,9.9,0,0,0,206.207,199.229Z" transform="translate(-33.323 -54.107)" fill="#fafafa"/>
      <path id="Path_4071" data-name="Path 4071" d="M227.749,195.6a2.544,2.544,0,0,1-.346.647c-.3.466-.662,1.053-1.113,1.745-.993,1.5-2.482,3.656-4.363,6.258-3.791,5.22-9.207,12.291-15.315,19.993s-11.779,14.562-15.947,19.557c-2.076,2.452-3.791,4.423-4.98,5.777l-1.4,1.5c-.331.346-.511.527-.527.5a2.853,2.853,0,0,1,.406-.6l1.294-1.625,4.784-5.927,15.766-19.557c6.108-7.687,11.584-14.7,15.48-19.828,1.865-2.512,3.4-4.513,4.513-6.108.481-.662.888-1.219,1.234-1.67A3.01,3.01,0,0,1,227.749,195.6Z" transform="translate(-44.213 -52.705)" fill="#263238"/>
      <path id="Path_4072" data-name="Path 4072" d="M161.07,230.044a51.419,51.419,0,0,0,17.646,2.076,9.613,9.613,0,0,0,5.521-1.5c.527-.406.993-1.173.557-1.685a1.384,1.384,0,0,0-1.173-.3c-7.522.316-14.412.316-21.9.632" transform="translate(-55.657 -36.059)" fill="#fafafa"/>
      <path id="Path_4073" data-name="Path 4073" d="M166.53,240.022a53.856,53.856,0,0,0-6.228-9.252l-.481.662a53.075,53.075,0,0,0,2.287,10.531,17.632,17.632,0,0,0,6.2,8.635,17.225,17.225,0,0,0-1.775-10.576Z" transform="translate(-56.288 -34.965)" fill="#fafafa"/>
      <path id="Path_4074" data-name="Path 4074" d="M158.482,247.07c.692-4.588,1.324-9.026,2.016-13.54l-2.362,3.716a45.374,45.374,0,0,0-4.378,13.239,4.018,4.018,0,0,0,0,1.64,1.5,1.5,0,0,0,1.113,1.1,1.865,1.865,0,0,0,1.595-.737,9.823,9.823,0,0,0,2.016-5.416Z" transform="translate(-59.388 -33.573)" fill="#fafafa"/>
    </g>
    <g id="freepik--paper-plane--inject-123" transform="translate(529.266 51.997)">
      <path id="Path_4075" data-name="Path 4075" d="M398.5,68.272l6.965,9,2.407,14.8,5.265-3.7,5.265,7.838,46.666-44.2Z" transform="translate(-346.929 -51.991)" fill="#8dc63f"/>
      <path id="Path_4076" data-name="Path 4076" d="M409.542,78.474,407.165,80.1,405.48,71.81Z" transform="translate(-343.409 -42.004)" opacity="0.3"/>
      <path id="Path_4077" data-name="Path 4077" d="M403.13,77.269l59.6-25.259L407.026,80.954l-1.489,11.117Z" transform="translate(-344.594 -51.991)" opacity="0.3"/>
      <path id="Path_4078" data-name="Path 4078" d="M461.735,52a3.555,3.555,0,0,1-.692.451L459,53.61l-7.627,4.122L426.006,71.076,405.712,81.606l.135-.436c2.558,4.649,4.874,8.379,6.529,10.952.8,1.234,1.429,2.227,1.941,3.009a5.308,5.308,0,0,1,.632,1.083,6.122,6.122,0,0,1-.8-.978c-.5-.647-1.2-1.625-2.076-2.888-1.76-2.527-4.167-6.213-6.8-10.847l-.165-.286.3-.165,20.234-10.636L451.039,57.28l7.748-3.9,2.121-1.038A2.769,2.769,0,0,1,461.735,52Z" transform="translate(-343.595 -51.996)" fill="#263238"/>
      <path id="Path_4079" data-name="Path 4079" d="M462.84,52c.09.2-13.269,6.018-29.832,13.133S402.92,77.742,402.92,77.546s13.269-6.018,29.832-13.133S462.765,51.821,462.84,52Z" transform="translate(-344.7 -51.997)" fill="#263238"/>
      <path id="Path_4080" data-name="Path 4080" d="M404.772,82.251a19.182,19.182,0,0,1,.15-5.431,19.4,19.4,0,0,1,.933-5.341A19.091,19.091,0,0,1,405.7,76.9a18.791,18.791,0,0,1-.933,5.356Z" transform="translate(-343.829 -42.17)" fill="#263238"/>
      <path id="Path_4081" data-name="Path 4081" d="M367.951,103.072c0,.211-.767.5-1.82.647a2.963,2.963,0,0,1-1.91-.135,3.134,3.134,0,0,1,1.805-.647C367.033,102.8,367.906,102.832,367.951,103.072Z" transform="translate(-364.22 -26.344)" fill="#263238"/>
      <path id="Path_4082" data-name="Path 4082" d="M377.75,99c.12.165-1.113,1.324-2.888,2.377a7.4,7.4,0,0,1-3.49,1.369c-.09-.211,1.354-1.023,3.084-2.046A11.688,11.688,0,0,1,377.75,99Z" transform="translate(-360.615 -28.289)" fill="#263238"/>
      <path id="Path_4083" data-name="Path 4083" d="M383.492,91.662a7.386,7.386,0,0,1-1.655,3.355c-1.189,1.7-2.452,2.813-2.618,2.678a12.413,12.413,0,0,1,1.986-3.129C382.364,92.926,383.3,91.557,383.492,91.662Z" transform="translate(-356.654 -31.994)" fill="#263238"/>
      <path id="Path_4084" data-name="Path 4084" d="M384.669,82.24A6.408,6.408,0,0,1,385,85.971a6.74,6.74,0,0,1-1.083,3.6,13.779,13.779,0,0,1,.3-3.671,15.824,15.824,0,0,1,.451-3.656Z" transform="translate(-354.295 -36.743)" fill="#263238"/>
      <path id="Path_4085" data-name="Path 4085" d="M378.46,75.514a5.07,5.07,0,0,1,3.716.677c1.956.978,2.828,2.588,2.678,2.663s-1.279-1.1-3.009-1.971S378.43,75.755,378.46,75.514Z" transform="translate(-357.037 -40.187)" fill="#263238"/>
      <path id="Path_4086" data-name="Path 4086" d="M370.66,82.131a5.311,5.311,0,0,1,1.5-3.46,5.07,5.07,0,0,1,3.1-2.151c.12.2-1.249,1.113-2.482,2.648S370.871,82.207,370.66,82.131Z" transform="translate(-360.972 -39.628)" fill="#263238"/>
      <path id="Path_4087" data-name="Path 4087" d="M373.307,91.755a5.852,5.852,0,0,1-2.317-3.009,5.777,5.777,0,0,1-.722-3.686,22.317,22.317,0,0,1,1.5,3.37C372.525,90.28,373.5,91.589,373.307,91.755Z" transform="translate(-361.197 -35.321)" fill="#263238"/>
      <path id="Path_4088" data-name="Path 4088" d="M383.206,94.491a6.484,6.484,0,0,1-3.731-.286,6.409,6.409,0,0,1-3.355-1.685,16.325,16.325,0,0,1,3.565.933,15.12,15.12,0,0,1,3.52,1.038Z" transform="translate(-358.218 -31.558)" fill="#263238"/>
      <path id="Path_4089" data-name="Path 4089" d="M392.67,91.83a7.251,7.251,0,0,1-3.264,1.76,7.026,7.026,0,0,1-3.686.662,13.2,13.2,0,0,1,3.415-1.4,12.592,12.592,0,0,1,3.535-1.023Z" transform="translate(-353.375 -31.906)" fill="#263238"/>
      <path id="Path_4090" data-name="Path 4090" d="M400.24,86.14c.15.15-1.023,1.339-2.618,2.633a9.027,9.027,0,0,1-3.1,2.046c-.135-.181,1.038-1.369,2.618-2.648A9.146,9.146,0,0,1,400.24,86.14Z" transform="translate(-348.94 -34.776)" fill="#263238"/>
      <path id="Path_4091" data-name="Path 4091" d="M403.949,80.583c.2.09,0,.948-.677,1.82s-1.294,1.4-1.5,1.264.241-.888.827-1.715S403.753,80.493,403.949,80.583Z" transform="translate(-345.308 -37.583)" fill="#263238"/>
    </g>
  </g>
</svg>
