<svg xmlns="http://www.w3.org/2000/svg" width="54.14" height="32.955" viewBox="0 0 54.14 32.955">
  <g id="Group_1295" data-name="Group 1295" transform="translate(-4 -974.362)">
    <path id="Path_5936" data-name="Path 5936" d="M6.372,974.362A2.4,2.4,0,0,0,4,976.716v28.247a2.4,2.4,0,0,0,2.372,2.354h49.4a2.4,2.4,0,0,0,2.372-2.354V976.716a2.4,2.4,0,0,0-2.372-2.354H6.372Zm1.159,3.531H54.609v2.023L31.07,996.338,7.531,979.916Zm0,6.308,10.85,7.579-10.85,9.745V984.2Zm47.078,0v17.323l-10.85-9.744,10.85-7.579ZM21.36,993.855l8.7,6.069a1.766,1.766,0,0,0,2.023,0l8.7-6.067,11.071,9.931H10.289l11.071-9.931Z" fill="#fff"/>
  </g>
</svg>
