<svg xmlns="http://www.w3.org/2000/svg" width="39.454" height="51.796" viewBox="0 0 39.454 51.796">
  <g id="_4287533" data-name="4287533" transform="translate(-61)">
    <path id="Path_38" data-name="Path 38" d="M88.82,117.314H86.291v-1.851a2.537,2.537,0,0,1,1.2-2.143,12.645,12.645,0,1,0-13.529,0,2.537,2.537,0,0,1,1.2,2.143v1.851H72.634A11.647,11.647,0,0,0,61,128.948v2.226a1.517,1.517,0,0,0,1.517,1.517H98.936a1.517,1.517,0,0,0,1.517-1.517v-2.226A11.647,11.647,0,0,0,88.82,117.314Zm-17.7-14.669a9.611,9.611,0,1,1,14.75,8.111,5.576,5.576,0,0,0-2.481,3.523H82.244v-7.97l2.59-2.59a1.517,1.517,0,1,0-2.146-2.146l-1.962,1.962-1.962-1.962a1.517,1.517,0,0,0-2.146,2.146l2.59,2.59v7.97H78.068a5.576,5.576,0,0,0-2.481-3.523A9.561,9.561,0,0,1,71.116,102.645Zm12.14,14.669v1.517a2.529,2.529,0,0,1-5.058,0v-1.517Zm14.163,12.342H64.035v-.708a8.609,8.609,0,0,1,8.6-8.6h2.741a5.563,5.563,0,0,0,10.7,0H88.82a8.609,8.609,0,0,1,8.6,8.6Z" transform="translate(0 -80.895)" fill="#fff"/>
    <path id="Path_39" data-name="Path 39" d="M242.517,6.07a1.517,1.517,0,0,0,1.517-1.517V1.517a1.517,1.517,0,1,0-3.035,0V4.552A1.517,1.517,0,0,0,242.517,6.07Z" transform="translate(-161.791)" fill="#fff"/>
    <path id="Path_40" data-name="Path 40" d="M142.719,31.7a1.517,1.517,0,1,0,2.628-1.517l-1.517-2.628a1.517,1.517,0,0,0-2.628,1.517Z" transform="translate(-71.905 -24.082)" fill="#fff"/>
    <path id="Path_41" data-name="Path 41" d="M68.552,102.83l2.628,1.517a1.517,1.517,0,0,0,1.517-2.628L70.069,100.2a1.517,1.517,0,0,0-1.517,2.628Z" transform="translate(-6.106 -89.882)" fill="#fff"/>
    <path id="Path_42" data-name="Path 42" d="M388.425,103.792a1.518,1.518,0,0,0,2.073.555l2.628-1.517a1.517,1.517,0,1,0-1.517-2.628l-2.628,1.517A1.517,1.517,0,0,0,388.425,103.792Z" transform="translate(-294.119 -89.882)" fill="#fff"/>
    <path id="Path_43" data-name="Path 43" d="M326.757,32.253a1.517,1.517,0,0,0,2.073-.555l1.517-2.628a1.517,1.517,0,0,0-2.628-1.517L326.2,30.18A1.517,1.517,0,0,0,326.757,32.253Z" transform="translate(-238.19 -24.082)" fill="#fff"/>
  </g>
</svg>
