<svg xmlns="http://www.w3.org/2000/svg" width="530" height="498.339" viewBox="0 0 530 498.339">
  <g id="Upvote-pana" transform="translate(-50.79 -80.079)">
    <g id="freepik--Floor--inject-207" transform="translate(50.79 563.753)">
      <path id="Path_4200" data-name="Path 4200" d="M580.79,455.016c0,.194-118.659.336-264.987.336s-265.013-.142-265.013-.336,118.62-.336,265.013-.336S580.79,454.835,580.79,455.016Z" transform="translate(-50.79 -454.68)" fill="#263238"/>
    </g>
    <g id="freepik--Character--inject-207" transform="translate(201.379 80.078)">
      <path id="Path_4201" data-name="Path 4201" d="M319.707,197.34c-.8.968-.839,9.038-.839,9.038s-18.916,32.279-21.55,32.718-14.1-22.389-14.1-22.389L271.43,227.553s6.146,28.845,25.359,33.79c9.038,2.337,24.894-26.417,35.456-50.356.168-.374,5.642-13.389,5.642-13.389Z" transform="translate(-137.135 -45.935)" fill="#a56959"/>
      <rect id="Rectangle_335" data-name="Rectangle 335" width="5.875" height="126.277" transform="translate(163.891 73.603) rotate(-18.04)" fill="#263238"/>
      <rect id="Rectangle_336" data-name="Rectangle 336" width="5.875" height="126.277" transform="translate(160.952 74.201) rotate(-18.072)" fill="#455a64"/>
      <rect id="Rectangle_337" data-name="Rectangle 337" width="84.778" height="68.445" transform="translate(110.48 26.254) rotate(-18.04)" fill="#8dc63f"/>
      <g id="Group_309" data-name="Group 309" transform="translate(110.48 0)" opacity="0.3">
        <rect id="Rectangle_338" data-name="Rectangle 338" width="84.778" height="68.445" transform="translate(0 26.254) rotate(-18.04)"/>
      </g>
      <rect id="Rectangle_339" data-name="Rectangle 339" width="84.778" height="68.445" transform="translate(107.583 27.194) rotate(-18.04)" fill="#8dc63f"/>
      <path id="Path_4202" data-name="Path 4202" d="M282.83,118.614l2.724-.943,3.073-10.329-1.9-5.462s4.132-1.73,6.12,5.591,1.9,5.307,1.9,5.307,8.974-3.086,9.994-2.582c.736.374,4.08,9.193,5.862,14a5.539,5.539,0,0,1-1.872,6.559,4.709,4.709,0,0,1-.917.465c-2.247.775-14.306,2.944-14.306,2.944L288.8,135.8Z" transform="translate(-133.816 -73.782)" fill="#fff"/>
      <path id="Path_4203" data-name="Path 4203" d="M276.37,116.163l8.186,18.1,4.674-1.627-6.378-18.309Z" transform="translate(-135.697 -70.105)" fill="#fff"/>
      <path id="Path_4204" data-name="Path 4204" d="M325.448,196.8a.618.618,0,0,1-.077.284c-.555,1.291-3.163,4.945-4.054,4.764s-2.363,0-1.95-2.35a38.219,38.219,0,0,1,3.008-5.049s.7-.852,2.673-.09C326.261,194.839,325.448,196.8,325.448,196.8Z" transform="translate(-123.198 -46.895)" fill="#a56959"/>
      <path id="Path_4205" data-name="Path 4205" d="M323.807,193.8a.685.685,0,0,1-.09.31c-.646,1.5-4.17,7.566-5.061,7.411s-2.828-1.833-2.518-2.724,4.661-7.5,4.661-7.5.762-1.007,2.737-.245C324.75,191.519,323.807,193.8,323.807,193.8Z" transform="translate(-124.127 -47.848)" fill="#a56959"/>
      <path id="Path_4206" data-name="Path 4206" d="M321.5,191.383a.8.8,0,0,1-.09.323c-.633,1.485-4.17,7.566-5.061,7.4s-2.828-1.821-2.518-2.711,4.674-7.515,4.674-7.515.749-.994,2.724-.245C322.453,189.111,321.5,191.383,321.5,191.383Z" transform="translate(-124.8 -48.552)" fill="#a56959"/>
      <path id="Path_4207" data-name="Path 4207" d="M319.177,189.034a.766.766,0,0,1-.09.31c-.646,1.485-4.171,7.566-5.061,7.411s-2.828-1.833-2.518-2.724,4.661-7.5,4.661-7.5.762-1.007,2.737-.245C320.133,186.749,319.177,189.034,319.177,189.034Z" transform="translate(-125.475 -49.237)" fill="#a56959"/>
      <path id="Path_4208" data-name="Path 4208" d="M318.77,200.213a13.3,13.3,0,0,0,1.962-2.828,13.853,13.853,0,0,0,1.562-3,13,13,0,0,0-1.963,2.815A13.775,13.775,0,0,0,318.77,200.213Z" transform="translate(-123.351 -46.794)" fill="#7c4435"/>
      <path id="Path_4209" data-name="Path 4209" d="M316,199.218a25.286,25.286,0,0,0,2.724-4.041,26.434,26.434,0,0,0,2.35-4.287,29,29,0,0,0-2.724,4.054A27.941,27.941,0,0,0,316,199.218Z" transform="translate(-124.158 -47.813)" fill="#7c4435"/>
      <g id="Group_310" data-name="Group 310" transform="translate(188.86 140.714)" opacity="0.78">
        <path id="Path_4210" data-name="Path 4210" d="M313.69,196.032a19.577,19.577,0,0,0,2.44-3.37,19.061,19.061,0,0,0,2.066-3.6,20.658,20.658,0,0,0-2.44,3.383,19.2,19.2,0,0,0-2.066,3.589Z" transform="translate(-313.69 -189.06)" fill="#7c4435"/>
      </g>
      <path id="Path_4211" data-name="Path 4211" d="M310.046,208.837l-1.291-5.668a9.864,9.864,0,0,1,1.162-7.243l.994-1.666,12.912,6.52s-3.6,3.744-6.714,1.369c2.1,2.582,2.13,7.36.788,11.091Z" transform="translate(-126.338 -46.832)" fill="#a56959"/>
      <path id="Path_4212" data-name="Path 4212" d="M317.736,207.419c-.077,0,0-.646-.116-1.756a6.456,6.456,0,0,0-2.221-3.874l-1.188-.943,1.446.465,3.2,1.033h-.065a3.757,3.757,0,0,0,3.706-1.536c.065-.1.116-.219.155-.284l.168.413c-3.564-1.614-6.766-3.125-9.038-4.351a18.9,18.9,0,0,1-3.525-2.156,32.43,32.43,0,0,1,3.731,1.743c2.3,1.11,5.513,2.582,9.038,4.158l.284.129-.1.284a4.107,4.107,0,0,1-.207.413,3.874,3.874,0,0,1-2,1.588,5.165,5.165,0,0,1-2.35.232h-.065l-3.189-1.11.271-.478a6.365,6.365,0,0,1,2.2,4.261A3.383,3.383,0,0,1,317.736,207.419Z" transform="translate(-125.829 -46.782)" fill="#7c4435"/>
      <path id="Path_4213" data-name="Path 4213" d="M319.771,198.379c.129,0-.181.671-.1,1.6a1.175,1.175,0,0,0,.826,1.072,1.8,1.8,0,0,0,1.6-.8c.943-1.227,1.885-2.324,2.466-3.138s.9-1.382,1.007-1.291-.1.658-.607,1.588a31.051,31.051,0,0,1-2.363,3.318,2.311,2.311,0,0,1-2.234.956,1.64,1.64,0,0,1-1.175-1.64,2.75,2.75,0,0,1,.31-1.291C319.629,198.482,319.733,198.353,319.771,198.379Z" transform="translate(-123.229 -46.38)" fill="#7c4435"/>
      <path id="Path_4214" data-name="Path 4214" d="M195.076,200.437s17.857,35.094,20.491,35.6,13.609-21.188,13.609-21.188l16.643,13.209s-10.859,25.694-27.734,33.4c-8.522,3.874-24.881-26.43-35.456-50.356L177,197.79" transform="translate(-164.631 -45.804)" fill="#a56959"/>
      <path id="Path_4215" data-name="Path 4215" d="M198.219,211.654s-.452-1.782-2.2-6.74L196.2,192.3s-2.182-1.549-2.582,4.222a2.828,2.828,0,0,1-5.565.245,4.545,4.545,0,0,1,6.624-5.165s1.73-.646,1.291-2.027-5.72-2.737-8.431-.245a10.691,10.691,0,0,0-2.582,3.706s-4.532-10.936-5.436-10.613-1.782,1.562,3.28,13.506c0,0-4.868-9.038-5.629-10.071s-2.724-1.1-1.472,1.937l4,9.645s-3.964-5.462-4.313-5.888c-.917-1.11-2.092-.362-1.382,1.356l2.776,6.895,7.411,17h-.116" transform="translate(-165.565 -50.281)" fill="#a56959"/>
      <path id="Path_4216" data-name="Path 4216" d="M180.53,199.059a9.962,9.962,0,0,1,1.072.349,5.165,5.165,0,0,1,2.2,1.575l.194.22.077-.284a8.1,8.1,0,0,1,.374-.955,6.727,6.727,0,0,1,2.26-2.582c.736-.491,1.291-.658,1.291-.71a3.151,3.151,0,0,0-1.382.516,6.2,6.2,0,0,0-2.427,2.582,6.586,6.586,0,0,0-.387,1.02l.271-.065a4.971,4.971,0,0,0-2.376-1.562A2.582,2.582,0,0,0,180.53,199.059Z" transform="translate(-163.603 -46.13)" fill="#7c4435"/>
      <path id="Path_4217" data-name="Path 4217" d="M249.18,149.451a10.9,10.9,0,0,0-11.388-5.281,14.319,14.319,0,0,0-10.084,8.083,21.227,21.227,0,0,0-1.291,13.144c.839,4.416,2.737,9.038,1.227,13.247a14.409,14.409,0,0,1-5.165,6.236,55.074,55.074,0,0,0-6.456,5.048,9.529,9.529,0,0,0-3.112,7.347c.271,2.737,2.763,5.307,5.487,4.945-3.874,2.97-4.726,8.728-2.905,13.209s5.888,7.747,10.329,9.71c3.641,1.6,7.837,2.427,11.621,1.136a14.371,14.371,0,0,0,8.2-8.38,32.125,32.125,0,0,0,1.937-11.866c.09-6.546-.62-13.351-3.99-18.954.374,2.221,3.267,3.4,5.307,2.44a5.655,5.655,0,0,0,2.866-5.655,10.988,10.988,0,0,0-2.918-5.965c-1.472-1.717-3.2-3.176-4.687-4.868-2.957-3.37-4.906-7.9-4.2-12.318s4.674-8.418,9.142-8.2" transform="translate(-154.176 -61.468)" fill="#263238"/>
      <path id="Path_4218" data-name="Path 4218" d="M217.238,184.8a3.107,3.107,0,0,0,.245-.723,3.06,3.06,0,0,0-.323-2.066,2.789,2.789,0,0,0-2.724-1.524,3.551,3.551,0,0,0-3.125,2.582,4.377,4.377,0,0,0,1.937,4.584,6.146,6.146,0,0,0,5.9.258A10.652,10.652,0,0,0,224,183.163a14.965,14.965,0,0,0,1.7-7.218,27.3,27.3,0,0,0-1.407-7.411,22.181,22.181,0,0,1-1.123-7.114,16.786,16.786,0,0,1,5.087-10.885,23.578,23.578,0,0,1,6.74-4.61c.878-.4,1.588-.658,2.066-.839a3.073,3.073,0,0,1,.749-.207,5.611,5.611,0,0,1-.7.336c-.465.207-1.149.5-2,.943a24.843,24.843,0,0,0-6.456,4.713,16.488,16.488,0,0,0-4.8,10.575A21.847,21.847,0,0,0,225,168.353a27.593,27.593,0,0,1,1.446,7.579,15.559,15.559,0,0,1-1.795,7.54,11.285,11.285,0,0,1-5.165,5.01,6.74,6.74,0,0,1-6.456-.361,4.881,4.881,0,0,1-2.092-5.165,3.938,3.938,0,0,1,3.564-2.905,3.047,3.047,0,0,1,1.911.516,3.369,3.369,0,0,1,1.072,1.291,3.047,3.047,0,0,1,.219,2.221A1.64,1.64,0,0,1,217.238,184.8Z" transform="translate(-154.784 -61.21)" fill="#263238"/>
      <path id="Path_4219" data-name="Path 4219" d="M179.533,443.88l-.9,3.434s-12.434,20.233-10.962,22.118a7.954,7.954,0,0,0,8.625,2.7c4.325-1.085,22.583-18.438,22.583-18.438l1.046-2.763Z" transform="translate(-167.383 25.85)" fill="#8dc63f"/>
      <g id="Group_311" data-name="Group 311" transform="translate(0 478.068)" opacity="0.3">
        <path id="Path_4220" data-name="Path 4220" d="M168.944,462.968s5.384-2.376,8.483,4.571c0,0,2.337-.865,8.793-6.275s12.692-10.691,12.692-10.691.671-.529.465,0-.465,1.472-.465,1.472l-12.46,10.988s-7.476,6.456-9.348,6.908-3.757,1.149-6.133.077a6.572,6.572,0,0,1-3.551-3.073C167.42,466.687,168.944,462.968,168.944,462.968Z" transform="translate(-167.42 -450.338)"/>
      </g>
      <path id="Path_4221" data-name="Path 4221" d="M177.742,467.138a13.494,13.494,0,0,0-.659-1.73,9.916,9.916,0,0,0-2.582-3.486,9.7,9.7,0,0,0-3.874-1.95c-1.1-.271-1.821-.271-1.808-.349a4.672,4.672,0,0,1,1.872.077,8.882,8.882,0,0,1,4.08,1.911,9.038,9.038,0,0,1,2.582,3.693A4.287,4.287,0,0,1,177.742,467.138Z" transform="translate(-167.012 30.417)" fill="#263238"/>
      <path id="Path_4222" data-name="Path 4222" d="M199.908,449.84a1.675,1.675,0,0,1-.3.3l-.865.775-3.241,2.8L184.7,462.868a46.075,46.075,0,0,1-6.223,4.726,10.033,10.033,0,0,1-6.185,1.472,6.456,6.456,0,0,1-3.873-1.937,3.615,3.615,0,0,1-.826-1.356,7.3,7.3,0,0,0,.943,1.291,6.249,6.249,0,0,0,3.744,1.769,9.916,9.916,0,0,0,5.965-1.511,47.565,47.565,0,0,0,6.146-4.726l10.885-9.038,3.318-2.7.917-.723A2.6,2.6,0,0,1,199.908,449.84Z" transform="translate(-167.371 27.585)" fill="#263238"/>
      <path id="Path_4223" data-name="Path 4223" d="M178.382,457.1a13.474,13.474,0,0,1-2.3-1.433,13.731,13.731,0,0,1-2.234-1.524,6.87,6.87,0,0,1,2.453,1.188A7.153,7.153,0,0,1,178.382,457.1Z" transform="translate(-165.548 28.838)" fill="#263238"/>
      <path id="Path_4224" data-name="Path 4224" d="M180.694,454.736a18.891,18.891,0,0,1-2.828-1.175,19.784,19.784,0,0,1-2.776-1.291,13.892,13.892,0,0,1,5.6,2.466Z" transform="translate(-165.187 28.293)" fill="#263238"/>
      <path id="Path_4225" data-name="Path 4225" d="M182.674,452.9c-.077.09-1.2-.891-2.841-1.691s-3.086-1.1-3.073-1.214a6.546,6.546,0,0,1,3.254.852,6.637,6.637,0,0,1,2.66,2.053Z" transform="translate(-164.7 27.629)" fill="#263238"/>
      <path id="Path_4226" data-name="Path 4226" d="M183.648,450.464c-.077.1-1.123-.659-2.582-1.291s-2.711-.917-2.686-1.033a7.85,7.85,0,0,1,5.242,2.337Z" transform="translate(-164.229 27.091)" fill="#263238"/>
      <path id="Path_4227" data-name="Path 4227" d="M182.906,448.926a5.075,5.075,0,0,1-1.536-1.033,11.615,11.615,0,0,1-1.407-1.446,9.615,9.615,0,0,1-.7-.955,2.159,2.159,0,0,1-.323-.594.8.8,0,0,1,.129-.8,1.291,1.291,0,0,1,1.407-.155,2.686,2.686,0,0,1,1.033.71,3.874,3.874,0,0,1,.943,1.821,5.769,5.769,0,0,1,.129,1.356c0,.323,0,.491-.077.491a15.7,15.7,0,0,0-.336-1.782,3.694,3.694,0,0,0-.93-1.627,2.777,2.777,0,0,0-.9-.607.943.943,0,0,0-.968.065c-.194.207,0,.581.22.9a11.036,11.036,0,0,0,.671.942,13.044,13.044,0,0,0,1.291,1.472C182.338,448.461,182.906,448.874,182.906,448.926Z" transform="translate(-164.081 25.827)" fill="#263238"/>
      <path id="Path_4228" data-name="Path 4228" d="M181.83,448.267a1.291,1.291,0,0,1,.142-.491,5.331,5.331,0,0,1,.736-1.188,5.385,5.385,0,0,1,1.64-1.291,5.165,5.165,0,0,1,1.162-.439,1.706,1.706,0,0,1,.723,0,.8.8,0,0,1,.594.581,1.665,1.665,0,0,1-.542,1.291,5.163,5.163,0,0,1-.943.826,4.828,4.828,0,0,1-1.937.762,4.2,4.2,0,0,1-1.395,0c-.323,0-.491-.129-.491-.155a9.427,9.427,0,0,0,1.833-.142,4.841,4.841,0,0,0,1.782-.788,4.778,4.778,0,0,0,.852-.775,1.291,1.291,0,0,0,.439-.968c0-.3-.465-.361-.839-.284a5.164,5.164,0,0,0-1.085.387,5.461,5.461,0,0,0-1.575,1.149,15.893,15.893,0,0,0-1.1,1.523Z" transform="translate(-163.314 26.124)" fill="#263238"/>
      <path id="Path_4229" data-name="Path 4229" d="M191.256,448.653a3.229,3.229,0,0,0-1.756.1,6.456,6.456,0,0,0-3.138,2.853,6.972,6.972,0,0,0-.826,4.17c.129,1.123.426,1.769.362,1.795a3.667,3.667,0,0,1-.646-1.743,6.727,6.727,0,0,1,.762-4.429,6.223,6.223,0,0,1,3.4-2.918,1.963,1.963,0,0,1,1.846.168Z" transform="translate(-162.256 27.146)" fill="#263238"/>
      <path id="Path_4230" data-name="Path 4230" d="M185.177,454.9a21.405,21.405,0,0,1-4.467,3.8,11.041,11.041,0,0,1,2.1-2.053,10.332,10.332,0,0,1,2.363-1.743Z" transform="translate(-163.55 29.059)" fill="#263238"/>
      <path id="Path_4231" data-name="Path 4231" d="M186.1,453.88c.116,0,.258.258.336.594a.844.844,0,0,1-.065.671c-.065.039-.258-.233-.336-.594S186,453.893,186.1,453.88Z" transform="translate(-162.011 28.762)" fill="#263238"/>
      <path id="Path_4232" data-name="Path 4232" d="M186.417,451.911c.116,0,.129.336,0,.671s-.232.594-.336.581-.142-.31,0-.671S186.313,451.872,186.417,451.911Z" transform="translate(-162.013 28.187)" fill="#263238"/>
      <path id="Path_4233" data-name="Path 4233" d="M187.568,450.235c.09.09,0,.323-.258.607s-.452.452-.542.4,0-.349.219-.646S187.5,450.157,187.568,450.235Z" transform="translate(-161.797 27.694)" fill="#263238"/>
      <path id="Path_4234" data-name="Path 4234" d="M189.335,449.2c0,.1-.181.31-.491.452s-.607.194-.671.1.168-.31.5-.465S189.309,449.1,189.335,449.2Z" transform="translate(-161.381 27.383)" fill="#263238"/>
      <path id="Path_4235" data-name="Path 4235" d="M191.341,449.047c0,.1-.31.207-.646.207s-.633-.09-.646-.207.271-.194.646-.207S191.354,448.879,191.341,449.047Z" transform="translate(-160.831 27.294)" fill="#263238"/>
      <path id="Path_4236" data-name="Path 4236" d="M308.292,449.87l-.09-2.44-24.752.71.207,8.057h1.537c6.817.168,34.642.413,39.148-.994C329.351,453.692,308.292,449.87,308.292,449.87Z" transform="translate(-133.635 26.884)" fill="#8dc63f"/>
      <g id="Group_312" data-name="Group 312" transform="translate(149.853 476.313)" opacity="0.3">
        <path id="Path_4237" data-name="Path 4237" d="M292.583,455.333a7.94,7.94,0,0,0-3.292-4.8,8.716,8.716,0,0,0-5.81-1.511l.194,6.456Z" transform="translate(-283.48 -448.978)"/>
      </g>
      <g id="Group_313" data-name="Group 313" transform="translate(150.021 478.923)" opacity="0.3">
        <path id="Path_4238" data-name="Path 4238" d="M318.562,451s7.4,1.769,6.52,2.918-29.025,1.885-41.472,1.2V454.6l32.834-.594S317.129,451.129,318.562,451Z" transform="translate(-283.61 -451)"/>
      </g>
      <path id="Path_4239" data-name="Path 4239" d="M283.33,454.065h1.653l4.48.065c3.783,0,9.038,0,14.8-.142s11-.387,14.784-.607l4.48-.3,1.214-.1h-1.227l-4.48.194c-3.783.181-9.038.387-14.784.529s-11,.207-14.784.232h-5.707Z" transform="translate(-133.67 28.5)" fill="#263238"/>
      <path id="Path_4240" data-name="Path 4240" d="M309.067,454.451a5.978,5.978,0,0,1,2.26-3.641,3.279,3.279,0,0,0-1.743,1.5,2.957,2.957,0,0,0-.516,2.143Z" transform="translate(-126.186 27.868)" fill="#263238"/>
      <path id="Path_4241" data-name="Path 4241" d="M303.353,451.557a2.764,2.764,0,0,0,.749-.891c.336-.529.568-1.007.491-1.046s-.4.362-.749.9S303.288,451.519,303.353,451.557Z" transform="translate(-127.844 27.521)" fill="#263238"/>
      <path id="Path_4242" data-name="Path 4242" d="M301.781,450.712a2.862,2.862,0,0,0,.852-.568c.413-.362.71-.71.646-.762s-.439.194-.852.555S301.73,450.647,301.781,450.712Z" transform="translate(-128.3 27.45)" fill="#263238"/>
      <path id="Path_4243" data-name="Path 4243" d="M300.75,448.791a5.94,5.94,0,0,0,2.582,0,3.357,3.357,0,0,0-1.291-.116A3.084,3.084,0,0,0,300.75,448.791Z" transform="translate(-128.598 27.24)" fill="#263238"/>
      <path id="Path_4244" data-name="Path 4244" d="M300.38,447.58a3.766,3.766,0,0,0,2.931.129,9.3,9.3,0,0,0-1.472,0A9.617,9.617,0,0,0,300.38,447.58Z" transform="translate(-128.706 26.927)" fill="#263238"/>
      <path id="Path_4245" data-name="Path 4245" d="M304,450.029a4.9,4.9,0,0,0,1.588,0,10.088,10.088,0,0,0,1.666-.387,4.575,4.575,0,0,0,.956-.4.878.878,0,0,0,.387-.465.581.581,0,0,0-.258-.581,3.06,3.06,0,0,0-3.577.878,2.467,2.467,0,0,0-.478,1.007.75.75,0,0,0,0,.387,4.313,4.313,0,0,1,.684-1.291,2.763,2.763,0,0,1,1.291-.852,2.674,2.674,0,0,1,1.9,0c.258.168.168.439-.116.607a3.868,3.868,0,0,1-.878.374,11.883,11.883,0,0,1-1.614.439C304.542,449.965,304,449.978,304,450.029Z" transform="translate(-127.652 27.035)" fill="#263238"/>
      <path id="Path_4246" data-name="Path 4246" d="M304.747,450.242a1.394,1.394,0,0,0,.155-1.033,2.427,2.427,0,0,0-.5-1.046,1.653,1.653,0,0,0-1.291-.723.594.594,0,0,0-.465.7,1.407,1.407,0,0,0,.284.646,4.417,4.417,0,0,0,.775.878,2.274,2.274,0,0,0,.93.568,10.506,10.506,0,0,1-.775-.71,4.518,4.518,0,0,1-.7-.865c-.219-.31-.387-.865,0-.943a1.46,1.46,0,0,1,1.072.607,2.415,2.415,0,0,1,.478.943A5.657,5.657,0,0,1,304.747,450.242Z" transform="translate(-128.05 26.887)" fill="#263238"/>
      <path id="Path_4247" data-name="Path 4247" d="M283.58,449.045a9.631,9.631,0,0,1,1.821,0,8.533,8.533,0,0,1,4.016,1.42,7.566,7.566,0,0,1,2.582,3.2c.4.968.465,1.627.516,1.627a1.293,1.293,0,0,0,0-.465,6.032,6.032,0,0,0-.31-1.227,7.088,7.088,0,0,0-2.582-3.357,8.019,8.019,0,0,0-4.183-1.395,7.546,7.546,0,0,0-1.356.078C283.735,448.915,283.567,448.967,283.58,449.045Z" transform="translate(-133.598 27.296)" fill="#263238"/>
      <path id="Path_4248" data-name="Path 4248" d="M292.88,452.135a14.283,14.283,0,0,0,3.6.245,15.886,15.886,0,0,0,3.6-.361,28.687,28.687,0,0,0-3.6.077C294.494,452.174,292.893,452.006,292.88,452.135Z" transform="translate(-130.89 28.209)" fill="#263238"/>
      <path id="Path_4249" data-name="Path 4249" d="M289.143,452.2c-.064,0,.142.31.31.646s.284.646.362.633.116-.362-.09-.749S289.194,452.138,289.143,452.2Z" transform="translate(-131.981 28.27)" fill="#263238"/>
      <path id="Path_4250" data-name="Path 4250" d="M287.68,450.6a1.373,1.373,0,0,0,.374.529c.271.232.516.374.581.323s-.116-.3-.375-.529S287.732,450.551,287.68,450.6Z" transform="translate(-132.404 27.804)" fill="#263238"/>
      <path id="Path_4251" data-name="Path 4251" d="M285.64,449.942c0,.078.349,0,.71.181s.633.271.7.219-.155-.362-.607-.491S285.614,449.877,285.64,449.942Z" transform="translate(-132.998 27.574)" fill="#263238"/>
      <path id="Path_4252" data-name="Path 4252" d="M284.19,449.614a.657.657,0,0,0,.323.245.858.858,0,0,0,.426,0c.026,0-.116-.194-.323-.258S284.216,449.536,284.19,449.614Z" transform="translate(-133.42 27.502)" fill="#263238"/>
      <path id="Path_4253" data-name="Path 4253" d="M341.835,499.444l-29.09-211.068h0l-.826-13.6-72.874-3.46-3.086,11.453c-10.226,36.05-61.9,210.371-61.9,210.371L199.3,501.11l75.146-199.744,34.978,197.7Z" transform="translate(-165.487 -24.394)" fill="#263238"/>
      <path id="Path_4254" data-name="Path 4254" d="M278.1,272.834c-.194,0-.387-.4-.439-.93s.065-.981.245-.994.374.4.426.93S278.231,272.821,278.1,272.834Z" transform="translate(-135.324 -24.514)" fill="#455a64"/>
      <path id="Path_4255" data-name="Path 4255" d="M278.679,279.218c-.194,0-.426-.826-.529-1.885a3.521,3.521,0,0,1,.142-1.963c.142-.026.413.826.529,1.9S278.86,279.192,278.679,279.218Z" transform="translate(-135.191 -23.215)" fill="#455a64"/>
      <path id="Path_4256" data-name="Path 4256" d="M279.29,285.155c-.181,0-.413-.813-.529-1.872a3.587,3.587,0,0,1,.129-1.963,3.54,3.54,0,0,1,.542,1.885C279.548,284.264,279.484,285.142,279.29,285.155Z" transform="translate(-135.015 -21.483)" fill="#455a64"/>
      <path id="Path_4257" data-name="Path 4257" d="M279.946,291.1c-.194,0-.439-.826-.555-1.885a3.5,3.5,0,0,1,.129-1.95,3.521,3.521,0,0,1,.542,1.872C280.178,290.2,280.191,291.079,279.946,291.1Z" transform="translate(-134.831 -19.75)" fill="#455a64"/>
      <path id="Path_4258" data-name="Path 4258" d="M280.61,297.045c-.181,0-.426-.826-.555-1.885s-.065-1.937.116-1.95.439.813.555,1.872S280.791,297.019,280.61,297.045Z" transform="translate(-134.644 -18.021)" fill="#455a64"/>
      <path id="Path_4259" data-name="Path 4259" d="M281.291,302.985c-.181,0-.426-.826-.555-1.885s-.065-1.937.116-1.95.426.813.555,1.872S281.484,302.959,281.291,302.985Z" transform="translate(-134.446 -16.291)" fill="#455a64"/>
      <path id="Path_4260" data-name="Path 4260" d="M282,308.915c-.194,0-.439-.813-.568-1.872s-.077-1.937.1-1.963.439.826.568,1.885S282.185,308.85,282,308.915Z" transform="translate(-134.243 -14.564)" fill="#455a64"/>
      <path id="Path_4261" data-name="Path 4261" d="M282.725,314.865c-.194,0-.439-.826-.568-1.885s-.09-1.924.09-1.95.439.813.568,1.872S282.906,314.865,282.725,314.865Z" transform="translate(-134.034 -12.832)" fill="#455a64"/>
      <path id="Path_4262" data-name="Path 4262" d="M283.455,320.785c-.181,0-.439-.813-.568-1.872s-.09-1.937.09-1.963.439.813.581,1.872S283.649,320.759,283.455,320.785Z" transform="translate(-133.821 -11.108)" fill="#455a64"/>
      <path id="Path_4263" data-name="Path 4263" d="M284.206,326.715c-.181,0-.439-.813-.568-1.872s-.1-1.937.09-1.963.439.826.568,1.872S284.4,326.689,284.206,326.715Z" transform="translate(-133.604 -9.382)" fill="#455a64"/>
      <path id="Path_4264" data-name="Path 4264" d="M284.979,332.645c-.194,0-.452-.813-.581-1.872s-.1-1.937.077-1.963.452.813.581,1.872S285.2,332.619,284.979,332.645Z" transform="translate(-133.383 -7.655)" fill="#455a64"/>
      <path id="Path_4265" data-name="Path 4265" d="M285.75,338.575c-.181,0-.439-.813-.581-1.872s-.1-1.937.077-1.963.452.813.594,1.872S285.931,338.549,285.75,338.575Z" transform="translate(-133.16 -5.928)" fill="#455a64"/>
      <path id="Path_4266" data-name="Path 4266" d="M286.531,344.492c-.181,0-.439-.814-.581-1.859s-.1-1.937.077-1.963.452.813.594,1.872S286.724,344.466,286.531,344.492Z" transform="translate(-132.933 -4.202)" fill="#455a64"/>
      <path id="Path_4267" data-name="Path 4267" d="M287.321,350.422c-.181,0-.439-.813-.581-1.872s-.1-1.937.078-1.95.439.8.581,1.859S287.514,350.4,287.321,350.422Z" transform="translate(-132.703 -2.475)" fill="#455a64"/>
      <path id="Path_4268" data-name="Path 4268" d="M288.153,356.342c-.181,0-.452-.8-.594-1.859s-.1-1.937.078-1.963.452.813.594,1.872A3.388,3.388,0,0,1,288.153,356.342Z" transform="translate(-132.464 -0.751)" fill="#455a64"/>
      <path id="Path_4269" data-name="Path 4269" d="M288.923,362.272c-.181,0-.452-.813-.594-1.872s-.1-1.924.077-1.95.452.8.594,1.859S289.1,362.246,288.923,362.272Z" transform="translate(-132.24 0.975)" fill="#455a64"/>
      <path id="Path_4270" data-name="Path 4270" d="M289.725,368.192c-.181,0-.439-.814-.594-1.859s-.1-1.937.077-1.963.452.813.594,1.872S289.918,368.166,289.725,368.192Z" transform="translate(-132.008 2.699)" fill="#455a64"/>
      <path id="Path_4271" data-name="Path 4271" d="M290.56,374.112c-.194,0-.465-.813-.607-1.872a4,4,0,0,1,0-1.95,3.45,3.45,0,0,1,.607,1.859C290.7,373.2,290.741,374.086,290.56,374.112Z" transform="translate(-131.771 4.423)" fill="#455a64"/>
      <path id="Path_4272" data-name="Path 4272" d="M291.434,380.009c-.181,0-.465-.8-.62-1.846a3.9,3.9,0,0,1,0-1.963,3.47,3.47,0,0,1,.62,1.859C291.589,379.118,291.615,379.983,291.434,380.009Z" transform="translate(-131.522 6.144)" fill="#455a64"/>
      <path id="Path_4273" data-name="Path 4273" d="M292.325,385.919c-.181,0-.465-.8-.62-1.859s-.142-1.924,0-1.95.465.8.62,1.846S292.506,385.842,292.325,385.919Z" transform="translate(-131.264 7.864)" fill="#455a64"/>
      <path id="Path_4274" data-name="Path 4274" d="M293.215,391.859c-.181,0-.465-.8-.62-1.859s-.142-1.924,0-1.95.465.8.633,1.846S293.4,391.859,293.215,391.859Z" transform="translate(-131.005 9.594)" fill="#455a64"/>
      <path id="Path_4275" data-name="Path 4275" d="M294.165,397.729c-.194,0-.465-.8-.62-1.859s-.142-1.924,0-1.95.465.8.62,1.859A4.007,4.007,0,0,1,294.165,397.729Z" transform="translate(-130.729 11.303)" fill="#455a64"/>
      <path id="Path_4276" data-name="Path 4276" d="M295.006,403.629c-.181,0-.452-.8-.62-1.846a3.594,3.594,0,0,1,0-1.963c.142-.026.452.8.62,1.859S295.213,403.6,295.006,403.629Z" transform="translate(-130.485 13.021)" fill="#455a64"/>
      <path id="Path_4277" data-name="Path 4277" d="M295.9,409.539c-.181,0-.465-.8-.62-1.859s-.142-1.924,0-1.95.465.8.633,1.846S296.086,409.513,295.9,409.539Z" transform="translate(-130.222 14.742)" fill="#455a64"/>
      <path id="Path_4278" data-name="Path 4278" d="M296.8,415.449c-.181,0-.465-.8-.62-1.859s-.142-1.924,0-1.95.465.8.633,1.859S296.986,415.423,296.8,415.449Z" transform="translate(-129.96 16.463)" fill="#455a64"/>
      <path id="Path_4279" data-name="Path 4279" d="M297.7,421.359c-.181,0-.465-.8-.62-1.846s-.142-1.937,0-1.963.465.8.62,1.859S297.886,421.333,297.7,421.359Z" transform="translate(-129.698 18.183)" fill="#455a64"/>
      <path id="Path_4280" data-name="Path 4280" d="M298.6,427.269c-.181,0-.465-.8-.62-1.846s-.142-1.937,0-1.963.465.8.62,1.859S298.786,427.243,298.6,427.269Z" transform="translate(-129.436 19.904)" fill="#455a64"/>
      <path id="Path_4281" data-name="Path 4281" d="M299.5,433.192c-.181,0-.452-.813-.62-1.859a3.592,3.592,0,0,1,0-1.963c.142-.026.452.8.62,1.859S299.69,433.153,299.5,433.192Z" transform="translate(-129.178 21.625)" fill="#455a64"/>
      <path id="Path_4282" data-name="Path 4282" d="M300.385,439.1c-.181,0-.452-.8-.62-1.859a3.726,3.726,0,0,1,0-1.963,3.526,3.526,0,0,1,.62,1.859C300.54,438.185,300.579,439.076,300.385,439.1Z" transform="translate(-128.917 23.346)" fill="#455a64"/>
      <path id="Path_4283" data-name="Path 4283" d="M301.275,445.022c-.194,0-.465-.813-.62-1.859s-.142-1.937,0-1.963.452.8.607,1.859S301.456,445,301.275,445.022Z" transform="translate(-128.658 25.07)" fill="#455a64"/>
      <path id="Path_4284" data-name="Path 4284" d="M301.86,449.061c-.181,0-.4-.374-.465-.9s0-.981.194-1.007.4.387.465.917S302.041,449.035,301.86,449.061Z" transform="translate(-128.417 26.802)" fill="#455a64"/>
      <path id="Path_4285" data-name="Path 4285" d="M192.427,445c.168,0,.194.516,0,1.02s-.439.878-.607.826-.194-.517,0-1.033S192.247,445,192.427,445Z" transform="translate(-160.355 26.176)" fill="#455a64"/>
      <path id="Path_4286" data-name="Path 4286" d="M194.383,439.23c.181,0,0,.943-.271,1.976s-.749,1.821-.917,1.756,0-.93.271-1.963S194.254,439.179,194.383,439.23Z" transform="translate(-159.935 24.496)" fill="#455a64"/>
      <path id="Path_4287" data-name="Path 4287" d="M196.29,433.451c.181.065,0,.943-.284,1.975s-.749,1.808-.93,1.756,0-.943.284-1.963S196.1,433.4,196.29,433.451Z" transform="translate(-159.388 22.813)" fill="#455a64"/>
      <path id="Path_4288" data-name="Path 4288" d="M198.186,427.681c.181.065,0,.943-.3,1.975s-.762,1.808-.943,1.756,0-.943.3-1.976S198.005,427.629,198.186,427.681Z" transform="translate(-158.844 21.133)" fill="#455a64"/>
      <path id="Path_4289" data-name="Path 4289" d="M200.127,421.921c.168.065,0,.943-.31,1.975s-.775,1.808-.943,1.743,0-.943.3-1.963S199.947,421.869,200.127,421.921Z" transform="translate(-158.281 19.456)" fill="#455a64"/>
      <path id="Path_4290" data-name="Path 4290" d="M202.09,416.171c.181.065,0,.943-.323,1.963s-.775,1.808-.943,1.756,0-.943.31-1.975S201.91,416.106,202.09,416.171Z" transform="translate(-157.713 17.781)" fill="#455a64"/>
      <path id="Path_4291" data-name="Path 4291" d="M204.087,410.431c.181,0,0,.943-.323,1.963s-.788,1.808-.968,1.743,0-.943.336-1.963S203.906,410.366,204.087,410.431Z" transform="translate(-157.14 16.11)" fill="#455a64"/>
      <path id="Path_4292" data-name="Path 4292" d="M206.1,404.691c.181.064,0,.943-.323,1.963s-.8,1.808-.981,1.743,0-.943.336-1.963S205.932,404.626,206.1,404.691Z" transform="translate(-156.558 14.438)" fill="#455a64"/>
      <path id="Path_4293" data-name="Path 4293" d="M208.143,399c.181.065,0,.943-.336,1.963s-.8,1.795-.981,1.73,0-.93.349-1.95S207.975,398.886,208.143,399Z" transform="translate(-155.967 12.78)" fill="#455a64"/>
      <path id="Path_4294" data-name="Path 4294" d="M210.2,393.241c.168.065,0,.943-.349,1.963s-.813,1.795-.981,1.73,0-.943.349-1.963S210.024,393.176,210.2,393.241Z" transform="translate(-155.369 11.104)" fill="#455a64"/>
      <path id="Path_4295" data-name="Path 4295" d="M212.318,387.521c.168.065,0,.943-.362,1.963s-.813,1.795-.981,1.73,0-.943.349-1.963S212.1,387.456,212.318,387.521Z" transform="translate(-154.757 9.439)" fill="#455a64"/>
      <path id="Path_4296" data-name="Path 4296" d="M214.395,381.811c.168.064,0,.943-.374,1.962s-.813,1.795-.994,1.73,0-.943.374-1.963S214.214,381.746,214.395,381.811Z" transform="translate(-154.161 7.776)" fill="#455a64"/>
      <path id="Path_4297" data-name="Path 4297" d="M216.5,376.111c.181.065,0,.943-.374,1.963s-.813,1.782-.994,1.717,0-.943.374-1.95S216.337,376.046,216.5,376.111Z" transform="translate(-153.547 6.117)" fill="#455a64"/>
      <path id="Path_4298" data-name="Path 4298" d="M218.637,370.411c.181,0,0,.943-.374,1.963s-.826,1.782-1.007,1.717,0-.943.374-1.95S218.47,370.346,218.637,370.411Z" transform="translate(-152.93 4.457)" fill="#455a64"/>
      <path id="Path_4299" data-name="Path 4299" d="M220.79,364.721c.168,0,0,.943-.387,1.962s-.826,1.782-1.007,1.717,0-.943.387-1.963S220.61,364.656,220.79,364.721Z" transform="translate(-152.307 2.8)" fill="#455a64"/>
      <path id="Path_4300" data-name="Path 4300" d="M222.953,359c.168.065,0,.943-.387,1.963s-.839,1.782-1.02,1.717,0-.943.387-1.963S222.773,359,222.953,359Z" transform="translate(-151.681 1.136)" fill="#455a64"/>
      <path id="Path_4301" data-name="Path 4301" d="M225.122,353.351c.168,0,0,.943-.387,1.95s-.852,1.782-1.02,1.717,0-.943.387-1.95S224.941,353.286,225.122,353.351Z" transform="translate(-151.048 -0.51)" fill="#455a64"/>
      <path id="Path_4302" data-name="Path 4302" d="M227.332,347.671c.168.065,0,.943-.4,1.95s-.839,1.782-1.007,1.717,0-.943.387-1.95S227.113,347.606,227.332,347.671Z" transform="translate(-150.404 -2.164)" fill="#455a64"/>
      <path id="Path_4303" data-name="Path 4303" d="M229.5,342c.168.077,0,.943-.4,1.963s-.839,1.769-1.02,1.7,0-.943.4-1.95S229.29,341.924,229.5,342Z" transform="translate(-149.779 -3.816)" fill="#455a64"/>
      <path id="Path_4304" data-name="Path 4304" d="M231.695,336.321c.168.065,0,.943-.4,1.95s-.852,1.782-1.02,1.717,0-.943.387-1.95S231.514,336.256,231.695,336.321Z" transform="translate(-149.137 -5.469)" fill="#455a64"/>
      <path id="Path_4305" data-name="Path 4305" d="M233.895,330.651c.168.077,0,.943-.4,1.95s-.852,1.782-1.02,1.717,0-.943.4-1.95S233.727,330.586,233.895,330.651Z" transform="translate(-148.497 -7.12)" fill="#455a64"/>
      <path id="Path_4306" data-name="Path 4306" d="M236.1,325c.168.065,0,.943-.4,1.95s-.852,1.769-1.02,1.7,0-.943.4-1.95S235.937,324.911,236.1,325Z" transform="translate(-147.853 -8.766)" fill="#455a64"/>
      <path id="Path_4307" data-name="Path 4307" d="M238.335,319.321c.181.065,0,.943-.4,1.95s-.852,1.782-1.02,1.7,0-.93.4-1.95S238.141,319.256,238.335,319.321Z" transform="translate(-147.204 -10.419)" fill="#455a64"/>
      <path id="Path_4308" data-name="Path 4308" d="M240.539,313.661c.168,0,0,.943-.4,1.95s-.852,1.769-1.033,1.7,0-.943.4-1.95S240.371,313.6,240.539,313.661Z" transform="translate(-146.568 -12.067)" fill="#455a64"/>
      <path id="Path_4309" data-name="Path 4309" d="M242.878,308c.168.077,0,.943-.452,1.937s-.9,1.743-1.072,1.678,0-.943.452-1.937S242.71,308,242.878,308Z" transform="translate(-145.911 -13.714)" fill="#455a64"/>
      <path id="Path_4310" data-name="Path 4310" d="M245.538,302.552c.155.09-.1.943-.581,1.911s-1.007,1.678-1.175,1.6.09-.93.581-1.911S245.37,302.461,245.538,302.552Z" transform="translate(-145.201 -15.303)" fill="#455a64"/>
      <path id="Path_4311" data-name="Path 4311" d="M248.868,297.4c.142.129-.232.93-.839,1.808s-1.291,1.524-1.395,1.42.22-.9.839-1.808S248.726,297.287,248.868,297.4Z" transform="translate(-144.361 -16.804)" fill="#455a64"/>
      <path id="Path_4312" data-name="Path 4312" d="M252.233,294.619c0,.181-.3.439-.736.671s-.865.362-.981.207.168-.542.671-.8S252.181,294.438,252.233,294.619Z" transform="translate(-143.232 -17.647)" fill="#455a64"/>
      <path id="Path_4313" data-name="Path 4313" d="M297.452,284.528s-3.874-13.183-5.965-20.465a39.946,39.946,0,0,1-1.472-9.038l-.31-6.6,1.1-5.578,3.564,4.132,17.392-18.167c.323.439-7.876-11.466-16.178-23.112-5.784-8.109-11.44-10.329-15.094-10.639a14.008,14.008,0,0,0-5.281-.465l-29.929-.258a28.29,28.29,0,0,0-17.857,6.546c-1.382,1.136-12.847,16.385-20.659,31.453l24.08,17.379,3.964-6.972v.413c.31,2.479,1.072,6.456,1.653,8.909,1.924,7.682,2.892,17.818-.981,24.468a182.727,182.727,0,0,0-6.895,20.659h73.842S300.034,290.739,297.452,284.528Z" transform="translate(-155.965 -46.809)" fill="#8dc63f"/>
      <path id="Path_4314" data-name="Path 4314" d="M242.5,202.342a1.072,1.072,0,0,1,.349.4,2.26,2.26,0,0,1,.181,1.524,3.77,3.77,0,0,1-1.291,2.04c-.723.62-1.588,1.2-2.582,1.9-1.911,1.394-4.132,3.021-6.6,4.8a15.274,15.274,0,0,1-4.209,2.5,4.789,4.789,0,0,1-2.7,0,3.37,3.37,0,0,1-2.118-1.885,5.087,5.087,0,0,1,.955-5.165,14.474,14.474,0,0,1,3.874-3l3.744-2.221a32.972,32.972,0,0,1,3.344-1.859,26.5,26.5,0,0,1,3-1.059,4.248,4.248,0,0,1,2.4.4c1.291.594,1.5,1.42,1.446,1.407a3.654,3.654,0,0,0-1.549-1.175,4.067,4.067,0,0,0-2.221-.258,27.8,27.8,0,0,0-2.879,1.11c-1.033.465-2.066,1.214-3.254,1.911L228.685,206a13.918,13.918,0,0,0-3.693,2.879,4.429,4.429,0,0,0-.852,4.493,2.582,2.582,0,0,0,1.691,1.511,4.029,4.029,0,0,0,2.311,0A15.211,15.211,0,0,0,232.2,212.5l6.675-4.687c.943-.671,1.846-1.291,2.582-1.808a3.473,3.473,0,0,0,1.291-1.808,2.259,2.259,0,0,0-.245-1.859Z" transform="translate(-151.176 -45.075)" fill="#e0e0e0"/>
      <path id="Path_4315" data-name="Path 4315" d="M287.058,222.473a.942.942,0,0,1,0,.542,2.337,2.337,0,0,1-.9,1.291,3.77,3.77,0,0,1-2.337.607c-.955,0-1.988-.181-3.138-.3l-8.109-.955a15.12,15.12,0,0,1-4.79-1.02,4.751,4.751,0,0,1-2.027-1.795,3.331,3.331,0,0,1-.271-2.8,5.087,5.087,0,0,1,4.209-3.163,14.746,14.746,0,0,1,4.894.426l4.261.917a32.8,32.8,0,0,1,3.719.891,25.3,25.3,0,0,1,2.918,1.291,4,4,0,0,1,1.485,1.924,2.4,2.4,0,0,1,.116,2.014,3.873,3.873,0,0,0-.349-1.911,3.938,3.938,0,0,0-1.446-1.7,29.191,29.191,0,0,0-2.879-1.136,35.378,35.378,0,0,0-3.68-.8l-4.274-.852a14.488,14.488,0,0,0-4.674-.387,4.468,4.468,0,0,0-3.667,2.737,2.582,2.582,0,0,0,.22,2.247,4.183,4.183,0,0,0,1.73,1.549,15.26,15.26,0,0,0,4.584.994l8.083,1.085c1.149.142,2.2.336,3.1.4a3.59,3.59,0,0,0,2.182-.452A2.3,2.3,0,0,0,287.058,222.473Z" transform="translate(-138.922 -40.842)" fill="#e0e0e0"/>
      <path id="Path_4316" data-name="Path 4316" d="M275.334,201.377a1.071,1.071,0,0,1,.349.4,2.26,2.26,0,0,1,.181,1.524,3.732,3.732,0,0,1-1.291,2.04c-.723.62-1.588,1.214-2.518,1.911l-6.585,4.8a15.882,15.882,0,0,1-4.222,2.5,4.791,4.791,0,0,1-2.7,0,3.293,3.293,0,0,1-2.1-1.872,5.087,5.087,0,0,1,.943-5.165,14.408,14.408,0,0,1,3.873-3L265,202.294a35.712,35.712,0,0,1,3.344-1.859,25.574,25.574,0,0,1,3.009-1.046,4.093,4.093,0,0,1,2.389.387c1.291.607,1.5,1.433,1.459,1.42a3.771,3.771,0,0,0-1.562-1.175,3.938,3.938,0,0,0-2.221-.271c-.813.258-1.846.671-2.879,1.123a36.467,36.467,0,0,0-3.241,1.9l-3.719,2.285a13.92,13.92,0,0,0-3.693,2.879,4.429,4.429,0,0,0-.852,4.493,2.673,2.673,0,0,0,1.691,1.5,4.067,4.067,0,0,0,2.324,0,15.7,15.7,0,0,0,4.041-2.376c2.479-1.756,4.739-3.331,6.675-4.687.943-.671,1.846-1.291,2.582-1.808a3.641,3.641,0,0,0,1.291-1.808,2.337,2.337,0,0,0-.31-1.872Z" transform="translate(-141.595 -45.35)" fill="#e0e0e0"/>
      <path id="Path_4317" data-name="Path 4317" d="M219.295,215.554a1.019,1.019,0,0,1,.478-.258,2.208,2.208,0,0,1,1.524.155,3.77,3.77,0,0,1,1.7,1.717c.452.839.826,1.808,1.291,2.866l3.254,7.476a15.818,15.818,0,0,1,1.524,4.661,4.674,4.674,0,0,1-.542,2.647,3.319,3.319,0,0,1-2.285,1.653,5.074,5.074,0,0,1-4.855-2.053,14.41,14.41,0,0,1-2.079-4.442c-.478-1.446-.93-2.841-1.356-4.145a32.682,32.682,0,0,1-1.085-3.667,23.466,23.466,0,0,1-.387-3.15,4.236,4.236,0,0,1,.917-2.26c.852-1.072,1.7-1.149,1.691-1.11a3.692,3.692,0,0,0-1.485,1.291,4.016,4.016,0,0,0-.749,2.1c.077.865.258,1.95.478,3.06a33.205,33.205,0,0,0,1.149,3.577c.439,1.291.917,2.686,1.42,4.132a13.97,13.97,0,0,0,2,4.235,4.468,4.468,0,0,0,4.209,1.795,2.582,2.582,0,0,0,1.833-1.291,4.08,4.08,0,0,0,.465-2.272,15.324,15.324,0,0,0-1.433-4.467c-1.175-2.8-2.221-5.358-3.125-7.54-.452-1.059-.813-2.066-1.214-2.866a3.538,3.538,0,0,0-1.485-1.666A2.247,2.247,0,0,0,219.295,215.554Z" transform="translate(-153.135 -40.727)" fill="#e0e0e0"/>
      <path id="Path_4318" data-name="Path 4318" d="M247.208,213.439a.93.93,0,0,1,.581.09,2.363,2.363,0,0,1,1.2,1.2,3.113,3.113,0,0,1,.194.555.917.917,0,0,0,.336.387,9.478,9.478,0,0,0,1.214.671,26.081,26.081,0,0,1,3.137,1.562,1.434,1.434,0,0,1,.413.387.5.5,0,0,1,.129.374.41.41,0,0,1-.065.3,4.21,4.21,0,0,1-.4,1.007,9.164,9.164,0,0,1-1.291,1.821c-1.02,1.162-2.234,2.234-3.435,3.422a8.277,8.277,0,0,0-2.7,4.287,11.247,11.247,0,0,1-.93,2.737,4.932,4.932,0,0,1-2.143,2.182,3.37,3.37,0,0,1-3.1,0,4.893,4.893,0,0,1-2.014-2.208,7.953,7.953,0,0,1,0-5.436c.994-3.28,1.937-6.146,2.776-8.612a27.637,27.637,0,0,1,1.588-3.112,3.874,3.874,0,0,1,2.13-1.627,2.582,2.582,0,0,1,2.221,0,3.705,3.705,0,0,0-2.13.219,3.641,3.641,0,0,0-1.885,1.562,29.14,29.14,0,0,0-1.485,3.1c-.749,2.414-1.678,5.384-2.582,8.612a7.463,7.463,0,0,0,0,5,4.17,4.17,0,0,0,1.743,1.885,2.673,2.673,0,0,0,2.479,0,4.274,4.274,0,0,0,1.846-1.885,11.324,11.324,0,0,0,.891-2.582,6.912,6.912,0,0,1,.413-1.369,7.533,7.533,0,0,1,.723-1.214,15.493,15.493,0,0,1,1.769-1.988c1.214-1.2,2.44-2.247,3.435-3.344a9.375,9.375,0,0,0,1.291-1.7,4.186,4.186,0,0,0,.374-.9s.077-.181,0-.181h0v-.065a1.292,1.292,0,0,0-.3-.284,29.025,29.025,0,0,0-3.021-1.6,8.749,8.749,0,0,1-1.291-.749,1.1,1.1,0,0,1-.426-.581,3.026,3.026,0,0,0-.155-.516,2.182,2.182,0,0,0-1.007-1.175,4.379,4.379,0,0,0-.529-.22Z" transform="translate(-146.91 -41.324)" fill="#e0e0e0"/>
      <path id="Path_4319" data-name="Path 4319" d="M255.42,223.144a.916.916,0,0,1,.387-.362,2.234,2.234,0,0,1,1.511-.232,3.744,3.744,0,0,1,2.079,1.291,30.721,30.721,0,0,1,1.975,2.453l5,6.456a15.186,15.186,0,0,1,2.582,4.132,4.83,4.83,0,0,1,.129,2.711,3.331,3.331,0,0,1-1.821,2.156,5.165,5.165,0,0,1-5.165-.8,14.37,14.37,0,0,1-3.1-3.8l-2.285-3.68a35.532,35.532,0,0,1-1.963-3.292,26.791,26.791,0,0,1-1.136-2.97,4.106,4.106,0,0,1,.323-2.4c.568-1.291,1.382-1.536,1.369-1.5a3.938,3.938,0,0,0-1.123,1.6,4.093,4.093,0,0,0-.207,2.221c.284.813.723,1.821,1.2,2.841a36.793,36.793,0,0,0,2,3.189l2.389,3.654a14.2,14.2,0,0,0,2.983,3.615,4.48,4.48,0,0,0,4.519.71,2.711,2.711,0,0,0,1.459-1.73,4.2,4.2,0,0,0-.1-2.324,15.494,15.494,0,0,0-2.492-3.964l-4.881-6.546c-.7-.917-1.291-1.808-1.885-2.492a3.551,3.551,0,0,0-1.846-1.291,2.169,2.169,0,0,0-1.9.349Z" transform="translate(-142.34 -38.607)" fill="#e0e0e0"/>
      <path id="Path_4320" data-name="Path 4320" d="M233.468,241.967a.981.981,0,0,1,.1-.529,2.337,2.337,0,0,1,1.085-1.085,3.77,3.77,0,0,1,2.414-.219c.93.181,1.924.491,3.047.8l7.85,2.234a15.828,15.828,0,0,1,4.571,1.769,4.738,4.738,0,0,1,1.7,2.1,3.318,3.318,0,0,1-.181,2.815,5.074,5.074,0,0,1-4.661,2.44,14.357,14.357,0,0,1-4.751-1.2l-4.067-1.588a33.681,33.681,0,0,1-3.525-1.485,25.583,25.583,0,0,1-2.686-1.717,4.093,4.093,0,0,1-1.162-2.13,2.337,2.337,0,0,1,.22-2,3.615,3.615,0,0,0,0,1.937,4.08,4.08,0,0,0,1.149,1.911,28.5,28.5,0,0,0,2.66,1.575,36.562,36.562,0,0,0,3.486,1.433l4.093,1.524a14.2,14.2,0,0,0,4.545,1.123,4.428,4.428,0,0,0,4.054-2.1,2.582,2.582,0,0,0,.142-2.247,4,4,0,0,0-1.459-1.808,15.157,15.157,0,0,0-4.364-1.717l-7.747-2.376c-1.11-.323-2.118-.684-3-.891a3.6,3.6,0,0,0-2.221.09,2.312,2.312,0,0,0-1.3,1.343Z" transform="translate(-148.302 -33.505)" fill="#e0e0e0"/>
      <path id="Path_4321" data-name="Path 4321" d="M267.143,269.389a.839.839,0,0,1-.516.116,2.195,2.195,0,0,1-1.433-.555,3.706,3.706,0,0,1-1.175-2.118c-.219-.917-.323-1.963-.5-3.112-.323-2.337-.71-5.061-1.123-8.083a15.623,15.623,0,0,1-.219-4.893,4.739,4.739,0,0,1,1.291-2.4,3.318,3.318,0,0,1,2.582-.981,5.165,5.165,0,0,1,4.119,3.293,14.812,14.812,0,0,1,.813,4.829c0,1.537.129,2.983.194,4.364a34.881,34.881,0,0,1,0,3.874,24.453,24.453,0,0,1-.478,3.138,4.119,4.119,0,0,1-1.485,1.924,2.415,2.415,0,0,1-1.924.62,3.874,3.874,0,0,0,1.769-.826,4.015,4.015,0,0,0,1.291-1.834,28.391,28.391,0,0,0,.374-3.06,35.692,35.692,0,0,0-.155-3.757c-.077-1.369-.155-2.828-.245-4.351a14.331,14.331,0,0,0-.8-4.622,4.467,4.467,0,0,0-3.564-2.866,2.66,2.66,0,0,0-2.13.788,4.08,4.08,0,0,0-1.059,2.053,15.4,15.4,0,0,0,.194,4.687c.362,3.021.7,5.759.981,8.109.142,1.149.219,2.208.387,3.086a3.576,3.576,0,0,0,.981,2A2.3,2.3,0,0,0,267.143,269.389Z" transform="translate(-139.86 -31.372)" fill="#e0e0e0"/>
      <path id="Path_4322" data-name="Path 4322" d="M235.491,271.445a1.074,1.074,0,0,1-.31-.439,2.221,2.221,0,0,1,0-1.536,3.692,3.692,0,0,1,1.5-1.9c.762-.555,1.678-1.059,2.673-1.666l7.011-4.171a15.872,15.872,0,0,1,4.442-2.092,4.8,4.8,0,0,1,2.686.207,3.319,3.319,0,0,1,1.924,2.066,5.075,5.075,0,0,1-1.433,5.074,14.2,14.2,0,0,1-4.145,2.582l-3.938,1.872a34.674,34.674,0,0,1-3.551,1.6,24.7,24.7,0,0,1-3.073.762,4.029,4.029,0,0,1-2.35-.62c-1.175-.71-1.356-1.549-1.291-1.536a3.874,3.874,0,0,0,1.446,1.291,4.029,4.029,0,0,0,2.182.465,25.7,25.7,0,0,0,2.97-.839,36.744,36.744,0,0,0,3.409-1.588l3.874-1.924a14.06,14.06,0,0,0,3.951-2.518,4.467,4.467,0,0,0,1.291-4.4,2.673,2.673,0,0,0-1.537-1.653,4.183,4.183,0,0,0-2.324-.181,14.964,14.964,0,0,0-4.235,1.988l-7.1,4.041c-.994.581-1.95,1.059-2.7,1.562a3.512,3.512,0,0,0-1.459,1.679,2.3,2.3,0,0,0,.09,1.872Z" transform="translate(-147.73 -27.824)" fill="#e0e0e0"/>
      <path id="Path_4323" data-name="Path 4323" d="M238.3,220.43a117.613,117.613,0,0,1-6.236,10.936,119.528,119.528,0,0,1-6.817,10.575,116.832,116.832,0,0,1,6.236-10.923A116.511,116.511,0,0,1,238.3,220.43Z" transform="translate(-150.582 -39.212)" fill="#263238"/>
      <path id="Path_4324" data-name="Path 4324" d="M241.081,220.17a29.931,29.931,0,0,0-.439-4.4,28.406,28.406,0,0,0-4.325-9.645A15.6,15.6,0,0,0,232.263,202a11.271,11.271,0,0,0-4.351-1.743,11.078,11.078,0,0,0-4.351.245,2.944,2.944,0,0,1,1.123-.491,8.663,8.663,0,0,1,3.305-.219,11.272,11.272,0,0,1,4.622,1.691,15.661,15.661,0,0,1,4.261,4.248,26.133,26.133,0,0,1,4.235,9.942,13.623,13.623,0,0,1,.181,3.305A3.164,3.164,0,0,1,241.081,220.17Z" transform="translate(-151.074 -45.24)" fill="#263238"/>
      <path id="Path_4325" data-name="Path 4325" d="M263.908,194.16a2.166,2.166,0,0,1,.155.426,8.336,8.336,0,0,1,.245,1.291,12.486,12.486,0,0,1-.387,4.752,13.093,13.093,0,0,1-3.68,6.03,12.912,12.912,0,0,1-16.256.633,13.183,13.183,0,0,1-4.145-5.733,12.228,12.228,0,0,1-.749-4.713,7.876,7.876,0,0,1,.142-1.291c.065-.3.1-.452.129-.439a14.926,14.926,0,0,0,.93,6.262,12.911,12.911,0,0,0,4.067,5.41,12.447,12.447,0,0,0,15.494-.607,12.911,12.911,0,0,0,3.654-5.707,14.966,14.966,0,0,0,.4-6.314Z" transform="translate(-146.554 -46.861)" fill="#263238"/>
      <path id="Path_4326" data-name="Path 4326" d="M267.1,217.46a15.251,15.251,0,0,1,2.26,3.073,29.116,29.116,0,0,1,3.667,8.47,20.866,20.866,0,0,1,.219,9.232,14.569,14.569,0,0,1-.839,2.686,2.683,2.683,0,0,1-.491.9c-.116,0,.478-1.382.865-3.68a22.518,22.518,0,0,0-.413-9.038,34.191,34.191,0,0,0-3.409-8.38,36.515,36.515,0,0,1-1.859-3.267Z" transform="translate(-138.396 -40.077)" fill="#263238"/>
      <path id="Path_4327" data-name="Path 4327" d="M292.067,221.08a21.767,21.767,0,0,1-2.44,2.8l-6.081,6.572c-2.4,2.582-4.609,4.829-6.249,6.456a18.9,18.9,0,0,1-2.776,2.479,22.3,22.3,0,0,1,2.44-2.815l6.094-6.559c2.389-2.582,4.6-4.829,6.236-6.456a18.9,18.9,0,0,1,2.776-2.479Z" transform="translate(-136.236 -39.023)" fill="#263238"/>
      <path id="Path_4328" data-name="Path 4328" d="M278.235,232.547c-.116.155-.8-.207-1.524-.8s-1.214-1.175-1.1-1.291.8.22,1.524.8S278.351,232.456,278.235,232.547Z" transform="translate(-135.922 -36.3)" fill="#263238"/>
      <path id="Path_4329" data-name="Path 4329" d="M281.316,229.242c-.129.142-.788-.155-1.5-.671s-1.188-1.046-1.085-1.2.762.142,1.485.659S281.432,229.1,281.316,229.242Z" transform="translate(-135.013 -37.203)" fill="#263238"/>
      <path id="Path_4330" data-name="Path 4330" d="M285.24,224.978c-.116.142-.749-.181-1.407-.736s-1.085-1.11-.968-1.291.749.181,1.407.736S285.369,224.836,285.24,224.978Z" transform="translate(-133.812 -38.492)" fill="#263238"/>
      <path id="Path_4331" data-name="Path 4331" d="M251.034,210.09c-.168.077-.762-.788-1.033-2.027s-.09-2.285.09-2.272.31.968.568,2.13S251.2,210,251.034,210.09Z" transform="translate(-143.415 -43.475)" fill="#263238"/>
      <path id="Path_4332" data-name="Path 4332" d="M257.029,207.037c-.142.116-.749-.439-1.291-1.291s-.956-1.536-.8-1.653.749.452,1.291,1.291S257.184,206.934,257.029,207.037Z" transform="translate(-141.947 -43.973)" fill="#263238"/>
      <path id="Path_4333" data-name="Path 4333" d="M260.9,202.023c-.09.168-.839-.077-1.666-.529s-1.433-.968-1.291-1.123.839.077,1.666.529S260.992,201.869,260.9,202.023Z" transform="translate(-141.068 -45.067)" fill="#263238"/>
      <path id="Path_4334" data-name="Path 4334" d="M261.94,197.092c0,.194-.723.31-1.588.271s-1.562-.232-1.562-.413.723-.3,1.588-.258S261.94,196.937,261.94,197.092Z" transform="translate(-140.816 -46.126)" fill="#263238"/>
      <path id="Path_4335" data-name="Path 4335" d="M242.759,208.459c-.155-.09.155-.917.7-1.846s1.11-1.6,1.291-1.511-.142.917-.684,1.846S242.927,208.549,242.759,208.459Z" transform="translate(-145.495 -43.678)" fill="#263238"/>
      <path id="Path_4336" data-name="Path 4336" d="M238.531,203.576c-.065-.181.633-.607,1.472-1.1s1.562-.9,1.691-.762-.439.8-1.291,1.291S238.6,203.744,238.531,203.576Z" transform="translate(-146.716 -44.669)" fill="#263238"/>
      <path id="Path_4337" data-name="Path 4337" d="M240.261,197.361c0,.181-.775.5-1.821.71s-1.911.219-1.95,0,.775-.491,1.821-.7S240.235,197.181,240.261,197.361Z" transform="translate(-147.309 -45.969)" fill="#263238"/>
      <path id="Path_4338" data-name="Path 4338" d="M230.832,241.148a3.98,3.98,0,0,1-1.059-.5c-.658-.362-1.575-.93-2.7-1.666-2.234-1.459-5.165-3.654-8.431-6.146s-6.12-4.752-8.289-6.3a30.024,30.024,0,0,1-3.473-2.582,3.876,3.876,0,0,1,1.046.5c.658.362,1.588.93,2.7,1.666,2.247,1.459,5.165,3.654,8.431,6.146s6.133,4.751,8.289,6.3A41.418,41.418,0,0,1,230.832,241.148Z" transform="translate(-155.931 -38.187)" fill="#263238"/>
      <path id="Path_4339" data-name="Path 4339" d="M211.252,222.7c.168.09-.129,1.007-.658,2.066s-1.1,1.833-1.291,1.743.129-.994.658-2.053S211.1,222.624,211.252,222.7Z" transform="translate(-155.241 -38.552)" fill="#263238"/>
      <path id="Path_4340" data-name="Path 4340" d="M215.816,225.891c.155.09-.181,1.033-.749,2.1s-1.175,1.859-1.291,1.769a4.427,4.427,0,0,1,.736-2.092C215.08,226.6,215.648,225.814,215.816,225.891Z" transform="translate(-153.93 -37.623)" fill="#263238"/>
      <path id="Path_4341" data-name="Path 4341" d="M220.825,229.822c.155.1-.245.955-.9,1.9s-1.291,1.614-1.472,1.511.258-.955.917-1.9S220.683,229.719,220.825,229.822Z" transform="translate(-152.574 -36.48)" fill="#263238"/>
      <path id="Path_4342" data-name="Path 4342" d="M225.33,231.731c.168.09-.374,1.291-1.188,2.724s-1.627,2.479-1.782,2.389a6.766,6.766,0,0,1,1.2-2.724C224.374,232.713,225.175,231.641,225.33,231.731Z" transform="translate(-151.423 -35.923)" fill="#263238"/>
      <path id="Path_4343" data-name="Path 4343" d="M250.831,221.809h0a11.866,11.866,0,0,0,12.77-11.362c.245-6.456.465-12.989.465-12.989s9.774-.917,10.484-10.6.387-32.034.387-32.034h0a33.751,33.751,0,0,0-34.1,2.195l-1.5,1.02.542,52.073A11.853,11.853,0,0,0,250.831,221.809Z" transform="translate(-146.479 -59.365)" fill="#a56959"/>
      <path id="Path_4344" data-name="Path 4344" d="M263.435,167.758a1.42,1.42,0,1,1,2,0,1.42,1.42,0,0,1-2,0Z" transform="translate(-139.585 -55.256)" fill="#263238"/>
      <path id="Path_4345" data-name="Path 4345" d="M267.383,166.286c-.168.155-1.072-.633-2.4-.723s-2.35.542-2.492.362.1-.374.555-.658a3.176,3.176,0,0,1,1.988-.5,3.228,3.228,0,0,1,1.911.788C267.331,165.9,267.46,166.221,267.383,166.286Z" transform="translate(-139.75 -55.424)" fill="#263238"/>
      <path id="Path_4346" data-name="Path 4346" d="M254.04,165.847a1.409,1.409,0,1,1-1.963.349A1.41,1.41,0,0,1,254.04,165.847Z" transform="translate(-142.844 -55.179)" fill="#263238"/>
      <path id="Path_4347" data-name="Path 4347" d="M256.109,166.526a2.763,2.763,0,0,0-2.4-.723c-1.291-.1-2.35.542-2.479.362s.1-.374.542-.671a3.306,3.306,0,0,1,2-.491,3.228,3.228,0,0,1,1.9.788C256.109,166.138,256.173,166.461,256.109,166.526Z" transform="translate(-143.028 -55.354)" fill="#263238"/>
      <path id="Path_4348" data-name="Path 4348" d="M258.682,176.839a6.455,6.455,0,0,1,2.2-.336c.349,0,.633-.077.658-.258a1.846,1.846,0,0,0-.181-1.02c-.3-.9-.581-1.821-.891-2.776-1.291-3.951-2.053-7.2-1.846-7.269a39.065,39.065,0,0,1,2.582,7.05c.284.968.568,1.885.839,2.789a2.285,2.285,0,0,1,.1,1.459.93.93,0,0,1-.646.529,2.48,2.48,0,0,1-.594,0A6.96,6.96,0,0,1,258.682,176.839Z" transform="translate(-140.876 -55.299)" fill="#263238"/>
      <path id="Path_4349" data-name="Path 4349" d="M261.3,187.9a22.556,22.556,0,0,1-12.408-4.351s2.582,7.153,12.279,6.869Z" transform="translate(-143.698 -49.95)" fill="#7c4435"/>
      <path id="Path_4350" data-name="Path 4350" d="M246.23,152.61a9.129,9.129,0,0,0,7.747,7.979c2.389.284,4.958-.374,7.1.71a12.5,12.5,0,0,1,3.641,3.693,5.758,5.758,0,0,0,4.287,2.582,11.62,11.62,0,0,0,2.427-.581,2.931,2.931,0,0,1,2.4.258,18.723,18.723,0,0,0,1.433-9.038,8.341,8.341,0,0,0-5.345-6.921c-1.937-.568-4.016-.207-5.991-.542a19.768,19.768,0,0,1-4.648-1.717,14.513,14.513,0,0,0-7.979-1.7c-2.724.413-5.358,2.673-5.294,5.423" transform="translate(-144.537 -60.509)" fill="#263238"/>
      <path id="Path_4351" data-name="Path 4351" d="M241.077,178.888c3.512,2.815,7.747-4.493,9.619-9.038a44.79,44.79,0,0,0,2.724-14.642,7.243,7.243,0,0,0-.852-4.726c-1.007-1.291-1.446.31-2.582-.968-2.156-2.5-6.133-1.149-8.1-.3-3.267,1.42-5.307,5.061-5.952,8.767a36.156,36.156,0,0,0,.413,11.246c.232,1.7.478,3.4.723,5.1a8.225,8.225,0,0,0,1.007,3.447,2.453,2.453,0,0,0,2.957,1.149" transform="translate(-147.545 -60.279)" fill="#263238"/>
      <path id="Path_4352" data-name="Path 4352" d="M241.214,166.1a1.459,1.459,0,0,0-1.394-1.472c-1.808,0-4.764.671-5.036,5.668-.4,7.127,6.456,5.345,6.456,5.165S241.24,168.865,241.214,166.1Z" transform="translate(-147.811 -55.459)" fill="#a56959"/>
      <path id="Path_4353" data-name="Path 4353" d="M239.272,172.109a2.863,2.863,0,0,1-.349.168,1.2,1.2,0,0,1-.917,0,3.021,3.021,0,0,1-1.291-2.828,4.016,4.016,0,0,1,.452-1.756,1.394,1.394,0,0,1,.981-.9.62.62,0,0,1,.71.374c.09.207,0,.349.077.362s.155-.116.116-.413a.826.826,0,0,0-.258-.452.917.917,0,0,0-.671-.219,1.73,1.73,0,0,0-1.369,1.033,4.145,4.145,0,0,0-.529,1.963,3.215,3.215,0,0,0,1.64,3.176,1.356,1.356,0,0,0,1.149-.129C239.246,172.328,239.3,172.122,239.272,172.109Z" transform="translate(-147.392 -54.933)" fill="#7c4435"/>
      <path id="Path_4354" data-name="Path 4354" d="M256.063,175.74a1.937,1.937,0,1,0,.155-.22" transform="translate(-141.691 -52.496)" fill="#7c4435"/>
      <path id="Path_4355" data-name="Path 4355" d="M260.7,177.049a3.745,3.745,0,0,1-3.021-.1c-1.64-.581-2.582-1.73-2.4-1.833s1.149.684,2.582,1.2S260.685,176.855,260.7,177.049Z" transform="translate(-141.846 -52.41)" fill="#263238"/>
      <path id="Path_4356" data-name="Path 4356" d="M243.584,147.73c0,.207-1.549.671-3.163,1.846a20.1,20.1,0,0,0-2.582,2.272l-.568.5.362-.607c.077-.142.142-.194.181-.181s0,.09,0,.258l-.207-.1a6.728,6.728,0,0,1,2.337-2.686A5.449,5.449,0,0,1,243.584,147.73Z" transform="translate(-147.082 -60.38)" fill="#8dc63f"/>
      <path id="Path_4357" data-name="Path 4357" d="M255.14,162.766c-.219.516-1.291.594-2.376.826s-2.13.516-2.582.116c-.181-.207-.116-.607.258-1.046a3.28,3.28,0,0,1,1.885-1.046,3.318,3.318,0,0,1,2.143.258A1.1,1.1,0,0,1,255.14,162.766Z" transform="translate(-143.35 -56.358)" fill="#263238"/>
    </g>
    <g id="freepik--Plant--inject-207" transform="translate(128.971 480.512)">
      <path id="Path_4358" data-name="Path 4358" d="M136.614,424.155c-2.285,3.267-6.727,2.182-8.793.181s-2.931-4.881-3.731-7.631c-1.808-6.3-3.628-12.912-2.285-19.368a10.833,10.833,0,0,1,2.466-5.255,5.591,5.591,0,0,1,5.307-1.756c2.247.581,3.641,2.776,4.648,4.868a46.069,46.069,0,0,1,4.545,19.755,15.984,15.984,0,0,1-2.156,9.154" transform="translate(-108.429 -390.21)" fill="#8dc63f"/>
      <g id="Group_314" data-name="Group 314" transform="translate(12.911)" opacity="0.2">
        <path id="Path_4359" data-name="Path 4359" d="M136.614,424.155c-2.285,3.267-6.727,2.182-8.793.181s-2.931-4.881-3.731-7.631c-1.808-6.3-3.628-12.912-2.285-19.368a10.833,10.833,0,0,1,2.466-5.255,5.591,5.591,0,0,1,5.307-1.756c2.247.581,3.641,2.776,4.648,4.868a46.069,46.069,0,0,1,4.545,19.755,15.984,15.984,0,0,1-2.156,9.154" transform="translate(-121.341 -390.21)"/>
      </g>
      <path id="Path_4360" data-name="Path 4360" d="M130.953,429.734a19.754,19.754,0,0,0-12.292-1.5,10.109,10.109,0,0,0-6.069,2.711c-1.524,1.679-1.808,4.622,0,6.069a5.836,5.836,0,0,0,3.874.968c3.254,0,6.856-.607,9.464,1.291,1.472,1.11,2.466,2.97,4.235,3.525a4.209,4.209,0,0,0,4.609-2.053,7.179,7.179,0,0,0,.516-5.281,8.057,8.057,0,0,0-4.338-5.733Z" transform="translate(-111.341 -379.25)" fill="#8dc63f"/>
      <path id="Path_4361" data-name="Path 4361" d="M138.55,426.463a11.943,11.943,0,0,1-1.846-10.949,21.11,21.11,0,0,1,6.456-9.387,34.785,34.785,0,0,1,11.621-6.843,12.33,12.33,0,0,1,5.165-.891,5.475,5.475,0,0,1,4.377,2.647c1.227,2.324,0,5.165-1.214,7.463a88.387,88.387,0,0,1-7.618,11.621c-2.285,2.944-4.894,5.849-8.38,7.179s-7.089,1.175-8.935-1.291" transform="translate(-104.128 -387.831)" fill="#8dc63f"/>
      <path id="Path_4362" data-name="Path 4362" d="M137.151,461.435a7.216,7.216,0,0,1-.207-1.485c-.1-1.085-.232-2.44-.4-4.054a58.434,58.434,0,0,0-.9-5.939,46.782,46.782,0,0,0-2.156-7.011,26.042,26.042,0,0,0-3.589-6.353,13.376,13.376,0,0,0-4.519-3.757,12.563,12.563,0,0,0-3.874-1.188,6.527,6.527,0,0,1-1.472-.22,7.879,7.879,0,0,1,1.5,0,11.259,11.259,0,0,1,3.977,1.033,13.35,13.35,0,0,1,4.777,3.8A25.266,25.266,0,0,1,134,442.713a44.091,44.091,0,0,1,2.143,7.127,54.151,54.151,0,0,1,.788,6.017c.129,1.717.181,3.112.194,4.08a7.23,7.23,0,0,1,.026,1.5Z" transform="translate(-108.811 -378.219)" fill="#263238"/>
      <path id="Path_4363" data-name="Path 4363" d="M134.773,467.337a4.651,4.651,0,0,1,0-.684v-1.975c0-1.7,0-4.183-.09-7.231-.155-6.107-.684-14.539-1.691-23.809s-2.389-17.612-3.615-23.59c-.3-1.5-.594-2.853-.865-4.041s-.491-2.2-.71-3.021-.336-1.42-.465-1.924a2.942,2.942,0,0,1-.116-.671,2.583,2.583,0,0,1,.245.646c.142.491.336,1.123.568,1.885s.516,1.833.813,3.008.633,2.582.943,4.028a222.479,222.479,0,0,1,3.809,23.616c1.02,9.283,1.472,17.741,1.511,23.861,0,3.06,0,5.539-.1,7.256,0,.8-.09,1.446-.116,1.963a2.583,2.583,0,0,1-.116.684Z" transform="translate(-106.717 -387.246)" fill="#263238"/>
      <path id="Path_4364" data-name="Path 4364" d="M133.009,449.9a13.165,13.165,0,0,1,0-2.053c.077-1.291.258-3.241.633-5.578a74.677,74.677,0,0,1,1.808-8.122,73.132,73.132,0,0,1,3.4-9.606,51.3,51.3,0,0,1,9.981-15.494,28.9,28.9,0,0,1,2.337-2.182c.362-.3.684-.607,1.007-.839l.917-.633a11.942,11.942,0,0,1,1.73-1.11,63.153,63.153,0,0,0-5.681,5.061,53.814,53.814,0,0,0-9.723,15.494,76.37,76.37,0,0,0-3.422,9.516c-.878,2.983-1.472,5.733-1.924,8.044s-.671,4.209-.813,5.513A14.329,14.329,0,0,1,133.009,449.9Z" transform="translate(-105.043 -386.114)" fill="#263238"/>
    </g>
    <g id="freepik--speech-bubble--inject-207" transform="translate(162.75 101.674)">
      <path id="Path_4365" data-name="Path 4365" d="M217.423,159.976h0l.1.284.271.813,1.059,3.2,3.99,12.253v.168h-.181l-17.031-3.112h-.116v-.116h0l.232.116A42.764,42.764,0,0,1,180,182.119a47.476,47.476,0,0,1-6.275-.529,45.627,45.627,0,0,1-6.378-1.42c-1.033-.387-2.079-.775-3.138-1.149a11.936,11.936,0,0,1-1.562-.684l-1.536-.736a43.8,43.8,0,0,1-11.375-8.251,41.77,41.77,0,0,1-8.354-12.163,42.626,42.626,0,1,1,81.292-20.465,41.627,41.627,0,0,1-3.964,20.775c-.413.852-.749,1.5-.981,1.911l-.374.646.323-.646c.232-.452.555-1.085.955-1.95a43.006,43.006,0,0,0,2.711-7.747,40.3,40.3,0,0,0,1.085-12.912,42.284,42.284,0,1,0-80.659,20.271,41.615,41.615,0,0,0,8.264,12.06,43.525,43.525,0,0,0,11.349,7.979l1.524.736a10.078,10.078,0,0,0,1.536.671l3.112,1.149a44.791,44.791,0,0,0,6.314,1.42,46.717,46.717,0,0,0,6.223.529,41.477,41.477,0,0,0,5.991-.374,42.363,42.363,0,0,0,19.561-8.005l.22-.168v.284h0l-.116-.142,17.018,3.189-.116.142c-1.679-5.32-3-9.464-3.874-12.279l-1.007-3.215c-.1-.362-.194-.633-.245-.826l-.077-.3h0Z" transform="translate(-137.502 -96.804)" fill="#263238"/>
      <path id="Path_4366" data-name="Path 4366" d="M170.934,148.439,156.15,132.532l4.79-4.442,10.213,10.975,21.433-21.085,4.584,4.648Z" transform="translate(-132.072 -90.639)" fill="#455a64"/>
    </g>
  </g>
</svg>
