<svg xmlns="http://www.w3.org/2000/svg" width="582.499" height="517.371" viewBox="0 0 582.499 517.371">
  <g id="Questions-pana" transform="translate(-29.23 -71.932)">
    <g id="freepik--Floor--inject-29" transform="translate(29.23 588.518)">
      <path id="Path_3734" data-name="Path 3734" d="M611.728,463.853c0,.2-130.407.343-291.236.343s-291.262-.145-291.262-.343,130.381-.343,291.262-.343S611.728,463.668,611.728,463.853Z" transform="translate(-29.23 -463.51)" fill="#263238"/>
    </g>
    <g id="freepik--Plant--inject-29" transform="translate(62.149 359.59)">
      <path id="Path_3735" data-name="Path 3735" d="M104.917,461.386c1.319-4.855-1.939-9.723-5.5-13.192s-7.823-6.662-9.683-11.319c-3.008-7.546,1.029-17.308-4.09-23.6-3.021-3.694-8.43-4.934-11.108-8.892a20.092,20.092,0,0,1-2.414-7.058,71.661,71.661,0,0,0-17.849-33.4,62.3,62.3,0,0,0,7.005,32.19c2.071,3.958,4.631,7.81,5.277,12.229,1.121,7.163-2.889,14.512-1.121,21.583,2.018,8.047,11.055,13.443,11.477,21.728.369,7.005-5.739,13.192-5.277,20.158a18.76,18.76,0,0,0,3.153,8.311c5.409,9.01,13.377,15.211,25.435,15.013l14.776.515Z" transform="translate(-54.183 -266.375)" fill="#8dc63f"/>
      <g id="Group_288" data-name="Group 288" transform="translate(0 97.545)" opacity="0.3">
        <path id="Path_3736" data-name="Path 3736" d="M104.917,461.386c1.319-4.855-1.939-9.723-5.5-13.192s-7.823-6.662-9.683-11.319c-3.008-7.546,1.029-17.308-4.09-23.6-3.021-3.694-8.43-4.934-11.108-8.892a20.092,20.092,0,0,1-2.414-7.058,71.661,71.661,0,0,0-17.849-33.4,62.3,62.3,0,0,0,7.005,32.19c2.071,3.958,4.631,7.81,5.277,12.229,1.121,7.163-2.889,14.512-1.121,21.583,2.018,8.047,11.055,13.443,11.477,21.728.369,7.005-5.739,13.192-5.277,20.158a18.76,18.76,0,0,0,3.153,8.311c5.409,9.01,13.377,15.211,25.435,15.013l14.776.515Z" transform="translate(-54.183 -363.92)"/>
      </g>
      <path id="Path_3737" data-name="Path 3737" d="M104.313,508.244a11.871,11.871,0,0,0,4.076-.079,25.414,25.414,0,0,0,4.789-1.214,20.512,20.512,0,0,0,5.937-3.245,8.206,8.206,0,0,0,2.441-3.258,15.4,15.4,0,0,0,.686-4.406,42.894,42.894,0,0,1,.356-4.776,12.915,12.915,0,0,1,1.794-4.749c1.741-3.061,4.644-5.963,5.567-10.119s.29-8.509-.4-12.942-1.319-9.235.343-13.878,4.828-8.8,6.451-14,.858-10.923,1.2-16.5a21.767,21.767,0,0,1,1.926-8.206c1.187-2.638,2.85-5.079,4.142-7.823,2.638-5.567,3.087-11.873,3.8-18.06.356-3.113.7-6.266,1.055-9.433a46.887,46.887,0,0,1,1.649-9.459,84.642,84.642,0,0,1,3.536-9.142,31.782,31.782,0,0,0,1.715-4.762,48.082,48.082,0,0,0,.475-5.092,60.434,60.434,0,0,0-.4-10.224c-.4-3.4-1.016-6.781-1.385-10.2v-.594L154,325.41l-.594.29a22.823,22.823,0,0,0-7.915,6.715,36.477,36.477,0,0,0-4.894,9.01c-2.467,6.346-3.351,12.995-4.591,19.34s-2.823,12.586-6.069,17.863c-1.623,2.638-3.588,5.04-5.277,7.6a20.818,20.818,0,0,0-3.667,8.417c-.884,6.253,2.559,11.741,1.847,17.282a19.115,19.115,0,0,1-2.638,7.665c-1.319,2.362-2.916,4.551-4.419,6.741a43.215,43.215,0,0,0-3.958,6.82,21.464,21.464,0,0,0-1.821,7.4c-.356,4.987.343,9.71,0,14.169a32.651,32.651,0,0,1-3.654,12.15c-1.781,3.628-3.773,6.913-5.435,10.105-.831,1.583-1.609,3.14-2.243,4.71a23.575,23.575,0,0,0-1.319,4.67,29.288,29.288,0,0,0-.106,8.43,21.253,21.253,0,0,0,4.222,10.752,10.7,10.7,0,0,0,1.2,1.319,6.005,6.005,0,0,0,.963.818c.554.409.844.594.844.594a18.373,18.373,0,0,1-2.863-2.823,21.305,21.305,0,0,1-3.958-10.686,29.142,29.142,0,0,1,.185-8.311,22.429,22.429,0,0,1,1.319-4.551,48.2,48.2,0,0,1,2.256-4.644c1.675-3.166,3.681-6.438,5.5-10.092a32.981,32.981,0,0,0,3.773-12.361c.4-4.551-.29-9.3.079-14.155a21.187,21.187,0,0,1,1.781-7.163,43.036,43.036,0,0,1,3.958-6.675c1.5-2.19,3.1-4.38,4.472-6.794a19.789,19.789,0,0,0,2.823-7.981c.712-5.9-2.7-11.411-1.821-17.229a20.224,20.224,0,0,1,3.549-8.047c1.675-2.52,3.654-4.921,5.277-7.625,3.364-5.422,4.987-11.781,6.214-18.153s2.137-12.968,4.565-19.195a35.5,35.5,0,0,1,4.762-8.76,21.886,21.886,0,0,1,7.612-6.438l-.673-.383a1.947,1.947,0,0,0,.066.607c.369,3.456.989,6.834,1.319,10.211a58.52,58.52,0,0,1,.383,10.066,49.3,49.3,0,0,1-.449,4.934,29.683,29.683,0,0,1-1.662,4.6,87.134,87.134,0,0,0-3.562,9.235,47.89,47.89,0,0,0-1.662,9.6c-.343,3.179-.7,6.332-1.042,9.446-.712,6.214-1.174,12.414-3.694,17.783-1.319,2.638-2.9,5.158-4.129,7.849a22.573,22.573,0,0,0-1.979,8.509c-.33,5.7.409,11.279-1.135,16.319s-4.749,9.235-6.372,14-1.029,9.8-.317,14.221,1.425,8.773.475,12.691-3.667,6.847-5.435,9.987a13.444,13.444,0,0,0-1.834,4.947,41.527,41.527,0,0,0-.317,4.828,14.776,14.776,0,0,1-.633,4.3,7.771,7.771,0,0,1-2.282,3.1,20.331,20.331,0,0,1-5.791,3.272,25.584,25.584,0,0,1-4.736,1.319,18.156,18.156,0,0,1-2.995.29C104.669,508.244,104.313,508.244,104.313,508.244Z" transform="translate(-40.518 -278.669)" fill="#263238"/>
      <path id="Path_3738" data-name="Path 3738" d="M149.2,332.1a1.585,1.585,0,0,0-.145.449l-.317,1.319c-.29,1.174-.646,2.929-1.2,5.119s-1.913,4.67-3.061,7.718a110.128,110.128,0,0,0-3.509,10.475c-1.135,3.958-2.124,8.311-3.179,13.008a54.709,54.709,0,0,1-4.723,14.419,78.966,78.966,0,0,0-3.654,7.493,34.364,34.364,0,0,0-2.124,8.47,172.921,172.921,0,0,1-3.193,17.876c-2.955,12.1-5.778,23.628-8.351,34.129s-5,19.894-7.005,27.836-3.522,14.274-4.631,18.8c-.514,2.164-.923,3.865-1.214,5.119-.119.541-.224.976-.3,1.319a2.438,2.438,0,0,0,0,.462,1.728,1.728,0,0,0,.172-.435c.092-.356.224-.778.383-1.319.33-1.227.792-2.929,1.385-5.079,1.187-4.485,2.863-10.857,4.934-18.707s4.485-17.348,7.19-27.783,5.448-22.045,8.43-34.155A164.534,164.534,0,0,0,128.2,400.7a34.076,34.076,0,0,1,2.058-8.272c1.042-2.638,2.375-5,3.588-7.427,2.638-4.815,3.681-9.987,4.723-14.644s1.966-9.063,3.047-12.995,2.216-7.441,3.351-10.475a80.243,80.243,0,0,0,2.929-7.81c.541-2.269.792-3.958,1.029-5.171q.132-.818.237-1.319C149.2,332.258,149.228,332.1,149.2,332.1Z" transform="translate(-38.732 -276.533)" fill="#263238"/>
      <path id="Path_3739" data-name="Path 3739" d="M117.43,519.621c9.644-5.739,12.414-23.153,8.39-33.628s-11.068-20.052-12.15-31.227c-.844-8.588,1.979-17.4,0-25.791-2.7-11.332-13.76-20.105-13.628-31.754.066-6.53,3.786-12.678,3.483-19.208-.356-7.995-6.5-14.353-10.3-21.4-5.831-10.8-6.214-23.562-8.206-35.62s-6.6-25.066-17.335-31.015c-1.583,10.277-4.288,17.322-3.443,31.24.317,5,6.121,14.512,6.913,25.527.475,6.6.792,13.113,1.2,19.657s.8,12.876,3.087,18.839C77.194,389.82,80,393.976,81.31,398.7c2.441,8.879-.778,18.469,1.2,27.493,1.675,7.625,6.952,14.182,8.034,21.913,1.5,10.857-5.514,22.15-1.926,32.506,1.794,5.145,6.016,9.235,7.216,14.578.937,4.116-.079,8.483.765,12.612,1.319,6.675,14.063,11.873,20.857,11.438" transform="translate(-51.024 -289.98)" fill="#8dc63f"/>
      <path id="Path_3740" data-name="Path 3740" d="M68.813,297.67a3.126,3.126,0,0,0,0,.58c0,.435.132.989.211,1.689.224,1.491.475,3.667.976,6.491s2.005,6.016,3.166,9.868,2.454,8.258,3.536,13.192,2.032,10.435,2.995,16.332,2.018,12.322,4.947,18.469c1.319,3.074,2.876,6.161,3.958,9.459a42.677,42.677,0,0,1,2.032,10.422A208.58,208.58,0,0,0,93.47,406.6c2.955,15.224,5.765,29.723,8.324,42.928s5.132,24.986,7.19,34.96,3.747,17.942,4.921,23.562l1.319,6.4c.158.686.277,1.227.383,1.649a3.283,3.283,0,0,0,.158.567,2.415,2.415,0,0,0,0-.58c-.079-.435-.171-.976-.29-1.675-.29-1.53-.7-3.694-1.214-6.438-1.108-5.633-2.638-13.681-4.631-23.614s-4.354-21.847-6.979-35-5.277-27.7-8.245-42.915a210.435,210.435,0,0,1-2.85-22.427,43.3,43.3,0,0,0-2.1-10.633c-1.174-3.351-2.718-6.451-4.076-9.512-2.9-6.055-3.958-12.375-4.96-18.245s-1.966-11.385-3.113-16.345-2.4-9.393-3.694-13.192-2.731-7.018-3.311-9.776-.858-4.974-1.135-6.438c-.132-.686-.237-1.24-.317-1.675a4.475,4.475,0,0,0-.04-.528Z" transform="translate(-49.517 -287.525)" fill="#263238"/>
    </g>
    <g id="freepik--question-mark--inject-29" transform="translate(150.468 99.828)">
      <path id="Path_3741" data-name="Path 3741" d="M145.074,235.955H221.26s0-63.97,66.477-65.1c34.525-.607,52.427,22.018,59.709,39.34,8.443,20.118,5.884,43.047-5.435,61.714-12.915,21.306-40.751,42.717-92.1,33.667l-.488,169.747h75.342V374.686s105.658-27.308,105.658-143.8c0-111.41-90.091-135.473-138.52-137.03-26.939-.858-36.7-2.018-70.025,2.718C179.414,102.645,144.177,151.959,145.074,235.955Z" transform="translate(-113.491 -93.077)" fill="#8dc63f"/>
      <rect id="Rectangle_328" data-name="Rectangle 328" width="76.463" height="71.411" transform="translate(135.724 417.623)" fill="#8dc63f"/>
      <rect id="Rectangle_329" data-name="Rectangle 329" width="76.463" height="71.411" transform="translate(135.724 417.623)" opacity="0.1"/>
      <path id="Path_3742" data-name="Path 3742" d="M145.074,235.955H221.26s0-63.97,66.477-65.1c34.525-.607,52.427,22.018,59.709,39.34,8.443,20.118,5.884,43.047-5.435,61.714-12.915,21.306-40.751,42.717-92.1,33.667l-.488,169.747h75.342V374.686s105.658-27.308,105.658-143.8c0-111.41-90.091-135.473-138.52-137.03-26.939-.858-36.7-2.018-70.025,2.718C179.414,102.645,144.177,151.959,145.074,235.955Z" transform="translate(-113.491 -93.077)" opacity="0.1"/>
      <path id="Path_3743" data-name="Path 3743" d="M121.143,235.826h76.2s0-63.97,66.477-65.1c34.525-.607,52.427,22.018,59.7,39.34,8.456,20.118,5.9,43.047-5.422,61.714-12.915,21.306-41.24,40.672-92.584,31.662V475.19h75.342V374.558s105.658-27.308,105.658-143.8c0-111.41-99.919-137.28-142.676-137.28C231.129,93.52,119.705,101.422,121.143,235.826Z" transform="translate(-121.13 -92.949)" fill="#8dc63f"/>
      <path id="Path_3744" data-name="Path 3744" d="M121.143,235.826h76.2s0-63.97,66.477-65.1c34.525-.607,52.427,22.018,59.7,39.34,8.456,20.118,5.9,43.047-5.422,61.714-12.915,21.306-41.24,40.672-92.584,31.662V475.19h75.342V374.558s105.658-27.308,105.658-143.8c0-111.41-99.919-137.28-142.676-137.28C231.129,93.52,119.705,101.422,121.143,235.826Z" transform="translate(-121.13 -92.949)" opacity="0.3"/>
      <rect id="Rectangle_330" data-name="Rectangle 330" width="76.463" height="71.411" transform="translate(104.168 417.623)" fill="#8dc63f"/>
      <rect id="Rectangle_331" data-name="Rectangle 331" width="76.463" height="71.411" transform="translate(104.168 417.623)" opacity="0.3"/>
      <path id="Path_3745" data-name="Path 3745" d="M254.086,152.492a6.594,6.594,0,0,1-1.135,0c-.752,0-1.834-.251-3.245-.264a65.817,65.817,0,0,0-11.952.5,84.669,84.669,0,0,0-17.242,4.05,73.771,73.771,0,0,0-9.6,4.142A50.765,50.765,0,0,0,201.5,167a46.491,46.491,0,0,0-7.691,8.127,79.633,79.633,0,0,0-5.765,8.733,78.088,78.088,0,0,0-6.82,16.332,66.423,66.423,0,0,0-2.3,11.741c-.158,1.4-.2,2.507-.237,3.245a6,6,0,0,1-.106,1.135,6.309,6.309,0,0,1,0-1.135c0-.752,0-1.86.119-3.272a60.685,60.685,0,0,1,2.1-11.873,75.989,75.989,0,0,1,6.728-16.517,79.008,79.008,0,0,1,5.791-8.826,46.174,46.174,0,0,1,7.784-8.245,51.132,51.132,0,0,1,9.525-6.161,73.881,73.881,0,0,1,9.67-4.222,82.874,82.874,0,0,1,17.4-3.958,60.687,60.687,0,0,1,12.018-.277,28.442,28.442,0,0,1,3.245.4A8.193,8.193,0,0,1,254.086,152.492Z" transform="translate(-102.795 -74.376)" fill="#263238"/>
      <path id="Path_3746" data-name="Path 3746" d="M353.972,157.436s-.092-.092-.251-.29-.4-.541-.66-.923l-2.52-3.562c-.541-.765-1.121-1.649-1.807-2.559l-2.375-2.889-2.718-3.338c-.989-1.161-2.15-2.282-3.311-3.509s-2.348-2.533-3.694-3.786-2.784-2.533-4.261-3.852c-.739-.66-1.464-1.319-2.256-2.018l-2.454-1.939c-1.675-1.319-3.338-2.638-5.145-3.958a165.842,165.842,0,0,0-24.973-14.749l-6.952-3.14-6.9-2.638c-2.256-.937-4.551-1.6-6.768-2.335s-4.38-1.491-6.6-2.005l-6.306-1.649c-2.045-.541-4.076-.871-6.016-1.319a54.856,54.856,0,0,0-5.646-1.069l-5.277-.765c-3.338-.567-6.4-.686-9.063-.95-1.319-.106-2.638-.251-3.733-.3l-3.14-.079-4.354-.145H225.28a1.24,1.24,0,0,1,.383,0H234.3c1.148,0,2.4.158,3.747.251,2.638.224,5.752.317,9.09.858l5.277.712c1.834.211,3.707.686,5.66,1.042s3.958.726,6.055,1.319l6.332,1.636c2.19.5,4.353,1.319,6.6,1.992a55.692,55.692,0,0,1,6.781,2.322l6.939,2.638,6.992,3.153a161.685,161.685,0,0,1,25.066,14.855c1.821,1.319,3.483,2.731,5.158,4.037l2.454,1.781c.792.66,1.517,1.319,2.256,2.032l4.248,3.958c1.319,1.319,2.507,2.638,3.681,3.839s2.3,2.375,3.285,3.549L346.558,147l2.348,2.929c.673.923,1.24,1.821,1.768,2.638,1.029,1.544,1.834,2.757,2.4,3.628l.62.963A1.518,1.518,0,0,1,353.972,157.436Z" transform="translate(-87.88 -92.895)" fill="#263238"/>
      <path id="Path_3747" data-name="Path 3747" d="M335.722,266a4.078,4.078,0,0,1-.567.792l-1.821,2.15c-.752.963-1.7,2.111-2.876,3.39s-2.427,2.784-3.958,4.34-3.166,3.3-5.026,5.053-3.879,3.6-6.029,5.528a164.746,164.746,0,0,1-30.818,21.253c-2.559,1.319-4.974,2.638-7.309,3.654s-4.512,2.058-6.517,2.9-3.852,1.544-5.462,2.164-3.021,1.121-4.182,1.491l-2.638.857a4.6,4.6,0,0,1-.95.264,4.713,4.713,0,0,1,.9-.4l2.638-.976c1.148-.409,2.533-.937,4.129-1.6s3.443-1.319,5.422-2.256,4.169-1.821,6.451-2.968,4.723-2.361,7.269-3.694c5.026-2.77,10.448-6.016,15.923-9.762a179.072,179.072,0,0,0,14.776-11.411c2.15-1.9,4.208-3.681,6.042-5.475s3.549-3.417,5.066-4.974,2.85-2.995,4.037-4.261,2.164-2.375,2.955-3.3l1.847-2.1A5.991,5.991,0,0,1,335.722,266Z" transform="translate(-77.572 -37.873)" fill="#263238"/>
      <path id="Path_3748" data-name="Path 3748" d="M256.436,401.186c-.2,0-.356-21.187-.356-47.321s.158-47.334.356-47.334.343,21.187.343,47.334S256.621,401.186,256.436,401.186Z" transform="translate(-78.048 -24.934)" fill="#263238"/>
      <path id="Path_3749" data-name="Path 3749" d="M258.633,476.174c-.2,0-.343-14.868-.343-33.205s.145-33.219.343-33.219.343,14.868.343,33.219S258.818,476.174,258.633,476.174Z" transform="translate(-77.342 8.018)" fill="#263238"/>
    </g>
    <g id="freepik--Character--inject-29" transform="translate(400.61 71.933)">
      <path id="Path_3750" data-name="Path 3750" d="M315.453,197.065c-1.319,2.638,3.6,4.8,6.438,5.66a25.883,25.883,0,0,0,8.852.607c3.958-.211,8.008-.58,11.425-2.533a18.232,18.232,0,0,0,6.886-7.718,54.285,54.285,0,0,0,3.5-9.881S321.377,185.232,315.453,197.065Z" transform="translate(-309.306 -36.411)" fill="#8dc63f"/>
      <g id="Group_289" data-name="Group 289" transform="translate(5.927 146.789)" opacity="0.4">
        <path id="Path_3751" data-name="Path 3751" d="M315.453,197.065c-1.319,2.638,3.6,4.8,6.438,5.66a25.883,25.883,0,0,0,8.852.607c3.958-.211,8.008-.58,11.425-2.533a18.232,18.232,0,0,0,6.886-7.718,54.285,54.285,0,0,0,3.5-9.881S321.377,185.232,315.453,197.065Z" transform="translate(-315.233 -183.2)"/>
      </g>
      <path id="Path_3752" data-name="Path 3752" d="M382.632,189.528a29.921,29.921,0,0,0,17.6,5.514,12.44,12.44,0,0,0,8.377-2.638c1.016-.937,1.781-2.124,2.823-3.021.712-.607,1.544-1.069,2.216-1.715a2.836,2.836,0,0,0,.963-2.507,5.185,5.185,0,0,0-1.821-2.9c-3.575-2.032-7.849-1.952-11.966-1.86a41.173,41.173,0,0,0-12.071,2.361c-3.193,1.082-6.53,2.639-8.153,5.541" transform="translate(-288.438 -37.317)" fill="#8dc63f"/>
      <g id="Group_290" data-name="Group 290" transform="translate(92.162 143.063)" opacity="0.4">
        <path id="Path_3753" data-name="Path 3753" d="M414.61,185.157a5.475,5.475,0,0,0-2.335-2.639c-3.575-2.032-7.335-2.216-11.451-2.124a41.173,41.173,0,0,0-12.071,2.361c-3.193,1.082-6.53,2.639-8.153,5.541l2.032,1.227a29.92,29.92,0,0,0,17.6,5.514,12.44,12.44,0,0,0,8.377-2.638c1.016-.937,1.781-2.124,2.823-3.021.712-.607,1.544-1.069,2.216-1.715A2.836,2.836,0,0,0,414.61,185.157Z" transform="translate(-380.6 -180.376)"/>
      </g>
      <path id="Path_3754" data-name="Path 3754" d="M344.064,251.038l65.764.871a.857.857,0,0,0,.818-1.108l-7.717-24.063s1.135-12.031,2.7-26.49c2.388-21.965,5.567-49.577,5.607-49.5C406.741,138.137,380.2,136,380.2,136l-30.25,1.794-1.055-1.781-8.707,4.05a39.748,39.748,0,0,0-5.462,3.087c-5.752,3.839-19.6,12.665-22.137,22.493-5.844,22.757,4.05,48.152,4.05,48.152L323,208.822a44.643,44.643,0,0,1,5.039-3.364l12.744,34.155a6.029,6.029,0,0,0-2.77,4.38c-.105,2.77,1.319,6.095,6.055,7.045" transform="translate(-310.74 -51.479)" fill="#8dc63f"/>
      <g id="Group_291" data-name="Group 291" transform="translate(52.947 125.206)" opacity="0.3">
        <path id="Path_3755" data-name="Path 3755" d="M359.47,200.929c2.084-11.214.989-22.744-.132-34.089-3.641,9.235-3.509,19.789-7.375,28.944a12.4,12.4,0,0,0-1.029,3.047,3.417,3.417,0,0,0,.871,2.982c1.055.963,2.638.435,4.037.277a15.75,15.75,0,0,0,3.628-1.161" transform="translate(-350.874 -166.84)"/>
      </g>
      <g id="Group_292" data-name="Group 292" transform="translate(36.451 176.892)" opacity="0.4">
        <path id="Path_3756" data-name="Path 3756" d="M339.2,214.384c5.277,1.834,10.9-1.583,16.477-2.19,3.694-.4,7.388.449,11.055,1.042a82.927,82.927,0,0,0,22.427.554,8.6,8.6,0,0,0,3.3-.857,3.958,3.958,0,0,0,1.728-3.272c-12.427-1.319-24.841-2.032-37.269-3.311a23.272,23.272,0,0,0-9.314.3c-3.747,1.161-6.6,4.1-9.235,7.018" transform="translate(-338.37 -206.019)"/>
      </g>
      <path id="Path_3757" data-name="Path 3757" d="M414.367,191.743c-5.369-12.1-24.3-45.553-24.3-45.553L375.41,164.567l3.417,36.081s7.744-8.641,29.393-8.813a10.554,10.554,0,0,1,8.047,4.248Z" transform="translate(-290.095 -48.226)" fill="#8dc63f"/>
      <path id="Path_3758" data-name="Path 3758" d="M339.264,179.736a49.751,49.751,0,0,1-2.48-7.915,49.983,49.983,0,0,1-1.794-8.061,52.345,52.345,0,0,1,2.467,7.915,50.968,50.968,0,0,1,1.807,8.061Z" transform="translate(-302.998 -42.617)" fill="#263238"/>
      <path id="Path_3759" data-name="Path 3759" d="M374.571,158.27a8.7,8.7,0,0,1,1.319,1.148,38.259,38.259,0,0,1,3.272,3.588,34.841,34.841,0,0,1,7.005,14.327,27.031,27.031,0,0,1,.409,8.839c-.33,2.7-.844,5.079-1.187,7.084s-.554,3.641-.66,4.776a8.839,8.839,0,0,1-.185,1.755,7.916,7.916,0,0,1-.079-1.781,42.772,42.772,0,0,1,.449-4.828c.277-2.018.739-4.419,1.042-7.071a27.3,27.3,0,0,0-.462-8.628,36.371,36.371,0,0,0-6.715-14.169C376.365,160.064,374.465,158.376,374.571,158.27Z" transform="translate(-290.364 -44.37)" fill="#263238"/>
      <path id="Path_3760" data-name="Path 3760" d="M372.729,223.584a5.619,5.619,0,0,1-1.438.422,12.84,12.84,0,0,1-1.715.33c-.673.092-1.438.237-2.3.277a33.073,33.073,0,0,1-6.042,0,39.01,39.01,0,0,1-7.256-1.451,39.577,39.577,0,0,1-6.807-2.915,34.816,34.816,0,0,1-5-3.39c-.686-.528-1.24-1.082-1.741-1.544a15.2,15.2,0,0,1-1.227-1.24,5.158,5.158,0,0,1-.937-1.161c.092-.092,1.5,1.491,4.208,3.562a37.956,37.956,0,0,0,5,3.219,41.944,41.944,0,0,0,6.7,2.81,41.344,41.344,0,0,0,7.124,1.478,39.072,39.072,0,0,0,5.937.185C370.631,223.979,372.7,223.478,372.729,223.584Z" transform="translate(-301.951 -26.927)" fill="#263238"/>
      <path id="Path_3761" data-name="Path 3761" d="M380.8,215.32a4.591,4.591,0,0,1,.515,1.926,11.875,11.875,0,0,1-.356,4.8,8.338,8.338,0,0,1-2.638,4.09c-.963.8-1.7,1.055-1.741.989s.58-.5,1.412-1.319a9.341,9.341,0,0,0,2.256-3.958C381.3,218.367,380.551,215.333,380.8,215.32Z" transform="translate(-289.722 -26.157)" fill="#263238"/>
      <path id="Path_3762" data-name="Path 3762" d="M377.756,218.84a7.15,7.15,0,0,1-2.823,7.282c-.145-.145,1.082-1.451,1.847-3.47S377.558,218.853,377.756,218.84Z" transform="translate(-290.251 -25.033)" fill="#263238"/>
      <path id="Path_3763" data-name="Path 3763" d="M369.277,185.94a28,28,0,0,1-2.348,3.377,27.028,27.028,0,0,1-2.309,3.4,8.457,8.457,0,0,1,1.741-3.8,8.324,8.324,0,0,1,2.915-2.981Z" transform="translate(-293.539 -35.536)" fill="#263238"/>
      <path id="Path_3764" data-name="Path 3764" d="M339.245,163.735a33.1,33.1,0,0,1-2.916-1.926,37.454,37.454,0,0,0-15.58-5.818,29.4,29.4,0,0,1-3.47-.462,12.876,12.876,0,0,1,3.522,0,31.5,31.5,0,0,1,15.831,5.9,12.585,12.585,0,0,1,2.612,2.309Z" transform="translate(-308.652 -45.283)" fill="#263238"/>
      <path id="Path_3765" data-name="Path 3765" d="M389.326,145.86a57.032,57.032,0,0,0-6.6,6.24,56.722,56.722,0,0,0-5,7.625,8.047,8.047,0,0,1,.91-2.559,26.609,26.609,0,0,1,3.562-5.514,25.911,25.911,0,0,1,4.828-4.446,7.757,7.757,0,0,1,2.3-1.346Z" transform="translate(-289.354 -48.332)" fill="#263238"/>
      <path id="Path_3766" data-name="Path 3766" d="M375.182,137.62a2.892,2.892,0,0,1,.29.607,11.767,11.767,0,0,1,.62,1.847,15.528,15.528,0,0,1,0,7.15,17.6,17.6,0,0,1-5.383,9.09,18.272,18.272,0,0,1-12.137,4.327,20.593,20.593,0,0,1-12.335-4.05,23.364,23.364,0,0,1-6.741-8.166,24.736,24.736,0,0,1-2.243-6.794,14.852,14.852,0,0,1-.237-1.926,2.124,2.124,0,0,1,0-.686s.145.923.515,2.559a26.9,26.9,0,0,0,2.414,6.6,23.377,23.377,0,0,0,6.688,7.915,20.158,20.158,0,0,0,11.873,3.958,17.836,17.836,0,0,0,11.728-4.116,17.414,17.414,0,0,0,5.277-8.733,16.1,16.1,0,0,0,.237-6.966C375.5,138.491,375.1,137.646,375.182,137.62Z" transform="translate(-302.36 -50.962)" fill="#263238"/>
      <g id="Group_293" data-name="Group 293" transform="translate(71.081 150.83)" opacity="0.3">
        <path id="Path_3767" data-name="Path 3767" d="M370.979,188.172a1.936,1.936,0,0,0-.686-1.768,1.319,1.319,0,0,0-1.187,0,3.258,3.258,0,0,0-.963.792,16.187,16.187,0,0,0-3.522,5.633l6.464-.567C371.045,190.929,371.018,189.531,370.979,188.172Z" transform="translate(-364.62 -186.263)"/>
      </g>
      <g id="Group_294" data-name="Group 294" transform="translate(94.207 129.111)" opacity="0.3">
        <path id="Path_3768" data-name="Path 3768" d="M386.846,179.826a21.2,21.2,0,0,0-4.7-10.026c2.8,9.129,1.86,14.287.29,20.541l.343-.871C384.591,185.816,387.335,183.52,386.846,179.826Z" transform="translate(-382.15 -169.8)"/>
      </g>
      <path id="Path_3769" data-name="Path 3769" d="M384.08,410.5l-3.945,59.168-25.725-.3-4.05-61.516Z" transform="translate(-298.092 35.307)" fill="#ffbe9d"/>
      <path id="Path_3770" data-name="Path 3770" d="M380.337,448.96v1.715s29.023,11.662,29.3,17.15L352,467.509l.9-19.169C361.485,452.364,370.469,452.865,380.337,448.96Z" transform="translate(-297.568 48.233)" fill="#8dc63f"/>
      <path id="Path_3771" data-name="Path 3771" d="M357.514,453.019a2.348,2.348,0,0,0-1.636,2.638,2.243,2.243,0,0,0,2.639,1.649,2.467,2.467,0,0,0,1.715-2.836,2.335,2.335,0,0,0-2.929-1.412" transform="translate(-296.341 49.701)" fill="#fff"/>
      <path id="Path_3772" data-name="Path 3772" d="M352,463.984l.211-4.6,55.2,2.005s2.559,1.135,2.256,2.929Z" transform="translate(-297.568 51.757)" fill="#263238"/>
      <path id="Path_3773" data-name="Path 3773" d="M374.914,450.3c0,.277-1.425.4-2.81,1.319s-2.137,2.071-2.388,1.966.172-1.741,1.873-2.8S374.98,449.992,374.914,450.3Z" transform="translate(-291.934 48.771)" fill="#263238"/>
      <path id="Path_3774" data-name="Path 3774" d="M379.144,452.17c.066.277-1.161.739-2.124,1.926s-1.24,2.441-1.53,2.427-.449-1.609.778-3.047S379.131,451.972,379.144,452.17Z" transform="translate(-290.135 49.429)" fill="#263238"/>
      <path id="Path_3775" data-name="Path 3775" d="M380.862,458.823c-.264,0-.646-1.319.092-2.889s2.045-2.137,2.164-1.913-.7,1.055-1.319,2.335S381.152,458.8,380.862,458.823Z" transform="translate(-288.462 50.032)" fill="#263238"/>
      <path id="Path_3776" data-name="Path 3776" d="M386.374,85.016c1.491-3.694-.317-8.166-3.522-10.554a15.356,15.356,0,0,0-11.464-2.23,45.659,45.659,0,0,0-11.266,3.958,12.7,12.7,0,0,0-21.583,7.045,8.1,8.1,0,0,0-9.591,10.62l17.836,6.266,19.472,34.3a15.58,15.58,0,0,0,22.928-20.712,13.523,13.523,0,0,0,2.744-3.377,13.641,13.641,0,0,0,6.293-8.443C399.949,94.251,394.039,85.913,386.374,85.016Z" transform="translate(-305.083 -71.933)" fill="#263238"/>
      <path id="Path_3777" data-name="Path 3777" d="M374.066,153.372c-1.108-5.58-1.873-9.406-1.86-9.367s10.554-4.09,9.789-18.773c-.369-7.309-3.153-18.826-5.739-28.166-2.322-8.417-10.171-17.691-18.469-15.013L332.629,94.323c-2.52.818-2.955,3.193-2.361,5.765v1.319l9.776,40.448,4.129,18.074a15.264,15.264,0,0,0,17.045,11.583h0a15.277,15.277,0,0,0,12.849-18.14Z" transform="translate(-304.582 -68.851)" fill="#ffbe9d"/>
      <path id="Path_3778" data-name="Path 3778" d="M365.87,101.053a1.873,1.873,0,0,1-1.319,2.216,1.794,1.794,0,0,1-2.229-1.319,1.86,1.86,0,0,1,1.319-2.2,1.781,1.781,0,0,1,2.23,1.306Z" transform="translate(-294.288 -63.075)" fill="#263238"/>
      <path id="Path_3779" data-name="Path 3779" d="M365.895,98.894c-.185.29-1.781-.435-3.733,0s-3.193,1.7-3.456,1.5,0-.567.541-1.148a5.145,5.145,0,0,1,2.7-1.5,4.842,4.842,0,0,1,3.034.33C365.723,98.38,365.974,98.775,365.895,98.894Z" transform="translate(-295.461 -63.726)" fill="#263238"/>
      <path id="Path_3780" data-name="Path 3780" d="M351.35,104.32a1.86,1.86,0,0,1-1.319,2.2,1.794,1.794,0,0,1-2.23-1.24,1.873,1.873,0,0,1,1.319-2.216,1.794,1.794,0,0,1,2.229,1.253Z" transform="translate(-298.923 -62.016)" fill="#263238"/>
      <path id="Path_3781" data-name="Path 3781" d="M351.515,102.424c-.172.29-1.781-.449-3.733,0s-3.193,1.689-3.456,1.5,0-.567.541-1.161a5.185,5.185,0,0,1,2.7-1.491,4.947,4.947,0,0,1,3.034.317C351.3,101.909,351.607,102.266,351.515,102.424Z" transform="translate(-300.051 -62.599)" fill="#263238"/>
      <path id="Path_3782" data-name="Path 3782" d="M358.33,115.418a13.891,13.891,0,0,1,3.061-1.24c.488-.158.95-.356.963-.712a2.638,2.638,0,0,0-.646-1.412l-2.282-3.509c-3.193-5-5.62-9.142-5.422-9.235s2.955,3.826,6.148,8.826l2.23,3.536a3.021,3.021,0,0,1,.673,1.913,1.319,1.319,0,0,1-.673.9,3.325,3.325,0,0,1-.818.3A12.11,12.11,0,0,1,358.33,115.418Z" transform="translate(-296.932 -63.193)" fill="#263238"/>
      <path id="Path_3783" data-name="Path 3783" d="M366.865,129.162a36.939,36.939,0,0,1-20.105-1.082s6.913,9.024,20.857,4.71Z" transform="translate(-299.241 -54.008)" fill="#eb996e"/>
      <path id="Path_3784" data-name="Path 3784" d="M352.172,100.249c-.132.567-2.15.554-4.446,1.121s-4.116,1.425-4.485.976c-.158-.211.105-.765.8-1.319a7.572,7.572,0,0,1,3.219-1.6,7.744,7.744,0,0,1,3.575,0C351.776,99.6,352.264,99.985,352.172,100.249Z" transform="translate(-300.379 -63.221)" fill="#263238"/>
      <path id="Path_3785" data-name="Path 3785" d="M365.495,94.209c-.317.528-2.005.4-3.958.778s-3.5,1.042-3.958.66c-.211-.2,0-.7.567-1.319a6.306,6.306,0,0,1,3.047-1.4,6.214,6.214,0,0,1,3.311.237C365.31,93.536,365.627,93.945,365.495,94.209Z" transform="translate(-295.813 -65.268)" fill="#263238"/>
      <path id="Path_3786" data-name="Path 3786" d="M336.892,85.685A9.934,9.934,0,0,0,350.361,92.9c2.084-.844,4.248-2.427,6.359-1.662s2.982,3.773,5,4.894c2.968,1.662,6.6-1.214,9.908-.923,2.638.224,4.631,2.243,6.675,3.958s4.868,3.008,7.177,1.768a29.155,29.155,0,0,0-2.335-6.359,9.842,9.842,0,0,0-4.829-4.565c-1.161-.462-2.414-.62-3.522-1.187-2.388-1.214-3.456-3.958-5.185-6.029a10.884,10.884,0,0,0-9.235-3.694c-2.85.29-5.554,1.728-8.43,1.609-2.124-.092-4.156-1.042-6.28-1-4.129,0-7.229,3.694-9.525,7.137" transform="translate(-302.631 -69.659)" fill="#263238"/>
      <path id="Path_3787" data-name="Path 3787" d="M355.554,87.725c-1.9-.145-5.778-.541-7.058-1.887a11.134,11.134,0,0,0-10.554-3.483,9.235,9.235,0,0,0-6.6,8.786,13.192,13.192,0,0,0-9.63,9.459,15.33,15.33,0,0,0,3.3,13.865,27.463,27.463,0,0,1,2.164,3.127,22.346,22.346,0,0,0-2.348,3.562c-3.021,6.675,5.171,9.235,5.171,9.235,0,4.485,4.156,4.459,6.807,4.446s4.116,7.071,6.187,6.794l-2.1-21.86a2.718,2.718,0,0,0,.963.185c5,.092,3.694-9.38,2.084-11.873a29.288,29.288,0,0,0,3.747-6.042,20.462,20.462,0,0,0,.185-10.105C349.551,91.722,356.372,87.778,355.554,87.725Z" transform="translate(-307.388 -68.679)" fill="#263238"/>
      <path id="Path_3788" data-name="Path 3788" d="M338.662,112.321a4.235,4.235,0,0,0-6.794-2.269c-1.319,1.135-2.018,3.034-1.227,6.214,2.137,8.5,10.224,4.6,10.171,4.367S339.585,115.83,338.662,112.321Z" transform="translate(-304.493 -60.069)" fill="#ffbe9d"/>
      <path id="Path_3789" data-name="Path 3789" d="M336.834,117.427a2.222,2.222,0,0,1-.343.317,1.517,1.517,0,0,1-1.095.3c-.976-.106-2.1-1.319-2.52-2.863a5.118,5.118,0,0,1-.119-2.216,1.781,1.781,0,0,1,.831-1.425.778.778,0,0,1,.976.2c.172.2.158.383.211.4s.145-.2,0-.528a1.016,1.016,0,0,0-.462-.449,1.161,1.161,0,0,0-.871,0,2.177,2.177,0,0,0-1.227,1.7,5.277,5.277,0,0,0,.092,2.507,3.958,3.958,0,0,0,3.074,3.127,1.662,1.662,0,0,0,1.319-.567C336.873,117.638,336.873,117.44,336.834,117.427Z" transform="translate(-303.919 -59.436)" fill="#eb996e"/>
      <path id="Path_3790" data-name="Path 3790" d="M381.064,108.729a12.63,12.63,0,0,0,4.5-8.509,12.163,12.163,0,0,0-.475-4.881,10.475,10.475,0,0,0-3.021-4.7,12.427,12.427,0,0,0-12.111-2.427c-.4.132-.765.33-1.135.488a10.119,10.119,0,0,0-1.042.594l-.528.29v-.58a4.248,4.248,0,0,0-1.069-2.77,6.794,6.794,0,0,0-2.493-1.689,9.011,9.011,0,0,0-5.66-.422c-3.641.831-6.728,2.493-9.644,2.836a9.314,9.314,0,0,1-6.6-1.319,5.133,5.133,0,0,1-1.319-1.319c-.211-.356-.317-.554-.29-.567a7.2,7.2,0,0,0,1.728,1.675,9.235,9.235,0,0,0,6.372,1.069,22.428,22.428,0,0,0,4.433-1.319,41.348,41.348,0,0,1,5.145-1.675,11.055,11.055,0,0,1,2.982-.3,9.064,9.064,0,0,1,3.074.712,7.44,7.44,0,0,1,2.638,1.9,5.026,5.026,0,0,1,1.24,3.219l-.528-.29,1.095-.633c.409-.158.792-.369,1.214-.515a12.968,12.968,0,0,1,12.784,2.546,10.923,10.923,0,0,1,3.14,4.987A12.836,12.836,0,0,1,382.977,107a8.376,8.376,0,0,1-1.464,1.319A2.506,2.506,0,0,1,381.064,108.729Z" transform="translate(-301.343 -68.337)" fill="#455a64"/>
      <path id="Path_3791" data-name="Path 3791" d="M379.074,81.145a10.329,10.329,0,0,0-2.744-.937,7.177,7.177,0,0,0-3.245.3,6.332,6.332,0,0,0-3.338,2.427l-.33.462-.2-.528a9.907,9.907,0,0,0-8.047-5.976,12.8,12.8,0,0,0-7.731,2.243,34.156,34.156,0,0,1-6.134,3.166,9.723,9.723,0,0,1-4.644.554,7.084,7.084,0,0,1-1.227-.343c-.264-.119-.409-.185-.4-.211s.594.172,1.662.277a10.132,10.132,0,0,0,4.446-.726,38.032,38.032,0,0,0,5.976-3.272,20.46,20.46,0,0,1,3.694-1.807,10.132,10.132,0,0,1,4.433-.567,10.409,10.409,0,0,1,8.522,6.451h-.515a6.887,6.887,0,0,1,3.681-2.559,7.506,7.506,0,0,1,3.456-.172,6.174,6.174,0,0,1,2.058.792,2.638,2.638,0,0,1,.62.422Z" transform="translate(-301.067 -70.581)" fill="#455a64"/>
      <path id="Path_3792" data-name="Path 3792" d="M357.86,114.641a2.85,2.85,0,0,0-2.243-.633,3.39,3.39,0,0,0-2.23,1.623h0a.421.421,0,0,0-.079.106h0a1.689,1.689,0,0,0-.237,1,2.362,2.362,0,0,0,1.319,1.781,3.034,3.034,0,0,0,3.456-.5,2.467,2.467,0,0,0,.013-3.377Z" transform="translate(-297.228 -58.51)" fill="#8dc63f"/>
      <path id="Path_3793" data-name="Path 3793" d="M358.641,118.45c-.106,0-.224-.4-.581-.937a4.116,4.116,0,0,0-4.287-1.952c-.646.092-1.042.277-1.082.185s.264-.409.976-.66a3.958,3.958,0,0,1,2.836.158,3.853,3.853,0,0,1,1.992,2.045C358.773,117.975,358.733,118.437,358.641,118.45Z" transform="translate(-297.349 -58.217)" fill="#263238"/>
      <path id="Path_3794" data-name="Path 3794" d="M338.027,119.3a1.813,1.813,0,0,1-.119,1.662,2.649,2.649,0,0,1-4.987-.937,2.771,2.771,0,0,1,.541-1.821c.686-.871,1.451-.9,1.451-.818a4.07,4.07,0,0,0-1.042,1.095,2.322,2.322,0,0,0-.317,1.478,2.111,2.111,0,0,0,.989,1.464,2.177,2.177,0,0,0,1.755.264,2.467,2.467,0,0,0,1.2-.923A6.109,6.109,0,0,0,338.027,119.3Z" transform="translate(-303.661 -57.431)" fill="#8dc63f"/>
      <path id="Path_3795" data-name="Path 3795" d="M334.149,119.034c.066,0,0,.449-.62.739a1.728,1.728,0,0,1-2.309-2.124,1.675,1.675,0,0,1,.7-.858c.541-.33.95-.2.937-.119s-.317.171-.646.5a1.319,1.319,0,0,0,1.161,2.137C333.819,119.219,334.056,118.981,334.149,119.034Z" transform="translate(-304.228 -57.68)" fill="#8dc63f"/>
      <path id="Path_3796" data-name="Path 3796" d="M344.432,215.7s32.664,1.9,51.978,2.071c14.947.145,21.622-3.826,24.6-13.443,2.507-8.061-2.876-23.535-2.876-23.535-10.119,0-16.359,1.451-22.862,4.5L397,192.36,344.34,196.9Z" transform="translate(-300.014 -37.181)" fill="#ffbe9d"/>
      <path id="Path_3797" data-name="Path 3797" d="M395.31,197.153a26.281,26.281,0,0,0-4.921-4.894,25.856,25.856,0,0,0-6.359-2.8,4.6,4.6,0,0,1,2.1.185,13.958,13.958,0,0,1,4.644,2.045,13.786,13.786,0,0,1,3.6,3.588C395.112,196.361,395.389,197.113,395.31,197.153Z" transform="translate(-287.343 -34.427)" fill="#eb996e"/>
      <path id="Path_3798" data-name="Path 3798" d="M339.593,195.1h0s-10.105,2.427-17.533,7.388l7.915,21.451c2.638,7.045,10.7,10.554,17.15,6.86,9.934-5.686,13.443-22.256,13.443-22.256l10.91-47.334L353.392,149.88,339.659,195.1" transform="translate(-307.126 -47.048)" fill="#ffbe9d"/>
      <path id="Path_3799" data-name="Path 3799" d="M346.6,158.178l.739-15.567-4.05-15.831c-.224-.871-.33-1.966.383-2.493a1.926,1.926,0,0,1,2.441.079c1.095,1.135,6.372,14.973,6.372,14.973s8.008-4.8,9.433-5.04,3.206,4.076,3.324,4.406a26.828,26.828,0,0,1,0,2.9s4.947.145,5.4.818a17.45,17.45,0,0,1,.567,4.208s2.1.673,2.427,2.256,1.016,4.2,0,4.776-3.074,1.715-3.074,1.715-.831,8.074-1.055,8.813-4.855,5.277-4.855,5.277Z" transform="translate(-300.402 -55.346)" fill="#ffbe9d"/>
      <path id="Path_3800" data-name="Path 3800" d="M333,239.443a8.1,8.1,0,0,0,1.517.62,10.475,10.475,0,0,0,4.657.369,12.994,12.994,0,0,0,6.755-3.113,31.068,31.068,0,0,0,6.28-7.915,34.367,34.367,0,0,0,2.441-5.448,57.823,57.823,0,0,0,1.7-6.319c1.029-4.446,2.15-9.235,3.338-14.327,2.375-10.171,5.039-21.543,7.915-33.8v-.092h.066c.91-.9,1.821-1.807,2.731-2.757.449-.475.9-.95,1.319-1.438.211-.251.435-.5.607-.752a1.9,1.9,0,0,0,.224-.8c.356-2.638.633-5.369.923-8.127v-.172l.158-.079,2.52-1.412c.185-.119.475-.251.594-.356a.752.752,0,0,0,.237-.435,4.749,4.749,0,0,0,0-1.319,20.014,20.014,0,0,0-.594-2.863,3.562,3.562,0,0,0-2.1-1.7l-.224-.079V146.9a20.068,20.068,0,0,0-.171-2.335,10.7,10.7,0,0,0-.172-1.161,1.927,1.927,0,0,0-.158-.488c0-.092,0,0-.079-.079a1.32,1.32,0,0,0-.224-.092,23.628,23.628,0,0,0-4.828-.541h-.343V139.22a2.77,2.77,0,0,0-.317-.884c-.132-.317-.29-.62-.449-.937a11.677,11.677,0,0,0-1.082-1.741,2.889,2.889,0,0,0-.673-.66.633.633,0,0,0-.7-.079,15.482,15.482,0,0,0-1.86.857c-2.454,1.319-4.855,2.639-7.2,4.063l-.343.211-.145-.369c-1.24-3.127-2.48-6.214-3.694-9.235-.607-1.517-1.2-3.034-1.807-4.525a1.847,1.847,0,0,0-1.451-1.319,1.464,1.464,0,0,0-1.715.633,1.531,1.531,0,0,0-.2.937,6.873,6.873,0,0,0,.264,1.095c.211.765.409,1.517.607,2.269.4,1.517.778,3.008,1.174,4.485q1.161,4.459,2.282,8.707v.092q-.4,8.127-.752,15.567v-.026l-12.018,39.1-3.391,10.884c-.4,1.227-.7,2.19-.91,2.863a9.49,9.49,0,0,1-.343.963s.066-.343.251-.989l.831-2.889c.765-2.546,1.86-6.227,3.245-10.923,2.85-9.446,6.9-22.928,11.794-39.182v.066q.343-7.414.7-15.567v.092c-.752-2.836-1.53-5.739-2.309-8.694l-1.187-4.485c-.2-.752-.4-1.517-.607-2.269a11.63,11.63,0,0,1-.277-1.2,2.19,2.19,0,0,1,.277-1.319,2.111,2.111,0,0,1,1.069-.9,2.718,2.718,0,0,1,2.573.58,2.638,2.638,0,0,1,.712,1.135l1.807,4.525c1.227,3.034,2.454,6.121,3.707,9.235l-.488-.172c2.361-1.4,4.736-2.8,7.243-4.1a18.987,18.987,0,0,1,1.953-.884,1.32,1.32,0,0,1,.66-.092,1.583,1.583,0,0,1,.633.237,3.772,3.772,0,0,1,.831.818,11.3,11.3,0,0,1,1.148,1.847c.172.33.33.646.475.976a3.389,3.389,0,0,1,.369,1.121v2.638l-.33-.356a23.535,23.535,0,0,1,5.039.58,2.3,2.3,0,0,1,.33.145.858.858,0,0,1,.343.343,2.866,2.866,0,0,1,.224.673c.079.422.132.818.185,1.227.079.8.132,1.6.172,2.388l-.237-.317a4.142,4.142,0,0,1,2.52,2.084,20.375,20.375,0,0,1,.633,3.061,4.67,4.67,0,0,1,0,1.6,1.385,1.385,0,0,1-.475.818,6.722,6.722,0,0,1-.673.4L374,155.723l.172-.251c-.3,2.757-.58,5.462-.95,8.14l-.079.514a1.161,1.161,0,0,1-.251.567,6.8,6.8,0,0,1-.646.818c-.448.5-.9.989-1.319,1.464-.91.95-1.821,1.86-2.744,2.757l.092-.158c-2.9,12.243-5.594,23.614-8.008,33.786-1.2,5.079-2.348,9.868-3.4,14.3a54.419,54.419,0,0,1-1.741,6.359,35.781,35.781,0,0,1-2.507,5.5,31.16,31.16,0,0,1-6.425,7.995,13.193,13.193,0,0,1-6.926,3.087,10.29,10.29,0,0,1-4.736-.475,7.91,7.91,0,0,1-1.121-.514Z" transform="translate(-303.634 -55.372)" fill="#eb996e"/>
      <path id="Path_3801" data-name="Path 3801" d="M361.56,137.443c0,.092-.449.145-1.148.172a13.257,13.257,0,0,0-2.638.317,5.132,5.132,0,0,0-2.243,1.2c-.475.449-.686.831-.792.792s0-.514.435-1.121a4.38,4.38,0,0,1,2.427-1.53,7.3,7.3,0,0,1,2.823-.132C361.137,137.232,361.56,137.35,361.56,137.443Z" transform="translate(-296.706 -51.141)" fill="#eb996e"/>
      <path id="Path_3802" data-name="Path 3802" d="M357.032,137.845c-.172-.066-.185-.475,0-.91s.449-.739.62-.673.2.475,0,.91S357.164,137.911,357.032,137.845Z" transform="translate(-296.004 -51.399)" fill="#eb996e"/>
      <path id="Path_3803" data-name="Path 3803" d="M366.205,141.155a12.216,12.216,0,0,1-3.958.541,2.638,2.638,0,0,0-2.19,1.042c-.343.541-.224.989-.33,1.016s-.422-.435-.092-1.227a2.071,2.071,0,0,1,.937-1.042,3.958,3.958,0,0,1,1.583-.475,10.857,10.857,0,0,1,4.05.145Z" transform="translate(-295.177 -49.92)" fill="#eb996e"/>
      <path id="Path_3804" data-name="Path 3804" d="M364.032,144.69c.185,0,.29.976.237,2.177s-.251,2.15-.435,2.15-.3-.989-.251-2.19S363.834,144.677,364.032,144.69Z" transform="translate(-293.874 -48.705)" fill="#eb996e"/>
      <path id="Path_3805" data-name="Path 3805" d="M368.07,173.457l1.174-4.037a1.108,1.108,0,0,1,1.847-.475l1.544,1.57.95-3.813a1.108,1.108,0,0,1,2.071-.211l2.15,4.512Z" transform="translate(-292.438 -41.945)" fill="#fff"/>
      <path id="Path_3806" data-name="Path 3806" d="M377.765,171.07a17.81,17.81,0,0,1-4.657,1.5,17.241,17.241,0,0,1-4.828.844,35.2,35.2,0,0,1,9.485-2.348Z" transform="translate(-292.371 -40.284)" fill="#fff"/>
      <path id="Path_3807" data-name="Path 3807" d="M316.867,154a10.842,10.842,0,0,0-1.174,1.57,13.271,13.271,0,0,0-1.781,4.974,35.275,35.275,0,0,0-.237,7.915c.145,2.995.383,6.266.752,9.7a169.9,169.9,0,0,0,2.784,17.44c.462,2.216.884,3.958,1.174,5.277.132.554.251,1.016.343,1.412s.106.5.106.5-.066-.158-.158-.475-.237-.871-.383-1.412c-.33-1.227-.778-2.995-1.319-5.211a156.573,156.573,0,0,1-2.863-17.454c-.369-3.43-.594-6.715-.726-9.71a35.371,35.371,0,0,1,.29-7.915,13.192,13.192,0,0,1,1.9-5.013,7.652,7.652,0,0,1,1.293-1.6Z" transform="translate(-309.928 -45.733)" fill="#fff"/>
      <path id="Path_3808" data-name="Path 3808" d="M343.77,140.381l-.3.158-.871.422c-.752.356-1.847.884-3.153,1.609a115.874,115.874,0,0,0-9.908,6.2c-3.773,2.639-7.111,5.04-9.551,6.781l-2.889,2.045-.8.541a1.61,1.61,0,0,1-.29.185,1.069,1.069,0,0,1,.264-.224l.765-.58,2.836-2.124c2.414-1.781,5.739-4.261,9.512-6.847a100.349,100.349,0,0,1,9.973-6.148c1.319-.7,2.427-1.2,3.206-1.53l.884-.369C343.7,140.407,343.7,140.367,343.77,140.381Z" transform="translate(-309.061 -50.082)" fill="#fff"/>
      <path id="Path_3809" data-name="Path 3809" d="M390.662,149.485a.963.963,0,0,1-.224-.171l-.594-.515a24.635,24.635,0,0,0-2.309-1.728,47.782,47.782,0,0,0-8.483-4.288,85.327,85.327,0,0,0-9.037-3.008c-1.187-.33-2.137-.567-2.81-.726l-.752-.2a1.056,1.056,0,0,1-.264-.092h.277l.765.145c.673.132,1.636.343,2.823.646a73.282,73.282,0,0,1,9.1,2.942,43.374,43.374,0,0,1,8.483,4.38A16.993,16.993,0,0,1,390.662,149.485Z" transform="translate(-293.038 -50.598)" fill="#fff"/>
      <path id="Path_3810" data-name="Path 3810" d="M338.514,225.956a1.86,1.86,0,0,1-.515-.172,9.238,9.238,0,0,1-1.319-.712,6.306,6.306,0,0,1-2.876-3.879,7.586,7.586,0,0,1,.515-4.828,6.348,6.348,0,0,1,.765-1.319c.211-.277.356-.409.369-.4a14.95,14.95,0,0,0-.963,1.755,7.823,7.823,0,0,0-.409,4.683,6.4,6.4,0,0,0,2.638,3.786C337.815,225.666,338.54,225.9,338.514,225.956Z" transform="translate(-303.435 -26.371)" fill="#fff"/>
      <path id="Path_3811" data-name="Path 3811" d="M334.15,212.39a6.6,6.6,0,0,1,.62,1.662,6.1,6.1,0,0,1,.369,1.728,5.421,5.421,0,0,1-.633-1.649,5.277,5.277,0,0,1-.356-1.741Z" transform="translate(-303.267 -27.092)" fill="#fff"/>
      <path id="Path_3812" data-name="Path 3812" d="M355.605,504.726l40.237-.2-.726-139.114L394.734,223.9l-54.524-.7-9.8,18.469a66.331,66.331,0,0,0-7.533,23.931c-.66,6.412,4.142,27.256,5.8,32.533l15,47.572Z" transform="translate(-306.886 -23.641)" fill="#263238"/>
      <path id="Path_3813" data-name="Path 3813" d="M396.307,223.886l44.221,120.539a55.593,55.593,0,0,1-5.448,47.1L383.735,491.784,354.87,455.663l42.955-89.708-37.862-61.411,6.372-80.474,17.836-.29Z" transform="translate(-296.652 -23.456)" fill="#263238"/>
      <path id="Path_3814" data-name="Path 3814" d="M374.55,254.47v.62c0,.409.066,1.042.119,1.821.092,1.623.211,3.958.369,6.979.3,6.108.726,14.881,1.319,25.712s1.095,23.746,1.755,38.126c.317,7.177.66,14.71,1,22.52.251,3.958.145,7.915.185,11.873s0,8.127,0,12.269c0,33.153.106,63.165.145,84.92v32.744c0-1.636,0-3.958-.079-7.005,0-6.108-.106-14.881-.185-25.725-.092-21.754-.211-51.767-.343-84.92V362.133c0-4.037.079-8.021-.172-11.873-.33-7.8-.66-15.33-.963-22.506-.607-14.353-1.161-27.269-1.609-38.139s-.778-19.6-1.029-25.712c-.106-3.008-.185-5.356-.237-6.992V255.09C374.827,254.589,374.55,254.47,374.55,254.47Z" transform="translate(-290.369 -13.659)" fill="#455a64"/>
      <path id="Path_3815" data-name="Path 3815" d="M373.78,225.66a4.777,4.777,0,0,1,.277,1.319c.145.844.3,2.071.488,3.6.343,3.047.712,7.282.923,11.966s.224,8.931.158,12.005c0,1.53-.092,2.784-.158,3.641a4.461,4.461,0,0,1-.158,1.319,37.682,37.682,0,0,1-.172-4.96c0-3.074-.145-7.3-.356-11.979s-.5-8.892-.726-11.873a44.458,44.458,0,0,1-.277-5.04Z" transform="translate(-290.615 -22.856)" fill="#455a64"/>
      <path id="Path_3816" data-name="Path 3816" d="M367.4,227.8c.066.092-.686.435-.9,1.5a1.728,1.728,0,0,0,.515,1.609,1.86,1.86,0,0,0,1.979.356,1.9,1.9,0,0,0,1.029-1.728,1.728,1.728,0,0,0-.884-1.438,3.206,3.206,0,0,0-1.728-.3.977.977,0,0,1,.475-.277,2.242,2.242,0,0,1,1.478.145,2.151,2.151,0,0,1,1.319,1.834,2.361,2.361,0,0,1-4.063,1.873,2.164,2.164,0,0,1-.541-2.177,2.229,2.229,0,0,1,.844-1.227C367.192,227.789,367.39,227.763,367.4,227.8Z" transform="translate(-293.103 -22.281)" fill="#455a64"/>
      <path id="Path_3817" data-name="Path 3817" d="M356.158,225.91a3.956,3.956,0,0,1,.356,1.319,12.478,12.478,0,0,1,.119,3.588,14.657,14.657,0,0,1-1.517,5.105,13.522,13.522,0,0,1-10.316,7.4,14.3,14.3,0,0,1-5.277-.2,12.454,12.454,0,0,1-3.351-1.253,4.183,4.183,0,0,1-1.082-.739,23.932,23.932,0,0,0,4.538,1.517,13.865,13.865,0,0,0,16.583-11.873,22.956,22.956,0,0,0-.053-4.868Z" transform="translate(-302.967 -22.776)" fill="#455a64"/>
      <path id="Path_3818" data-name="Path 3818" d="M392.888,237.492a5.54,5.54,0,0,1-2.546-.3,11.754,11.754,0,0,1-5.185-3.325,11.6,11.6,0,0,1-2.81-5.488,5.278,5.278,0,0,1,0-2.546c.119,0,.132.963.528,2.441a12.757,12.757,0,0,0,7.678,8.456C391.925,237.268,392.9,237.36,392.888,237.492Z" transform="translate(-287.93 -22.802)" fill="#455a64"/>
      <path id="Path_3819" data-name="Path 3819" d="M406.22,334.125a8.418,8.418,0,0,1-2.335,1.86,10.924,10.924,0,0,1-2.995,1.319,7.2,7.2,0,0,1-4.05-.106,11.794,11.794,0,0,1-5.646-4.485,10.845,10.845,0,0,1-1.544-2.533,15.332,15.332,0,0,1,1.926,2.229,12.506,12.506,0,0,0,5.462,4.129,8.443,8.443,0,0,0,6.6-.963A25.851,25.851,0,0,1,406.22,334.125Z" transform="translate(-285.549 10.511)" fill="#455a64"/>
      <path id="Path_3820" data-name="Path 3820" d="M396.45,341.647a33.381,33.381,0,0,1-4.156-5.277,34.3,34.3,0,0,1-3.615-5.66,32.254,32.254,0,0,1,4.169,5.277A31.531,31.531,0,0,1,396.45,341.647Z" transform="translate(-285.858 10.68)" fill="#455a64"/>
      <path id="Path_3821" data-name="Path 3821" d="M343.7,258.886c-.185.066-.646-.686-1.055-1.7s-.581-1.873-.409-1.952.646.686,1.042,1.7S343.872,258.886,343.7,258.886Z" transform="translate(-300.706 -13.417)" fill="#fafafa"/>
      <path id="Path_3822" data-name="Path 3822" d="M362.773,261.486c-.2,0-.343-.646-.343-1.451s.145-1.464.343-1.464.343.66.343,1.464S362.958,261.486,362.773,261.486Z" transform="translate(-294.238 -12.35)" fill="#fafafa"/>
      <path id="Path_3823" data-name="Path 3823" d="M354.848,272.184c-.185,0-.4-.792-.462-1.807s0-1.834.211-1.847.409.792.475,1.807S355.032,272.171,354.848,272.184Z" transform="translate(-296.814 -9.17)" fill="#fafafa"/>
      <path id="Path_3824" data-name="Path 3824" d="M340.851,279.489c-.158.119-.7-.369-1.412-.871s-1.319-.884-1.319-1.069.871-.079,1.675.5S341.009,279.489,340.851,279.489Z" transform="translate(-301.999 -6.317)" fill="#fafafa"/>
      <path id="Path_3825" data-name="Path 3825" d="M365.834,289.354c-.158-.106,0-.673.449-1.319s.858-1.016,1.016-.91,0,.686-.449,1.319S365.993,289.459,365.834,289.354Z" transform="translate(-293.171 -3.24)" fill="#fafafa"/>
      <path id="Path_3826" data-name="Path 3826" d="M350.083,292.758c-.185,0-.343-1.095-.343-2.427s.158-2.441.343-2.441.343,1.095.343,2.441A5.148,5.148,0,0,1,350.083,292.758Z" transform="translate(-298.29 -2.99)" fill="#fafafa"/>
      <path id="Path_3827" data-name="Path 3827" d="M345.475,303.282c-.106.145-.792-.158-1.53-.7s-1.319-1.095-1.148-1.253.8.158,1.544.7S345.594,303.124,345.475,303.282Z" transform="translate(-300.516 1.288)" fill="#fafafa"/>
      <path id="Path_3828" data-name="Path 3828" d="M361.372,306.723c.079.172-.343.528-.95.8s-1.161.343-1.24.172.356-.528.963-.8S361.306,306.551,361.372,306.723Z" transform="translate(-295.278 2.993)" fill="#fafafa"/>
      <path id="Path_3829" data-name="Path 3829" d="M350.6,326.193c-.158.079-.844-.937-1.517-2.282s-1.082-2.507-.91-2.638.858.937,1.517,2.282A6.578,6.578,0,0,1,350.6,326.193Z" transform="translate(-298.803 7.664)" fill="#fafafa"/>
      <path id="Path_3830" data-name="Path 3830" d="M367.682,324.186c-.172-.092.132-.976.66-1.992s1.121-1.755,1.319-1.662-.132.976-.673,1.992S367.84,324.279,367.682,324.186Z" transform="translate(-292.577 7.429)" fill="#fafafa"/>
      <path id="Path_3831" data-name="Path 3831" d="M360.109,339.912c-.2,0-.172-1.069-.383-2.309s-.528-2.23-.343-2.322.818.844,1.029,2.216S360.294,339.952,360.109,339.912Z" transform="translate(-295.229 12.138)" fill="#fafafa"/>
      <path id="Path_3832" data-name="Path 3832" d="M352.214,348.293c-.132.132-.792-.369-1.464-1.108s-1.108-1.438-.963-1.57.792.369,1.464,1.108S352.359,348.161,352.214,348.293Z" transform="translate(-298.284 15.432)" fill="#fafafa"/>
      <path id="Path_3833" data-name="Path 3833" d="M371.765,351.66c-.132-.132.356-.844,1.095-1.6s1.425-1.24,1.57-1.108-.356.858-1.082,1.6S371.91,351.792,371.765,351.66Z" transform="translate(-291.265 16.498)" fill="#fafafa"/>
      <path id="Path_3834" data-name="Path 3834" d="M360.214,365.313c-.185,0-.185-1.042,0-2.256s.475-2.164.673-2.137.185,1.029,0,2.243S360.4,365.34,360.214,365.313Z" transform="translate(-294.99 20.325)" fill="#fafafa"/>
      <path id="Path_3835" data-name="Path 3835" d="M352.889,371.5c-.172.092-.752-.594-1.319-1.53s-.857-1.768-.7-1.86.739.58,1.319,1.517S353.047,371.4,352.889,371.5Z" transform="translate(-297.942 22.618)" fill="#fafafa"/>
      <path id="Path_3836" data-name="Path 3836" d="M371.987,378.8c.119.158-.554.831-1.5,1.5s-1.781,1.095-1.9.937.567-.831,1.5-1.5S371.881,378.652,371.987,378.8Z" transform="translate(-292.278 26.023)" fill="#fafafa"/>
      <path id="Path_3837" data-name="Path 3837" d="M355.539,390.5c-.185-.066,0-1.121.172-2.441s.066-2.4.264-2.427.541,1.082.409,2.493S355.71,390.577,355.539,390.5Z" transform="translate(-296.463 28.213)" fill="#fafafa"/>
      <path id="Path_3838" data-name="Path 3838" d="M362.251,405.035c-.158.119-.712-.33-1.253-1s-.844-1.319-.7-1.438.7.33,1.24,1S362.4,404.916,362.251,405.035Z" transform="translate(-294.93 33.623)" fill="#fafafa"/>
      <path id="Path_3839" data-name="Path 3839" d="M355.594,415.524c-.158.105-.884-.673-1.623-1.755s-1.2-2.032-1.055-2.137.884.673,1.623,1.755S355.753,415.419,355.594,415.524Z" transform="translate(-297.284 36.511)" fill="#fafafa"/>
      <path id="Path_3840" data-name="Path 3840" d="M373.78,402.321c-.172-.066-.158-.554,0-1.082s.515-.924.7-.858.158.554,0,1.095S373.965,402.4,373.78,402.321Z" transform="translate(-290.655 32.92)" fill="#fafafa"/>
      <path id="Path_3841" data-name="Path 3841" d="M365.461,427.06c-.172-.092.158-1.029.422-2.2s.356-2.164.554-2.177.4,1.055.119,2.322S365.62,427.165,365.461,427.06Z" transform="translate(-293.286 40.041)" fill="#fafafa"/>
      <path id="Path_3842" data-name="Path 3842" d="M371.171,272.107c-.172.079-.594-.449-.937-1.187s-.488-1.4-.317-1.478.594.449.937,1.187S371.369,272.028,371.171,272.107Z" transform="translate(-291.871 -8.882)" fill="#fafafa"/>
      <path id="Path_3843" data-name="Path 3843" d="M357.89,240.327c.106.158-.818.9-1.807,1.952s-1.662,2.032-1.834,1.939.277-1.319,1.319-2.4S357.758,240.156,357.89,240.327Z" transform="translate(-296.862 -18.183)" fill="#fafafa"/>
      <path id="Path_3844" data-name="Path 3844" d="M369.749,240.831c-.2,0-.5-.752-.963-1.649s-.884-1.636-.739-1.768.857.449,1.319,1.451S369.92,240.726,369.749,240.831Z" transform="translate(-292.455 -19.109)" fill="#fafafa"/>
      <path id="Path_3845" data-name="Path 3845" d="M330.846,251c-.172-.079,0-.95.409-1.952s.857-1.781,1.042-1.7,0,.937-.409,1.952S331.07,251.062,330.846,251Z" transform="translate(-304.342 -15.936)" fill="#fafafa"/>
      <path id="Path_3846" data-name="Path 3846" d="M332.791,265.805c-.132.145-.884-.277-1.689-.95s-1.319-1.319-1.24-1.478.884.277,1.689.95S332.909,265.66,332.791,265.805Z" transform="translate(-304.638 -10.825)" fill="#fafafa"/>
      <path id="Path_3847" data-name="Path 3847" d="M357.6,228.914c-.172,0-.541-.422-.8-1.095s-.343-1.319-.172-1.319.541.422.8,1.095S357.77,228.848,357.6,228.914Z" transform="translate(-296.122 -22.588)" fill="#fafafa"/>
      <path id="Path_3848" data-name="Path 3848" d="M381.562,236.534c-.185,0-.172-.831,0-1.768s.515-1.675.7-1.636.172.844,0,1.781S381.747,236.574,381.562,236.534Z" transform="translate(-288.173 -20.472)" fill="#fafafa"/>
      <path id="Path_3849" data-name="Path 3849" d="M387.223,248.143c-.172-.079.066-1.055.541-2.2s.989-2.005,1.161-1.939,0,1.055-.528,2.2S387.408,248.209,387.223,248.143Z" transform="translate(-286.341 -17.002)" fill="#fafafa"/>
      <path id="Path_3850" data-name="Path 3850" d="M383.7,257.421c-.172.079-.8-.831-1.412-2.032s-.95-2.269-.778-2.348.792.831,1.4,2.032S383.872,257.329,383.7,257.421Z" transform="translate(-288.161 -14.116)" fill="#fafafa"/>
      <path id="Path_3851" data-name="Path 3851" d="M391.837,266.347c-.172-.066,0-.831.29-1.7s.752-1.53.937-1.464,0,.831-.29,1.7S392.074,266.413,391.837,266.347Z" transform="translate(-284.872 -10.879)" fill="#fafafa"/>
      <path id="Path_3852" data-name="Path 3852" d="M384.391,275.084c-.158.106-.567-.251-.9-.778s-.488-1.055-.317-1.161.554.251.9.792S384.549,274.991,384.391,275.084Z" transform="translate(-287.637 -7.703)" fill="#fafafa"/>
      <path id="Path_3853" data-name="Path 3853" d="M386.5,294.081c-.132.119-.963-.528-1.834-1.478s-1.464-1.807-1.319-1.939.963.528,1.834,1.478S386.643,293.949,386.5,294.081Z" transform="translate(-287.568 -2.109)" fill="#fafafa"/>
      <path id="Path_3854" data-name="Path 3854" d="M396.534,283.367c-.145.119-.871-.541-1.609-1.491s-1.214-1.794-1.069-1.913.871.554,1.609,1.491S396.693,283.261,396.534,283.367Z" transform="translate(-284.214 -5.524)" fill="#fafafa"/>
      <path id="Path_3855" data-name="Path 3855" d="M401.462,298.31c-.172-.079.132-1.069.673-2.2s1.108-2.005,1.319-1.926-.119,1.082-.66,2.216S401.633,298.4,401.462,298.31Z" transform="translate(-281.793 -0.983)" fill="#fafafa"/>
      <path id="Path_3856" data-name="Path 3856" d="M390.378,310.192c-.172.092-.778-.633-1.623-1.412s-1.623-1.319-1.544-1.517,1.082.158,2.005,1.016S390.536,310.1,390.378,310.192Z" transform="translate(-286.329 3.178)" fill="#fafafa"/>
      <path id="Path_3857" data-name="Path 3857" d="M391.055,322.083c0,.185-.66.343-1.464.343s-1.451-.158-1.451-.343.646-.343,1.451-.343S391.055,321.9,391.055,322.083Z" transform="translate(-286.031 7.817)" fill="#fafafa"/>
      <path id="Path_3858" data-name="Path 3858" d="M402.531,319.442c-.172-.092.172-.923.422-1.952s.356-1.926.554-1.939.409.95.119,2.1S402.676,319.547,402.531,319.442Z" transform="translate(-281.451 5.841)" fill="#fafafa"/>
      <path id="Path_3859" data-name="Path 3859" d="M415,323.764c-.172.066-.66-.871-1.082-2.071s-.62-2.23-.449-2.282.673.857,1.095,2.058S415.18,323.7,415,323.764Z" transform="translate(-277.966 7.072)" fill="#fafafa"/>
      <path id="Path_3860" data-name="Path 3860" d="M412.688,341.032c-.158-.092.251-1.2.91-2.48s1.319-2.243,1.517-2.15-.237,1.2-.91,2.467S412.86,341.151,412.688,341.032Z" transform="translate(-278.205 12.495)" fill="#fafafa"/>
      <path id="Path_3861" data-name="Path 3861" d="M402.1,351.055c-.172.066-.712-.844-1.214-2.045s-.752-2.23-.567-2.309.712.844,1.2,2.045S402.267,351.055,402.1,351.055Z" transform="translate(-282.163 15.784)" fill="#fafafa"/>
      <path id="Path_3862" data-name="Path 3862" d="M390.021,353.993c0,.185-.554.343-1.227.343s-1.214-.158-1.214-.343.554-.343,1.214-.343S390.021,353.808,390.021,353.993Z" transform="translate(-286.21 18.004)" fill="#fafafa"/>
      <path id="Path_3863" data-name="Path 3863" d="M396.689,370.881c-.172,0-.541-.726-.818-1.728s-.33-1.873-.145-1.913.541.726.818,1.728S396.874,370.776,396.689,370.881Z" transform="translate(-283.643 22.342)" fill="#fafafa"/>
      <path id="Path_3864" data-name="Path 3864" d="M387.594,365.19c-.158-.092,0-.712.435-1.385s.871-1.135,1.029-1.042,0,.726-.435,1.4S387.766,365.3,387.594,365.19Z" transform="translate(-286.224 20.909)" fill="#fafafa"/>
      <path id="Path_3865" data-name="Path 3865" d="M387.559,383.313c-.185,0-.449-.884-.58-2.032s-.092-2.084.092-2.111.449.884.58,2.032S387.744,383.286,387.559,383.313Z" transform="translate(-286.426 26.151)" fill="#fafafa"/>
    </g>
  </g>
</svg>
