<svg xmlns="http://www.w3.org/2000/svg" width="159.261" height="116" viewBox="0 0 159.261 116">
  <g id="Group_172" data-name="Group 172" transform="translate(-172.285 -60)">
    <path id="Path_1" data-name="Path 1" d="M35.967,2.631a4.636,4.636,0,0,1-.877,2.725A3.822,3.822,0,0,1,32.8,6.892a2.537,2.537,0,0,1-1.566-.345A2.851,2.851,0,0,0,29.7,6.265a25.061,25.061,0,0,0-7.737,2.193c-3.822,1.692-6.265,2.725-7.487,3.133-.188,3.133-.282,6.265-.282,9.554s0,6.484.282,9.742a5.012,5.012,0,0,0,1.222.094,19.579,19.579,0,0,0,5.2-1.222,13.783,13.783,0,0,1,5.263-.814c1.034,0,1.5.533,1.41,1.284a5.858,5.858,0,0,1-3.509,4.48c-1.942.658-3.853,1.316-5.8,2.036a23.842,23.842,0,0,0-3.665.72v3.383c0,1.253,0,3.133.188,5.451a51.459,51.459,0,0,1,0,5.451,22.429,22.429,0,0,1-1.911,10.181,1.347,1.347,0,0,1-1.253.846,2.631,2.631,0,0,1-1.754-.846A3.916,3.916,0,0,1,8.65,60.146a19.735,19.735,0,0,1-.689-5.388,58.743,58.743,0,0,1,.5-7.268,29.415,29.415,0,0,0,0-7.236,2.1,2.1,0,0,0-1.41-1.566,7.362,7.362,0,0,1-2.161-1.1,8.646,8.646,0,0,1,0-3.133,1.441,1.441,0,0,0,1.441-.6,1.566,1.566,0,0,1,1.159-.752h.564A43.637,43.637,0,0,0,8.9,25.061c0-1.065-.188-4.918-.564-11.622a5.639,5.639,0,0,1-2.631-1.754A3.978,3.978,0,0,1,4.39,8.959c0-1.253.846-1.974,2.537-2.224a90.564,90.564,0,0,0,12.75-3.822A45.516,45.516,0,0,1,32.8,0a3.7,3.7,0,0,1,2.224.72,2.255,2.255,0,0,1,.94,1.911Z" transform="translate(167.895 60)" fill="#92278f"/>
    <path id="Path_2" data-name="Path 2" d="M38.491,7.323a71.17,71.17,0,0,1-7.675,2.631,65.784,65.784,0,0,0-7.675,2.6,40.724,40.724,0,0,0-.908,8.677,6.641,6.641,0,0,0,2.6.439,21.427,21.427,0,0,0,3.289-.345,22.837,22.837,0,0,1,3.321-.376,6.265,6.265,0,0,1,3.383.877,5.67,5.67,0,0,1,1,1.942,1.034,1.034,0,0,1-.5.846,5.889,5.889,0,0,0-1,1.034,1.566,1.566,0,0,1-1.41.6,26.6,26.6,0,0,1-5.419.439,15.318,15.318,0,0,0-5.263.908,38.845,38.845,0,0,0-1.347,8.74,8.583,8.583,0,0,0,.564,3.446,18.232,18.232,0,0,0,11.465,2.1,1.942,1.942,0,0,0,1.222-.564,1.723,1.723,0,0,1,1.034-.564c1.316-.282,2.193.752,2.631,3.133a3.133,3.133,0,0,1-.407,2.193,2.067,2.067,0,0,1-1.723,1.1,49.525,49.525,0,0,1-14.786-1.441,7.3,7.3,0,0,1-3.728-2.287A6.829,6.829,0,0,1,15.341,39.4a51.594,51.594,0,0,1,0-11.653c-1.316-.94-1.911-1.88-1.786-2.757s.439-.877,1.1-1.253,1.065-.752,1.159-1.159.282-2.757.564-7.111c-2.631-.533-3.916-1.6-3.853-3.133a3.947,3.947,0,0,1,2.443-3.446l4.511-1.942A33.268,33.268,0,0,1,26.023,4.41c2.318-.658,4.6-1.284,6.923-1.88h.846A8.677,8.677,0,0,1,38.24,4.1a10.839,10.839,0,0,0,.345,1.128,4.1,4.1,0,0,1,.282,1.19A1.128,1.128,0,0,1,38.491,7.323Z" transform="translate(185.231 65.396)" fill="#92278f"/>
    <path id="Path_3" data-name="Path 3" d="M41.864,37.744s-2.851,2.13-8.27,6.265a49.308,49.308,0,0,1-8.364,5.325,1.692,1.692,0,0,1-.846.219,2.318,2.318,0,0,1-1.848-1.347l-1.316-1.88c0-4.386.157-10.494.752-18.357s1.065-14.347,1.065-18.044a59.209,59.209,0,0,0-.282-7.2,3.133,3.133,0,0,1,2.318-.971c1.786,0,2.819.72,3.133,2.1,0,4.1,0,10.212-.5,18.357s-.658,14.285-.564,18.388a34.457,34.457,0,0,0,5.169-3.133A43.857,43.857,0,0,1,37.29,34.11l1.253-.157a9.178,9.178,0,0,1,1.284,0A2.193,2.193,0,0,1,41.9,35.175a2.6,2.6,0,0,1-.031,2.569Z" transform="translate(203.787 63.732)" fill="#92278f"/>
    <path id="Path_4" data-name="Path 4" d="M48.984,37.744s-2.819,2.13-8.239,6.265a49.308,49.308,0,0,1-8.364,5.325,1.692,1.692,0,0,1-.846.219,2.318,2.318,0,0,1-1.848-1.347l-1.347-1.88c0-4.386.188-10.494.783-18.357s1.065-14.347,1.065-18.044a59.207,59.207,0,0,0-.282-7.2,3.133,3.133,0,0,1,2.318-.971c1.786,0,2.819.72,3.133,2.1q.235,6.156-.5,18.357c-.5,8.145-.658,14.285-.564,18.388a34.457,34.457,0,0,0,5.169-3.133,43.859,43.859,0,0,1,4.981-3.352l1.253-.157a9.178,9.178,0,0,1,1.284,0,2.13,2.13,0,0,1,2.036,1.222,2.506,2.506,0,0,1-.031,2.569Z" transform="translate(218.971 63.732)" fill="#92278f"/>
    <path id="Path_5" data-name="Path 5" d="M76.244,4.9a2.631,2.631,0,0,1,1.629,2.412,7.173,7.173,0,0,1-.846,2.819A26.1,26.1,0,0,0,75.9,12.822a117.067,117.067,0,0,0-3.133,16.853,123.426,123.426,0,0,1-3.133,16.6c-.282,1-1.1,1.472-2.412,1.472a3.884,3.884,0,0,1-1.629-.345,8.583,8.583,0,0,1-3.728-5.545c0-.251-.5-2.757-1.347-7.487-.407-2.506-.814-5.169-1.19-8.019a58.767,58.767,0,0,0-2.6,10.4A19.986,19.986,0,0,1,53.408,45.9c-.376.407-1.034.439-1.974.157a3.383,3.383,0,0,1-2.819-2.694l-.846-4.2a113.212,113.212,0,0,1-2-16.759,104.409,104.409,0,0,0-2.13-16.571,2.506,2.506,0,0,1,.219-1.723,1.5,1.5,0,0,1,1.065-.94,4.667,4.667,0,0,1,1.128,0,3.352,3.352,0,0,1,3.133,1.88q1.128,6.265,2.663,24.466a28.568,28.568,0,0,0,1.347-4.887,28.383,28.383,0,0,1,1.441-5.043c.407-1.88.814-3.79,1.19-5.67s1.754-3.446,3.54-3.446a5.67,5.67,0,0,1,1.535.219c0,.313.251.47.627.533s.6,0,.658.219A38.593,38.593,0,0,1,64.5,21.248c.783,5.764,1.284,9.116,1.472,10.024.752-4.448,1.535-8.865,2.318-13.251a52.187,52.187,0,0,1,3.822-12.53,2.036,2.036,0,0,1,2.036-.971,4.354,4.354,0,0,1,2.1.376Z" transform="translate(251.449 66.695)" fill="#92278f"/>
    <path id="Path_6" data-name="Path 6" d="M36.849,47.945a45.391,45.391,0,0,0-2.475,12.342c-.219,4.229-.439,8.489-.627,12.718,0,1.253-.877,1.88-2.318,1.88a3.132,3.132,0,0,1-1.19-.251,4.949,4.949,0,0,1-3.133-5.012,26.5,26.5,0,0,1,.282-3.133,26.249,26.249,0,0,0,.282-3.133c.188-1.441.407-3.634.689-6.516A31.514,31.514,0,0,1,17.4,64.109a5.325,5.325,0,0,1-1.692.282A7.612,7.612,0,0,1,9.69,60.507a8.991,8.991,0,0,1-1.535-5.388,23.119,23.119,0,0,1,1.19-6.641,84.267,84.267,0,0,1,11.9-23.714C24.068,20.911,26.48,19,28.611,19s2.945.752,3.133,2.224a2.381,2.381,0,0,1-1.19,2.694,25.312,25.312,0,0,0-2.6,1.6,74.962,74.962,0,0,0-10.87,17.95A30.637,30.637,0,0,0,13.95,55.651c0,.658,0,1.284,0,1.942a1.974,1.974,0,0,1,.407.721c.188.407.47.564.783.407A63.184,63.184,0,0,0,29.174,48.478a8.9,8.9,0,0,0,1.6-3.446,2.6,2.6,0,0,1,2.537-2.1c-.376,0,0,0,1.128-.157.564,0,.94,0,1.128.313a6.735,6.735,0,0,1,1.347,3.446A4.041,4.041,0,0,1,36.849,47.945Z" transform="translate(175.909 100.519)" fill="#ec008c"/>
    <path id="Path_7" data-name="Path 7" d="M44.232,25.554a71.172,71.172,0,0,1-7.675,2.631,65.786,65.786,0,0,0-7.675,2.6,40.724,40.724,0,0,0-.908,8.677,6.641,6.641,0,0,0,2.6.439,22.083,22.083,0,0,0,3.133-.376,26.783,26.783,0,0,1,3.321-.345,6.265,6.265,0,0,1,3.383.877,5.67,5.67,0,0,1,1,1.942,1.034,1.034,0,0,1-.5.846,5.889,5.889,0,0,0-1,1.034,1.566,1.566,0,0,1-1.41.6,26.6,26.6,0,0,1-5.419.439,15.444,15.444,0,0,0-5.263.908,38.845,38.845,0,0,0-1.347,8.74,8.583,8.583,0,0,0,.564,3.446,18.232,18.232,0,0,0,11.465,2.1,1.942,1.942,0,0,0,1.222-.564,1.723,1.723,0,0,1,1.034-.564c1.316-.282,2.193.752,2.631,3.133a3.133,3.133,0,0,1-.407,2.193,2.067,2.067,0,0,1-1.723,1.1A49.527,49.527,0,0,1,26.47,63.96a7.3,7.3,0,0,1-3.6-2.318A6.829,6.829,0,0,1,21.051,57.6a51.6,51.6,0,0,1,0-11.653c-1.316-.94-1.911-1.88-1.786-2.757s.439-.877,1.1-1.253,1.065-.752,1.159-1.159.282-2.757.564-7.111c-2.631-.533-3.916-1.6-3.853-3.133a3.947,3.947,0,0,1,2.443-3.446l4.511-1.942a33.612,33.612,0,0,1,6.578-2.537c2.287-.658,4.574-1.284,6.892-1.88H39.5A8.677,8.677,0,0,1,43.95,22.3a10.837,10.837,0,0,0,.345,1.128,4.1,4.1,0,0,1,.282,1.19,1.128,1.128,0,0,1-.345.94Z" transform="translate(197.409 104.209)" fill="#ec008c"/>
    <path id="Path_8" data-name="Path 8" d="M56.073,20.764Q55.1,30.788,54.162,40.875c-.783,7.988-1.19,14.629-1.19,19.986V66.03a2.945,2.945,0,0,1-2.819,3.133c-1.472,0-2.694-1.034-3.665-3.133A276.6,276.6,0,0,1,35.523,36.552a.433.433,0,0,0-.345-.47c-.125,0-.533.376-.627,1.065A198.224,198.224,0,0,0,33.331,59.67c0,3.79,0,7.643.282,11.591a3.133,3.133,0,0,1-1.19,3.133,1.472,1.472,0,0,1-1.065.533,3.133,3.133,0,0,1-1.253-.439L28.757,73.8q-.877-.282-1.128-1.786V69.538c-.157-2.788-.219-5.7-.219-8.74q0-7.925.846-19.829c.908-12.06,1.378-18.8,1.472-20.049s.908-1.66,2.6-1.66c.814,0,1.974.533,3.54,1.88a122.484,122.484,0,0,1,5.576,14.817,106.508,106.508,0,0,0,5.764,14.88q1.1-9.962,3.321-30.073c0-1,.814-1.5,2.036-1.5a7.3,7.3,0,0,1,1.472.219l1.347.376A1.566,1.566,0,0,1,56.073,20.764Z" transform="translate(216.987 101.074)" fill="#ec008c"/>
    <path id="Path_9" data-name="Path 9" d="M45.815,18.7v4.48c0,3.383-.345,8.521-1,15.35s-.971,12-.971,15.475v3.822a2.569,2.569,0,0,1-2.757,2c-2,0-3.133-1-3.133-2.757a52.1,52.1,0,0,1-.282-5.545,143.13,143.13,0,0,1,1.159-15.193,150.734,150.734,0,0,0,1.159-15.1V17.414A2.475,2.475,0,0,1,42.4,16a5.169,5.169,0,0,1,2.663.814A.783.783,0,0,1,45.5,16.6a1.318,1.318,0,0,1,.188.752,4.949,4.949,0,0,0,0,1.034A.626.626,0,0,0,45.815,18.7Z" transform="translate(238.868 94.117)" fill="#8dc63f"/>
    <path id="Path_10" data-name="Path 10" d="M67.4,22.322a94.353,94.353,0,0,1-2.819,14c-2.13,7.831-3.352,12.53-3.665,14.222A36.213,36.213,0,0,1,55,64.3a7.487,7.487,0,0,1-6.265,3.884c-2.13,0-3.7-1.472-4.73-4.26a46.237,46.237,0,0,1-2.694-16.54,128.656,128.656,0,0,1,1-14.034,35.5,35.5,0,0,1,0-4.668c0-3.133,1.128-4.636,3.383-4.636a3.133,3.133,0,0,1,1.5.439l1.6.846c0,2.537,0,6.265-.219,11.215S48.23,45.66,48.23,48.01s0,4.762.188,6.8A48.492,48.492,0,0,0,49.7,60.791a25.061,25.061,0,0,0,4.636-9.4q.564-1.911,2.255-10.619a50.622,50.622,0,0,1,3.133-10.306,16.351,16.351,0,0,0,.846-3.978,14.91,14.91,0,0,1,.846-4.041,2.694,2.694,0,0,1,2.663-1.786A3.884,3.884,0,0,1,67.4,22.322Z" transform="translate(246.602 104.057)" fill="#ec008c"/>
    <path id="Path_11" data-name="Path 11" d="M65.563,21.946c0,1-.689,1.88-2.036,2.631a1.441,1.441,0,0,1-1.19,0L61.272,24.3a1.128,1.128,0,0,0-.846.439,13.846,13.846,0,0,0-3.79,9.868,12.154,12.154,0,0,0,.627,4.041c.188.564,1.974,4.417,5.357,11.591A29.885,29.885,0,0,1,66,62.419a17.514,17.514,0,0,1-1.912,7.959,11.622,11.622,0,0,1-3.132,3.13,6.453,6.453,0,0,1-3.665,1.566,3.666,3.666,0,0,1-1.19-.219c-1.41-.658-2.13-1.472-2.13-2.475a3.6,3.6,0,0,1,1.065-2.161,1.88,1.88,0,0,1,1.347-.47,1.5,1.5,0,0,0,1.41-.877,16.54,16.54,0,0,0,1.472-6.735,36.087,36.087,0,0,0-4.542-14.1,36.119,36.119,0,0,1-4.542-14.786,18.8,18.8,0,0,1,1.692-8.145,11.841,11.841,0,0,1,5.388-5.545,7.079,7.079,0,0,1,3.133-.814,5.545,5.545,0,0,1,4.448,1.723A2.475,2.475,0,0,1,65.563,21.946Z" transform="translate(265.544 99.954)" fill="#ec008c"/>
    <ellipse id="Ellipse_1" data-name="Ellipse 1" cx="12.906" cy="13.689" rx="12.906" ry="13.689" transform="translate(268.831 77.699)" fill="#8dc63f"/>
  </g>
</svg>
