<svg xmlns="http://www.w3.org/2000/svg" width="640.166" height="478.49" viewBox="0 0 640.166 478.49">
  <g id="Forgot_password-pana" data-name="Forgot password-pana" transform="translate(-41.536 -161.85)">
    <g id="freepik--Floor--inject-88" transform="translate(47.283 622.143)">
      <path id="Path_4092" data-name="Path 4092" d="M620.388,469.33c0,.21-128.724.39-287.487.39s-287.532-.18-287.532-.39,128.709-.39,287.532-.39S620.388,469.12,620.388,469.33Z" transform="translate(-45.37 -468.94)" fill="#263238"/>
    </g>
    <g id="freepik--Character--inject-88" transform="translate(61.536 241.657)">
      <path id="Path_4093" data-name="Path 4093" d="M348.79,433.4l37.1,53.945,13.265.315L374.841,432.19Z" transform="translate(91.749 -106.788)" fill="#263238"/>
      <path id="Path_4094" data-name="Path 4094" d="M94.125,434.83,74.58,485.792h9.773l34.13-50.737Z" transform="translate(-45.051 -105.471)" fill="#263238"/>
      <path id="Path_4095" data-name="Path 4095" d="M82,333.182l1.5,65.951a17.417,17.417,0,0,0,17.027,17.042l369.011,8.214a17.432,17.432,0,0,0,17.822-17.432V327.517a46.93,46.93,0,0,0-40.47-46.466c-67.555-9.293-206.847-23.577-319.488-3.283A55.114,55.114,0,0,0,82,333.182Z" transform="translate(-41.354 -188.981)" fill="#8dc63f"/>
      <path id="Path_4096" data-name="Path 4096" d="M93.911,329.184s-30.4-14.075-36.618,0,.764,31.342,7.6,40.965,6.8,128.515,6.8,128.515l461.028-4.931,5.456-114.32s22.109-27.235,20.73-38.971-20.04-28.824-41.459-11.3-26.98,54.14-26.98,54.14L122.9,386.052S124.159,334.625,93.911,329.184Z" transform="translate(-54.88 -161.945)" fill="#8dc63f"/>
      <path id="Path_4097" data-name="Path 4097" d="M463.8,378.13c0,.21-81.674.39-182.4.39S99,378.385,99,378.13s81.644-.39,182.4-.39S463.8,377.95,463.8,378.13Z" transform="translate(-32.869 -133.952)" fill="#263238"/>
      <path id="Path_4098" data-name="Path 4098" d="M108.708,454.26a1.125,1.125,0,0,1,0-.36v-1.064q0-1.409-.09-4.092V433.755c0-12.681.09-30.2-.495-49.463a210.247,210.247,0,0,0-2.1-27.1c-.27-.989-.54-1.979-.794-3a18.4,18.4,0,0,0-1.139-2.788c-.794-1.814-1.6-3.552-2.488-5.186A55.246,55.246,0,0,0,96,337.6a40.021,40.021,0,0,0-6-6,32.569,32.569,0,0,0-5.381-3.477,54.429,54.429,0,0,0-5.081-2.038h.345l1.034.285a22.136,22.136,0,0,1,3.837,1.5,29.556,29.556,0,0,1,5.516,3.4,39.122,39.122,0,0,1,6.115,6,54.319,54.319,0,0,1,5.756,8.664c.914,1.649,1.739,3.387,2.548,5.216.4.914.779,1.859,1.154,2.8l.854,3a202.354,202.354,0,0,1,2.173,27.235c.585,19.336.39,36.858.27,49.538-.09,6.28-.165,11.392-.21,14.989v5.141C108.708,454.125,108.708,454.26,108.708,454.26Z" transform="translate(-42.577 -159.72)" fill="#263238"/>
      <path id="Path_4099" data-name="Path 4099" d="M79.878,344.624a2.158,2.158,0,0,1,1.214-.375,5.156,5.156,0,0,1,3.387.944,5.275,5.275,0,0,1,1.649,1.874,4.571,4.571,0,0,1,.435,2.848,5.591,5.591,0,0,1-4.3,4.647,5.7,5.7,0,0,1-5.7-2.713,5.156,5.156,0,0,1-.734-2.788,5.756,5.756,0,0,1,3.253-4.886,2.623,2.623,0,0,1,1.244-.315c0,.075-.435.18-1.109.585a5.771,5.771,0,0,0-2.173,2.428,4.616,4.616,0,0,0,.18,4.5,5.036,5.036,0,0,0,4.946,2.323,4.931,4.931,0,0,0,3.732-3.942,4.242,4.242,0,0,0-1.709-4.152,5.037,5.037,0,0,0-3-1.094A10.578,10.578,0,0,1,79.878,344.624Z" transform="translate(-44.428 -150.855)" fill="#263238"/>
      <path id="Path_4100" data-name="Path 4100" d="M81.326,370.755a7.09,7.09,0,0,1-2.083-2.458,14.734,14.734,0,0,1-.18-14.989,7.3,7.3,0,0,1,2.024-2.518c.1.09-.674,1.034-1.5,2.773a15.933,15.933,0,0,0-1.679,7.255,16.113,16.113,0,0,0,1.844,7.225C80.621,369.751,81.445,370.68,81.326,370.755Z" transform="translate(-43.793 -147.397)" fill="#263238"/>
      <path id="Path_4101" data-name="Path 4101" d="M77.184,334.42a12.65,12.65,0,0,1-.45,2.248,13.82,13.82,0,0,0,2.188,10.3,17.064,17.064,0,0,1,1.334,1.859,6.613,6.613,0,0,1-1.784-1.5,12.126,12.126,0,0,1-2.338-10.792,4.782,4.782,0,0,1,1.049-2.113Z" transform="translate(-44.478 -155.564)" fill="#263238"/>
      <path id="Path_4102" data-name="Path 4102" d="M70.71,345.484c.18-.15,1.574,1.259,3.7,2.353s4.062,1.5,4.032,1.679a6.58,6.58,0,0,1-4.392-.989,6.7,6.7,0,0,1-3.343-3.043Z" transform="translate(-46.982 -150.05)" fill="#263238"/>
      <path id="Path_4103" data-name="Path 4103" d="M529.445,411.73c0,.21-103.978.39-232.238.39S65,411.94,65,411.73s103.963-.39,232.328-.39S529.445,411.5,529.445,411.73Z" transform="translate(-49.831 -117.19)" fill="#263238"/>
      <path id="Path_4104" data-name="Path 4104" d="M341.44,363.05c.225,0,.39,16.278.39,36.348s-.165,36.378-.39,36.378-.39-16.278-.39-36.378S341.23,363.05,341.44,363.05Z" transform="translate(87.887 -141.281)" fill="#263238"/>
      <path id="Path_4105" data-name="Path 4105" d="M313.226,279.195h-.719l-2.1.075-8.049.225-29.648.689-97.787,1.964c-9.548.225-18.886.195-27.849.794a94.053,94.053,0,0,0-25.376,4.632,44.788,44.788,0,0,0-19.216,12.7,42.3,42.3,0,0,0-6,8.694,55.547,55.547,0,0,0-3.672,8.993,84.893,84.893,0,0,0-3,16.488c-.465,4.946-.51,9.218-.54,12.726s0,6.205.1,8.049v2.1a15.04,15.04,0,0,0-.12-2.1c-.09-1.829-.21-4.5-.24-8.049s0-7.794.4-12.771a84.746,84.746,0,0,1,3-16.653,56.328,56.328,0,0,1,3.657-9.158,42.179,42.179,0,0,1,6-8.873,45.4,45.4,0,0,1,19.486-12.89,93.532,93.532,0,0,1,25.481-4.722c8.993-.6,18.346-.585,27.894-.809l97.8-1.739,29.633-.435,8.064-.09h2.1Z" transform="translate(-37.85 -183.198)" fill="#263238"/>
      <path id="Path_4106" data-name="Path 4106" d="M161.4,313.569a8.3,8.3,0,0,0-1.259.824,6.85,6.85,0,0,0-2.323,3.253,5.756,5.756,0,0,0,.824,5.561A6,6,0,0,0,169.6,320.6a5.816,5.816,0,0,0-1.769-5.351,6.9,6.9,0,0,0-3.537-1.844c-.944-.165-1.5-.1-1.5-.165a2.892,2.892,0,0,1,1.5-.135,6.985,6.985,0,0,1,5.621,4.182,6.175,6.175,0,0,1,.345,3.447,6.76,6.76,0,0,1-12.231,2.908,6.205,6.205,0,0,1-1.244-3.223,6.955,6.955,0,0,1,.465-3,6.79,6.79,0,0,1,2.668-3.312A3,3,0,0,1,161.4,313.569Z" transform="translate(-4.048 -166.22)" fill="#263238"/>
      <path id="Path_4107" data-name="Path 4107" d="M156.193,347.922a18.135,18.135,0,0,1-1.139-4.5,25.481,25.481,0,0,1,.24-11.062,15.139,15.139,0,0,1,6.46-8.9,10.117,10.117,0,0,1,3.133-1.274,3,3,0,0,1,1.229-.12,19.142,19.142,0,0,0-4.077,1.859,15.379,15.379,0,0,0-6,8.649,27.984,27.984,0,0,0-.45,10.762C155.954,346.183,156.313,347.892,156.193,347.922Z" transform="translate(-5.15 -161.736)" fill="#263238"/>
      <path id="Path_4108" data-name="Path 4108" d="M160.813,298.009a35.115,35.115,0,0,0-2.2,3.3,13.13,13.13,0,0,0,3.852,16.907,32.569,32.569,0,0,0,3.432,2.024,2.758,2.758,0,0,1-1.079-.225,11.635,11.635,0,0,1-2.668-1.349,13.04,13.04,0,0,1-4.032-17.657,11.422,11.422,0,0,1,1.829-2.368C160.453,298.114,160.783,297.9,160.813,298.009Z" transform="translate(-4.314 -173.742)" fill="#263238"/>
      <path id="Path_4109" data-name="Path 4109" d="M163.6,318.017a75.376,75.376,0,0,0-8.124,1.829,77.811,77.811,0,0,0-7.584,3.447A21.689,21.689,0,0,1,163.6,318.017Z" transform="translate(-8.478 -163.773)" fill="#263238"/>
      <g id="Group_303" data-name="Group 303" transform="translate(106.691 226.644)" opacity="0.3">
        <path id="Path_4110" data-name="Path 4110" d="M126.06,385.245a75.334,75.334,0,0,0,50.962,15.364q-5.7,26.425-11.362,52.866c-1,4.691-1.949,9.923.51,14.06,3.447,5.8,11.466,6.37,18.211,6.28,7.494-.1,15.319-.285,21.974-3.762,9.428-4.916,14.494-15.349,18.152-25.331s6.82-20.685,14.344-28.194a58.457,58.457,0,0,0,33.2,18.9c3.747.69,8,.9,11-1.5s3.852-6.625,3.088-10.342a31.026,31.026,0,0,0-4.9-10.177L259.3,379.384c-3-4.6-6.205-9.458-11.227-11.646-3.942-1.724-8.409-1.5-12.7-1.3a585.935,585.935,0,0,0-106.226,16.053" transform="translate(-126.06 -366.302)"/>
      </g>
      <g id="Group_304" data-name="Group 304" transform="translate(75.64 75.448)" opacity="0.3">
        <path id="Path_4111" data-name="Path 4111" d="M253.638,266.884c-8.873,23.443-41.969,28.824-53.645,50.962-11.5,21.944,2.758,50.962-9.083,72.786-4.392,8.064-11.991,14.075-16.218,22.2-2.878,5.456-4.362,11.991-8.993,16.023-5.426,4.721-13.835,4.632-20.355,1.574s-11.526-8.544-16.173-14.045c-8.694-10.312-16.862-21.464-20.984-34.339-6.985-22.139-.57-47.185,13.49-65.681s34.879-30.982,56.868-38.461,45.251-10.3,68.379-12.471" transform="translate(-105.344 -265.43)"/>
      </g>
      <path id="Path_4112" data-name="Path 4112" d="M133.18,230.347a36.423,36.423,0,0,1,13.49-12.456,23.863,23.863,0,0,1,17.987-1.814,17.867,17.867,0,0,1,11.991,12.95c.944,4.811-.345,10.177,2.143,14.4,2.848,4.856,9.728,6.385,12.156,11.481a11.077,11.077,0,0,1-.734,9.788,30.443,30.443,0,0,1-6.58,7.7,16.113,16.113,0,0,1,4.107,3.687,5.591,5.591,0,0,1,.869,5.246,7.7,7.7,0,0,1-4.5,3.6,44.293,44.293,0,0,1-26.515,2.488c-2.368-.51-5.081-1.154-7.03.285" transform="translate(-15.817 -215.094)" fill="#263238"/>
      <path id="Path_4113" data-name="Path 4113" d="M178.608,240.443,173.8,255.117l32.766,18.6-32.976,1.064,2.458,26.725,63.478-15.588s3.807-25.886-60.915-45.476l-4.5-1.079a5.141,5.141,0,0,1-3.612-3.133h0a5.561,5.561,0,0,0-2.7-2.893l-5.411-2.818v4.287l3,3.492-.48,8.289a7.494,7.494,0,0,0,5.756,7.824l3,.7" transform="translate(-1.244 -207.399)" fill="#b78876"/>
      <path id="Path_4114" data-name="Path 4114" d="M137.722,279.07c-1.3,0-13.4,3-20.325,11.751S100.46,332.7,100.46,332.7l25.481,4.407,11,27.624s65.127-8.529,61.664-11.991a133.6,133.6,0,0,0-10.492-8.708L203.1,294.1l17.987-9.713-6.07-24.941-36.228,4.9Z" transform="translate(-32.14 -192.966)" fill="#fafafa"/>
      <path id="Path_4115" data-name="Path 4115" d="M197.048,290.4c0,.21-20.31.39-45.341.39s-45.356-.18-45.356-.39,20.31-.39,45.356-.39S197.048,290.19,197.048,290.4Z" transform="translate(-29.202 -177.72)" fill="#8dc63f"/>
      <path id="Path_4116" data-name="Path 4116" d="M194.338,300.19c0,.21-20.31.39-45.341.39s-45.356-.18-45.356-.39,20.295-.39,45.356-.39S194.338,299.98,194.338,300.19Z" transform="translate(-30.554 -172.836)" fill="#8dc63f"/>
      <path id="Path_4117" data-name="Path 4117" d="M187.014,310.76c0,.225-15.379.4-34.355.4s-34.34-.18-34.34-.4,15.379-.39,34.34-.39S187.014,310.55,187.014,310.76Z" transform="translate(-23.23 -167.562)" fill="#8dc63f"/>
      <path id="Path_4118" data-name="Path 4118" d="M190.519,320.95c0,.21-15.379.39-34.34.39s-34.34-.18-34.34-.39,15.364-.39,34.34-.39S190.519,320.725,190.519,320.95Z" transform="translate(-21.474 -162.479)" fill="#8dc63f"/>
      <path id="Path_4119" data-name="Path 4119" d="M193.611,277.23c0,.225-10.162.39-22.678.39s-22.693-.165-22.693-.39,10.147-.39,22.693-.39S193.611,277.08,193.611,277.23Z" transform="translate(-8.303 -184.29)" fill="#8dc63f"/>
      <path id="Path_4120" data-name="Path 4120" d="M194.656,266.763c0,.225-10.117.63-22.588.914s-22.618.36-22.618.15,10.1-.63,22.588-.929S194.656,266.553,194.656,266.763Z" transform="translate(-7.7 -189.382)" fill="#8dc63f"/>
      <path id="Path_4121" data-name="Path 4121" d="M122.876,295.35a99.753,99.753,0,0,1-2.443,12.261,101.923,101.923,0,0,1-3.193,12.1,101.933,101.933,0,0,1,2.428-12.261,96.962,96.962,0,0,1,3.208-12.1Z" transform="translate(-23.769 -175.056)" fill="#263238"/>
      <path id="Path_4122" data-name="Path 4122" d="M174.616,420.21,155.64,480.061l22.873,2.308,21.494-52.011Z" transform="translate(-4.612 -112.765)" fill="#b78876"/>
      <path id="Path_4123" data-name="Path 4123" d="M193.374,449.363l-10.9,26.98s23.8,20.16,22.273,25.346l-53.151-19.2,15.244-42.808Z" transform="translate(-6.627 -103.051)" fill="#455a64"/>
      <path id="Path_4124" data-name="Path 4124" d="M162.591,458.665a2.308,2.308,0,0,0-2.4,1.934,2.218,2.218,0,0,0,1.889,2.4,2.443,2.443,0,0,0,2.533-2.054c0-1.139-1.124-2.443-2.248-2.278" transform="translate(-2.345 -93.587)" fill="#e0e0e0"/>
      <path id="Path_4125" data-name="Path 4125" d="M151.6,469.657l1.709-4.257,50.333,20.055s1.994,1.874,1.109,3.447Z" transform="translate(-6.627 -90.22)" fill="#e0e0e0"/>
      <path id="Path_4126" data-name="Path 4126" d="M174.794,464.463c-.1.255-1.5-.09-3,.27s-2.653,1.229-2.848,1.034.719-1.5,2.638-1.964S174.929,464.238,174.794,464.463Z" transform="translate(2.015 -91.082)" fill="#263238"/>
      <path id="Path_4127" data-name="Path 4127" d="M177.627,467.174c0,.285-1.319.315-2.593,1.094s-1.9,1.784-2.2,1.784.1-1.634,1.709-2.563S177.717,466.934,177.627,467.174Z" transform="translate(3.919 -89.475)" fill="#263238"/>
      <path id="Path_4128" data-name="Path 4128" d="M176.538,473.562c-.255,0-.15-1.5,1.034-2.638s2.608-1.3,2.638-1.049-1,.749-1.949,1.724S176.808,473.637,176.538,473.562Z" transform="translate(5.757 -88.039)" fill="#263238"/>
      <path id="Path_4129" data-name="Path 4129" d="M175.876,460.635c-.195.195-1.259-.6-2.758-1.034s-2.818-.375-2.878-.645,1.394-.809,3.148-.27S176.131,460.47,175.876,460.635Z" transform="translate(2.672 -93.684)" fill="#263238"/>
      <path id="Path_4130" data-name="Path 4130" d="M177.782,458.508a5.381,5.381,0,0,1-2.653-.974,12.08,12.08,0,0,1-2.473-1.874,10.945,10.945,0,0,1-1.244-1.364,3.433,3.433,0,0,1-.57-.914,1.2,1.2,0,0,1,.375-1.424,1.5,1.5,0,0,1,1.349-.18,4.376,4.376,0,0,1,.959.495,10.387,10.387,0,0,1,1.5,1.169,10.06,10.06,0,0,1,1.874,2.5,4.676,4.676,0,0,1,.779,2.728c-.15,0-.45-.989-1.364-2.383a11.017,11.017,0,0,0-1.889-2.188,8.8,8.8,0,0,0-1.364-1.034c-.51-.345-.989-.525-1.214-.33s-.1.12,0,.315a3.345,3.345,0,0,0,.435.675,16.583,16.583,0,0,0,1.109,1.319,17.022,17.022,0,0,0,2.218,1.919,18.95,18.95,0,0,1,2.174,1.544Z" transform="translate(2.924 -97.058)" fill="#263238"/>
      <path id="Path_4131" data-name="Path 4131" d="M175.162,458.992a4.5,4.5,0,0,1,.24-2.833,9.083,9.083,0,0,1,2.683-4.152,2.353,2.353,0,0,1,2.173-.734,1.364,1.364,0,0,1,.854,1.154,3.491,3.491,0,0,1-.09,1.079,6.159,6.159,0,0,1-.645,1.784,6.4,6.4,0,0,1-2.128,2.338c-1.5,1-2.743.929-2.728.824a21.915,21.915,0,0,0,2.323-1.364,6.505,6.505,0,0,0,1.754-2.2,6.149,6.149,0,0,0,.51-1.5c.12-.585.075-1.124-.165-1.139a2.029,2.029,0,0,0-1.244.54,9,9,0,0,0-1.184,1.2,10.792,10.792,0,0,0-1.5,2.473C175.4,457.928,175.327,459.007,175.162,458.992Z" transform="translate(5.065 -97.287)" fill="#263238"/>
      <path id="Path_4132" data-name="Path 4132" d="M216.35,387.818l28.329,49.238,23.173-14.869L239.4,372.2Z" transform="translate(25.676 -136.716)" fill="#b78876"/>
      <path id="Path_4133" data-name="Path 4133" d="M253.337,396.16,267.981,421.4s30.517-6.415,33.68-2.023l-47.844,30.128L229.4,411.149Z" transform="translate(32.186 -124.763)" fill="#455a64"/>
      <path id="Path_4134" data-name="Path 4134" d="M244.587,418.029a2.293,2.293,0,0,0,0,3.073,2.218,2.218,0,0,0,3,0,2.443,2.443,0,0,0-.075-3.268,2.323,2.323,0,0,0-3.178.375" transform="translate(39.468 -114.181)" fill="#e0e0e0"/>
      <path id="Path_4135" data-name="Path 4135" d="M246.458,442.183l-2.308-3.957,46.735-27.4s2.713-.42,3.417,1.229Z" transform="translate(39.545 -117.47)" fill="#e0e0e0"/>
      <path id="Path_4136" data-name="Path 4136" d="M256.546,412.509c.135.24-.959,1.079-1.634,2.548s-.675,2.848-.944,2.893-.779-1.5,0-3.3S256.456,412.254,256.546,412.509Z" transform="translate(44.236 -116.635)" fill="#263238"/>
      <path id="Path_4137" data-name="Path 4137" d="M260.351,411.771c.195.195-.57,1.229-.734,2.728s.255,2.668,0,2.8-1.214-1.079-.974-3S260.2,411.561,260.351,411.771Z" transform="translate(46.756 -116.991)" fill="#263238"/>
      <path id="Path_4138" data-name="Path 4138" d="M264.715,416.289c-.195.195-1.244-.764-1.5-2.428s.57-2.848.794-2.728,0,1.244.165,2.608S264.925,416.124,264.715,416.289Z" transform="translate(49.033 -117.297)" fill="#263238"/>
      <path id="Path_4139" data-name="Path 4139" d="M254.513,408.956c0,.285-1.244.63-2.5,1.5s-2.023,1.978-2.278,1.859.225-1.589,1.724-2.653S254.513,408.7,254.513,408.956Z" transform="translate(42.297 -118.463)" fill="#263238"/>
      <path id="Path_4140" data-name="Path 4140" d="M253.933,405.881a5.85,5.85,0,0,1-2.4,1.5,13.907,13.907,0,0,1-3,.81,17.781,17.781,0,0,1-1.844.135,3.7,3.7,0,0,1-1.079-.12,1.2,1.2,0,0,1-.884-1.169,1.5,1.5,0,0,1,.69-1.184,4.165,4.165,0,0,1,.974-.435,9.817,9.817,0,0,1,4.931-.375c1.769.33,2.7.974,2.638,1.064s-1.049-.255-2.713-.39a11.661,11.661,0,0,0-2.908.15,10.173,10.173,0,0,0-1.634.435c-.6.195-1.034.465-1.019.764s0,.15.225.24a3,3,0,0,0,.794.075,15.2,15.2,0,0,0,4.587-.644,18.807,18.807,0,0,1,2.638-.854Z" transform="translate(39.834 -120.41)" fill="#263238"/>
      <path id="Path_4141" data-name="Path 4141" d="M252.063,408.881c0,.09-1.049-.465-2.1-1.919a8.994,8.994,0,0,1-1.319-2.833,9.9,9.9,0,0,1-.315-1.829,2.353,2.353,0,0,1,.779-2.173,1.319,1.319,0,0,1,1.409,0,3.884,3.884,0,0,1,.809.719,6.957,6.957,0,0,1,1.019,1.619,6.565,6.565,0,0,1,.525,3.118c-.15,1.829-.944,2.728-1.019,2.653a23.563,23.563,0,0,0,.345-2.668,6.521,6.521,0,0,0-.66-2.728,5.724,5.724,0,0,0-.914-1.364c-.39-.45-.839-.749-1-.57a1.589,1.589,0,0,0-.345,1.3,9.864,9.864,0,0,0,.225,1.679,10.116,10.116,0,0,0,1.049,2.683C251.359,408.042,252.168,408.761,252.063,408.881Z" transform="translate(41.614 -122.885)" fill="#263238"/>
      <path id="Path_4142" data-name="Path 4142" d="M180.1,404.429,235.737,366.6l35.089,68.3,31.9-17.282s-36.738-89.634-49.928-92.481c-7.39-1.619-92.137,14.554-92.137,14.554l-9.473-4.752L127.2,332.018l-1.5,3.882a81.809,81.809,0,0,0,2.668,66.131l1.169,2.383Z" transform="translate(-22.4 -160.252)" fill="#263238"/>
      <path id="Path_4143" data-name="Path 4143" d="M149.27,358.738c.42,1.874,46.466,44.967,46.466,44.967l-26.53,89.169,39.6,7.569,39.765-107.41-72.681-71.3-33.26,13.895Z" transform="translate(-11.102 -161.895)" fill="#263238"/>
      <path id="Path_4144" data-name="Path 4144" d="M215.729,352.751c.12.18-12.246,8.784-27.595,19.231S160.225,390.748,160.09,390.6s12.231-8.8,27.595-19.246S215.594,352.571,215.729,352.751Z" transform="translate(-2.392 -146.42)" fill="#455a64"/>
      <path id="Path_4145" data-name="Path 4145" d="M225.764,408.314a13.13,13.13,0,0,1-1.349-2.053c-.824-1.349-1.964-3.343-3.358-5.8-2.773-4.931-6.46-11.826-10.357-19.486s-7.345-14.719-9.758-19.83c-1.214-2.563-2.173-4.647-2.818-6.086a12.5,12.5,0,0,1-.914-2.278,16.483,16.483,0,0,1,1.2,2.143l3,6c2.608,5.171,6.1,12.081,9.953,19.74s7.494,14.614,10.147,19.605c1.274,2.413,2.338,4.407,3.148,5.921a15.476,15.476,0,0,1,1.109,2.128Z" transform="translate(16.127 -146.405)" fill="#455a64"/>
      <path id="Path_4146" data-name="Path 4146" d="M186.638,365.78a71.327,71.327,0,0,1-4.257,9.563,71.26,71.26,0,0,1-4.961,9.2,140.72,140.72,0,0,1,9.218-18.766Z" transform="translate(6.254 -139.919)" fill="#455a64"/>
      <path id="Path_4147" data-name="Path 4147" d="M103.653,308.32,94.66,341.535a17.327,17.327,0,0,0,1.5,12.786h0a17.417,17.417,0,0,0,19.261,8.709l71.272-17.552L179.2,330.668l-56.148,4.871,6-22.813Z" transform="translate(-35.333 -168.585)" fill="#b78876"/>
      <path id="Path_4148" data-name="Path 4148" d="M121.55,368.531l.929-4.826,38.626-6.94,11.227-59.551,71.737-8.544-12.051,63.568Z" transform="translate(-21.619 -178.388)" fill="#455a64"/>
      <path id="Path_4149" data-name="Path 4149" d="M178.208,318.463a4.047,4.047,0,1,1,4.152-3.283,3.762,3.762,0,0,1-4.152,3.283Z" transform="translate(4.717 -167.561)" fill="#ebebeb"/>
      <path id="Path_4150" data-name="Path 4150" d="M128.55,229.11l.135,4.3,1.619,64.452c.195,7.494,6.775,13.28,14.779,13.01h0c8.094-.255,14.6-6.6,14.539-14.165-.075-7.929,0-16.293,0-16.293s10.207-1.814,12.171-15.184c.974-6.64.51-17.522-.15-26.41a14.09,14.09,0,0,0-15.693-12.95Z" transform="translate(-18.126 -209.765)" fill="#b78876"/>
      <path id="Path_4151" data-name="Path 4151" d="M154.983,239.971a1.724,1.724,0,0,1-1.634,1.754,1.634,1.634,0,0,1-1.769-1.5,1.724,1.724,0,0,1,1.619-1.754A1.649,1.649,0,0,1,154.983,239.971Z" transform="translate(-6.637 -203.435)" fill="#263238"/>
      <path id="Path_4152" data-name="Path 4152" d="M158.036,238.9c-.21.225-1.5-.719-3.357-.7s-3.178.974-3.387.749.12-.51.7-.944a4.721,4.721,0,0,1,2.7-.869,4.632,4.632,0,0,1,2.683.824C157.946,238.434,158.141,238.794,158.036,238.9Z" transform="translate(-6.813 -204.101)" fill="#263238"/>
      <path id="Path_4153" data-name="Path 4153" d="M142.868,240.406a1.709,1.709,0,0,1-1.634,1.754,1.649,1.649,0,0,1-1.784-1.5,1.709,1.709,0,0,1,1.634-1.739,1.634,1.634,0,0,1,1.784,1.484Z" transform="translate(-12.689 -203.21)" fill="#263238"/>
      <path id="Path_4154" data-name="Path 4154" d="M145.967,239.269c-.21.225-1.5-.719-3.358-.7s-3.178.974-3.387.749.1-.51.689-.944a4.766,4.766,0,0,1,2.713-.869,4.586,4.586,0,0,1,2.668.824C145.862,238.759,146.072,239.164,145.967,239.269Z" transform="translate(-12.835 -203.916)" fill="#263238"/>
      <path id="Path_4155" data-name="Path 4155" d="M148.594,252.829a12.337,12.337,0,0,1,3-.57c.48,0,.914-.15.989-.48a2.339,2.339,0,0,0-.33-1.379l-1.424-3.567a61.361,61.361,0,0,1-3.238-9.323,58.454,58.454,0,0,1,3.972,8.993l1.379,3.582a2.8,2.8,0,0,1,.27,1.844,1.214,1.214,0,0,1-.764.7,3.414,3.414,0,0,1-.809.12A11.766,11.766,0,0,1,148.594,252.829Z" transform="translate(-8.628 -203.911)" fill="#263238"/>
      <path id="Path_4156" data-name="Path 4156" d="M155.267,263.757a33.9,33.9,0,0,1-17.987-4.5s4.5,9.113,17.777,7.7Z" transform="translate(-13.771 -193.061)" fill="#aa6550"/>
      <path id="Path_4157" data-name="Path 4157" d="M147,237.165c-.195.495-2.024.18-4.2.33s-3.942.675-4.212.21c-.12-.225.21-.675.929-1.124a6.924,6.924,0,0,1,3.163-.944,7.074,7.074,0,0,1,3.253.525C146.712,236.521,147.087,236.941,147,237.165Z" transform="translate(-13.131 -204.856)" fill="#263238"/>
      <path id="Path_4158" data-name="Path 4158" d="M157.374,234.624c-.33.42-1.6,0-3.118,0s-2.818.315-3.118-.12,0-.63.615-1.034a4.5,4.5,0,0,1,5.036.1C157.329,234.054,157.509,234.489,157.374,234.624Z" transform="translate(-6.916 -206.286)" fill="#263238"/>
      <path id="Path_4159" data-name="Path 4159" d="M150.151,253.66a3.118,3.118,0,0,1-1.6-.165l-1.5-.42c-.42-.135-.884-.33-1.409-.525a3,3,0,0,1-1.379-.824c-.315-.4-.255-1.124.465-1.769a3.882,3.882,0,0,1,6,1.994C151.035,252.9,150.646,253.525,150.151,253.66Z" transform="translate(-10.379 -198.073)" fill="#aa6550"/>
      <path id="Path_4160" data-name="Path 4160" d="M150.68,253.12c-.18.135-1.079-1.709-3.238-2.263a7.854,7.854,0,0,0-3.912.435,2.23,2.23,0,0,1,.974-.854,4.527,4.527,0,0,1,5.726,1.469C150.695,252.581,150.77,253.09,150.68,253.12Z" transform="translate(-10.653 -197.698)" fill="#263238"/>
      <path id="Path_4161" data-name="Path 4161" d="M153.956,222.78a16.8,16.8,0,0,1-2.413,20.984c-3.193,3-7.944,5.291-8.259,9.638-.36,4.811,5.216,8.409,5.216,13.235s-5.711,8.124-6.835,12.965c-.9,3.9,1.5,7.794,4.137,10.747s6,5.561,7.494,9.218a16.368,16.368,0,0,1-.45,12.845,40.606,40.606,0,0,1-7.494,10.777A50.618,50.618,0,0,0,133,320.447c.255-1.589.525-3.193.794-4.782a4.392,4.392,0,0,1-3.223,4.047,11.825,11.825,0,0,1-5.516.075,89.694,89.694,0,0,1-16.488-4.242,29.663,29.663,0,0,0,6-7.494,10,10,0,0,0,.165-9.293c-1.319-2.248-3.747-3.687-4.961-6-1.814-3.447-.315-7.824,2.263-10.747s6.085-4.826,9.158-7.225,5.891-5.636,6.13-9.533c.33-5.036-3.762-9.638-3.253-14.659.57-5.726,6.625-9.233,8.993-14.479,1.724-3.792,1.5-8.469,4.137-11.691a10.058,10.058,0,0,1,8.289-3.3,18.647,18.647,0,0,1,8.634,3" transform="translate(-28.094 -212.099)" fill="#263238"/>
      <path id="Path_4162" data-name="Path 4162" d="M150.618,268.324c-2.4,1.319-2.263,4.991-.794,7.315s3.822,3.987,5.276,6.325a10.372,10.372,0,0,1-2.443,13.22l5.756,2.173,1.259-.7,3.537-2.009-1.664,4.092h3.687a10.492,10.492,0,0,0,8.664-16.713c-1.5-2.1-3.867-3.762-4.392-6.3-.615-3.073,1.709-5.846,2.833-8.753a12.366,12.366,0,0,0-4.017-13.985" transform="translate(-8.044 -196.189)" fill="#263238"/>
    </g>
    <g id="freepik--speech-bubble--inject-88" transform="translate(41.536 161.85)">
      <path id="Path_4163" data-name="Path 4163" d="M78.6,182.355a2.023,2.023,0,0,1,1.124,1.814v9.983a1.993,1.993,0,0,1-.794,1.589,1.948,1.948,0,0,1-1.754.33,6.31,6.31,0,0,0-4.886.749,5.591,5.591,0,0,0-2.668,3.567,5.7,5.7,0,0,0,1.019,4.362,6.445,6.445,0,0,0,4.122,2.728,7.494,7.494,0,0,0,7.854-5.081,2,2,0,1,1,3.807,1.214,11.526,11.526,0,0,1-12.291,7.824,10.252,10.252,0,0,1-6.79-4.407,9.773,9.773,0,0,1-1.649-7.494,9.623,9.623,0,0,1,4.5-6.175,10.492,10.492,0,0,1,5.5-1.5v-7.689A2.008,2.008,0,0,1,77.7,182.16a2.113,2.113,0,0,1,.9.195Z" transform="translate(-29.568 -151.718)" fill="#8dc63f"/>
      <path id="Path_4164" data-name="Path 4164" d="M72.41,180.044a1.634,1.634,0,1,1,.5,1.152,1.634,1.634,0,0,1-.5-1.152Z" transform="translate(-26.134 -153.603)" fill="#8dc63f"/>
      <path id="Path_4165" data-name="Path 4165" d="M106.749,215.173a3.263,3.263,0,0,0-1.319.42,6,6,0,0,0-2.728,2.353,5.666,5.666,0,0,0-.854,2.368,4.961,4.961,0,0,0,.495,2.818,5.5,5.5,0,0,0,10.312-.6,4.961,4.961,0,0,0,.165-2.863,6,6,0,0,0-1.124-2.263,6.145,6.145,0,0,0-3-2.039c-.854-.24-1.364-.21-1.364-.255h.36a2.594,2.594,0,0,1,.45,0,3.089,3.089,0,0,1,.585.09,6,6,0,0,1,3.238,2.009,5.86,5.86,0,0,1,1.244,2.368,5.276,5.276,0,0,1-.135,3,6.206,6.206,0,0,1-1.919,2.8,5.831,5.831,0,0,1-3.373,1.394,5.89,5.89,0,0,1-3.507-.989,6.206,6.206,0,0,1-2.248-2.548,5.456,5.456,0,0,1-.495-3,6,6,0,0,1,.959-2.5,6.1,6.1,0,0,1,3-2.383,4.5,4.5,0,0,1,.585-.165,1.769,1.769,0,0,1,.435-.075A.931.931,0,0,1,106.749,215.173Z" transform="translate(-11.624 -135.282)" fill="#263238"/>
      <path id="Path_4166" data-name="Path 4166" d="M115.879,224.844a4.963,4.963,0,0,0-.809.3,3.852,3.852,0,0,0-1.724,1.5,3.253,3.253,0,0,0-.21,3.208,3.4,3.4,0,0,0,6.37-.375,3.238,3.238,0,0,0-.585-3.163,3.837,3.837,0,0,0-1.889-1.289c-.525-.165-.839-.15-.839-.195a1.753,1.753,0,0,1,.884,0,3.927,3.927,0,0,1,2.878,2.773,3.522,3.522,0,0,1,0,1.964,3.777,3.777,0,0,1-7.09.42,3.328,3.328,0,0,1-.315-1.949,3.762,3.762,0,0,1,.615-1.589,3.852,3.852,0,0,1,1.919-1.5,1.844,1.844,0,0,1,.794-.1Z" transform="translate(-6.124 -130.459)" fill="#263238"/>
      <path id="Path_4167" data-name="Path 4167" d="M134.293,212.033v-4.587c0-.6-.09-1.244-.135-1.949s-.1-1.5-.18-2.278a7.272,7.272,0,0,0-.165-1.244l-.225-1.319a44.443,44.443,0,0,0-4.152-12.666,46.076,46.076,0,0,0-10.627-13.925l-1.874-1.634c-.66-.51-1.364-.989-2.053-1.5l-1.064-.749a6.444,6.444,0,0,0-1.079-.719l-2.308-1.394c-.39-.225-.764-.465-1.169-.675l-1.244-.57-2.5-1.139c-.869-.36-1.769-.63-2.653-.944l-1.349-.465-.689-.225-.7-.165a44.963,44.963,0,0,0-5.756-1.124c-.989-.1-1.994-.285-3-.345l-3-.09h-1.5l-1.5.12c-1.049.09-2.1.12-3.133.255a48.771,48.771,0,0,0-6.28,1.319l-1.574.45a2.554,2.554,0,0,0-.779.225l-.764.3-3.088,1.2c-1,.45-1.994.989-3,1.5-.495.27-1,.48-1.5.779l-1.5.914a50.826,50.826,0,0,0-5.561,4.032L55.661,175.8l-.645.6-.585.66L53.278,178.4l-1.169,1.319-1.049,1.5-1.034,1.5-.525.734c-.165.255-.315.51-.465.764l-1.814,3.133c-.495,1.094-1,2.188-1.5,3.3a45.641,45.641,0,0,0-2.263,29.018l.989,3.507,1.3,3.358.33.839.4.794.809,1.6.794,1.574.959,1.5.944,1.5.465.734.54.689,2.143,2.758a51.189,51.189,0,0,0,4.871,4.841l1.274,1.124c.42.375.9.675,1.349,1,.914.645,1.8,1.334,2.728,1.934l2.848,1.589.7.42.749.345,1.5.674a49.582,49.582,0,0,0,6,2.278c1.019.3,2.053.495,3,.749l1.5.36c.51.1,1.019.135,1.5.21l3,.39c1,.1,2.009,0,3,.12a42.354,42.354,0,0,0,5.876-.21h.719l.7-.12,1.409-.24c.929-.18,1.859-.3,2.758-.525l2.668-.734,1.319-.36,1.259-.495,2.473-.959a7.718,7.718,0,0,0,1.184-.54l1.169-.585c.764-.39,1.5-.749,2.263-1.154l2.1-1.334a45.761,45.761,0,0,0,12.726-12.156c.375-.525.764-1.034,1.124-1.5l.929-1.589.9-1.5c.15-.255.3-.495.435-.749s.225-.525.345-.779l1.349-2.908c.39-.929.66-1.874.974-2.728l.45-1.274a7.66,7.66,0,0,0,.345-1.2l.54-2.233c.15-.69.33-1.319.435-1.9s.15-1.124.225-1.6c.12-.959.225-1.679.3-2.188s.12-.734.12-.734v.749l-.27,2.188a14.07,14.07,0,0,1-.195,1.6c-.075.585-.27,1.229-.42,1.919s-.33,1.5-.51,2.233a7.374,7.374,0,0,1-.345,1.214c-.15.42-.285.839-.435,1.274-.315.869-.57,1.814-.974,2.758s-.869,1.9-1.319,3l-.36.779c-.12.255-.285.51-.42.764-.3.495-.6,1.019-.9,1.5s-.615,1.064-.929,1.619-.749,1.034-1.124,1.574a45.956,45.956,0,0,1-12.786,12.081l-2.113,1.349c-.734.4-1.5.779-2.278,1.169l-1.154.6a8.621,8.621,0,0,1-1.2.54l-2.5.974-1.259.495-1.319.375-2.683.749c-.914.225-1.859.345-2.788.525l-1.424.255-.7.12H93.1a42.766,42.766,0,0,1-5.906.24,24.814,24.814,0,0,1-3-.12l-3-.39a6.029,6.029,0,0,1-1.5-.225l-1.5-.345c-1.019-.255-2.068-.45-3.088-.749a46.206,46.206,0,0,1-6-2.293l-1.5-.674-.749-.345-.719-.42-2.893-1.679c-.929-.6-1.829-1.3-2.743-1.949-.465-.345-.944-.645-1.364-1.019l-1.289-1.124a50.408,50.408,0,0,1-5.141-4.916L50.55,235.88l-.54-.7-.48-.749-.944-1.5-.959-1.5-.809-1.589-.824-1.619-.4-.809-.36-.884c-.45-1.124-.884-2.263-1.319-3.387s-.66-2.353-1-3.537a46.181,46.181,0,0,1,2.323-29.258l1.5-3.343c.615-1.049,1.229-2.1,1.829-3.148.165-.255.3-.525.465-.779l.525-.734,1.064-1.5,1.049-1.5,1.184-1.349,1.169-1.334L54.6,176l.645-.615,2.563-2.413a50.231,50.231,0,0,1,5.621-4.047l1.5-.914c.48-.315,1-.525,1.5-.794,1-.495,1.994-1.049,3-1.5l3.118-1.214.779-.3.779-.225,1.589-.435a47.473,47.473,0,0,1,6.325-1.319c1.064-.135,2.113-.18,3.163-.27l1.5-.1h1.5l3.088.09a24.8,24.8,0,0,1,3,.36,40.472,40.472,0,0,1,5.8,1.154l.719.165a2.382,2.382,0,0,1,.675.225l1.364.465c.9.33,1.814.585,2.668.944l2.7,1.319,1.244.57,1.184.674,2.308,1.349a9.3,9.3,0,0,1,1.094.734l1.064.764c.689.51,1.409.989,2.068,1.5l1.889,1.649a46.226,46.226,0,0,1,10.687,14.1,43.8,43.8,0,0,1,4.107,12.741c.075.45.15.9.225,1.319a9.577,9.577,0,0,1,.15,1.259c0,.809.12,1.574.165,2.278s.1,1.364.12,1.964,0,1.139,0,1.634v2.2Z" transform="translate(-41.536 -161.85)" fill="#263238"/>
    </g>
    <g id="freepik--Plant--inject-88" transform="translate(578.021 340.712)">
      <path id="Path_4168" data-name="Path 4168" d="M442.242,526.728a4.413,4.413,0,0,0-.255-.615c-.21-.435-.48-1-.824-1.754a43.223,43.223,0,0,1-2.413-7.03,62.1,62.1,0,0,1,.195-27.13,148.4,148.4,0,0,1,5.036-18.241c2.128-6.46,4.617-13.325,6.625-20.745a80.253,80.253,0,0,0,3.283-23.877c-.315-8.439-2.8-16.862-5.561-25.256s-5.576-16.608-6.43-24.867a37.952,37.952,0,0,1,4.5-22.963c3.642-6.7,8.214-12.441,11.646-18.376a64.241,64.241,0,0,0,7-17.657,65.951,65.951,0,0,0,.435-27.37,51.44,51.44,0,0,0-2.848-9.668,3.743,3.743,0,0,0,.165.645c.15.465.33,1.079.585,1.859a71.921,71.921,0,0,1,1.769,7.225,66.6,66.6,0,0,1-.7,27.16,63.3,63.3,0,0,1-7.03,17.447c-3.418,5.861-8,11.571-11.721,18.346A38.6,38.6,0,0,0,441,377.3c.854,8.394,3.7,16.668,6.445,25.046s5.216,16.728,5.531,25.017a79.862,79.862,0,0,1-3.193,23.622c-1.993,7.39-4.5,14.254-6.55,20.745a144.5,144.5,0,0,0-4.946,18.346c-2.308,11.422-1.649,21.074.075,27.34a41.317,41.317,0,0,0,2.578,7.015l.914,1.724A3.13,3.13,0,0,0,442.242,526.728Z" transform="translate(-380.83 -281.18)" fill="#263238"/>
      <path id="Path_4169" data-name="Path 4169" d="M450.32,333.362s6.955-22.243-5.531-35.269a.765.765,0,0,0-1.319.39C442.811,302.155,441.971,313.337,450.32,333.362Z" transform="translate(-377.696 -272.867)" fill="#8dc63f"/>
      <path id="Path_4170" data-name="Path 4170" d="M445.13,303a19.9,19.9,0,0,0,.465,4.107c.45,2.833.989,6.145,1.589,9.818s1.109,6.985,1.5,9.8a20.893,20.893,0,0,0,.734,4.062,17.241,17.241,0,0,0-.135-4.137c-.225-2.533-.675-6-1.3-9.878s-1.289-7.285-1.844-9.773a19.078,19.078,0,0,0-1-4Z" transform="translate(-376.673 -270.294)" fill="#263238"/>
      <path id="Path_4171" data-name="Path 4171" d="M449.914,366.056s-4.257-22.9-21.374-28.584a.779.779,0,0,0-.989.959C428.675,341.984,433.171,352.267,449.914,366.056Z" transform="translate(-385.459 -253.115)" fill="#8dc63f"/>
      <path id="Path_4172" data-name="Path 4172" d="M431.31,341.41a20.593,20.593,0,0,0,2.323,3.4l6,7.929c2.233,3,4.242,5.666,6,7.944a24.373,24.373,0,0,0,2.548,3.253,17.985,17.985,0,0,0-2.038-3.6c-1.394-2.143-3.432-5.021-5.786-8.124s-4.5-5.831-6.19-7.779a18.965,18.965,0,0,0-2.848-3.028Z" transform="translate(-383.568 -251.132)" fill="#263238"/>
      <path id="Path_4173" data-name="Path 4173" d="M449.99,406.1s2.593-23.158-12.141-33.56a.779.779,0,0,0-1.229.63C436.665,376.9,437.984,388.036,449.99,406.1Z" transform="translate(-380.919 -235.674)" fill="#8dc63f"/>
      <path id="Path_4174" data-name="Path 4174" d="M439.27,377.17a19.137,19.137,0,0,0,1.244,3.942c.989,2.683,2.143,5.846,3.418,9.323s2.428,6.64,3.4,9.338a21.752,21.752,0,0,0,1.5,3.837,16.85,16.85,0,0,0-.914-4.032c-.7-2.443-1.814-5.8-3.163-9.443s-2.668-6.91-3.672-9.248a19.05,19.05,0,0,0-1.814-3.717Z" transform="translate(-379.597 -233.292)" fill="#263238"/>
      <path id="Path_4175" data-name="Path 4175" d="M441.78,444.526s1.754-23.248-13.34-33.11a.765.765,0,0,0-1.2.674C427.42,415.807,429.129,426.9,441.78,444.526Z" transform="translate(-385.599 -216.275)" fill="#8dc63f"/>
      <path id="Path_4176" data-name="Path 4176" d="M430,416a21.961,21.961,0,0,0,1.394,3.9c1.079,2.653,2.353,5.756,3.762,9.188s2.653,6.565,3.732,9.2a19.972,19.972,0,0,0,1.634,3.792,17.862,17.862,0,0,0-1.064-4c-.794-2.413-2.023-5.726-3.507-9.323s-2.908-6.8-4-9.113A17.578,17.578,0,0,0,430,416Z" transform="translate(-384.221 -213.92)" fill="#263238"/>
      <path id="Path_4177" data-name="Path 4177" d="M454.58,318.357s20.655-10.792,21.059-28.824a.779.779,0,0,0-1.214-.66C471.353,291,462.854,298.3,454.58,318.357Z" transform="translate(-371.959 -277.407)" fill="#8dc63f"/>
      <path id="Path_4178" data-name="Path 4178" d="M471.3,293.41a18.634,18.634,0,0,0-2.578,3.223l-5.831,8.049c-2.173,3-4.152,5.726-5.846,8.034a25.488,25.488,0,0,0-2.353,3.388,17.1,17.1,0,0,0,2.848-3c1.634-1.964,3.792-4.751,6-7.914s4.257-6,5.636-8.214A19.834,19.834,0,0,0,471.3,293.41Z" transform="translate(-371.904 -275.078)" fill="#263238"/>
      <path id="Path_4179" data-name="Path 4179" d="M439.78,349.819s21.314-9.548,22.813-27.535a.764.764,0,0,0-1.169-.734C458.186,323.528,449.253,330.3,439.78,349.819Z" transform="translate(-379.342 -261.099)" fill="#8dc63f"/>
      <path id="Path_4180" data-name="Path 4180" d="M457.832,326a20.045,20.045,0,0,0-2.758,3l-6.31,7.674-6.31,7.674a22.749,22.749,0,0,0-2.563,3.238,17.538,17.538,0,0,0,3-2.833c1.754-1.859,4.077-4.5,6.535-7.494s4.617-5.8,6.115-7.854A17.331,17.331,0,0,0,457.832,326Z" transform="translate(-379.287 -258.82)" fill="#263238"/>
      <path id="Path_4181" data-name="Path 4181" d="M447.949,387.668s14.614-18.152,7.764-34.834a.779.779,0,0,0-1.379-.135C452.371,355.876,447.514,365.994,447.949,387.668Z" transform="translate(-375.28 -245.678)" fill="#8dc63f"/>
      <path id="Path_4182" data-name="Path 4182" d="M454.185,357.6a20.31,20.31,0,0,0-1.064,3.987c-.615,2.8-1.319,6.086-2.113,9.713l-2.128,9.7a23.043,23.043,0,0,0-.809,4.047,16.2,16.2,0,0,0,1.394-3.882c.719-2.458,1.589-5.876,2.4-9.668s1.5-7.27,1.859-9.788a18.66,18.66,0,0,0,.465-4.107Z" transform="translate(-375.206 -243.055)" fill="#263238"/>
      <path id="Path_4183" data-name="Path 4183" d="M438.29,427.288s21.1-9.863,22.3-27.864a.764.764,0,0,0-1.169-.7C456.262,400.7,447.448,407.622,438.29,427.288Z" transform="translate(-380.086 -222.6)" fill="#8dc63f"/>
      <path id="Path_4184" data-name="Path 4184" d="M455.977,403.16a20.989,20.989,0,0,0-2.713,3.1l-6.16,7.794c-2.323,2.908-4.407,5.531-6.205,7.764a22.721,22.721,0,0,0-2.488,3.283,17.178,17.178,0,0,0,3-2.878c1.724-1.889,4-4.572,6.4-7.629s4.5-5.876,6-7.959A18.727,18.727,0,0,0,455.977,403.16Z" transform="translate(-380.026 -220.326)" fill="#263238"/>
      <path id="Path_4185" data-name="Path 4185" d="M410.24,356.62v2.008c.075,1.409.15,3.3.255,5.651.27,4.976.66,11.9,1.109,20.19h0c1.5,8.424,5.8,17.777,11.571,26.845,4.227,6.685,8.664,12.77,12.5,18.421a129.266,129.266,0,0,1,9.353,15.483,65.04,65.04,0,0,1,4.392,11.362c.375,1.394.645,2.473.809,3.223a5.167,5.167,0,0,0,.315,1.124,9.226,9.226,0,0,0-.15-1.169c-.1-.749-.33-1.859-.645-3.268a60.476,60.476,0,0,0-4.167-11.542,121.321,121.321,0,0,0-9.248-15.663c-3.792-5.7-8.214-11.781-12.426-18.436-5.726-8.993-10-18.227-11.571-26.53h0c-.585-8.289-1.079-15.2-1.424-20.16-.195-2.353-.345-4.242-.45-5.651,0-.585-.12-1.079-.15-1.5A2.22,2.22,0,0,0,410.24,356.62Z" transform="translate(-394.079 -243.544)" fill="#263238"/>
      <path id="Path_4186" data-name="Path 4186" d="M419.749,403.959s-8.993-21.524,2.308-35.629a.764.764,0,0,1,1.349.27C424.41,372.168,426.314,383.23,419.749,403.959Z" transform="translate(-391.028 -237.852)" fill="#8dc63f"/>
      <path id="Path_4187" data-name="Path 4187" d="M420.41,373.22a18.644,18.644,0,0,0-.7,4.077c-.315,2.518-.674,6-.959,9.908s-.4,7.39-.4,9.953a16.264,16.264,0,0,0,.255,4.122,23.425,23.425,0,0,0,.36-4.107c.195-2.863.42-6.205.66-9.908s.495-7.06.7-9.923A20.885,20.885,0,0,0,420.41,373.22Z" transform="translate(-390.055 -235.262)" fill="#263238"/>
      <g id="Group_305" data-name="Group 305" transform="translate(25.329 130.176)" opacity="0.3">
        <path id="Path_4188" data-name="Path 4188" d="M419.749,403.959s-8.993-21.524,2.308-35.629a.764.764,0,0,1,1.349.27C424.41,372.168,426.314,383.23,419.749,403.959Z" transform="translate(-416.357 -368.028)"/>
      </g>
      <path id="Path_4189" data-name="Path 4189" d="M437.788,438.417s-7.165-22.184,5.186-35.329a.779.779,0,0,1,1.319.375C445,407.135,445.942,418.317,437.788,438.417Z" transform="translate(-381.367 -220.479)" fill="#8dc63f"/>
      <path id="Path_4190" data-name="Path 4190" d="M441.075,408a18.553,18.553,0,0,0-1.034,4c-.525,2.488-1.154,6-1.754,9.788s-1,7.345-1.214,9.893a16.819,16.819,0,0,0,0,4.137,24.194,24.194,0,0,0,.689-4.062c.42-2.833.914-6.16,1.5-9.833s1.064-6.985,1.5-9.818a20.15,20.15,0,0,0,.315-4.107Z" transform="translate(-380.757 -217.911)" fill="#263238"/>
      <g id="Group_306" data-name="Group 306" transform="translate(54.354 182.374)" opacity="0.3">
        <path id="Path_4191" data-name="Path 4191" d="M437.788,438.417s-7.165-22.184,5.186-35.329a.779.779,0,0,1,1.319.375C445,407.135,445.942,418.317,437.788,438.417Z" transform="translate(-435.721 -402.853)"/>
      </g>
      <path id="Path_4192" data-name="Path 4192" d="M416.758,385.082s-19.1-13.37-17.162-31.3a.764.764,0,0,1,1.274-.51C403.688,355.779,411.182,364.127,416.758,385.082Z" transform="translate(-399.458 -245.31)" fill="#8dc63f"/>
      <g id="Group_307" data-name="Group 307" transform="translate(0 107.768)" opacity="0.3">
        <path id="Path_4193" data-name="Path 4193" d="M416.758,385.082s-19.1-13.37-17.162-31.3a.764.764,0,0,1,1.274-.51C403.688,355.779,411.182,364.127,416.758,385.082Z" transform="translate(-399.458 -353.079)"/>
      </g>
      <path id="Path_4194" data-name="Path 4194" d="M401.88,358a18.626,18.626,0,0,0,1.589,3.807c1.079,2.308,2.668,5.456,4.5,8.873s3.627,6.475,4.991,8.619a17.688,17.688,0,0,0,2.428,3.358,21.88,21.88,0,0,0-1.889-3.672c-1.379-2.5-3-5.456-4.766-8.709l-4.736-8.739A20.445,20.445,0,0,0,401.88,358Z" transform="translate(-398.25 -242.855)" fill="#263238"/>
      <path id="Path_4195" data-name="Path 4195" d="M441.731,419.093s-23.023-3.6-29.183-20.535a.764.764,0,0,1,.914-1.019C417,398.558,427.4,402.74,441.731,419.093Z" transform="translate(-392.955 -223.144)" fill="#8dc63f"/>
      <g id="Group_308" data-name="Group 308" transform="translate(19.539 174.368)" opacity="0.3">
        <path id="Path_4196" data-name="Path 4196" d="M441.731,419.093s-23.023-3.6-29.183-20.535a.764.764,0,0,1,.914-1.019C417,398.558,427.4,402.74,441.731,419.093Z" transform="translate(-412.494 -397.511)"/>
      </g>
      <path id="Path_4197" data-name="Path 4197" d="M416.52,401.2a17.98,17.98,0,0,0,3.1,2.728c1.993,1.589,4.8,3.717,7.959,6s6.115,4.212,8.289,5.531a17.268,17.268,0,0,0,3.657,1.949,21.571,21.571,0,0,0-3.328-2.458l-8.109-5.726L420,403.448a21.116,21.116,0,0,0-3.477-2.248Z" transform="translate(-390.946 -221.303)" fill="#263238"/>
      <path id="Path_4198" data-name="Path 4198" d="M464.074,440.18l-6.61,43.318-26.365-.045L422.21,440.18Z" transform="translate(-388.108 -201.857)" fill="#455a64"/>
      <path id="Path_4199" data-name="Path 4199" d="M438.745,452.056a7.359,7.359,0,0,0,1.214-3.627,3.912,3.912,0,0,0-1.784-3.717,4.257,4.257,0,0,0-4.422.36,6.445,6.445,0,0,0-2.518,3.972,16.727,16.727,0,0,0-.33,4.9,15.843,15.843,0,0,0,1.064,4.991,11.017,11.017,0,0,0,3,4.362,8.529,8.529,0,0,0,5.081,2.128,9.339,9.339,0,0,0,5.276-1.5,16.053,16.053,0,0,0,3.942-3.567,8.679,8.679,0,0,0,1.993-4.751,5.561,5.561,0,0,0-1.874-4.6,4.317,4.317,0,0,0-4.676-.285,5.066,5.066,0,0,0-2.7,3.537,6.76,6.76,0,0,0,3.343,6.85,9.279,9.279,0,0,0,6.37.929,14.391,14.391,0,0,0,4.5-1.784,25.062,25.062,0,0,0,2.548-1.709,4.29,4.29,0,0,0,.809-.7,10.108,10.108,0,0,0-.9.585c-.585.375-1.5.959-2.593,1.589a14.705,14.705,0,0,1-4.5,1.619,8.994,8.994,0,0,1-6-.959,6.265,6.265,0,0,1-3-6.3,4.5,4.5,0,0,1,2.4-3.088,3.672,3.672,0,0,1,3.972.24,4.886,4.886,0,0,1,1.6,4.032,8,8,0,0,1-1.874,4.362,15.591,15.591,0,0,1-3.747,3.387,8.679,8.679,0,0,1-4.871,1.424,7.945,7.945,0,0,1-4.647-1.949,10.494,10.494,0,0,1-2.863-4.077,15.271,15.271,0,0,1-1.034-4.781,16.156,16.156,0,0,1,.285-4.692,5.8,5.8,0,0,1,2.233-3.612,3.672,3.672,0,0,1,3.762-.375,3.387,3.387,0,0,1,1.5,3.193,6.76,6.76,0,0,1-1.094,3.357,9.728,9.728,0,0,1-4.916,3.687,10.776,10.776,0,0,1-4.676.555,12.082,12.082,0,0,1-3.9-1.154l.21.165a7.688,7.688,0,0,0,.7.39,9.277,9.277,0,0,0,3,.884,10.731,10.731,0,0,0,4.856-.465,10.147,10.147,0,0,0,5.216-3.777" transform="translate(-386.85 -199.823)" fill="#263238"/>
    </g>
  </g>
</svg>
