<svg xmlns="http://www.w3.org/2000/svg" width="49.499" height="49.499" viewBox="0 0 49.499 49.499">
  <g id="_1000997" data-name="1000997" transform="translate(0)">
    <g id="Group_6" data-name="Group 6" transform="translate(0)">
      <g id="Group_5" data-name="Group 5" transform="translate(0)">
        <path id="Path_36" data-name="Path 36" d="M12.713,45.632H5.868A1.964,1.964,0,0,1,4.321,44.9a2.02,2.02,0,0,1-.41-1.694A21.363,21.363,0,0,1,24.257,26.286c.164.006.328.01.493.01s.332,0,.5-.01a21.178,21.178,0,0,1,6.984,1.345,1.934,1.934,0,1,0,1.359-3.62q-.48-.18-.966-.34a13.148,13.148,0,1,0-15.739.006A25.144,25.144,0,0,0,.126,42.415,5.874,5.874,0,0,0,5.868,49.5h6.845a1.934,1.934,0,1,0,0-3.867Zm2.755-32.484a9.281,9.281,0,1,1,9.733,9.27c-.151,0-.3-.005-.452-.005s-.3,0-.453,0A9.293,9.293,0,0,1,15.469,13.148Z" transform="translate(0)" fill="#b5b3b3"/>
        <path id="Path_37" data-name="Path 37" d="M179.9,316.056A5.21,5.21,0,0,0,175.149,313h-6.043a5.119,5.119,0,0,0-4.837,3.268c-.1.264-.226.6-.355.985h-12.66a1.934,1.934,0,0,0-1.387.587l-3.321,3.421a1.934,1.934,0,0,0,.008,2.7l3.384,3.443a1.934,1.934,0,0,0,1.379.578H157.6a1.934,1.934,0,1,0,0-3.867h-5.473l-1.492-1.518,1.436-1.479h13.292a1.934,1.934,0,0,0,1.878-1.474,15.981,15.981,0,0,1,.637-1.991,1.267,1.267,0,0,1,1.232-.789h6.034a1.319,1.319,0,0,1,1.228.767,12.487,12.487,0,0,1,1.143,4.929,12.856,12.856,0,0,1-1.135,5.017,1.32,1.32,0,0,1-1.214.792h-6.106a1.376,1.376,0,0,1-1.247-.856,12.852,12.852,0,0,1-.6-1.914,1.934,1.934,0,1,0-3.761.9,16.642,16.642,0,0,0,.785,2.488,5.216,5.216,0,0,0,4.817,3.249h6.115a5.184,5.184,0,0,0,4.755-3.113,16.738,16.738,0,0,0,1.457-6.572A16.37,16.37,0,0,0,179.9,316.056Z" transform="translate(-131.885 -282.74)" fill="#b5b3b3"/>
        <ellipse id="Ellipse_2" data-name="Ellipse 2" cx="1.5" cy="2" rx="1.5" ry="2" transform="translate(40.001 38)" fill="#b5b3b3"/>
      </g>
    </g>
  </g>
</svg>
