<svg xmlns="http://www.w3.org/2000/svg" width="49.499" height="49.499" viewBox="0 0 49.499 49.499">
  <g id="_748137" data-name="748137" transform="translate(0)">
    <g id="Group_2" data-name="Group 2" transform="translate(0)">
      <g id="Group_1" data-name="Group 1">
        <path id="Path_34" data-name="Path 34" d="M35.536,24.837a25.155,25.155,0,0,0-2.909-1.168,13.148,13.148,0,1,0-15.743.008A25.149,25.149,0,0,0,.126,42.414,5.874,5.874,0,0,0,5.868,49.5H29.68a1.934,1.934,0,1,0,0-3.867H5.868A1.965,1.965,0,0,1,4.321,44.9a2.02,2.02,0,0,1-.41-1.694A21.363,21.363,0,0,1,24.237,26.286q.255.01.513.01t.518-.01a21.062,21.062,0,0,1,8.609,2.044,1.934,1.934,0,0,0,1.66-3.493Zm-10.315-2.42q-.235,0-.472,0t-.468,0a9.281,9.281,0,1,1,.94,0Z" transform="translate(0)" fill="#b5b3b3"/>
      </g>
    </g>
    <g id="Group_4" data-name="Group 4" transform="translate(31.13 31.13)">
      <g id="Group_3" data-name="Group 3">
        <path id="Path_35" data-name="Path 35" d="M338.435,329.251h-5.317v-5.317a1.934,1.934,0,0,0-3.867,0v5.317h-5.317a1.934,1.934,0,0,0,0,3.867h5.317v5.317a1.934,1.934,0,1,0,3.867,0v-5.317h5.317a1.934,1.934,0,1,0,0-3.867Z" transform="translate(-322 -322)" fill="#b5b3b3"/>
      </g>
    </g>
  </g>
</svg>
