<svg xmlns="http://www.w3.org/2000/svg" xmlns:xlink="http://www.w3.org/1999/xlink" width="34" height="28" viewBox="0 0 34 28">
  <defs>
    <clipPath id="clip-Linkedin">
      <rect width="34" height="28"/>
    </clipPath>
  </defs>
  <g id="Linkedin" clip-path="url(#clip-Linkedin)">
    <g id="_2111532" data-name="2111532" transform="translate(3)">
      <path id="Path_4595" data-name="Path 4595" d="M26.578,26.738h.007V16.468c0-5.024-1.082-8.894-6.955-8.894a6.1,6.1,0,0,0-5.491,3.018h-.082V8.043H8.489V26.736h5.8V17.48c0-2.437.462-4.794,3.48-4.794,2.974,0,3.018,2.781,3.018,4.95v9.1Z" transform="translate(1.415 1.262)" fill="#fff"/>
      <path id="Path_4596" data-name="Path 4596" d="M.4,7.977H6.2V26.671H.4Z" transform="translate(0.066 1.329)" fill="#fff"/>
      <path id="Path_4597" data-name="Path 4597" d="M3.362,0A3.378,3.378,0,1,0,6.725,3.362,3.363,3.363,0,0,0,3.362,0Z" fill="#fff"/>
    </g>
  </g>
</svg>
