<svg xmlns="http://www.w3.org/2000/svg" width="640.036" height="455.514" viewBox="0 0 640.036 455.514">
  <g id="Secure_login-pana" data-name="Secure login-pana" transform="translate(-24.6 -153.876)">
    <g id="freepik--Table--inject-86" transform="translate(24.6 608.311)">
      <path id="Path_3866" data-name="Path 3866" d="M664.636,465.809c0,.219-143.294.379-320,.379S24.6,466.028,24.6,465.809s143.264-.379,320.033-.379S664.636,465.605,664.636,465.809Z" transform="translate(-24.6 -465.43)" fill="#263238"/>
    </g>
    <g id="freepik--Plant--inject-86" transform="translate(40.22 364.072)">
      <path id="Path_3867" data-name="Path 3867" d="M97.666,455.844S59.13,411.488,44.587,367.131s-7.643-39.266-7.643-39.266,19.633,43.087,34.54,63.9,41.454,51.343,41.454,51.343Z" transform="translate(-35.309 -284.36)" fill="#455a64"/>
      <path id="Path_3868" data-name="Path 3868" d="M84.64,332.9a2.246,2.246,0,0,0-4.172,1.459c2.348,15.593,7.424,52.145,7.293,75.848-.248,30.806,0,42.708,0,42.708h16.045s-2.917-63.683-6.476-83.141C94.734,356.191,89.337,341.08,84.64,332.9Z" transform="translate(-14.611 -282.492)" fill="#455a64"/>
      <path id="Path_3869" data-name="Path 3869" d="M89.32,449.446a169.855,169.855,0,0,0,13.2-47.886c1.313-11.333-1.036-26.663-4.536-47.113a125.774,125.774,0,0,1-2.027-22.667,3.822,3.822,0,0,1,7.176-1.794c1.94,3.457,7.541,15.257,8.97,22.652,3.88,20.187,8.27,30.281,4.916,49.447s-15.8,48.659-15.8,48.659Z" transform="translate(-10.539 -284.22)" fill="#455a64"/>
      <path id="Path_3870" data-name="Path 3870" d="M99.22,458.464s42.3-90.93,45.217-104.422,12.909-44.575,14.076-42.81,2.917,18.174-4.682,36.947-40.185,113.057-40.185,113.057H99.22" transform="translate(-5.999 -291.94)" fill="#455a64"/>
      <path id="Path_3871" data-name="Path 3871" d="M109.272,446.448a7.542,7.542,0,0,1-1.181-.817c-.758-.569-1.9-1.371-3.282-2.494-2.815-2.217-6.768-5.586-11.377-10.035A191.078,191.078,0,0,1,62.8,393.719a258.452,258.452,0,0,1-20.96-45.392c-2.13-6.039-3.676-10.983-4.682-14.411-.525-1.721-.875-3.063-1.123-3.967a8.518,8.518,0,0,1-.335-1.459,8.344,8.344,0,0,1,.51,1.342c.321.977.744,2.29,1.284,3.924,1.109,3.4,2.757,8.3,4.945,14.309a275.762,275.762,0,0,0,21.135,45.144,199.83,199.83,0,0,0,30.368,39.382c4.536,4.507,8.4,7.935,11.144,10.21,1.357,1.167,2.465,2.013,3.165,2.626a8.9,8.9,0,0,1,1.021,1.021Z" transform="translate(-35.129 -283.993)" fill="#263238"/>
      <path id="Path_3872" data-name="Path 3872" d="M92.732,400.674a12.793,12.793,0,0,1-.379-2.669c-.2-1.882-.467-4.376-.788-7.293-.671-6.155-1.721-14.586-3.209-23.965S85.191,349.04,83.893,343c-.627-2.917-1.138-5.324-1.546-7.176a14.822,14.822,0,0,1-.467-2.655,15.637,15.637,0,0,1,.817,2.567c.467,1.677,1.094,4.1,1.823,7.118,1.459,6.024,3.224,14.411,4.726,23.761s2.45,17.853,2.917,24.038c.248,3.078.423,5.586.5,7.293a16.426,16.426,0,0,1,.073,2.728Z" transform="translate(-13.951 -281.846)" fill="#263238"/>
      <path id="Path_3873" data-name="Path 3873" d="M97.454,328.87a5.657,5.657,0,0,1,.5,1.152l1.269,3.384c.569,1.459,1.211,3.267,1.823,5.411s1.459,4.536,2.057,7.293l1.05,4.274c.35,1.459.6,3.063.919,4.682.7,3.224,1.123,6.724,1.634,10.4a169.638,169.638,0,0,1,1.021,24.1,169.478,169.478,0,0,1-2.742,23.979c-.773,3.617-1.459,7.089-2.363,10.21-.452,1.59-.817,3.151-1.269,4.609l-1.357,4.259c-.8,2.684-1.794,5.032-2.567,7.118a46.523,46.523,0,0,1-2.2,5.266l-1.459,3.282a5.75,5.75,0,0,1-.583,1.108,6.634,6.634,0,0,1,.408-1.181c.35-.846.8-1.954,1.357-3.34s1.327-3.209,2.042-5.324,1.677-4.376,2.45-7.133c.408-1.327.831-2.728,1.284-4.186s.788-3,1.211-4.595c.875-3.165,1.459-6.607,2.275-10.21a177.517,177.517,0,0,0,2.655-23.848,177.368,177.368,0,0,0-.934-23.965c-.5-3.661-.89-7.147-1.546-10.371-.306-1.6-.54-3.18-.875-4.668s-.671-2.917-.992-4.274c-.569-2.728-1.342-5.134-1.911-7.293s-1.167-3.967-1.677-5.455l-1.094-3.428a6.622,6.622,0,0,1-.379-1.254Z" transform="translate(-8.769 -283.818)" fill="#263238"/>
      <path id="Path_3874" data-name="Path 3874" d="M155.882,312.46a1.738,1.738,0,0,1,0,.408,10.139,10.139,0,0,1-.19,1.181c-.19,1.036-.423,2.567-.831,4.522a164.329,164.329,0,0,1-4.376,16.366c-2.188,6.826-4.988,14.849-8.416,23.644s-7.381,18.393-11.144,28.6-6.753,20.143-9.51,29.172-5.339,17.139-7.847,23.834a151.248,151.248,0,0,1-6.637,15.563c-.861,1.794-1.648,3.136-2.144,4.07l-.6,1.036c-.131.233-.2.35-.219.335a1.225,1.225,0,0,1,.146-.379l.511-1.079c.452-.948,1.181-2.319,2-4.142,1.692-3.6,4-8.9,6.389-15.622s4.959-14.8,7.643-23.848,5.645-18.962,9.466-29.172,7.76-19.822,11.217-28.6,6.4-16.73,8.591-23.527,3.632-12.369,4.551-16.249c.467-1.94.758-3.457,1.006-4.492.1-.467.2-.846.277-1.152A1.328,1.328,0,0,1,155.882,312.46Z" transform="translate(-3.82 -291.344)" fill="#263238"/>
      <path id="Path_3875" data-name="Path 3875" d="M52.049,299.014a3.632,3.632,0,0,0-5.995,3.7A103.78,103.78,0,0,0,51.363,316.4c5.834,12.354,22.9,56.711,30.908,81.069s19.21,69.809,19.21,69.809l17.08-2.771S102.94,389.9,87.727,362.93C75.46,341.314,63.178,310.07,52.049,299.014Z" transform="translate(-30.46 -297.983)" fill="#455a64"/>
      <path id="Path_3876" data-name="Path 3876" d="M74,376.64a9.555,9.555,0,0,1,.89,2.042c.5,1.342,1.2,3.3,1.969,5.732,1.575,4.872,3.5,11.669,5.426,19.239s3.559,14.455,4.682,19.443c.511,2.348.934,4.376,1.284,5.907a11.274,11.274,0,0,1,.35,2.2,10.94,10.94,0,0,1-.7-2.115c-.408-1.561-.934-3.515-1.561-5.834-1.313-5.134-3.019-11.888-4.93-19.356s-3.749-14.382-5.163-19.283c-.671-2.319-1.24-4.259-1.692-5.834A11.132,11.132,0,0,1,74,376.64Z" transform="translate(-17.565 -261.911)" fill="#263238"/>
      <path id="Path_3877" data-name="Path 3877" d="M109.5,465.661a1.81,1.81,0,0,1-.088-.452,10.11,10.11,0,0,0-.2-1.342c-.175-1.181-.335-2.917-.7-5.178-.627-4.492-1.736-10.954-3.574-18.845a271.949,271.949,0,0,0-7.993-27.276c-3.515-10.123-7.906-21.062-12.879-32.381-10.05-22.594-20.085-42.65-26.693-57.469-3.326-7.41-5.834-13.434-7.614-17.649-.861-2.1-1.459-3.749-1.911-4.857-.2-.511-.35-.934-.481-1.269a1.649,1.649,0,0,1-.131-.452,1.968,1.968,0,0,1,.219.408l.554,1.24c.511,1.167,1.2,2.771,2.086,4.8,1.794,4.157,4.463,10.21,7.862,17.5,6.739,14.717,16.876,34.744,26.94,57.382,4.974,11.333,9.364,22.3,12.836,32.469a258.169,258.169,0,0,1,7.833,27.422,189.921,189.921,0,0,1,3.3,18.962c.306,2.246.408,4.011.54,5.193l.1,1.357a1.9,1.9,0,0,1,0,.438Z" transform="translate(-29.842 -297.751)" fill="#263238"/>
      <path id="Path_3878" data-name="Path 3878" d="M101.629,434.713a18.747,18.747,0,0,1-.583-2.917c-.336-2-.788-4.653-1.327-7.847-1.167-6.622-2.917-15.738-5.557-25.657s-5.441-18.714-7.658-25.059c-1.079-3.063-1.984-5.586-2.669-7.5a18.1,18.1,0,0,1-.9-2.786,17.51,17.51,0,0,1,1.24,2.655c.729,1.736,1.765,4.259,2.917,7.41a247.978,247.978,0,0,1,7.935,25.1,260.211,260.211,0,0,1,5.324,25.774c.481,3.326.846,6.024,1.036,7.906a19.457,19.457,0,0,1,.248,2.917Z" transform="translate(-13.469 -268.189)" fill="#263238"/>
      <rect id="Rectangle_332" data-name="Rectangle 332" width="66.673" height="81.23" transform="translate(56.552 164.074)" fill="#8dc63f"/>
      <g id="Group_295" data-name="Group 295" transform="translate(56.552 164.074)" opacity="0.3">
        <rect id="Rectangle_333" data-name="Rectangle 333" width="66.673" height="81.23"/>
      </g>
      <rect id="Rectangle_334" data-name="Rectangle 334" width="59.146" height="81.23" transform="translate(42.797 164.074)" fill="#8dc63f"/>
    </g>
    <g id="freepik--Character--inject-86" transform="translate(197.49 153.876)">
      <path id="Path_3879" data-name="Path 3879" d="M426.162,288.166l-35.05-5.076L321,293.461l-19.677,6.958,3.486,43.029,67.417,12.413L417.7,342.382l17.2-25.307Z" transform="translate(-70.585 -94.617)" fill="#ffbe9d"/>
      <path id="Path_3880" data-name="Path 3880" d="M458.116,291.564l-29.347-6.914s-20.727,64.179-71.909,61.364c-41.716-2.261-42.2-48.82-42.2-48.82L284.6,306.821s-11.508,77.117,1.225,131.756c2.917,12.763,6.958,29.96,6.958,29.96l-4.07,79.829,222.35.35L458.116,291.564Z" transform="translate(-80.441 -93.902)" fill="#8dc63f"/>
      <g id="Group_296" data-name="Group 296" transform="translate(290.509 420.26)" opacity="0.3">
        <path id="Path_3881" data-name="Path 3881" d="M342.3,460.714c10.823-.277,20.8.642,31.623.379,12.982-.321,26.065-.642,38.886,1.459,9.6,1.59,18.962,4.507,28.559,6.024,13.127,2.071,27.116,1.342,38.784-4.974l-1.882-10.9L433.959,442Z" transform="translate(-342.3 -442)"/>
      </g>
      <path id="Path_3882" data-name="Path 3882" d="M282.762,318.017c10.21-13.127,27.072-18.6,27.072-18.6l11.377,99.025-21.544,144.2-70.567-.336S268.016,337.052,282.762,318.017Z" transform="translate(-103.705 -87.128)" fill="#8dc63f"/>
      <path id="Path_3883" data-name="Path 3883" d="M403.618,288.89s47.492,3.807,64.529,81.682c7.7,35.2,17.5,76.431,20.26,104.159,2.027,20.1-8.9,51.576-28.939,54.158l-25.2,3.384a41.642,41.642,0,0,1-14.849-.54c-15.913-3.661-17.5-14.586-20.42-26.255L391.7,482.257c-4.026-22.083,16.555-26.255,27.918-25.949l-8.474-100.8Z" transform="translate(-29.371 -91.957)" fill="#8dc63f"/>
      <path id="Path_3884" data-name="Path 3884" d="M281.088,337.17a5.157,5.157,0,0,0-.219,1.079c-.117.788-.277,1.838-.481,3.136-.087.686-.2,1.459-.321,2.275s-.175,1.736-.277,2.713c-.2,1.94-.438,4.157-.54,6.622a167.441,167.441,0,0,0-.117,17.314,211.363,211.363,0,0,0,2.1,21.077c1.094,7.453,2.465,14.484,3.865,20.843s2.757,12.063,3.953,16.847,2.2,8.62,2.917,11.275c.35,1.269.627,2.29.846,3.048a5.148,5.148,0,0,0,.35,1.05,5.425,5.425,0,0,0-.2-1.079c-.175-.788-.408-1.809-.7-3.092-.656-2.757-1.575-6.607-2.713-11.333s-2.45-10.5-3.778-16.862-2.713-13.375-3.792-20.8-1.838-14.586-2.159-21.018a150.4,150.4,0,0,1,0-17.241c.073-2.465.263-4.668.423-6.622q.1-1.459.219-2.713c.087-.817.175-1.575.248-2.275.146-1.3.263-2.348.336-3.151a5.6,5.6,0,0,0,.044-1.094Z" transform="translate(-80.837 -69.816)" fill="#263238"/>
      <path id="Path_3885" data-name="Path 3885" d="M448.012,431.058a8.547,8.547,0,0,0-.336-2,31.825,31.825,0,0,0-1.838-5.12,34.9,34.9,0,0,0-27.874-20.289,30.631,30.631,0,0,0-5.44-.175,8.9,8.9,0,0,0-1.984.248,65.1,65.1,0,0,1,7.293.452A36.013,36.013,0,0,1,445.3,424.159a70.742,70.742,0,0,1,2.713,6.9Z" transform="translate(-20.496 -39.43)" fill="#263238"/>
      <path id="Path_3886" data-name="Path 3886" d="M436.97,395.825a3.66,3.66,0,0,0-1.152-.1,24.191,24.191,0,0,0-3.136.146,35.985,35.985,0,0,0-10.021,2.509,36.834,36.834,0,0,0-8.9,5.266,25.337,25.337,0,0,0-2.319,2.1c-.51.54-.773.846-.744.89s1.284-1.021,3.4-2.567a41.878,41.878,0,0,1,18.656-7.672C435.337,396.015,436.97,395.956,436.97,395.825Z" transform="translate(-20.423 -42.967)" fill="#263238"/>
      <path id="Path_3887" data-name="Path 3887" d="M395.066,342.482a10.777,10.777,0,0,0,.117-2.086c0-1.342.088-3.267.248-5.645a90.637,90.637,0,0,1,10.006-35.619c1.094-2.115,2.042-3.807,2.728-4.945a10.765,10.765,0,0,0,.977-1.838,10.993,10.993,0,0,0-1.24,1.677,56.589,56.589,0,0,0-2.917,4.857,82.149,82.149,0,0,0-10.064,35.852c-.087,2.392-.087,4.376,0,5.674A10.065,10.065,0,0,0,395.066,342.482Z" transform="translate(-27.689 -90.371)" fill="#263238"/>
      <path id="Path_3888" data-name="Path 3888" d="M332.64,375.15a3.164,3.164,0,0,0,.2.817c.175.525.394,1.327.788,2.29a47.518,47.518,0,0,0,3.953,8.008,51.474,51.474,0,0,0,50.424,24.213,49.141,49.141,0,0,0,8.752-1.911c1.006-.306,1.765-.642,2.275-.831a4.371,4.371,0,0,0,.773-.335c0-.073-1.123.306-3.136.875a52.868,52.868,0,0,1-58.651-22.287,55.311,55.311,0,0,1-4.142-7.833A19.717,19.717,0,0,0,332.64,375.15Z" transform="translate(-56.221 -52.398)" fill="#263238"/>
      <path id="Path_3889" data-name="Path 3889" d="M401.26,456.18c.073-.073.817.992,2.6,2.45a23.848,23.848,0,0,0,8.752,4.142,45.993,45.993,0,0,0,14.294,1.269c5.426-.394,11.421-1.036,17.635-1.955a90.437,90.437,0,0,0,17.212-3.967,21.879,21.879,0,0,0,6.316-4.215,32.8,32.8,0,0,0,4.376-5.032,47.564,47.564,0,0,0,4.857-8.416c.452-1.065.8-1.882,1.021-2.45a3.321,3.321,0,0,1,.379-.846,6,6,0,0,1-.233.89c-.175.6-.481,1.459-.9,2.523a42.624,42.624,0,0,1-4.682,8.62,32.587,32.587,0,0,1-4.376,5.163,22.054,22.054,0,0,1-6.476,4.376,85.781,85.781,0,0,1-17.357,4.069c-6.257.934-12.238,1.546-17.708,1.911a45.943,45.943,0,0,1-14.484-1.458,23.337,23.337,0,0,1-8.752-4.376,13.975,13.975,0,0,1-1.852-1.94A3.826,3.826,0,0,1,401.26,456.18Z" transform="translate(-24.752 -23.96)" fill="#263238"/>
      <path id="Path_3890" data-name="Path 3890" d="M395.892,343.72c.19,0,5.207,19.385,11.173,43.423s10.648,43.554,10.444,43.612-5.207-19.4-11.173-43.437S395.688,343.764,395.892,343.72Z" transform="translate(-27.216 -66.812)" fill="#263238"/>
      <path id="Path_3891" data-name="Path 3891" d="M391.863,426.132a5.949,5.949,0,0,1-.248-1.6,28.581,28.581,0,0,1-.1-4.376,12.967,12.967,0,0,1,2.144-6.228,18.525,18.525,0,0,1,2.436-3.063,17.165,17.165,0,0,1,3.369-2.509,42.708,42.708,0,0,1,13.828-4.463,38.865,38.865,0,0,1,4.376-.379,5.517,5.517,0,0,1,1.619,0c0,.117-2.29.2-5.922.861a46.065,46.065,0,0,0-13.536,4.58,16.916,16.916,0,0,0-3.238,2.392,18.318,18.318,0,0,0-2.363,2.917,12.559,12.559,0,0,0-2.188,5.834,37.3,37.3,0,0,0-.131,4.376,7.194,7.194,0,0,1-.044,1.663Z" transform="translate(-29.24 -39.42)" fill="#263238"/>
      <g id="Group_297" data-name="Group 297" transform="translate(193.005 264.189)" opacity="0.3">
        <path id="Path_3892" data-name="Path 3892" d="M284.886,403.554C272.765,383.032,272.5,356.369,283.077,335a192.188,192.188,0,0,0,2.159,68.467" transform="translate(-275.453 -335)"/>
      </g>
      <path id="Path_3893" data-name="Path 3893" d="M325.89,417.08h.087Z" transform="translate(-59.317 -33.169)" fill="#ffbe9d"/>
      <path id="Path_3894" data-name="Path 3894" d="M326.25,417.25l.19.087Z" transform="translate(-59.152 -33.091)" fill="#ffbe9d"/>
      <path id="Path_3895" data-name="Path 3895" d="M326,417.11l.438.2Z" transform="translate(-59.266 -33.155)" fill="#ffbe9d"/>
      <path id="Path_3896" data-name="Path 3896" d="M325.76,417l.19.087Z" transform="translate(-59.376 -33.205)" fill="#ffbe9d"/>
      <path id="Path_3897" data-name="Path 3897" d="M295.784,459.2C299.605,452,329.4,432.948,329.4,432.948l-8.066-1.867-8.912,3.763a21.878,21.878,0,0,1-3.836,8.343c-3.267,4.668-8.824-.16-8.824-.16l3.763-18.043,17.62-10.6s16.57,2.538,19.254,3.822l7.06,6.462c3.107,2.436,12.063,12.019,14.513,12.311S441.4,419.981,441.4,419.981h0c10.546,8.358,16.045,24.942,17.766,36.917,0,0,1.882,5.834-.16,9.073l-94.416,7.41-20.012,5.528a141.685,141.685,0,0,1-16.438,5.645c-6.651,1.459-11.129-.744-11.319-4.376s4.988-4.084,4.988-4.084a100.646,100.646,0,0,0,12.865-5.659,22.565,22.565,0,0,0,7.293-7.964l-7.133.846s-15.17,10.531-20.873,13.623-6.826-2.582-7.293-4.376S323.7,453.733,323.7,453.733s-16.643,10.21-19.633,12.836-7.424,3.369-8.372,1.634S291.977,466.409,295.784,459.2Z" transform="translate(-74.019 -34.407)" fill="#ffbe9d"/>
      <path id="Path_3898" data-name="Path 3898" d="M326.38,417.31l.16.088Z" transform="translate(-59.092 -33.063)" fill="#ffbe9d"/>
      <path id="Path_3899" data-name="Path 3899" d="M326.56,417.4Z" transform="translate(-59.01 -33.022)" fill="#ffbe9d"/>
      <path id="Path_3900" data-name="Path 3900" d="M326.49,417.37h0Z" transform="translate(-59.042 -33.036)" fill="#ffbe9d"/>
      <path id="Path_3901" data-name="Path 3901" d="M356.424,453.753a4.1,4.1,0,0,0,.087-1.167,6.827,6.827,0,0,0-.087-1.371,10.312,10.312,0,0,0-.335-1.794,25.615,25.615,0,0,0-4.828-9.321,53.974,53.974,0,0,0-7.293-7.556,20.962,20.962,0,0,0-3.428-2.655,36.78,36.78,0,0,0,3.092,3.019,69.487,69.487,0,0,1,7.06,7.628,27.438,27.438,0,0,1,4.9,9.014C356.351,452.09,356.278,453.767,356.424,453.753Z" transform="translate(-52.598 -27.294)" fill="#eb996e"/>
      <path id="Path_3902" data-name="Path 3902" d="M318.69,427.739a10.939,10.939,0,0,0,9.408-3.165c-.117-.16-1.94,1.2-4.551,2.042S318.69,427.535,318.69,427.739Z" transform="translate(-62.619 -29.738)" fill="#eb996e"/>
      <path id="Path_3903" data-name="Path 3903" d="M315.29,442.206A93.813,93.813,0,0,0,330.2,436.08a45.56,45.56,0,0,0-7.585,2.742A47.556,47.556,0,0,0,315.29,442.206Z" transform="translate(-64.178 -24.455)" fill="#eb996e"/>
      <path id="Path_3904" data-name="Path 3904" d="M326.25,448.145a17.5,17.5,0,0,0,3.88-1.386,17.158,17.158,0,0,0,3.792-1.619,15.345,15.345,0,0,0-7.672,3Z" transform="translate(-59.152 -20.3)" fill="#eb996e"/>
      <path id="Path_3905" data-name="Path 3905" d="M317,441.19a16.516,16.516,0,0,1,2.917,2.567,16.172,16.172,0,0,1,1.692,3.53c.087,0,.175-.481,0-1.24a6.315,6.315,0,0,0-1.2-2.713,6.243,6.243,0,0,0-2.29-1.867C317.467,441.147,317,441.117,317,441.19Z" transform="translate(-63.394 -22.127)" fill="#eb996e"/>
      <path id="Path_3906" data-name="Path 3906" d="M312.182,433.642c-.1.175,1.211.89,2.071,2.392a18.964,18.964,0,0,1,1.065,2.99,3.544,3.544,0,0,0-.481-3.384C313.859,433.948,312.211,433.452,312.182,433.642Z" transform="translate(-65.606 -25.591)" fill="#eb996e"/>
      <path id="Path_3907" data-name="Path 3907" d="M314.309,422.167c.088,0,.35-.292.569-.948a5.179,5.179,0,0,0,0-2.626,5.078,5.078,0,0,0-1.254-2.3c-.481-.481-.875-.656-.933-.583a13.764,13.764,0,0,1,1.459,3.063,12.575,12.575,0,0,1,.16,3.4Z" transform="translate(-65.37 -33.806)" fill="#eb996e"/>
      <path id="Path_3908" data-name="Path 3908" d="M413.7,467.248a13.552,13.552,0,0,1-.117-2.173,23.67,23.67,0,0,0-.1-2.538c-.1-.992-.088-2.115-.233-3.34a74.843,74.843,0,0,0-4.128-18.962,67.957,67.957,0,0,0-4.463-9.685c-.875-1.459-1.634-2.757-2.509-3.938-.408-.6-.817-1.167-1.211-1.721a12.851,12.851,0,0,0-1.211-1.459c-3.136-3.865-5.543-5.834-5.426-5.951a9.959,9.959,0,0,1,1.692,1.357,21.591,21.591,0,0,1,1.867,1.765c.686.715,1.459,1.458,2.29,2.48.394.5.817.992,1.254,1.459a19.551,19.551,0,0,1,1.269,1.721c.9,1.181,1.692,2.553,2.582,3.953a63.349,63.349,0,0,1,4.58,9.773,69.457,69.457,0,0,1,3.953,19.137c.1,1.24.088,2.378.117,3.369s0,1.852,0,2.553A10.881,10.881,0,0,1,413.7,467.248Z" transform="translate(-27.945 -32.985)" fill="#263238"/>
      <g id="Group_298" data-name="Group 298" transform="translate(390.175 363.211)" opacity="0.3">
        <path id="Path_3909" data-name="Path 3909" d="M438.606,406.479a47.434,47.434,0,0,0-27.976-2.553h0a38.7,38.7,0,0,1,37.763,24.417c.671,1.809,2.013,3.953,3.938,3.676s2.45-2.509,2.45-4.3C454.8,418.279,447.314,410.111,438.606,406.479Z" transform="translate(-410.63 -402.888)"/>
      </g>
      <path id="Path_3910" data-name="Path 3910" d="M288.458,338.818a4.584,4.584,0,0,1-1.254-.423c-.8-.306-1.925-.817-3.3-1.458a69.057,69.057,0,0,1-10.21-6.257,70.017,70.017,0,0,1-8.956-7.877c-1.05-1.109-1.882-2.042-2.407-2.7s-.817-1.05-.773-1.094,1.371,1.313,3.559,3.413a92.67,92.67,0,0,0,9.029,7.658,91.076,91.076,0,0,0,9.962,6.374C286.854,337.958,288.546,338.716,288.458,338.818Z" transform="translate(-88.82 -78.144)" fill="#fff"/>
      <path id="Path_3911" data-name="Path 3911" d="M448.265,336.361a1.631,1.631,0,0,1-.365.248l-1.123.671c-.977.6-2.465,1.459-4.376,2.421a122.513,122.513,0,0,1-16.993,7.162,163.578,163.578,0,0,1-26.59,6.389,258.06,258.06,0,0,1-33.373,2.771c-11.888.277-23.206,0-33.548-.175a223.5,223.5,0,0,1-27.276-2.057,105.831,105.831,0,0,1-17.97-4.172c-2.057-.7-3.647-1.284-4.7-1.736l-1.2-.51a2.145,2.145,0,0,1-.408-.19l.438.117,1.225.438c1.065.408,2.669.948,4.74,1.6a115.4,115.4,0,0,0,17.941,3.924,234.839,234.839,0,0,0,27.218,1.882c10.21.19,21.587.394,33.446.117a262.1,262.1,0,0,0,33.285-2.713,166.389,166.389,0,0,0,26.532-6.2,132.046,132.046,0,0,0,17.036-6.914c1.94-.963,3.442-1.736,4.376-2.29l1.152-.6A2.756,2.756,0,0,1,448.265,336.361Z" transform="translate(-80.202 -70.188)" fill="#fff"/>
      <path id="Path_3912" data-name="Path 3912" d="M294.519,376.228a8.047,8.047,0,0,1-1.809-.379l-4.857-1.327c-4.084-1.152-9.714-2.8-15.928-4.653s-11.815-3.588-15.87-4.872l-4.784-1.546a10.051,10.051,0,0,1-1.721-.671,8.05,8.05,0,0,1,1.809.379l4.857,1.327c4.084,1.152,9.714,2.8,15.928,4.653s11.815,3.574,15.87,4.857l4.784,1.561a8.75,8.75,0,0,1,1.721.671Z" transform="translate(-94.327 -58.071)" fill="#fff"/>
      <path id="Path_3913" data-name="Path 3913" d="M303.675,433.372c0,.19-14.586-3.982-32.527-9.335s-32.366-9.86-32.308-10.064,14.586,3.967,32.527,9.335S303.733,433.168,303.675,433.372Z" transform="translate(-99.239 -34.597)" fill="#fff"/>
      <path id="Path_3914" data-name="Path 3914" d="M442.408,307.69a10.09,10.09,0,0,1-1.6,1.269c-1.05.773-2.626,1.852-4.595,3.136a156.536,156.536,0,0,1-32.921,16.176c-2.217.773-4.026,1.357-5.295,1.721a9.83,9.83,0,0,1-1.984.5,11.28,11.28,0,0,1,1.9-.773l5.207-1.94c4.376-1.677,10.371-4.157,16.789-7.293s12.048-6.374,16.045-8.825l4.726-2.917A10.339,10.339,0,0,1,442.408,307.69Z" transform="translate(-27.159 -83.335)" fill="#fff"/>
      <path id="Path_3915" data-name="Path 3915" d="M468.116,364.51a18.038,18.038,0,0,1-2.363,1.123c-1.532.686-3.807,1.59-6.637,2.625a154.129,154.129,0,0,1-46.048,9.16c-3.019.131-5.455.16-7.147.1a19.584,19.584,0,0,1-2.611-.117,15.7,15.7,0,0,1,2.611-.175c1.677,0,4.113-.146,7.118-.35A178.847,178.847,0,0,0,436.3,373.86a181.51,181.51,0,0,0,22.652-6.1c2.844-.977,5.134-1.809,6.71-2.407a15.176,15.176,0,0,1,2.45-.846Z" transform="translate(-23.812 -57.277)" fill="#fff"/>
      <path id="Path_3916" data-name="Path 3916" d="M424.728,479a3.15,3.15,0,0,1,.073-.817c.088-.6.219-1.357.365-2.29s.365-2.217.511-3.647.394-3.034.452-4.843c0-.89.117-1.838.175-2.815s0-2.013,0-3.063c0-2.115-.087-4.376-.2-6.753a99.03,99.03,0,0,0-2.348-15.286,100.163,100.163,0,0,0-4.857-14.688c-.992-2.159-1.882-4.245-2.917-6.1-.5-.934-.948-1.852-1.459-2.713l-1.459-2.421c-.89-1.575-1.852-2.917-2.626-4.1a36.432,36.432,0,0,0-2.115-3l-1.371-1.882a3.038,3.038,0,0,1-.438-.686,4.373,4.373,0,0,1,.554.583l1.459,1.809a34.992,34.992,0,0,1,2.232,2.917c.817,1.181,1.809,2.494,2.728,4.055l1.459,2.421c.511.846.977,1.779,1.459,2.713a62.773,62.773,0,0,1,2.917,6.112,88.07,88.07,0,0,1,7.293,30.208c.088,2.392.219,4.668.131,6.8,0,1.065,0,2.1-.088,3.092s-.146,1.925-.219,2.83c-.1,1.823-.394,3.428-.583,4.857s-.408,2.655-.627,3.632-.379,1.677-.51,2.29a3.635,3.635,0,0,1,.015.788Z" transform="translate(-22.344 -39.213)" fill="#fff"/>
      <path id="Path_3917" data-name="Path 3917" d="M478.772,435.408c-.073,0-.117-1.2-.452-3.3a28.34,28.34,0,0,0-2.917-8.489,35.767,35.767,0,0,0-8.241-10.385,42.8,42.8,0,0,0-14.017-8.2,54.627,54.627,0,0,0-16.059-2.8,101.773,101.773,0,0,0-13.39.51c-3.807.35-6.885.744-9.014.977l-2.45.263a3.194,3.194,0,0,1-.861,0,3.3,3.3,0,0,1,.831-.19l2.436-.408c2.115-.335,5.193-.788,9-1.225a97.939,97.939,0,0,1,13.478-.671,54.738,54.738,0,0,1,16.278,2.815,43.145,43.145,0,0,1,14.236,8.4,35.459,35.459,0,0,1,8.256,10.662,26.824,26.824,0,0,1,2.669,8.752,18.222,18.222,0,0,1,.175,2.48A3.586,3.586,0,0,1,478.772,435.408Z" transform="translate(-20.115 -40.324)" fill="#fff"/>
      <path id="Path_3918" data-name="Path 3918" d="M375.719,395.79a3.427,3.427,0,0,1-.831.146l-2.378.248-8.752.729c-7.4.569-17.62,1.269-28.91,1.852s-21.544.948-28.968,1.036H294.751a3.045,3.045,0,0,1-.831-.087,3.63,3.63,0,0,1,.831-.073h2.378l8.752-.219c7.4-.219,17.635-.656,28.924-1.254l28.91-1.634,8.752-.5,2.392-.1a3.326,3.326,0,0,1,.861-.146Z" transform="translate(-73.979 -42.932)" fill="#fff"/>
      <g id="Group_299" data-name="Group 299" transform="translate(285.375 339.088)" opacity="0.3">
        <path id="Path_3919" data-name="Path 3919" d="M363.62,403.153c9.189,2.7,21.879,3.355,30.879,0-7,9.962-20.523,13.565-32.264,10.327s-22.55-14.98-23.454-27.13C344.469,394.008,354.431,400.426,363.62,403.153Z" transform="translate(-338.78 -386.35)"/>
      </g>
      <path id="Path_3920" data-name="Path 3920" d="M430.128,391.282a4.606,4.606,0,0,1-.744.2l-2.115.452c-1.852.379-4.522.875-7.847,1.459-6.637,1.167-15.84,2.6-26.036,3.851s-19.487,2.071-26.255,2.538c-3.355.233-6.082.394-7.964.467l-2.159.073a2.348,2.348,0,0,1-.758,0,3.918,3.918,0,0,1,.744-.117l2.159-.219,7.935-.715c6.71-.6,15.957-1.459,26.167-2.757s19.385-2.6,26.036-3.617l7.877-1.225,2.159-.306a2.3,2.3,0,0,1,.8-.088Z" transform="translate(-45.394 -45.002)" fill="#fff"/>
      <g id="Group_300" data-name="Group 300" transform="translate(369.01 281.342)" opacity="0.3">
        <path id="Path_3921" data-name="Path 3921" d="M396.558,346.76c-2.3,26.4,4.886,52.6,12.019,78.123a10.852,10.852,0,0,0,1.955,4.376,3.792,3.792,0,0,0,4.376,1.211c2.232-1.138,1.925-4.376,1.3-6.768l-19.822-75.848" transform="translate(-396.119 -346.76)"/>
      </g>
      <path id="Path_3922" data-name="Path 3922" d="M143.256,366.932l29.974,147.173H433.446a5.193,5.193,0,0,0,5.193-5.193h0a5.193,5.193,0,0,0-5.193-5.193H381.053L353.266,366.844a5.689,5.689,0,0,0-5.514-4.551L148.887,360.12a5.674,5.674,0,0,0-5.63,6.812Z" transform="translate(-143.127 -59.291)" fill="#e0e0e0"/>
      <path id="Path_3923" data-name="Path 3923" d="M143.261,366.959a3.5,3.5,0,0,1-.088-.438,5.383,5.383,0,0,1,0-1.342,5.834,5.834,0,0,1,2.757-4.3,5.643,5.643,0,0,1,1.721-.671,8.546,8.546,0,0,1,2.042-.131h4.682l11.669.1,75.191.715,52.422.525,29.376.306,15.4.16,7.862.073h2.013a5.717,5.717,0,0,1,2.013.583,5.951,5.951,0,0,1,2.917,2.99,9.247,9.247,0,0,1,.54,2l.408,1.984c.263,1.313.54,2.64.8,3.967.554,2.669,1.094,5.353,1.648,8.037l3.326,16.38q3.369,16.555,6.885,33.883c4.7,23.075,9.583,47.069,14.586,71.807l-.35-.292H432.6a9.677,9.677,0,0,1,2.027.117,5.63,5.63,0,0,1,3.384,2.421,5.572,5.572,0,0,1-1.925,8.052,5.483,5.483,0,0,1-2.45.656H173.016v-.219c-9.175-45.217-16.628-82.032-21.792-107.529-2.553-12.748-4.551-22.667-5.907-29.405-.671-3.369-1.181-5.937-1.459-7.672s-.481-2.625-.481-2.625.2.89.569,2.611l1.6,7.643c1.386,6.739,3.428,16.657,6.053,29.376l22.025,107.5-.277-.233h260.39a4.99,4.99,0,0,0,2.13-.569,4.857,4.857,0,0,0,1.663-7.016,4.755,4.755,0,0,0-2.917-1.969,9.807,9.807,0,0,0-1.882-.117h-51.97v-.277q-7.526-37.194-14.586-71.822-3.515-17.3-6.87-33.883l-3.413-16.6c-.54-2.7-1.079-5.368-1.619-8.037-.277-1.327-.54-2.655-.817-3.982l-.394-1.969a8.288,8.288,0,0,0-.511-1.882,5.324,5.324,0,0,0-2.494-2.684,5.426,5.426,0,0,0-1.794-.525h-1.955l-7.876-.087-15.4-.175-29.362-.35-52.422-.613-75.191-.919-11.669-.16-4.682-.073a9.044,9.044,0,0,0-2.013.1,5.923,5.923,0,0,0-1.677.656,5.674,5.674,0,0,0-2.757,4.2A6.784,6.784,0,0,0,143.261,366.959Z" transform="translate(-143.131 -59.318)" fill="#263238"/>
      <path id="Path_3924" data-name="Path 3924" d="M230.822,413.7a8.591,8.591,0,1,1-8.591-8.591A8.591,8.591,0,0,1,230.822,413.7Z" transform="translate(-110.795 -38.658)" fill="#fff"/>
      <path id="Path_3925" data-name="Path 3925" d="M143.38,365.61h13.653l37.209.175,122.742.861,17.751.146h4.376a10.65,10.65,0,0,1,2.232.131,6.011,6.011,0,0,1,2.1.846,6.111,6.111,0,0,1,2.64,3.588c.335,1.459.569,2.8.861,4.2,2.2,11.085,4.376,21.777,6.345,31.958,4.026,20.42,7.658,38.726,10.692,54.143l7.162,36.465c.817,4.3,1.459,7.643,1.911,9.933.2,1.123.365,1.984.481,2.6a7.693,7.693,0,0,1,.131.875s-.088-.292-.2-.861-.321-1.459-.554-2.582c-.467-2.29-1.152-5.616-2.042-9.9-1.75-8.635-4.259-21.091-7.381-36.465L352.632,407.6q-3.041-15.315-6.374-31.958c-.292-1.371-.554-2.8-.846-4.142a5.469,5.469,0,0,0-2.348-3.165,5.366,5.366,0,0,0-1.867-.7,9.744,9.744,0,0,0-2.086-.117h-4.376l-17.751-.131L194.227,366.31l-37.194-.408-10.123-.146h-2.625Z" transform="translate(-143.017 -56.773)" fill="#263238"/>
      <path id="Path_3926" data-name="Path 3926" d="M395.622,212.37a96.414,96.414,0,0,1-30.747,72.741q-6.9-19.91-13.755-39.82" transform="translate(-47.746 -127.05)" fill="#263238"/>
      <path id="Path_3927" data-name="Path 3927" d="M317.556,159.994c11.8-6.447,26.051-7.381,39.236-4.74S382.26,163.859,393.9,170.6c6.535,3.778,13.04,7.935,17.737,13.828,8.562,10.779,17.036,28.487,17.853,42.3.671,11.115-3.588,38.93-8.285,49.024-4.3,9.262-24.475,16.322-34.438,18.612L295.4,188.028A46.3,46.3,0,0,1,317.556,159.994Z" transform="translate(-73.3 -153.876)" fill="#263238"/>
      <path id="Path_3928" data-name="Path 3928" d="M307.979,169.119l21.879-3.909c-11.975,28.516-15.228,93.715-22.069,123.879-8.081-11.669-26.824-47.4-25.817-61.6S282.031,166.712,307.979,169.119Z" transform="translate(-79.476 -148.678)" fill="#263238"/>
      <path id="Path_3929" data-name="Path 3929" d="M408.075,215.348c-1.182-16.657-11.975-30.31-28.151-34.438L329.47,168.045c-21.792-2.348-36.349,24.461-37.778,46.34-1.59,24.315-2.567,49.957.277,68.1,5.7,36.465,33.65,41.191,33.65,41.191v28.005L342.5,421.566l54.391-75.147,11.26-130.6C408.191,215.173,408.075,216.179,408.075,215.348Z" transform="translate(-75.704 -147.444)" fill="#ffbe9d"/>
      <path id="Path_3930" data-name="Path 3930" d="M298.72,219.99a4.682,4.682,0,0,0,4.507,4.726,4.478,4.478,0,0,0,4.828-4.215,4.682,4.682,0,0,0-4.493-4.726,4.478,4.478,0,0,0-4.843,4.215Z" transform="translate(-71.777 -125.495)" fill="#263238"/>
      <path id="Path_3931" data-name="Path 3931" d="M295.03,211.1c.583.613,4.128-2,9.16-1.984s8.752,2.553,9.262,1.94c.277-.277-.321-1.371-1.925-2.553a12.865,12.865,0,0,0-7.41-2.3,12.427,12.427,0,0,0-7.293,2.334C295.22,209.73,294.695,210.824,295.03,211.1Z" transform="translate(-73.514 -129.88)" fill="#263238"/>
      <path id="Path_3932" data-name="Path 3932" d="M328.8,219.995a4.682,4.682,0,0,0,4.507,4.726,4.463,4.463,0,0,0,4.828-4.23,4.682,4.682,0,0,0-4.492-4.726,4.478,4.478,0,0,0-4.843,4.23Z" transform="translate(-57.982 -125.5)" fill="#263238"/>
      <path id="Path_3933" data-name="Path 3933" d="M327.752,211.1c.583.613,4.142-2,9.175-1.984s8.752,2.553,9.262,1.94c.263-.277-.321-1.371-1.925-2.553a12.952,12.952,0,0,0-7.366-2.3,12.5,12.5,0,0,0-7.293,2.334C328,209.73,327.475,210.824,327.752,211.1Z" transform="translate(-58.495 -129.879)" fill="#263238"/>
      <path id="Path_3934" data-name="Path 3934" d="M321.011,249.832c0-.277-3.107-.831-8.183-1.459-1.284-.131-2.494-.394-2.713-1.269a6.491,6.491,0,0,1,.875-3.807q1.823-4.653,3.822-9.787c5.309-13.915,9.146-25.365,8.591-25.569s-5.324,10.9-10.633,24.8q-1.925,5.134-3.661,9.831a7.468,7.468,0,0,0-.685,5.047,3.209,3.209,0,0,0,2.115,1.882,7.846,7.846,0,0,0,2.173.306C317.744,250.095,320.909,250.124,321.011,249.832Z" transform="translate(-67.405 -129.082)" fill="#263238"/>
      <path id="Path_3935" data-name="Path 3935" d="M362.847,265.79s-11.873,25.1-48.367,21.558v-8.577a91.893,91.893,0,0,0,48.367-12.982Z" transform="translate(-64.55 -102.551)" fill="#eb996e"/>
      <path id="Path_3936" data-name="Path 3936" d="M328.829,198.249c.5,1.371,5.514.729,11.421,1.459s10.677,2.348,11.465,1.123c.35-.6-.481-1.882-2.407-3.209a18.962,18.962,0,0,0-8.489-2.917,19.3,19.3,0,0,0-8.941,1.021C329.7,196.528,328.61,197.593,328.829,198.249Z" transform="translate(-57.982 -135.217)" fill="#263238"/>
      <path id="Path_3937" data-name="Path 3937" d="M296.131,200.63c.875,1.152,4.376,0,8.518-.073s7.7.788,8.518-.408c.35-.583-.2-1.721-1.736-2.815a12.369,12.369,0,0,0-13.725.394C296.219,198.894,295.738,200.076,296.131,200.63Z" transform="translate(-73.025 -134.811)" fill="#263238"/>
      <path id="Path_3938" data-name="Path 3938" d="M298.216,185.495c2.232-5.484,8.256-8.752,14.163-9.073s11.669,1.94,16.832,4.9c21.719,12.559,32.892,42.883,54.348,55.879,5.28,3.194,12.15.263,16.643,4.493s7.4,11,4.915,16.643a51.167,51.167,0,0,0,7.453-12.588c1.634-4.624,1.838-9.977-.613-14.221-1.852-3.224-5.134-5.674-6.024-9.277-.8-3.18.452-6.491.321-9.758a21.4,21.4,0,0,0-3.34-9.306c-8.416-14.863-19.983-28.312-34.875-36.684a61.8,61.8,0,0,0-32.017-8.27,47.23,47.23,0,0,0-30.514,12.092c-4.8,4.478-9.846,9.1-7.293,15.169" transform="translate(-72.323 -151.882)" fill="#263238"/>
      <path id="Path_3939" data-name="Path 3939" d="M367.56,219.167c.379-1.05,19.414-7.906,19.662,12.311.248,19.647-19.574,15.782-19.618,15.213S367.56,219.167,367.56,219.167Z" transform="translate(-40.207 -124.832)" fill="#ffbe9d"/>
      <path id="Path_3940" data-name="Path 3940" d="M371.706,237.189c.088,0,.335.233.919.5a3.472,3.472,0,0,0,2.567,0c2.057-.773,3.778-4.1,3.836-7.629a11.274,11.274,0,0,0-.992-4.9,3.982,3.982,0,0,0-2.611-2.6,1.721,1.721,0,0,0-2,.948c-.263.554-.131.948-.248.977s-.423-.321-.263-1.138a2.188,2.188,0,0,1,.758-1.225,2.538,2.538,0,0,1,1.882-.525,4.784,4.784,0,0,1,3.6,3.019,11.435,11.435,0,0,1,1.24,5.455c-.087,3.967-2.071,7.687-4.915,8.533a3.646,3.646,0,0,1-3.121-.481C371.736,237.67,371.633,237.232,371.706,237.189Z" transform="translate(-38.315 -122.828)" fill="#eb996e"/>
      <path id="Path_3941" data-name="Path 3941" d="M406.16,232.431a7.791,7.791,0,0,1-1.181-.656c-.758-.481-1.925-1.123-3.3-2.1a67.227,67.227,0,0,1-10.619-9.656A190.335,190.335,0,0,1,378.1,203.172a153.758,153.758,0,0,0-16.205-20.187,61.511,61.511,0,0,0-10.473-8.27,51.534,51.534,0,0,0-11.29-5.134,55.981,55.981,0,0,0-20.814-2.553,53.865,53.865,0,0,0-13.944,2.728c-1.619.5-2.815,1.036-3.647,1.356a7.482,7.482,0,0,1-1.284.452,9.446,9.446,0,0,1,1.211-.613,31.566,31.566,0,0,1,3.6-1.459,50.263,50.263,0,0,1,14.017-3.034,55.7,55.7,0,0,1,21.106,2.334,51.46,51.46,0,0,1,11.508,5.163,62.72,62.72,0,0,1,10.633,8.387,150.527,150.527,0,0,1,16.249,20.42,203.108,203.108,0,0,0,12.777,16.905,73.367,73.367,0,0,0,10.341,9.8c1.342,1.006,2.465,1.692,3.18,2.217a8.009,8.009,0,0,1,1.094.744Z" transform="translate(-70.988 -148.19)" fill="#455a64"/>
      <path id="Path_3942" data-name="Path 3942" d="M374.225,234.68a3.865,3.865,0,1,1-.919.292" transform="translate(-38.602 -116.848)" fill="#fff"/>
      <path id="Path_3943" data-name="Path 3943" d="M373.4,235.007a5.325,5.325,0,0,0-1.765,2.64,3.326,3.326,0,0,0,.759,3.078,3.442,3.442,0,0,0,6.053-1.911,3.34,3.34,0,0,0-1.167-2.917,5.237,5.237,0,0,0-2.917-1.138,1.771,1.771,0,0,1,.919-.219,4.011,4.011,0,0,1,2.451.861,3.938,3.938,0,0,1,1.575,3.544,4.215,4.215,0,0,1-7.483,2.378,3.938,3.938,0,0,1-.758-3.792,3.88,3.88,0,0,1,1.459-2.115C373.03,235.021,373.38,234.963,373.4,235.007Z" transform="translate(-38.69 -116.883)" fill="#263238"/>
      <path id="Path_3944" data-name="Path 3944" d="M377.579,224.213c.306,5.368.554,11.027-1.925,15.8s-8.752,8.022-13.39,5.353c-3.807-2.173-4.945-7.06-5.6-11.392-1.852-12.515-2.713-25.161-4.682-37.661Z" transform="translate(-47.352 -134.415)" fill="#263238"/>
      <path id="Path_3945" data-name="Path 3945" d="M301.32,170.81c0,.1,1.736-.335,4.872-.438A33.956,33.956,0,0,1,319.2,172.75a42.9,42.9,0,0,1,8.139,4.2,86.445,86.445,0,0,1,8.4,6.418A100.291,100.291,0,0,1,352.2,201.105c2.494,3.5,4.711,7.1,7.1,10.444a50.924,50.924,0,0,0,7.876,8.854,88.082,88.082,0,0,0,16.6,11.1c5.032,2.655,9.233,4.522,12.136,5.834l3.355,1.459a5.933,5.933,0,0,0,1.211.438,5.633,5.633,0,0,0-1.109-.627l-3.282-1.619c-2.917-1.459-6.987-3.384-11.931-6.112a90.842,90.842,0,0,1-16.307-11.231,49.756,49.756,0,0,1-7.672-8.752c-2.348-3.3-4.551-6.9-7.074-10.444a98.7,98.7,0,0,0-16.686-17.868,86.2,86.2,0,0,0-8.577-6.418,42.81,42.81,0,0,0-8.358-4.157,32.629,32.629,0,0,0-13.3-2.071,22.564,22.564,0,0,0-3.632.511,4.666,4.666,0,0,0-1.225.365Z" transform="translate(-70.585 -146.532)" fill="#455a64"/>
      <path id="Path_3946" data-name="Path 3946" d="M369.9,215.049a8.913,8.913,0,0,0,1.736,1.167l4.988,2.917,1.663.948a5.1,5.1,0,0,0,2.159.715,2.071,2.071,0,0,0,1.327-.306,1.721,1.721,0,0,0,.729-1.3,4.375,4.375,0,0,0-.919-2.48l-5.834-9.248-.788.715a20.6,20.6,0,0,0,13.346,3.982,5.659,5.659,0,0,0,1.794-.306,2.407,2.407,0,0,0,1.459-1.327,2.129,2.129,0,0,0-.335-1.984,7.684,7.684,0,0,0-1.108-1.225,40.942,40.942,0,0,1-6.7-8.445,70.67,70.67,0,0,1-4.259-9.043,10.3,10.3,0,0,0,.627,2.64,35.662,35.662,0,0,0,2.917,6.8,38.974,38.974,0,0,0,6.651,8.752c.729.7,1.459,1.459,1.182,2.115s-1.357.934-2.392.934a19.765,19.765,0,0,1-6.651-.8,20.013,20.013,0,0,1-5.995-2.917l-2.334-1.721,1.561,2.436,5.834,9.175a3.734,3.734,0,0,1,.831,1.925c0,.554-.5.875-1.123.831a9.743,9.743,0,0,1-3.53-1.459l-5.134-2.625a9.072,9.072,0,0,0-1.707-.861Z" transform="translate(-39.134 -137.387)" fill="#455a64"/>
      <path id="Path_3947" data-name="Path 3947" d="M334.124,244.572a6.564,6.564,0,0,0-6.783-4.988,6.811,6.811,0,0,0-5.28,3.749,8.445,8.445,0,0,0-.306,6.578l.117.467a7.483,7.483,0,0,0,8.416,1.794,6.987,6.987,0,0,0,3.836-7.6Z" transform="translate(-61.454 -114.575)" fill="#eb996e"/>
      <path id="Path_3948" data-name="Path 3948" d="M319.16,251.584c0-.758,5.091-.525,8.927-4.7s3.53-9.627,4.245-9.627c.321,0,.934,1.254.875,3.559a12.661,12.661,0,0,1-3.253,8.037,11.071,11.071,0,0,1-7.468,3.617C320.386,252.561,319.117,251.934,319.16,251.584Z" transform="translate(-62.404 -115.635)" fill="#263238"/>
      <path id="Path_3949" data-name="Path 3949" d="M478.884,459a1.3,1.3,0,0,1-.336,0l-1.021.1-3.895.321c-3.384.277-8.285.6-14.353.963-12.121.715-28.88,1.459-47.4,1.765s-35.327.131-47.463-.19c-6.068-.146-10.983-.321-14.367-.467l-3.909-.2h3.909l14.382.248c12.136.175,28.91.263,47.434,0s35.269-.963,47.39-1.546l14.367-.715,3.909-.175h1.006Z" transform="translate(-50.654 -13.944)" fill="#fff"/>
    </g>
  </g>
</svg>
