<svg xmlns="http://www.w3.org/2000/svg" xmlns:xlink="http://www.w3.org/1999/xlink" width="46" height="42" viewBox="0 0 46 42">
  <defs>
    <clipPath id="clip-_2">
      <rect width="46" height="42"/>
    </clipPath>
  </defs>
  <g id="_2" data-name="2" clip-path="url(#clip-_2)">
    <g id="_107737" data-name="107737" transform="translate(-27.782 0)">
      <path id="Path_4502" data-name="Path 4502" d="M65.768,113.417a1.259,1.259,0,0,0-2.518,0,12.475,12.475,0,1,1-24.95,0,1.259,1.259,0,0,0-2.518,0,15.013,15.013,0,0,0,13.734,14.94v4.455H43.908a1.259,1.259,0,1,0,0,2.518H57.642a1.259,1.259,0,1,0,0-2.518H52.034v-4.455A15.013,15.013,0,0,0,65.768,113.417Z" transform="translate(0 -93.33)" fill="#b5b3b3"/>
      <path id="Path_4503" data-name="Path 4503" d="M84.814,28.213a8.135,8.135,0,0,0,8.126-8.126V8.126a8.126,8.126,0,0,0-16.252,0V20.087A8.135,8.135,0,0,0,84.814,28.213ZM79.206,8.126a5.608,5.608,0,0,1,11.216,0V20.087a5.608,5.608,0,0,1-11.216,0Z" transform="translate(-34.039)" fill="#b5b3b3"/>
    </g>
  </g>
</svg>
