<svg id="_1827504" data-name="1827504" xmlns="http://www.w3.org/2000/svg" width="49.081" height="53.543" viewBox="0 0 49.081 53.543">
  <path id="Path_4459" data-name="Path 4459" d="M141.7,426.039a8.376,8.376,0,0,1-8.366-8.366,1.673,1.673,0,0,1,3.346,0,5.02,5.02,0,0,0,10.039,0,1.673,1.673,0,0,1,3.346,0A8.376,8.376,0,0,1,141.7,426.039Zm0,0" transform="translate(-119.389 -372.496)" fill="#b5b3b3"/>
  <path id="Path_4460" data-name="Path 4460" d="M40.715,104.158H3.9a3.905,3.905,0,0,1-2.539-6.871,1.542,1.542,0,0,1,.179-.134A14.994,14.994,0,0,0,6.693,85.841V79.617A15.635,15.635,0,0,1,22.309,64a6.72,6.72,0,0,1,1.1.067,1.672,1.672,0,1,1-.549,3.3,3.511,3.511,0,0,0-.551-.02,12.285,12.285,0,0,0-12.27,12.27v6.224a18.349,18.349,0,0,1-6.476,13.99c-.033.027-.063.051-.1.076a.552.552,0,0,0-.118.346.564.564,0,0,0,.558.558H40.715a.564.564,0,0,0,.558-.558.533.533,0,0,0-.121-.346c-.033-.025-.062-.049-.1-.076a18.345,18.345,0,0,1-6.476-13.99V83.41a1.673,1.673,0,0,1,3.346,0v2.431a15,15,0,0,0,5.156,11.318,1.626,1.626,0,0,1,.172.129,3.9,3.9,0,0,1-2.539,6.869Zm0,0" transform="translate(0 -57.307)" fill="#b5b3b3"/>
  <path id="Path_4461" data-name="Path 4461" d="M267.155,22.309a11.155,11.155,0,1,1,11.155-11.155A11.167,11.167,0,0,1,267.155,22.309Zm0-18.963a7.808,7.808,0,1,0,7.808,7.809,7.817,7.817,0,0,0-7.808-7.809Zm0,0" transform="translate(-229.228)" fill="#b5b3b3"/>
</svg>
