<svg xmlns="http://www.w3.org/2000/svg" width="640.422" height="602.165" viewBox="0 0 640.422 602.165">
  <g id="Upvote-pana" transform="translate(-50.79 -80.078)">
    <g id="freepik--Floor--inject-207" transform="translate(50.79 664.524)">
      <path id="Path_4200" data-name="Path 4200" d="M691.212,455.086c0,.234-143.38.406-320.2.406S50.79,455.32,50.79,455.086s143.334-.406,320.227-.406S691.212,454.867,691.212,455.086Z" transform="translate(-50.79 -454.68)" fill="#263238"/>
    </g>
    <g id="freepik--Character--inject-207" transform="translate(232.754 80.078)">
      <path id="Path_4201" data-name="Path 4201" d="M329.765,197.34c-.967,1.17-1.014,10.921-1.014,10.921s-22.857,39-26.039,39.535-17.037-27.053-17.037-27.053L271.43,233.848s7.426,34.854,30.642,40.83c10.921,2.824,30.08-31.921,42.842-60.847.2-.452,6.818-16.179,6.818-16.179Z" transform="translate(-109.156 -14.391)" fill="#a56959"/>
      <rect id="Rectangle_335" data-name="Rectangle 335" width="7.099" height="152.585" transform="translate(198.037 88.938) rotate(-18.04)" fill="#263238"/>
      <rect id="Rectangle_336" data-name="Rectangle 336" width="7.099" height="152.585" transform="translate(194.485 89.661) rotate(-18.072)" fill="#455a64"/>
      <rect id="Rectangle_337" data-name="Rectangle 337" width="102.441" height="82.705" transform="translate(133.498 31.724) rotate(-18.04)" fill="#8dc63f"/>
      <g id="Group_309" data-name="Group 309" transform="translate(133.498 0)" opacity="0.3">
        <rect id="Rectangle_338" data-name="Rectangle 338" width="102.441" height="82.705" transform="translate(0 31.724) rotate(-18.04)"/>
      </g>
      <rect id="Rectangle_339" data-name="Rectangle 339" width="102.441" height="82.705" transform="translate(129.997 32.86) rotate(-18.04)" fill="#8dc63f"/>
      <path id="Path_4202" data-name="Path 4202" d="M282.83,122.137,286.122,121l3.713-12.481-2.293-6.6s4.993-2.091,7.4,6.756,2.293,6.412,2.293,6.412,10.843-3.729,12.076-3.12c.889.452,4.93,11.108,7.083,16.912a6.693,6.693,0,0,1-2.262,7.926,5.691,5.691,0,0,1-1.108.562c-2.715.936-17.287,3.557-17.287,3.557l-5.695,1.981Z" transform="translate(-102.77 -67.965)" fill="#fff"/>
      <path id="Path_4203" data-name="Path 4203" d="M276.37,116.545l9.892,21.874,5.648-1.966L284.2,114.33Z" transform="translate(-106.389 -60.891)" fill="#fff"/>
      <path id="Path_4204" data-name="Path 4204" d="M326.729,197.376a.747.747,0,0,1-.094.343c-.671,1.56-3.822,5.975-4.9,5.757s-2.855,0-2.356-2.84a46.177,46.177,0,0,1,3.635-6.1s.843-1.03,3.23-.109C327.712,195,326.729,197.376,326.729,197.376Z" transform="translate(-82.343 -16.237)" fill="#a56959"/>
      <path id="Path_4205" data-name="Path 4205" d="M325.412,194.437a.828.828,0,0,1-.109.374c-.78,1.81-5.039,9.143-6.116,8.955s-3.417-2.215-3.042-3.292,5.632-9.065,5.632-9.065.921-1.217,3.308-.3C326.551,191.675,325.412,194.437,325.412,194.437Z" transform="translate(-84.13 -18.072)" fill="#a56959"/>
      <path id="Path_4206" data-name="Path 4206" d="M323.1,192.014a.961.961,0,0,1-.109.39c-.764,1.794-5.039,9.143-6.116,8.94s-3.417-2.2-3.042-3.276,5.648-9.08,5.648-9.08.9-1.2,3.292-.3C324.256,189.268,323.1,192.014,323.1,192.014Z" transform="translate(-85.424 -19.425)" fill="#a56959"/>
      <path id="Path_4207" data-name="Path 4207" d="M320.782,189.667a.926.926,0,0,1-.109.374c-.78,1.794-5.039,9.143-6.116,8.955s-3.417-2.215-3.042-3.292,5.632-9.065,5.632-9.065.921-1.217,3.308-.3C321.936,186.905,320.782,189.667,320.782,189.667Z" transform="translate(-86.724 -20.744)" fill="#a56959"/>
      <path id="Path_4208" data-name="Path 4208" d="M318.77,201.426a16.071,16.071,0,0,0,2.371-3.417,16.74,16.74,0,0,0,1.888-3.62,15.712,15.712,0,0,0-2.371,3.4A16.647,16.647,0,0,0,318.77,201.426Z" transform="translate(-82.637 -16.043)" fill="#7c4435"/>
      <path id="Path_4209" data-name="Path 4209" d="M316,200.953a30.553,30.553,0,0,0,3.292-4.883,31.94,31.94,0,0,0,2.84-5.18,35.051,35.051,0,0,0-3.292,4.9A33.759,33.759,0,0,0,316,200.953Z" transform="translate(-84.189 -18.004)" fill="#7c4435"/>
      <g id="Group_310" data-name="Group 310" transform="translate(228.207 170.031)" opacity="0.78">
        <path id="Path_4210" data-name="Path 4210" d="M313.69,197.485a23.655,23.655,0,0,0,2.949-4.072,23.031,23.031,0,0,0,2.5-4.353,24.962,24.962,0,0,0-2.949,4.088,23.2,23.2,0,0,0-2.5,4.337Z" transform="translate(-313.69 -189.06)" fill="#7c4435"/>
      </g>
      <path id="Path_4211" data-name="Path 4211" d="M310.365,211.874l-1.56-6.849a11.92,11.92,0,0,1,1.4-8.753l1.2-2.013,15.6,7.879s-4.353,4.524-8.113,1.654c2.543,3.12,2.574,8.893.952,13.4Z" transform="translate(-88.383 -16.116)" fill="#a56959"/>
      <path id="Path_4212" data-name="Path 4212" d="M319.293,210.125c-.094,0,0-.78-.14-2.122a7.8,7.8,0,0,0-2.684-4.681l-1.435-1.139,1.747.562,3.869,1.248h-.078a4.54,4.54,0,0,0,4.478-1.857c.078-.125.14-.265.187-.343l.2.5c-4.306-1.95-8.175-3.776-10.921-5.258a22.842,22.842,0,0,1-4.259-2.605,39.187,39.187,0,0,1,4.509,2.106c2.777,1.342,6.662,3.12,10.921,5.024l.343.156-.125.343a4.961,4.961,0,0,1-.25.5,4.681,4.681,0,0,1-2.418,1.919,6.241,6.241,0,0,1-2.84.281h-.078l-3.854-1.342.328-.577a7.692,7.692,0,0,1,2.652,5.149A4.088,4.088,0,0,1,319.293,210.125Z" transform="translate(-87.404 -16.021)" fill="#7c4435"/>
      <path id="Path_4213" data-name="Path 4213" d="M319.893,198.913c.156,0-.218.811-.125,1.935a1.42,1.42,0,0,0,1,1.295,2.169,2.169,0,0,0,1.935-.967c1.139-1.482,2.278-2.808,2.98-3.791s1.092-1.669,1.217-1.56-.125.8-.733,1.919a37.522,37.522,0,0,1-2.855,4.01,2.793,2.793,0,0,1-2.7,1.155,1.981,1.981,0,0,1-1.42-1.981,3.323,3.323,0,0,1,.374-1.56C319.721,199.038,319.846,198.882,319.893,198.913Z" transform="translate(-82.402 -15.246)" fill="#7c4435"/>
      <path id="Path_4214" data-name="Path 4214" d="M198.843,200.988S220.42,243.394,223.6,244s16.444-25.6,16.444-25.6l20.111,15.961s-13.121,31.048-33.513,40.362c-10.3,4.681-30.065-31.937-42.842-60.847L177,197.79" transform="translate(-162.053 -14.139)" fill="#a56959"/>
      <path id="Path_4215" data-name="Path 4215" d="M203.308,217.746s-.546-2.153-2.652-8.144l.218-15.243s-2.637-1.872-3.12,5.1a3.417,3.417,0,0,1-6.724.3,5.492,5.492,0,0,1,8-6.241s2.091-.78,1.56-2.45-6.912-3.308-10.188-.3a12.918,12.918,0,0,0-3.12,4.478s-5.476-13.215-6.568-12.825-2.153,1.888,3.963,16.319c0,0-5.882-10.921-6.8-12.169s-3.292-1.326-1.779,2.34l4.837,11.655s-4.79-6.6-5.211-7.114c-1.108-1.342-2.527-.437-1.669,1.638l3.354,8.331,8.955,20.548h-.14" transform="translate(-163.851 -22.752)" fill="#a56959"/>
      <path id="Path_4216" data-name="Path 4216" d="M180.53,199.556a12.035,12.035,0,0,1,1.295.421,6.241,6.241,0,0,1,2.652,1.9l.234.265.094-.343a9.792,9.792,0,0,1,.452-1.155,8.129,8.129,0,0,1,2.73-3.12c.889-.593,1.56-.8,1.56-.858a3.807,3.807,0,0,0-1.669.624,7.489,7.489,0,0,0-2.933,3.12,7.958,7.958,0,0,0-.468,1.233l.328-.078a6.007,6.007,0,0,0-2.871-1.888A3.12,3.12,0,0,0,180.53,199.556Z" transform="translate(-160.076 -14.766)" fill="#7c4435"/>
      <path id="Path_4217" data-name="Path 4217" d="M256.737,150.587a13.168,13.168,0,0,0-13.761-6.381,17.3,17.3,0,0,0-12.185,9.767,25.649,25.649,0,0,0-1.56,15.883c1.014,5.336,3.308,10.921,1.482,16.007a17.411,17.411,0,0,1-6.241,7.536,66.551,66.551,0,0,0-7.8,6.1,11.514,11.514,0,0,0-3.76,8.877c.328,3.308,3.339,6.412,6.631,5.975-4.681,3.588-5.71,10.547-3.51,15.961s7.114,9.361,12.481,11.733c4.4,1.935,9.47,2.933,14.042,1.373a17.365,17.365,0,0,0,9.907-10.126,38.817,38.817,0,0,0,2.34-14.338c.109-7.91-.749-16.132-4.821-22.9.452,2.684,3.947,4.1,6.412,2.949a6.833,6.833,0,0,0,3.464-6.834,13.277,13.277,0,0,0-3.526-7.208c-1.779-2.075-3.869-3.838-5.663-5.882-3.573-4.072-5.929-9.548-5.071-14.884s5.648-10.172,11.046-9.907" transform="translate(-141.94 -44.274)" fill="#263238"/>
      <path id="Path_4218" data-name="Path 4218" d="M218.576,193.121a3.752,3.752,0,0,0,.3-.874,3.7,3.7,0,0,0-.39-2.5,3.37,3.37,0,0,0-3.292-1.841,4.29,4.29,0,0,0-3.776,3.12,5.289,5.289,0,0,0,2.34,5.539,7.426,7.426,0,0,0,7.13.312,12.871,12.871,0,0,0,5.866-5.741,18.083,18.083,0,0,0,2.059-8.721,32.982,32.982,0,0,0-1.7-8.955,26.8,26.8,0,0,1-1.357-8.6,20.283,20.283,0,0,1,6.147-13.152,28.49,28.49,0,0,1,8.144-5.57c1.061-.484,1.919-.8,2.5-1.014a3.714,3.714,0,0,1,.9-.25,6.777,6.777,0,0,1-.842.406c-.562.25-1.389.608-2.418,1.139a30.018,30.018,0,0,0-7.8,5.695,19.923,19.923,0,0,0-5.8,12.778,26.4,26.4,0,0,0,1.373,8.347A33.341,33.341,0,0,1,229.7,182.4a18.8,18.8,0,0,1-2.169,9.111,13.636,13.636,0,0,1-6.241,6.053,8.144,8.144,0,0,1-7.8-.437,5.9,5.9,0,0,1-2.528-6.241,4.759,4.759,0,0,1,4.306-3.51,3.682,3.682,0,0,1,2.309.624,4.071,4.071,0,0,1,1.295,1.56,3.682,3.682,0,0,1,.265,2.683,1.982,1.982,0,0,1-.562.874Z" transform="translate(-143.11 -43.778)" fill="#263238"/>
      <path id="Path_4219" data-name="Path 4219" d="M182.031,443.88l-1.092,4.15s-15.025,24.448-13.246,26.726a9.611,9.611,0,0,0,10.422,3.261c5.227-1.311,27.288-22.279,27.288-22.279l1.264-3.339Z" transform="translate(-167.349 123.715)" fill="#8dc63f"/>
      <g id="Group_311" data-name="Group 311" transform="translate(0 577.671)" opacity="0.3">
        <path id="Path_4220" data-name="Path 4220" d="M169.261,465.6s6.506-2.871,10.25,5.523c0,0,2.824-1.045,10.625-7.582s15.337-12.918,15.337-12.918.811-.64.562,0-.562,1.779-.562,1.779l-15.056,13.277s-9.033,7.8-11.3,8.347-4.54,1.389-7.411.094a7.941,7.941,0,0,1-4.291-3.713C167.42,470.093,169.261,465.6,169.261,465.6Z" transform="translate(-167.42 -450.338)"/>
      </g>
      <path id="Path_4221" data-name="Path 4221" d="M179.6,468.716a16.3,16.3,0,0,0-.8-2.091,11.982,11.982,0,0,0-3.12-4.212A11.718,11.718,0,0,0,171,460.057c-1.326-.328-2.2-.328-2.184-.421a5.646,5.646,0,0,1,2.262.094,10.734,10.734,0,0,1,4.93,2.309,10.921,10.921,0,0,1,3.12,4.462A5.18,5.18,0,0,1,179.6,468.716Z" transform="translate(-166.636 132.501)" fill="#263238"/>
      <path id="Path_4222" data-name="Path 4222" d="M206.641,449.84a2.025,2.025,0,0,1-.359.359l-1.045.936-3.916,3.386-13.059,11.062a55.671,55.671,0,0,1-7.52,5.71,12.123,12.123,0,0,1-7.473,1.779,7.8,7.8,0,0,1-4.68-2.34,4.369,4.369,0,0,1-1-1.638,8.834,8.834,0,0,0,1.139,1.56,7.552,7.552,0,0,0,4.525,2.137,11.982,11.982,0,0,0,7.208-1.825,57.472,57.472,0,0,0,7.426-5.71l13.152-10.921,4.01-3.261,1.108-.874A3.143,3.143,0,0,1,206.641,449.84Z" transform="translate(-167.325 127.054)" fill="#263238"/>
      <path id="Path_4223" data-name="Path 4223" d="M179.326,457.713a16.285,16.285,0,0,1-2.777-1.732,16.588,16.588,0,0,1-2.7-1.841,8.3,8.3,0,0,1,2.964,1.435,8.644,8.644,0,0,1,2.512,2.137Z" transform="translate(-163.818 129.463)" fill="#263238"/>
      <path id="Path_4224" data-name="Path 4224" d="M181.861,455.25a22.827,22.827,0,0,1-3.417-1.42,23.9,23.9,0,0,1-3.354-1.56,16.787,16.787,0,0,1,6.771,2.98Z" transform="translate(-163.123 128.415)" fill="#263238"/>
      <path id="Path_4225" data-name="Path 4225" d="M183.906,453.5c-.094.109-1.451-1.077-3.432-2.044s-3.729-1.326-3.713-1.467a7.91,7.91,0,0,1,3.932,1.03,8.02,8.02,0,0,1,3.214,2.481Z" transform="translate(-162.188 127.138)" fill="#263238"/>
      <path id="Path_4226" data-name="Path 4226" d="M184.746,450.948c-.094.125-1.357-.8-3.12-1.56s-3.276-1.108-3.245-1.248a9.486,9.486,0,0,1,6.334,2.824Z" transform="translate(-161.281 126.102)" fill="#263238"/>
      <path id="Path_4227" data-name="Path 4227" d="M183.743,449.993a6.133,6.133,0,0,1-1.857-1.248,14.038,14.038,0,0,1-1.7-1.747,11.621,11.621,0,0,1-.843-1.155,2.609,2.609,0,0,1-.39-.718.967.967,0,0,1,.156-.967,1.56,1.56,0,0,1,1.7-.187,3.245,3.245,0,0,1,1.248.858,4.681,4.681,0,0,1,1.139,2.2,6.971,6.971,0,0,1,.156,1.638c0,.39,0,.593-.094.593a18.981,18.981,0,0,0-.406-2.153,4.463,4.463,0,0,0-1.123-1.966,3.355,3.355,0,0,0-1.092-.733,1.139,1.139,0,0,0-1.17.078c-.234.25,0,.7.265,1.092a13.325,13.325,0,0,0,.811,1.139,15.76,15.76,0,0,0,1.56,1.779C183.057,449.432,183.743,449.931,183.743,449.993Z" transform="translate(-160.996 123.672)" fill="#263238"/>
      <path id="Path_4228" data-name="Path 4228" d="M181.894,448.986a1.56,1.56,0,0,1,.172-.593,6.441,6.441,0,0,1,.889-1.435,6.506,6.506,0,0,1,1.981-1.56,6.243,6.243,0,0,1,1.4-.531,2.061,2.061,0,0,1,.874,0,.968.968,0,0,1,.718.7,2.013,2.013,0,0,1-.655,1.56,6.239,6.239,0,0,1-1.139,1,5.835,5.835,0,0,1-2.34.92,5.071,5.071,0,0,1-1.685,0c-.39,0-.593-.156-.593-.187a11.385,11.385,0,0,0,2.215-.172,5.849,5.849,0,0,0,2.153-.952,5.775,5.775,0,0,0,1.03-.936,1.56,1.56,0,0,0,.53-1.17c0-.359-.562-.437-1.014-.343a6.242,6.242,0,0,0-1.311.468,6.6,6.6,0,0,0-1.9,1.389,19.2,19.2,0,0,0-1.326,1.841Z" transform="translate(-159.521 124.242)" fill="#263238"/>
      <path id="Path_4229" data-name="Path 4229" d="M192.527,448.72a3.9,3.9,0,0,0-2.122.125,7.8,7.8,0,0,0-3.791,3.448,8.425,8.425,0,0,0-1,5.039c.156,1.357.515,2.137.437,2.169a4.432,4.432,0,0,1-.78-2.106,8.128,8.128,0,0,1,.921-5.351,7.52,7.52,0,0,1,4.1-3.526,2.372,2.372,0,0,1,2.231.2Z" transform="translate(-157.485 126.208)" fill="#263238"/>
      <path id="Path_4230" data-name="Path 4230" d="M186.108,454.9a25.868,25.868,0,0,1-5.4,4.587,13.341,13.341,0,0,1,2.543-2.481,12.484,12.484,0,0,1,2.855-2.106Z" transform="translate(-159.975 129.889)" fill="#263238"/>
      <path id="Path_4231" data-name="Path 4231" d="M186.126,453.88c.14,0,.312.312.406.718a1.02,1.02,0,0,1-.078.811c-.078.047-.312-.281-.406-.718S186,453.9,186.126,453.88Z" transform="translate(-157.013 129.317)" fill="#263238"/>
      <path id="Path_4232" data-name="Path 4232" d="M186.506,451.912c.14,0,.156.406,0,.811s-.281.718-.406.7-.172-.374,0-.811S186.381,451.865,186.506,451.912Z" transform="translate(-157.018 128.212)" fill="#263238"/>
      <path id="Path_4233" data-name="Path 4233" d="M187.742,450.239c.109.109,0,.39-.312.733s-.546.546-.655.484,0-.421.265-.78S187.664,450.146,187.742,450.239Z" transform="translate(-156.601 127.264)" fill="#263238"/>
      <path id="Path_4234" data-name="Path 4234" d="M189.579,449.215c0,.125-.218.374-.593.546s-.733.234-.811.125.2-.374.608-.562S189.548,449.09,189.579,449.215Z" transform="translate(-155.801 126.665)" fill="#263238"/>
      <path id="Path_4235" data-name="Path 4235" d="M191.61,449.09c0,.125-.374.25-.78.25s-.764-.109-.78-.25.328-.234.78-.25S191.626,448.888,191.61,449.09Z" transform="translate(-154.743 126.493)" fill="#263238"/>
      <path id="Path_4236" data-name="Path 4236" d="M313.468,450.379l-.109-2.949-29.909.858.25,9.735h1.857c8.238.2,41.86.5,47.3-1.2C338.914,455,313.468,450.379,313.468,450.379Z" transform="translate(-102.423 125.704)" fill="#8dc63f"/>
      <g id="Group_312" data-name="Group 312" transform="translate(181.074 575.549)" opacity="0.3">
        <path id="Path_4237" data-name="Path 4237" d="M294.479,456.657a9.6,9.6,0,0,0-3.978-5.8,10.531,10.531,0,0,0-7.021-1.825l.234,7.8Z" transform="translate(-283.48 -448.978)"/>
      </g>
      <g id="Group_313" data-name="Group 313" transform="translate(181.277 578.704)" opacity="0.3">
        <path id="Path_4238" data-name="Path 4238" d="M325.844,451s8.94,2.137,7.879,3.526-35.073,2.278-50.113,1.451v-.624l39.675-.718S324.112,451.156,325.844,451Z" transform="translate(-283.61 -451)"/>
      </g>
      <path id="Path_4239" data-name="Path 4239" d="M283.33,454.291h2l5.414.078c4.571,0,10.921,0,17.88-.172s13.293-.468,17.864-.733l5.414-.359,1.467-.125h-1.482l-5.414.234c-4.571.218-10.921.468-17.864.64s-13.293.25-17.864.281h-6.9Z" transform="translate(-102.49 128.813)" fill="#263238"/>
      <path id="Path_4240" data-name="Path 4240" d="M309.074,455.21a7.223,7.223,0,0,1,2.73-4.4,3.962,3.962,0,0,0-2.106,1.81,3.573,3.573,0,0,0-.624,2.59Z" transform="translate(-88.09 127.598)" fill="#263238"/>
      <path id="Path_4241" data-name="Path 4241" d="M303.355,451.961a3.341,3.341,0,0,0,.9-1.077c.406-.64.686-1.217.593-1.264s-.484.437-.9,1.092S303.277,451.915,303.355,451.961Z" transform="translate(-91.28 126.93)" fill="#263238"/>
      <path id="Path_4242" data-name="Path 4242" d="M301.783,450.99a3.457,3.457,0,0,0,1.03-.686c.5-.437.858-.858.78-.921s-.53.234-1.03.671S301.72,450.912,301.783,450.99Z" transform="translate(-92.157 126.794)" fill="#263238"/>
      <path id="Path_4243" data-name="Path 4243" d="M300.75,448.82a7.178,7.178,0,0,0,3.12,0,4.055,4.055,0,0,0-1.56-.14,3.727,3.727,0,0,0-1.56.14Z" transform="translate(-92.731 126.389)" fill="#263238"/>
      <path id="Path_4244" data-name="Path 4244" d="M300.38,447.58a4.55,4.55,0,0,0,3.542.156,11.229,11.229,0,0,0-1.779,0A11.614,11.614,0,0,0,300.38,447.58Z" transform="translate(-92.939 125.788)" fill="#263238"/>
      <path id="Path_4245" data-name="Path 4245" d="M304,450.463a5.915,5.915,0,0,0,1.919,0,12.18,12.18,0,0,0,2.013-.468,5.525,5.525,0,0,0,1.155-.484,1.061,1.061,0,0,0,.468-.562.7.7,0,0,0-.312-.7,3.7,3.7,0,0,0-4.322,1.061,2.981,2.981,0,0,0-.577,1.217.906.906,0,0,0,0,.468,5.212,5.212,0,0,1,.827-1.56,3.339,3.339,0,0,1,1.56-1.03,3.23,3.23,0,0,1,2.294,0c.312.2.2.53-.14.733a4.676,4.676,0,0,1-1.061.452,14.358,14.358,0,0,1-1.95.53C304.655,450.385,304,450.4,304,450.463Z" transform="translate(-90.911 125.994)" fill="#263238"/>
      <path id="Path_4246" data-name="Path 4246" d="M305.188,450.826a1.685,1.685,0,0,0,.187-1.248,2.932,2.932,0,0,0-.608-1.264,2,2,0,0,0-1.56-.874.718.718,0,0,0-.562.843,1.7,1.7,0,0,0,.343.78,5.337,5.337,0,0,0,.936,1.061,2.747,2.747,0,0,0,1.123.686s-.39-.312-.936-.858a5.46,5.46,0,0,1-.843-1.045c-.265-.374-.468-1.045,0-1.139a1.764,1.764,0,0,1,1.3.733,2.919,2.919,0,0,1,.577,1.139A6.837,6.837,0,0,1,305.188,450.826Z" transform="translate(-91.678 125.71)" fill="#263238"/>
      <path id="Path_4247" data-name="Path 4247" d="M283.58,449.086a11.641,11.641,0,0,1,2.2,0,10.312,10.312,0,0,1,4.852,1.716,9.143,9.143,0,0,1,3.12,3.869c.484,1.17.562,1.966.624,1.966a1.564,1.564,0,0,0,0-.562,7.291,7.291,0,0,0-.374-1.482,8.565,8.565,0,0,0-3.12-4.057,9.688,9.688,0,0,0-5.055-1.685,9.113,9.113,0,0,0-1.638.094C283.768,448.93,283.565,448.992,283.58,449.086Z" transform="translate(-102.35 126.498)" fill="#263238"/>
      <path id="Path_4248" data-name="Path 4248" d="M292.88,452.167a17.259,17.259,0,0,0,4.353.3,19.2,19.2,0,0,0,4.353-.437,34.664,34.664,0,0,0-4.353.094C294.83,452.214,292.9,452.011,292.88,452.167Z" transform="translate(-97.14 128.253)" fill="#263238"/>
      <path id="Path_4249" data-name="Path 4249" d="M289.145,452.205c-.078,0,.172.374.374.78s.343.78.437.764.14-.437-.109-.9S289.208,452.127,289.145,452.205Z" transform="translate(-99.24 128.371)" fill="#263238"/>
      <path id="Path_4250" data-name="Path 4250" d="M287.68,450.6a1.658,1.658,0,0,0,.452.64c.328.281.624.452.7.39s-.14-.359-.453-.64S287.742,450.542,287.68,450.6Z" transform="translate(-100.053 127.475)" fill="#263238"/>
      <path id="Path_4251" data-name="Path 4251" d="M285.641,449.971c0,.094.421,0,.858.218s.764.328.842.265-.187-.437-.733-.593S285.609,449.893,285.641,449.971Z" transform="translate(-101.196 127.033)" fill="#263238"/>
      <path id="Path_4252" data-name="Path 4252" d="M284.19,449.626a.794.794,0,0,0,.39.3,1.036,1.036,0,0,0,.515,0c.031,0-.14-.234-.39-.312S284.221,449.532,284.19,449.626Z" transform="translate(-102.008 126.894)" fill="#263238"/>
      <path id="Path_4253" data-name="Path 4253" d="M376.79,546.972,341.639,291.93h0l-1-16.429-88.056-4.181-3.729,13.839c-12.357,43.56-74.795,254.2-74.795,254.2l30.5,9.626,90.8-241.36L337.629,546.52Z" transform="translate(-163.7 27.051)" fill="#263238"/>
      <path id="Path_4254" data-name="Path 4254" d="M278.2,273.235c-.234,0-.468-.484-.53-1.123s.078-1.186.3-1.2.452.484.515,1.123S278.352,273.219,278.2,273.235Z" transform="translate(-105.671 26.821)" fill="#455a64"/>
      <path id="Path_4255" data-name="Path 4255" d="M278.8,280.02c-.234,0-.515-1-.64-2.278a4.254,4.254,0,0,1,.172-2.371c.172-.031.5,1,.64,2.293S279.016,279.988,278.8,280.02Z" transform="translate(-105.415 29.32)" fill="#455a64"/>
      <path id="Path_4256" data-name="Path 4256" d="M279.41,285.954c-.218,0-.5-.983-.64-2.262a4.333,4.333,0,0,1,.156-2.371,4.277,4.277,0,0,1,.655,2.278C279.723,284.877,279.644,285.938,279.41,285.954Z" transform="translate(-105.076 32.653)" fill="#455a64"/>
      <path id="Path_4257" data-name="Path 4257" d="M280.072,291.9c-.234,0-.53-1-.671-2.278a4.234,4.234,0,0,1,.156-2.356,4.255,4.255,0,0,1,.655,2.262C280.353,290.812,280.368,291.873,280.072,291.9Z" transform="translate(-104.723 35.986)" fill="#455a64"/>
      <path id="Path_4258" data-name="Path 4258" d="M280.74,297.844c-.218,0-.515-1-.671-2.278s-.078-2.34.14-2.356.53.983.671,2.262S280.959,297.813,280.74,297.844Z" transform="translate(-104.362 39.313)" fill="#455a64"/>
      <path id="Path_4259" data-name="Path 4259" d="M281.42,303.784c-.218,0-.515-1-.671-2.278s-.078-2.34.14-2.356.515.983.671,2.262S281.654,303.753,281.42,303.784Z" transform="translate(-103.981 42.641)" fill="#455a64"/>
      <path id="Path_4260" data-name="Path 4260" d="M282.138,309.714c-.234,0-.53-.983-.686-2.262s-.094-2.34.125-2.371.53,1,.687,2.278S282.356,309.636,282.138,309.714Z" transform="translate(-103.591 45.963)" fill="#455a64"/>
      <path id="Path_4261" data-name="Path 4261" d="M282.859,315.664c-.234,0-.53-1-.686-2.278s-.109-2.325.109-2.356.53.983.686,2.262S283.078,315.664,282.859,315.664Z" transform="translate(-103.189 49.296)" fill="#455a64"/>
      <path id="Path_4262" data-name="Path 4262" d="M283.589,321.584c-.218,0-.53-.983-.686-2.262s-.109-2.34.109-2.371.53.983.7,2.262S283.823,321.553,283.589,321.584Z" transform="translate(-102.78 52.612)" fill="#455a64"/>
      <path id="Path_4263" data-name="Path 4263" d="M284.341,327.514c-.218,0-.53-.983-.686-2.262s-.125-2.34.109-2.371.53,1,.686,2.262S284.575,327.483,284.341,327.514Z" transform="translate(-102.362 55.934)" fill="#455a64"/>
      <path id="Path_4264" data-name="Path 4264" d="M285.117,333.444c-.234,0-.546-.983-.7-2.262s-.125-2.34.094-2.371.546.983.7,2.262S285.382,333.413,285.117,333.444Z" transform="translate(-101.937 59.256)" fill="#455a64"/>
      <path id="Path_4265" data-name="Path 4265" d="M285.89,339.374c-.218,0-.53-.983-.7-2.262s-.125-2.34.094-2.371.546.983.718,2.262S286.108,339.343,285.89,339.374Z" transform="translate(-101.508 62.577)" fill="#455a64"/>
      <path id="Path_4266" data-name="Path 4266" d="M286.67,345.288c-.218,0-.53-.983-.7-2.247s-.125-2.34.094-2.371.546.983.718,2.262S286.9,345.257,286.67,345.288Z" transform="translate(-101.071 65.899)" fill="#455a64"/>
      <path id="Path_4267" data-name="Path 4267" d="M287.46,351.218c-.218,0-.53-.983-.7-2.262s-.125-2.34.094-2.356.53.967.7,2.247S287.694,351.187,287.46,351.218Z" transform="translate(-100.628 69.221)" fill="#455a64"/>
      <path id="Path_4268" data-name="Path 4268" d="M288.3,357.138c-.218,0-.546-.967-.718-2.247s-.125-2.34.094-2.371.546.983.718,2.262A4.094,4.094,0,0,1,288.3,357.138Z" transform="translate(-100.169 72.537)" fill="#455a64"/>
      <path id="Path_4269" data-name="Path 4269" d="M289.065,363.068c-.218,0-.546-.983-.718-2.262s-.125-2.325.094-2.356.546.967.718,2.247S289.284,363.037,289.065,363.068Z" transform="translate(-99.737 75.859)" fill="#455a64"/>
      <path id="Path_4270" data-name="Path 4270" d="M289.867,368.988c-.218,0-.53-.983-.718-2.247s-.125-2.34.094-2.371.546.983.718,2.262S290.1,368.957,289.867,368.988Z" transform="translate(-99.292 79.175)" fill="#455a64"/>
      <path id="Path_4271" data-name="Path 4271" d="M290.707,374.908c-.234,0-.562-.983-.733-2.262a4.839,4.839,0,0,1,0-2.356,4.169,4.169,0,0,1,.733,2.247C290.879,373.8,290.926,374.877,290.707,374.908Z" transform="translate(-98.837 82.492)" fill="#455a64"/>
      <path id="Path_4272" data-name="Path 4272" d="M291.585,380.8c-.218,0-.562-.967-.749-2.231a4.718,4.718,0,0,1,0-2.371,4.193,4.193,0,0,1,.749,2.247C291.773,379.726,291.8,380.772,291.585,380.8Z" transform="translate(-98.357 85.802)" fill="#455a64"/>
      <path id="Path_4273" data-name="Path 4273" d="M292.477,386.713c-.218,0-.562-.967-.749-2.247s-.172-2.325,0-2.356.562.967.749,2.231S292.7,386.619,292.477,386.713Z" transform="translate(-97.861 89.113)" fill="#455a64"/>
      <path id="Path_4274" data-name="Path 4274" d="M293.367,392.653c-.218,0-.562-.967-.749-2.247s-.172-2.325,0-2.356.562.967.764,2.231S293.586,392.653,293.367,392.653Z" transform="translate(-97.362 92.44)" fill="#455a64"/>
      <path id="Path_4275" data-name="Path 4275" d="M294.317,398.523c-.234,0-.562-.967-.749-2.247s-.172-2.325,0-2.356.562.967.749,2.247A4.84,4.84,0,0,1,294.317,398.523Z" transform="translate(-96.83 95.729)" fill="#455a64"/>
      <path id="Path_4276" data-name="Path 4276" d="M295.159,404.423c-.218,0-.546-.967-.749-2.231a4.342,4.342,0,0,1,0-2.371c.172-.031.546.967.749,2.247S295.409,404.392,295.159,404.423Z" transform="translate(-96.361 99.034)" fill="#455a64"/>
      <path id="Path_4277" data-name="Path 4277" d="M296.057,410.333c-.218,0-.562-.967-.749-2.247s-.172-2.325,0-2.356.562.967.764,2.231S296.276,410.3,296.057,410.333Z" transform="translate(-95.855 102.344)" fill="#455a64"/>
      <path id="Path_4278" data-name="Path 4278" d="M296.957,416.243c-.218,0-.562-.967-.749-2.247s-.172-2.325,0-2.356.562.967.764,2.247S297.176,416.212,296.957,416.243Z" transform="translate(-95.351 105.655)" fill="#455a64"/>
      <path id="Path_4279" data-name="Path 4279" d="M297.857,422.153c-.218,0-.562-.967-.749-2.231s-.172-2.34,0-2.371.562.967.749,2.247S298.076,422.122,297.857,422.153Z" transform="translate(-94.847 108.966)" fill="#455a64"/>
      <path id="Path_4280" data-name="Path 4280" d="M298.757,428.063c-.219,0-.562-.967-.749-2.231s-.172-2.34,0-2.371.562.967.749,2.247S298.976,428.032,298.757,428.063Z" transform="translate(-94.343 112.276)" fill="#455a64"/>
      <path id="Path_4281" data-name="Path 4281" d="M299.649,433.988c-.218,0-.546-.983-.749-2.247a4.341,4.341,0,0,1,0-2.371c.172-.031.546.967.749,2.247S299.883,433.942,299.649,433.988Z" transform="translate(-93.846 115.587)" fill="#455a64"/>
      <path id="Path_4282" data-name="Path 4282" d="M300.537,439.9c-.218,0-.546-.967-.749-2.247a4.5,4.5,0,0,1,0-2.371,4.261,4.261,0,0,1,.749,2.247C300.725,438.791,300.771,439.867,300.537,439.9Z" transform="translate(-93.346 118.898)" fill="#455a64"/>
      <path id="Path_4283" data-name="Path 4283" d="M301.427,445.818c-.234,0-.562-.983-.749-2.247s-.172-2.34,0-2.371.546.967.733,2.247S301.646,445.787,301.427,445.818Z" transform="translate(-92.847 122.214)" fill="#455a64"/>
      <path id="Path_4284" data-name="Path 4284" d="M301.962,449.46c-.218,0-.484-.452-.562-1.092s0-1.186.234-1.217.484.468.562,1.108S302.181,449.428,301.962,449.46Z" transform="translate(-92.383 125.547)" fill="#455a64"/>
      <path id="Path_4285" data-name="Path 4285" d="M192.582,445c.2,0,.234.624,0,1.233s-.53,1.061-.733,1-.234-.624,0-1.248S192.364,445,192.582,445Z" transform="translate(-153.827 124.343)" fill="#455a64"/>
      <path id="Path_4286" data-name="Path 4286" d="M194.645,439.231c.218,0,0,1.139-.328,2.387s-.9,2.2-1.108,2.122,0-1.123.328-2.371S194.488,439.169,194.645,439.231Z" transform="translate(-153.019 121.11)" fill="#455a64"/>
      <path id="Path_4287" data-name="Path 4287" d="M196.558,433.451c.218.078,0,1.139-.343,2.387s-.9,2.184-1.123,2.122,0-1.139.343-2.371S196.324,433.389,196.558,433.451Z" transform="translate(-151.968 117.872)" fill="#455a64"/>
      <path id="Path_4288" data-name="Path 4288" d="M198.459,427.681c.218.078,0,1.139-.359,2.387s-.92,2.184-1.139,2.122,0-1.139.359-2.387S198.241,427.619,198.459,427.681Z" transform="translate(-150.92 114.64)" fill="#455a64"/>
      <path id="Path_4289" data-name="Path 4289" d="M200.4,421.921c.2.078,0,1.139-.374,2.387s-.936,2.184-1.139,2.106,0-1.139.359-2.371S200.184,421.859,200.4,421.921Z" transform="translate(-149.837 111.413)" fill="#455a64"/>
      <path id="Path_4290" data-name="Path 4290" d="M202.368,416.172c.218.078,0,1.139-.39,2.371s-.936,2.184-1.139,2.122,0-1.139.374-2.387S202.149,416.094,202.368,416.172Z" transform="translate(-148.744 108.191)" fill="#455a64"/>
      <path id="Path_4291" data-name="Path 4291" d="M204.371,410.432c.218,0,0,1.139-.39,2.371s-.952,2.184-1.17,2.106,0-1.139.406-2.371S204.153,410.354,204.371,410.432Z" transform="translate(-147.643 104.976)" fill="#455a64"/>
      <path id="Path_4292" data-name="Path 4292" d="M206.387,404.692c.218.078,0,1.139-.39,2.371s-.967,2.184-1.186,2.106,0-1.139.406-2.371S206.184,404.614,206.387,404.692Z" transform="translate(-146.523 101.761)" fill="#455a64"/>
      <path id="Path_4293" data-name="Path 4293" d="M208.432,399c.218.078,0,1.139-.406,2.371s-.967,2.169-1.186,2.091,0-1.123.421-2.356S208.229,398.864,208.432,399Z" transform="translate(-145.385 98.57)" fill="#455a64"/>
      <path id="Path_4294" data-name="Path 4294" d="M210.5,393.242c.2.078,0,1.139-.421,2.371s-.983,2.169-1.186,2.091,0-1.139.421-2.371S210.277,393.164,210.5,393.242Z" transform="translate(-144.235 95.347)" fill="#455a64"/>
      <path id="Path_4295" data-name="Path 4295" d="M212.611,387.522c.2.078,0,1.139-.437,2.371s-.983,2.169-1.186,2.091,0-1.139.421-2.371S212.346,387.444,212.611,387.522Z" transform="translate(-143.058 92.142)" fill="#455a64"/>
      <path id="Path_4296" data-name="Path 4296" d="M214.694,381.812c.2.078,0,1.139-.452,2.371s-.983,2.169-1.2,2.091,0-1.139.452-2.371S214.476,381.734,214.694,381.812Z" transform="translate(-141.912 88.944)" fill="#455a64"/>
      <path id="Path_4297" data-name="Path 4297" d="M216.8,376.112c.218.078,0,1.139-.452,2.371s-.983,2.153-1.2,2.075,0-1.139.452-2.356S216.6,376.034,216.8,376.112Z" transform="translate(-140.73 85.751)" fill="#455a64"/>
      <path id="Path_4298" data-name="Path 4298" d="M218.94,370.412c.218,0,0,1.139-.452,2.371s-1,2.153-1.217,2.075,0-1.139.452-2.356S218.737,370.334,218.94,370.412Z" transform="translate(-139.543 82.558)" fill="#455a64"/>
      <path id="Path_4299" data-name="Path 4299" d="M221.1,364.722c.2,0,0,1.139-.468,2.371s-1,2.153-1.217,2.075,0-1.139.468-2.371S220.877,364.644,221.1,364.722Z" transform="translate(-138.344 79.37)" fill="#455a64"/>
      <path id="Path_4300" data-name="Path 4300" d="M223.261,359c.2.078,0,1.139-.468,2.371s-1.014,2.153-1.233,2.075,0-1.139.468-2.371S223.043,359,223.261,359Z" transform="translate(-137.139 76.168)" fill="#455a64"/>
      <path id="Path_4301" data-name="Path 4301" d="M225.429,353.352c.2,0,0,1.139-.468,2.356s-1.03,2.153-1.233,2.075,0-1.139.468-2.356S225.21,353.274,225.429,353.352Z" transform="translate(-135.921 73.001)" fill="#455a64"/>
      <path id="Path_4302" data-name="Path 4302" d="M227.639,347.672c.2.078,0,1.139-.484,2.356s-1.014,2.153-1.217,2.075,0-1.139.468-2.356S227.374,347.594,227.639,347.672Z" transform="translate(-134.683 69.819)" fill="#455a64"/>
      <path id="Path_4303" data-name="Path 4303" d="M229.807,342c.2.094,0,1.139-.484,2.371s-1.014,2.137-1.233,2.059,0-1.139.484-2.356S229.557,341.909,229.807,342Z" transform="translate(-133.481 66.642)" fill="#455a64"/>
      <path id="Path_4304" data-name="Path 4304" d="M232,336.322c.2.078,0,1.139-.484,2.356s-1.03,2.153-1.233,2.075,0-1.139.468-2.356S231.786,336.244,232,336.322Z" transform="translate(-132.247 63.461)" fill="#455a64"/>
      <path id="Path_4305" data-name="Path 4305" d="M234.2,330.652c.2.094,0,1.139-.484,2.356s-1.03,2.153-1.233,2.075,0-1.139.484-2.356S234,330.574,234.2,330.652Z" transform="translate(-131.014 60.285)" fill="#455a64"/>
      <path id="Path_4306" data-name="Path 4306" d="M236.414,325c.2.078,0,1.139-.484,2.356s-1.03,2.137-1.233,2.059,0-1.139.484-2.356S236.211,324.894,236.414,325Z" transform="translate(-129.776 57.118)" fill="#455a64"/>
      <path id="Path_4307" data-name="Path 4307" d="M238.644,319.322c.218.078,0,1.139-.484,2.356s-1.03,2.153-1.233,2.059,0-1.123.484-2.356S238.41,319.244,238.644,319.322Z" transform="translate(-128.527 53.938)" fill="#455a64"/>
      <path id="Path_4308" data-name="Path 4308" d="M240.852,313.662c.2,0,0,1.139-.484,2.356s-1.03,2.137-1.248,2.059,0-1.139.484-2.356S240.649,313.584,240.852,313.662Z" transform="translate(-127.302 50.767)" fill="#455a64"/>
      <path id="Path_4309" data-name="Path 4309" d="M243.209,308c.2.094,0,1.139-.546,2.34s-1.092,2.106-1.295,2.028,0-1.139.546-2.34S243.006,308,243.209,308Z" transform="translate(-126.039 47.598)" fill="#455a64"/>
      <path id="Path_4310" data-name="Path 4310" d="M245.914,302.553c.187.109-.125,1.139-.7,2.309s-1.217,2.028-1.42,1.935.109-1.123.7-2.309S245.711,302.444,245.914,302.553Z" transform="translate(-124.673 44.542)" fill="#455a64"/>
      <path id="Path_4311" data-name="Path 4311" d="M249.337,297.406c.172.156-.281,1.123-1.014,2.184s-1.56,1.841-1.685,1.716.265-1.092,1.014-2.184S249.166,297.266,249.337,297.406Z" transform="translate(-123.057 41.655)" fill="#455a64"/>
      <path id="Path_4312" data-name="Path 4312" d="M252.6,294.645c0,.218-.359.53-.889.811s-1.045.437-1.186.25.2-.655.811-.967S252.534,294.427,252.6,294.645Z" transform="translate(-120.886 40.031)" fill="#455a64"/>
      <path id="Path_4313" data-name="Path 4313" d="M316.347,303.319s-4.681-15.929-7.208-24.729a48.268,48.268,0,0,1-1.779-10.921l-.374-7.973,1.326-6.74,4.306,4.993L333.634,236c.39.53-9.517-13.854-19.549-27.927-6.99-9.8-13.823-12.481-18.238-12.856a16.928,16.928,0,0,0-6.381-.562L253.3,194.34a34.184,34.184,0,0,0-21.577,7.91c-1.669,1.373-15.524,19.8-24.963,38.006l29.1,21,4.79-8.425v.5c.374,3,1.295,7.8,2,10.765,2.325,9.283,3.495,21.53-1.186,29.565a220.8,220.8,0,0,0-8.331,24.963h89.227S319.467,310.823,316.347,303.319Z" transform="translate(-145.383 -16.071)" fill="#8dc63f"/>
      <path id="Path_4314" data-name="Path 4314" d="M246.52,202.768a1.3,1.3,0,0,1,.421.484,2.731,2.731,0,0,1,.218,1.841,4.555,4.555,0,0,1-1.56,2.465c-.874.749-1.919,1.451-3.12,2.293-2.309,1.685-4.993,3.651-7.973,5.8a18.457,18.457,0,0,1-5.086,3.027,5.788,5.788,0,0,1-3.261,0A4.072,4.072,0,0,1,223.6,216.4a6.147,6.147,0,0,1,1.155-6.241,17.489,17.489,0,0,1,4.681-3.62l4.525-2.684A39.845,39.845,0,0,1,238,201.614a32.029,32.029,0,0,1,3.62-1.279,5.133,5.133,0,0,1,2.9.484c1.56.718,1.81,1.716,1.747,1.7a4.415,4.415,0,0,0-1.872-1.42,4.914,4.914,0,0,0-2.683-.312,33.589,33.589,0,0,0-3.479,1.342c-1.248.562-2.5,1.467-3.932,2.309l-4.478,2.746a16.818,16.818,0,0,0-4.462,3.479,5.351,5.351,0,0,0-1.03,5.429,3.121,3.121,0,0,0,2.044,1.825,4.868,4.868,0,0,0,2.793,0,18.381,18.381,0,0,0,4.9-2.871l8.066-5.663c1.139-.811,2.231-1.56,3.12-2.184a4.2,4.2,0,0,0,1.56-2.184,2.73,2.73,0,0,0-.3-2.247Z" transform="translate(-136.169 -12.736)" fill="#e0e0e0"/>
      <path id="Path_4315" data-name="Path 4315" d="M291.593,224.065a1.139,1.139,0,0,1,0,.655,2.824,2.824,0,0,1-1.092,1.56,4.556,4.556,0,0,1-2.824.733c-1.155,0-2.4-.218-3.791-.359l-9.8-1.155a18.27,18.27,0,0,1-5.788-1.233,5.741,5.741,0,0,1-2.449-2.169,4.025,4.025,0,0,1-.328-3.386,6.147,6.147,0,0,1,5.086-3.822,17.818,17.818,0,0,1,5.913.515l5.149,1.108a39.637,39.637,0,0,1,4.493,1.076,30.573,30.573,0,0,1,3.526,1.56,4.837,4.837,0,0,1,1.794,2.325,2.9,2.9,0,0,1,.14,2.434,4.681,4.681,0,0,0-.421-2.309,4.759,4.759,0,0,0-1.747-2.059,35.282,35.282,0,0,0-3.479-1.373,42.761,42.761,0,0,0-4.447-.967l-5.164-1.03a17.506,17.506,0,0,0-5.648-.468,5.4,5.4,0,0,0-4.431,3.308,3.12,3.12,0,0,0,.265,2.715,5.055,5.055,0,0,0,2.091,1.872,18.44,18.44,0,0,0,5.539,1.2l9.767,1.31c1.389.172,2.652.406,3.744.484a4.338,4.338,0,0,0,2.637-.546A2.777,2.777,0,0,0,291.593,224.065Z" transform="translate(-112.594 -4.592)" fill="#e0e0e0"/>
      <path id="Path_4316" data-name="Path 4316" d="M279.338,201.8a1.3,1.3,0,0,1,.421.484,2.73,2.73,0,0,1,.218,1.841,4.509,4.509,0,0,1-1.56,2.465c-.874.749-1.919,1.467-3.042,2.309l-7.957,5.8a19.191,19.191,0,0,1-5.1,3.027,5.789,5.789,0,0,1-3.261,0,3.979,3.979,0,0,1-2.543-2.262,6.147,6.147,0,0,1,1.139-6.241,17.409,17.409,0,0,1,4.681-3.62l4.524-2.7a43.151,43.151,0,0,1,4.041-2.247,30.9,30.9,0,0,1,3.635-1.264,4.946,4.946,0,0,1,2.886.468c1.56.733,1.81,1.732,1.763,1.716a4.556,4.556,0,0,0-1.888-1.42,4.759,4.759,0,0,0-2.684-.328c-.983.312-2.231.811-3.479,1.357a44.061,44.061,0,0,0-3.916,2.293l-4.493,2.762a16.819,16.819,0,0,0-4.462,3.479,5.351,5.351,0,0,0-1.03,5.429,3.229,3.229,0,0,0,2.044,1.81,4.915,4.915,0,0,0,2.808,0,18.972,18.972,0,0,0,4.883-2.871c3-2.122,5.726-4.025,8.066-5.663,1.139-.811,2.231-1.56,3.12-2.184a4.4,4.4,0,0,0,1.56-2.184,2.824,2.824,0,0,0-.374-2.262Z" transform="translate(-117.735 -13.265)" fill="#e0e0e0"/>
      <path id="Path_4317" data-name="Path 4317" d="M219.881,215.622a1.231,1.231,0,0,1,.577-.312,2.668,2.668,0,0,1,1.841.187,4.555,4.555,0,0,1,2.059,2.075c.546,1.014,1,2.184,1.56,3.464l3.932,9.033a19.114,19.114,0,0,1,1.841,5.632,5.648,5.648,0,0,1-.655,3.2,4.01,4.01,0,0,1-2.762,2,6.132,6.132,0,0,1-5.866-2.481,17.412,17.412,0,0,1-2.512-5.367c-.577-1.747-1.123-3.432-1.638-5.008a39.5,39.5,0,0,1-1.311-4.431,28.355,28.355,0,0,1-.468-3.807,5.118,5.118,0,0,1,1.108-2.73c1.03-1.295,2.059-1.389,2.044-1.342a4.462,4.462,0,0,0-1.794,1.56,4.852,4.852,0,0,0-.9,2.543c.094,1.045.312,2.356.577,3.7a40.13,40.13,0,0,0,1.389,4.322c.53,1.56,1.108,3.245,1.716,4.993a16.881,16.881,0,0,0,2.418,5.117,5.4,5.4,0,0,0,5.086,2.169,3.12,3.12,0,0,0,2.215-1.56,4.93,4.93,0,0,0,.562-2.746,18.518,18.518,0,0,0-1.732-5.4c-1.42-3.386-2.684-6.475-3.776-9.111-.546-1.279-.983-2.5-1.467-3.464a4.275,4.275,0,0,0-1.794-2.013,2.715,2.715,0,0,0-2.247-.218Z" transform="translate(-139.938 -4.372)" fill="#e0e0e0"/>
      <path id="Path_4318" data-name="Path 4318" d="M249.156,213.494a1.124,1.124,0,0,1,.7.109,2.855,2.855,0,0,1,1.451,1.451,3.759,3.759,0,0,1,.234.671,1.108,1.108,0,0,0,.406.468,11.453,11.453,0,0,0,1.467.811,31.511,31.511,0,0,1,3.791,1.888,1.732,1.732,0,0,1,.5.468.609.609,0,0,1,.156.452.5.5,0,0,1-.078.359,5.086,5.086,0,0,1-.484,1.217,11.075,11.075,0,0,1-1.56,2.2c-1.233,1.4-2.7,2.7-4.15,4.134a10,10,0,0,0-3.261,5.18,13.589,13.589,0,0,1-1.123,3.308,5.96,5.96,0,0,1-2.59,2.637,4.072,4.072,0,0,1-3.744,0,5.913,5.913,0,0,1-2.434-2.668,9.61,9.61,0,0,1,0-6.568c1.2-3.963,2.34-7.426,3.354-10.406a33.4,33.4,0,0,1,1.919-3.76,4.681,4.681,0,0,1,2.574-1.966,3.12,3.12,0,0,1,2.683,0,4.477,4.477,0,0,0-2.574.265,4.4,4.4,0,0,0-2.278,1.888,35.2,35.2,0,0,0-1.794,3.744c-.9,2.917-2.028,6.506-3.12,10.406a9.018,9.018,0,0,0,0,6.038,5.039,5.039,0,0,0,2.106,2.278,3.229,3.229,0,0,0,3,0,5.164,5.164,0,0,0,2.231-2.278,13.683,13.683,0,0,0,1.077-3.12,8.349,8.349,0,0,1,.5-1.654,9.1,9.1,0,0,1,.874-1.467,18.722,18.722,0,0,1,2.137-2.4c1.467-1.451,2.949-2.715,4.15-4.041a11.327,11.327,0,0,0,1.56-2.059,5.059,5.059,0,0,0,.452-1.092s.094-.218,0-.218h0v-.078a1.561,1.561,0,0,0-.359-.343,35.076,35.076,0,0,0-3.651-1.935,10.572,10.572,0,0,1-1.56-.9,1.326,1.326,0,0,1-.515-.7,3.655,3.655,0,0,0-.187-.624,2.637,2.637,0,0,0-1.217-1.42,5.3,5.3,0,0,0-.64-.265Z" transform="translate(-127.962 -5.52)" fill="#e0e0e0"/>
      <path id="Path_4319" data-name="Path 4319" d="M255.809,223.276a1.106,1.106,0,0,1,.468-.437,2.7,2.7,0,0,1,1.825-.281,4.524,4.524,0,0,1,2.512,1.56A37.118,37.118,0,0,1,263,227.083l6.038,7.8a18.35,18.35,0,0,1,3.12,4.993,5.835,5.835,0,0,1,.156,3.276,4.025,4.025,0,0,1-2.2,2.605,6.241,6.241,0,0,1-6.241-.967,17.365,17.365,0,0,1-3.744-4.587l-2.761-4.447A42.941,42.941,0,0,1,255,231.779a32.388,32.388,0,0,1-1.373-3.588,4.961,4.961,0,0,1,.39-2.9c.687-1.56,1.669-1.857,1.654-1.81a4.758,4.758,0,0,0-1.357,1.935,4.946,4.946,0,0,0-.25,2.684c.343.983.874,2.2,1.451,3.432a44.463,44.463,0,0,0,2.418,3.854l2.886,4.415a17.162,17.162,0,0,0,3.6,4.369,5.414,5.414,0,0,0,5.461.858,3.276,3.276,0,0,0,1.763-2.091,5.07,5.07,0,0,0-.125-2.808,18.721,18.721,0,0,0-3.011-4.79l-5.9-7.91c-.842-1.108-1.56-2.184-2.278-3.011a4.291,4.291,0,0,0-2.231-1.56,2.621,2.621,0,0,0-2.294.421Z" transform="translate(-119.168 -0.293)" fill="#e0e0e0"/>
      <path id="Path_4320" data-name="Path 4320" d="M233.549,242.371a1.186,1.186,0,0,1,.125-.64,2.824,2.824,0,0,1,1.311-1.311,4.556,4.556,0,0,1,2.918-.265c1.123.218,2.325.593,3.682.967l9.486,2.7a19.128,19.128,0,0,1,5.523,2.137,5.726,5.726,0,0,1,2.06,2.543,4.01,4.01,0,0,1-.218,3.4,6.132,6.132,0,0,1-5.632,2.949,17.348,17.348,0,0,1-5.741-1.451l-4.915-1.919a40.7,40.7,0,0,1-4.259-1.794,30.916,30.916,0,0,1-3.245-2.075,4.946,4.946,0,0,1-1.4-2.574,2.824,2.824,0,0,1,.265-2.418,4.369,4.369,0,0,0,0,2.34,4.93,4.93,0,0,0,1.389,2.309,34.434,34.434,0,0,0,3.214,1.9,44.161,44.161,0,0,0,4.212,1.732l4.946,1.841a17.162,17.162,0,0,0,5.492,1.357,5.351,5.351,0,0,0,4.9-2.543,3.12,3.12,0,0,0,.172-2.715,4.836,4.836,0,0,0-1.763-2.184,18.314,18.314,0,0,0-5.273-2.075l-9.361-2.871c-1.342-.39-2.559-.827-3.62-1.077a4.353,4.353,0,0,0-2.683.109,2.793,2.793,0,0,0-1.576,1.623Z" transform="translate(-130.639 9.522)" fill="#e0e0e0"/>
      <path id="Path_4321" data-name="Path 4321" d="M268.2,273.98a1.014,1.014,0,0,1-.624.14,2.652,2.652,0,0,1-1.732-.671,4.478,4.478,0,0,1-1.42-2.559c-.265-1.108-.39-2.371-.608-3.76-.39-2.824-.858-6.116-1.357-9.767a18.877,18.877,0,0,1-.265-5.913,5.726,5.726,0,0,1,1.56-2.9,4.01,4.01,0,0,1,3.12-1.186,6.241,6.241,0,0,1,4.977,3.978,17.9,17.9,0,0,1,.983,5.835c0,1.857.156,3.6.234,5.273a42.146,42.146,0,0,1,0,4.681,29.55,29.55,0,0,1-.577,3.791,4.977,4.977,0,0,1-1.794,2.325,2.918,2.918,0,0,1-2.325.749,4.681,4.681,0,0,0,2.137-1,4.852,4.852,0,0,0,1.56-2.216,34.3,34.3,0,0,0,.453-3.7,43.132,43.132,0,0,0-.187-4.54c-.094-1.654-.187-3.417-.3-5.258a17.317,17.317,0,0,0-.967-5.585,5.4,5.4,0,0,0-4.306-3.464,3.214,3.214,0,0,0-2.574.952,4.93,4.93,0,0,0-1.279,2.481,18.609,18.609,0,0,0,.234,5.663c.437,3.651.842,6.958,1.186,9.8.172,1.389.265,2.668.468,3.729a4.322,4.322,0,0,0,1.186,2.418A2.777,2.777,0,0,0,268.2,273.98Z" transform="translate(-114.397 13.626)" fill="#e0e0e0"/>
      <path id="Path_4322" data-name="Path 4322" d="M235.584,273.925a1.3,1.3,0,0,1-.374-.53,2.684,2.684,0,0,1,0-1.857,4.462,4.462,0,0,1,1.81-2.293c.92-.671,2.028-1.279,3.23-2.013l8.472-5.039a19.175,19.175,0,0,1,5.367-2.527,5.8,5.8,0,0,1,3.245.25,4.01,4.01,0,0,1,2.325,2.5,6.132,6.132,0,0,1-1.732,6.132,17.161,17.161,0,0,1-5.008,3.12l-4.759,2.262a41.906,41.906,0,0,1-4.29,1.935,29.839,29.839,0,0,1-3.713.92,4.868,4.868,0,0,1-2.84-.749c-1.42-.858-1.638-1.872-1.56-1.857a4.681,4.681,0,0,0,1.747,1.56,4.867,4.867,0,0,0,2.637.562,31.044,31.044,0,0,0,3.588-1.014,44.407,44.407,0,0,0,4.119-1.919l4.681-2.325A16.991,16.991,0,0,0,257.3,268a5.4,5.4,0,0,0,1.56-5.32,3.23,3.23,0,0,0-1.857-2,5.055,5.055,0,0,0-2.808-.218,18.082,18.082,0,0,0-5.117,2.4l-8.581,4.883c-1.2.7-2.356,1.279-3.261,1.888a4.244,4.244,0,0,0-1.763,2.028,2.777,2.777,0,0,0,.109,2.262Z" transform="translate(-129.539 20.452)" fill="#e0e0e0"/>
      <path id="Path_4323" data-name="Path 4323" d="M241.023,220.43a142.127,142.127,0,0,1-7.536,13.215,144.43,144.43,0,0,1-8.238,12.778,141.174,141.174,0,0,1,7.536-13.2,140.778,140.778,0,0,1,8.238-12.794Z" transform="translate(-135.025 -1.456)" fill="#263238"/>
      <path id="Path_4324" data-name="Path 4324" d="M244.732,224.429a36.172,36.172,0,0,0-.53-5.32,34.323,34.323,0,0,0-5.227-11.654,18.846,18.846,0,0,0-4.9-4.977,13.619,13.619,0,0,0-5.258-2.106,13.386,13.386,0,0,0-5.258.3,3.557,3.557,0,0,1,1.357-.593,10.469,10.469,0,0,1,3.994-.265,13.621,13.621,0,0,1,5.585,2.044,18.923,18.923,0,0,1,5.149,5.133A31.578,31.578,0,0,1,244.763,219a16.462,16.462,0,0,1,.218,3.994A3.823,3.823,0,0,1,244.732,224.429Z" transform="translate(-135.972 -13.054)" fill="#263238"/>
      <path id="Path_4325" data-name="Path 4325" d="M269.081,194.16a2.618,2.618,0,0,1,.187.515,10.072,10.072,0,0,1,.3,1.56,15.088,15.088,0,0,1-.468,5.741,15.82,15.82,0,0,1-4.446,7.286,15.6,15.6,0,0,1-19.643.765A15.929,15.929,0,0,1,240,203.1a14.775,14.775,0,0,1-.9-5.695,9.517,9.517,0,0,1,.172-1.56c.078-.359.125-.546.156-.53a18.035,18.035,0,0,0,1.123,7.567,15.6,15.6,0,0,0,4.914,6.537,15.04,15.04,0,0,0,18.722-.733,15.6,15.6,0,0,0,4.415-6.9,18.083,18.083,0,0,0,.484-7.629Z" transform="translate(-127.276 -16.172)" fill="#263238"/>
      <path id="Path_4326" data-name="Path 4326" d="M267.1,217.46a18.428,18.428,0,0,1,2.73,3.713,35.181,35.181,0,0,1,4.431,10.235,25.213,25.213,0,0,1,.265,11.155,17.61,17.61,0,0,1-1.014,3.245,3.243,3.243,0,0,1-.593,1.092c-.14,0,.577-1.669,1.045-4.447a27.21,27.21,0,0,0-.5-10.921,41.316,41.316,0,0,0-4.119-10.126,44.12,44.12,0,0,1-2.247-3.947Z" transform="translate(-111.581 -3.12)" fill="#263238"/>
      <path id="Path_4327" data-name="Path 4327" d="M295.723,221.08a26.3,26.3,0,0,1-2.949,3.386l-7.348,7.941c-2.9,3.12-5.57,5.835-7.551,7.8a22.842,22.842,0,0,1-3.354,3,26.944,26.944,0,0,1,2.949-3.4l7.364-7.926c2.886-3.12,5.554-5.835,7.536-7.8a22.843,22.843,0,0,1,3.354-3Z" transform="translate(-107.425 -1.092)" fill="#263238"/>
      <path id="Path_4328" data-name="Path 4328" d="M278.785,232.987c-.14.187-.967-.25-1.841-.967s-1.467-1.42-1.326-1.56.967.265,1.841.967S278.925,232.878,278.785,232.987Z" transform="translate(-106.822 4.147)" fill="#263238"/>
      <path id="Path_4329" data-name="Path 4329" d="M281.856,229.64c-.156.172-.952-.187-1.81-.811s-1.435-1.264-1.311-1.451.921.172,1.794.8S282,229.468,281.856,229.64Z" transform="translate(-105.073 2.408)" fill="#263238"/>
      <path id="Path_4330" data-name="Path 4330" d="M285.739,225.41c-.14.172-.9-.218-1.7-.889s-1.311-1.342-1.17-1.56.9.218,1.7.889S285.9,225.238,285.739,225.41Z" transform="translate(-102.761 -0.071)" fill="#263238"/>
      <path id="Path_4331" data-name="Path 4331" d="M251.278,210.985c-.2.094-.921-.952-1.248-2.449s-.109-2.762.109-2.746.374,1.17.686,2.574S251.481,210.876,251.278,210.985Z" transform="translate(-121.237 -9.657)" fill="#263238"/>
      <path id="Path_4332" data-name="Path 4332" d="M257.472,207.654c-.172.14-.9-.53-1.56-1.56s-1.155-1.857-.967-2,.9.546,1.56,1.56S257.659,207.529,257.472,207.654Z" transform="translate(-118.413 -10.616)" fill="#263238"/>
      <path id="Path_4333" data-name="Path 4333" d="M261.522,202.378c-.109.2-1.014-.094-2.013-.64s-1.732-1.17-1.56-1.357,1.014.094,2.013.64S261.631,202.191,261.522,202.378Z" transform="translate(-116.722 -12.72)" fill="#263238"/>
      <path id="Path_4334" data-name="Path 4334" d="M262.6,197.177c0,.234-.874.374-1.919.328s-1.888-.281-1.888-.5.874-.359,1.919-.312S262.6,196.99,262.6,197.177Z" transform="translate(-116.236 -14.758)" fill="#263238"/>
      <path id="Path_4335" data-name="Path 4335" d="M242.767,209.16c-.187-.109.187-1.108.842-2.231s1.342-1.935,1.56-1.825-.172,1.108-.827,2.231S242.97,209.269,242.767,209.16Z" transform="translate(-125.239 -10.047)" fill="#263238"/>
      <path id="Path_4336" data-name="Path 4336" d="M238.532,203.969c-.078-.218.765-.733,1.779-1.326s1.888-1.092,2.044-.921-.53.967-1.56,1.56S238.61,204.172,238.532,203.969Z" transform="translate(-127.588 -11.955)" fill="#263238"/>
      <path id="Path_4337" data-name="Path 4337" d="M241.046,197.39c0,.218-.936.608-2.2.858s-2.309.265-2.356,0,.936-.593,2.2-.842S241.015,197.172,241.046,197.39Z" transform="translate(-128.729 -14.457)" fill="#263238"/>
      <path id="Path_4338" data-name="Path 4338" d="M235.822,244.732a4.807,4.807,0,0,1-1.279-.609c-.8-.437-1.9-1.123-3.261-2.013-2.7-1.763-6.241-4.415-10.188-7.426s-7.4-5.741-10.016-7.614a36.278,36.278,0,0,1-4.2-3.12,4.683,4.683,0,0,1,1.264.608c.8.437,1.919,1.123,3.261,2.013,2.715,1.763,6.241,4.415,10.188,7.426s7.411,5.741,10.016,7.614A50.053,50.053,0,0,1,235.822,244.732Z" transform="translate(-145.316 0.515)" fill="#263238"/>
      <path id="Path_4339" data-name="Path 4339" d="M211.671,222.7c.2.109-.156,1.217-.8,2.5s-1.326,2.215-1.56,2.106.156-1.2.8-2.481S211.483,222.609,211.671,222.7Z" transform="translate(-143.99 -0.187)" fill="#263238"/>
      <path id="Path_4340" data-name="Path 4340" d="M216.246,225.892c.187.109-.218,1.248-.9,2.543s-1.42,2.247-1.56,2.137a5.349,5.349,0,0,1,.889-2.527C215.357,226.75,216.043,225.8,216.246,225.892Z" transform="translate(-141.467 1.6)" fill="#263238"/>
      <path id="Path_4341" data-name="Path 4341" d="M221.328,229.825c.187.125-.3,1.155-1.092,2.293s-1.56,1.95-1.779,1.825.312-1.155,1.108-2.293S221.157,229.7,221.328,229.825Z" transform="translate(-138.857 3.799)" fill="#263238"/>
      <path id="Path_4342" data-name="Path 4342" d="M225.948,231.732c.2.109-.452,1.56-1.435,3.292s-1.966,3-2.153,2.886a8.175,8.175,0,0,1,1.451-3.292C224.794,232.918,225.761,231.623,225.948,231.732Z" transform="translate(-136.644 4.871)" fill="#263238"/>
      <path id="Path_4343" data-name="Path 4343" d="M253.226,236.517h0a14.338,14.338,0,0,0,15.43-13.73c.3-7.8.562-15.7.562-15.7s11.811-1.108,12.669-12.809.468-38.708.468-38.708h0a40.783,40.783,0,0,0-41.2,2.652l-1.81,1.233L240,222.382A14.322,14.322,0,0,0,253.226,236.517Z" transform="translate(-127.132 -40.228)" fill="#a56959"/>
      <path id="Path_4344" data-name="Path 4344" d="M263.522,168.263a1.716,1.716,0,1,1,2.418,0,1.716,1.716,0,0,1-2.418,0Z" transform="translate(-113.87 -32.323)" fill="#263238"/>
      <path id="Path_4345" data-name="Path 4345" d="M268.41,166.605c-.2.187-1.295-.765-2.9-.874s-2.84.655-3.011.437.125-.452.671-.8a3.838,3.838,0,0,1,2.4-.608,3.9,3.9,0,0,1,2.309.952C268.348,166.137,268.5,166.527,268.41,166.605Z" transform="translate(-114.187 -32.646)" fill="#263238"/>
      <path id="Path_4346" data-name="Path 4346" d="M254.5,165.9a1.7,1.7,0,1,1-2.371.421A1.7,1.7,0,0,1,254.5,165.9Z" transform="translate(-120.139 -32.175)" fill="#263238"/>
      <path id="Path_4347" data-name="Path 4347" d="M257.133,166.845a3.339,3.339,0,0,0-2.9-.874c-1.56-.125-2.84.655-3,.437s.125-.452.655-.811a3.994,3.994,0,0,1,2.418-.593,3.9,3.9,0,0,1,2.294.952C257.133,166.377,257.211,166.767,257.133,166.845Z" transform="translate(-120.492 -32.511)" fill="#263238"/>
      <path id="Path_4348" data-name="Path 4348" d="M258.7,179.268a7.8,7.8,0,0,1,2.652-.406c.421,0,.764-.094.8-.312a2.23,2.23,0,0,0-.219-1.233c-.359-1.092-.7-2.2-1.076-3.354-1.56-4.774-2.481-8.706-2.231-8.784a47.211,47.211,0,0,1,3.12,8.519c.343,1.17.686,2.278,1.014,3.37a2.761,2.761,0,0,1,.125,1.763,1.123,1.123,0,0,1-.78.64,3,3,0,0,1-.718,0A8.41,8.41,0,0,1,258.7,179.268Z" transform="translate(-116.352 -32.406)" fill="#263238"/>
      <path id="Path_4349" data-name="Path 4349" d="M263.883,188.808a27.256,27.256,0,0,1-14.993-5.258s3.12,8.643,14.837,8.3Z" transform="translate(-121.782 -22.116)" fill="#7c4435"/>
      <path id="Path_4350" data-name="Path 4350" d="M246.276,153.719a11.03,11.03,0,0,0,9.361,9.642c2.886.343,5.991-.452,8.581.858a15.1,15.1,0,0,1,4.4,4.462,6.958,6.958,0,0,0,5.18,3.12,14.04,14.04,0,0,0,2.933-.7,3.542,3.542,0,0,1,2.9.312,22.623,22.623,0,0,0,1.732-10.921,10.079,10.079,0,0,0-6.459-8.363c-2.34-.686-4.852-.25-7.239-.655a23.886,23.886,0,0,1-5.617-2.075,17.537,17.537,0,0,0-9.642-2.059c-3.292.5-6.475,3.23-6.4,6.553" transform="translate(-123.396 -42.429)" fill="#263238"/>
      <path id="Path_4351" data-name="Path 4351" d="M242.2,185.307c4.244,3.4,9.361-5.429,11.623-10.921a54.122,54.122,0,0,0,3.292-17.692,8.752,8.752,0,0,0-1.03-5.71c-1.217-1.56-1.747.374-3.12-1.17-2.605-3.027-7.411-1.389-9.782-.359-3.947,1.716-6.412,6.116-7.192,10.594a43.687,43.687,0,0,0,.5,13.589c.281,2.059.577,4.1.874,6.163a9.938,9.938,0,0,0,1.217,4.166,2.964,2.964,0,0,0,3.573,1.389" transform="translate(-129.182 -41.987)" fill="#263238"/>
      <path id="Path_4352" data-name="Path 4352" d="M242.557,166.409a1.763,1.763,0,0,0-1.685-1.779c-2.184,0-5.757.811-6.085,6.849-.484,8.612,7.8,6.459,7.8,6.241S242.588,169.747,242.557,166.409Z" transform="translate(-129.694 -32.714)" fill="#a56959"/>
      <path id="Path_4353" data-name="Path 4353" d="M239.911,173.29a3.458,3.458,0,0,1-.421.2,1.451,1.451,0,0,1-1.108,0,3.651,3.651,0,0,1-1.56-3.417,4.852,4.852,0,0,1,.546-2.122,1.685,1.685,0,0,1,1.186-1.092.749.749,0,0,1,.858.452c.109.25,0,.421.094.437s.187-.14.14-.5a1,1,0,0,0-.312-.546,1.108,1.108,0,0,0-.811-.265,2.091,2.091,0,0,0-1.654,1.248,5.008,5.008,0,0,0-.64,2.372,3.885,3.885,0,0,0,1.981,3.838,1.638,1.638,0,0,0,1.389-.156C239.88,173.556,239.942,173.306,239.911,173.29Z" transform="translate(-128.889 -31.702)" fill="#7c4435"/>
      <path id="Path_4354" data-name="Path 4354" d="M256.122,175.935a2.34,2.34,0,1,0,.187-.265" transform="translate(-117.921 -27.013)" fill="#7c4435"/>
      <path id="Path_4355" data-name="Path 4355" d="M261.832,177.454a4.525,4.525,0,0,1-3.651-.125c-1.981-.7-3.12-2.091-2.9-2.215s1.389.827,3.12,1.451S261.817,177.22,261.832,177.454Z" transform="translate(-118.218 -26.848)" fill="#263238"/>
      <path id="Path_4356" data-name="Path 4356" d="M244.9,147.73c0,.25-1.872.811-3.822,2.231a24.293,24.293,0,0,0-3.12,2.746l-.687.608.437-.733c.094-.172.172-.234.218-.218s0,.109,0,.312l-.25-.125a8.129,8.129,0,0,1,2.824-3.245,6.584,6.584,0,0,1,4.4-1.576Z" transform="translate(-128.292 -42.182)" fill="#8dc63f"/>
      <path id="Path_4357" data-name="Path 4357" d="M256.193,163.021c-.265.624-1.56.718-2.871,1s-2.574.624-3.12.14c-.218-.25-.14-.733.312-1.264a3.963,3.963,0,0,1,2.278-1.264,4.01,4.01,0,0,1,2.59.312A1.324,1.324,0,0,1,256.193,163.021Z" transform="translate(-121.113 -34.444)" fill="#263238"/>
    </g>
    <g id="freepik--Plant--inject-207" transform="translate(145.26 563.939)">
      <path id="Path_4358" data-name="Path 4358" d="M139.8,431.227c-2.762,3.947-8.129,2.637-10.625.218s-3.542-5.9-4.509-9.221c-2.184-7.614-4.384-15.6-2.762-23.4a13.09,13.09,0,0,1,2.98-6.35,6.756,6.756,0,0,1,6.412-2.122c2.715.7,4.4,3.354,5.617,5.882A55.667,55.667,0,0,1,142.4,420.1a19.315,19.315,0,0,1-2.605,11.062" transform="translate(-105.739 -390.21)" fill="#8dc63f"/>
      <g id="Group_314" data-name="Group 314" transform="translate(15.601)" opacity="0.2">
        <path id="Path_4359" data-name="Path 4359" d="M139.8,431.227c-2.762,3.947-8.129,2.637-10.625.218s-3.542-5.9-4.509-9.221c-2.184-7.614-4.384-15.6-2.762-23.4a13.09,13.09,0,0,1,2.98-6.35,6.756,6.756,0,0,1,6.412-2.122c2.715.7,4.4,3.354,5.617,5.882A55.667,55.667,0,0,1,142.4,420.1a19.315,19.315,0,0,1-2.605,11.062" transform="translate(-121.341 -390.21)"/>
      </g>
      <path id="Path_4360" data-name="Path 4360" d="M135.039,430.127a23.871,23.871,0,0,0-14.853-1.81,12.216,12.216,0,0,0-7.333,3.276c-1.841,2.028-2.184,5.585,0,7.333a7.052,7.052,0,0,0,4.681,1.17c3.932,0,8.285-.733,11.436,1.56,1.779,1.342,2.98,3.588,5.117,4.259a5.086,5.086,0,0,0,5.57-2.481,8.675,8.675,0,0,0,.624-6.381,9.735,9.735,0,0,0-5.242-6.927Z" transform="translate(-111.341 -369.124)" fill="#8dc63f"/>
      <path id="Path_4361" data-name="Path 4361" d="M139.058,432.313a14.432,14.432,0,0,1-2.231-13.23,25.509,25.509,0,0,1,7.8-11.342,42.031,42.031,0,0,1,14.042-8.269,14.9,14.9,0,0,1,6.241-1.077,6.615,6.615,0,0,1,5.289,3.2c1.482,2.808,0,6.241-1.467,9.018a106.8,106.8,0,0,1-9.205,14.042c-2.762,3.557-5.913,7.068-10.126,8.675s-8.565,1.42-10.8-1.56" transform="translate(-97.465 -385.633)" fill="#8dc63f"/>
      <path id="Path_4362" data-name="Path 4362" d="M140.718,467.694a8.72,8.72,0,0,1-.25-1.794c-.125-1.311-.281-2.949-.484-4.9a70.614,70.614,0,0,0-1.092-7.177,56.523,56.523,0,0,0-2.605-8.472,31.466,31.466,0,0,0-4.337-7.676,16.163,16.163,0,0,0-5.461-4.54,15.181,15.181,0,0,0-4.681-1.435,7.891,7.891,0,0,1-1.779-.265,9.517,9.517,0,0,1,1.81,0,13.606,13.606,0,0,1,4.805,1.248,16.133,16.133,0,0,1,5.773,4.587,30.531,30.531,0,0,1,4.493,7.8,53.277,53.277,0,0,1,2.59,8.612,65.42,65.42,0,0,1,.952,7.271c.156,2.075.218,3.76.234,4.93a8.739,8.739,0,0,1,.031,1.81Z" transform="translate(-106.473 -367.141)" fill="#263238"/>
      <path id="Path_4363" data-name="Path 4363" d="M136.347,481.285a5.618,5.618,0,0,1,0-.827v-2.387c0-2.059,0-5.055-.109-8.737-.187-7.38-.827-17.568-2.044-28.77s-2.886-21.281-4.368-28.5c-.359-1.81-.718-3.448-1.045-4.883s-.593-2.652-.858-3.651-.406-1.716-.562-2.325a3.556,3.556,0,0,1-.14-.811,3.12,3.12,0,0,1,.3.78c.172.593.406,1.357.686,2.278s.624,2.215.983,3.635.765,3.12,1.139,4.868a268.835,268.835,0,0,1,4.6,28.536c1.233,11.218,1.779,21.437,1.825,28.832,0,3.7,0,6.693-.125,8.768,0,.967-.109,1.747-.14,2.371a3.12,3.12,0,0,1-.14.827Z" transform="translate(-102.446 -384.508)" fill="#263238"/>
      <path id="Path_4364" data-name="Path 4364" d="M133.017,459.4a15.911,15.911,0,0,1,0-2.481c.094-1.56.312-3.916.764-6.74a90.231,90.231,0,0,1,2.184-9.814,88.369,88.369,0,0,1,4.1-11.608,61.988,61.988,0,0,1,12.06-18.722,34.912,34.912,0,0,1,2.824-2.637c.437-.359.827-.733,1.217-1.014l1.108-.764a14.43,14.43,0,0,1,2.091-1.342A76.311,76.311,0,0,0,152.5,410.4a65.026,65.026,0,0,0-11.748,18.722,92.283,92.283,0,0,0-4.134,11.5c-1.061,3.6-1.779,6.927-2.325,9.72s-.811,5.086-.983,6.662A17.319,17.319,0,0,1,133.017,459.4Z" transform="translate(-99.225 -382.329)" fill="#263238"/>
    </g>
    <g id="freepik--speech-bubble--inject-207" transform="translate(186.076 106.174)">
      <path id="Path_4365" data-name="Path 4365" d="M234.074,173.137h0l.125.343.328.983,1.279,3.869,4.821,14.806v.2h-.218l-20.579-3.76h-.14v-.14h0l.281.14a51.673,51.673,0,0,1-31.11,10.313,57.374,57.374,0,0,1-7.582-.64,55.136,55.136,0,0,1-7.707-1.716c-1.248-.468-2.512-.936-3.791-1.389a14.428,14.428,0,0,1-1.888-.827l-1.857-.889a52.921,52.921,0,0,1-13.745-9.97,50.472,50.472,0,0,1-10.094-14.7,51.507,51.507,0,1,1,98.229-24.729,50.3,50.3,0,0,1-4.79,25.1c-.5,1.03-.9,1.81-1.186,2.309l-.452.78.39-.78c.281-.546.671-1.311,1.155-2.356a51.966,51.966,0,0,0,3.276-9.361,48.694,48.694,0,0,0,1.311-15.6,51.093,51.093,0,1,0-97.464,24.495,50.285,50.285,0,0,0,9.985,14.572,52.594,52.594,0,0,0,13.714,9.642l1.841.889a12.175,12.175,0,0,0,1.857.811l3.76,1.389a54.125,54.125,0,0,0,7.629,1.716,56.453,56.453,0,0,0,7.52.64,50.117,50.117,0,0,0,7.239-.452,51.189,51.189,0,0,0,23.637-9.673l.265-.2v.343h0l-.14-.172,20.563,3.854-.14.172c-2.028-6.428-3.62-11.436-4.681-14.837l-1.217-3.885c-.125-.437-.234-.764-.3-1l-.094-.359h0Z" transform="translate(-137.502 -96.804)" fill="#263238"/>
      <path id="Path_4366" data-name="Path 4366" d="M174.014,154.785,156.15,135.563l5.788-5.367,12.341,13.262,25.9-25.478,5.539,5.617Z" transform="translate(-127.055 -84.942)" fill="#455a64"/>
    </g>
  </g>
</svg>
