<svg xmlns="http://www.w3.org/2000/svg" width="77.944" height="76.233" viewBox="0 0 77.944 76.233">
  <g id="_2436805" data-name="2436805" transform="translate(0 -5.622)">
    <path id="Path_1835" data-name="Path 1835" d="M76.8,70.777h-2.02V29.758a5.455,5.455,0,0,0-5.45-5.448H66.65a4.636,4.636,0,0,0-2.011-6.1L49.709,10.3a1.142,1.142,0,1,0-1.069,2.018L63.57,20.228a2.355,2.355,0,0,1,0,4.161L49.057,32.078,39.831,21.556a1.142,1.142,0,0,0-1.717,1.506l8.87,10.115-5.491,2.909a5.384,5.384,0,0,1-5.039,0L14.374,24.39a2.355,2.355,0,0,1,0-4.161l22.078-11.7a5.383,5.383,0,0,1,5.039,0l3.16,1.675a1.142,1.142,0,1,0,1.069-2.018L42.56,6.514a7.665,7.665,0,0,0-7.176,0L13.3,18.21a4.636,4.636,0,0,0-2.011,6.1H8.612a5.455,5.455,0,0,0-5.45,5.448V70.778H1.142A1.142,1.142,0,0,0,0,71.919V74.45a7.413,7.413,0,0,0,7.4,7.405H70.539a7.413,7.413,0,0,0,7.405-7.405V71.919A1.142,1.142,0,0,0,76.8,70.777ZM48.794,50.969l1.489,2.579a1.181,1.181,0,0,1-1.023,1.772h-.932A1.181,1.181,0,0,1,47.3,53.548ZM49.935,34.2l4.724-2.5v4.534a8.355,8.355,0,0,1-4.724,7.562ZM38.972,39A7.67,7.67,0,0,0,42.56,38.1l5.092-2.7v9.267a27.694,27.694,0,0,1-19.229-.7,8.352,8.352,0,0,1-5.139-7.749V31.694l12.1,6.41A7.664,7.664,0,0,0,38.972,39ZM5.445,29.758a3.169,3.169,0,0,1,3.166-3.165h5.045L19.4,29.638H9.632A1.142,1.142,0,0,0,8.49,30.78V66.592a1.142,1.142,0,0,0,1.142,1.142h6.027a1.142,1.142,0,0,0,0-2.284H10.774V31.922H21v4.306a10.63,10.63,0,0,0,6.546,9.858,30.008,30.008,0,0,0,20.106.983V48.38l-2.325,4.026a3.465,3.465,0,0,0,3,5.2h.932a3.465,3.465,0,0,0,3-5.2L49.935,48.38V46.271c.154-.061.309-.121.462-.185a10.63,10.63,0,0,0,6.546-9.858V31.922H67.171V65.45H20.226a1.142,1.142,0,1,0,0,2.284H68.312a1.142,1.142,0,0,0,1.142-1.142V30.78a1.142,1.142,0,0,0-1.142-1.142H58.54l5.747-3.045h5.045A3.169,3.169,0,0,1,72.5,29.758V70.777H5.445Zm40.587,43.3a3.132,3.132,0,0,1-2.957,2.113H34.869a3.132,3.132,0,0,1-2.958-2.113ZM75.661,74.45a5.127,5.127,0,0,1-5.121,5.121H7.4A5.127,5.127,0,0,1,2.284,74.45V73.061H29.556a5.418,5.418,0,0,0,5.313,4.4h8.206a5.418,5.418,0,0,0,5.313-4.4H75.661Z" fill="#fff"/>
    <path id="Path_1836" data-name="Path 1836" d="M118.264,364.759a1.142,1.142,0,0,0-1.142-1.142H94.265a1.142,1.142,0,1,0,0,2.284h22.857A1.142,1.142,0,0,0,118.264,364.759Z" transform="translate(-78.946 -303.495)" fill="#fff"/>
    <path id="Path_1837" data-name="Path 1837" d="M94.265,334.357h15.283a1.142,1.142,0,0,0,0-2.284H94.265a1.142,1.142,0,0,0,0,2.284Z" transform="translate(-78.946 -276.753)" fill="#fff"/>
  </g>
</svg>
