<svg xmlns="http://www.w3.org/2000/svg" width="38" height="37.298" viewBox="0 0 38 37.298">
  <g id="Group_1296" data-name="Group 1296" transform="translate(-14931.926 -8610)">
    <rect id="Rectangle_1484" data-name="Rectangle 1484" width="4" height="1" transform="translate(14965.926 8618)" fill="#b5b3b3"/>
    <rect id="Rectangle_1485" data-name="Rectangle 1485" width="3.517" height="1.243" transform="translate(14965.75 8615.155) rotate(-45)" fill="#b5b3b3"/>
    <rect id="Rectangle_1486" data-name="Rectangle 1486" width="1.243" height="3.517" transform="translate(14965.75 8621.008) rotate(-45)" fill="#b5b3b3"/>
    <rect id="Rectangle_1487" data-name="Rectangle 1487" width="3" height="1" transform="translate(14931.926 8618)" fill="#b5b3b3"/>
    <rect id="Rectangle_1488" data-name="Rectangle 1488" width="1.243" height="3.517" transform="translate(14932.183 8613.548) rotate(-45)" fill="#b5b3b3"/>
    <rect id="Rectangle_1489" data-name="Rectangle 1489" width="3.517" height="1.243" transform="translate(14932.183 8622.614) rotate(-45)" fill="#b5b3b3"/>
    <path id="Path_5937" data-name="Path 5937" d="M30.865,35.838a.622.622,0,0,1-.622-.622H29a1.862,1.862,0,0,0,1.243,1.751V37.7h1.243v-.736a1.862,1.862,0,0,0,1.243-1.751v-.622a1.867,1.867,0,0,0-1.865-1.865.622.622,0,0,1-.622-.622v-.622a.622.622,0,1,1,1.243,0H32.73a1.862,1.862,0,0,0-1.243-1.751V29H30.243v.736A1.862,1.862,0,0,0,29,31.487v.622a1.867,1.867,0,0,0,1.865,1.865.622.622,0,0,1,.622.622v.622A.622.622,0,0,1,30.865,35.838Z" transform="translate(14919.784 8597.784)" fill="#b5b3b3"/>
    <path id="Path_5938" data-name="Path 5938" d="M10.622,19.406h2.487a.62.62,0,0,0,.373-.124l7.294-5.47h2.28V16.3h-3.73a3.112,3.112,0,0,0-3.108,3.108v8.7a.621.621,0,0,0,.622.622h2.487v9.946a.621.621,0,0,0,.622.622h7.46a.621.621,0,0,0,.622-.622V28.73h2.487a.621.621,0,0,0,.622-.622v-8.7A3.112,3.112,0,0,0,28.027,16.3H24.3V13.811h2.28l7.294,5.47a.62.62,0,0,0,.373.124H36.73a.621.621,0,0,0,.622-.622V2.622A.621.621,0,0,0,36.73,2H34.244a.62.62,0,0,0-.373.124l-7.294,5.47h-5.8l-7.293-5.47A.62.62,0,0,0,13.108,2H10.622A.621.621,0,0,0,10,2.622V18.784A.621.621,0,0,0,10.622,19.406Zm19.271,0v8.081H28.027v-7.46H26.784V38.055H24.3V28.73H23.054v9.324H20.568V20.027H19.324v7.46H17.46V19.406a1.867,1.867,0,0,1,1.865-1.865h8.7A1.867,1.867,0,0,1,29.892,19.406Zm-8.7-6.838V8.838h1.865v3.73Zm14.919,5.595H34.451l-7.045-5.284V8.527l6.216-4.662V8.838h1.243V3.243h1.243Zm-9.946-5.595H24.3V8.838h1.865ZM11.243,3.243h1.243V8.838H13.73V3.865l6.216,4.662v4.351L12.9,18.162H11.243Z" transform="translate(14926.974 8608)" fill="#b5b3b3"/>
  </g>
</svg>
