<svg xmlns="http://www.w3.org/2000/svg" width="80" height="80" viewBox="0 0 80 80">
  <g id="Group_1176" data-name="Group 1176" transform="translate(-1751 -390)">
    <rect id="Rectangle_1393" data-name="Rectangle 1393" width="80" height="80" rx="20" transform="translate(1751 390)" fill="#f7f7f7"/>
    <g id="_2682820" data-name="2682820" transform="translate(1699 408)">
      <path id="Path_4602" data-name="Path 4602" d="M107.469,1.311A1.311,1.311,0,0,0,106.158,0H77.311a1.311,1.311,0,1,0,0,2.622H79.77a7.828,7.828,0,0,0-1.148,4.022c0,2.573,1.269,5.291,3.993,8.553A81.418,81.418,0,0,0,89.8,22.422C85.286,26.576,78.622,32.585,78.622,38.2a7.548,7.548,0,0,0,1.126,3.934H77.311a1.311,1.311,0,0,0,0,2.622h28.847a1.311,1.311,0,1,0,0-2.622H103.72a7.548,7.548,0,0,0,1.126-3.934c0-5.639-6.645-11.606-11.174-15.778a81.444,81.444,0,0,0,7.182-7.226c2.724-3.261,3.993-5.979,3.993-8.553A7.823,7.823,0,0,0,103.7,2.622h2.459A1.311,1.311,0,0,0,107.469,1.311ZM84.412,42.133c1.461-3.069,5.662-5.332,7.322-5.332s5.862,2.263,7.322,5.332ZM102.224,38.2a5,5,0,0,1-.845,2.724,13.762,13.762,0,0,0-8.334-6.574V32.868a1.311,1.311,0,1,0-2.622,0v1.482a13.766,13.766,0,0,0-8.334,6.574,5,5,0,0,1-.845-2.724c0-3.8,4.365-8.3,9.178-12.785v2.208a1.311,1.311,0,1,0,2.622,0V25.415C97.859,29.9,102.224,34.4,102.224,38.2ZM91.734,20.641c-3.623-3.333-7.192-6.715-9.09-9.843a15.437,15.437,0,0,1,2.534-.22,16.691,16.691,0,0,1,6.021,1.2A19.1,19.1,0,0,0,98.29,13.2c.274,0,.551-.008.83-.022A76.818,76.818,0,0,1,91.734,20.641Zm9.376-10.335a15.469,15.469,0,0,1-2.82.271,16.691,16.691,0,0,1-6.021-1.2,19.1,19.1,0,0,0-7.091-1.425,18.2,18.2,0,0,0-3.669.386,5.955,5.955,0,0,1-.265-1.7,5.637,5.637,0,0,1,1.862-4.021h17.255a5.637,5.637,0,0,1,1.862,4.021A7.7,7.7,0,0,1,101.11,10.306Z" fill="#b5b3b3"/>
    </g>
  </g>
</svg>
