<svg xmlns="http://www.w3.org/2000/svg" width="46.45" height="46.076" viewBox="0 0 46.45 46.076">
  <g id="screen_sharing_mute_white" data-name="screen sharing mute white" transform="translate(-606.5 -908.48)">
    <g id="_15094" data-name="15094" transform="translate(607 910.875)">
      <path id="Path_4504" data-name="Path 4504" d="M42.141,3.125H3.309A3.314,3.314,0,0,0,0,6.434V31.458a3.313,3.313,0,0,0,3.309,3.31H21.862v6.688H15.929a.863.863,0,1,0,0,1.726H29.413a.863.863,0,1,0,0-1.726H23.588V34.767H42.141a3.313,3.313,0,0,0,3.309-3.31V6.434A3.314,3.314,0,0,0,42.141,3.125Zm1.583,28.333a1.584,1.584,0,0,1-1.583,1.584H3.309a1.585,1.585,0,0,1-1.583-1.584V6.434A1.584,1.584,0,0,1,3.309,4.85H42.141a1.584,1.584,0,0,1,1.583,1.584Z" transform="translate(0 0)" fill="#fff" stroke="#fff" stroke-width="1"/>
    </g>
    <rect id="Rectangle_1457" data-name="Rectangle 1457" width="62" height="2.5" rx="1.25" transform="translate(607 952.321) rotate(-45)" fill="#fff"/>
  </g>
</svg>
