<?xml version="1.0" encoding="UTF-8"?>
<svg width="245px" height="231px" viewBox="0 0 245 231" version="1.1" xmlns="http://www.w3.org/2000/svg" xmlns:xlink="http://www.w3.org/1999/xlink">
    <title>Group 154</title>
    <defs>
        <polygon id="path-1" points="0.236637931 0.689911111 74.9125 0.689911111 74.9125 85.1557081 0.236637931 85.1557081"></polygon>
        <polygon id="path-3" points="0.111771429 0.10855 11.3837143 0.10855 11.3837143 12.3211214 0.111771429 12.3211214"></polygon>
        <polygon id="path-5" points="0.046725 0.867586364 34.370875 0.867586364 34.370875 41.3021318 0.046725 41.3021318"></polygon>
    </defs>
    <g id="Symbols" stroke="none" stroke-width="1" fill="none" fill-rule="evenodd">
        <g id="SearchBar" transform="translate(-729.000000, -349.000000)">
            <g id="Group-154" transform="translate(729.000000, 349.000000)">
                <path d="M191.434477,228.071127 C184.014651,231.976291 171.984694,231.976291 164.564869,228.071127 C157.145044,224.165962 157.145044,217.834279 164.564869,213.928151 C171.984694,210.02395 184.014651,210.02395 191.434477,213.928151 C198.855174,217.834279 198.855174,224.165962 191.434477,228.071127" id="Fill-1" fill="#F0F0F0"></path>
                <g id="Group-5" transform="translate(30.000000, 0.000000)">
                    <mask id="mask-2" fill="white">
                        <use xlink:href="#path-1"></use>
                    </mask>
                    <g id="Clip-4"></g>
                    <path d="M0.236637931,49.7392467 L0.236637931,83.89558 C0.236637931,85.0212244 0.949568966,85.4770244 1.82887931,84.9151578 L73.3202586,39.1631578 C74.199569,38.6003356 74.9125,37.23198 74.9125,36.1063356 L74.9125,1.95000222 C74.9125,0.824357778 74.199569,0.368557778 73.3202586,0.930424444 L1.82887931,46.6824244 C0.949568966,47.2462022 0.236637931,48.6145578 0.236637931,49.7392467" id="Fill-3" fill="#F0F0F0" mask="url(#mask-2)"></path>
                </g>
                <path d="M35.7770835,49.0903602 L57.2246427,35.2705917 C58.2051025,34.6386987 59,35.1511485 59,36.4158977 L59,60.475029 C59,61.7397781 58.2051025,63.2780907 57.2246427,63.9099836 L35.7770835,77.7287888 C34.7957605,78.361645 34,77.8491953 34,76.5844461 L34,52.5253148 C34,51.2605657 34.7948975,49.7222531 35.7770835,49.0903602" id="Fill-6" fill="#FAFAFA"></path>
                <path d="M53.1448595,47.6524922 L46.7675551,62.2350282 L43.5189187,60.1662189 C42.8647034,59.7494119 42.027515,59.9968316 41.6503487,60.7181551 L34,75.3263847 L34,76.6015477 C34,77.8510172 34.7957605,78.3572759 35.7770835,77.7320654 L57.2246427,64.0802081 C58.2042395,63.4549976 58.9991369,61.9381245 59,60.6896067 L59,52.3391921 L54.6854588,47.3822337 C54.1624318,46.7808136 53.4728302,46.9026202 53.1448595,47.6524922" id="Fill-8" fill="#F198F4"></path>
                <path d="M37.3129788,58.285596 C39.901188,56.6183076 42,52.5620983 42,49.2265302 C42,47.700991 41.5576774,46.5967346 40.8346841,46 L35.8279116,49.2255389 C34.8171422,49.8767925 34,51.4588331 34,52.760349 L34,58.6523598 C34.8482292,59.1985405 36.0188742,59.1192402 37.3129788,58.285596" id="Fill-10" fill="#F198F4"></path>
                <path d="M67.3324675,31.6315485 L99.6675325,11.2106849 C100.402597,10.7456704 101,11.0762001 101,11.9484575 C101,12.8197679 100.402597,13.9041705 99.6675325,14.368238 L67.3324675,34.7891015 C66.595671,35.2541161 66,34.9245335 66,34.052276 C66,33.1800185 66.5965368,32.096563 67.3324675,31.6315485" id="Fill-12" fill="#FAFAFA"></path>
                <path d="M67.3324675,38.6315784 L99.6675325,18.2108966 C100.402597,17.7458862 101,18.0754659 101,18.9477156 C101,19.8199653 100.402597,20.9034111 99.6675325,21.3684216 L67.3324675,41.7891034 C66.595671,42.2541138 66,41.9245341 66,41.0522844 C66,40.1800347 66.5965368,39.0965889 67.3324675,38.6315784" id="Fill-14" fill="#FAFAFA"></path>
                <path d="M67.3324675,45.6317384 L99.6675325,25.2108982 C100.402597,24.7458842 101,25.0754664 101,25.9477229 C101,26.8199794 100.402597,27.9034336 99.6675325,28.3675006 L67.3324675,48.7892878 C66.595671,49.2543018 66,48.9237725 66,48.0524631 C66,47.1802067 66.5965368,46.0958053 67.3324675,45.6317384" id="Fill-16" fill="#FAFAFA"></path>
                <path d="M67.3324675,52.6315523 L99.6675325,32.2107122 C100.403463,31.7456982 101,32.0762275 101,32.9475369 C101,33.8197933 100.403463,34.9032476 99.6675325,35.3682616 L67.3324675,55.7891018 C66.595671,56.2541158 66,55.9245336 66,55.0522771 C66,54.1800206 66.5965368,53.0965664 67.3324675,52.6315523" id="Fill-18" fill="#FAFAFA"></path>
                <path d="M16,156.743669 L16,106.79468 C16,105.672124 16.7098071,104.307522 17.5852645,103.746244 L71.4147355,69.2405032 C72.2910512,68.679225 73,69.1337745 73,70.2563308 L73,120.20532 C73,121.326924 72.2910512,122.692478 71.4147355,123.253756 L17.5852645,157.759497 C16.7098071,158.320775 16,157.866225 16,156.743669" id="Fill-20" fill="#F0F0F0"></path>
                <path d="M16,154.270691 L16,156.752872 C16,157.867205 16.7097964,158.318425 17.5852406,157.761259 L71.4139011,123.508287 C72.2902036,122.95112 73,121.595569 73,120.482182 L73,118 L16,154.270691 Z" id="Fill-22" fill="#F198F4"></path>
                <path d="M42.1612609,109.314056 L47.3759026,109.002435 C48.0165983,108.96441 48.1931165,109.376195 47.7689825,109.923387 L41.7673638,117.669394 C41.344047,118.216586 41,118.069123 41,117.341079 L41.0008172,110.701512 C41.0008172,109.973468 41.5205652,109.352081 42.1612609,109.314056" id="Fill-24" fill="#F198F4"></path>
                <path d="M46.0319071,102.465374 C45.1393643,102.465374 44.1424205,102.802704 43.104401,103.470693 C39.4178484,105.840576 36.4184597,111.624731 36.4184597,116.366404 C36.4184597,118.611457 37.0876528,120.278094 38.3028117,121.059479 C39.5188264,121.841817 41.149022,121.653141 42.895599,120.529662 C46.5821516,118.159778 49.5806846,112.37467 49.5815403,107.63395 C49.5815403,105.388898 48.9123472,103.721308 47.6971883,102.940875 C47.2042787,102.623557 46.6420538,102.465374 46.0319071,102.465374 M39.9663814,122 C39.2843521,122 38.651956,121.820853 38.0940098,121.463512 C36.743643,120.595413 36,118.784886 36,116.366404 C36,111.477031 39.0943765,105.51087 42.895599,103.066659 C44.7773839,101.856466 46.5564792,101.670648 47.9059902,102.536842 C49.2572127,103.404942 50,105.215468 50,107.63395 C50,112.523324 46.9056235,118.488532 43.104401,120.932742 C42.0013447,121.642659 40.9333741,122 39.9663814,122" id="Fill-26" fill="#F198F4"></path>
                <path d="M9.08421692,76.0009304 C6.57531879,77.5430598 4.54210846,76.2929144 4.54210846,73.2086555 C5.89196132,72.9828167 9.2874492,66.8105192 9.08421692,64.8318311 C11.593115,63.2897016 13.6263254,64.539847 13.6263254,67.6241059 C13.6263254,70.7083648 11.593115,74.4588009 9.08421692,76.0009304 L9.08421692,76.0009304 Z M19,60.9254811 L15.5486011,58.8145025 L15.5477136,58.8154474 C13.9014433,57.6418415 11.6144145,57.6919229 9.08421692,59.2472814 C4.06730814,62.3315403 0,70.1621939 0,76.7379775 L0,78.2347502 C0,84.8105338 8.30234948,91.9551666 8.30234948,91.9551666 L11.6978374,94 C11.6978374,94 9.65841469,91.5242775 9.89093372,91.0168489 C12.1149517,86.1570623 18.1684338,72.4338111 18.1684338,67.064706 L18.1684338,65.5688782 C18.1684338,64.3688143 18.0317623,63.2953712 17.7806063,62.3579984 L18.1693213,62.5970663 L19,60.9254811 Z" id="Fill-28" fill="#90278F"></path>
                <path d="M9.08421692,76.0009304 C6.57531879,77.5430598 4.54210846,76.2929144 4.54210846,73.2086555 C5.89196132,72.9828167 9.2874492,66.8105192 9.08421692,64.8318311 C11.593115,63.2897016 13.6263254,64.539847 13.6263254,67.6241059 C13.6263254,70.7083648 11.593115,74.4588009 9.08421692,76.0009304 L9.08421692,76.0009304 Z M19,60.9254811 L15.5486011,58.8145025 L15.5477136,58.8154474 C13.9014433,57.6418415 11.6144145,57.6919229 9.08421692,59.2472814 C4.06730814,62.3315403 0,70.1621939 0,76.7379775 L0,78.2347502 C0,84.8105338 8.30234948,91.9551666 8.30234948,91.9551666 L11.6978374,94 C11.6978374,94 9.65841469,91.5242775 9.89093372,91.0168489 C12.1149517,86.1570623 18.1684338,72.4338111 18.1684338,67.064706 L18.1684338,65.5688782 C18.1684338,64.3688143 18.0317623,63.2953712 17.7806063,62.3579984 L18.1693213,62.5970663 L19,60.9254811 Z" id="Fill-30" fill="#90278F"></path>
                <path d="M7.57957987,76.202407 C7.52506106,75.9024835 7.49956033,75.5798528 7.49956033,75.2316767 C7.49956033,72.1397208 9.51499756,68.3873655 12,66.8404415 C12.2796287,66.6644611 12.5531021,66.5301105 12.8177821,66.4222516 C14.9132389,65.60101 16.5004397,66.9000477 16.5004397,69.6381506 C16.5004397,72.7244297 14.4850024,76.4815156 12,78.0218167 C9.79550562,79.396545 7.95857352,78.5648959 7.57957987,76.202407 M18.2256961,60.6953211 C18.186126,60.6678833 18.1465559,60.6413917 18.1069858,60.6196306 C16.5004397,59.653631 14.3548608,59.7832509 12,61.2478616 C8.43781143,63.4646463 5.36013679,68.1129876 3.90219834,72.9921848 C3.90219834,72.9978615 3.89780166,73.0035383 3.89780166,73.0092151 C3.32359551,74.9412145 3,76.9006516 3,78.7635834 L3,80.2613086 C3,85.3335165 8.33756717,91.2165586 10.7926722,93.6537919 C10.847191,93.7067752 10.9017098,93.7550279 10.962384,93.7928731 C10.96766,93.7985499 10.9773327,93.8042267 10.9817294,93.8089574 C11.5761602,94.2006556 12.3842697,93.9754764 12.7034685,93.2668243 C14.8235467,88.5976682 21,74.533432 21,69.0799334 L21,67.5765313 C21,64.1950594 19.9377626,61.8013482 18.2256961,60.6953211" id="Fill-32" fill="#F198F4"></path>
                <path d="M17,69.5950191 C17,72.8029188 14.9666831,76.7090431 12.4605224,78.3100428 C10.235584,79.7379613 8.38235584,78.8735395 8,76.4179523 C8.26702809,76.3127269 8.54470182,76.1681649 8.8259241,75.9891834 C11.3374076,74.3822833 13.3654017,70.4761589 13.3654017,67.2682592 C13.3654017,66.9063625 13.3405619,66.5651175 13.2855594,66.253375 C15.3987186,65.3997708 17,66.7499995 17,69.5950191" id="Fill-34" fill="#90278F"></path>
                <path d="M17,69.5950191 C17,72.8029188 14.9666831,76.7090431 12.4605224,78.3100428 C10.235584,79.7379613 8.38235584,78.8735395 8,76.4179523 C8.26702809,76.3127269 8.54470182,76.1681649 8.8259241,75.9891834 C11.3374076,74.3822833 13.3654017,70.4761589 13.3654017,67.2682592 C13.3654017,66.9063625 13.3405619,66.5651175 13.2855594,66.253375 C15.3987186,65.3997708 17,66.7499995 17,69.5950191" id="Fill-36" fill="#90278F"></path>
                <path d="M81.5015243,153.709821 C81.5015243,153.709821 83.7226694,138.293588 78.787755,124.984167 C73.8537078,111.673801 67.1868032,110.865307 63.7393014,112.764086 C60.2909324,114.662865 62.5285561,122.022526 65.6143954,126.972779 C69.6594642,133.46059 76.4859513,147.448011 76.2387719,160 L81.5015243,153.709821 Z" id="Fill-38" fill="#8CC43F"></path>
                <path d="M81.5015243,153.709821 C81.5015243,153.709821 83.7226694,138.293588 78.787755,124.984167 C73.8537078,111.673801 67.1868032,110.865307 63.7393014,112.764086 C60.2909324,114.662865 62.5285561,122.022526 65.6143954,126.972779 C69.6594642,133.46059 76.4859513,147.448011 76.2387719,160 L81.5015243,153.709821 Z" id="Fill-40" fill="#8CC43F"></path>
                <path d="M79.5360551,155 L79.5180055,155 C79.2893784,154.989428 79.1114618,154.773184 79.1217758,154.517535 C79.9305658,133.02478 70.3265064,116.939092 66.1845732,113.851124 C65.993764,113.708883 65.9430535,113.421519 66.0694001,113.208158 C66.1966062,112.992875 66.4535968,112.93521 66.6452655,113.079372 C71.5306667,116.719964 80.7574054,133.128577 79.9503343,154.555978 C79.9408798,154.805861 79.7569467,155 79.5360551,155" id="Fill-42" fill="#FFFFFF"></path>
                <path d="M80.7325988,173 C79.8879546,170.642036 77.7045798,168.014038 72.0591206,165.203769 C66.4145313,162.391571 62.2208859,158.651618 61.4397422,155.938753 C60.6594684,153.225889 62.4392234,151.620158 62.4392234,151.620158 C62.4392234,151.620158 57.144322,150.932539 56.4780012,147.338211 C55.6385762,142.807447 60.2680267,142.509447 60.2680267,142.509447 C60.2680267,142.509447 54.1972009,133.028405 52.5818515,128.78214 C50.9656322,124.535875 52.8323742,124.315991 56.7459213,125.921722 C60.6585986,127.527452 68.1273062,135.635185 69.283364,138.107913 C69.283364,138.107913 71.3005936,135.343935 73.4735299,137.164727 C75.6473362,138.98552 75.7552001,144.360135 74.4695316,146.301478 C74.4695316,146.301478 77.0887115,145.541529 79.0615776,148.407733 C81.2719184,151.620158 82,159.650739 82,159.650739 L80.7325988,173 Z" id="Fill-44" fill="#8CC43F"></path>
                <path d="M80.5813284,170 C80.3916292,170 80.2209866,169.858059 80.1742114,169.645146 C77.182335,155.856684 62.9904117,133.84137 54.1750306,126.840203 C53.9870638,126.690589 53.9437535,126.401911 54.0780155,126.193794 C54.2140098,125.985677 54.4747379,125.937724 54.6627047,126.086379 C63.5889602,133.17578 77.9584558,155.467304 80.9884453,169.428398 C81.0421501,169.677755 80.9035571,169.927111 80.6783435,169.987532 C80.6462938,169.996164 80.613378,170 80.5813284,170" id="Fill-46" fill="#FFFFFF"></path>
                <path d="M192.510647,32 C192.427608,32 192.343556,31.9801753 192.266593,31.9386378 L190.245299,30.8501658 C190.010359,30.7246092 189.930358,30.446119 190.066056,30.228047 C190.201754,30.009975 190.502518,29.9353963 190.733407,30.0609529 L192.754701,31.1494248 C192.989641,31.2749814 193.069642,31.5534716 192.933944,31.7715436 C192.843816,31.918813 192.679763,32 192.510647,32" id="Fill-48" fill="#FFFFFF"></path>
                <path d="M80,72.0746398 L80,172.745379 C80,173.865859 80.7158615,174.320339 81.5989884,173.760099 L188.401012,105.970111 C189.284139,105.408918 190,104.046429 190,102.924997 L190,2.25521034 C190,1.13377762 189.284139,0.679297237 188.401012,1.24048999 L81.5989884,69.029526 C80.7158615,69.5907187 80,70.9541599 80,72.0746398" id="Fill-50" fill="#90278F"></path>
                <path d="M93,90.2052461 C93,93.6957757 95.3867806,95.0174141 98.3299566,93.1568736 L183,39.6414287 L183,27 L98.3299566,80.5154448 C95.3867806,82.3769341 93,86.7147165 93,90.2052461" id="Fill-52" fill="#F5F5F5"></path>
                <path d="M189.882818,22.8423829 C192.709333,20.9834831 195,22.3039561 195,25.7914076 C195,29.2788592 192.709333,33.6128164 189.882818,35.4717162 L183,40 L183,27.3697188 L189.882818,22.8423829 Z" id="Fill-54" fill="#EA2B8B"></path>
                <path d="M190.150356,25.898636 C189.87291,25.898636 189.551839,26.0055702 189.211575,26.2147894 C187.927294,27.005173 186.841937,29.0071681 186.841937,30.5870054 C186.841937,31.2676652 187.036498,31.7614224 187.387233,31.9780805 C187.737967,32.1947386 188.237894,32.1249989 188.789298,31.7855989 C190.072706,30.9952153 191.158063,28.9932202 191.158063,27.4133829 C191.158063,26.7327231 190.965246,26.2389658 190.61364,26.0223078 C190.478406,25.9395499 190.322234,25.898636 190.150356,25.898636 M187.847899,33 C187.529446,33 187.231933,32.9191019 186.966701,32.755446 C186.342882,32.3723424 186,31.601486 186,30.5870054 C186,28.6621889 187.224953,26.3998321 188.789298,25.4374239 C189.61553,24.9297187 190.411226,24.8618387 191.035044,25.2449423 C191.65799,25.6280458 192,26.3979724 192,27.4133829 C192,29.3381994 190.775047,31.6005561 189.211575,32.5629644 C188.738694,32.8530816 188.275411,33 187.847899,33" id="Fill-56" fill="#FFFFFF"></path>
                <path d="M191.401852,50.2395068 L109.598148,102.076507 C108.715007,102.635827 108,103.99703 108,105.11567 L108,132.74685 C108,133.866442 108.715007,134.320176 109.598148,133.759905 L191.401852,81.9238563 C192.284993,81.3645361 193,80.0033333 193,78.8837416 L193,51.2525613 C193,50.1339208 192.284993,49.6801866 191.401852,50.2395068" id="Fill-58" fill="#F198F4"></path>
                <path d="M191.401852,50.2395068 L109.598148,102.076507 C108.715007,102.635827 108,103.99703 108,105.11567 L108,132.74685 C108,133.866442 108.715007,134.320176 109.598148,133.759905 L191.401852,81.9238563 C192.284993,81.3645361 193,80.0033333 193,78.8837416 L193,51.2525613 C193,50.1339208 192.284993,49.6801866 191.401852,50.2395068" id="Fill-60" fill="#F198F4"></path>
                <path d="M139.294027,88.6181034 L153.705131,79.2111623 C154.420761,78.7447654 155,79.0769542 155,79.9516865 C155,80.8273706 154.420761,81.9153129 153.705131,82.3817098 L139.294027,91.7886509 C138.578397,92.2550479 138,91.9238109 138,91.0481268 C138,90.1724427 138.578397,89.0845004 139.294027,88.6181034" id="Fill-62" fill="#FFFFFF"></path>
                <path d="M138,97.0488095 C138,97.9238655 138.589129,98.2548649 139.318038,97.7888025 L183.681962,69.3799193 C184.409156,68.9129057 185,67.8257437 185,66.9506877 C185,66.0765829 184.409156,65.7446323 183.681962,66.2116459 L139.318038,94.6205291 C138.589129,95.0865915 138,96.1737535 138,97.0488095" id="Fill-64" fill="#FFFFFF"></path>
                <path d="M138,103.048796 C138,103.923864 138.589129,104.254869 139.318038,103.7888 L183.681962,75.3795182 C184.409156,74.9124981 185,73.8253209 185,72.9512038 C185,72.0761356 184.409156,71.7451315 183.681962,72.2112004 L139.318038,100.620482 C138.589129,101.086551 138,102.173728 138,103.048796" id="Fill-66" fill="#FFFFFF"></path>
                <path d="M138,110.049297 C138,110.923416 138.589129,111.255372 139.318038,110.788351 L183.681962,82.3799724 C184.409156,81.9129515 185,80.8257724 185,79.9507027 C185,79.0765841 184.409156,78.7446283 183.681962,79.2116492 L139.318038,107.620028 C138.589129,108.087049 138,109.174228 138,110.049297" id="Fill-68" fill="#FFFFFF"></path>
                <path d="M112.563499,104.452135 L131.436501,92.2397331 C132.300874,91.6803066 133,92.1333566 133,93.2512596 L133,114.513262 C133,115.631165 132.300874,116.989365 131.436501,117.548791 L112.563499,129.760244 C111.699973,130.31967 111,129.86662 111,128.749667 L111,107.487664 C111,106.369761 111.699126,105.010612 112.563499,104.452135" id="Fill-70" fill="#FFFFFF"></path>
                <path d="M127.846809,102.588791 L122.236008,115.760024 L119.375949,113.891846 C118.800547,113.515909 118.064135,113.738402 117.731097,114.390538 L111,127.584788 L111,128.736576 C111,129.865347 111.699973,130.322801 112.563499,129.757936 L131.436501,117.426808 C132.300027,116.862902 132.999153,115.492457 133,114.364645 L133,106.821922 L129.203536,102.345199 C128.743384,101.802391 128.135781,101.91172 127.846809,102.588791" id="Fill-72" fill="#F198F4"></path>
                <path d="M113.898675,111.39553 C116.163508,109.984253 118,106.552456 118,103.729903 C118,102.439352 117.613279,101.504428 116.980305,101 L112.599777,103.728967 C111.715347,104.279252 111,105.618468 111,106.719975 L111,111.706235 C111.742227,112.167614 112.767125,112.101168 113.898675,111.39553" id="Fill-74" fill="#F198F4"></path>
                <path d="M191.401852,92.2396785 L109.598148,144.075879 C108.715007,144.636152 108,145.996408 108,147.116003 L108,174.747264 C108,175.866859 108.715007,176.319643 109.598148,175.760321 L191.401852,123.924121 C192.284993,123.364799 193,122.003592 193,120.883997 L193,93.252736 C193,92.133141 192.284993,91.6803566 191.401852,92.2396785" id="Fill-76" fill="#F198F4"></path>
                <path d="M191.401852,92.2396785 L109.598148,144.075879 C108.715007,144.636152 108,145.996408 108,147.116003 L108,174.747264 C108,175.866859 108.715007,176.319643 109.598148,175.760321 L191.401852,123.924121 C192.284993,123.364799 193,122.003592 193,120.883997 L193,93.252736 C193,92.133141 192.284993,91.6803566 191.401852,92.2396785" id="Fill-78" fill="#F198F4"></path>
                <path d="M139.294027,129.618021 L153.705131,120.211803 C154.420761,119.744443 155,120.07664 155,120.951393 C155,121.827099 154.420761,122.915067 153.705131,123.382428 L139.294027,132.788646 C138.578397,133.255054 138,132.923809 138,132.048104 C138,131.172398 138.578397,130.084429 139.294027,129.618021" id="Fill-80" fill="#FFFFFF"></path>
                <path d="M138,138.049297 C138,138.923416 138.589129,139.255372 139.318038,138.788351 L183.681962,110.379021 C184.409156,109.912951 185,108.825772 185,107.950703 C185,107.076584 184.409156,106.744628 183.681962,107.211649 L139.318038,135.620028 C138.589129,136.087049 138,137.174228 138,138.049297" id="Fill-82" fill="#FFFFFF"></path>
                <path d="M138,145.048796 C138,145.923864 138.589129,146.254869 139.318038,145.7888 L183.681962,117.379518 C184.409156,116.913449 185,115.826272 185,114.951204 C185,114.076136 184.409156,113.745131 183.681962,114.2112 L139.318038,142.620482 C138.589129,143.086551 138,144.174679 138,145.048796" id="Fill-84" fill="#FFFFFF"></path>
                <path d="M138,151.049297 C138,151.923416 138.589129,152.255372 139.318038,151.788351 L183.681962,123.379972 C184.409156,122.912951 185,121.825772 185,120.950703 C185,120.076584 184.409156,119.744628 183.681962,120.211649 L139.318038,148.620028 C138.589129,149.087049 138,150.175179 138,151.049297" id="Fill-86" fill="#FFFFFF"></path>
                <path d="M112.563499,145.451417 L131.436501,133.239288 C132.300874,132.680823 133,133.132914 133,134.251741 L133,155.512319 C133,156.631147 132.300874,157.989317 131.436501,158.547781 L112.563499,170.76086 C111.699973,171.319324 111,170.866284 111,169.749356 L111,148.486878 C111,147.36995 111.699126,146.010831 112.563499,145.451417" id="Fill-88" fill="#FFFFFF"></path>
                <path d="M127.846809,143.589078 L122.236008,156.760957 L119.375949,154.891864 C118.800547,154.516895 118.064135,154.739383 117.731097,155.390545 L111,168.58448 L111,169.737199 C111,170.864984 111.699973,171.322428 112.563499,170.758535 L131.436501,158.426742 C132.300027,157.862849 132.999153,156.492437 133,155.364651 L133,147.823068 L129.203536,143.345492 C128.743384,142.802698 128.135781,142.911065 127.846809,143.589078" id="Fill-90" fill="#F198F4"></path>
                <path d="M113.898675,153.39553 C116.163508,151.984253 118,148.552456 118,145.729903 C118,144.439352 117.613279,143.505364 116.980305,143 L112.599777,145.728967 C111.715347,146.280188 111,147.619404 111,148.719975 L111,153.706235 C111.742227,154.167614 112.767125,154.101168 113.898675,153.39553" id="Fill-92" fill="#F198F4"></path>
                <path d="M190,6.61725579 L190,2.26533759 C190,1.13485696 189.284139,0.676709754 188.400145,1.24243031 L81.5989884,69.5783995 C80.7158615,70.14412 80,71.5185616 80,72.6480818 L80,77 L190,6.61725579 Z" id="Fill-94" fill="#F198F4"></path>
                <path d="M177,10.1589378 C176.447368,10.5298518 176,11.4304006 176,12.1705311 C176,12.9115105 176.447368,13.2119763 177,12.8410622 C177.552632,12.470997 178,11.5704482 178,10.8294689 C178,10.0884895 177.552632,9.7880237 177,10.1589378" id="Fill-96" fill="#F5F5F5"></path>
                <path d="M182.000365,7.15854926 C181.447205,7.52947447 181,8.43005032 181,9.17020314 C181,9.91120476 181.447205,10.2116796 182.000365,9.84160323 C182.552795,9.47067802 183,8.57010217 183,7.82994935 C183,7.08809893 182.552795,6.78847285 182.000365,7.15854926" id="Fill-98" fill="#F5F5F5"></path>
                <path d="M187.000365,4.15860471 C186.447936,4.52961088 186,5.43038328 186,6.17069764 C186,6.91186099 186.447936,7.21155247 187.000365,6.84139529 C187.552064,6.47123811 188,5.5704657 188,4.82930236 C188,4.08813901 187.552064,3.78844753 187.000365,4.15860471" id="Fill-100" fill="#F5F5F5"></path>
                <path d="M192.446919,216.937159 C192.617719,217.186929 192.648774,217.763104 192.823888,218.543636 C192.997276,219.322275 193.055935,219.926833 192.93948,220.309057 C192.823888,220.691281 192.058736,221.549393 191.121059,221.867282 C190.183382,222.186117 189.03091,221.919317 187.914668,221.187037 C186.798427,220.455702 185.956502,219.565423 184.366677,219.069667 C182.77599,218.572965 181.981509,218.169926 181.228435,217.507657 C180.347691,216.73091 179.16934,214.586103 180.854916,214.089401 C182.55602,213.588914 186.210977,215.345821 189.545899,215.505711 L192.446919,216.937159 Z" id="Fill-102" fill="#1A2E35"></path>
                <path d="M191.798457,215 C191.798457,215 192,217.563593 192,217.874475 C192.003517,218.74192 189.026182,219.900403 188.472607,217.874475 L188,215.151189 L191.798457,215 Z" id="Fill-104" fill="#FF9090"></path>
                <path d="M188.189463,158 C189.243498,159.736991 190.269655,161.362563 191.056584,163.058606 C191.056584,163.058606 191.356966,166.820182 191.356966,169.321868 C191.356966,173.922418 190.681556,177.474489 190.065503,186.533697 C190.065503,186.533697 191.488271,188.777311 191.714007,192.390328 C191.971221,196.494732 191.973919,196.468067 192,215.382605 C192,215.382605 190.394664,216.452035 188.195758,215.775904 L182.42824,189.258221 L181.800495,178.852464 L180,165.915499 L188.189463,158 Z" id="Fill-106" fill="#FFB6DE"></path>
                <path d="M175.653477,221.650579 C175.859786,221.881916 175.789821,222.31543 175.882211,223.10081 C175.978189,223.918266 176.041876,224.468421 175.967425,224.874719 C175.892078,225.280045 175.204084,226.262742 174.274798,226.718613 C173.344616,227.174483 172.12291,227.064647 170.885956,226.47464 C169.648104,225.884633 168.673969,225.095364 166.975063,224.813483 C165.276157,224.530629 164.408764,224.231252 163.553032,223.660685 C162.551987,222.992917 161.084505,220.971147 162.765471,220.229507 C164.459892,219.481063 168.65872,220.829234 172.119322,220.524025 L175.653477,221.650579 Z" id="Fill-108" fill="#1A2E35"></path>
                <path d="M176,217.810668 C176,217.810668 175.417833,220.997717 175.277889,221.708469 C174.938824,223.416331 172,223.502858 172,221.532326 L172.197521,217 L176,217.810668 Z" id="Fill-110" fill="#FF9090"></path>
                <path d="M181.700937,159 C183.35197,162.435934 184.941156,165.477612 184.996728,169.148767 C185.113251,176.901521 182.085461,185.444693 180.972224,191.050942 C180.972224,191.050942 181.531532,194.209754 181.249189,197.201911 C181.027797,199.543641 175.992236,220.858241 175.992236,220.858241 C175.992236,220.858241 173.193906,221.475338 172,220.134486 L173.417988,179.078502 L173.79803,167.15082 L181.700937,159 Z" id="Fill-112" fill="#FFB6DE"></path>
                <polygon id="Fill-114" fill="#FFAAA9" points="179 137.164542 180.004603 143 185 142.613944 183.951381 136"></polygon>
                <path d="M190.09894,143.084733 C189.592756,141.449187 187.639576,139.668114 185.685512,140.053059 C182.095406,140.762859 179.248233,141.520543 177.127208,142.325171 C175.338339,143.004927 173.708481,144.647984 173.560954,150.902866 L173,166.637715 C173,166.637715 173.929329,167.638571 175.70053,168.156838 C178.422261,168.952077 180.212014,169.424338 184.342756,168.464793 C189.719081,167.21607 191,163.757202 191,163.757202 C191,163.757202 190.792403,155.43113 190.631625,150.902866 C190.493816,147.055297 190.446113,144.207645 190.09894,143.084733" id="Fill-116" fill="#EA2B8B"></path>
                <path d="M177,129.527181 L151.303254,122.021523 C148.978588,121.593084 148.007437,127.69811 150.331232,128.127487 L176.747414,131 L177,129.527181 Z" id="Fill-118" fill="#1A2E35"></path>
                <path d="M169.468948,142.354012 L164.086922,142.532636 C164.086922,142.532636 164.899892,133.822761 165.397848,132.684031 C165.896696,131.544331 167.099643,131.307459 168.286526,130.935649 C169.47341,130.56481 169.477872,129.951274 169.477872,129.951274 L168.404322,129.833809 C167.464632,129.729935 167.094288,128.452383 167.500328,127.595181 C167.690407,127.192306 168.0081,126.561296 168.579232,126.730212 C169.150363,126.899129 170,127.149591 170,127.149591 C170,127.149591 170.016878,125.775932 169.550156,125.209964 C169.077187,124.637202 168.755925,124.813884 167.809988,124.456636 C167.104105,124.190641 165.668243,123.712044 164.505454,124.232385 C163.343558,124.750783 162.461873,127.116584 162.17006,128.791187 C161.878248,130.46676 161.74885,131.341437 160.711889,134.448917 C159.67582,137.555426 158.157858,143.921828 158.015075,146.478874 C157.949931,147.654493 158.049879,148.354429 159.25461,148.667021 C160.459342,148.979614 169.313671,149 169.313671,149 L169.468948,142.354012 Z" id="Fill-120" fill="#FFAAA9"></path>
                <path d="M175,130 C175,130 173.868912,132.253256 174.012619,132.494211 C174.156326,132.736252 174.863559,133 174.863559,133 L175,130 Z" id="Fill-122" fill="#FFAAA9"></path>
                <path d="M178.978728,124.48369 C177.801421,125.112976 175.766861,126.277294 175.205242,130.843084 C174.628797,135.531773 175.388378,137.04169 175.985753,137.66266 C176.389525,138.08126 178.586293,138.107134 179.685984,137.757838 C181.062997,137.319833 184.167599,136.069577 185.583855,133.661472 C187.249527,130.828299 187.621904,127.034101 185.742574,125.526032 C183.097558,123.403462 179.974642,123.950506 178.978728,124.48369" id="Fill-124" fill="#FFAAA9"></path>
                <path d="M182,182.248892 L184.64887,173.953533 C184.64887,173.953533 187.862648,172.809641 190,170 C190,170 189.409257,172.36506 185.206028,174.788316 L182.30226,182.636231 L182.278149,187 L182,182.248892 Z" id="Fill-126" fill="#1A2E35"></path>
                <path d="M175.266802,125.715014 C175.643155,126.889096 176.275496,129.762075 178.910816,130.963169 C178.910816,130.963169 179.286322,129.132103 180.639159,129.326015 C182.000472,129.520891 182.222555,131.48509 181.391865,132.70355 C180.55948,133.921045 179.753373,133.483055 179.753373,133.483055 C179.753373,133.483055 179.571977,136.110027 181.112143,137.30051 C181.112143,137.30051 182.97187,138.640526 184.941791,137.611154 C185.828425,137.148081 187.08124,134.731422 187.817841,132.747928 C189.37496,128.553262 189.596195,125.189234 187.244835,124.12899 C186.954941,122.22171 186.201387,121.505878 184.684108,121.149891 C181.419837,120.383891 178.953198,122.824669 176.212771,122.394398 C174.783646,122.169615 174.8362,124.373068 175.266802,125.715014" id="Fill-128" fill="#1A2E35"></path>
                <path d="M187.163069,125 L189,123.619827 C188.686254,123.004509 188.019292,122.815747 187.512238,123.196949 C187.004172,123.578152 186.8473,124.385909 187.163069,125" id="Fill-130" fill="#1A2E35"></path>
                <path d="M168.532668,142.455321 C168.532668,142.455321 175.975665,142.012805 177.908775,142 C179.843638,141.98817 181.829373,145.359507 180.641791,147.658768 C179.859426,149.173361 177.414095,149.690695 174.329365,149.845804 C171.27007,150 168.133592,150 168.133592,150 C168.133592,150 165.334793,146.713516 168.532668,142.455321" id="Fill-132" fill="#EA2B8B"></path>
                <path d="M174.025952,150.175045 C174.025952,150.175045 178.529092,150.112356 180,148 C180,148 179.65676,149.266505 177.91126,150.086008 C176.193386,150.892792 174,151 174,151 L174.025952,150.175045 Z" id="Fill-134" fill="#2B454E"></path>
                <path d="M151.421843,122.02308 C148.977486,121.563649 147.956333,128.110292 150.399774,128.570728 L154.273745,129 C152.687523,128.824069 153.78927,122.728814 155,123.089724 L151.421843,122.02308 Z" id="Fill-136" fill="#1A2E35"></path>
                <g id="Group-140" transform="translate(233.000000, 114.000000)">
                    <mask id="mask-4" fill="white">
                        <use xlink:href="#path-3"></use>
                    </mask>
                    <g id="Clip-139"></g>
                    <path d="M11.3840571,6.21483571 C11.3840571,9.58462143 8.85805714,12.3211214 5.74748571,12.3211214 C4.11634286,12.3211214 2.64377143,11.5699071 1.6152,10.3692643 L1.2432,9.88176429 C1.2372,9.87433571 1.2312,9.87433571 1.2312,9.86876429 C0.530914286,8.84640714 0.111771429,7.57983571 0.111771429,6.21483571 C0.111771429,2.84597857 2.63691429,0.10855 5.74748571,0.10855 C7.37262857,0.10855 8.84605714,0.860692857 9.87462857,2.05483571 L10.2586286,2.55533571 C10.2637714,2.55533571 10.2637714,2.56183571 10.2637714,2.56183571 C10.9649143,3.58419286 11.3840571,4.84983571 11.3840571,6.21483571" id="Fill-138" fill="#375A64" mask="url(#mask-4)"></path>
                </g>
                <g id="Group-143" transform="translate(210.000000, 85.000000)">
                    <mask id="mask-6" fill="white">
                        <use xlink:href="#path-5"></use>
                    </mask>
                    <g id="Clip-142"></g>
                    <path d="M34.371225,35.0250409 C34.371225,38.4890864 31.7926,41.3021318 28.617225,41.3021318 C26.9521,41.3021318 25.44885,40.5299045 24.39885,39.2956773 L24.0191,38.7945409 C24.012975,38.7869045 24.00685,38.7869045 24.00685,38.7811773 L0.046725,7.22581364 L10.144225,0.867586364 L32.83035,30.7486773 L33.22235,31.2631773 C33.2276,31.2631773 33.2276,31.2698591 33.2276,31.2698591 C33.94335,32.3208136 34.371225,33.6218591 34.371225,35.0250409" id="Fill-141" fill="#933772" mask="url(#mask-6)"></path>
                </g>
                <path d="M224.977609,111.984245 C226.032876,113.224193 227.543665,114 229.218021,114 C232.408442,114 235,111.173916 235,107.693815 C235,106.285088 234.5691,104.977053 233.851519,103.921227 C233.851519,103.921227 233.851519,103.914515 233.845363,103.914515 L230.867754,100 C230.873909,100 230.873909,100.007672 230.873909,100.007672 C231.59149,101.062539 232.02327,102.370573 232.02327,103.780259 C232.02327,107.26036 229.430833,110.086444 226.241291,110.086444 C224.566056,110.086444 223.055266,109.309679 222,108.069731 L224.977609,111.984245 Z" id="Fill-144" fill="#EA2B8B"></path>
                <path d="M219.937071,36.2978871 C221.78707,36.5394635 223.481897,37.1481598 225,38.1144651 L217.818106,33.505493 C212.999142,29.8542664 206.062938,30.0692122 198.356906,34.9730216 C183.802602,44.246129 172,66.8002283 172,85.3445409 C171.991399,94.4559633 174.814674,100.96616 179.446569,104.062903 L179.546569,104.125674 L187.212083,109 C185.881049,108.050814 184.705187,106.824862 183.714671,105.330703 C185.475877,105.562768 187.366393,105.446735 189.36122,104.972143 C190.034496,104.811409 190.716392,104.614534 191.405185,104.372957 C191.317254,104.336816 191.227599,104.300675 191.146564,104.256924 C190.781047,104.068609 190.424151,103.853663 190.092254,103.594016 C189.507772,103.147005 188.980186,102.591569 188.501738,101.929612 C187.910359,101.11453 187.414669,100.156784 187.009497,99.0649354 C186.489669,99.1457779 185.987083,99.1819192 185.500877,99.1819192 C184.193981,99.1819192 183.050878,98.930832 182.035361,98.4210489 C181.775878,98.2955053 181.532775,98.1433312 181.298292,97.9825974 C181.078465,97.8304233 180.86812,97.6601785 180.657775,97.481374 C180.234499,95.3775675 180.016396,93.0597662 180.016396,90.527019 C180.016396,71.9827065 191.81984,49.4276561 206.381903,40.1554998 C208.400868,38.8667757 210.372419,37.9090301 212.262936,37.2470729 C212.81466,37.497209 213.334487,37.8281876 213.805177,38.2314489 C214.291383,38.6423189 214.737073,39.1264227 215.143107,39.6894667 C215.735348,40.5045491 216.230176,41.4708544 216.643969,42.5627034 C217.162072,42.482812 217.66552,42.4466706 218.153451,42.4466706 C219.677588,42.4466706 220.992243,42.7957199 222.118967,43.5118891 C222.428449,43.6906937 222.719828,43.9056395 222.99569,44.1472159 C222.890518,43.6012914 222.768966,43.0734376 222.631035,42.5627034 C222.013794,40.1288693 221.098277,38.0345737 219.937071,36.2978871" id="Fill-146" fill="#5E183E"></path>
                <path d="M222.324258,44.3199681 C222.634504,44.4985196 222.927418,44.7131613 223.205599,44.9543957 C223.662301,45.3475888 224.077406,45.8120126 224.469979,46.3391194 C226.313254,48.8777795 227.290788,52.8192084 227.290788,57.7350724 C227.290788,73.9471667 216.46079,94.5033804 203.641061,102.618925 C200.41208,104.665619 197.304425,105.747375 194.663004,105.747375 C193.463619,105.747375 192.403757,105.532733 191.448756,105.094902 C191.360362,105.058812 191.270234,105.023671 191.187907,104.979034 C190.820465,104.790985 190.461689,104.576343 190.128912,104.317063 C189.719873,104.004598 189.337699,103.637998 188.985856,103.22676 L188.978057,103.22676 C188.823801,103.048208 188.677344,102.851612 188.530021,102.655015 C187.934661,101.841086 187.437228,100.884696 187.029056,99.7943925 C186.157248,97.4884191 185.707479,94.6021535 185.707479,91.2685594 C185.707479,91.0539178 185.707479,90.8392761 185.724811,90.6160868 C185.99346,74.5018159 196.709065,54.3834333 209.358073,46.384707 C209.651853,46.1966581 209.945633,46.0181066 210.238546,45.8481028 C212.554989,44.4985196 214.78997,43.657998 216.819566,43.3721257 C217.341264,43.2923474 217.847363,43.2562572 218.336996,43.2562572 C219.526848,43.2562572 220.587576,43.4708988 221.533912,43.9001822 C221.81036,44.0160507 222.072076,44.1594617 222.324258,44.3199681 M225.220462,38.9301828 C225.081805,38.8409071 224.942281,38.760179 224.803623,38.6804007 C223.384986,37.8579242 221.827692,37.3393651 220.130874,37.1161758 C218.492119,36.9015341 216.730305,36.9822622 214.878364,37.3754553 C214.072419,37.5454591 213.256074,37.7771962 212.415465,38.0640182 C210.515861,38.7250386 208.533929,39.6814287 206.504333,40.9683289 C191.865594,50.2273627 180,72.7504919 180,91.2685594 C180,93.7977221 180.219252,96.1122431 180.64389,98.2130722 C180.725351,98.6243105 180.815478,99.0175036 180.912538,99.409747 C181.539962,102.002542 182.494964,104.227788 183.717747,106.051292 C184.313974,106.953547 184.982128,107.749431 185.716145,108.455089 C186.197112,108.919513 186.703211,109.340248 187.233575,109.715396 C192.060581,113.129718 198.903316,112.834349 206.495667,108.034353 C221.133539,98.7753194 233,76.25314 233,57.7350724 C233,48.4579936 230.023202,41.9513118 225.220462,38.9301828" id="Fill-148" fill="#933772"></path>
                <path d="M227,57.5547527 C227,73.9130375 216.234577,94.6546143 203.491286,102.84334 C202.688424,103.356992 201.893314,103.816979 201.10768,104.205093 C201.10768,104.205093 201.099927,104.213717 201.092174,104.213717 C198.756809,105.386684 196.5274,106 194.566762,106 C193.374528,106 192.320125,105.783423 191.371678,105.341644 C191.28295,105.305228 191.194222,105.269771 191.112385,105.22473 C190.747134,105.034986 190.390498,104.818409 190.058843,104.556791 C189.474786,104.106387 188.947585,103.546736 188.469485,102.879755 C188.307534,102.64497 188.145583,102.411144 188,102.149526 C188.283414,102.176359 188.583195,102.194567 188.891591,102.194567 C191.518123,102.194567 194.606388,101.103056 197.816116,99.0379063 C210.560268,90.8491809 221.325691,70.1076041 221.325691,53.7493193 C221.325691,49.2491139 220.522828,45.5605938 218.99894,43 C220.149824,43.0987055 221.16374,43.4408208 222.063084,44.0186794 C222.37148,44.1988409 222.662647,44.4154181 222.938308,44.6588278 C223.393148,45.0555665 223.805778,45.5241782 224.195149,46.0560381 C225.808628,48.3109323 226.757074,51.6563788 226.950898,55.8048858 C226.983633,56.3731613 227,56.9596447 227,57.5547527" id="Fill-150" fill="#000000"></path>
                <path d="M225,55.6891009 C225,72.002021 214.200558,92.6860773 201.418022,100.852094 C198.197545,102.911516 195.09977,104 192.465148,104 C191.270107,104 190.221097,103.784023 189.268866,103.343469 L189.261953,103.343469 C189.107281,103.163808 188.961249,102.965988 188.814353,102.768169 C188.221585,101.949178 187.724731,100.98684 187.318607,99.8897558 C186.448465,97.5694412 186,94.6652254 186,91.3108991 C186,91.0949225 186,90.878946 186.017282,90.6543686 C186.285151,74.4398803 196.970532,54.1963779 209.581978,46.1479062 C209.874906,45.9586878 210.167834,45.7780702 210.459897,45.6079648 C212.769619,44.2499883 214.998117,43.4042393 217.022688,43.1165891 C217.542008,43.0363146 218.046639,43 218.535716,43 C219.722116,43 220.778903,43.2159766 221.722493,43.646974 C221.885807,43.8275916 222.038751,44.0244552 222.185647,44.2222744 C224.023574,46.7767229 225,50.7426642 225,55.6891009" id="Fill-152" fill="#FFFFFF"></path>
            </g>
        </g>
    </g>
</svg>