<svg xmlns="http://www.w3.org/2000/svg" width="30.133" height="26.249" viewBox="0 0 30.133 26.249">
  <g id="_3022112_1_" data-name="3022112 (1)" transform="translate(0 -33)">
    <path id="Path_4469" data-name="Path 4469" d="M27.72,46.525a2.652,2.652,0,0,0,2.413-2.637V35.648A2.651,2.651,0,0,0,27.484,33H18.715a2.651,2.651,0,0,0-2.648,2.648v3.472H5.061a2.651,2.651,0,0,0-2.648,2.648V52.363a2.636,2.636,0,0,0,.152.883H1.589A1.591,1.591,0,0,0,0,54.835a4.419,4.419,0,0,0,4.414,4.414h21.3a4.419,4.419,0,0,0,4.414-4.414,1.591,1.591,0,0,0-1.589-1.589h-.976a2.636,2.636,0,0,0,.152-.883ZM17.833,35.648a.884.884,0,0,1,.883-.883h8.769a.884.884,0,0,1,.883.883v8.239a.884.884,0,0,1-.883.883H19.3a.883.883,0,0,0-.468.134l-1.78,1.112.739-2.464a.883.883,0,0,0,.037-.254Zm7.886,21.835H4.414a2.652,2.652,0,0,1-2.643-2.472h26.59A2.652,2.652,0,0,1,25.719,57.483ZM8.416,46.6a1,1,0,1,1,1,1A1,1,0,0,1,8.416,46.6Zm-.471,3.767c0-.533.688-1,1.471-1a1.8,1.8,0,0,1,1.111.36.869.869,0,0,1,.36.641v2.884H7.945Zm4.708,2.884V50.362a2.6,2.6,0,0,0-1.023-2.019l-.045-.034a2.766,2.766,0,1,0-4.338,0A2.6,2.6,0,0,0,6.18,50.362v2.884H5.061a.884.884,0,0,1-.883-.883V41.769a.884.884,0,0,1,.883-.883H16.067V43.17l-.7,2.34a1.763,1.763,0,0,0,2.627,2l1.565-.978h6.4v5.826a.884.884,0,0,1-.883.883Z" fill="#b5b3b3"/>
    <path id="Path_4470" data-name="Path 4470" d="M363.766,169h-1.883a.883.883,0,0,0,0,1.766h1.883a.883.883,0,1,0,0-1.766Z" transform="translate(-339.754 -127.996)" fill="#b5b3b3"/>
    <path id="Path_4471" data-name="Path 4471" d="M337.883,98.766h4.708a.883.883,0,1,0,0-1.766h-4.708a.883.883,0,1,0,0,1.766Z" transform="translate(-317.166 -60.233)" fill="#b5b3b3"/>
  </g>
</svg>
