<svg xmlns="http://www.w3.org/2000/svg" width="73.963" height="76.641" viewBox="0 0 73.963 76.641">
  <g id="Group_1298" data-name="Group 1298" transform="translate(-15345.37 -8523)">
    <g id="Group_1297" data-name="Group 1297" transform="translate(15345.37 8523)">
      <path id="Path_5939" data-name="Path 5939" d="M106.677,48.484a14.962,14.962,0,0,1,11.656,14.54v.551a1.191,1.191,0,0,1-1.192,1.191H89.721a1.191,1.191,0,0,1-1.191-1.191v-.551a14.9,14.9,0,0,1,18.146-14.54ZM62.517,69.746a14.961,14.961,0,0,1,11.655,14.54v.55a1.192,1.192,0,0,1-1.191,1.192H45.561a1.192,1.192,0,0,1-1.192-1.192v-.55a14.9,14.9,0,0,1,18.147-14.54ZM59.271,51.912a8.361,8.361,0,1,1-8.361,8.361A8.367,8.367,0,0,1,59.271,51.912Zm0,2.382a5.979,5.979,0,1,0,5.979,5.979A5.973,5.973,0,0,0,59.271,54.294Zm5.144,18.588-4.13,6.794a1.186,1.186,0,0,1-2.03,0l-4.128-6.791a12.569,12.569,0,0,0-7.359,10.764H71.774a12.561,12.561,0,0,0-7.359-10.764ZM56.426,72.1l2.846,4.682L62.117,72.1A12.417,12.417,0,0,0,56.426,72.1Zm24.581,3.565a1.191,1.191,0,0,1-1.684-1.684l3.792-3.792H69.709a1.192,1.192,0,0,1,0-2.383H83.164l-3.841-3.841a1.191,1.191,0,0,1,1.684-1.684l5.85,5.85a1.192,1.192,0,0,1,0,1.684Zm25.67,15.346a14.962,14.962,0,0,1,11.656,14.54v.55a1.192,1.192,0,0,1-1.192,1.192H89.721a1.192,1.192,0,0,1-1.191-1.192v-.55a14.9,14.9,0,0,1,18.146-14.54Zm-3.246-17.834a8.362,8.362,0,1,1-8.361,8.361A8.367,8.367,0,0,1,103.431,73.174Zm0,2.382a5.979,5.979,0,1,0,5.979,5.979A5.973,5.973,0,0,0,103.431,75.556Zm5.144,18.588-4.13,6.794a1.186,1.186,0,0,1-2.03,0l-4.128-6.791a12.569,12.569,0,0,0-7.359,10.764h25.006A12.559,12.559,0,0,0,108.575,94.145Zm-7.989-.784,2.846,4.681,2.846-4.682a12.4,12.4,0,0,0-5.691,0Zm2.846-62.711a8.362,8.362,0,1,1-8.361,8.362,8.368,8.368,0,0,1,8.361-8.362Zm0,2.383a5.979,5.979,0,1,0,5.979,5.979,5.973,5.973,0,0,0-5.979-5.979Zm5.144,18.587-4.13,6.794a1.186,1.186,0,0,1-2.03,0l-4.128-6.79a12.568,12.568,0,0,0-7.359,10.763h25.006A12.56,12.56,0,0,0,108.575,51.62Zm-7.989-.784,2.846,4.681,2.846-4.682a12.431,12.431,0,0,0-5.691,0Z" transform="translate(-44.37 -30.65)" fill="#fff"/>
    </g>
  </g>
</svg>
