<svg xmlns="http://www.w3.org/2000/svg" width="640.018" height="855.649" viewBox="0 0 640.018 855.649">
  <g id="Mobile_login-pana_3_" data-name="Mobile login-pana (3)" transform="translate(-93.67 -38.719)">
    <g id="freepik--Floor--inject-48" transform="translate(93.67 893.296)">
      <path id="Path_2413" data-name="Path 2413" d="M733.688,453.406c0,.289-143.285.537-319.978.537s-320.04-.248-320.04-.537,143.265-.536,320.04-.536S733.688,453.138,733.688,453.406Z" transform="translate(-93.67 -452.87)" fill="#263238"/>
    </g>
    <g id="freepik--Plant--inject-48" transform="translate(556.098 421.394)">
      <path id="Path_2414" data-name="Path 2414" d="M355.753,444.005c-31.88-22.265-39.1-63.6-37.844-100.758.206-6.19-.475-12.752,2.476-18.179s9.843-9.162,15.393-6.562c4.6,2.167,6.6,7.532,9.182,11.968a36.236,36.236,0,0,0,14.547,13.887c3.941,2.063,8.831,3.3,12.731,1.155,5.365-2.951,5.984-10.317,5.943-16.508q0-17.271-.206-34.5a57.429,57.429,0,0,1,1.857-18.323c1.919-5.86,6.19-11.287,12.03-12.938s13.124,1.754,14.444,7.779a59.423,59.423,0,0,1,.186,7.676c.165,2.579,1.362,5.406,3.776,6.19s4.932-1.011,6.789-2.827c6.355-6.19,10.689-14.258,14.712-22.223s7.965-16.157,13.743-22.945,13.763-12.174,22.7-12.69,18.241,4.973,20.469,13.639-2.827,17.519-8.254,24.555a137.983,137.983,0,0,1-28.661,27.341,11.225,11.225,0,0,0-4.808,5.138c-1.341,4.127,2.559,8.254,6.624,9.554,4.6,1.527,9.6,1.052,14.444,1.63s10.008,2.683,11.844,7.222c2.517,6.314-2.765,12.917-7.944,17.25a118.4,118.4,0,0,1-34.914,20.16c-4.54,1.651-9.306,3.116-12.979,6.293s-5.86,8.728-3.652,13.082,7.882,5.736,12.649,4.849,9-3.446,13.536-5.159c8.481-3.2,19.417-2.621,24.761,4.7a19.52,19.52,0,0,1,2.063,17.271,45.046,45.046,0,0,1-9.347,15.249,118.917,118.917,0,0,1-50.884,35.553c-19.665,6.809-37.885,8.666-57.426,1.506" transform="translate(-317.775 -224.174)" fill="#8dc63f"/>
      <path id="Path_2415" data-name="Path 2415" d="M460.771,226.66s-.186.206-.6.578l-1.836,1.63c-1.609,1.444-3.982,3.549-6.974,6.335A230.288,230.288,0,0,0,427.8,260.645c-4.6,5.716-9.368,12.195-14.444,19.231s-10.317,14.63-15.517,22.7a279.942,279.942,0,0,0-15.208,26.371c-2.394,4.725-4.5,9.657-6.665,14.692l-6.4,15.373a567.134,567.134,0,0,0-22,59.365,276.507,276.507,0,0,0-10.317,50.616,201.274,201.274,0,0,0-.578,34.852c.33,4.127.64,7.284.929,9.43.124,1.032.206,1.857.289,2.456v.846a4.3,4.3,0,0,1-.186-.825c-.1-.6-.227-1.4-.392-2.435-.371-2.063-.763-5.324-1.135-9.45a191.763,191.763,0,0,1,.206-34.955,271.975,271.975,0,0,1,10.09-50.843,553.818,553.818,0,0,1,21.934-59.51l6.562-15.311c2.167-5.014,4.292-9.987,6.706-14.733a276.312,276.312,0,0,1,15.331-26.433c5.282-8.254,10.606-15.723,15.62-22.7s9.863-13.495,14.444-19.19a219.346,219.346,0,0,1,23.874-25.257c3.054-2.744,5.489-4.808,7.139-6.19l1.919-1.548a4.5,4.5,0,0,1,.763-.537Z" transform="translate(-298.945 -221.53)" fill="#263238"/>
      <path id="Path_2416" data-name="Path 2416" d="M362.637,310.977a12.774,12.774,0,0,1-.6-2.621c-.33-1.713-.7-4.127-1.135-7.263-.887-6.19-1.8-14.671-2.765-24.06s-2.063-17.89-2.971-24.019c-.475-3.054-.887-5.509-1.176-7.222a11.142,11.142,0,0,1-.351-2.683,11.411,11.411,0,0,1,.764,2.579c.454,1.692.97,4.127,1.548,7.2,1.176,6.19,2.332,14.609,3.3,24.019s1.8,17.663,2.435,24.08c.309,2.889.578,5.344.784,7.3a11.432,11.432,0,0,1,.165,2.682Z" transform="translate(-279.635 -204.036)" fill="#263238"/>
      <path id="Path_2417" data-name="Path 2417" d="M437.252,268.892a16.5,16.5,0,0,1-3.054.371c-2.063.186-4.994.433-8.625.846-7.263.784-17.25,2.229-28.207,4.292s-20.8,4.4-27.877,6.19c-3.529.908-6.376,1.733-8.254,2.29a15.056,15.056,0,0,1-3.1.743,17.982,17.982,0,0,1,2.971-1.176c1.94-.681,4.746-1.63,8.254-2.641,7.036-2.063,16.879-4.519,27.877-6.624a280.935,280.935,0,0,1,28.166-3.921c3.652-.309,6.6-.433,8.667-.475a15.864,15.864,0,0,1,3.178.1Z" transform="translate(-274.849 -176.767)" fill="#263238"/>
      <path id="Path_2418" data-name="Path 2418" d="M361.878,370.935a4.292,4.292,0,0,1-.536-.97l-1.362-2.868c-1.176-2.5-2.765-6.19-4.663-10.709-3.838-9.079-8.728-21.79-13.928-35.9s-9.987-26.825-13.619-36.007c-1.775-4.457-3.24-8.109-4.333-10.833l-1.155-2.951a3.98,3.98,0,0,1-.33-1.073,4.293,4.293,0,0,1,.537.97l1.362,2.868c1.156,2.5,2.765,6.19,4.663,10.709,3.838,9.079,8.728,21.79,13.928,35.9s9.987,26.825,13.619,36.007c1.775,4.457,3.24,8.109,4.313,10.833.475,1.176.867,2.063,1.176,2.951a3.989,3.989,0,0,1,.33,1.073Z" transform="translate(-313.335 -175.844)" fill="#263238"/>
      <path id="Path_2419" data-name="Path 2419" d="M446.711,302.25a4.375,4.375,0,0,1-1.052.433l-3.054,1.032-11.287,3.652c-9.533,3.1-22.7,7.511-37.142,12.381s-27.671,9.2-37.266,12.092c-4.787,1.465-8.687,2.579-11.39,3.322l-3.116.8a5.345,5.345,0,0,1-1.114.227,4.37,4.37,0,0,1,1.052-.433l3.054-1.032,11.287-3.652c9.533-3.1,22.7-7.511,37.142-12.381s27.65-9.2,37.245-12.092c4.808-1.465,8.687-2.579,11.411-3.322l3.116-.8A5.351,5.351,0,0,1,446.711,302.25Z" transform="translate(-292.768 -141.144)" fill="#263238"/>
    </g>
    <g id="freepik--Padlock--inject-48" transform="translate(546.081 38.719)">
      <path id="Path_2420" data-name="Path 2420" d="M433.878,81.97l-10.627,3.8-4.56-13.887c-8.378-25.607-35.079-39.205-59.613-30.56s-37.6,36.729-29.218,62.337l4.56,13.887-10.668,3.817a16.962,16.962,0,0,0-9.946,21.212l29.569,90.358a15.95,15.95,0,0,0,20.346,10.544l110.126-39.391A17.044,17.044,0,0,0,483.9,182.666l-29.59-90.358A15.909,15.909,0,0,0,433.878,81.97ZM349.937,96.414a27.217,27.217,0,0,1,16.012-34.15A25.5,25.5,0,0,1,398.614,79l4.54,13.887L354.477,110.3Zm61.9,80.185,7.552,23.069a1.878,1.878,0,0,1-1.176,2.311l-10.585,3.776a1.692,1.692,0,0,1-2.063-1.114l-7.614-22.966a20.635,20.635,0,0,1-18.571-14.444,21.687,21.687,0,0,1,12.773-27.2,20.325,20.325,0,0,1,26.02,13.33,22.037,22.037,0,0,1-6.314,23.3Z" transform="translate(-312.921 -38.719)" fill="#8dc63f"/>
      <path id="Path_2421" data-name="Path 2421" d="M411.941,61.4c0,.289-19.706,7.7-44.22,16.508S323.213,93.8,323.11,93.593s19.706-7.676,44.24-16.508S411.838,61.136,411.941,61.4Z" transform="translate(-302.085 -14.604)" fill="#263238"/>
      <path id="Path_2422" data-name="Path 2422" d="M419.442,63.24a3.615,3.615,0,0,1,.227.557c.165.413.351.949.6,1.609.537,1.506,1.279,3.59,2.208,6.19L430.4,94.666c3.3,9.781,7.243,21.377,11.617,34.253,2.064,6.459,4.5,13.185,6.768,20.263a30.951,30.951,0,0,1,1.548,11.328,15.21,15.21,0,0,1-1.672,5.716,15.766,15.766,0,0,1-3.9,4.6,37.143,37.143,0,0,1-10.482,5.344l-10.627,3.817-20.119,7.2-34.067,12.133-23.007,8.089-6.19,2.063-1.651.536a1.756,1.756,0,0,1-.557.144,1.083,1.083,0,0,0,.516-.248l1.609-.64,6.19-2.332,22.884-8.419,34.005-12.381,20.077-7.263,10.627-3.838a35.348,35.348,0,0,0,10.173-5.179,14.672,14.672,0,0,0,3.632-4.271,13.577,13.577,0,0,0,1.548-5.3,29.691,29.691,0,0,0-1.486-10.916c-2.229-7.016-4.581-13.8-6.706-20.263-4.292-12.9-8.254-24.534-11.39-34.315s-5.778-17.642-7.594-23.172c-.867-2.7-1.527-4.808-2.063-6.335l-.5-1.651a1.927,1.927,0,0,1-.145-.392Z" transform="translate(-286.186 -12.643)" fill="#263238"/>
      <path id="Path_2423" data-name="Path 2423" d="M371.992,51.5s-1.094-.536-3.116-1.362a27.484,27.484,0,0,0-9.017-1.816,30.951,30.951,0,0,0-13.33,2.517,29.713,29.713,0,0,0-12.608,10.544,27.9,27.9,0,0,0-4.849,15.662,48.266,48.266,0,0,0,2.064,13.516c1.073,3.755,2.187,6.747,2.93,8.832a23.064,23.064,0,0,1,1.073,3.26,18.113,18.113,0,0,1-1.465-3.116c-.846-2.063-2.063-4.994-3.26-8.77a46.923,46.923,0,0,1-2.373-13.722,28.289,28.289,0,0,1,4.952-16.26A30.188,30.188,0,0,1,346.1,49.93a30.7,30.7,0,0,1,13.722-2.352,25.978,25.978,0,0,1,9.141,2.167,17.038,17.038,0,0,1,2.228,1.238A3.076,3.076,0,0,1,371.992,51.5Z" transform="translate(-296.843 -29.356)" fill="#263238"/>
      <path id="Path_2424" data-name="Path 2424" d="M356.173,89.912A7.118,7.118,0,0,1,357.2,89.4a20.49,20.49,0,0,1,3.2-1.135,22.882,22.882,0,0,1,5.344-.908,18.117,18.117,0,0,1,7.243,1.094c5.282,1.857,10.132,7.243,12.525,14.444a20.8,20.8,0,0,1,0,11.844,26.823,26.823,0,0,1-6.644,11.122l.124-.557c2.744,7.532,5.736,15.7,8.831,24.225l.186.516-.516.186-4.725,1.568-10.317,3.446-.516.165-.165-.516c-2.827-8.543-5.922-16.508-8.254-24.328l.454.351a20.634,20.634,0,0,1-11.06-4.354A24.969,24.969,0,0,1,346,118.305a18.859,18.859,0,0,1-2.187-9.286,22.409,22.409,0,0,1,8.646-17.044,13.125,13.125,0,0,1,3.57-2.063,39.783,39.783,0,0,0-3.384,2.249,21.935,21.935,0,0,0-6.376,9.059,19.52,19.52,0,0,0,.64,16.652,24.225,24.225,0,0,0,6.747,7.924,19.645,19.645,0,0,0,10.544,4.127h.351l.1.309c2.27,7.676,5.386,15.7,8.254,24.287l-.681-.33,10.317-3.446,4.7-1.589-.33.7c-3.075-8.522-6.046-16.714-8.77-24.246V125.3l.248-.248a26.287,26.287,0,0,0,6.521-10.668,19.953,19.953,0,0,0,0-11.328C382.667,96.123,378.025,90.861,372.99,89a17.726,17.726,0,0,0-7-1.176,23.646,23.646,0,0,0-5.282.722C357.638,89.314,356.193,90.015,356.173,89.912Z" transform="translate(-280.075 12.972)" fill="#263238"/>
    </g>
    <g id="freepik--Device--inject-48" transform="translate(307.608 129.945)">
      <path id="Path_2425" data-name="Path 2425" d="M448.141,690.387l-206.117-.949a44.922,44.922,0,0,1-44.674-45.107l2.187-516.707A44.88,44.88,0,0,1,244.644,82.93l206.1.949a44.921,44.921,0,0,1,44.694,45.086l-2.187,516.686A44.921,44.921,0,0,1,448.141,690.387Z" transform="translate(-197.35 -82.93)" fill="#455a64"/>
      <path id="Path_2426" data-name="Path 2426" d="M443.36,92.362H403.411a9.925,9.925,0,0,0-9.74,10.111v7.243a9.9,9.9,0,0,1-9.739,10.09l-77.874-.351a9.946,9.946,0,0,1-9.678-10.193v-7.243a9.946,9.946,0,0,0-9.657-10.193H272.672L237.7,91.66A31.447,31.447,0,0,0,206.064,122.8L204,627.145a31.426,31.426,0,0,0,31.282,31.571l205.684.949a31.447,31.447,0,0,0,31.591-31.3l2.063-504.347A31.468,31.468,0,0,0,443.36,92.362Z" transform="translate(-190.278 -73.646)" fill="#fff"/>
      <path id="Path_2427" data-name="Path 2427" d="M386.88,359.237l-152.942-.66c-1.589,0-2.868-1.733-2.848-3.838l.165-40.01c0-2.063,1.3-3.838,2.889-3.838l152.942.7a3.467,3.467,0,0,1,2.848,3.859l-.144,39.969C389.79,357.544,388.469,359.257,386.88,359.237Z" transform="translate(-161.469 159.493)" fill="#8dc63f"/>
      <text id="SING_UP" data-name="SING UP" transform="translate(113.985 494.888)" fill="#e8e8e3" font-size="12" font-family="Montserrat-ExtraLight, Montserrat" font-weight="200"><tspan x="0" y="0">SING UP</tspan></text>
      <rect id="Rectangle_153" data-name="Rectangle 153" width="53.072" height="9.739" transform="translate(49.903 166.735) rotate(0.26)" fill="#8dc63f"/>
      <rect id="Rectangle_154" data-name="Rectangle 154" width="53.072" height="9.739" transform="translate(49.903 166.735) rotate(0.26)" opacity="0.1"/>
      <path id="Path_2428" data-name="Path 2428" d="M430.552,211.568a4.746,4.746,0,0,0,1.217-.289,3.26,3.26,0,0,0,2.063-2.786v-27.4a4,4,0,0,0-.578-2.7,3.1,3.1,0,0,0-2.455-1.259H397.763l-172.586-.64a2.744,2.744,0,0,0-2.27,1.135,3.941,3.941,0,0,0-.536,2.7v24.761a16.277,16.277,0,0,0,0,2.889,2.786,2.786,0,0,0,1.609,1.857,3.218,3.218,0,0,0,1.279.227h10.5l45.829.248,77.586.475,52.308.413,14.217.165H359.177l-77.586-.248-45.829-.186h-10.5a4.128,4.128,0,0,1-1.692-.289,3.879,3.879,0,0,1-2.229-2.579,5.84,5.84,0,0,1-.124-1.651V180.121a11.547,11.547,0,0,1,0-1.651,3.509,3.509,0,0,1,.681-1.671,3.8,3.8,0,0,1,3.136-1.589l172.587.949,29.817.206h3.219a3.529,3.529,0,0,1,2.889,1.506,4.395,4.395,0,0,1,.66,3.033v13.185c0,6.19-.144,10.936-.186,14.238a3.343,3.343,0,0,1-2.167,2.868,2.475,2.475,0,0,1-1.3.372Z" transform="translate(-172.002 15.205)" fill="#e0e0e0"/>
      <rect id="Rectangle_155" data-name="Rectangle 155" width="97.064" height="9.1" transform="translate(65.845 202.053)" fill="#8dc63f"/>
      <rect id="Rectangle_156" data-name="Rectangle 156" width="97.064" height="9.1" transform="translate(65.845 202.053)" fill="#fff" opacity="0.2"/>
      <rect id="Rectangle_157" data-name="Rectangle 157" width="53.072" height="9.739" transform="translate(49.541 255.584) rotate(0.26)" fill="#8dc63f"/>
      <rect id="Rectangle_158" data-name="Rectangle 158" width="53.072" height="9.739" transform="translate(49.541 255.584) rotate(0.26)" opacity="0.1"/>
      <path id="Path_2429" data-name="Path 2429" d="M429.456,254.511a10.674,10.674,0,0,0,1.238-.227,4.23,4.23,0,0,0,2.6-2.352,5.779,5.779,0,0,0,.371-2.621V224.694a4.436,4.436,0,0,0-.6-2.724,4,4,0,0,0-2.249-1.754,12.647,12.647,0,0,0-3.116-.165H398.01l-171.988-.64a3.817,3.817,0,0,0-3.776,3.322V247.5a11.847,11.847,0,0,0,.124,2.889,3.92,3.92,0,0,0,1.506,2.063,4.292,4.292,0,0,0,2.559.66h8.832l45.664.227,77.317.475,52.123.413,14.176.165h-66.3l-77.359-.083-45.664-.165h-8.976a5.179,5.179,0,0,1-3.157-.846,4.952,4.952,0,0,1-1.94-2.7,13,13,0,0,1-.165-3.178q0-3.1,0-6.19V222.651a4.89,4.89,0,0,1,4.849-4.271l171.988.949,29.693.227a12.777,12.777,0,0,1,3.3.227,4.56,4.56,0,0,1,2.538,2.063,4.973,4.973,0,0,1,.66,3.013v24.72a5.758,5.758,0,0,1-.433,2.7,4.374,4.374,0,0,1-2.786,2.352A3.876,3.876,0,0,1,429.456,254.511Z" transform="translate(-172.248 61.114)" fill="#e0e0e0"/>
      <rect id="Rectangle_159" data-name="Rectangle 159" width="53.072" height="9.739" transform="translate(49.141 348.292) rotate(0.26)" fill="#8dc63f"/>
      <rect id="Rectangle_160" data-name="Rectangle 160" width="53.072" height="9.739" transform="translate(49.141 348.292) rotate(0.26)" opacity="0.1"/>
      <path id="Path_2430" data-name="Path 2430" d="M429.161,299.559a9.874,9.874,0,0,0,1.238-.227A4.25,4.25,0,0,0,433,297a5.818,5.818,0,0,0,.371-2.621V269.742a4.437,4.437,0,0,0-.6-2.724,4.127,4.127,0,0,0-2.249-1.733,12.608,12.608,0,0,0-3.116-.186H397.714l-171.988-.64a3.818,3.818,0,0,0-3.776,3.322v24.761a11.678,11.678,0,0,0,.124,2.868,3.775,3.775,0,0,0,1.506,2.063,4.127,4.127,0,0,0,2.559.66h8.976l45.664.248,77.317.475,52.123.413,14.176.165H358.1l-77.317-.227-45.664-.186h-8.976a5.056,5.056,0,0,1-3.157-.846,4.953,4.953,0,0,1-1.94-2.7,13,13,0,0,1-.165-3.178q0-3.1,0-6.19V267.431a4.87,4.87,0,0,1,4.828-4.271l171.988.949,29.693.227a12.778,12.778,0,0,1,3.3.227,4.56,4.56,0,0,1,2.538,2.063,4.973,4.973,0,0,1,.66,3.013v24.72a5.655,5.655,0,0,1-.433,2.7,4.375,4.375,0,0,1-2.786,2.352A3.261,3.261,0,0,1,429.161,299.559Z" transform="translate(-172.365 108.735)" fill="#e0e0e0"/>
      <rect id="Rectangle_161" data-name="Rectangle 161" width="97.064" height="9.1" transform="translate(63.773 293.038) rotate(0.26)" fill="#8dc63f"/>
      <rect id="Rectangle_162" data-name="Rectangle 162" width="97.064" height="9.1" transform="translate(63.773 293.038) rotate(0.26)" fill="#fff" opacity="0.2"/>
      <path id="Path_2431" data-name="Path 2431" d="M236.885,274.991a4.251,4.251,0,1,1-4.127-4.56A4.375,4.375,0,0,1,236.885,274.991Z" transform="translate(-164.335 116.466)" fill="#8dc63f"/>
      <path id="Path_2432" data-name="Path 2432" d="M243.256,275.013a4.251,4.251,0,1,1-2.03-3.927,4.251,4.251,0,0,1,2.03,3.927Z" transform="translate(-157.561 116.505)" fill="#8dc63f"/>
      <path id="Path_2433" data-name="Path 2433" d="M249.636,275.051a4.251,4.251,0,1,1-4.127-4.56A4.4,4.4,0,0,1,249.636,275.051Z" transform="translate(-150.776 116.529)" fill="#8dc63f"/>
      <path id="Path_2434" data-name="Path 2434" d="M256.005,275.081a4.251,4.251,0,1,1-4.127-4.56,4.4,4.4,0,0,1,4.127,4.56Z" transform="translate(-144.001 116.561)" fill="#8dc63f"/>
      <path id="Path_2435" data-name="Path 2435" d="M262.376,275.09a4.251,4.251,0,1,1-4.127-4.54A4.395,4.395,0,0,1,262.376,275.09Z" transform="translate(-137.228 116.593)" fill="#8dc63f"/>
      <path id="Path_2436" data-name="Path 2436" d="M268.756,275.12a4.251,4.251,0,1,1-4.23-4.54,4.4,4.4,0,0,1,4.23,4.54Z" transform="translate(-130.443 116.626)" fill="#8dc63f"/>
      <path id="Path_2437" data-name="Path 2437" d="M275.126,275.153a4.251,4.251,0,1,1-2.03-3.927A4.251,4.251,0,0,1,275.126,275.153Z" transform="translate(-123.669 116.654)" fill="#8dc63f"/>
      <path id="Path_2438" data-name="Path 2438" d="M281.5,275.18a4.251,4.251,0,1,1-4.23-4.54,4.4,4.4,0,0,1,4.23,4.54Z" transform="translate(-116.895 116.69)" fill="#8dc63f"/>
      <path id="Path_2439" data-name="Path 2439" d="M287.866,275.21a4.251,4.251,0,1,1-4.127-4.54A4.4,4.4,0,0,1,287.866,275.21Z" transform="translate(-110.121 116.721)" fill="#8dc63f"/>
      <g id="Group_214" data-name="Group 214" transform="translate(64.061 386.895)" opacity="0.2">
        <path id="Path_2440" data-name="Path 2440" d="M236.885,274.991a4.251,4.251,0,1,1-4.127-4.56A4.375,4.375,0,0,1,236.885,274.991Z" transform="translate(-228.395 -270.429)" fill="#fff"/>
        <path id="Path_2441" data-name="Path 2441" d="M243.256,275.013a4.251,4.251,0,1,1-2.03-3.927,4.251,4.251,0,0,1,2.03,3.927Z" transform="translate(-221.622 -270.39)" fill="#fff"/>
        <path id="Path_2442" data-name="Path 2442" d="M249.636,275.051a4.251,4.251,0,1,1-4.127-4.56A4.4,4.4,0,0,1,249.636,275.051Z" transform="translate(-214.837 -270.366)" fill="#fff"/>
        <path id="Path_2443" data-name="Path 2443" d="M256.005,275.081a4.251,4.251,0,1,1-4.127-4.56,4.4,4.4,0,0,1,4.127,4.56Z" transform="translate(-208.062 -270.334)" fill="#fff"/>
        <path id="Path_2444" data-name="Path 2444" d="M262.376,275.09a4.251,4.251,0,1,1-4.127-4.54A4.395,4.395,0,0,1,262.376,275.09Z" transform="translate(-201.289 -270.302)" fill="#fff"/>
        <path id="Path_2445" data-name="Path 2445" d="M268.756,275.12a4.251,4.251,0,1,1-4.23-4.54,4.4,4.4,0,0,1,4.23,4.54Z" transform="translate(-194.504 -270.269)" fill="#fff"/>
        <path id="Path_2446" data-name="Path 2446" d="M275.126,275.153a4.251,4.251,0,1,1-2.03-3.927A4.251,4.251,0,0,1,275.126,275.153Z" transform="translate(-187.73 -270.241)" fill="#fff"/>
        <path id="Path_2447" data-name="Path 2447" d="M281.5,275.18a4.251,4.251,0,1,1-4.23-4.54,4.4,4.4,0,0,1,4.23,4.54Z" transform="translate(-180.956 -270.205)" fill="#fff"/>
        <path id="Path_2448" data-name="Path 2448" d="M287.866,275.21a4.251,4.251,0,1,1-4.127-4.54A4.4,4.4,0,0,1,287.866,275.21Z" transform="translate(-174.182 -270.174)" fill="#fff"/>
      </g>
      <path id="Path_2449" data-name="Path 2449" d="M282.939,136.4a7.986,7.986,0,0,0,4.767-7.408,7.511,7.511,0,1,0-15,0,8.006,8.006,0,0,0,4.787,7.49c-11.555,1.733-11.039,14.279-11.039,14.279l27.32.124S294.411,138.115,282.939,136.4Z" transform="translate(-123.867 -42.35)" fill="#8dc63f"/>
      <path id="Path_2450" data-name="Path 2450" d="M282.939,136.4a7.986,7.986,0,0,0,4.767-7.408,7.511,7.511,0,1,0-15,0,8.006,8.006,0,0,0,4.787,7.49c-11.555,1.733-11.039,14.279-11.039,14.279l27.32.124S294.411,138.115,282.939,136.4Z" transform="translate(-123.867 -42.35)" opacity="0.1"/>
      <rect id="Rectangle_163" data-name="Rectangle 163" width="97.374" height="11.638" transform="translate(106.092 116.189) rotate(0.26)" fill="#8dc63f"/>
      <rect id="Rectangle_164" data-name="Rectangle 164" width="97.374" height="11.638" transform="translate(106.092 116.189) rotate(0.26)" fill="#fff" opacity="0.2"/>
    </g>
    <g id="freepik--speech-bubble--inject-48" transform="translate(100.015 306.886)">
      <path id="Path_2451" data-name="Path 2451" d="M149.827,168.68h-.97l-2.806.206a31.827,31.827,0,0,0-4.519.6,27.916,27.916,0,0,0-2.868.557l-3.2.887a52.555,52.555,0,0,0-15.208,7.532,53.524,53.524,0,0,0-14.981,16.673,55.877,55.877,0,0,0-5.241,11.989,57.653,57.653,0,0,0-2.29,13.99,56.7,56.7,0,0,0,.124,7.47,30.466,30.466,0,0,0,.516,3.8,24.4,24.4,0,0,0,.722,3.817,54.454,54.454,0,0,0,30.952,37.823A49.028,49.028,0,0,0,147.784,278a47.852,47.852,0,0,0,18.571-2.662l1.816-.681h.248l.206.124,26.02,13.206-.763.66c-2.786-8.625-5.468-16.982-8.068-25.009v-.309l.227-.227a55.712,55.712,0,0,0,13.66-22.7,57.157,57.157,0,0,0,2.063-24.184,56.5,56.5,0,0,0-6.83-20.511,55.714,55.714,0,0,0-11.762-14.444,57.469,57.469,0,0,0-12.773-8.13,55.586,55.586,0,0,0-10.812-3.4l-4.127-.681-2.992-.227-1.816-.124h-.619a2.808,2.808,0,0,1,.619,0h1.836l2.992.124,4.127.6a54.68,54.68,0,0,1,10.957,3.281,57.345,57.345,0,0,1,13,8.109,55.858,55.858,0,0,1,12.009,14.444,56.642,56.642,0,0,1,7.036,20.779,57.776,57.776,0,0,1-1.919,24.6A56.456,56.456,0,0,1,186.825,263.8l.124-.536c2.6,8.027,5.3,16.384,8.109,24.988l.392,1.259-1.176-.6-26.02-13.185h.454l-1.857.681a49.235,49.235,0,0,1-18.922,2.724,50.142,50.142,0,0,1-18.1-4.127,54.289,54.289,0,0,1-25.855-23.131,55.093,55.093,0,0,1-5.84-15.27,31.608,31.608,0,0,1-.722-3.9c-.165-1.3-.433-2.579-.5-3.859a60.976,60.976,0,0,1,2.29-21.79,55.487,55.487,0,0,1,5.386-12.133,54,54,0,0,1,15.29-16.776,52.165,52.165,0,0,1,15.455-7.47l3.24-.825a28.685,28.685,0,0,1,2.889-.516,30.637,30.637,0,0,1,4.56-.5l2.827-.1A6.925,6.925,0,0,1,149.827,168.68Z" transform="translate(-96.745 -168.68)" fill="#8dc63f"/>
      <path id="Path_2452" data-name="Path 2452" d="M144.7,201.9h-3.817l-8.254-11.6v-7.614s-5.9-.371-5.2,9.6,0,7.428,0,7.428-12.525,0-13.557,1.135-1.094,13.227-1.238,19.974a7.3,7.3,0,0,0,5.179,7.346,5.115,5.115,0,0,0,1.341.186c3.136,0,19.087-2.538,19.087-2.538h6.582Z" transform="translate(-79.856 -153.782)" fill="#8dc63f"/>
      <path id="Path_2453" data-name="Path 2453" d="M138.033,191.01l-2.352,26.082h-6.52V191.547Z" transform="translate(-62.273 -144.933)" fill="#8dc63f"/>
    </g>
    <g id="freepik--Character--inject-48" transform="translate(153.077 319.152)">
      <path id="Path_2454" data-name="Path 2454" d="M187.591,457.549V439.907l-31.633-.227-.268,26.68,1.96.145c8.728.557,44.405,1.383,50.265-.433C214.436,464.049,187.591,457.549,187.591,457.549Z" transform="translate(-87.122 107.247)" fill="#8dc63f"/>
      <path id="Path_2455" data-name="Path 2455" d="M208.605,451.946c0,.289-11.844.537-26.433.537s-26.433-.248-26.433-.537,11.844-.536,26.433-.536S208.605,451.658,208.605,451.946Z" transform="translate(-87.069 119.721)" fill="#263238"/>
      <path id="Path_2456" data-name="Path 2456" d="M171.473,451.8c-.268-.144,0-1.073.64-2.063s1.506-1.4,1.713-1.2-.227.99-.846,1.836S171.741,451.941,171.473,451.8Z" transform="translate(-70.447 116.61)" fill="#263238"/>
      <path id="Path_2457" data-name="Path 2457" d="M172.474,452.641c-.289,0-.144-1.155.475-2.249s1.444-1.754,1.671-1.589-.144,1.093-.722,2.063S172.742,452.744,172.474,452.641Z" transform="translate(-69.425 116.922)" fill="#263238"/>
      <path id="Path_2458" data-name="Path 2458" d="M165.063,454.821c-.124,0-.6-.371-1.279-1.156a20.45,20.45,0,0,0-2.765-2.765,7.282,7.282,0,0,0-3.425-1.506c-.97-.124-1.589,0-1.651-.124s.536-.557,1.671-.64a6.375,6.375,0,0,1,4.127,1.4,11.637,11.637,0,0,1,2.724,3.2C164.939,454.14,165.186,454.738,165.063,454.821Z" transform="translate(-86.858 116.764)" fill="#263238"/>
      <path id="Path_2459" data-name="Path 2459" d="M173.045,448.535c.144.248-.392.867-1.3,1.2s-1.713.207-1.754,0,.6-.64,1.382-.929S172.88,448.287,173.045,448.535Z" transform="translate(-71.916 116.55)" fill="#263238"/>
      <path id="Path_2460" data-name="Path 2460" d="M173.187,447.916c0,.31-.825.557-1.9.578s-1.919-.227-1.9-.516.867-.557,1.9-.578S173.146,447.628,173.187,447.916Z" transform="translate(-72.553 115.456)" fill="#263238"/>
      <path id="Path_2461" data-name="Path 2461" d="M225.341,457.549V439.907l-31.633-.227-.268,26.412,1.96.145c8.728.557,44.426,1.651,50.266-.165C252.186,464.049,225.341,457.549,225.341,457.549Z" transform="translate(-46.977 107.247)" fill="#8dc63f"/>
      <path id="Path_2462" data-name="Path 2462" d="M246.345,451.966c0,.289-11.823.537-26.433.537s-26.412-.248-26.412-.537,11.824-.536,26.412-.536S246.345,451.678,246.345,451.966Z" transform="translate(-46.913 119.742)" fill="#263238"/>
      <path id="Path_2463" data-name="Path 2463" d="M209.219,451.8c-.248-.144,0-1.073.64-2.063s1.506-1.4,1.713-1.2-.227.99-.846,1.836S209.487,451.941,209.219,451.8Z" transform="translate(-30.298 116.61)" fill="#263238"/>
      <path id="Path_2464" data-name="Path 2464" d="M210.219,452.641c-.268,0-.144-1.155.5-2.249s1.444-1.754,1.671-1.589-.165,1.093-.743,2.063S210.507,452.744,210.219,452.641Z" transform="translate(-29.275 116.922)" fill="#263238"/>
      <path id="Path_2465" data-name="Path 2465" d="M202.813,454.821c-.124,0-.578-.371-1.279-1.156a20.456,20.456,0,0,0-2.765-2.765,7.282,7.282,0,0,0-3.425-1.506c-.949-.124-1.589,0-1.651-.124s.536-.557,1.671-.64a6.375,6.375,0,0,1,4.127,1.4,11.288,11.288,0,0,1,2.724,3.2C202.689,454.14,202.936,454.738,202.813,454.821Z" transform="translate(-46.713 116.764)" fill="#263238"/>
      <path id="Path_2466" data-name="Path 2466" d="M210.795,448.535c.144.248-.392.867-1.3,1.2s-1.713.207-1.754,0,.6-.64,1.383-.929S210.63,448.287,210.795,448.535Z" transform="translate(-31.771 116.55)" fill="#263238"/>
      <path id="Path_2467" data-name="Path 2467" d="M210.946,447.916c0,.31-.825.557-1.9.578s-1.9-.227-1.878-.516.846-.557,1.878-.578S210.946,447.628,210.946,447.916Z" transform="translate(-32.376 115.456)" fill="#263238"/>
      <path id="Path_2468" data-name="Path 2468" d="M417.367,208.775c-.825-.846-2.868-.433-2.868-.433a10.565,10.565,0,0,0,0-3.59c-.371-1.156-2.971-.929-2.971-.929a11.985,11.985,0,0,1,0-2.93,1.052,1.052,0,0,0-.6-1.052,9.533,9.533,0,0,0-3.879-.7c-1.589-1.135,4.849-10.152,7.243-13.041s1.96-5.138-.165-5.138c-1.465,0-8.976,8.666-11.287,11.576s-8.44,11-8.646,4.54-2.806-11.328-4.436-12.154-3.363,1.114-2.476,2.909a23.09,23.09,0,0,1,1.444,6.355,15.19,15.19,0,0,1-.227,5.2,62.359,62.359,0,0,1-2.786,9.327h-.165s-45.024,43.188-48.285,46.262c-2.909,2.765-61.429-3.281-73.17-4.519a78.587,78.587,0,0,0-12.051-.825c-5.1.227-6,.949-11.081,1.011a250.966,250.966,0,0,0-38.256,3.363,31.715,31.715,0,0,0-24.885,21.584C166,312.525,139.215,399.953,134.49,449.063a208.41,208.41,0,0,0-9.657,19.953c-3.322,9.038-2.517,9.347-1.4,9.554,3.013.557,6.438-15.662,7.717-11.741s-6.5,19.334-3.343,19.788c4.127.578,7.408-16.507,7.8-17.869s2.435-.929,2.063.351c-.6,1.816-6.4,21.068-2.352,21.687,2.229.33,2.476-3.735,2.476-3.735s4.127-18.427,6-18.055-.124,11.246-1.073,14.877.371,5.468,2.311,4.581c1.321-.619,4.478-11.658,5.344-15.249s3.033-13.536,5.943-7.779,7.325,9.1,9.141,9.182a2.063,2.063,0,0,0,1.011-3.693,23.384,23.384,0,0,1-3.982-5.159,15.207,15.207,0,0,1-2.063-4.828,52.355,52.355,0,0,1-1.444-10.441l-.33-2.063c4.622-22.884,17.931-90.049,37.142-132.948l7.882,16.219L207.1,343.7,186.1,395.558l89.595-1.176L262.32,342.92l16.239-53.65h0c17.56.392,62.646,1.052,70.157-2.352,9.451-4.127,58.334-65.865,58.334-65.865h0a112.91,112.91,0,0,0,9.141-7.924S419.163,210.632,417.367,208.775Z" transform="translate(-122.46 -167.887)" fill="#ffbe9d"/>
      <path id="Path_2469" data-name="Path 2469" d="M165.768,324.039c2.6-8.873,15.95-52.742,15.95-52.742s6.562,35.759,4.828,40.072a76.346,76.346,0,0,1-5.633,10.647c-15.146,23.049-13.165,34.583-13.165,34.583l91.514-2.786c.206-12.793-7.367-42.548-8.935-47.294s3.652-20.284,3.652-20.284,10.317-10.5,9.946-15.909a87.446,87.446,0,0,0-1.8-14.444l55.713,2.063-1.754-37.761-80.02-8.006c-2.786,7.862-27.98,4-27.98,4-27.2.908-28.888,5.9-40.2,14.692S137.87,315.1,137.87,315.1Z" transform="translate(-106.072 -134.687)" fill="#8dc63f"/>
      <path id="Path_2470" data-name="Path 2470" d="M194.423,263.751a19.253,19.253,0,0,1-4.808.248c-2.992,0-7.1-.206-11.617-.66s-8.6-1.094-11.514-1.672a19.849,19.849,0,0,1-4.684-1.2,25.784,25.784,0,0,1,4.808.454c2.93.371,7,.887,11.493,1.341s8.584.763,11.535.97A25.46,25.46,0,0,1,194.423,263.751Z" transform="translate(-80.624 -83.333)" fill="#263238"/>
      <path id="Path_2471" data-name="Path 2471" d="M198.931,258.29A21.155,21.155,0,0,1,193.937,260a91.737,91.737,0,0,1-25.236,2.992,20.813,20.813,0,0,1-5.241-.5,35.268,35.268,0,0,1,5.241-.268c3.24-.1,7.7-.33,12.608-.908s9.286-1.4,12.381-2.063a34.2,34.2,0,0,1,5.241-.97Z" transform="translate(-78.859 -85.651)" fill="#263238"/>
      <path id="Path_2472" data-name="Path 2472" d="M199.5,241.47a21.482,21.482,0,0,1-.64,4.663c-.536,2.868-1.362,6.789-2.414,11.081s-2.063,8.254-2.971,10.936a20.634,20.634,0,0,1-1.609,4.436,21,21,0,0,1,.867-4.622c.784-3.219,1.671-6.933,2.662-11s1.94-7.779,2.724-11a19.682,19.682,0,0,1,1.383-4.5Z" transform="translate(-48.646 -103.538)" fill="#263238"/>
      <path id="Path_2473" data-name="Path 2473" d="M166.248,267.764a95.914,95.914,0,0,1-14.093-3.281,97.953,97.953,0,0,1-13.825-4.333,99.208,99.208,0,0,1,14.093,3.281,96.843,96.843,0,0,1,13.825,4.333Z" transform="translate(-105.583 -83.673)" fill="#263238"/>
      <path id="Path_2474" data-name="Path 2474" d="M211.7,254.313a6.933,6.933,0,0,1-2.352,0,24.453,24.453,0,0,1-6.293-1.506,25.855,25.855,0,0,1-14.939-14.671,26.66,26.66,0,0,1-1.837-11.617,18.055,18.055,0,0,1,2.827-9.2,9.554,9.554,0,0,1,5.221-3.859,6.314,6.314,0,0,1,1.754-.227h.619a6.691,6.691,0,0,0-2.249.557,9.389,9.389,0,0,0-4.725,3.859c-2.806,4.416-3.59,12.484-.6,20.015a25.214,25.214,0,0,0,6.376,9.327,27.09,27.09,0,0,0,7.82,5.035,39.736,39.736,0,0,0,8.378,2.29Z" transform="translate(-54.653 -133.57)" fill="#263238"/>
      <path id="Path_2475" data-name="Path 2475" d="M222.173,253.6a171.933,171.933,0,0,1-.5-19.025,170.223,170.223,0,0,1,.578-19,171.393,171.393,0,0,1,.5,19,165.076,165.076,0,0,1-.578,19.025Z" transform="translate(-17.026 -131.082)" fill="#263238"/>
      <path id="Path_2476" data-name="Path 2476" d="M201.056,250.552c.227-4.6.7-9.8.7-9.8s11.39-1.259,12.071-13.02,0-38.9,0-38.9L193.194,178.27l-22.9,18.014,3.528,58.808,21.006,1.341a6.067,6.067,0,0,0,6.232-5.881Z" transform="translate(-71.596 -170.748)" fill="#ffbe9d"/>
      <path id="Path_2477" data-name="Path 2477" d="M188.613,201.188a.957.957,0,0,1-.186.5,1.527,1.527,0,0,1-1.3.578c-1.321,0-2.6-1.527-3.054-3.3a5.386,5.386,0,0,1,0-2.621,2.27,2.27,0,0,1,1.238-1.775,1.135,1.135,0,0,1,.867,0,1.052,1.052,0,0,1,.475.475.581.581,0,0,1,0,.557.6.6,0,0,0-.206-.413.743.743,0,0,0-.97-.206,1.754,1.754,0,0,0-.846,1.465,5.281,5.281,0,0,0,0,2.332c.413,1.609,1.527,2.909,2.517,3.033a1.424,1.424,0,0,0,1.094-.309C188.489,201.332,188.572,201.167,188.613,201.188Z" transform="translate(-57.11 -153.512)" fill="#eb996e"/>
      <path id="Path_2478" data-name="Path 2478" d="M248.712,186.356c-1.589-5.406-7.346-8.089-12.587-9.574-7.986-2.27-16.611-3.26-24.411-.392s-17.168,7.9-17.168,16.508c-4.6-.371-7.243,3.652-9.058,8.646a32.4,32.4,0,0,0-2.063,9.492h0c-.578,11.266-3.735,26.825-11.039,35.079-4.127,4.6-9.843,7.779-12.195,13.516-2.063,4.973-.99,10.874-2.909,15.909-1.713,4.436-5.489,7.593-8.254,11.452a30.7,30.7,0,0,0-1.96,29.693,37.6,37.6,0,0,0,22.471,19.4,52.555,52.555,0,0,0,29.61.289A49.521,49.521,0,0,0,219,326.526a33.138,33.138,0,0,0,11.514-19.066c1.465-8.419-.887-16.982-2.641-25.36-5.489-26.474-3.921-27.857,3.013-52.432.165-.433.248-.887.371-1.321s.186-.64.268-.97h0a15.554,15.554,0,0,0,.31-2.951,5.675,5.675,0,0,1-5.963-1.279,6.19,6.19,0,0,1-1.4-6.19,9,9,0,0,1,5.324-5.014c2.29-.949,4.746-1.444,7-2.5,4.767-2.27,8.068-6.974,10.317-11.906a16.343,16.343,0,0,0,1.609-11.184Z" transform="translate(-99.402 -174.625)" fill="#263238"/>
      <path id="Path_2479" data-name="Path 2479" d="M188.4,198a10.089,10.089,0,0,1,1.073,2.063c.619,1.3,1.444,3.136,2.352,5.262l.165.392h-.433l-2.063.186c-1.424,0-2.621.268-4.024.248a.743.743,0,0,1-.536-.475.929.929,0,0,1,0-.578,8.266,8.266,0,0,1,.186-.825l.371-1.465a13.966,13.966,0,0,1,.867-2.847,13.931,13.931,0,0,1-.433,2.951l-.289,1.465c-.1.5-.289,1.259,0,1.2,1.032,0,2.5-.227,3.859-.31l2.063-.186-.268.454c-.887-2.063-1.63-4-2.063-5.344A8.047,8.047,0,0,1,188.4,198Z" transform="translate(-56.072 -149.766)" fill="#8dc63f"/>
      <path id="Path_2480" data-name="Path 2480" d="M154.626,283.606l91.514-2.786,39.824,155.46L278.639,614.6H230.252l5.922-174.526L200.786,331.849l5.448,289.666-48.9.722-5.138-272.271c-.227-7.573-2.7-24.638-1.775-32.149Z" transform="translate(-92.95 -61.692)" fill="#263238"/>
      <path id="Path_2481" data-name="Path 2481" d="M196,309.745a18.33,18.33,0,0,1-4.478-.268c-2.765-.33-6.541-.908-10.689-1.733s-7.862-1.775-10.544-2.538a17.024,17.024,0,0,1-4.127-1.486c0-.31,6.727,1.3,14.98,2.971S196.039,309.436,196,309.745Z" transform="translate(-75.988 -37.38)" fill="#455a64"/>
      <path id="Path_2482" data-name="Path 2482" d="M237.446,438.117c0,.289-10.957.536-24.472.536s-24.493-.248-24.493-.536,10.957-.537,24.493-.537S237.446,437.807,237.446,438.117Z" transform="translate(-52.251 105.013)" fill="#455a64"/>
      <path id="Path_2483" data-name="Path 2483" d="M201.641,442.556c0,.31-10.647.537-23.771.537s-23.75-.227-23.75-.537,10.647-.536,23.75-.536S201.641,442.268,201.641,442.556Z" transform="translate(-88.791 109.735)" fill="#455a64"/>
      <path id="Path_2484" data-name="Path 2484" d="M176.521,587.633c-.289,0-1.568-63.286-2.868-141.346s-2.063-141.387-1.8-141.387,1.589,63.265,2.868,141.367S176.83,587.633,176.521,587.633Z" transform="translate(-69.985 -36.084)" fill="#455a64"/>
      <path id="Path_2485" data-name="Path 2485" d="M226.064,603.386a5.282,5.282,0,0,1,0-.846v-2.476c0-2.228.165-5.427.289-9.492.289-8.254.7-20.242,1.217-34.934,1.114-29.548,2.682-70.281,4.4-115.243v-1.073c-10.833-43.332-20.634-82.662-27.753-111.116l-8.254-33.655c-.949-3.941-1.671-7.016-2.187-9.162-.248-1.011-.413-1.8-.557-2.394a3.571,3.571,0,0,1-.144-.825,4.565,4.565,0,0,1,.248.8c.165.578.371,1.362.66,2.352.557,2.063,1.362,5.2,2.394,9.12,2.063,7.965,4.973,19.438,8.6,33.572,7.181,28.434,17.085,67.66,28.063,111.055v1.362c-1.836,44.962-3.508,85.674-4.725,115.223-.64,14.712-1.176,26.618-1.548,34.913-.206,4.127-.371,7.263-.475,9.492,0,1.052-.124,1.878-.144,2.476A3.94,3.94,0,0,1,226.064,603.386Z" transform="translate(-47.37 -60.256)" fill="#455a64"/>
      <path id="Path_2486" data-name="Path 2486" d="M212.736,356.5a55.276,55.276,0,0,1-10.689,2.373c-4.457.763-8.254,1.3-9.966,1.383v-.413c.557.165.846.268.846.351s-.351,0-.929,0H190.76l1.238-.371c1.609-.475,5.406-1.259,9.863-2.063a55.715,55.715,0,0,1,10.874-1.259Z" transform="translate(-49.827 18.789)" fill="#455a64"/>
      <path id="Path_2487" data-name="Path 2487" d="M210.911,360.24a53.241,53.241,0,0,1-9.636-.434,54.431,54.431,0,0,1-9.595-1.052,61.094,61.094,0,0,1,19.231,1.486Z" transform="translate(-48.848 20.971)" fill="#455a64"/>
      <path id="Path_2488" data-name="Path 2488" d="M152.16,286.887a12.546,12.546,0,0,0,9.038,4.808,40.708,40.708,0,0,0,11.081-.206c23.626-2.621,48.656-5.035,71.787-10.668-29.941,1.671-61.573,1.114-91.514,2.786l-.309,2.559" transform="translate(-90.876 -61.692)" opacity="0.2"/>
      <g id="Group_215" data-name="Group 215" transform="translate(92.133 267.392)" opacity="0.2">
        <path id="Path_2489" data-name="Path 2489" d="M167.11,304.21,183.989,369.7l-1.176-62.729Z" transform="translate(-167.11 -304.21)"/>
      </g>
    </g>
  </g>
</svg>
