<svg xmlns="http://www.w3.org/2000/svg" xmlns:xlink="http://www.w3.org/1999/xlink" width="82" height="82" viewBox="0 0 82 82">
  <defs>
    <clipPath id="clip-Learner-icon">
      <rect width="82" height="82"/>
    </clipPath>
  </defs>
  <g id="Learner-icon" clip-path="url(#clip-Learner-icon)">
    <g id="_943449" data-name="943449" transform="translate(0 0.001)">
      <g id="Group_1245" data-name="Group 1245" transform="translate(35.901 73.511)">
        <g id="Group_1244" data-name="Group 1244">
          <path id="Path_5886" data-name="Path 5886" d="M232.842,459h-7.073a1.6,1.6,0,1,0,0,3.2h7.073a1.6,1.6,0,1,0,0-3.2Z" transform="translate(-224.167 -459)" fill="#fff"/>
        </g>
      </g>
      <g id="Group_1247" data-name="Group 1247" transform="translate(54.773 11.593)">
        <g id="Group_1246" data-name="Group 1246">
          <path id="Path_5887" data-name="Path 5887" d="M344.735,72.86a1.6,1.6,0,1,0,.469,1.132A1.614,1.614,0,0,0,344.735,72.86Z" transform="translate(-342.001 -72.391)" fill="#fff"/>
        </g>
      </g>
      <g id="Group_1249" data-name="Group 1249" transform="translate(0 0)">
        <g id="Group_1248" data-name="Group 1248" transform="translate(0 0)">
          <path id="Path_5888" data-name="Path 5888" d="M80.4,24.662a1.6,1.6,0,0,0,1.6-1.6V13.2a1.6,1.6,0,0,0-.882-1.429l-.024-.013L57.071.159a1.6,1.6,0,0,0-1.392,0L31.655,11.753a1.6,1.6,0,0,0,0,2.885l9.363,4.519v9.906a1.6,1.6,0,0,0,.016.222H40.59a5.337,5.337,0,0,0,0,10.674h.517a15.367,15.367,0,0,0,6.53,10.973H32.717a5.777,5.777,0,0,0-2.608.619V27.914a2.611,2.611,0,0,1,2.608-2.608h4.137a1.6,1.6,0,1,0,0-3.2H32.717a5.794,5.794,0,0,0-4.209,1.811A5.794,5.794,0,0,0,24.3,22.1H1.6A1.6,1.6,0,0,0,0,23.7V58.781a1.6,1.6,0,0,0,1.6,1.6H3.523v7.843H1.6a1.6,1.6,0,0,0-1.6,1.6V72.71A9.3,9.3,0,0,0,9.289,82H72.71A9.3,9.3,0,0,0,82,72.71V69.827a1.6,1.6,0,0,0-1.6-1.6H78.476V44.683a1.6,1.6,0,1,0-3.2,0V68.226H6.726V60.382H55.414a1.6,1.6,0,0,0,1.6-1.6V53.653A15.38,15.38,0,0,0,71.643,39.958h.517a5.337,5.337,0,0,0,0-10.674h-.445a1.6,1.6,0,0,0,.016-.222V19.157l7.065-3.41V23.06A1.6,1.6,0,0,0,80.4,24.662ZM41.018,36.755h-.429a2.134,2.134,0,0,1,0-4.268h.429ZM3.2,25.306H24.3a2.611,2.611,0,0,1,2.608,2.608V51.55a5.775,5.775,0,0,0-2.608-.619H3.2ZM78.8,71.429V72.71A6.093,6.093,0,0,1,72.71,78.8H9.289A6.093,6.093,0,0,1,3.2,72.71V71.429ZM3.2,57.179V54.134H24.3a2.611,2.611,0,0,1,2.608,2.608,1.6,1.6,0,0,0,.062.437ZM71.731,32.488h.429a2.134,2.134,0,0,1,0,4.268h-.429ZM53.812,57.18H30.047a1.6,1.6,0,0,0,.062-.437,2.611,2.611,0,0,1,2.608-2.608h21.1ZM68.528,38.31a12.153,12.153,0,1,1-24.306,0V31.517L55.73,36.58a1.6,1.6,0,0,0,1.29,0l11.508-5.063Zm0-10.293L56.375,33.364,44.221,28.017V20.7l11.457,5.53a1.6,1.6,0,0,0,1.392,0L68.528,20.7ZM60.879,14.8H73.395l-17.02,8.215L36.036,13.2,56.375,3.379l17.02,8.214H60.879a1.6,1.6,0,0,0,0,3.2Z" transform="translate(0 0)" fill="#fff"/>
        </g>
      </g>
      <g id="Group_1251" data-name="Group 1251" transform="translate(78.796 28.602)">
        <g id="Group_1250" data-name="Group 1250">
          <path id="Path_5889" data-name="Path 5889" d="M494.734,179.059a1.6,1.6,0,1,0,.469,1.132A1.613,1.613,0,0,0,494.734,179.059Z" transform="translate(-492 -178.59)" fill="#fff"/>
        </g>
      </g>
      <g id="Group_1253" data-name="Group 1253" transform="translate(18.708 40.359)">
        <g id="Group_1252" data-name="Group 1252">
          <path id="Path_5890" data-name="Path 5890" d="M119.544,252.469a1.6,1.6,0,1,0,.469,1.132A1.616,1.616,0,0,0,119.544,252.469Z" transform="translate(-116.81 -252)" fill="#fff"/>
        </g>
      </g>
      <g id="Group_1255" data-name="Group 1255" transform="translate(7.527 40.361)">
        <g id="Group_1254" data-name="Group 1254">
          <path id="Path_5891" data-name="Path 5891" d="M53.727,252.017H48.6a1.6,1.6,0,1,0,0,3.2h5.125a1.6,1.6,0,1,0,0-3.2Z" transform="translate(-47 -252.017)" fill="#fff"/>
        </g>
      </g>
      <g id="Group_1257" data-name="Group 1257" transform="translate(7.527 32.673)">
        <g id="Group_1256" data-name="Group 1256">
          <path id="Path_5892" data-name="Path 5892" d="M59.782,204.012H48.6a1.6,1.6,0,0,0,0,3.2h11.18a1.6,1.6,0,0,0,0-3.2Z" transform="translate(-47 -204.012)" fill="#fff"/>
        </g>
      </g>
    </g>
  </g>
</svg>
