<svg xmlns="http://www.w3.org/2000/svg" width="749.017" height="460.817" viewBox="0 0 749.017 460.817">
  <g id="People_search-pana_2_" data-name="People search-pana (2)" transform="translate(-62.76 -95.121)">
    <g id="freepik--Floor--inject-60" transform="translate(62.76 539.267)">
      <path id="Path_2490" data-name="Path 2490" d="M811.777,465.732c0,.18-167.692.312-374.5.312s-374.521-.132-374.521-.312,167.656-.312,374.521-.312S811.777,465.564,811.777,465.732Z" transform="translate(-62.76 -465.42)" fill="#263238"/>
    </g>
    <g id="freepik--character-3--inject-60" transform="translate(574.576 134.996)">
      <path id="Path_2491" data-name="Path 2491" d="M522.788,217.467l-7.412,13.422L510.83,194.4a14.706,14.706,0,0,1,1.511-7.676,15.956,15.956,0,0,1,1.847-2.963,16.136,16.136,0,0,1,3.179-2.987c1.2-.66.96-2.4-.228-2.519s-4.438,1.619-6.993,5.11-2.831-3.226-2.975-5.673-.936-9.991-1.715-10.519c-1.2-.78-2.231.336-2.027,2.771s.276,9.811-1.008,9.859-1.835-12.426-1.835-12.426.312-2.7-1.2-2.7c-2.7,0-1.139,13.194-.96,14.393.132.864-1.271.96-1.355,0s-.264-12.462-3.011-12.474c-2.1,0,1.2,10.855-.1,13.29s-1.655-8.516-3.67-8.456c-.744,0-1.307.156-.18,6.393.6,3.358,2.807,8.18,3.49,14.729l.18,1.7c.12,8.156,1.919,32.732,9.344,51.443a15.149,15.149,0,0,0,26.663,2.7c4.57-6.873,11.779-24.852,11.779-24.852Z" transform="translate(-489.478 -121.124)" fill="#b78876"/>
      <path id="Path_2492" data-name="Path 2492" d="M496.28,185.665a2.919,2.919,0,0,1,1.067.288,3.814,3.814,0,0,1,2.075,1.715l.252.456.144-.516a6.586,6.586,0,0,1,1-1.991,7.3,7.3,0,0,1,3.442-2.531c1.055-.384,1.787-.36,1.775-.444a3.37,3.37,0,0,0-1.871.132,6.789,6.789,0,0,0-3.718,2.567A6.288,6.288,0,0,0,499.4,187.5l.408-.06a3.922,3.922,0,0,0-2.4-1.751A1.859,1.859,0,0,0,496.28,185.665Z" transform="translate(-488.122 -117.557)" fill="#a36957"/>
      <path id="Path_2493" data-name="Path 2493" d="M540.9,133.956c-3.466.792-6.681,2.627-7,6.177s.12,7.292-1.367,10.531c-1.679,3.6-5.685,6.333-5.817,10.339-.084,2.4,1.367,4.738,1.3,7.2-.108,4.006-4.21,7.041-4.426,11.059-.144,2.879,1.775,5.649,1.307,8.5-.36,2.231-2.087,3.97-2.819,6.105-1.451,4.246,1.463,8.912,5.253,11.3a17.224,17.224,0,0,0,25.092-8.012c2.1-5.1,1.643-10.795,1.2-16.336q-2.135-25.7-3.179-51.467" transform="translate(-483.054 -128.169)" fill="#263238"/>
      <path id="Path_2494" data-name="Path 2494" d="M612.328,484.52s-34.22-107.492-34.915-110.851c-.624-3.047,11.826-77.495,13.386-96.77l-44.007,1.643v.324L528.08,279.9,545.46,497.39l19.191-.336L563.043,421.3c12.486,33.584,31.677,70.49,31.677,70.49Z" transform="translate(-481.78 -98.744)" fill="#b78876"/>
      <path id="Path_2495" data-name="Path 2495" d="M559.3,425.71c0-.648-.252-23.521-.252-23.521-.252,1.367-7.76-19.862-7.58-21.158C551.506,380.36,559.3,425.71,559.3,425.71Z" transform="translate(-477.116 -77.979)" fill="#a36957"/>
      <path id="Path_2496" data-name="Path 2496" d="M550.74,372.65a4.465,4.465,0,0,0-.132,1.283,31.5,31.5,0,0,0,0,3.5,22.049,22.049,0,0,0,.2,2.4c.1.84.228,1.8.432,2.759a46.567,46.567,0,0,0,1.655,6.165c1.463,4.27,3.094,8.024,4.246,10.735l1.4,3.2a5.666,5.666,0,0,0,.6,1.14,4.317,4.317,0,0,0-.36-1.2c-.264-.78-.684-1.907-1.2-3.286-1.031-2.759-2.591-6.537-4.042-10.795a52.755,52.755,0,0,1-1.691-6.069c-.2-.948-.348-1.859-.48-2.711s-.228-1.655-.276-2.4c-.144-1.451-.2-2.651-.24-3.466A5.892,5.892,0,0,0,550.74,372.65Z" transform="translate(-477.297 -79.649)" fill="#a36957"/>
      <path id="Path_2497" data-name="Path 2497" d="M544.047,461.9V460l20.75-.912.06,7.856-1.283.084c-5.7.336-28.978,1.3-32.792.144C526.523,465.9,544.047,461.9,544.047,461.9Z" transform="translate(-481.374 -62.411)" fill="#455a64"/>
      <path id="Path_2498" data-name="Path 2498" d="M565.135,465.24h-.36l-1.019.072-3.742.168c-3.179.132-7.556.24-12.39.264s-9.224,0-12.39-.156l-3.754-.132-1.019-.06h1.02l3.754.072c3.167,0,7.556.1,12.39.072s9.212-.108,12.378-.18l3.754-.1h1.02Z" transform="translate(-481.377 -61.184)" fill="#263238"/>
      <path id="Path_2499" data-name="Path 2499" d="M536.451,466.336a8.079,8.079,0,0,0-.7-1.787,9.116,9.116,0,0,0-1.3-1.439,2.723,2.723,0,0,1,1.5,1.307A2.674,2.674,0,0,1,536.451,466.336Z" transform="translate(-480.507 -61.609)" fill="#263238"/>
      <path id="Path_2500" data-name="Path 2500" d="M541.373,463.486a4.054,4.054,0,0,1-.648-.792c-.3-.48-.5-.888-.444-.924s.348.324.648.792S541.433,463.45,541.373,463.486Z" transform="translate(-479.349 -61.877)" fill="#263238"/>
      <path id="Path_2501" data-name="Path 2501" d="M542.794,462.652a3.163,3.163,0,0,1-.72-.48c-.348-.312-.612-.624-.564-.672s.372.168.732.48S542.842,462.6,542.794,462.652Z" transform="translate(-479.102 -61.931)" fill="#263238"/>
      <path id="Path_2502" data-name="Path 2502" d="M543.819,460.85a4.694,4.694,0,1,1-1.079-.108A2.77,2.77,0,0,1,543.819,460.85Z" transform="translate(-479.072 -62.084)" fill="#263238"/>
      <path id="Path_2503" data-name="Path 2503" d="M544.159,459.69a2.087,2.087,0,0,1-1.2.348,2.146,2.146,0,0,1-1.2-.156,6.8,6.8,0,0,1,1.2-.1A6.092,6.092,0,0,1,544.159,459.69Z" transform="translate(-479.052 -62.291)" fill="#263238"/>
      <path id="Path_2504" data-name="Path 2504" d="M541.246,462.006a3.467,3.467,0,0,1-1.319,0,8.4,8.4,0,0,1-1.415-.3,4.106,4.106,0,0,1-.8-.336.684.684,0,0,1-.336-.408.528.528,0,0,1,.2-.54,2.4,2.4,0,0,1,3.011.708,2.568,2.568,0,0,1,.432.888.852.852,0,0,1,0,.348,4.046,4.046,0,0,0-.612-1.127,2.4,2.4,0,0,0-1.128-.732,2.075,2.075,0,0,0-1.583.12c-.216.156-.132.4.108.54a3.371,3.371,0,0,0,.744.312,7.388,7.388,0,0,0,1.367.348C540.743,461.97,541.246,461.97,541.246,462.006Z" transform="translate(-479.929 -62.197)" fill="#263238"/>
      <path id="Path_2505" data-name="Path 2505" d="M540.35,462.187a1.284,1.284,0,0,1-.156-.924,2.064,2.064,0,0,1,.36-.972,1.319,1.319,0,0,1,1.1-.672.528.528,0,0,1,.408.612,1.441,1.441,0,0,1-.228.588,3.821,3.821,0,0,1-.624.8,1.9,1.9,0,0,1-.756.54,8.085,8.085,0,0,0,.624-.66,4.173,4.173,0,0,0,.552-.792c.192-.288.312-.792,0-.852s-.672.3-.876.564a2.4,2.4,0,0,0-.372.864,4.133,4.133,0,0,0-.036.9Z" transform="translate(-479.369 -62.305)" fill="#263238"/>
      <path id="Path_2506" data-name="Path 2506" d="M560.158,460.556s-.588,0-1.523.06a6.525,6.525,0,0,0-5.4,4.33c-.312.888-.336,1.487-.384,1.475a1.2,1.2,0,0,1,0-.42,6.192,6.192,0,0,1,5.757-5.565,5.413,5.413,0,0,1,1.2,0A1.516,1.516,0,0,1,560.158,460.556Z" transform="translate(-476.843 -62.149)" fill="#263238"/>
      <path id="Path_2507" data-name="Path 2507" d="M551.663,463.874a12.386,12.386,0,0,1-3.023.288,11.873,11.873,0,0,1-3.01-.252c0-.072,1.355,0,3.01,0S551.651,463.8,551.663,463.874Z" transform="translate(-478.28 -61.462)" fill="#263238"/>
      <path id="Path_2508" data-name="Path 2508" d="M554.1,463.831s-.108.288-.252.6-.2.588-.276.576-.108-.324,0-.684S554.1,463.783,554.1,463.831Z" transform="translate(-476.71 -61.467)" fill="#263238"/>
      <path id="Path_2509" data-name="Path 2509" d="M555.419,462.252a1.405,1.405,0,0,1-.288.48c-.2.216-.432.348-.48.3s.084-.264.3-.48S555.371,462.2,555.419,462.252Z" transform="translate(-476.483 -61.782)" fill="#263238"/>
      <path id="Path_2510" data-name="Path 2510" d="M557.3,461.539c0,.06-.288.06-.588.168s-.528.276-.576.228.108-.336.492-.456S557.329,461.467,557.3,461.539Z" transform="translate(-476.185 -61.945)" fill="#263238"/>
      <path id="Path_2511" data-name="Path 2511" d="M558.5,461.178c0,.06-.084.168-.264.24s-.324.072-.348,0,.084-.168.264-.24S558.478,461.118,558.5,461.178Z" transform="translate(-475.835 -62.004)" fill="#263238"/>
      <path id="Path_2512" data-name="Path 2512" d="M585.125,459.647l-.792-1.727,18.555-9.319,3.262,7.125-1.128.612c-5.062,2.627-25.907,13.05-29.854,13.566C570.768,470.478,585.125,459.647,585.125,459.647Z" transform="translate(-472.556 -64.503)" fill="#455a64"/>
      <path id="Path_2513" data-name="Path 2513" d="M606.223,454.08a2.5,2.5,0,0,1-.3.18l-.912.48-3.346,1.7c-2.843,1.4-6.789,3.31-11.191,5.313s-8.4,3.718-11.371,4.93l-3.478,1.4-.947.372a1.2,1.2,0,0,1-.348.108l.324-.156.936-.408,3.454-1.487c2.9-1.2,6.921-3,11.323-4.99s8.4-3.874,11.227-5.254l3.382-1.619.924-.432Z" transform="translate(-472.556 -63.41)" fill="#263238"/>
      <path id="Path_2514" data-name="Path 2514" d="M580.521,464.443a7.98,7.98,0,0,0-1.379-1.343,7.794,7.794,0,0,0-1.751-.78,3.334,3.334,0,0,1,3.13,2.123Z" transform="translate(-471.946 -61.767)" fill="#263238"/>
      <path id="Path_2515" data-name="Path 2515" d="M583.844,459.837a2.5,2.5,0,0,1-.912-.456c-.48-.312-.828-.612-.792-.66a2.367,2.367,0,0,1,.924.444C583.532,459.465,583.88,459.777,583.844,459.837Z" transform="translate(-470.999 -62.486)" fill="#263238"/>
      <path id="Path_2516" data-name="Path 2516" d="M584.805,458.492c0,.06-.408,0-.864-.144s-.816-.312-.792-.384.408,0,.864.144S584.817,458.42,584.805,458.492Z" transform="translate(-470.798 -62.641)" fill="#263238"/>
      <path id="Path_2517" data-name="Path 2517" d="M584.985,456.563a4.882,4.882,0,0,1-1.955.911,2.574,2.574,0,0,1,.924-.576C584.493,456.647,584.949,456.491,584.985,456.563Z" transform="translate(-470.821 -62.918)" fill="#263238"/>
      <path id="Path_2518" data-name="Path 2518" d="M584.817,455.391a3.038,3.038,0,0,1-.947.816,2.146,2.146,0,0,1-1.2.36,6.007,6.007,0,0,1,1.079-.588C584.337,455.667,584.769,455.331,584.817,455.391Z" transform="translate(-470.893 -63.15)" fill="#263238"/>
      <path id="Path_2519" data-name="Path 2519" d="M583.082,458.662a3.89,3.89,0,0,1-1.2.54,7.874,7.874,0,0,1-1.415.3,3.5,3.5,0,0,1-.875,0,.684.684,0,0,1-.468-.24.528.528,0,0,1,0-.564,2.456,2.456,0,0,1,3.79.036c.144.18.192.3.18.312a3.764,3.764,0,0,0-1.007-.78,2.4,2.4,0,0,0-1.343-.2,2.075,2.075,0,0,0-1.391.756c-.132.228,0,.42.324.444a4.507,4.507,0,0,0,.8,0,9.225,9.225,0,0,0,1.391-.24C582.59,458.83,583.07,458.626,583.082,458.662Z" transform="translate(-471.617 -62.667)" fill="#263238"/>
      <path id="Path_2520" data-name="Path 2520" d="M582.273,459.17a1.415,1.415,0,0,1-.516-.78,2.052,2.052,0,0,1-.072-1.031,1.331,1.331,0,0,1,.732-1.067c.288-.1.984.5,1.031.72s-.348.108-.372.3a3.936,3.936,0,0,1-.24.984c-.2.552-.444.828-.468.8s.144-.324.3-.852a4.262,4.262,0,0,0,.18-.96c0-.336,0-.84-.372-.756s-.492.552-.564.876a2.209,2.209,0,0,0,0,.935,5.332,5.332,0,0,0,.36.828Z" transform="translate(-471.096 -62.971)" fill="#263238"/>
      <path id="Path_2521" data-name="Path 2521" d="M599.448,449.94a7.648,7.648,0,0,0-1.367.684,6.405,6.405,0,0,0-3.143,6.153,13.124,13.124,0,0,0,.252,1.5,1.875,1.875,0,0,1-.18-.372,5.819,5.819,0,0,1-.252-1.115A6.273,6.273,0,0,1,598,450.468a5.123,5.123,0,0,1,1.043-.444,1.363,1.363,0,0,1,.408-.084Z" transform="translate(-468.493 -64.236)" fill="#263238"/>
      <path id="Path_2522" data-name="Path 2522" d="M593.383,456.381a11.675,11.675,0,0,1-2.639,1.487,11.326,11.326,0,0,1-2.855,1.008c0-.072,1.2-.54,2.759-1.2S593.347,456.309,593.383,456.381Z" transform="translate(-469.852 -62.952)" fill="#263238"/>
      <path id="Path_2523" data-name="Path 2523" d="M595.568,455c.06,0,0,.312,0,.648v.648a.954.954,0,0,1-.228-.648C595.34,455.253,595.508,454.93,595.568,455Z" transform="translate(-468.366 -63.228)" fill="#263238"/>
      <path id="Path_2524" data-name="Path 2524" d="M596.066,453c.072,0,0,.276-.072.552s-.24.5-.3.48,0-.276.072-.564A.953.953,0,0,1,596.066,453Z" transform="translate(-468.301 -63.625)" fill="#263238"/>
      <path id="Path_2525" data-name="Path 2525" d="M597.544,451.6c0,.072-.24.18-.468.4s-.36.468-.432.444,0-.348.264-.624S597.532,451.524,597.544,451.6Z" transform="translate(-468.112 -63.913)" fill="#263238"/>
      <path id="Path_2526" data-name="Path 2526" d="M598.511,450.742a.479.479,0,0,1-.144.324c-.144.132-.276.2-.324.156s0-.192.144-.324S598.463,450.695,598.511,450.742Z" transform="translate(-467.831 -64.079)" fill="#263238"/>
      <path id="Path_2527" data-name="Path 2527" d="M587.408,259.807l-.192-36.558,22.453-4.138s-2.4-10.795-5.505-21.182c-2.4-8.168-7.556-11.634-13.805-14.681v-.108l-.54-.144a50.771,50.771,0,0,0-16.252-4.246L551.785,179s-16.648-2.075-25.86,9.787c-3.6,4.57-14.525,35.851-14.525,35.851l26.147,12.594-2.483-17.344s.492,12.57,2.1,16.552c.888,2.219,3.478,9.116,3.478,9.116l-.336,20.8Z" transform="translate(-485.106 -118.318)" fill="#8dc63f"/>
      <path id="Path_2528" data-name="Path 2528" d="M536.8,239.751a5.174,5.174,0,0,1-.516-1.2c-.3-.768-.7-1.9-1.2-3.3a99.555,99.555,0,0,1-2.915-11.155,79.346,79.346,0,0,1-1.439-11.443c-.072-1.475-.1-2.675-.072-3.5a5.456,5.456,0,0,1,.084-1.283c.108,0,.168,1.823.42,4.8a106.163,106.163,0,0,0,1.619,11.359c.876,4.39,1.931,8.312,2.735,11.143l.948,3.346A5.3,5.3,0,0,1,536.8,239.751Z" transform="translate(-481.267 -112.511)" fill="#263238"/>
      <path id="Path_2529" data-name="Path 2529" d="M542.453,247.322a6,6,0,0,1-1.056-2.4,5.661,5.661,0,0,1-.456-2.6,6.269,6.269,0,0,1,1.055,2.4A5.7,5.7,0,0,1,542.453,247.322Z" transform="translate(-479.217 -105.64)" fill="#263238"/>
      <path id="Path_2530" data-name="Path 2530" d="M544.521,247.554a7.437,7.437,0,0,1-.7-3.67,7.521,7.521,0,0,1,.588-3.694,23.235,23.235,0,0,1,0,3.682A22.958,22.958,0,0,1,544.521,247.554Z" transform="translate(-478.646 -106.065)" fill="#263238"/>
      <path id="Path_2531" data-name="Path 2531" d="M538.113,230.237c-.072.144-6.153-2.735-13.589-6.453s-13.386-6.837-13.314-6.993,6.165,2.723,13.589,6.441S538.2,230.069,538.113,230.237Z" transform="translate(-485.144 -110.733)" fill="#263238"/>
      <path id="Path_2532" data-name="Path 2532" d="M602.009,193.535c-.288.36-1.427-.192-3.418-.6a17.559,17.559,0,0,0-8.4.42c-3.43.948-7.2,3.2-11.6,6a66.251,66.251,0,0,1-7.436,4.27,25.6,25.6,0,0,1-9.6,2.567,27.348,27.348,0,0,1-9.751-1.415,76.334,76.334,0,0,1-7.928-3.154c-2.4-1.079-4.594-2.1-6.633-2.843a36.3,36.3,0,0,0-5.817-1.607,19.815,19.815,0,0,0-8.492.084c-1.991.492-3.142,1.032-3.442.672s.4-1.535,2.4-2.891a17.043,17.043,0,0,1,9.931-2.267,32.753,32.753,0,0,1,6.885,1.067,73.649,73.649,0,0,1,7.3,2.4c4.882,1.835,10.063,3.946,15.161,3.658s9.871-3.023,14.393-5.541,9.248-4.87,13.674-5.433a15.94,15.94,0,0,1,10.147,1.643C601.674,191.964,602.273,193.247,602.009,193.535Z" transform="translate(-483.504 -116.335)" fill="#fafafa"/>
      <path id="Path_2533" data-name="Path 2533" d="M583.383,222.035c-.288.336-1.08.192-2.4,0a30.793,30.793,0,0,0-5.241-.48,10.8,10.8,0,0,0-3.167.432l-.324.12-.444.18-.923.408c-.624.288-1.2.612-1.943.96-1.343.708-2.807,1.535-4.486,2.4a33.065,33.065,0,0,1-5.553,2.087,32,32,0,0,1-11.334.888,29.158,29.158,0,0,1-8.912-2.3c-4.8-2.171-6.933-4.726-6.477-5.385s3.322.312,7.82,1.2a39.138,39.138,0,0,0,17.3-.456,35.9,35.9,0,0,0,4.642-1.619c1.511-.648,3.058-1.379,4.63-2.015.792-.312,1.6-.612,2.4-.864.408-.132.816-.24,1.2-.348l.612-.156.72-.132a13.194,13.194,0,0,1,4.8.24,14.01,14.01,0,0,1,5.805,2.687C583.3,220.836,583.647,221.723,583.383,222.035Z" transform="translate(-480.974 -110.723)" fill="#fafafa"/>
      <path id="Path_2534" data-name="Path 2534" d="M574.931,236.309c-.18,0-.36-6.777-.408-15.149s0-15.161.216-15.161.36,6.777.408,15.149S575.1,236.309,574.931,236.309Z" transform="translate(-472.521 -112.884)" fill="#263238"/>
      <path id="Path_2535" data-name="Path 2535" d="M587.408,259.807l-.192-36.558,22.453-4.138s-2.4-10.795-5.505-21.182c-2.4-8.168-7.556-11.634-13.805-14.681v-.108l-.54-.144a50.771,50.771,0,0,0-16.252-4.246L551.785,179s-16.648-2.075-25.86,9.787c-3.6,4.57-14.525,35.851-14.525,35.851l26.147,12.594-2.483-17.344s.492,12.57,2.1,16.552c.888,2.219,3.478,9.116,3.478,9.116l-.336,20.8Z" transform="translate(-485.106 -118.318)" fill="#8dc63f"/>
      <path id="Path_2536" data-name="Path 2536" d="M536.8,239.751a5.174,5.174,0,0,1-.516-1.2c-.3-.768-.7-1.9-1.2-3.3a99.555,99.555,0,0,1-2.915-11.155,79.346,79.346,0,0,1-1.439-11.443c-.072-1.475-.1-2.675-.072-3.5a5.456,5.456,0,0,1,.084-1.283c.108,0,.168,1.823.42,4.8a106.163,106.163,0,0,0,1.619,11.359c.876,4.39,1.931,8.312,2.735,11.143l.948,3.346A5.3,5.3,0,0,1,536.8,239.751Z" transform="translate(-481.267 -112.511)" fill="#263238"/>
      <path id="Path_2537" data-name="Path 2537" d="M542.453,247.322a6,6,0,0,1-1.056-2.4,5.661,5.661,0,0,1-.456-2.6,6.269,6.269,0,0,1,1.055,2.4A5.7,5.7,0,0,1,542.453,247.322Z" transform="translate(-479.217 -105.64)" fill="#263238"/>
      <path id="Path_2538" data-name="Path 2538" d="M544.521,247.554a7.437,7.437,0,0,1-.7-3.67,7.521,7.521,0,0,1,.588-3.694,23.235,23.235,0,0,1,0,3.682A22.958,22.958,0,0,1,544.521,247.554Z" transform="translate(-478.646 -106.065)" fill="#263238"/>
      <path id="Path_2539" data-name="Path 2539" d="M538.113,230.237c-.072.144-6.153-2.735-13.589-6.453s-13.386-6.837-13.314-6.993,6.165,2.723,13.589,6.441S538.2,230.069,538.113,230.237Z" transform="translate(-485.144 -110.733)" fill="#263238"/>
      <path id="Path_2540" data-name="Path 2540" d="M602.009,193.535c-.288.36-1.427-.192-3.418-.6a17.559,17.559,0,0,0-8.4.42c-3.43.948-7.2,3.2-11.6,6a66.251,66.251,0,0,1-7.436,4.27,25.6,25.6,0,0,1-9.6,2.567,27.348,27.348,0,0,1-9.751-1.415,76.334,76.334,0,0,1-7.928-3.154c-2.4-1.079-4.594-2.1-6.633-2.843a36.3,36.3,0,0,0-5.817-1.607,19.815,19.815,0,0,0-8.492.084c-1.991.492-3.142,1.032-3.442.672s.4-1.535,2.4-2.891a17.043,17.043,0,0,1,9.931-2.267,32.753,32.753,0,0,1,6.885,1.067,73.649,73.649,0,0,1,7.3,2.4c4.882,1.835,10.063,3.946,15.161,3.658s9.871-3.023,14.393-5.541,9.248-4.87,13.674-5.433a15.94,15.94,0,0,1,10.147,1.643C601.674,191.964,602.273,193.247,602.009,193.535Z" transform="translate(-483.504 -116.335)" fill="#fafafa"/>
      <path id="Path_2541" data-name="Path 2541" d="M583.383,222.035c-.288.336-1.08.192-2.4,0a30.793,30.793,0,0,0-5.241-.48,10.8,10.8,0,0,0-3.167.432l-.324.12-.444.18-.923.408c-.624.288-1.2.612-1.943.96-1.343.708-2.807,1.535-4.486,2.4a33.065,33.065,0,0,1-5.553,2.087,32,32,0,0,1-11.334.888,29.158,29.158,0,0,1-8.912-2.3c-4.8-2.171-6.933-4.726-6.477-5.385s3.322.312,7.82,1.2a39.138,39.138,0,0,0,17.3-.456,35.9,35.9,0,0,0,4.642-1.619c1.511-.648,3.058-1.379,4.63-2.015.792-.312,1.6-.612,2.4-.864.408-.132.816-.24,1.2-.348l.612-.156.72-.132a13.194,13.194,0,0,1,4.8.24,14.01,14.01,0,0,1,5.805,2.687C583.3,220.836,583.647,221.723,583.383,222.035Z" transform="translate(-480.974 -110.723)" fill="#fafafa"/>
      <path id="Path_2542" data-name="Path 2542" d="M598.775,285.223c-.18-11.874-10.243-40.133-10.243-40.133l-50.868,2.147s-12.978,27.491-12.522,55.317,8.4,103.247,8.4,103.247H595.08l-1.739-56.469C592.646,331.077,599.122,308.3,598.775,285.223Z" transform="translate(-482.368 -105.088)" fill="#263238"/>
      <path id="Path_2543" data-name="Path 2543" d="M589.173,250.34a3.785,3.785,0,0,1-.156.4l-.492,1.2-1.967,4.33c-1.727,3.79-4.21,9.2-7.281,15.88-6.129,13.422-14.609,31.977-22.969,52.883-4.138,10.459-7.8,20.546-10.9,29.794-1.475,4.642-2.951,9.044-4.126,13.194-.6,2.075-1.2,4.09-1.751,6s-1.019,3.814-1.487,5.589c-1,3.6-1.7,6.813-2.4,9.667-.336,1.427-.648,2.747-.924,3.97s-.48,2.4-.7,3.37c-.408,1.991-.732,3.6-.959,4.642-.12.516-.2.912-.276,1.2a1.845,1.845,0,0,1-.108.408s1.307-9.056,4.918-23.377c.468-1.787.948-3.658,1.451-5.613s1.127-3.946,1.727-6c1.2-4.186,2.615-8.588,4.078-13.194,3.071-9.272,6.717-19.371,10.867-29.854,8.4-20.918,16.912-39.449,23.149-52.775l7.46-15.808c.888-1.835,1.583-3.262,2.063-4.282.24-.456.42-.828.552-1.1a2.076,2.076,0,0,1,.228-.516Z" transform="translate(-480.862 -104.041)" fill="#455a64"/>
      <path id="Path_2544" data-name="Path 2544" d="M574.262,392.679a4.344,4.344,0,0,1-.384-.78l-1.008-2.267c-.864-1.979-2.039-4.87-3.418-8.468a255.764,255.764,0,0,1-14.6-58.328c-.48-3.826-.8-6.933-.971-9.08-.072-1.02-.132-1.847-.18-2.471a4.437,4.437,0,0,1,0-.876,4.326,4.326,0,0,1,.144.864c.084.624.18,1.439.312,2.4.228,2.135.624,5.229,1.2,9.044a285.131,285.131,0,0,0,14.561,58.232c1.319,3.6,2.4,6.525,3.238,8.528l.888,2.315a3.683,3.683,0,0,1,.216.888Z" transform="translate(-476.674 -92.061)" fill="#455a64"/>
      <path id="Path_2545" data-name="Path 2545" d="M574.931,236.309c-.18,0-.36-6.777-.408-15.149s0-15.161.216-15.161.36,6.777.408,15.149S575.1,236.309,574.931,236.309Z" transform="translate(-472.521 -112.884)" fill="#263238"/>
      <path id="Path_2546" data-name="Path 2546" d="M544.108,191.766c.144-6,.168-12.27.168-12.27s-7.652-1.475-9-11.55c-.96-7.293.228-19.874.864-25.548a10.266,10.266,0,0,1,2.123-5.182h0c11.2-4.222,22.129-1.847,29.794,7.2h0L566.2,192.942c-.228,5.637-5.242,9.931-11.275,9.6h0C548.81,202.3,543.976,197.464,544.108,191.766Z" transform="translate(-480.416 -127.004)" fill="#b78876"/>
      <path id="Path_2547" data-name="Path 2547" d="M537.72,150.6a1.283,1.283,0,0,0,1.2,1.331,1.2,1.2,0,0,0,1.367-1.127,1.283,1.283,0,0,0-1.2-1.331,1.2,1.2,0,0,0-1.367,1.128Z" transform="translate(-479.858 -124.159)" fill="#263238"/>
      <path id="Path_2548" data-name="Path 2548" d="M536.254,149.5c.156.18,1.2-.516,2.531-.48s2.4.756,2.543.588-.084-.372-.516-.708a3.6,3.6,0,0,0-2.027-.684,3.4,3.4,0,0,0-2.027.6C536.326,149.156,536.17,149.432,536.254,149.5Z" transform="translate(-480.154 -124.407)" fill="#263238"/>
      <path id="Path_2549" data-name="Path 2549" d="M549.64,151.269a1.271,1.271,0,0,0,1.2,1.331,1.2,1.2,0,0,0,1.367-1.127,1.3,1.3,0,0,0-1.2-1.331,1.2,1.2,0,0,0-1.367,1.127Z" transform="translate(-477.48 -124.025)" fill="#263238"/>
      <path id="Path_2550" data-name="Path 2550" d="M548.293,150.215c.156.168,1.2-.528,2.531-.492s2.4.756,2.543.6-.084-.384-.516-.72a3.6,3.6,0,0,0-2.027-.684,3.478,3.478,0,0,0-2.027.6C548.365,149.868,548.221,150.215,548.293,150.215Z" transform="translate(-477.752 -124.267)" fill="#263238"/>
      <path id="Path_2551" data-name="Path 2551" d="M544.461,160.4a10.206,10.206,0,0,0-2.243-.456c-.36,0-.684-.132-.744-.372a1.872,1.872,0,0,1,.264-1.043l1.115-2.663a45.138,45.138,0,0,0,2.531-6.993,46.383,46.383,0,0,0-3.083,6.765c-.372.948-.732,1.835-1.08,2.687a2.063,2.063,0,0,0-.216,1.391.9.9,0,0,0,.564.528,2.458,2.458,0,0,0,.6.1A8.325,8.325,0,0,0,544.461,160.4Z" transform="translate(-479.21 -124.277)" fill="#263238"/>
      <path id="Path_2552" data-name="Path 2552" d="M542.72,172.668a25.536,25.536,0,0,0,13.542-3.238s-3.443,6.813-13.458,5.613Z" transform="translate(-478.86 -120.176)" fill="#a36957"/>
      <path id="Path_2553" data-name="Path 2553" d="M563.065,158.608c-1.2,2.771-4.1,4.906-3.706,7.892.264,1.919,1.5,3.718,1.2,5.649-.3,2.4-2.819,4.114-3.179,6.525-.432,2.975,2.4,5.277,3.6,8.048,1.679,4.03-.468,8.564-.516,12.93a13.877,13.877,0,0,0,12.33,13.434c2.7.216,5.733-.6,7.2-2.915,1.2-1.907.924-4.33,1.619-6.453,1.019-3.166,4.03-5.481,4.666-8.744,1.2-6-6-10.867-5.553-16.912.2-2.579,1.8-4.8,2.471-7.328a10.723,10.723,0,0,0-2.111-9.6c-1.763-2.111-4.342-3.5-5.853-5.805-1.715-2.615-1.775-6-2.4-8.984a22.633,22.633,0,0,0-35.983-13.266s-1.715,7.784,6.273,9.08,11.694-.2,12.594,3a8.48,8.48,0,0,0,2.4,7.316C561.35,156.15,564.457,155.406,563.065,158.608Z" transform="translate(-480.063 -128.366)" fill="#263238"/>
      <path id="Path_2554" data-name="Path 2554" d="M545.168,161.848a1.9,1.9,0,0,1,3.43-1.3,1.343,1.343,0,0,1,.2,1.2,1.571,1.571,0,0,1-.672.7,2.471,2.471,0,0,1-1.907.4,1.439,1.439,0,0,1-1.1-1.451" transform="translate(-478.382 -122.106)" fill="#a36957"/>
      <path id="Path_2555" data-name="Path 2555" d="M548.426,159c.084,0,.132.336,0,.84a3.431,3.431,0,0,1-1.2,1.643,3.334,3.334,0,0,1-1.931.66c-.528,0-.828-.144-.816-.228a8.239,8.239,0,0,0,2.4-.936C547.97,160.2,548.258,159,548.426,159Z" transform="translate(-478.509 -122.256)" fill="#263238"/>
      <path id="Path_2556" data-name="Path 2556" d="M550.132,155.742c-.12.12-.384,0-.588-.144s-.264-.468-.144-.588.384-.06.588.144A.506.506,0,0,1,550.132,155.742Z" transform="translate(-477.54 -123.064)" fill="#a36957"/>
      <path id="Path_2557" data-name="Path 2557" d="M551.7,154.584c.144.1.156.348,0,.576s-.36.348-.516.252-.156-.336,0-.564S551.539,154.5,551.7,154.584Z" transform="translate(-477.197 -123.142)" fill="#a36957"/>
      <path id="Path_2558" data-name="Path 2558" d="M553.476,155.566c-.144.1-.384,0-.528-.216s-.156-.468,0-.564.372,0,.528.216A.415.415,0,0,1,553.476,155.566Z" transform="translate(-476.843 -123.104)" fill="#a36957"/>
      <path id="Path_2559" data-name="Path 2559" d="M551.715,156.917a.384.384,0,1,1-.08-.49.384.384,0,0,1,.08.49Z" transform="translate(-477.192 -122.788)" fill="#a36957"/>
      <path id="Path_2560" data-name="Path 2560" d="M537.122,155.916c-.1.144-.444.072-.636-.264s-.072-.66.1-.672.324.168.444.36A.588.588,0,0,1,537.122,155.916Z" transform="translate(-480.123 -123.058)" fill="#a36957"/>
      <path id="Path_2561" data-name="Path 2561" d="M538.308,155.5c-.156,0-.216-.312-.132-.588s.3-.444.468-.384.216.324.132.588S538.476,155.564,538.308,155.5Z" transform="translate(-479.774 -123.15)" fill="#a36957"/>
      <path id="Path_2562" data-name="Path 2562" d="M539.457,156.037c-.144-.084-.132-.408,0-.732s.444-.516.588-.432.132.408,0,.732S539.613,156.121,539.457,156.037Z" transform="translate(-479.532 -123.083)" fill="#a36957"/>
      <path id="Path_2563" data-name="Path 2563" d="M537.8,157.83c-.132.12-.432,0-.576-.36s0-.648.132-.66.336.18.444.42S537.928,157.722,537.8,157.83Z" transform="translate(-479.969 -122.693)" fill="#a36957"/>
      <path id="Path_2564" data-name="Path 2564" d="M552.1,146.743c-.144.324-1.307.132-2.687.144s-2.543.2-2.687-.12,1.008-1.127,2.687-1.127S552.239,146.444,552.1,146.743Z" transform="translate(-478.065 -124.921)" fill="#263238"/>
      <path id="Path_2565" data-name="Path 2565" d="M539.49,147.141c-.06.336-.936.456-1.955.408s-1.871-.288-1.9-.636.863-.684,1.967-.612S539.55,146.829,539.49,147.141Z" transform="translate(-480.272 -124.791)" fill="#263238"/>
      <path id="Path_2566" data-name="Path 2566" d="M528.246,276.29c-.216-2.651,10.795-4.114,11.694-4.306s.672-1.535-.156-1.319c-1.2.324-13.674,3.322-13.913.72-.144-1.439,2.471-1.451,2.471-1.451s11.9-1.943,11.731-3.166-7.2-.324-9.523.144-3.478-.444-2.831-1.643c.432-.816,7.592-2.4,9.919-2.855s8.78-1.379,5.181-3.5-5.529-5-5.517-6.165a1.3,1.3,0,0,1,2.4-.516,15.043,15.043,0,0,0,3.142,2.735,10.278,10.278,0,0,0,3.107,1.475c1.2.336,2.267.576,3.167.756,6.213-1.955,35.683-15.353,35.683-15.353l.06-25.4,20.15-3.718.408,24.732A24.3,24.3,0,0,1,589.081,260.8l-37.434,13v-.06a121.46,121.46,0,0,1-12.282,5.062c-5.877,1.787-6,1.259-6.141.54-.24-1.931,10.219-3.526,7.772-4.486S528.426,278.329,528.246,276.29Z" transform="translate(-482.222 -111.543)" fill="#b78876"/>
    </g>
    <g id="freepik--character-2--inject-60" transform="translate(370.74 132.566)">
      <path id="Path_2567" data-name="Path 2567" d="M347.76,384.25c-.72,2.159-8.06,90.533-8.06,90.533l19.79,1.343,11.994-83.444Z" transform="translate(-315.511 -74.906)" fill="#ffbe9d"/>
      <path id="Path_2568" data-name="Path 2568" d="M396.217,131.9c2.123,5.769,3.406,9.6,5.493,14.177,1.2,2.6,2.735,5.217,2.591,8.06-.1,1.967-1.008,3.826-.96,5.781.084,3.454,3.022,6.057,5.613,8.324s5.313,5.253,4.8,8.66c-.228,1.487-1.079,2.831-1.2,4.33a7.425,7.425,0,0,0,1.907,5.014,38.822,38.822,0,0,1,3.382,4.318l.408,2.759-32.48-10.267" transform="translate(-306.323 -125.231)" fill="#263238"/>
      <path id="Path_2569" data-name="Path 2569" d="M389.26,381.44c.552,2.195,5.877,96.182,5.877,96.182l19.731-1.487,1.3-94.695Z" transform="translate(-305.627 -75.467)" fill="#ffbe9d"/>
      <path id="Path_2570" data-name="Path 2570" d="M414.616,461.7l-.06-2.075-21.026.432.132,6.849h1.3c5.781.192,29.41.588,33.248-.564C432.475,465.089,414.616,461.7,414.616,461.7Z" transform="translate(-304.776 -59.876)" fill="#8dc63f"/>
      <g id="Group_216" data-name="Group 216" transform="translate(88.826 401.276)" opacity="0.3">
        <path id="Path_2571" data-name="Path 2571" d="M401.278,466.346a6.693,6.693,0,0,0-2.771-4.09,7.424,7.424,0,0,0-4.918-1.331l.12,5.445Z" transform="translate(-393.59 -460.897)"/>
      </g>
      <g id="Group_217" data-name="Group 217" transform="translate(88.886 403.798)" opacity="0.3">
        <path id="Path_2572" data-name="Path 2572" d="M423.326,463s6.273,1.559,5.517,2.519-24.648,1.415-35.2.744v-.432l27.875-.288S422.114,463,423.326,463Z" transform="translate(-393.64 -463)"/>
      </g>
      <path id="Path_2573" data-name="Path 2573" d="M393.38,465.424h1.391l3.814.084c3.215,0,7.652.06,12.558,0s9.356-.252,12.558-.42l3.8-.216,1.031-.072H427.5l-3.8.132c-3.214.12-7.652.264-12.558.348s-9.343.1-12.558.1H393.38Z" transform="translate(-304.806 -58.842)" fill="#263238"/>
      <path id="Path_2574" data-name="Path 2574" d="M416.9,465.852a7.5,7.5,0,0,1,.672-1.7,7.676,7.676,0,0,1,1.271-1.379,2.723,2.723,0,0,0-1.487,1.259A2.4,2.4,0,0,0,416.9,465.852Z" transform="translate(-300.12 -59.247)" fill="#263238"/>
      <path id="Path_2575" data-name="Path 2575" d="M411.7,463.274a2.5,2.5,0,0,0,.636-.768c.288-.456.492-.84.432-.876s-.348.3-.648.756S411.642,463.274,411.7,463.274Z" transform="translate(-301.154 -59.475)" fill="#263238"/>
      <path id="Path_2576" data-name="Path 2576" d="M410.271,462.527a3.163,3.163,0,0,0,.72-.48c.348-.312.612-.588.564-.636s-.372.156-.732.468S410.223,462.479,410.271,462.527Z" transform="translate(-301.438 -59.52)" fill="#263238"/>
      <path id="Path_2577" data-name="Path 2577" d="M409.34,460.843a2.4,2.4,0,0,0,1.092.108,2.626,2.626,0,0,0,1.091-.12,2.4,2.4,0,0,0-1.091-.108,2.722,2.722,0,0,0-1.092.12Z" transform="translate(-301.623 -59.66)" fill="#263238"/>
      <path id="Path_2578" data-name="Path 2578" d="M409,459.75a2.255,2.255,0,0,0,1.2.3,2.207,2.207,0,0,0,1.259-.18,8.76,8.76,0,0,0-1.2,0A6.163,6.163,0,0,0,409,459.75Z" transform="translate(-301.691 -59.85)" fill="#263238"/>
      <path id="Path_2579" data-name="Path 2579" d="M412.26,461.872a4.339,4.339,0,0,0,1.343,0,8.881,8.881,0,0,0,1.427-.312,4.429,4.429,0,0,0,.8-.336.672.672,0,0,0,.324-.4.468.468,0,0,0-.2-.492,2.591,2.591,0,0,0-3.047.72,2.4,2.4,0,0,0-.42.852.66.66,0,0,0,0,.336,3.6,3.6,0,0,1,.588-1.079,2.5,2.5,0,0,1,1.139-.72,2.327,2.327,0,0,1,1.607.072c.216.144.132.384-.1.516a3.467,3.467,0,0,1-.756.312,10.022,10.022,0,0,1-1.379.372C412.764,461.824,412.26,461.836,412.26,461.872Z" transform="translate(-301.041 -59.777)" fill="#263238"/>
      <path id="Path_2580" data-name="Path 2580" d="M412.849,462.029a1.2,1.2,0,0,0,.132-.876,2.016,2.016,0,0,0-.384-.912,1.391,1.391,0,0,0-1.139-.612.48.48,0,0,0-.4.588,1.2,1.2,0,0,0,.24.552,4.118,4.118,0,0,0,.648.744,2.052,2.052,0,0,0,.78.492,8.609,8.609,0,0,1-.648-.612,4.2,4.2,0,0,1-.576-.732c-.192-.264-.336-.744,0-.8a1.2,1.2,0,0,1,.9.516,1.859,1.859,0,0,1,.4.8,4.471,4.471,0,0,1,.048.852Z" transform="translate(-301.282 -59.874)" fill="#263238"/>
      <path id="Path_2581" data-name="Path 2581" d="M393.64,460.916a13.891,13.891,0,0,1,1.547,0,6.98,6.98,0,0,1,3.394,1.2,6.321,6.321,0,0,1,2.171,2.735c.348.828.384,1.391.432,1.379a1.009,1.009,0,0,0,0-.4,4.387,4.387,0,0,0-.252-1.043,6,6,0,0,0-2.183-2.855,6.646,6.646,0,0,0-3.538-1.2,5.336,5.336,0,0,0-1.2,0A3.5,3.5,0,0,0,393.64,460.916Z" transform="translate(-304.754 -59.66)" fill="#263238"/>
      <path id="Path_2582" data-name="Path 2582" d="M402.12,463.83a12.329,12.329,0,0,0,3.059.228,11.862,11.862,0,0,0,3.058-.288h-3.058A27.916,27.916,0,0,0,402.12,463.83Z" transform="translate(-303.063 -59.048)" fill="#263238"/>
      <path id="Path_2583" data-name="Path 2583" d="M398.7,463.881s.12.264.264.552.228.552.3.54.1-.3-.072-.636S398.748,463.833,398.7,463.881Z" transform="translate(-303.745 -59.027)" fill="#263238"/>
      <path id="Path_2584" data-name="Path 2584" d="M397.38,462.412a1.1,1.1,0,0,0,.312.444c.228.192.432.336.492.288s-.1-.252-.312-.456S397.428,462.364,397.38,462.412Z" transform="translate(-304.008 -59.321)" fill="#263238"/>
      <path id="Path_2585" data-name="Path 2585" d="M395.52,461.78c0,.072.288.06.6.156s.54.24.588.2-.12-.312-.5-.432S395.5,461.72,395.52,461.78Z" transform="translate(-304.379 -59.469)" fill="#263238"/>
      <path id="Path_2586" data-name="Path 2586" d="M394.2,461.479a.564.564,0,0,0,.276.216c.18.06.336.06.36,0s-.108-.168-.276-.228S394.224,461.419,394.2,461.479Z" transform="translate(-304.642 -59.515)" fill="#263238"/>
      <path id="Path_2587" data-name="Path 2587" d="M323.416,243.809a19.946,19.946,0,0,1,2.207-26.171l34.651-33.428,6.6,24.432c-.612.348-26.831,24.264-26.831,24.264l18.651,27.527a14.933,14.933,0,0,1,1.319,14.393l-1.2,3.73a9.176,9.176,0,0,1-13.122,5.134l-5.625-3.083a1.2,1.2,0,0,1-.384-1.847h0a1.271,1.271,0,0,1,1.079-.48l7.9.648a3.6,3.6,0,0,0,3.718-2.4h0Z" transform="translate(-319.533 -114.799)" fill="#ffbe9d"/>
      <path id="Path_2588" data-name="Path 2588" d="M337.76,226.355c-1.379-2.039-3.155-3.862-4.57-5.685" transform="translate(-316.809 -107.528)" fill="#ffbe9d"/>
      <path id="Path_2589" data-name="Path 2589" d="M421.349,215.526l7.76,14.045,4.8-38.166a15.388,15.388,0,0,0-1.583-8.024,16.8,16.8,0,0,0-1.931-3.107,17.212,17.212,0,0,0-3.322-3.119,1.391,1.391,0,0,1,.24-2.627c1.2-.132,4.642,1.691,7.316,5.349s2.951-3.382,3.095-6,.983-10.447,1.8-11c1.2-.816,2.339.348,2.123,2.891s-.288,10.255,1.055,10.3,1.919-12.99,1.919-12.99-.324-2.819,1.2-2.807c2.819,0,1.2,13.793,1,15.1-.132.912,1.331,1.008,1.415,0s.288-13.026,3.154-13.05c2.195,0-1.2,11.359.1,13.913s1.727-8.912,3.838-8.84c.78,0,1.367.156.192,6.681-.624,3.5-2.939,8.552-3.6,15.4l-.192,1.775s-3.958,33.452-9.835,53.842c-3.514,12.21-20.846,13.41-27.887,2.819-4.8-7.2-12.306-25.98-12.306-25.98Z" transform="translate(-303.149 -119.572)" fill="#ffbe9d"/>
      <path id="Path_2590" data-name="Path 2590" d="M442.7,181.729c0,.06-.444.06-1.115.288a4.078,4.078,0,0,0-2.171,1.8l-.264.48-.156-.54a6.572,6.572,0,0,0-1.031-2.075,7.569,7.569,0,0,0-3.6-2.651c-1.115-.4-1.871-.372-1.859-.468a3.671,3.671,0,0,1,1.955.132,7.2,7.2,0,0,1,3.9,2.7,6.535,6.535,0,0,1,1.079,2.243h-.42A4.018,4.018,0,0,1,441.5,181.8a2,2,0,0,1,1.2-.072Z" transform="translate(-297.004 -115.941)" fill="#eb996e"/>
      <path id="Path_2591" data-name="Path 2591" d="M341.01,461.625l.06-2.075,21.026.432-.132,6.849h-1.3c-5.781.192-29.422.588-33.248-.576C323.138,465.007,341.01,461.625,341.01,461.625Z" transform="translate(-318.092 -59.889)" fill="#8dc63f"/>
      <g id="Group_218" data-name="Group 218" transform="translate(36.291 401.191)" opacity="0.3">
        <path id="Path_2592" data-name="Path 2592" d="M349.79,466.276a6.777,6.777,0,0,1,2.759-4.1,7.46,7.46,0,0,1,4.93-1.319l-.12,5.433Z" transform="translate(-349.79 -460.826)"/>
      </g>
      <g id="Group_219" data-name="Group 219" transform="translate(8.593 403.679)" opacity="0.3">
        <path id="Path_2593" data-name="Path 2593" d="M332.278,462.9s-6.273,1.547-5.517,2.519,24.66,1.4,35.215.744v-.444l-27.9-.3S333.5,463.02,332.278,462.9Z" transform="translate(-326.697 -462.9)"/>
      </g>
      <path id="Path_2594" data-name="Path 2594" d="M362.277,465.356h-1.4l-3.8.084c-3.214,0-7.664.06-12.57,0s-9.344-.264-12.558-.42l-3.8-.216-1.032-.084h1.044l3.8.144c3.214.12,7.652.264,12.558.348s9.344.1,12.558.1h4.8Z" transform="translate(-318.093 -58.858)" fill="#263238"/>
      <path id="Path_2595" data-name="Path 2595" d="M333.173,465.782a7.966,7.966,0,0,0-.672-1.7,8.205,8.205,0,0,0-1.271-1.379,2.806,2.806,0,0,1,1.487,1.259A2.507,2.507,0,0,1,333.173,465.782Z" transform="translate(-317.2 -59.261)" fill="#263238"/>
      <path id="Path_2596" data-name="Path 2596" d="M338.229,463.2a2.5,2.5,0,0,1-.648-.756c-.3-.456-.48-.852-.42-.888s.348.312.636.768S338.289,463.168,338.229,463.2Z" transform="translate(-316.019 -59.489)" fill="#263238"/>
      <path id="Path_2597" data-name="Path 2597" d="M339.694,462.447a3.058,3.058,0,0,1-.732-.468c-.36-.312-.6-.6-.552-.648s.372.168.732.48S339.742,462.4,339.694,462.447Z" transform="translate(-315.769 -59.536)" fill="#263238"/>
      <path id="Path_2598" data-name="Path 2598" d="M340.775,460.774a2.95,2.95,0,0,1-1.1.108,2.4,2.4,0,0,1-1.091-.132,2.854,2.854,0,0,1,1.091-.108A2.639,2.639,0,0,1,340.775,460.774Z" transform="translate(-315.734 -59.674)" fill="#263238"/>
      <path id="Path_2599" data-name="Path 2599" d="M341.153,459.67a3.262,3.262,0,0,1-2.483.132,6.338,6.338,0,0,1,1.2,0A9.6,9.6,0,0,1,341.153,459.67Z" transform="translate(-315.716 -59.866)" fill="#263238"/>
      <path id="Path_2600" data-name="Path 2600" d="M338.142,461.8a4.343,4.343,0,0,1-1.343,0,8.745,8.745,0,0,1-1.427-.324,3.722,3.722,0,0,1-.816-.324.672.672,0,0,1-.324-.4.468.468,0,0,1,.216-.492,2.567,2.567,0,0,1,3.035.72,2.255,2.255,0,0,1,.42.84v.348a3.13,3.13,0,0,0-.588-1.079,2.4,2.4,0,0,0-1.127-.72,2.2,2.2,0,0,0-1.607.072c-.216.144-.144.384.1.516a4.062,4.062,0,0,0,.744.312,10.791,10.791,0,0,0,1.379.36A11.16,11.16,0,0,1,338.142,461.8Z" transform="translate(-316.603 -59.791)" fill="#263238"/>
      <path id="Path_2601" data-name="Path 2601" d="M337.229,461.947a1.127,1.127,0,0,1-.144-.864,2,2,0,0,1,.4-.912,1.332,1.332,0,0,1,1.127-.612.492.492,0,0,1,.408.576,1.511,1.511,0,0,1-.24.564,4.6,4.6,0,0,1-.66.744,2.051,2.051,0,0,1-.78.492s.276-.228.66-.612a4.452,4.452,0,0,0,.576-.744c.192-.264.324-.732,0-.792a1.2,1.2,0,0,0-.9.516,2,2,0,0,0-.4.8A4.884,4.884,0,0,0,337.229,461.947Z" transform="translate(-316.038 -59.888)" fill="#263238"/>
      <path id="Path_2602" data-name="Path 2602" d="M357.364,460.837a10.512,10.512,0,0,0-1.547,0,7.2,7.2,0,0,0-3.406,1.2,6.345,6.345,0,0,0-2.171,2.735,11.989,11.989,0,0,0-.42,1.379v-.4a5.075,5.075,0,0,1,.252-1.043,6,6,0,0,1,2.183-2.867,6.934,6.934,0,0,1,3.6-1.2,6.36,6.36,0,0,1,1.2,0,1.782,1.782,0,0,1,.312.192Z" transform="translate(-313.493 -59.677)" fill="#263238"/>
      <path id="Path_2603" data-name="Path 2603" d="M348.647,463.765a13.312,13.312,0,0,1-3.07.228,12.379,12.379,0,0,1-3.047-.288c0-.072,1.367,0,3.059,0A24.759,24.759,0,0,1,348.647,463.765Z" transform="translate(-314.947 -59.067)" fill="#263238"/>
      <path id="Path_2604" data-name="Path 2604" d="M351.154,463.811s-.12.264-.264.552-.228.552-.3.54-.108-.312.072-.636S351.094,463.763,351.154,463.811Z" transform="translate(-313.351 -59.041)" fill="#263238"/>
      <path id="Path_2605" data-name="Path 2605" d="M352.505,462.342a1.4,1.4,0,0,1-.312.444c-.216.2-.444.324-.492.276s.1-.24.312-.444S352.457,462.294,352.505,462.342Z" transform="translate(-313.119 -59.335)" fill="#263238"/>
      <path id="Path_2606" data-name="Path 2606" d="M354.431,461.709c0,.072-.3.06-.612.156s-.528.24-.588.192.132-.312.516-.42S354.455,461.649,354.431,461.709Z" transform="translate(-312.814 -59.482)" fill="#263238"/>
      <path id="Path_2607" data-name="Path 2607" d="M355.656,461.4c0,.06-.1.168-.276.216s-.336.06-.36,0,.1-.156.276-.216S355.632,461.337,355.656,461.4Z" transform="translate(-312.456 -59.53)" fill="#263238"/>
      <path id="Path_2608" data-name="Path 2608" d="M366.346,241.858l-13.877,32.384L336.24,452.957l41.74,4.51L391.546,303.28l4.1,155.41,38.286-1.2-5.625-183a35.286,35.286,0,0,0-3.6-14.225l-9.2-18.819Z" transform="translate(-316.201 -103.384)" fill="#263238"/>
      <path id="Path_2609" data-name="Path 2609" d="M386.907,290.039a1.6,1.6,0,0,1-.384.324,2.675,2.675,0,0,1-1.391.384,4.354,4.354,0,0,1-2.219-.612,4.894,4.894,0,0,1-1.979-2.315c-.948-2.135-.732-4.858-.8-7.736s0-6.117-.06-9.475V253.4c0-2.123.06-3.874.072-5.218a10.679,10.679,0,0,1,.12-1.919,13.059,13.059,0,0,1,.132,1.919c0,1.343.072,3.095.12,5.218.072,4.4.132,10.483.168,17.212v9.475c0,2.927-.2,5.577.636,7.568a4.39,4.39,0,0,0,3.79,2.855A3.6,3.6,0,0,0,386.907,290.039Z" transform="translate(-307.46 -102.425)" fill="#455a64"/>
      <path id="Path_2610" data-name="Path 2610" d="M414.361,260.3a3.444,3.444,0,0,1-1.032.564,12.426,12.426,0,0,1-3.082.864,13.311,13.311,0,0,1-4.8-.192,19.778,19.778,0,0,1-5.433-2.075,17.26,17.26,0,0,1-7.2-7.6,15.294,15.294,0,0,1-1.091-3.011,4.079,4.079,0,0,1-.168-1.2,39.283,39.283,0,0,0,1.655,3.97,17.991,17.991,0,0,0,7.077,7.257,21.447,21.447,0,0,0,5.266,2.063,13.72,13.72,0,0,0,4.582.3,26.193,26.193,0,0,0,4.222-.936Z" transform="translate(-305.169 -102.148)" fill="#455a64"/>
      <path id="Path_2611" data-name="Path 2611" d="M372.729,248.06a3.226,3.226,0,0,1,0,1.115,14.9,14.9,0,0,1-.6,2.987,17.224,17.224,0,0,1-14.789,12.126,15.082,15.082,0,0,1-3.047,0,3.43,3.43,0,0,1-1.1-.2c0-.12,1.6.108,4.1-.252a17.739,17.739,0,0,0,14.393-11.814C372.525,249.643,372.609,248.048,372.729,248.06Z" transform="translate(-312.821 -102.066)" fill="#455a64"/>
      <path id="Path_2612" data-name="Path 2612" d="M384.115,245.685a.716.716,0,0,1,.444-.084,1.775,1.775,0,0,1,1.1.528,2.123,2.123,0,0,1,.624,1.739,2.087,2.087,0,0,1-3.742.744,2.063,2.063,0,0,1-.084-1.847,1.775,1.775,0,0,1,.816-.911c.264-.132.432-.12.432-.084a2.083,2.083,0,0,0-.84,1.2,1.7,1.7,0,0,0,.168,1.391,1.439,1.439,0,0,0,1.5.54,1.463,1.463,0,0,0,1.2-1.08,1.727,1.727,0,0,0-.384-1.343C384.775,245.733,384.115,245.792,384.115,245.685Z" transform="translate(-307.019 -102.557)" fill="#455a64"/>
      <path id="Path_2613" data-name="Path 2613" d="M377.965,413.274a7.379,7.379,0,0,1-1.6,0c-1.02,0-2.507-.156-4.33-.3-3.6-.288-8.708-.78-14.261-1.463s-10.567-1.439-14.189-2.051c-1.811-.3-3.274-.564-4.282-.768a8.614,8.614,0,0,1-1.547-.372,6.888,6.888,0,0,1,1.6.132l4.294.576c3.6.492,8.66,1.2,14.2,1.859s10.591,1.2,14.225,1.643l4.318.492A7.377,7.377,0,0,1,377.965,413.274Z" transform="translate(-315.898 -70.107)" fill="#455a64"/>
      <path id="Path_2614" data-name="Path 2614" d="M422.108,411.02a5.991,5.991,0,0,1-1.451.144l-3.946.168c-3.334.144-7.928.384-13,.78s-9.655.888-12.966,1.271l-3.922.444a7.728,7.728,0,0,1-1.451.1,6.182,6.182,0,0,1,1.415-.336c.912-.18,2.255-.4,3.9-.648,3.31-.492,7.892-1.043,12.978-1.451s9.7-.564,13.038-.588h3.958a7.839,7.839,0,0,1,1.451.12Z" transform="translate(-306.403 -69.592)" fill="#455a64"/>
      <path id="Path_2615" data-name="Path 2615" d="M412.774,405.54a14.824,14.824,0,0,1,.252,6,7.2,7.2,0,0,1-.444-2.974,7.686,7.686,0,0,1,.192-3.023Z" transform="translate(-300.99 -70.661)" fill="#455a64"/>
      <path id="Path_2616" data-name="Path 2616" d="M412.362,395.55a7.2,7.2,0,0,1,.444,2.975,7.688,7.688,0,0,1-.192,3.011,7.2,7.2,0,0,1-.432-2.987A7.521,7.521,0,0,1,412.362,395.55Z" transform="translate(-301.071 -72.653)" fill="#455a64"/>
      <path id="Path_2617" data-name="Path 2617" d="M411.965,385.55a14.586,14.586,0,0,1,.24,6,7.424,7.424,0,0,1-.432-2.987A7.194,7.194,0,0,1,411.965,385.55Z" transform="translate(-301.153 -74.647)" fill="#455a64"/>
      <path id="Path_2618" data-name="Path 2618" d="M411.555,375.56a7.687,7.687,0,0,1,.432,2.987,7.2,7.2,0,0,1-.192,3.011,7.748,7.748,0,0,1-.432-2.987A7.2,7.2,0,0,1,411.555,375.56Z" transform="translate(-301.235 -76.639)" fill="#455a64"/>
      <path id="Path_2619" data-name="Path 2619" d="M411.143,365.57a7.4,7.4,0,0,1,.432,2.975,7.2,7.2,0,0,1-.192,3.011,7.654,7.654,0,0,1-.432-2.975,7.737,7.737,0,0,1,.192-3.011Z" transform="translate(-301.315 -78.632)" fill="#455a64"/>
      <path id="Path_2620" data-name="Path 2620" d="M410.732,355.58a7.282,7.282,0,0,1,.444,2.975,7.685,7.685,0,0,1-.192,3.011,7.1,7.1,0,0,1-.432-2.975A7.569,7.569,0,0,1,410.732,355.58Z" transform="translate(-301.396 -80.624)" fill="#455a64"/>
      <path id="Path_2621" data-name="Path 2621" d="M410.335,345.59a7.592,7.592,0,0,1,.432,2.975,7.686,7.686,0,0,1-.192,3.011,7.425,7.425,0,0,1-.432-2.987A7.2,7.2,0,0,1,410.335,345.59Z" transform="translate(-301.478 -82.616)" fill="#455a64"/>
      <path id="Path_2622" data-name="Path 2622" d="M409.924,335.59a7.749,7.749,0,0,1,.432,2.987,7.2,7.2,0,0,1-.192,3.01,7.688,7.688,0,0,1-.432-2.987,7.472,7.472,0,0,1,.192-3.011Z" transform="translate(-301.559 -84.61)" fill="#455a64"/>
      <path id="Path_2623" data-name="Path 2623" d="M409.513,325.6a7.485,7.485,0,0,1,.432,2.987,7.6,7.6,0,0,1-.18,3.011,7.364,7.364,0,0,1-.444-2.987,7.735,7.735,0,0,1,.192-3.011Z" transform="translate(-301.64 -86.603)" fill="#455a64"/>
      <path id="Path_2624" data-name="Path 2624" d="M409.1,315.61a7.365,7.365,0,0,1,.444,2.987,7.735,7.735,0,0,1-.192,3.011,7.2,7.2,0,0,1-.432-2.987,7.6,7.6,0,0,1,.18-3.011Z" transform="translate(-301.721 -88.595)" fill="#455a64"/>
      <path id="Path_2625" data-name="Path 2625" d="M408.7,305.62a14.586,14.586,0,0,1,.24,6,7.484,7.484,0,0,1-.432-2.987,7.2,7.2,0,0,1,.192-3.011Z" transform="translate(-301.803 -90.587)" fill="#455a64"/>
      <path id="Path_2626" data-name="Path 2626" d="M408.294,295.63a7.688,7.688,0,0,1,.432,2.987,7.111,7.111,0,0,1-.192,3,7.594,7.594,0,0,1-.432-2.975,7.437,7.437,0,0,1,.192-3.011Z" transform="translate(-301.884 -92.579)" fill="#455a64"/>
      <path id="Path_2627" data-name="Path 2627" d="M407.883,285.64a7.1,7.1,0,0,1,.432,2.975,7.568,7.568,0,0,1-.18,3.011,7.2,7.2,0,0,1-.444-2.975A7.687,7.687,0,0,1,407.883,285.64Z" transform="translate(-301.965 -94.572)" fill="#455a64"/>
      <path id="Path_2628" data-name="Path 2628" d="M407.472,275.65a7.2,7.2,0,0,1,.444,2.975,7.689,7.689,0,0,1-.192,3.011,7.2,7.2,0,0,1-.432-2.987,7.486,7.486,0,0,1,.18-3Z" transform="translate(-302.046 -96.564)" fill="#455a64"/>
      <path id="Path_2629" data-name="Path 2629" d="M407.045,265.65a14.586,14.586,0,0,1,.24,6,7.423,7.423,0,0,1-.432-2.987A7.2,7.2,0,0,1,407.045,265.65Z" transform="translate(-302.134 -98.558)" fill="#455a64"/>
      <path id="Path_2630" data-name="Path 2630" d="M406.806,259c.168,0,.324.42.348.96s-.1.972-.276.983-.324-.42-.348-.96S406.626,259,406.806,259Z" transform="translate(-302.184 -99.884)" fill="#455a64"/>
      <path id="Path_2631" data-name="Path 2631" d="M342.215,404a7.713,7.713,0,0,1,0,3.011,7.281,7.281,0,0,1-.6,2.963,14.826,14.826,0,0,1,.564-6Z" transform="translate(-315.147 -70.972)" fill="#455a64"/>
      <path id="Path_2632" data-name="Path 2632" d="M343.124,394.06a7.268,7.268,0,0,1,0,3.023,7.545,7.545,0,0,1-.588,2.951,7.2,7.2,0,0,1,0-3.011A7.64,7.64,0,0,1,343.124,394.06Z" transform="translate(-314.977 -72.95)" fill="#455a64"/>
      <path id="Path_2633" data-name="Path 2633" d="M344.119,384.11a14.824,14.824,0,0,1-.564,6,7.521,7.521,0,0,1,0-3.023,7.2,7.2,0,0,1,.564-2.975Z" transform="translate(-314.773 -74.934)" fill="#455a64"/>
      <path id="Path_2634" data-name="Path 2634" d="M345.015,374.154a7.737,7.737,0,0,1,0,3.011,7.279,7.279,0,0,1-.6,2.963,14.825,14.825,0,0,1,.564-6Z" transform="translate(-314.589 -76.924)" fill="#455a64"/>
      <path id="Path_2635" data-name="Path 2635" d="M345.954,364.2a7.2,7.2,0,0,1,0,3.011,7.544,7.544,0,0,1-.588,2.951,7.2,7.2,0,0,1,0-3.011A7.546,7.546,0,0,1,345.954,364.2Z" transform="translate(-314.413 -78.905)" fill="#455a64"/>
      <path id="Path_2636" data-name="Path 2636" d="M346.888,354.24a14.825,14.825,0,0,1-.564,6,7.786,7.786,0,0,1,0-3.023A7.256,7.256,0,0,1,346.888,354.24Z" transform="translate(-314.219 -80.891)" fill="#455a64"/>
      <path id="Path_2637" data-name="Path 2637" d="M347.815,344.284a7.785,7.785,0,0,1,0,3.023,7.256,7.256,0,0,1-.6,2.951,14.824,14.824,0,0,1,.564-6Z" transform="translate(-314.03 -82.881)" fill="#455a64"/>
      <path id="Path_2638" data-name="Path 2638" d="M348.754,334.33a7.2,7.2,0,0,1,0,3.011,7.547,7.547,0,0,1-.588,2.951,7.2,7.2,0,0,1,0-3.011A7.545,7.545,0,0,1,348.754,334.33Z" transform="translate(-313.854 -84.862)" fill="#455a64"/>
      <path id="Path_2639" data-name="Path 2639" d="M349.688,324.37a14.826,14.826,0,0,1-.564,6,7.786,7.786,0,0,1,0-3.023A7.256,7.256,0,0,1,349.688,324.37Z" transform="translate(-313.661 -86.848)" fill="#455a64"/>
      <path id="Path_2640" data-name="Path 2640" d="M350.615,314.414a7.521,7.521,0,0,1,0,3.022,7.2,7.2,0,0,1-.6,2.951,14.827,14.827,0,0,1,.564-6Z" transform="translate(-313.472 -88.838)" fill="#455a64"/>
      <path id="Path_2641" data-name="Path 2641" d="M351.554,304.46a7.193,7.193,0,0,1,0,3.011,7.64,7.64,0,0,1-.588,2.963,7.266,7.266,0,0,1,0-3.023,7.544,7.544,0,0,1,.588-2.951Z" transform="translate(-313.296 -90.818)" fill="#455a64"/>
      <path id="Path_2642" data-name="Path 2642" d="M352.488,294.5a14.826,14.826,0,0,1-.564,6,7.712,7.712,0,0,1,0-3.011A7.28,7.28,0,0,1,352.488,294.5Z" transform="translate(-313.103 -92.805)" fill="#455a64"/>
      <path id="Path_2643" data-name="Path 2643" d="M353.415,284.544a7.521,7.521,0,0,1,0,3.023,7.2,7.2,0,0,1-.6,2.951,14.824,14.824,0,0,1,.564-6Z" transform="translate(-312.913 -94.795)" fill="#455a64"/>
      <path id="Path_2644" data-name="Path 2644" d="M354.354,274.59a7.2,7.2,0,0,1,0,3.011,7.64,7.64,0,0,1-.588,2.963,7.268,7.268,0,0,1,0-3.023,7.543,7.543,0,0,1,.588-2.951Z" transform="translate(-312.737 -96.775)" fill="#455a64"/>
      <path id="Path_2645" data-name="Path 2645" d="M355.289,264.63a14.765,14.765,0,0,1-.564,6,7.579,7.579,0,0,1,0-3.011,7.2,7.2,0,0,1,.564-2.987Z" transform="translate(-312.545 -98.761)" fill="#455a64"/>
      <path id="Path_2646" data-name="Path 2646" d="M416.061,254.469s.4-34.16.336-34.783l22.081-2.543s-6.741-25.524-10.447-30.3c-9.6-12.414-24.972-10.219-24.972-10.219l-22.789-.264a18.507,18.507,0,0,0-1.943-.336,23.521,23.521,0,0,0-18.579,6L333.84,205.508l20.63,18.855,9.511-7.76,2.831,38.238Z" transform="translate(-316.68 -116.463)" fill="#8dc63f"/>
      <path id="Path_2647" data-name="Path 2647" d="M429.385,199.26c.1.144-15.365,9.991-34.519,21.985s-34.783,21.59-34.855,21.458,15.365-9.991,34.519-21.985S429.3,199.116,429.385,199.26Z" transform="translate(-311.461 -111.798)" fill="#263238"/>
      <path id="Path_2648" data-name="Path 2648" d="M403.735,176.94c.144.108-9.6,13.194-21.77,29.326s-22.141,29.062-22.285,28.954,9.6-13.194,21.782-29.326S403.6,176.832,403.735,176.94Z" transform="translate(-311.527 -116.249)" fill="#263238"/>
      <path id="Path_2649" data-name="Path 2649" d="M350.874,197.178c.156-4.486-2.147-9.092-.528-13.278,1.2-3.107,4.534-4.978,5.877-8.024s.48-6.345,0-9.511-.648-6.849,1.6-9.164c1.847-1.9,4.8-2.315,6.753-4.1a9.6,9.6,0,0,0,2.567-6.561c.156-2.4-.12-4.8.192-7.2a15.365,15.365,0,0,1,8.228-11.586,11.706,11.706,0,0,1,14.045,2.207l-14.813,56.277a57.32,57.32,0,0,0-23.917,10.939Z" transform="translate(-313.503 -126.34)" fill="#263238"/>
      <path id="Path_2650" data-name="Path 2650" d="M351.02,171.319a3.1,3.1,0,0,0-.4.312,2.087,2.087,0,0,0-.636,1.2,2.291,2.291,0,0,0,.636,2,2.783,2.783,0,0,0,2.711.48,3.6,3.6,0,0,0,2.291-2.495,7.088,7.088,0,0,0-.12-4.078c-.4-1.439-1.079-2.867-1.607-4.474a10.315,10.315,0,0,1-.372-5.182,10.675,10.675,0,0,1,5.889-7.8c1.391-.66,2.783-1.079,3.97-1.643a7.509,7.509,0,0,0,2.879-2.183,7.808,7.808,0,0,0,1.7-4.918,17.217,17.217,0,0,0-.2-1.955,4.2,4.2,0,0,1,.2.48,6.308,6.308,0,0,1,.252,1.475,7.928,7.928,0,0,1-1.607,5.193,8.012,8.012,0,0,1-3,2.4c-1.2.6-2.615,1.043-3.958,1.691a10.183,10.183,0,0,0-5.517,7.388,9.9,9.9,0,0,0,.348,4.894c.492,1.547,1.2,3,1.583,4.5a7.508,7.508,0,0,1,0,4.39,4.078,4.078,0,0,1-2.651,2.759,3.119,3.119,0,0,1-3.083-.648,2.507,2.507,0,0,1-.636-2.3,2.134,2.134,0,0,1,.792-1.283A1.1,1.1,0,0,1,351.02,171.319Z" transform="translate(-313.529 -123.498)" fill="#263238"/>
      <path id="Path_2651" data-name="Path 2651" d="M390.347,184.077c-.5-6.3-7.76-2.471-6.957-8.732a264.187,264.187,0,0,0,2.039-42.556" transform="translate(-306.81 -125.054)" fill="#263238"/>
      <path id="Path_2652" data-name="Path 2652" d="M372.022,184.507l-2.807-43.023c7.2-9.847,16.792-11.934,28.618-8.4,0,0,5,20.786,4.4,30.729-.612,10.411-8.4,12.5-8.4,12.5s.276,3.5.648,7.8c2,.324,5.229.852,7.424,1.4.84.2-16.708,23.809-16.708,23.809L364.73,187.145A28.389,28.389,0,0,1,372.022,184.507Z" transform="translate(-310.519 -125.315)" fill="#ffbe9d"/>
      <path id="Path_2653" data-name="Path 2653" d="M392.756,146.548a1.319,1.319,0,0,1-1.14,1.451,1.259,1.259,0,0,1-1.475-1.043,1.343,1.343,0,0,1,1.139-1.463A1.283,1.283,0,0,1,392.756,146.548Z" transform="translate(-305.453 -122.524)" fill="#263238"/>
      <path id="Path_2654" data-name="Path 2654" d="M394.512,145.622c-.156.18-1.2-.456-2.639-.312s-2.4.948-2.555.792.06-.4.48-.768a3.6,3.6,0,0,1,4.138-.384C394.4,145.238,394.584,145.538,394.512,145.622Z" transform="translate(-305.626 -122.725)" fill="#263238"/>
      <path id="Path_2655" data-name="Path 2655" d="M380.7,147.949a1.319,1.319,0,0,1-1.139,1.451,1.271,1.271,0,0,1-1.475-1.056,1.319,1.319,0,0,1,1.139-1.451,1.271,1.271,0,0,1,1.475,1.055Z" transform="translate(-307.858 -122.245)" fill="#263238"/>
      <path id="Path_2656" data-name="Path 2656" d="M382.433,147c-.144.18-1.2-.456-2.639-.312s-2.4.948-2.555.792,0-.4.48-.768a3.6,3.6,0,0,1,2.027-.852,3.4,3.4,0,0,1,2.111.468C382.325,146.619,382.505,146.919,382.433,147Z" transform="translate(-308.036 -122.45)" fill="#263238"/>
      <path id="Path_2657" data-name="Path 2657" d="M387.151,156.89a9.5,9.5,0,0,1,2.255-.636c.36-.072.7-.18.732-.432a1.872,1.872,0,0,0-.348-1.055c-.42-.84-.876-1.715-1.343-2.639a47.047,47.047,0,0,1-3.107-6.969,47.3,47.3,0,0,1,3.67,6.693c.444.936.876,1.823,1.3,2.675a2.147,2.147,0,0,1,.324,1.4.948.948,0,0,1-.54.588,3.669,3.669,0,0,1-.612.144,8.984,8.984,0,0,1-2.327.228Z" transform="translate(-306.409 -122.587)" fill="#263238"/>
      <path id="Path_2658" data-name="Path 2658" d="M391.345,169.215A26.2,26.2,0,0,1,377.24,166.9s4.03,6.717,14.2,4.8Z" transform="translate(-308.024 -118.251)" fill="#eb996e"/>
      <path id="Path_2659" data-name="Path 2659" d="M387.326,157.971a2.567,2.567,0,0,0-2.4-.732,2.4,2.4,0,0,0-1.523,1.02,1.5,1.5,0,0,0,0,1.7,1.727,1.727,0,0,0,1.907.288,5.565,5.565,0,0,0,1.7-1.259,1.679,1.679,0,0,0,.36-.456.492.492,0,0,0-.06-.528" transform="translate(-306.848 -120.19)" fill="#eb996e"/>
      <path id="Path_2660" data-name="Path 2660" d="M383.488,156.1c.228,0,.384,1.5,1.8,2.459s3.047.636,3.071.852-.324.336-1.02.42a3.874,3.874,0,0,1-2.555-.624,3.3,3.3,0,0,1-1.415-2.075C383.248,156.5,383.38,156.1,383.488,156.1Z" transform="translate(-306.812 -120.405)" fill="#263238"/>
      <path id="Path_2661" data-name="Path 2661" d="M389.6,143.83c.084.216,1.055,0,2.243,0s2.171.18,2.255,0-.9-.792-2.255-.78S389.505,143.626,389.6,143.83Z" transform="translate(-305.561 -123.008)" fill="#263238"/>
      <path id="Path_2662" data-name="Path 2662" d="M377.766,144.445v-.036a10.159,10.159,0,0,1,2.219-.552c1.331-.132,2.4.3,2.519.1s-.168-.336-.624-.564a3.694,3.694,0,0,0-1.967-.336,3.311,3.311,0,0,0-2.327,1.1l-.1.168h0C377.634,144.445,377.718,144.469,377.766,144.445Z" transform="translate(-307.975 -123.011)" fill="#263238"/>
      <path id="Path_2663" data-name="Path 2663" d="M377.437,152.024c.12,0,.228-.144.252-.348s0-.384-.156-.4-.228.144-.252.348S377.329,152.012,377.437,152.024Z" transform="translate(-308.017 -121.366)" fill="#eb996e"/>
      <path id="Path_2664" data-name="Path 2664" d="M380.172,151.88c.108,0,.192-.192.108-.384s-.276-.264-.36-.192-.072.216,0,.348S380.028,151.892,380.172,151.88Z" transform="translate(-307.502 -121.367)" fill="#eb996e"/>
      <path id="Path_2665" data-name="Path 2665" d="M378.7,153.084a.228.228,0,0,0,.18-.264.24.24,0,0,0-.216-.24.252.252,0,0,0-.192.264C378.482,152.928,378.578,153.084,378.7,153.084Z" transform="translate(-307.779 -121.107)" fill="#eb996e"/>
      <path id="Path_2666" data-name="Path 2666" d="M394.143,151.372c.108,0,.18-.192.156-.4s-.132-.348-.252-.336-.18.192-.156.4S394.023,151.384,394.143,151.372Z" transform="translate(-304.705 -121.494)" fill="#eb996e"/>
      <path id="Path_2667" data-name="Path 2667" d="M391.406,151.41c.12,0,.2-.144.192-.312s-.108-.3-.216-.288a.274.274,0,0,0-.192.312C391.2,151.29,391.3,151.41,391.406,151.41Z" transform="translate(-305.243 -121.46)" fill="#eb996e"/>
      <path id="Path_2668" data-name="Path 2668" d="M392.732,152.292c.12,0,.216-.168.216-.372s-.1-.36-.2-.36-.2.156-.2.36S392.624,152.292,392.732,152.292Z" transform="translate(-304.973 -121.311)" fill="#eb996e"/>
      <path id="Path_2669" data-name="Path 2669" d="M384.561,129.063a22.9,22.9,0,0,0,5.817,13.35c3.322,3.658,7.089,6.849,11.994,7.736-1.319-4.2-1.607-7.568-2.675-11.059s-2.567-7.017-5.3-9.439a12.39,12.39,0,0,0-12.786-2.087" transform="translate(-307.153 -126.28)" fill="#263238"/>
      <path id="Path_2670" data-name="Path 2670" d="M400.592,145.214a3.223,3.223,0,0,1-.84.144,7.784,7.784,0,0,1-2.4-.216,10.266,10.266,0,0,1-3.178-1.451,22.9,22.9,0,0,1-3.274-2.723,30.524,30.524,0,0,1-4.594-6.165A13.372,13.372,0,0,1,385,131.9a19.5,19.5,0,0,1,1.787,2.615,37.913,37.913,0,0,0,4.654,6,16.012,16.012,0,0,0,6.129,4.2,22.79,22.79,0,0,0,3.023.5Z" transform="translate(-306.477 -125.231)" fill="#455a64"/>
      <path id="Path_2671" data-name="Path 2671" d="M395.38,143.37a2.788,2.788,0,0,1,.372.324,9.524,9.524,0,0,1,.9,1.079,13.192,13.192,0,0,1,2.147,4.678,13.755,13.755,0,0,1,.384,3.6,23.833,23.833,0,0,1-.564,4.054,24.394,24.394,0,0,0-.624,4.366,9.679,9.679,0,0,0,.96,4.51,10.123,10.123,0,0,0,2.891,3.6c1.2.912,2.579,1.559,3.706,2.531a4.8,4.8,0,0,1,1.931,3.67,7.2,7.2,0,0,1-1.2,3.406,16.8,16.8,0,0,0-1.367,2.531,5.409,5.409,0,0,0-.42,2.087,3.6,3.6,0,0,0,.552,1.715,1.549,1.549,0,0,1-.336-.36,2.9,2.9,0,0,1-.456-1.343,5.555,5.555,0,0,1,.324-2.219,16.3,16.3,0,0,1,1.319-2.627,6.872,6.872,0,0,0,1.068-3.19,4.342,4.342,0,0,0-1.787-3.238c-1.055-.888-2.4-1.511-3.706-2.483a10.6,10.6,0,0,1-3.083-3.814,10.291,10.291,0,0,1-1.007-4.8,24.461,24.461,0,0,1,.672-4.474,23.582,23.582,0,0,0,.612-3.958,13.636,13.636,0,0,0-.3-3.442,14.106,14.106,0,0,0-1.919-4.642C395.8,143.91,395.344,143.406,395.38,143.37Z" transform="translate(-304.407 -122.944)" fill="#455a64"/>
      <path id="Path_2672" data-name="Path 2672" d="M408.841,167.188a1.476,1.476,0,0,1-.192.54,2.891,2.891,0,0,1-1.2,1.2,4,4,0,0,1-2.567.444,4.078,4.078,0,0,1-2.831-1.943,6.321,6.321,0,0,1-.852-4.1,10.542,10.542,0,0,1,1.8-4.438c.912-1.415,2.159-2.687,3.083-4.174a6.189,6.189,0,0,0,.828-5.1,6.657,6.657,0,0,0-3.334-3.982,8.576,8.576,0,0,0-2.4-.78c-.84-.18-1.679-.36-2.495-.6a13.878,13.878,0,0,1-4.306-2.039,33.377,33.377,0,0,1-3.226-2.591,20.388,20.388,0,0,1-3.91-4.5,8.985,8.985,0,0,1-.708-1.475,2.4,2.4,0,0,1-.132-.552,20.812,20.812,0,0,0,1.043,1.9,22.61,22.61,0,0,0,3.994,4.306,19.011,19.011,0,0,0,7.412,4.4c.78.216,1.607.4,2.459.564a9.381,9.381,0,0,1,2.6.828,7.2,7.2,0,0,1,3.6,4.354,6.837,6.837,0,0,1-.9,5.589c-1.008,1.571-2.243,2.807-3.13,4.174a10.063,10.063,0,0,0-1.763,4.186,5.829,5.829,0,0,0,.708,3.79,3.8,3.8,0,0,0,2.519,1.847,3.9,3.9,0,0,0,2.4-.324A3.406,3.406,0,0,0,408.841,167.188Z" transform="translate(-306.198 -124.992)" fill="#263238"/>
      <path id="Path_2673" data-name="Path 2673" d="M354.771,191.11a5.491,5.491,0,0,1-.432-.432,8.245,8.245,0,0,1-1-1.475,10.039,10.039,0,0,1-.936-6.393,9.344,9.344,0,0,1,1.859-4.126,24.807,24.807,0,0,1,3.754-3.6,16.686,16.686,0,0,0,3.826-4.006,6.8,6.8,0,0,0,1.019-2.663,5.47,5.47,0,0,0-.372-2.855c-.744-1.871-2.147-3.43-2.939-5.313a6,6,0,0,1-.444-2.987,5.865,5.865,0,0,1,1.139-2.651,13.327,13.327,0,0,1,3.982-3.322,20.224,20.224,0,0,0,3.6-2.555,6.849,6.849,0,0,0,2.483-5.553,8.562,8.562,0,0,0-.684-2.231s.132.168.348.516a4.7,4.7,0,0,1,.576,1.679,7.041,7.041,0,0,1-2.4,5.913,20.185,20.185,0,0,1-3.6,2.663,13.194,13.194,0,0,0-3.8,3.226,5.614,5.614,0,0,0-1.008,2.4,5.314,5.314,0,0,0,.432,2.663c.732,1.763,2.123,3.31,2.939,5.325a6,6,0,0,1,.42,3.178,7.786,7.786,0,0,1-1.127,2.891,16.949,16.949,0,0,1-3.97,4.126,24.106,24.106,0,0,0-3.718,3.442,9.02,9.02,0,0,0-1.835,3.886,10.1,10.1,0,0,0,.72,6.2A20.463,20.463,0,0,0,354.771,191.11Z" transform="translate(-313.01 -123.426)" fill="#455a64"/>
      <path id="Path_2674" data-name="Path 2674" d="M359.859,192.258c.54-4.7,1.463-6.657,1.439-11.395,0-4.342,3.994-10.123,1.511-15.233a57.9,57.9,0,0,1,3.442-9.38c.828-1.883,3.85-7.592,4.618-9.511-.492-3.538-3.035-3.274-2.543-6.789.576-4.222,2.567-8.456,6.165-10.795a17.261,17.261,0,0,1,7.592-2.3,15.688,15.688,0,0,1,5.553.252,7.281,7.281,0,0,1,4.426,3.155l-.936-.888a13.3,13.3,0,0,1-3.119,11.227,19.551,19.551,0,0,1-10.231,6,7.868,7.868,0,0,1-.864,3.8l.1.132-.228.12a8.232,8.232,0,0,1-.864,1.2,7.2,7.2,0,0,1-1.5,1.331,5.781,5.781,0,0,0,0,5.122c.971,1.835,2.951,3.142,3.346,5.182.456,2.291-1.3,4.486-1.2,6.813a7.4,7.4,0,0,0,1.2,3.478c4.234,5.433,3.49,11.035,1.091,17.488-.888,2.4-2.255,4.918-1.559,7.376s3,3.85,3.73,6.153c1.031,3.19-1.331,6.393-3.538,8.924a75.12,75.12,0,0,0-14.645-4.8,26.673,26.673,0,0,0,.744-6.465,5.625,5.625,0,0,1-10.519,1.6C357.184,201.853,359.319,196.971,359.859,192.258Z" transform="translate(-312.845 -126.265)" fill="#263238"/>
      <path id="Path_2675" data-name="Path 2675" d="M364.36,140.86A25.19,25.19,0,0,0,368.4,143.1a14.693,14.693,0,0,0,18.927-6.909,34.637,34.637,0,0,0,1.787-4.294,4.054,4.054,0,0,1-.18,1.2,15.714,15.714,0,0,1-1.2,3.25,16.072,16.072,0,0,1-2.975,4.186,14.705,14.705,0,0,1-5.241,3.478,15.2,15.2,0,0,1-11.227-.48,13.709,13.709,0,0,1-2.963-1.775A4.019,4.019,0,0,1,364.36,140.86Z" transform="translate(-310.593 -125.231)" fill="#455a64"/>
      <path id="Path_2676" data-name="Path 2676" d="M365,136.107c0-.1,1.1.168,2.855.24a16.528,16.528,0,0,0,12.414-4.8c1.259-1.2,1.871-2.159,1.955-2.1a7.569,7.569,0,0,1-1.631,2.4,15.472,15.472,0,0,1-5.805,3.982,15.257,15.257,0,0,1-6.957.948A7.124,7.124,0,0,1,365,136.107Z" transform="translate(-310.465 -125.72)" fill="#455a64"/>
      <path id="Path_2677" data-name="Path 2677" d="M364.363,136.942c.144-.12,1.115.96,2.675,1.727s2.987.948,2.975,1.127a4.4,4.4,0,0,1-3.262-.564C365.058,138.381,364.219,137.013,364.363,136.942Z" transform="translate(-310.596 -124.228)" fill="#455a64"/>
      <path id="Path_2678" data-name="Path 2678" d="M365.649,207.113a3,3,0,0,1,.108-.756,3.6,3.6,0,0,1,1.139-1.9,6,6,0,0,0,2.255-2.4,4.438,4.438,0,0,0-.144-4.2,5.025,5.025,0,0,0-1.931-1.607,4.246,4.246,0,0,1-2.135-2.111,3.707,3.707,0,0,1-.324-1.583,4.631,4.631,0,0,1,.372-1.619,22.129,22.129,0,0,1,1.619-2.9,11.215,11.215,0,0,0-1.2-13.194,5.913,5.913,0,0,1-1.679-3.6,6.273,6.273,0,0,1,1.415-3.6c.732-1.008,1.571-1.871,2.195-2.831a4.953,4.953,0,0,0,1.007-3.035,5.133,5.133,0,0,0-1.331-2.759,10.328,10.328,0,0,1-1.763-2.711,6.3,6.3,0,0,1,.216-5.565,10.794,10.794,0,0,1,3.5-3.023,5.086,5.086,0,0,0,2.123-2.543,3.909,3.909,0,0,0,.264-2.1c-.1-.468-.264-.7-.228-.708a1.6,1.6,0,0,1,.348.684,3.73,3.73,0,0,1-.156,2.207,5.325,5.325,0,0,1-2.147,2.747,10.652,10.652,0,0,0-3.334,2.951,5.841,5.841,0,0,0-.108,5.146,10.421,10.421,0,0,0,1.679,2.507,4.714,4.714,0,0,1,.4,6.465c-.66,1.02-1.511,1.883-2.207,2.855a5.7,5.7,0,0,0-1.283,3.226,5.242,5.242,0,0,0,1.547,3.2,11.719,11.719,0,0,1,2.987,7.017,11.5,11.5,0,0,1-1.7,6.9,19.886,19.886,0,0,0-1.607,2.807,4.233,4.233,0,0,0-.36,1.427,3.31,3.31,0,0,0,.264,1.367,3.791,3.791,0,0,0,1.883,1.883,5.457,5.457,0,0,1,2.087,1.8,3.85,3.85,0,0,1,.636,2.4,7.041,7.041,0,0,1-.552,2.159,4.282,4.282,0,0,1-1.139,1.559c-.456.384-.912.648-1.271.948a3.6,3.6,0,0,0-1.2,1.739A4.8,4.8,0,0,1,365.649,207.113Z" transform="translate(-310.719 -123.141)" fill="#455a64"/>
      <path id="Path_2679" data-name="Path 2679" d="M364.27,140.123a15.591,15.591,0,0,0,3.814,2.747,11.6,11.6,0,0,0,4.93,1.079,13.842,13.842,0,0,0,6-1.427,9.067,9.067,0,0,0,4.15-4.4c.816-1.739,1.331-3.442,1.931-4.8a11.562,11.562,0,0,1,1.775-3.047,5.13,5.13,0,0,1,.684-.684c.168-.144.264-.2.288-.192a13.53,13.53,0,0,0-2.4,4.09c-.54,1.367-1.008,3.071-1.823,4.882a9.439,9.439,0,0,1-4.378,4.714,13.709,13.709,0,0,1-6.273,1.451,11.671,11.671,0,0,1-5.122-1.2A10.8,10.8,0,0,1,365,141.227,3.67,3.67,0,0,1,364.27,140.123Z" transform="translate(-310.611 -125.73)" fill="#455a64"/>
    </g>
    <g id="freepik--character-1--inject-60" transform="translate(162.216 123.928)">
      <path id="Path_2680" data-name="Path 2680" d="M171.148,455.64l-2.231,9.391s-15.365,19.947-20.1,18.975c-3.107-.636.708-5.841,6.549-21l1.2-6.249Z" transform="translate(-145.276 -52.031)" fill="#8dc63f"/>
      <path id="Path_2681" data-name="Path 2681" d="M148.11,479.861a1.859,1.859,0,0,0,.816.792,2.866,2.866,0,0,0,2.939-.408,87.019,87.019,0,0,0,7.652-7.2c2.843-2.987,5.229-5.853,6.909-7.976l1.967-2.519c.18-.252.36-.48.528-.7a1.058,1.058,0,0,1,.2-.228s0,.1-.156.264a5.7,5.7,0,0,0-.492.72c-.432.624-1.079,1.511-1.9,2.579a98.368,98.368,0,0,1-6.873,8.048,75.249,75.249,0,0,1-7.736,7.2,3.6,3.6,0,0,1-1.727.648,2.568,2.568,0,0,1-1.367-.3,1.763,1.763,0,0,1-.648-.6.8.8,0,0,1-.12-.324Z" transform="translate(-145.195 -50.837)" fill="#263238"/>
      <path id="Path_2682" data-name="Path 2682" d="M149.92,471.518a2.483,2.483,0,0,1,1.271-.144,6.586,6.586,0,0,1,2.891,1.008,5.266,5.266,0,0,1,2.1,2.219,2.759,2.759,0,0,1,.336,1.2,7.128,7.128,0,0,0-.5-1.139,5.589,5.589,0,0,0-2.075-2.075,7.386,7.386,0,0,0-2.771-1.056C150.412,471.458,149.932,471.566,149.92,471.518Z" transform="translate(-144.834 -48.899)" fill="#263238"/>
      <path id="Path_2683" data-name="Path 2683" d="M162.145,469.149a1.932,1.932,0,0,1-.192-.444,8.25,8.25,0,0,1-.3-1.283,6.969,6.969,0,0,1,.72-4.27,6.537,6.537,0,0,1,3.107-3.023,5.169,5.169,0,0,1,1.2-.4,1.4,1.4,0,0,1,.492,0,9.817,9.817,0,0,0-1.667.6,6.777,6.777,0,0,0-2.951,2.963,7.317,7.317,0,0,0-.768,4.126C161.977,468.453,162.193,469.137,162.145,469.149Z" transform="translate(-142.51 -51.219)" fill="#263238"/>
      <path id="Path_2684" data-name="Path 2684" d="M166.657,457c.072,0-.276,1.331-.564,3a10.111,10.111,0,0,1-.792,2.951c-.06,0,.24-1.343.528-3.011A10.339,10.339,0,0,1,166.657,457Z" transform="translate(-141.769 -51.76)" fill="#263238"/>
      <path id="Path_2685" data-name="Path 2685" d="M153.87,462.913a3.514,3.514,0,0,1,1.967,0,3.406,3.406,0,0,1,1.775.84c0,.072-.8-.336-1.835-.576S153.87,463.045,153.87,462.913Z" transform="translate(-144.047 -50.609)" fill="#263238"/>
      <path id="Path_2686" data-name="Path 2686" d="M153.6,464.26a3.109,3.109,0,0,1,3.119.744,7.555,7.555,0,0,0-1.523-.54C154.332,464.26,153.612,464.344,153.6,464.26Z" transform="translate(-144.101 -50.348)" fill="#263238"/>
      <path id="Path_2687" data-name="Path 2687" d="M152.58,465.962a2.075,2.075,0,0,1,1.715-.216,2.123,2.123,0,0,1,1.463.936,9.044,9.044,0,0,0-1.475-.612A8.167,8.167,0,0,0,152.58,465.962Z" transform="translate(-144.304 -50.035)" fill="#263238"/>
      <path id="Path_2688" data-name="Path 2688" d="M154.75,462.977a18.851,18.851,0,0,0,1.8-.624,14.12,14.12,0,0,0,1.859-.888c.336-.192.672-.408,1.02-.648a1.232,1.232,0,0,0,.636-.936c-.012-.36-.456-.564-.816-.48a2.17,2.17,0,0,0-.948.636c-.564.528-1.044,1.044-1.439,1.475-.78.888-1.2,1.475-1.2,1.439a2.841,2.841,0,0,1,.264-.444c.192-.276.468-.66.852-1.115a15.436,15.436,0,0,1,1.4-1.535,2.4,2.4,0,0,1,1.067-.72.911.911,0,0,1,1.2.72,1.571,1.571,0,0,1-.768,1.2,11.618,11.618,0,0,1-1.055.66,12.569,12.569,0,0,1-1.907.852,12.379,12.379,0,0,1-1.355.372,2.089,2.089,0,0,1-.612.036Z" transform="translate(-143.871 -51.344)" fill="#263238"/>
      <path id="Path_2689" data-name="Path 2689" d="M155.9,463.007a16.912,16.912,0,0,1-.276-1.715,7.544,7.544,0,0,0-.528-1.787,3.814,3.814,0,0,0-.576-.9c-.228-.264-.588-.492-.876-.324s-.324.588-.288.936a4.677,4.677,0,0,0,.3,1.031,6,6,0,0,0,1.008,1.547c.708.792,1.271,1.2,1.2,1.2a1.74,1.74,0,0,1-.408-.24,8.948,8.948,0,0,1-.972-.84,5.721,5.721,0,0,1-1.091-1.583,3.874,3.874,0,0,1-.336-1.091,1.2,1.2,0,0,1,.42-1.2,1.008,1.008,0,0,1,1.2.384,3.6,3.6,0,0,1,.6.984,6.441,6.441,0,0,1,.492,1.847c.06.54.084.972.1,1.271A1.428,1.428,0,0,1,155.9,463.007Z" transform="translate(-144.215 -51.566)" fill="#263238"/>
      <g id="Group_220" data-name="Group 220" transform="translate(2.457 408.49)" opacity="0.4">
        <path id="Path_2690" data-name="Path 2690" d="M168.912,464.22l1.079-4.51s-3.766.7-4.738,3.514a11.8,11.8,0,0,0-.744,4.8l-8.18,8.828s-2.051-4.006-5.769-3.047c0,0-2.927,6.441-2.831,8.048s1.967,1.415,2.627,1.115a32.854,32.854,0,0,0,7.328-5.781C162.016,472.688,166.813,466.991,168.912,464.22Z" transform="translate(-147.728 -459.71)"/>
      </g>
      <path id="Path_2691" data-name="Path 2691" d="M232.519,462.8l.072-12.522L209.13,450l-.3,18.315,1.451.108c6.477.444,32.924,1.775,37.278.516C252.393,467.535,232.519,462.8,232.519,462.8Z" transform="translate(-133.086 -53.156)" fill="#8dc63f"/>
      <g id="Group_221" data-name="Group 221" transform="translate(75.78 408.26)" opacity="0.4">
        <path id="Path_2692" data-name="Path 2692" d="M217.34,466.333A8.18,8.18,0,0,0,214.4,461.3a7.88,7.88,0,0,0-5.457-1.763l-.084,6.549Z" transform="translate(-208.86 -459.518)"/>
      </g>
      <g id="Group_222" data-name="Group 222" transform="translate(75.744 412.305)" opacity="0.4">
        <path id="Path_2693" data-name="Path 2693" d="M242.234,462.89s6.957,2.1,6.069,3.238-27.671.8-39.473-.384v-.516l31.185.66S240.867,462.938,242.234,462.89Z" transform="translate(-208.83 -462.89)"/>
      </g>
      <path id="Path_2694" data-name="Path 2694" d="M208.56,464.82h.408l1.2.084,4.27.24c3.6.168,8.576.348,14.069.42s10.483,0,14.081,0l4.27-.132h1.2a3.332,3.332,0,0,0,.4,0,1.474,1.474,0,0,0-.408,0H228.494c-5.505,0-10.471-.228-14.069-.348l-4.258-.144h-1.2Z" transform="translate(-133.14 -50.201)" fill="#263238"/>
      <path id="Path_2695" data-name="Path 2695" d="M234.91,466.294a8.986,8.986,0,0,1,.816-2.027,9.2,9.2,0,0,1,1.475-1.607,3.778,3.778,0,0,0-2.291,3.6Z" transform="translate(-127.886 -50.631)" fill="#263238"/>
      <path id="Path_2696" data-name="Path 2696" d="M229.17,463.011a2.984,2.984,0,0,0,.756-.888,2.688,2.688,0,0,0,.516-1.044,2.808,2.808,0,0,0-.756.888A2.6,2.6,0,0,0,229.17,463.011Z" transform="translate(-129.03 -50.946)" fill="#263238"/>
      <path id="Path_2697" data-name="Path 2697" d="M227.6,462.047c0,.06.42-.18.828-.54s.708-.7.648-.756-.42.192-.828.54S227.553,461.987,227.6,462.047Z" transform="translate(-129.344 -51.014)" fill="#263238"/>
      <path id="Path_2698" data-name="Path 2698" d="M226.62,460.021a2.772,2.772,0,0,0,1.2.18,2.663,2.663,0,0,0,1.2-.12,2.746,2.746,0,0,0-1.2-.168A3.024,3.024,0,0,0,226.62,460.021Z" transform="translate(-129.539 -51.183)" fill="#263238"/>
      <path id="Path_2699" data-name="Path 2699" d="M226.29,458.67a3.521,3.521,0,0,0,2.783.24,7.873,7.873,0,0,0-1.391-.108,6.327,6.327,0,0,0-1.391-.132Z" transform="translate(-129.604 -51.427)" fill="#263238"/>
      <path id="Path_2700" data-name="Path 2700" d="M229.86,461.343a4.246,4.246,0,0,0,1.5,0,8.874,8.874,0,0,0,1.619-.336,4.289,4.289,0,0,0,.924-.36.828.828,0,0,0,.372-.468.564.564,0,0,0-.216-.6,2.771,2.771,0,0,0-3.43.756,2.687,2.687,0,0,0-.5,1.008.828.828,0,0,0,0,.408,4.234,4.234,0,0,1,.708-1.283,2.651,2.651,0,0,1,1.3-.816,2.291,2.291,0,0,1,1.8.144c.228.18.132.456-.132.612a4.383,4.383,0,0,1-.852.348,11.451,11.451,0,0,1-1.559.4A8.518,8.518,0,0,1,229.86,461.343Z" transform="translate(-128.892 -51.305)" fill="#263238"/>
      <path id="Path_2701" data-name="Path 2701" d="M230.494,461.549a1.488,1.488,0,0,0,.192-1.044,2.567,2.567,0,0,0-.4-1.1,1.523,1.523,0,0,0-1.2-.792.624.624,0,0,0-.48.7,1.608,1.608,0,0,0,.252.672,4.631,4.631,0,0,0,.7.923,2.194,2.194,0,0,0,.864.624,9.339,9.339,0,0,1-.708-.756,5.229,5.229,0,0,1-.624-.912c-.2-.324-.336-.9,0-.96s.756.348.984.648a2.4,2.4,0,0,1,.408.984,5.289,5.289,0,0,1,.012,1.02Z" transform="translate(-129.143 -51.439)" fill="#263238"/>
      <path id="Path_2702" data-name="Path 2702" d="M209,459.493s.672,0,1.727.084a7.328,7.328,0,0,1,6.081,4.978c.348,1.007.372,1.691.432,1.679a1.57,1.57,0,0,0,0-.468,5.422,5.422,0,0,0-.24-1.271,7.2,7.2,0,0,0-2.327-3.526,7.112,7.112,0,0,0-3.922-1.583,6.407,6.407,0,0,0-1.3,0A1.463,1.463,0,0,0,209,459.493Z" transform="translate(-133.052 -51.291)" fill="#263238"/>
      <path id="Path_2703" data-name="Path 2703" d="M211.216,451.36a40.648,40.648,0,0,0-.264,4.8,38.38,38.38,0,0,0,0,4.8,44.37,44.37,0,0,0,.264-4.8A40.9,40.9,0,0,0,211.216,451.36Z" transform="translate(-132.678 -52.885)" fill="#263238"/>
      <path id="Path_2704" data-name="Path 2704" d="M218.41,463.333a13.189,13.189,0,0,0,3.418.384,13.469,13.469,0,0,0,3.442-.228c0-.084-1.547,0-3.43,0S218.422,463.249,218.41,463.333Z" transform="translate(-131.176 -50.501)" fill="#263238"/>
      <path id="Path_2705" data-name="Path 2705" d="M214.582,463.271c-.06.06.12.336.276.684s.228.672.312.66.12-.36,0-.768S214.63,463.223,214.582,463.271Z" transform="translate(-131.942 -50.511)" fill="#263238"/>
      <path id="Path_2706" data-name="Path 2706" d="M213.16,461.462a1.469,1.469,0,0,0,.324.552c.24.252.48.408.54.348s-.1-.3-.336-.552S213.208,461.4,213.16,461.462Z" transform="translate(-132.223 -50.873)" fill="#263238"/>
      <path id="Path_2707" data-name="Path 2707" d="M211.1,460.631c0,.084.324.084.672.2s.588.312.648.264-.132-.384-.552-.528S211.076,460.559,211.1,460.631Z" transform="translate(-132.634 -51.061)" fill="#263238"/>
      <path id="Path_2708" data-name="Path 2708" d="M209.63,460.21c0,.072.108.2.3.276s.372.084.408,0-.108-.192-.3-.276S209.666,460.138,209.63,460.21Z" transform="translate(-132.927 -51.132)" fill="#263238"/>
      <path id="Path_2709" data-name="Path 2709" d="M260.981,259.29l-9.008,235.123-36.535.768,6.069-203.734L180.415,496.74H145.68l44.751-236.983Z" transform="translate(-145.68 -91.188)" fill="#263238"/>
      <path id="Path_2710" data-name="Path 2710" d="M217.424,266.42a24.654,24.654,0,0,1-.42,3.874c-.348,2.4-.852,5.661-1.463,9.284a38.239,38.239,0,0,1-1.044,5.1,7.2,7.2,0,0,1-2.4,3.6,5.637,5.637,0,0,1-2.651,1.2,2.135,2.135,0,0,1-1.067,0,6.573,6.573,0,0,0,5.541-4.942,45.664,45.664,0,0,0,.972-5.026c.612-3.6,1.2-6.9,1.643-9.248a23.473,23.473,0,0,1,.888-3.838Z" transform="translate(-133.176 -89.767)" fill="#455a64"/>
      <path id="Path_2711" data-name="Path 2711" d="M209.657,267.462c.084.06-.216.432,0,1.056a1.2,1.2,0,0,0,.612.78.984.984,0,0,0,1.091-.216,1.02,1.02,0,0,0,.36-1.044,1.2,1.2,0,0,0-.708-.708c-.588-.252-1.007,0-1.055-.1s.336-.528,1.2-.336a1.607,1.607,0,0,1,1.115.936,1.655,1.655,0,0,1-2.279,1.991,1.631,1.631,0,0,1-.78-1.2C209.081,267.726,209.633,267.378,209.657,267.462Z" transform="translate(-133.014 -89.681)" fill="#455a64"/>
      <path id="Path_2712" data-name="Path 2712" d="M193.306,271.235a6.885,6.885,0,0,1,.7-6.525c.18.084-.348,1.463-.528,3.25S193.5,271.2,193.306,271.235Z" transform="translate(-136.285 -90.108)" fill="#455a64"/>
      <path id="Path_2713" data-name="Path 2713" d="M196.99,271.051a5.649,5.649,0,0,1-.528-3.454,5.709,5.709,0,0,1,1-3.346,30.083,30.083,0,0,1-.36,3.394,30.974,30.974,0,0,1-.108,3.406Z" transform="translate(-135.568 -90.199)" fill="#455a64"/>
      <path id="Path_2714" data-name="Path 2714" d="M228.371,271.895a20.921,20.921,0,0,1,.2-3.526,22.521,22.521,0,0,1,.156-3.538,6.62,6.62,0,0,1,.492,3.6,6.861,6.861,0,0,1-.852,3.466Z" transform="translate(-129.191 -90.084)" fill="#455a64"/>
      <path id="Path_2715" data-name="Path 2715" d="M232.356,271.7c-.18-.072.384-1.607.516-3.6s-.2-3.6,0-3.6a5.769,5.769,0,0,1,.672,3.67,5.829,5.829,0,0,1-1.188,3.527Z" transform="translate(-128.402 -90.149)" fill="#455a64"/>
      <path id="Path_2716" data-name="Path 2716" d="M199.972,187.54l22.549-1.8c.144-2.639,0-12.822,0-12.822s9.392-1.463,9.5-10.795-1.511-30.933-1.511-30.933h0a32.6,32.6,0,0,0-32.768,4.126l-1.391,1.068Z" transform="translate(-135.575 -117.263)" fill="#ffbe9d"/>
      <path id="Path_2717" data-name="Path 2717" d="M220.184,166a21.758,21.758,0,0,1-12.234-3.466s2.891,6.753,12.246,5.9Z" transform="translate(-133.262 -110.485)" fill="#eb996e"/>
      <path id="Path_2718" data-name="Path 2718" d="M198.32,143.189c-.156-.072-6.453-1.907-6.249,4.51s6.609,4.882,6.609,4.7S198.32,143.189,198.32,143.189Z" transform="translate(-136.429 -114.401)" fill="#ffbe9d"/>
      <path id="Path_2719" data-name="Path 2719" d="M196.38,149.689s-.12.072-.3.168a1.128,1.128,0,0,1-.84,0,2.783,2.783,0,0,1-1.355-2.4,3.694,3.694,0,0,1,.264-1.607,1.271,1.271,0,0,1,.816-.888.564.564,0,0,1,.66.288c.1.18.06.312.1.312s.132-.108.072-.372a.7.7,0,0,0-.264-.4.888.888,0,0,0-.624-.144,1.619,1.619,0,0,0-1.139,1.031,3.826,3.826,0,0,0-.324,1.8,2.9,2.9,0,0,0,1.715,2.723,1.2,1.2,0,0,0,1.02-.2A.4.4,0,0,0,196.38,149.689Z" transform="translate(-136.157 -114.052)" fill="#eb996e"/>
      <path id="Path_2720" data-name="Path 2720" d="M222.675,142.95a1.343,1.343,0,0,1-1.3,1.355,1.283,1.283,0,0,1-1.379-1.2,1.343,1.343,0,0,1,1.3-1.355,1.283,1.283,0,0,1,1.379,1.2Z" transform="translate(-130.859 -114.63)" fill="#263238"/>
      <path id="Path_2721" data-name="Path 2721" d="M224.2,141.955c-.168.168-1.2-.576-2.615-.576s-2.507.72-2.663.552.1-.4.552-.732a3.731,3.731,0,0,1,2.135-.66,3.6,3.6,0,0,1,2.087.672C224.135,141.559,224.279,141.871,224.2,141.955Z" transform="translate(-131.084 -114.87)" fill="#263238"/>
      <path id="Path_2722" data-name="Path 2722" d="M210.625,143.032a1.331,1.331,0,0,1-1.3,1.391,1.283,1.283,0,0,1-1.379-1.2,1.343,1.343,0,0,1,1.3-1.343A1.283,1.283,0,0,1,210.625,143.032Z" transform="translate(-133.262 -114.604)" fill="#263238"/>
      <path id="Path_2723" data-name="Path 2723" d="M212.385,142.173c-.168.18-1.2-.576-2.627-.576s-2.495.732-2.651.552.084-.4.552-.732a3.6,3.6,0,0,1,2.123-.648,3.5,3.5,0,0,1,2.087.672C212.313,141.778,212.457,142.1,212.385,142.173Z" transform="translate(-133.439 -114.824)" fill="#263238"/>
      <path id="Path_2724" data-name="Path 2724" d="M215.962,152.858a9.366,9.366,0,0,1,2.339-.432c.372,0,.72-.108.78-.36a1.979,1.979,0,0,0-.24-1.091l-1.091-2.807a47.18,47.18,0,0,1-2.4-7.328,50.219,50.219,0,0,1,3.035,7.125l1.043,2.819a2.135,2.135,0,0,1,.18,1.439.888.888,0,0,1-.6.54,2.554,2.554,0,0,1-.624.084,9.992,9.992,0,0,1-2.423.012Z" transform="translate(-131.786 -114.81)" fill="#263238"/>
      <path id="Path_2725" data-name="Path 2725" d="M212.357,151.69c.24,0,.24,1.547,1.583,2.663s3,.936,3.011,1.2-.372.312-1.067.324a3.9,3.9,0,0,1-2.531-.876,3.37,3.37,0,0,1-1.2-2.231C212.081,152.062,212.249,151.678,212.357,151.69Z" transform="translate(-132.427 -112.647)" fill="#263238"/>
      <path id="Path_2726" data-name="Path 2726" d="M212.9,137.41c-.144.4-1.583.2-3.274.408s-3.059.672-3.286.312c-.1-.168.132-.528.684-.912a5.421,5.421,0,0,1,2.4-.852,5.517,5.517,0,0,1,2.567.3C212.653,136.918,212.964,137.218,212.9,137.41Z" transform="translate(-133.586 -115.71)" fill="#263238"/>
      <path id="Path_2727" data-name="Path 2727" d="M223.68,138.484c-.252.324-1.2,0-2.4,0s-2.207.228-2.4-.12,0-.492.5-.8a3.526,3.526,0,0,1,3.934.12C223.656,137.98,223.836,138.316,223.68,138.484Z" transform="translate(-131.096 -115.573)" fill="#263238"/>
      <path id="Path_2728" data-name="Path 2728" d="M235.6,127.093A3.443,3.443,0,0,0,234.326,124a2.471,2.471,0,0,0-3.19.24,2.867,2.867,0,0,0-2.4-3.478c-1.535-.1-2.831,1.067-4.318,1.463a6.933,6.933,0,0,1-4.378-.5c-1.391-.552-2.687-1.331-4.09-1.847a11.994,11.994,0,0,0-15.353,7.053,5.313,5.313,0,0,0-5.649,2.135,8.756,8.756,0,0,0-1.331,6.153,19.527,19.527,0,0,0,1.067,4.21q0,.18,0,.36c.108,5.17.684,11.227,2.891,11.263,3.838,0,2.915-7.2,2.915-7.2,4.714-1.823,2.963-8.876,4.138-9.943s3.6-3.6,13.494,1.475a19.191,19.191,0,0,0,11.694,1.271h.336a8.72,8.72,0,0,0,2.531-1.08,5,5,0,0,0,2.087-2.315,2.771,2.771,0,0,0-.54-2.939A5.925,5.925,0,0,0,235.6,127.093Z" transform="translate(-136.141 -119.138)" fill="#263238"/>
      <path id="Path_2729" data-name="Path 2729" d="M216,143.8a10.429,10.429,0,0,0-.3-1.391,5.733,5.733,0,0,0-2.135-3.059,5.553,5.553,0,1,0,0,8.9,5.818,5.818,0,0,0,2.135-3.059c.252-.876.24-1.391.3-1.391s0,.12,0,.372a4.472,4.472,0,0,1-.108,1.079,5.793,5.793,0,0,1-2.1,3.346,6,6,0,0,1-5.745.936,6.081,6.081,0,1,1,5.745-10.543,5.817,5.817,0,0,1,2.1,3.358A4.425,4.425,0,0,1,216,143.43Z" transform="translate(-134.052 -115.433)" fill="#263238"/>
      <path id="Path_2730" data-name="Path 2730" d="M228.994,143.8a4.79,4.79,0,0,0-.3-1.391,5.769,5.769,0,0,0-2.123-3.059,5.553,5.553,0,1,0,0,8.9,5.853,5.853,0,0,0,2.123-3.059c.252-.876.24-1.391.3-1.391s0,.12,0,.372a4.475,4.475,0,0,1-.108,1.079,5.793,5.793,0,0,1-2.1,3.346,6,6,0,0,1-5.733.936,6.081,6.081,0,0,1,0-11.466,6,6,0,0,1,5.733.924,5.817,5.817,0,0,1,2.1,3.358,4.426,4.426,0,0,1,.108,1.08C228.994,143.67,228.994,143.8,228.994,143.8Z" transform="translate(-131.457 -115.434)" fill="#263238"/>
      <path id="Path_2731" data-name="Path 2731" d="M218.4,142.6c-.072.168-1.043-.12-2.255-.06s-2.159.4-2.243.24.852-.816,2.219-.864S218.483,142.46,218.4,142.6Z" transform="translate(-132.076 -114.595)" fill="#263238"/>
      <path id="Path_2732" data-name="Path 2732" d="M205.586,142.472a14.034,14.034,0,0,1-4.09.54,14.178,14.178,0,0,1-4.126-.084,13.469,13.469,0,0,1,4.09-.54A14.261,14.261,0,0,1,205.586,142.472Z" transform="translate(-135.372 -114.524)" fill="#263238"/>
      <path id="Path_2733" data-name="Path 2733" d="M254.907,213.587l7.448,13.422,4.546-36.5a14.622,14.622,0,0,0-1.511-7.664,15.206,15.206,0,0,0-1.847-2.975,16.132,16.132,0,0,0-3.178-2.987,1.331,1.331,0,0,1,.24-2.507c1.2-.132,4.438,1.607,6.993,5.11s2.819-3.238,2.963-5.685.936-9.979,1.715-10.519c1.2-.78,2.231.336,2.039,2.783s-.288,9.8,1.008,9.847,1.823-12.426,1.823-12.426-.312-2.7,1.2-2.687c2.687,0,1.127,13.194.948,14.393-.12.864,1.283.972,1.367,0s.264-12.45,3-12.474c2.111,0-1.2,10.867.1,13.3s1.655-8.528,3.67-8.456c.744,0,1.307.144.192,6.381-.6,3.358-2.819,8.192-3.49,14.741l-.18,1.691c-.132,8.156-1.931,32.732-9.344,51.443a15.161,15.161,0,0,1-26.675,2.7c-4.558-6.873-11.766-24.84-11.766-24.84Z" transform="translate(-127.636 -110.83)" fill="#ffbe9d"/>
      <path id="Path_2734" data-name="Path 2734" d="M274.381,181.8a6.788,6.788,0,0,0-1.067.276,3.874,3.874,0,0,0-2.075,1.715l-.252.456-.144-.5a6.332,6.332,0,0,0-1-1.991,7.281,7.281,0,0,0-3.442-2.543c-1.056-.372-1.775-.348-1.775-.444a3.514,3.514,0,0,1,1.871.132,6.837,6.837,0,0,1,3.73,2.567,6.2,6.2,0,0,1,1.031,2.147h-.4a3.766,3.766,0,0,1,2.4-1.751A1.811,1.811,0,0,1,274.381,181.8Z" transform="translate(-121.958 -107.262)" fill="#eb996e"/>
      <path id="Path_2735" data-name="Path 2735" d="M241.192,182.6l21.17,40.061,3.6-35.419h18.963l-6.969,50.484a14.813,14.813,0,0,1-9.991,12.282h0c-6.885,2.315-16.036-.384-19.431-6.8l-12.4-21.11Z" transform="translate(-127.642 -106.482)" fill="#8dc63f"/>
      <path id="Path_2736" data-name="Path 2736" d="M259.632,232.706a7.471,7.471,0,0,1-1.415-2.255,18.675,18.675,0,0,1-1.2-12.618A7.868,7.868,0,0,1,258,215.35a23.352,23.352,0,0,0,1.607,17.356Z" transform="translate(-123.594 -99.951)" fill="#263238"/>
      <g id="Group_223" data-name="Group 223" transform="translate(130.068 114.835)" opacity="0.3">
        <path id="Path_2737" data-name="Path 2737" d="M258.174,214.88a8.96,8.96,0,0,0-3.694,5.733,21.3,21.3,0,0,0-.132,6.981,4.114,4.114,0,0,0,.528,1.919,1.475,1.475,0,0,0,1.727.648,1.535,1.535,0,0,0,.768-1.415A5.624,5.624,0,0,0,257,227.1a13.986,13.986,0,0,1,1.739-11.8" transform="translate(-254.122 -214.88)"/>
      </g>
      <path id="Path_2738" data-name="Path 2738" d="M195.876,175.1c3.167-.6,6.237-1.751,9.955-1.907h0a39.845,39.845,0,0,0,23.989,0c.984.132,2.4.252,4.042.456,10.447,1.2,14.453,3.442,21.962,10.795L255,226.72s2.519,48.121,2.4,55.893H186l-.108-32.6v-8.876l-23.437,8.588,2.135-12.33s10.507-40.924,12.162-46.442C178.7,184.261,185.9,177,195.876,175.1Z" transform="translate(-142.334 -108.359)" fill="#8dc63f"/>
      <path id="Path_2739" data-name="Path 2739" d="M173.219,228.742l34.268-8.912,9.8,15.94-34.9,14.693a14.033,14.033,0,0,1-5.805,1.2h0a14.141,14.141,0,0,1-13.062-8.756l-1.055-2.591Z" transform="translate(-142.334 -99.058)" fill="#8dc63f"/>
      <path id="Path_2740" data-name="Path 2740" d="M186.372,229.033c-.168,0-.312-6.3-.312-14.057s.144-14.045.312-14.045.324,6.285.324,14.045S186.552,229.033,186.372,229.033Z" transform="translate(-137.627 -102.827)" fill="#263238"/>
      <g id="Group_224" data-name="Group 224" transform="translate(43.311 132.346)" opacity="0.3">
        <path id="Path_2741" data-name="Path 2741" d="M181.79,247.28a11.91,11.91,0,0,0,4.57,4.258c4.282,2.315,9.6,2.255,14.189.744a40.589,40.589,0,0,0,12.486-7.388,104.838,104.838,0,0,0,13.889-13.506,1.475,1.475,0,0,0,.5-1.139c-.12-.744-1.2-.84-1.9-.732-7.1,1.127-13.577,4.57-20.054,7.7q-11.55,5.589-23.629,10.051" transform="translate(-181.79 -229.479)"/>
      </g>
      <path id="Path_2742" data-name="Path 2742" d="M247.927,210.145a1.621,1.621,0,0,1-.132.324l-.444.924c-.2.4-.5.864-.84,1.427a19.724,19.724,0,0,1-1.379,1.811,20.5,20.5,0,0,1-4.7,4.078,21.386,21.386,0,0,1-7.664,3,20.534,20.534,0,0,1-9.943-.684,23.557,23.557,0,0,1-9.7-6.069,22.441,22.441,0,0,1-6-11.131,17.512,17.512,0,0,1-.06-6.753,14.909,14.909,0,0,1,2.9-6.321,12.222,12.222,0,0,1,5.661-4.054,7.689,7.689,0,0,1,3.454-.36,5.578,5.578,0,0,1,3.107,1.5,4.426,4.426,0,0,1,1.367,3.119,5.77,5.77,0,0,1-.972,3.178,8.516,8.516,0,0,1-5.289,3.322,23.914,23.914,0,0,1-28.21-16.588,18.148,18.148,0,0,1-.864-5.217,1.764,1.764,0,0,1,.06.336l.144,1.008a25.735,25.735,0,0,0,.9,3.8,24.349,24.349,0,0,0,7.964,11.622,23.808,23.808,0,0,0,8.78,4.33,23.545,23.545,0,0,0,11.179.18,8.024,8.024,0,0,0,4.93-3.095,5.109,5.109,0,0,0,.864-2.843,3.73,3.73,0,0,0-1.2-2.687,4.942,4.942,0,0,0-2.771-1.331,7.053,7.053,0,0,0-3.178.336,11.742,11.742,0,0,0-5.361,3.85,14.393,14.393,0,0,0-2.783,6.057,16.984,16.984,0,0,0,0,6.513,21.961,21.961,0,0,0,5.757,10.855,23.329,23.329,0,0,0,9.452,6,20.246,20.246,0,0,0,9.715.744,21.325,21.325,0,0,0,7.556-2.867,21.1,21.1,0,0,0,4.7-3.934,23.7,23.7,0,0,0,3-4.378Z" transform="translate(-137.196 -107.868)" fill="#e0e0e0"/>
      <path id="Path_2743" data-name="Path 2743" d="M251.181,248.59a21.683,21.683,0,0,0-1.955-4.342,14.933,14.933,0,0,0-10.4-6.981,20.5,20.5,0,0,0-8.84.408,24.613,24.613,0,0,0-4.654,1.727,17.346,17.346,0,0,0-4.342,2.915,7.952,7.952,0,0,0-2.495,4.678,4.8,4.8,0,0,0,2.051,4.8,3.6,3.6,0,0,0,5.026-.768,13.35,13.35,0,0,0,2.4-5.553,21.938,21.938,0,0,0-.792-11.934,22.273,22.273,0,0,0-6.189-9.307,25.56,25.56,0,0,0-8.792-5.146,25.908,25.908,0,0,0-21.206,1.847c-1.355.732-2.339,1.4-3.023,1.847l-.756.516-.276.168a23.375,23.375,0,0,1,3.934-2.747,25.619,25.619,0,0,1,12.534-3.514,26.485,26.485,0,0,1,8.96,1.391,25.836,25.836,0,0,1,9.008,5.206,23.028,23.028,0,0,1,6.393,9.535,22.6,22.6,0,0,1,.816,12.282,14,14,0,0,1-2.495,5.817,4.246,4.246,0,0,1-5.829.876,4.977,4.977,0,0,1-1.967-2.4,6,6,0,0,1-.348-2.987,8.4,8.4,0,0,1,2.651-5.014,17.992,17.992,0,0,1,4.486-3,25.188,25.188,0,0,1,4.8-1.739,21.242,21.242,0,0,1,9.056-.348,15.161,15.161,0,0,1,10.531,7.293,15.869,15.869,0,0,1,1.439,3.262,8.861,8.861,0,0,1,.24.9A1.2,1.2,0,0,1,251.181,248.59Z" transform="translate(-137.452 -99.583)" fill="#e0e0e0"/>
      <path id="Path_2744" data-name="Path 2744" d="M189.765,209.861a5.261,5.261,0,0,1-.6.756,14.552,14.552,0,0,1-1.871,1.811,17.572,17.572,0,0,1-3.274,2.075,19.346,19.346,0,0,1-4.51,1.535,23.893,23.893,0,0,1-8.588,0,25.284,25.284,0,0,1-2.543-.576c-.588-.18-.912-.288-.9-.336s1.343.2,3.5.468a26.916,26.916,0,0,0,8.4-.2,20.832,20.832,0,0,0,4.378-1.439,19.541,19.541,0,0,0,3.262-1.919C188.746,210.772,189.693,209.789,189.765,209.861Z" transform="translate(-141.333 -101.047)" fill="#e0e0e0"/>
      <path id="Path_2745" data-name="Path 2745" d="M184.164,246.369a21.591,21.591,0,0,0-1.319-3.73,11.73,11.73,0,0,0-16.072-5.229,22.01,22.01,0,0,0-3.262,2.231,2.914,2.914,0,0,1,.684-.84,10.543,10.543,0,0,1,2.4-1.787,11.8,11.8,0,0,1,16.7,5.433,10.794,10.794,0,0,1,.864,2.831A3.07,3.07,0,0,1,184.164,246.369Z" transform="translate(-142.124 -95.947)" fill="#e0e0e0"/>
      <path id="Path_2746" data-name="Path 2746" d="M243.9,232.575a4.185,4.185,0,0,1-.324-1.2,21.192,21.192,0,0,1-.444-3.274,26.737,26.737,0,0,1,.12-4.918,28.556,28.556,0,0,1,1.379-5.877,28.045,28.045,0,0,1,2.663-5.409,25.8,25.8,0,0,1,3.023-3.886,22.792,22.792,0,0,1,2.4-2.255,4.558,4.558,0,0,1,.983-.7c.084.1-1.271,1.2-3.083,3.25a29.759,29.759,0,0,0-2.867,3.886,28.27,28.27,0,0,0-3.946,11.059,29.181,29.181,0,0,0-.252,4.8C243.658,230.908,244.018,232.575,243.9,232.575Z" transform="translate(-126.258 -102.003)" fill="#e0e0e0"/>
      <path id="Path_2747" data-name="Path 2747" d="M276.42,209.982a3.772,3.772,0,0,1-.66.708,8.083,8.083,0,0,1-2.3,1.331,10.315,10.315,0,0,1-8.54-.66,8.731,8.731,0,0,1-3.406-3.43,12.485,12.485,0,0,1-1.319-3.706,15.722,15.722,0,0,1-.324-2.6,2.4,2.4,0,0,1,0-.972c.108,0,.192,1.367.708,3.478a14.034,14.034,0,0,0,1.391,3.514,8.516,8.516,0,0,0,3.214,3.178,10.3,10.3,0,0,0,8.1.78,14.621,14.621,0,0,0,3.142-1.619Z" transform="translate(-122.918 -102.883)" fill="#e0e0e0"/>
      <path id="Path_2748" data-name="Path 2748" d="M244.483,187.158a2.735,2.735,0,0,1-.864.552,9.26,9.26,0,0,1-2.651.852,10.8,10.8,0,0,1-4.126-.132,12.882,12.882,0,0,1-4.606-2.1,12.15,12.15,0,0,1-4.8-7.652,10.663,10.663,0,0,1-.144-2.771,3.1,3.1,0,0,1,.192-1.008,25.8,25.8,0,0,0,.384,3.682,12.462,12.462,0,0,0,4.714,7.2,12.894,12.894,0,0,0,4.378,2.039,11.072,11.072,0,0,0,3.934.252,20.392,20.392,0,0,0,3.586-.912Z" transform="translate(-129.41 -108.018)" fill="#e0e0e0"/>
      <path id="Path_2749" data-name="Path 2749" d="M215.808,267.031a57.82,57.82,0,0,0-3.119-5.062,31,31,0,0,0-10.735-9.235,32.783,32.783,0,0,0-7.352-2.747,27.972,27.972,0,0,0-6.369-.732,56.366,56.366,0,0,0-5.913.54,6.62,6.62,0,0,1,1.547-.444,24.289,24.289,0,0,1,4.366-.54,26.612,26.612,0,0,1,6.5.612,31.674,31.674,0,0,1,7.508,2.759,29.6,29.6,0,0,1,10.795,9.535,27.138,27.138,0,0,1,2.183,3.8,6.453,6.453,0,0,1,.588,1.511Z" transform="translate(-138.373 -93.28)" fill="#e0e0e0"/>
      <path id="Path_2750" data-name="Path 2750" d="M238.854,197.92c.168,0,1.2,17.68,2.291,39.509s1.847,39.521,1.667,39.581-1.2-17.68-2.291-39.509S238.674,197.932,238.854,197.92Z" transform="translate(-127.104 -103.427)" fill="#263238"/>
      <path id="Path_2751" data-name="Path 2751" d="M200,222.192a14.706,14.706,0,0,0,5.877-5.254,15.593,15.593,0,0,0,1.631-3.13,16.636,16.636,0,0,0,.948-4.282c0-1.355,1.571-2.063,2.3-1.092s.876,4.678-.84,8.684,4.258.792,6.453-.348,9.14-4.33,10-3.922c1.271.6.852,2.111-1.367,3.19s-8.636,4.8-8.012,6,11.706-4.8,11.706-4.8,2.183-1.655,2.939-.36c1.379,2.4-10.795,7.76-11.994,8.252-.816.336-.18,1.607.684,1.2s10.927-6.189,12.354-3.814c1.1,1.811-10.015,4.558-11.479,6.921s8.24-2.951,9.224-1.2c.36.672.54,1.2-5.445,3.454-3.214,1.2-8.54,1.775-14.561,4.558l-1.571.708" transform="translate(-134.847 -101.42)" fill="#ffbe9d"/>
      <path id="Path_2752" data-name="Path 2752" d="M180.962,249.957a3.509,3.509,0,0,1,.648-.336l1.883-.852,7.053-3.071L214.4,235.54l-.144.456-3.191-5.11-6.789-10.795.348.12-20.294,6.429-5.877,1.823-1.583.456-.552.132a1.943,1.943,0,0,1,.528-.228l1.547-.552,5.817-1.979,20.2-6.681.228-.072.12.192,6.813,10.795,3.19,5.11.192.3-.336.144-23.989,9.967-7.125,2.891-1.931.756A3.887,3.887,0,0,1,180.962,249.957Z" transform="translate(-139.57 -99.116)" fill="#263238"/>
      <path id="Path_2753" data-name="Path 2753" d="M179.52,222.2a7.64,7.64,0,0,1,8.084,2.171,27.106,27.106,0,0,0-3.886-1.691,28.281,28.281,0,0,0-4.2-.48Z" transform="translate(-138.931 -98.661)" fill="#263238"/>
    </g>
    <g id="freepik--magnifying-glass--inject-60" transform="translate(328.519 95.121)">
      <path id="Path_2754" data-name="Path 2754" d="M571.8,485.869l-101.328-176.7a117.436,117.436,0,0,0,45.95-66.664c15.8-61.171-20.042-124.524-80.577-142.492a117.915,117.915,0,0,0-147.05,80.829c-17.7,62.37,18.915,128.015,81.309,145.67a117.364,117.364,0,0,0,76.583-4.258L546.44,500.3a14.573,14.573,0,0,0,19.91,5.553h0a14.585,14.585,0,0,0,5.445-19.982Zm-198.781-168.5a108.56,108.56,0,1,1,133.52-75.78A108.56,108.56,0,0,1,373.015,317.373Z" transform="translate(-284.332 -95.121)" fill="#455a64"/>
      <path id="Path_2755" data-name="Path 2755" d="M333.213,278.894a3.3,3.3,0,0,1-.324-.276l-.888-.864c-.756-.78-1.979-1.847-3.346-3.394a96.756,96.756,0,0,1-10.735-13.889,106.092,106.092,0,0,1-6-10.567,108.876,108.876,0,0,1-5.254-12.894,100.081,100.081,0,0,1-.456-62.85,102.287,102.287,0,0,1,10.879-23.641,98.347,98.347,0,0,1,10.531-14.033c1.355-1.571,2.555-2.663,3.3-3.454l.876-.876c.2-.192.312-.288.324-.276a3.306,3.306,0,0,1-.276.324l-.84.924c-.708.816-1.883,1.919-3.2,3.526a103.819,103.819,0,0,0-10.339,14.105,108.257,108.257,0,0,0-5.721,10.639,111.857,111.857,0,0,0-4.99,12.93,100.56,100.56,0,0,0,.456,62.49,110.353,110.353,0,0,0,5.182,12.858,108.468,108.468,0,0,0,5.877,10.555,103.545,103.545,0,0,0,10.543,13.961c1.343,1.571,2.531,2.663,3.25,3.478.36.384.636.684.852.9a2.88,2.88,0,0,1,.3.324Z" transform="translate(-280.933 -87.79)" fill="#e0e0e0"/>
      <path id="Path_2756" data-name="Path 2756" d="M360.486,116a22.4,22.4,0,0,1-3.178,1.271c-1.979.744-4.678,1.823-7.568,3.214s-5.421,2.831-7.245,3.91a21.134,21.134,0,0,1-2.975,1.691,15.858,15.858,0,0,1,2.747-2.063,61.607,61.607,0,0,1,7.2-4.066,59.771,59.771,0,0,1,7.7-3.071,15.293,15.293,0,0,1,3.322-.888Z" transform="translate(-273.326 -90.957)" fill="#e0e0e0"/>
    </g>
    <g id="freepik--Plant--inject-60" transform="translate(305.843 464.561)">
      <path id="Path_2757" data-name="Path 2757" d="M289,433.846c-2.063,2.951-6.093,1.967-7.952.168s-2.663-4.414-3.37-6.909c-1.643-5.7-3.3-11.682-2.075-17.476a9.679,9.679,0,0,1,2.231-4.8,5.074,5.074,0,0,1,4.8-1.6c2.027.54,3.286,2.519,4.2,4.414a41.715,41.715,0,0,1,4.114,17.871,14.393,14.393,0,0,1-1.955,8.288" transform="translate(-263.481 -403.135)" fill="#8dc63f"/>
      <g id="Group_225" data-name="Group 225" transform="translate(11.696)" opacity="0.2">
        <path id="Path_2758" data-name="Path 2758" d="M289,433.846c-2.063,2.951-6.093,1.967-7.952.168s-2.663-4.414-3.37-6.909c-1.643-5.7-3.3-11.682-2.075-17.476a9.679,9.679,0,0,1,2.231-4.8,5.074,5.074,0,0,1,4.8-1.6c2.027.54,3.286,2.519,4.2,4.414a41.715,41.715,0,0,1,4.114,17.871,14.393,14.393,0,0,1-1.955,8.288" transform="translate(-275.177 -403.135)"/>
      </g>
      <path id="Path_2759" data-name="Path 2759" d="M283.194,441.5a17.908,17.908,0,0,0-11.131-1.355,9.211,9.211,0,0,0-5.493,2.459c-1.379,1.511-1.643,4.174-.06,5.481a5.17,5.17,0,0,0,3.466.876c2.939,0,6.2-.552,8.552,1.2,1.343,1.007,2.231,2.687,3.838,3.19a3.814,3.814,0,0,0,4.174-1.859,6.525,6.525,0,0,0,.468-4.8A7.281,7.281,0,0,0,283.194,441.5Z" transform="translate(-265.426 -395.823)" fill="#8dc63f"/>
      <path id="Path_2760" data-name="Path 2760" d="M291.814,436.5a10.8,10.8,0,0,1-1.727-9.919,19.1,19.1,0,0,1,5.865-8.5,31.546,31.546,0,0,1,10.507-6.189,11.023,11.023,0,0,1,4.714-.8,4.906,4.906,0,0,1,3.958,2.4c1.115,2.1,0,4.654-1.092,6.741a82.119,82.119,0,0,1-6.9,10.507c-2.063,2.663-4.438,5.29-7.58,6.489s-6.429,1.068-8.1-1.115" transform="translate(-260.612 -401.553)" fill="#8dc63f"/>
      <path id="Path_2761" data-name="Path 2761" d="M289.389,470.429a6,6,0,0,1-.192-1.343l-.36-3.658c-.168-1.547-.4-3.382-.816-5.385a43.068,43.068,0,0,0-1.955-6.345,23.662,23.662,0,0,0-3.238-5.733,11.994,11.994,0,0,0-4.1-3.406,11.23,11.23,0,0,0-3.454-1.079,6.343,6.343,0,0,1-1.331-.192,6.238,6.238,0,0,1,1.355,0,10.385,10.385,0,0,1,3.6.936,12.078,12.078,0,0,1,4.33,3.442,22.788,22.788,0,0,1,3.358,5.853,38.487,38.487,0,0,1,1.931,6.453,44.711,44.711,0,0,1,.72,5.445c.12,1.559.156,2.819.18,3.682A6.236,6.236,0,0,1,289.389,470.429Z" transform="translate(-263.728 -395.135)" fill="#263238"/>
      <path id="Path_2762" data-name="Path 2762" d="M287.745,473.633a2.109,2.109,0,0,1,0-.624v-1.775c0-1.547,0-3.79-.072-6.549-.144-5.529-.624-13.194-1.535-21.59s-2.159-15.94-3.274-21.35c-.264-1.355-.528-2.579-.78-3.6s-.444-2-.648-2.747l-.408-1.727a2.029,2.029,0,0,1-.108-.624,5.1,5.1,0,0,1,.216.588c.132.444.3,1.019.516,1.7s.468,1.667.732,2.735.576,2.279.864,3.6a203.362,203.362,0,0,1,3.442,21.374c.924,8.4,1.331,16.06,1.367,21.59,0,2.771,0,5.014-.1,6.561,0,.72-.084,1.319-.108,1.787A2.69,2.69,0,0,1,287.745,473.633Z" transform="translate(-262.336 -401.158)" fill="#263238"/>
      <path id="Path_2763" data-name="Path 2763" d="M286.586,458.13a11.834,11.834,0,0,1,0-1.871c.072-1.2.228-2.927.564-5.038a68.209,68.209,0,0,1,1.643-7.352,66.165,66.165,0,0,1,3.071-8.7,46.633,46.633,0,0,1,9.032-14.057,23.569,23.569,0,0,1,2.123-1.967c.324-.276.612-.552.9-.768l.828-.576a11.387,11.387,0,0,1,1.571-1,54.638,54.638,0,0,0-5.146,4.582,48.842,48.842,0,0,0-8.792,14,69.325,69.325,0,0,0-3.095,8.624,72.925,72.925,0,0,0-1.739,7.269c-.4,2.1-.612,3.814-.744,5A12.06,12.06,0,0,1,286.586,458.13Z" transform="translate(-261.214 -400.408)" fill="#263238"/>
    </g>
  </g>
</svg>
