<svg xmlns="http://www.w3.org/2000/svg" width="560" height="477.323" viewBox="0 0 560 477.323">
  <g id="Learning-pana_3_" data-name="Learning-pana (3)" transform="translate(-24.84 -72.673)">
    <g id="freepik--Elements--inject-95" transform="translate(68.066 72.673)">
      <path id="Path_2764" data-name="Path 2764" d="M81.9,115.94a1.368,1.368,0,0,1,.112.336l.274.995a14.369,14.369,0,0,0,.51,1.617c.224.622.46,1.355.821,2.139l.547,1.244.709,1.343a13.083,13.083,0,0,0,.821,1.43c.311.473.584.995.958,1.492a32.2,32.2,0,0,0,14.09,11.5,30.266,30.266,0,0,0,5.36,1.679,51.6,51.6,0,0,0,5.907.821c4.066.4,8.469.622,12.684,2.313a30.852,30.852,0,0,1,11.043,8.27,40.142,40.142,0,0,1,7.611,11.54,21.413,21.413,0,0,1,1.517,6.442,24.175,24.175,0,0,1-.4,6.317,76.293,76.293,0,0,1-3.358,11.192,52.762,52.762,0,0,0-2.661,9.749,20.258,20.258,0,0,0,.311,8.257,15.382,15.382,0,0,0,2.7,5.621,11.316,11.316,0,0,0,2.91,2.686c.759.485,1.244.672,1.244.7a8.035,8.035,0,0,1-1.244-.622,11.193,11.193,0,0,1-2.985-2.661,15.221,15.221,0,0,1-2.8-5.658,20.494,20.494,0,0,1-.385-8.369,53.872,53.872,0,0,1,2.636-9.812,77.981,77.981,0,0,0,3.308-11.192,24.684,24.684,0,0,0,.373-6.218,20.643,20.643,0,0,0-1.5-6.3,40.043,40.043,0,0,0-7.536-11.428,30.467,30.467,0,0,0-10.894-8.158c-4.116-1.679-8.481-1.9-12.56-2.313a56.045,56.045,0,0,1-5.944-.846A30.678,30.678,0,0,1,100.6,138.4a32.059,32.059,0,0,1-14.139-11.7c-.373-.5-.659-1.02-.958-1.5a15.608,15.608,0,0,1-.808-1.455l-.7-1.343-.535-1.244a19.9,19.9,0,0,1-.8-2.164,13.678,13.678,0,0,1-.46-1.629c-.1-.435-.187-.771-.236-1.007A2.76,2.76,0,0,1,81.9,115.94Z" transform="translate(-54.169 -62.135)" fill="#455a64"/>
      <path id="Path_2765" data-name="Path 2765" d="M102.23,105.34l.274.249.771.746c.336.336.709.783,1.244,1.244a9.275,9.275,0,0,1,1.443,1.89,26.712,26.712,0,0,1,3.072,5.77,27.707,27.707,0,0,1,1.878,8.444,28.925,28.925,0,0,1-.187,5.036,36.273,36.273,0,0,1-1.169,5.347c-1.032,3.631-2.487,7.362-3.581,11.453a29.123,29.123,0,0,0-.908,6.379,27.209,27.209,0,0,0,.684,6.678,31.089,31.089,0,0,0,6.143,12.684,35.292,35.292,0,0,0,10.906,8.9,42.369,42.369,0,0,0,12.436,4.328c4.153.771,8.183.97,11.913,1.542a30.057,30.057,0,0,1,10.023,3.034A23.026,23.026,0,0,1,168.362,204.2c.075.46.124.808.174,1.069a2.585,2.585,0,0,1,0,.361,1.179,1.179,0,0,0-.087-.361,8.845,8.845,0,0,1-.211-1.045,24.983,24.983,0,0,0-1.244-3.9,23.491,23.491,0,0,0-3.395-5.509,22.384,22.384,0,0,0-6.591-5.422,29.846,29.846,0,0,0-9.948-2.947c-3.731-.56-7.747-.746-11.938-1.5a43.289,43.289,0,0,1-12.56-4.352,35.74,35.74,0,0,1-11.043-9,31.86,31.86,0,0,1-6.218-12.8,28.688,28.688,0,0,1-.672-6.777,29.6,29.6,0,0,1,.92-6.467c1.057-4.129,2.587-7.859,3.631-11.466a35.938,35.938,0,0,0,1.244-5.285,27.283,27.283,0,0,0,.211-4.974,27.93,27.93,0,0,0-4.788-14.127c-.485-.759-.995-1.355-1.405-1.915a7.265,7.265,0,0,0-1.144-1.244l-.734-.783a2.923,2.923,0,0,1-.336-.41Z" transform="translate(-49.217 -64.717)" fill="#455a64"/>
      <path id="Path_2766" data-name="Path 2766" d="M157.49,177a6.689,6.689,0,0,1-.97.883c-.647.56-1.6,1.331-2.81,2.251a112.178,112.178,0,0,1-9.75,6.74,114.853,114.853,0,0,1-10.409,5.683c-1.368.659-2.487,1.169-3.258,1.492a6.218,6.218,0,0,1-1.244.473,9.264,9.264,0,0,1,1.156-.622l3.208-1.6c2.7-1.368,6.379-3.358,10.309-5.783s7.362-4.825,9.8-6.616l2.873-2.139A8.506,8.506,0,0,1,157.49,177Z" transform="translate(-42.685 -47.264)" fill="#455a64"/>
      <path id="Path_2767" data-name="Path 2767" d="M151.343,172.8a5.686,5.686,0,0,1-.982.584l-2.711,1.467c-2.288,1.244-5.422,3.009-8.817,5.086s-6.379,4.091-8.518,5.571l-2.487,1.766a7.75,7.75,0,0,1-.958.609,6.043,6.043,0,0,1,.858-.746c.572-.46,1.418-1.094,2.487-1.865,2.1-1.554,5.086-3.594,8.481-5.683s6.566-3.818,8.891-4.974c1.169-.6,2.114-1.057,2.786-1.355a6.648,6.648,0,0,1,.97-.46Z" transform="translate(-43.216 -48.287)" fill="#455a64"/>
      <path id="Path_2768" data-name="Path 2768" d="M141.568,171.18a13.679,13.679,0,0,1-1.927,1.405c-1.244.808-2.922,1.9-4.837,3.059s-3.668,2.139-4.974,2.835a13.542,13.542,0,0,1-2.139,1.032,14.276,14.276,0,0,1,1.99-1.244l4.9-2.935,4.9-2.947A13.146,13.146,0,0,1,141.568,171.18Z" transform="translate(-43.016 -48.681)" fill="#455a64"/>
      <path id="Path_2769" data-name="Path 2769" d="M133.655,162.68a7.884,7.884,0,0,1-1.455,1.057l-3.594,2.413-3.569,2.487a8.245,8.245,0,0,1-1.517.958,6.617,6.617,0,0,1,1.343-1.244c.87-.7,2.1-1.6,3.507-2.562a43.744,43.744,0,0,1,3.731-2.313,6.826,6.826,0,0,1,1.554-.8Z" transform="translate(-44.032 -50.752)" fill="#455a64"/>
      <path id="Path_2770" data-name="Path 2770" d="M134.59,155.1c0,.062-1.057.634-2.761,1.617s-4.029,2.413-6.479,4.129-4.589,3.432-6.093,4.7a30.877,30.877,0,0,1-2.487,2.039,4.5,4.5,0,0,1,.572-.647c.386-.4.97-.945,1.7-1.617a63.359,63.359,0,0,1,12.622-8.867c.87-.46,1.592-.808,2.089-1.045a3.371,3.371,0,0,1,.833-.311Z" transform="translate(-45.676 -52.598)" fill="#455a64"/>
      <path id="Path_2771" data-name="Path 2771" d="M131.208,149.22c.062.1-4.3,3.246-9.749,7.051s-9.948,6.79-9.948,6.7,4.29-3.258,9.737-7.051S131.133,149.121,131.208,149.22Z" transform="translate(-46.957 -54.03)" fill="#455a64"/>
      <path id="Path_2772" data-name="Path 2772" d="M128.566,142.59a4.889,4.889,0,0,1-.846.622c-.622.423-1.405.958-2.35,1.579-1.99,1.331-4.726,3.2-7.7,5.31s-5.608,4.1-7.461,5.546l-2.263,1.716a4.973,4.973,0,0,1-.858.584,4.514,4.514,0,0,1,.759-.721c.5-.435,1.244-1.057,2.176-1.816,1.865-1.5,4.477-3.532,7.461-5.646s5.745-3.954,7.772-5.223c1.02-.634,1.853-1.132,2.487-1.467A4.65,4.65,0,0,1,128.566,142.59Z" transform="translate(-48.033 -55.645)" fill="#455a64"/>
      <path id="Path_2773" data-name="Path 2773" d="M121.476,138.921c.075.087-3.631,2.773-8.257,5.994s-8.444,5.733-8.518,5.646,3.644-2.786,8.27-5.994S121.414,138.821,121.476,138.921Z" transform="translate(-48.616 -56.539)" fill="#455a64"/>
      <path id="Path_2774" data-name="Path 2774" d="M113.437,135.22a35.208,35.208,0,0,1-4.253,3.668,38.13,38.13,0,0,1-4.514,3.345,38.006,38.006,0,0,1,4.253-3.731,38.127,38.127,0,0,1,4.514-3.283Z" transform="translate(-48.623 -57.44)" fill="#455a64"/>
      <path id="Path_2775" data-name="Path 2775" d="M110,125.93a13.8,13.8,0,0,1-1.816,1.679c-1.157.982-2.8,2.313-4.663,3.731s-3.594,2.587-4.875,3.42A12.561,12.561,0,0,1,96.52,136a16.167,16.167,0,0,1,1.965-1.5c1.244-.9,2.935-2.126,4.788-3.507s3.519-2.674,4.726-3.606A15.457,15.457,0,0,1,110,125.93Z" transform="translate(-50.608 -59.702)" fill="#455a64"/>
      <path id="Path_2776" data-name="Path 2776" d="M113.736,119.61a4.975,4.975,0,0,1-.833.647c-.535.4-1.343.945-2.338,1.6-2,1.331-4.813,3.109-7.984,4.974s-6.118,3.382-8.27,4.452c-1.069.535-1.952.958-2.562,1.244a4.64,4.64,0,0,1-.97.4,5.62,5.62,0,0,1,.9-.535l2.487-1.355c2.114-1.132,4.974-2.723,8.2-4.564s5.994-3.557,8.033-4.825l2.412-1.492A4.712,4.712,0,0,1,113.736,119.61Z" transform="translate(-52.006 -61.242)" fill="#455a64"/>
      <path id="Path_2777" data-name="Path 2777" d="M111.038,112.86a6.8,6.8,0,0,1-.908.684c-.6.423-1.467,1.02-2.562,1.753-2.176,1.443-5.211,3.407-8.605,5.509s-6.491,3.942-8.7,5.235c-1.132.647-2.052,1.169-2.7,1.517a7.175,7.175,0,0,1-1.02.5,6,6,0,0,1,.933-.647l2.636-1.629,8.7-5.335,8.7-5.4,2.636-1.642a5.485,5.485,0,0,1,.883-.547Z" transform="translate(-53.039 -62.886)" fill="#455a64"/>
      <path id="Path_2778" data-name="Path 2778" d="M373.533,314.324c-.062.062-.982-.858-2.773-2.388-.9-.759-2-1.679-3.345-2.661a37.585,37.585,0,0,0-4.775-2.984,20.359,20.359,0,0,0-2.985-1.244,9.838,9.838,0,0,0-3.358-.6,3.619,3.619,0,0,0-1.629.386,2.487,2.487,0,0,0-1.119,1.181,4.1,4.1,0,0,0-.336,1.766,8.831,8.831,0,0,0,.249,1.94,18.48,18.48,0,0,0,1.443,3.892,35.948,35.948,0,0,0,2.2,3.818A52.962,52.962,0,0,0,369.988,330.7a33.061,33.061,0,0,0,3.731,2.313,18.192,18.192,0,0,0,3.855,1.567,8.764,8.764,0,0,0,1.928.311,4.129,4.129,0,0,0,1.766-.286,2.487,2.487,0,0,0,1.244-1.082,3.731,3.731,0,0,0,.435-1.617,9.663,9.663,0,0,0-.5-3.383,21.83,21.83,0,0,0-1.244-3.022,38.715,38.715,0,0,0-2.848-4.862c-.945-1.368-1.816-2.487-2.562-3.42-1.467-1.828-2.363-2.786-2.3-2.848s.274.187.734.622,1.094,1.082,1.878,1.965a42.74,42.74,0,0,1,2.723,3.345,36.117,36.117,0,0,1,3.034,4.875,24.553,24.553,0,0,1,1.306,3.109,10.56,10.56,0,0,1,.585,3.731,4.416,4.416,0,0,1-.522,2,3.346,3.346,0,0,1-1.617,1.48,5.049,5.049,0,0,1-2.164.385,9.661,9.661,0,0,1-2.151-.311,19.528,19.528,0,0,1-4.066-1.617,33.893,33.893,0,0,1-3.88-2.487,52.4,52.4,0,0,1-13.144-13.555,33.568,33.568,0,0,1-2.251-3.93,19.663,19.663,0,0,1-1.48-4.116,9,9,0,0,1-.249-2.151,4.775,4.775,0,0,1,.448-2.151,3.369,3.369,0,0,1,1.53-1.579,4.539,4.539,0,0,1,2.015-.46,10.508,10.508,0,0,1,3.656.7,22.384,22.384,0,0,1,3.059,1.405,35.726,35.726,0,0,1,4.775,3.171c1.331,1.045,2.413,2,3.271,2.823s1.492,1.48,1.9,1.94A5.348,5.348,0,0,1,373.533,314.324Z" transform="translate(11.672 -16.446)" fill="#455a64"/>
      <path id="Path_2779" data-name="Path 2779" d="M360.26,317.944c.075,0-.286,1.244-.759,3.457-.236,1.119-.5,2.487-.709,4.079a34.82,34.82,0,0,0-.3,5.434,19.566,19.566,0,0,0,.323,3.121,9.3,9.3,0,0,0,1.107,3.109,3.731,3.731,0,0,0,1.119,1.181,2.636,2.636,0,0,0,1.53.423,4.1,4.1,0,0,0,1.7-.423,7.888,7.888,0,0,0,1.567-1.057,17.785,17.785,0,0,0,2.723-2.96,31.523,31.523,0,0,0,2.276-3.594,49.343,49.343,0,0,0,5.409-17.037,32.833,32.833,0,0,0,.211-4.241,17.981,17.981,0,0,0-.51-3.992,9.091,9.091,0,0,0-.672-1.766,4.03,4.03,0,0,0-1.094-1.343,2.586,2.586,0,0,0-1.492-.547,3.73,3.73,0,0,0-1.592.323,9.414,9.414,0,0,0-2.7,1.89,20.148,20.148,0,0,0-2.064,2.375,34.024,34.024,0,0,0-2.935,4.589c-.746,1.418-1.318,2.686-1.766,3.731-.9,2.1-1.306,3.3-1.38,3.271a2.761,2.761,0,0,1,.187-.908c.162-.584.423-1.43.808-2.487s.92-2.375,1.629-3.843a33.114,33.114,0,0,1,2.823-4.788,18.37,18.37,0,0,1,2.1-2.487,9.949,9.949,0,0,1,2.922-2.126,4.613,4.613,0,0,1,1.952-.41,3.519,3.519,0,0,1,2.014.7,5.05,5.05,0,0,1,1.368,1.629,9.216,9.216,0,0,1,.771,1.965,18.217,18.217,0,0,1,.572,4.2,30.736,30.736,0,0,1-.187,4.39,48.5,48.5,0,0,1-5.534,17.41,31.209,31.209,0,0,1-2.375,3.731,18.07,18.07,0,0,1-2.9,3.1,9.1,9.1,0,0,1-1.753,1.156,4.9,4.9,0,0,1-2.064.547,3.557,3.557,0,0,1-2.039-.585,4.776,4.776,0,0,1-1.368-1.467,10.035,10.035,0,0,1-1.157-3.42,18.659,18.659,0,0,1-.273-3.246,31.918,31.918,0,0,1,.46-5.546,40.722,40.722,0,0,1,.883-4.079c.3-1.107.584-1.952.783-2.487a2.85,2.85,0,0,1,.373-.97Z" transform="translate(13.02 -17.082)" fill="#455a64"/>
      <path id="Path_2780" data-name="Path 2780" d="M366.548,310.339c0,.087-1.244.41-3.345,1.181-1.069.385-2.363.883-3.843,1.542a34.543,34.543,0,0,0-4.775,2.612,18.225,18.225,0,0,0-2.487,1.915,8.98,8.98,0,0,0-2.052,2.574,3.731,3.731,0,0,0-.423,1.567,2.6,2.6,0,0,0,.46,1.53,3.841,3.841,0,0,0,1.244,1.169,8.617,8.617,0,0,0,1.716.783,18.252,18.252,0,0,0,3.955.746,32.211,32.211,0,0,0,4.253,0,46.966,46.966,0,0,0,8.867-1.38,47.612,47.612,0,0,0,8.469-2.984,33.257,33.257,0,0,0,3.731-2.052,17.05,17.05,0,0,0,3.121-2.487,7.641,7.641,0,0,0,1.144-1.5,3.943,3.943,0,0,0,.572-1.629,2.662,2.662,0,0,0-.311-1.555,3.941,3.941,0,0,0-1.119-1.243,9.214,9.214,0,0,0-3.034-1.244,19.892,19.892,0,0,0-3.1-.51,34.807,34.807,0,0,0-5.447,0c-1.6.124-2.985.3-4.116.46-2.238.348-3.47.634-3.494.547a3.023,3.023,0,0,1,.87-.311c.572-.174,1.43-.4,2.562-.634a41.583,41.583,0,0,1,4.129-.634,33.39,33.39,0,0,1,5.559-.124,19.016,19.016,0,0,1,3.221.473,9.625,9.625,0,0,1,3.345,1.368,4.514,4.514,0,0,1,1.38,1.443,3.444,3.444,0,0,1,.46,2.077,4.763,4.763,0,0,1-.659,2.027,9.238,9.238,0,0,1-1.244,1.679,18.231,18.231,0,0,1-3.283,2.711,32.679,32.679,0,0,1-3.83,2.151,47.8,47.8,0,0,1-8.7,3.072,46.558,46.558,0,0,1-9.066,1.38,30.276,30.276,0,0,1-4.39-.075,17.945,17.945,0,0,1-4.166-.833,8.915,8.915,0,0,1-1.915-.883,5.1,5.1,0,0,1-1.542-1.467,3.531,3.531,0,0,1-.572-2.039,4.55,4.55,0,0,1,.535-1.94,9.948,9.948,0,0,1,2.288-2.786,20.323,20.323,0,0,1,2.624-1.94,33.358,33.358,0,0,1,4.974-2.487,41.16,41.16,0,0,1,3.942-1.393c1.094-.323,1.965-.535,2.549-.659a3.009,3.009,0,0,1,.945-.212Z" transform="translate(10.81 -15.209)" fill="#455a64"/>
      <path id="Path_2781" data-name="Path 2781" d="M369.376,316.264a3.333,3.333,0,1,1-4.042-2.425,3.333,3.333,0,0,1,4.042,2.425Z" transform="translate(14.249 -13.959)" fill="#455a64"/>
      <path id="Path_2782" data-name="Path 2782" d="M436.111,281.325l-.373-.174-1.082-.547-4.166-2.164-15.308-8.046h.137l-47.156,18.019-.423.162.124-.435,1.443-5.21c3.3-11.888,6.417-23.143,9.153-33.041v-.075h0l26.115-19.574,7.461-5.521,1.977-1.455.51-.361q.162-.137.187-.112l-.162.137-.5.4-1.94,1.492-7.362,5.608-26.04,19.71.075-.112c-2.736,9.948-5.832,21.141-9.115,33.066-.5,1.778-.982,3.557-1.443,5.211l-.3-.274,47.255-17.895h.075l15.234,8.17,4.116,2.226,1.069.6Z" transform="translate(15.45 -36.112)" fill="#8dc63f"/>
      <path id="Path_2783" data-name="Path 2783" d="M374.584,276.016l-2.823.833-.908,2.8-1.666-2.425H366.24l1.791-2.338-.908-2.8,2.773.982,2.375-1.729-.075,2.947Z" transform="translate(15.085 -24.286)" fill="#8dc63f"/>
      <path id="Path_2784" data-name="Path 2784" d="M380.545,244.422l-1.778.647-.485,1.84-1.169-1.492-1.9.112,1.069-1.579-.7-1.766,1.828.522,1.467-1.206.062,1.9Z" transform="translate(17.27 -31.554)" fill="#8dc63f"/>
      <path id="Path_2785" data-name="Path 2785" d="M409.491,222.149,408.2,224.1l.858,2.164-2.251-.634-1.791,1.492-.1-2.338-1.965-1.244,2.189-.808.572-2.263,1.455,1.828Z" transform="translate(24.026 -36.676)" fill="#8dc63f"/>
      <path id="Path_2786" data-name="Path 2786" d="M426.3,268.209,425,270.161l.87,2.164-2.251-.634-1.8,1.492-.087-2.338L419.75,269.6l2.189-.808.584-2.263,1.443,1.828Z" transform="translate(28.118 -25.458)" fill="#8dc63f"/>
      <path id="Path_2787" data-name="Path 2787" d="M408.2,260.382l-.833,1.244.56,1.38-1.443-.41-1.144.958-.05-1.492-1.268-.8,1.405-.522.361-1.443.933,1.181Z" transform="translate(24.287 -27.219)" fill="#8dc63f"/>
      <circle id="Ellipse_38" data-name="Ellipse 38" cx="23.876" cy="23.876" r="23.876" transform="matrix(0.161, -0.987, 0.987, 0.161, 259.753, 51.382)" fill="#8dc63f"/>
      <g id="Group_226" data-name="Group 226" transform="translate(276.244 35.238)" opacity="0.3">
        <path id="Path_2788" data-name="Path 2788" d="M289.525,104.9a3.892,3.892,0,1,1-3.892-3.892A3.892,3.892,0,0,1,289.525,104.9Z" transform="translate(-281.74 -101.01)" fill="#fff"/>
      </g>
      <g id="Group_227" data-name="Group 227" transform="translate(274.031 25.625)" opacity="0.3">
        <path id="Path_2789" data-name="Path 2789" d="M284.487,95.543a2.263,2.263,0,1,1-2.263-2.263A2.263,2.263,0,0,1,284.487,95.543Z" transform="translate(-279.96 -93.28)" fill="#fff"/>
      </g>
      <path id="Path_2790" data-name="Path 2790" d="M275.045,110.162c.112.41-20.432,20.121-15.134,24.324s27.57-6.578,46.559-21.912,36.324-33.962,31.574-38.886-28.465,9.662-28.465,9.662l2.885,1.8s14.338-9.2,18.877-5.633-8.394,17.534-26.649,30.865-35.9,22.683-38.637,19.026,10.185-15.831,10.185-15.831Z" transform="translate(-11.025 -72.673)" fill="#8dc63f"/>
      <g id="Group_228" data-name="Group 228" transform="translate(248.013)" opacity="0.3">
        <path id="Path_2791" data-name="Path 2791" d="M275.045,110.162c.112.41-20.432,20.121-15.134,24.324s27.57-6.578,46.559-21.912,36.324-33.962,31.574-38.886-28.465,9.662-28.465,9.662l2.885,1.8s14.338-9.2,18.877-5.633-8.394,17.534-26.649,30.865-35.9,22.683-38.637,19.026,10.185-15.831,10.185-15.831Z" transform="translate(-259.038 -72.673)"/>
      </g>
      <g id="Group_229" data-name="Group 229" transform="translate(265.108 14.84)" opacity="0.3">
        <path id="Path_2792" data-name="Path 2792" d="M281.757,84.623c.186.236-1.43,1.6-3.258,4.365a21.986,21.986,0,0,0-.485,24.15c1.729,2.823,3.283,4.265,3.084,4.489s-2.039-.945-4.166-3.731a21.026,21.026,0,0,1,.51-25.667C279.631,85.494,281.6,84.462,281.757,84.623Z" transform="translate(-272.785 -84.607)" fill="#fff"/>
      </g>
      <path id="Path_2793" data-name="Path 2793" d="M319.581,117.722a13.866,13.866,0,1,1,13.53,14.189,13.866,13.866,0,0,1-13.53-14.189Z" transform="translate(3.72 -64.999)" fill="#8dc63f"/>
      <g id="Group_230" data-name="Group 230" transform="translate(341.679 45.536)" opacity="0.4">
        <path id="Path_2794" data-name="Path 2794" d="M334.36,111.5a2.251,2.251,0,1,1,.619,1.614A2.263,2.263,0,0,1,334.36,111.5Z" transform="translate(-334.359 -109.291)"/>
      </g>
      <g id="Group_231" data-name="Group 231" transform="translate(346.207 51.742)" opacity="0.4">
        <path id="Path_2795" data-name="Path 2795" d="M338,115.56a1.318,1.318,0,1,1,1.244,1.355A1.318,1.318,0,0,1,338,115.56Z" transform="translate(-338 -114.282)"/>
      </g>
      <g id="Group_232" data-name="Group 232" transform="translate(343.943 57.063)" opacity="0.4">
        <path id="Path_2796" data-name="Path 2796" d="M336.665,118.56a.5.5,0,0,1,.485.5.485.485,0,0,1-.5.473.473.473,0,0,1-.473-.5A.485.485,0,0,1,336.665,118.56Z" transform="translate(-336.179 -118.56)"/>
      </g>
      <path id="Path_2797" data-name="Path 2797" d="M365.661,213.609c-.124,0-.211-17.559-.211-39.209s.087-39.209.211-39.209.211,17.547.211,39.209S365.773,213.609,365.661,213.609Z" transform="translate(14.893 -57.447)" fill="#263238"/>
      <path id="Path_2798" data-name="Path 2798" d="M368.394,136.731a35.149,35.149,0,0,1-2.661-4.551h.373v.1a37.927,37.927,0,0,1-2.276,4.887,32.758,32.758,0,0,1,1.89-5.049v-.1l.174-.4.2.373a32.842,32.842,0,0,1,2.3,4.738Z" transform="translate(14.498 -58.316)" fill="#263238"/>
      <path id="Path_2799" data-name="Path 2799" d="M365.626,128.266c-.075.087-.721-.336-1.244-1.119s-.647-1.542-.535-1.567.41.622.883,1.343S365.7,128.179,365.626,128.266Z" transform="translate(14.493 -59.788)" fill="#263238"/>
      <path id="Path_2800" data-name="Path 2800" d="M364.28,130.644a14.61,14.61,0,0,1,.995-2.8,13.99,13.99,0,0,1,1.144-2.736A8.283,8.283,0,0,1,365.66,128,8.17,8.17,0,0,1,364.28,130.644Z" transform="translate(14.608 -59.902)" fill="#263238"/>
      <path id="Path_2801" data-name="Path 2801" d="M361.1,144.45a23.37,23.37,0,0,0,.721-2.413,24.268,24.268,0,0,0,0-2.487,3.582,3.582,0,0,1,.361,2.587A3.545,3.545,0,0,1,361.1,144.45Z" transform="translate(13.833 -56.385)" fill="#263238"/>
      <path id="Path_2802" data-name="Path 2802" d="M362.106,141.224a.78.78,0,0,1-.6.46,1.169,1.169,0,0,1-.858-.149,1.17,1.17,0,0,1,.746-2.164c.51,0,.684.373.634.4a2.4,2.4,0,0,0-.647-.1.833.833,0,0,0-.846.9.858.858,0,0,0,.933.821C361.858,141.4,362.057,141.174,362.106,141.224Z" transform="translate(13.598 -56.43)" fill="#263238"/>
      <path id="Path_2803" data-name="Path 2803" d="M427.862,193.811c0,.112-15.022.211-33.576.211s-33.576-.1-33.576-.211,15.01-.211,33.576-.211S427.862,193.7,427.862,193.811Z" transform="translate(13.738 -43.221)" fill="#263238"/>
      <path id="Path_2804" data-name="Path 2804" d="M416.322,194.114a10.135,10.135,0,0,1-2.81-.87A10.4,10.4,0,0,1,410.9,192a9.8,9.8,0,0,1,2.761.883A10.087,10.087,0,0,1,416.322,194.114Z" transform="translate(25.962 -43.61)" fill="#263238"/>
      <path id="Path_2805" data-name="Path 2805" d="M416.746,193.9a13.567,13.567,0,0,1-4.576,1.6,7.72,7.72,0,0,1,2.226-.995A7.013,7.013,0,0,1,416.746,193.9Z" transform="translate(26.272 -43.148)" fill="#263238"/>
      <path id="Path_2806" data-name="Path 2806" d="M363.5,195.48a2.064,2.064,0,0,1,.871,1.393,2.96,2.96,0,0,1-.137,1.828,2.114,2.114,0,0,1-.672.908,1.144,1.144,0,0,1-1.244,0,2.4,2.4,0,0,1-.97-2.039,2.126,2.126,0,0,1,.746-1.679,1.6,1.6,0,0,1,1.181-.385c.3,0,.435.137.423.149a3.863,3.863,0,0,1-.423,0,1.629,1.629,0,0,0-.982.448,1.853,1.853,0,0,0-.56,1.443,2.089,2.089,0,0,0,.8,1.691.759.759,0,0,0,.821,0,1.778,1.778,0,0,0,.56-.721,2.922,2.922,0,0,0,.2-1.617,5.076,5.076,0,0,0-.609-1.418Z" transform="translate(13.893 -42.763)" fill="#263238"/>
      <path id="Path_2807" data-name="Path 2807" d="M407.365,196.221s.236-.137.56.137a.833.833,0,0,1,.286.672,1.43,1.43,0,0,1-.4.858c-.473.522-1.343.721-1.741,1.355a1.119,1.119,0,0,0,0,1.082,1.057,1.057,0,0,0,1.02.51,1.007,1.007,0,0,0,.883-.721,1.107,1.107,0,0,0-.211-1.069,3.046,3.046,0,0,0-.9-.709,1.33,1.33,0,0,1-.8-.821,1.107,1.107,0,0,1,.211-.933,1.392,1.392,0,0,1,.56-.423c.361-.124.572-.1.584-.075a1.489,1.489,0,0,0-.51.224,1.244,1.244,0,0,0-.448.41.845.845,0,0,0-.112.721c.124.535,1.119.609,1.7,1.368a1.517,1.517,0,0,1,.3,1.443,1.43,1.43,0,0,1-1.244.995,1.467,1.467,0,0,1-1.418-.709,1.517,1.517,0,0,1,0-1.492,2.487,2.487,0,0,1,.995-.821,4.45,4.45,0,0,0,.858-.547,1.156,1.156,0,0,0,.373-.672.721.721,0,0,0-.162-.535C407.614,196.221,407.365,196.258,407.365,196.221Z" transform="translate(24.648 -42.621)" fill="#263238"/>
      <path id="Path_2808" data-name="Path 2808" d="M406.9,195.661a8.219,8.219,0,0,1,0-3.731A8.221,8.221,0,0,1,406.9,195.661Z" transform="translate(24.936 -43.627)" fill="#263238"/>
      <path id="Path_2809" data-name="Path 2809" d="M421.858,194.485a3.022,3.022,0,0,1-1.144.174l-1.244.075a.448.448,0,0,1-.286,0,.348.348,0,0,1-.149-.373.771.771,0,0,1,.261-.4l.547-.572a1.816,1.816,0,0,0,.684-1.181.759.759,0,0,0-.522-.771,1.243,1.243,0,0,0-.734.137c-.186.075-.286.124-.311.1s.062-.112.224-.236a1.243,1.243,0,0,1,.871-.3,1.069,1.069,0,0,1,.858,1.082,2.139,2.139,0,0,1-.746,1.455l-.572.56c-.1.087-.174.174-.174.211h1.318A3.357,3.357,0,0,1,421.858,194.485Z" transform="translate(27.925 -43.82)" fill="#263238"/>
      <path id="Path_2810" data-name="Path 2810" d="M373.572,196.678v-1.156c0-.734,0-1.816-.062-3.072,0-2.611-.075-6.218-.087-10.346l.2.211h-3.892l.211-.211h0v8.257c0,2.487,0,4.6-.062,6.3l-.124-.124,2.835.062c.672,0,1.045,0,1.057.062a7.659,7.659,0,0,1-.982,0l-2.91.062h-.124V182.041h0l.211-.211h3.979v.2c0,4.216,0,7.884-.1,10.483v3.034a6.737,6.737,0,0,1-.149,1.132Z" transform="translate(15.911 -46.087)" fill="#263238"/>
      <path id="Path_2811" data-name="Path 2811" d="M403.434,198.008a2.344,2.344,0,0,1,0-.448v-1.244c0-1.119,0-2.636-.062-4.514,0-3.805-.075-9.078-.087-15.06l.211.2h-3.9l.211-.2h0v12.311c0,3.606-.062,6.665-.075,8.9l-.112-.112h3.9a7.028,7.028,0,0,1-.982,0l-2.922.062H399.5V197.8c0-2.238,0-5.3-.075-8.9V176.581h0l.211-.211h4.1v.211c0,6.069,0,11.416-.087,15.209,0,1.853,0,3.358-.062,4.464V197.5C403.6,197.871,403.434,198.02,403.434,198.008Z" transform="translate(23.169 -47.417)" fill="#263238"/>
      <path id="Path_2812" data-name="Path 2812" d="M381.135,199.036a3.462,3.462,0,0,1,0-.547v-1.542c0-1.355,0-3.258-.062-5.621,0-4.763,0-11.341-.087-18.765l.211.211h-3.9c.423-.423.112-.112.211-.2h0v15.619c0,4.527-.062,8.257-.087,10.844l-.1-.1h-.1v-.1c0-2.587,0-6.317-.075-10.844V172.374h0c.1-.1-.211.2.211-.224h4.1v.2c0,7.461-.062,14.114-.087,18.915,0,2.338,0,4.228-.062,5.571v1.492A1.668,1.668,0,0,1,381.135,199.036Z" transform="translate(17.736 -48.445)" fill="#263238"/>
      <path id="Path_2813" data-name="Path 2813" d="M388.519,201.806a1.422,1.422,0,0,1,0-.211V198.56c0-2.077,0-5.049-.062-8.7,0-7.387-.062-17.6-.1-29.062l.211.211h-3.942l.2-.2h0v24.759c0,7.063-.075,12.722-.1,16.166l-.075-.075h-.05v-.087c0-3.507,0-9.165-.087-16.166V160.644h0c.087-.1-.211.2.211-.224h4.1v.211c0,11.515,0,21.787-.087,29.211,0,3.656,0,6.616-.062,8.7v2.935C388.531,201.756,388.531,201.818,388.519,201.806Z" transform="translate(19.531 -51.302)" fill="#263238"/>
      <path id="Path_2814" data-name="Path 2814" d="M396.068,207.313v-5.434c0-3.494,0-8.543-.062-14.773,0-12.436,0-29.758-.087-49.034l.211.211h-3.9c.41-.41.124-.1.211-.187v43.326c0,12.063-.087,21.228-.112,25.891h-.062v-.075c0-4.663-.062-13.828-.1-25.891v-43.3c.1-.1-.211.187.211-.236h4.1v.236c0,19.337,0,36.66-.087,49.183,0,6.218,0,11.192-.062,14.724v5A.413.413,0,0,1,396.068,207.313Z" transform="translate(21.395 -56.809)" fill="#263238"/>
      <path id="Path_2815" data-name="Path 2815" d="M59.6,197l3.32,58.236,97.433-5.559Zm16.278,22.6,41.908,22.384-40.5,2.276Z" transform="translate(-59.6 -42.393)" fill="#8dc63f"/>
      <path id="Path_2816" data-name="Path 2816" d="M68.1,201.09a11.951,11.951,0,0,1-1.542,3.619,11.752,11.752,0,0,1-2.151,3.32,11.826,11.826,0,0,1,1.542-3.656A11.938,11.938,0,0,1,68.1,201.09Z" transform="translate(-58.428 -41.396)" fill="#263238"/>
      <path id="Path_2817" data-name="Path 2817" d="M80.118,207.3a11.689,11.689,0,0,1-1.542,3.569,11.068,11.068,0,0,1-2.126,3.221,11.341,11.341,0,0,1,1.53-3.569,10.744,10.744,0,0,1,2.139-3.221Z" transform="translate(-55.496 -39.884)" fill="#263238"/>
      <path id="Path_2818" data-name="Path 2818" d="M92.267,213.51a11.391,11.391,0,0,1-1.89,3.37,10.62,10.62,0,0,1-2.487,2.985,11.366,11.366,0,0,1,1.89-3.383,10.918,10.918,0,0,1,2.487-2.972Z" transform="translate(-52.71 -38.371)" fill="#263238"/>
      <path id="Path_2819" data-name="Path 2819" d="M104.087,220a10.72,10.72,0,0,1-1.89,3.382,11.466,11.466,0,0,1-2.487,2.985,10.72,10.72,0,0,1,1.89-3.383A11.466,11.466,0,0,1,104.087,220Z" transform="translate(-49.831 -36.791)" fill="#263238"/>
      <path id="Path_2820" data-name="Path 2820" d="M116.354,226.33a11.776,11.776,0,0,1-1.716,3.594,11.9,11.9,0,0,1-2.288,3.233A22.633,22.633,0,0,1,116.354,226.33Z" transform="translate(-46.752 -35.249)" fill="#263238"/>
      <path id="Path_2821" data-name="Path 2821" d="M129.091,233a10.284,10.284,0,0,1-1.517,3.407,10.6,10.6,0,0,1-2.114,3.072,10.483,10.483,0,0,1,1.53-3.42,10.06,10.06,0,0,1,2.1-3.059Z" transform="translate(-43.559 -33.624)" fill="#263238"/>
      <path id="Path_2822" data-name="Path 2822" d="M71.506,203.051c.162.1-.112.945-.622,1.915s-1.057,1.654-1.244,1.567.112-.945.622-1.9S71.345,202.989,71.506,203.051Z" transform="translate(-57.168 -40.92)" fill="#263238"/>
      <path id="Path_2823" data-name="Path 2823" d="M75.437,205c.174.087-.112.945-.622,1.9s-1.045,1.666-1.244,1.579.124-.945.622-1.915S75.275,204.927,75.437,205Z" transform="translate(-56.212 -40.445)" fill="#263238"/>
      <path id="Path_2824" data-name="Path 2824" d="M84.206,209.651c.162.1-.112.945-.622,1.915s-1.057,1.666-1.244,1.567.112-.945.622-1.9S84.045,209.564,84.206,209.651Z" transform="translate(-54.075 -39.313)" fill="#263238"/>
      <path id="Path_2825" data-name="Path 2825" d="M88.146,211.621c.162.087-.112.945-.622,1.9s-1.057,1.666-1.244,1.579.112-.945.622-1.915S87.972,211.534,88.146,211.621Z" transform="translate(-53.115 -38.833)" fill="#263238"/>
      <path id="Path_2826" data-name="Path 2826" d="M96.077,216.061c.174.087-.112.945-.622,1.9s-1.045,1.666-1.244,1.579.112-.945.622-1.915S95.916,215.986,96.077,216.061Z" transform="translate(-51.185 -37.751)" fill="#263238"/>
      <path id="Path_2827" data-name="Path 2827" d="M99.837,218c.174.087-.112.945-.622,1.9s-1.045,1.666-1.244,1.579.112-.958.622-1.915A3.671,3.671,0,0,1,99.837,218Z" transform="translate(-50.269 -37.278)" fill="#263238"/>
      <path id="Path_2828" data-name="Path 2828" d="M107.947,222.241c.162.1-.112.945-.622,1.915s-1.045,1.654-1.244,1.567.112-.945.622-1.9S107.786,222.154,107.947,222.241Z" transform="translate(-48.294 -36.247)" fill="#263238"/>
      <path id="Path_2829" data-name="Path 2829" d="M112.306,224.551c.162.1-.112.945-.622,1.915s-1.057,1.666-1.244,1.567.112-.945.622-1.9S112.145,224.464,112.306,224.551Z" transform="translate(-47.231 -35.684)" fill="#263238"/>
      <path id="Path_2830" data-name="Path 2830" d="M120.146,228.681c.162.087-.112.945-.622,1.9s-1.057,1.666-1.244,1.579.112-.945.622-1.915S119.972,228.594,120.146,228.681Z" transform="translate(-45.321 -34.678)" fill="#263238"/>
      <path id="Path_2831" data-name="Path 2831" d="M124.666,231c.162.1-.112.958-.622,1.915s-1.057,1.666-1.244,1.567.112-.945.622-1.9S124.5,230.914,124.666,231Z" transform="translate(-44.22 -34.113)" fill="#263238"/>
      <path id="Path_2832" data-name="Path 2832" d="M202.271,140.557V128.37c0-7.71-.062-18.653-.1-31.885l.187.174H158.286l.2-.211V140.52l-.174-.187,31.885.1h.124l-32.009.087H158V96.05h44.457v.187c0,13.231-.062,24.262-.087,32.009v12.063Z" transform="translate(-35.634 -66.98)" fill="#8dc63f"/>
      <path id="Path_2833" data-name="Path 2833" d="M202.232,142.742a2.983,2.983,0,0,1,.336-.236l1.007-.647,3.9-2.487,14.351-8.867-.075.137V87.229l.2.211H178.467l-14.836,8.245-4.054,2.263-1.057.572-.361.187a4,4,0,0,1,.336-.224l1.045-.622,4-2.325,14.724-8.456h43.773v43.711h-.075l-14.425,8.817L203.6,142l-1.032.609Z" transform="translate(-35.595 -69.165)" fill="#8dc63f"/>
      <path id="Path_2834" data-name="Path 2834" d="M213.273,87.161c.062.1-4.29,2.748-9.725,5.919s-9.948,5.671-9.948,5.571,4.29-2.748,9.737-5.932S213.223,87.061,213.273,87.161Z" transform="translate(-26.963 -69.146)" fill="#8dc63f"/>
      <path id="Path_2835" data-name="Path 2835" d="M160.25,130.385a2.322,2.322,0,0,1-.945.783c-.572.323-1.094.522-1.144.423s.361-.448.933-.783S160.188,130.286,160.25,130.385Z" transform="translate(-35.596 -58.624)" fill="#8dc63f"/>
      <path id="Path_2836" data-name="Path 2836" d="M163.61,128.455c.062.1-.361.46-.945.783s-1.094.522-1.144.423.361-.448.945-.783S163.548,128.356,163.61,128.455Z" transform="translate(-34.777 -59.094)" fill="#8dc63f"/>
      <path id="Path_2837" data-name="Path 2837" d="M166.97,126.525c.062.1-.361.46-.933.783s-1.094.522-1.157.423.361-.448.945-.783S166.921,126.426,166.97,126.525Z" transform="translate(-33.959 -59.564)" fill="#8dc63f"/>
      <path id="Path_2838" data-name="Path 2838" d="M170.343,124.6a2.43,2.43,0,0,1-.945.783c-.572.336-1.094.522-1.156.423s.373-.448.945-.783S170.281,124.5,170.343,124.6Z" transform="translate(-33.141 -60.034)" fill="#8dc63f"/>
      <path id="Path_2839" data-name="Path 2839" d="M173.7,122.665c0,.1-.361.448-.945.783s-1.094.522-1.144.423.361-.448.933-.783S173.638,122.566,173.7,122.665Z" transform="translate(-32.32 -60.504)" fill="#8dc63f"/>
      <path id="Path_2840" data-name="Path 2840" d="M174.184,119.27c.112,0,.2.535.2,1.244s-.1,1.244-.224,1.244-.2-.535-.2-1.244S174.072,119.258,174.184,119.27Z" transform="translate(-31.747 -61.324)" fill="#8dc63f"/>
      <path id="Path_2841" data-name="Path 2841" d="M174.214,115.39c.112,0,.211.535.2,1.244s-.1,1.244-.211,1.244-.211-.547-.211-1.244S174.1,115.39,174.214,115.39Z" transform="translate(-31.739 -62.269)" fill="#8dc63f"/>
      <path id="Path_2842" data-name="Path 2842" d="M174.244,111.51c.112,0,.211.547.2,1.244s-.1,1.244-.211,1.244-.211-.547-.211-1.244S174.132,111.51,174.244,111.51Z" transform="translate(-31.732 -63.214)" fill="#8dc63f"/>
      <path id="Path_2843" data-name="Path 2843" d="M174.272,107.63c.112,0,.211.547.2,1.244s-.1,1.244-.211,1.244-.211-.535-.2-1.244S174.16,107.63,174.272,107.63Z" transform="translate(-31.722 -64.159)" fill="#8dc63f"/>
      <path id="Path_2844" data-name="Path 2844" d="M174.3,103.76c.112,0,.211.535.2,1.244s-.1,1.244-.211,1.244-.211-.535-.2-1.244S174.19,103.76,174.3,103.76Z" transform="translate(-31.715 -65.102)" fill="#8dc63f"/>
      <path id="Path_2845" data-name="Path 2845" d="M174.332,99.88c.124,0,.211.535.2,1.244s-.1,1.244-.211,1.244-.211-.547-.2-1.244S174.22,99.88,174.332,99.88Z" transform="translate(-31.708 -66.047)" fill="#8dc63f"/>
      <path id="Path_2846" data-name="Path 2846" d="M174.362,96c.124,0,.211.547.2,1.244s-.1,1.244-.211,1.244-.211-.547-.2-1.244S174.25,96,174.362,96Z" transform="translate(-31.7 -66.992)" fill="#8dc63f"/>
      <path id="Path_2847" data-name="Path 2847" d="M174.392,92.12c.124,0,.211.547.2,1.244s-.1,1.244-.211,1.244-.211-.535-.2-1.244S174.28,92.12,174.392,92.12Z" transform="translate(-31.693 -67.937)" fill="#8dc63f"/>
      <path id="Path_2848" data-name="Path 2848" d="M174.422,88.25c.124,0,.211.535.2,1.244s-.1,1.244-.211,1.244-.211-.535-.2-1.244S174.31,88.25,174.422,88.25Z" transform="translate(-31.686 -68.88)" fill="#8dc63f"/>
      <path id="Path_2849" data-name="Path 2849" d="M207.49,122.117c0-.1.535-.187,1.244-.187s1.244.087,1.244.187-.535.2-1.244.2S207.49,122.228,207.49,122.117Z" transform="translate(-23.58 -60.677)" fill="#8dc63f"/>
      <path id="Path_2850" data-name="Path 2850" d="M203.61,122.117c0-.1.535-.187,1.244-.187s1.244.087,1.244.187-.547.2-1.244.2S203.61,122.228,203.61,122.117Z" transform="translate(-24.525 -60.677)" fill="#8dc63f"/>
      <path id="Path_2851" data-name="Path 2851" d="M199.73,122.117c0-.1.535-.187,1.244-.187s1.244.087,1.244.187-.535.2-1.244.2S199.73,122.228,199.73,122.117Z" transform="translate(-25.47 -60.677)" fill="#8dc63f"/>
      <path id="Path_2852" data-name="Path 2852" d="M195.85,122.117c0-.1.547-.187,1.244-.187s1.244.087,1.244.187-.535.2-1.244.2S195.85,122.228,195.85,122.117Z" transform="translate(-26.415 -60.677)" fill="#8dc63f"/>
      <path id="Path_2853" data-name="Path 2853" d="M192,122.117c0-.1.535-.187,1.244-.187s1.244.087,1.244.187-.535.2-1.244.2S192,122.228,192,122.117Z" transform="translate(-27.353 -60.677)" fill="#8dc63f"/>
      <path id="Path_2854" data-name="Path 2854" d="M188.1,122.117c0-.1.535-.187,1.244-.187s1.244.087,1.244.187-.547.2-1.244.2S188.1,122.228,188.1,122.117Z" transform="translate(-28.303 -60.677)" fill="#8dc63f"/>
      <path id="Path_2855" data-name="Path 2855" d="M184.22,122.117c0-.1.535-.187,1.244-.187s1.244.087,1.244.187-.535.2-1.244.2S184.22,122.228,184.22,122.117Z" transform="translate(-29.248 -60.677)" fill="#8dc63f"/>
      <path id="Path_2856" data-name="Path 2856" d="M180.34,122.117c0-.1.547-.187,1.244-.187s1.244.087,1.244.187-.535.2-1.244.2S180.34,122.228,180.34,122.117Z" transform="translate(-30.193 -60.677)" fill="#8dc63f"/>
      <path id="Path_2857" data-name="Path 2857" d="M176.47,122.117c0-.1.535-.187,1.244-.187s1.244.087,1.244.187-.535.2-1.244.2S176.47,122.228,176.47,122.117Z" transform="translate(-31.135 -60.677)" fill="#8dc63f"/>
      <path id="Path_2858" data-name="Path 2858" d="M174.12,122.117c0-.1.112-.187.249-.187s.261.087.261.187a.241.241,0,0,1-.261.2.224.224,0,0,1-.249-.2Z" transform="translate(-31.708 -60.677)" fill="#8dc63f"/>
      <path id="Path_2859" data-name="Path 2859" d="M213.954,112.647a5.72,5.72,0,0,0,1.107,0,3.445,3.445,0,0,0,2.288-1.729,4.626,4.626,0,0,0-.124-4.191,1.244,1.244,0,0,0-.87-.7,1.542,1.542,0,0,0-1.119.3,5.323,5.323,0,0,0-1.405,2.338,10.832,10.832,0,0,0-.622,3h-.41c0-3.2-.062-5.982-.062-7.971v-2.338a3.52,3.52,0,0,1,0-.846,4.251,4.251,0,0,1,.087.846,20.977,20.977,0,0,0,.1,2.338c.075,1.99.149,4.775.211,7.971h-.41a11.191,11.191,0,0,1,.647-3.109,12.284,12.284,0,0,1,.6-1.368,3.4,3.4,0,0,1,.945-1.157,1.928,1.928,0,0,1,1.443-.373,1.691,1.691,0,0,1,1.119.9,4.875,4.875,0,0,1,0,4.539,3.47,3.47,0,0,1-2.487,1.729,2.612,2.612,0,0,1-.846,0,.771.771,0,0,1-.187-.174Z" transform="translate(-22.309 -65.894)" fill="#8dc63f"/>
      <path id="Path_2860" data-name="Path 2860" d="M125.24,276.962a1.431,1.431,0,0,1,.51.149c.336.149.833.261,1.467.522a28.6,28.6,0,0,1,5.3,2.761,29.386,29.386,0,0,1,6.964,6.4,25.9,25.9,0,0,1,5.2,11.341,25.257,25.257,0,0,1-1.928,14.923,23.466,23.466,0,0,1-4.85,6.964,22.544,22.544,0,0,1-3.47,2.81c-.659.373-1.244.771-1.99,1.119s-1.368.684-2.1.945c-5.795,2.3-12.436,2.4-19.1,1.766-3.333-.323-6.69-.808-10.11-1.343a61.227,61.227,0,0,1-10.234-2.375,25.928,25.928,0,0,1-9.165-5.148,20.728,20.728,0,0,1-3.358-3.954,21.377,21.377,0,0,1-2.151-4.639,24.038,24.038,0,0,1-.982-9.812,26.251,26.251,0,0,1,2.711-9.041,30.206,30.206,0,0,1,12.336-12.137,40.827,40.827,0,0,1,14.45-4.6,56.544,56.544,0,0,1,12.535-.087,83.619,83.619,0,0,1,9.339,1.53c2.487.572,4.477,1.094,5.795,1.455l1.492.435.51.174-.522-.124-1.5-.386c-1.318-.336-3.271-.833-5.807-1.368a83.561,83.561,0,0,0-9.339-1.43,55.424,55.424,0,0,0-12.436.149,40.777,40.777,0,0,0-14.288,4.614,29.846,29.846,0,0,0-12.125,11.988,25.655,25.655,0,0,0-2.624,8.9,23.7,23.7,0,0,0,.97,9.613,20.419,20.419,0,0,0,2.089,4.527,19.993,19.993,0,0,0,3.258,3.855,25.716,25.716,0,0,0,8.991,5.049,61.114,61.114,0,0,0,10.172,2.35c3.395.535,6.765,1.02,10.073,1.343,6.591.634,13.194.547,18.89-1.716a22.1,22.1,0,0,0,12.2-11.565,25.045,25.045,0,0,0,1.965-14.7,25.8,25.8,0,0,0-5.086-11.192,29.659,29.659,0,0,0-6.84-6.4,31.086,31.086,0,0,0-5.235-2.835c-.634-.261-1.119-.423-1.455-.56Z" transform="translate(-55.825 -23.828)" fill="#263238"/>
      <path id="Path_2861" data-name="Path 2861" d="M90.1,305.152a3.991,3.991,0,0,1-1.007.124l-2.773.137H85.4a3.9,3.9,0,0,1-1.057,0,.908.908,0,0,1-.522-.423,1.53,1.53,0,0,1-.162-.6l-.075-1.132c-.087-1.567-.187-3.258-.286-4.974s-.211-3.47-.224-5.049a4.489,4.489,0,0,1,.522-2.226,3.134,3.134,0,0,1,1.517-1.244,6.329,6.329,0,0,1,2.8-.311,3.26,3.26,0,0,1,1.007.187,5.866,5.866,0,0,1-1.02,0,6.566,6.566,0,0,0-2.649.435A2.686,2.686,0,0,0,84,291.261a4.178,4.178,0,0,0-.435,2.015c0,1.517.187,3.246.261,4.974s.174,3.47.261,4.974c.075.734-.087,1.654.423,1.778a3.231,3.231,0,0,0,.933,0h3.731a3.643,3.643,0,0,1,.92.149Z" transform="translate(-53.884 -19.884)" fill="#263238"/>
      <path id="Path_2862" data-name="Path 2862" d="M88.616,295.567a7.248,7.248,0,0,1-2.587.3,7.113,7.113,0,0,1-2.6-.2,6.938,6.938,0,0,1,2.587-.3A7.063,7.063,0,0,1,88.616,295.567Z" transform="translate(-53.796 -18.444)" fill="#263238"/>
      <path id="Path_2863" data-name="Path 2863" d="M99.542,293.733a22.1,22.1,0,0,1-3.942.2,24.96,24.96,0,0,1-3.93,0,11.666,11.666,0,0,1,3.917-.535A12.214,12.214,0,0,1,99.542,293.733Z" transform="translate(-51.789 -18.923)" fill="#263238"/>
      <path id="Path_2864" data-name="Path 2864" d="M100.142,298.495a12.671,12.671,0,0,1-3.9.274,12.362,12.362,0,0,1-3.867-.46,20.269,20.269,0,0,1,3.88,0,21.551,21.551,0,0,1,3.892.187Z" transform="translate(-51.619 -17.741)" fill="#263238"/>
      <path id="Path_2865" data-name="Path 2865" d="M117.755,303.171v-1.517a15.085,15.085,0,0,0-.746-4.079,4.153,4.153,0,0,0-1.443-2.35,1.243,1.243,0,0,0-1.355.087,3.407,3.407,0,0,0-1.032,1.244,17.41,17.41,0,0,0-1.244,7.723h-.485a32.741,32.741,0,0,0-.075-5.72,22.772,22.772,0,0,0-.323-2.3,2.984,2.984,0,0,0-1.045-1.791,1.554,1.554,0,0,0-1.816,0,2.761,2.761,0,0,0-1.144,1.567,10.622,10.622,0,0,0-.348,1.977c-.075.659-.137,1.306-.162,1.94a30.609,30.609,0,0,0,0,3.544h-.386c-.1-2.8-.187-5.086-.249-6.765v-1.84a2.6,2.6,0,0,1,0-.647,3.422,3.422,0,0,1,.087.647l.149,1.84c.1,1.666.249,3.955.423,6.74h-.386a33.768,33.768,0,0,1,0-3.581,19.069,19.069,0,0,1,.149-1.965,10.433,10.433,0,0,1,.361-2.064,3.246,3.246,0,0,1,1.318-1.84,2.263,2.263,0,0,1,1.244-.348,2.114,2.114,0,0,1,1.244.41,3.469,3.469,0,0,1,1.244,2.077,22.1,22.1,0,0,1,.348,2.363,33.711,33.711,0,0,1,0,5.807H111.6a17.41,17.41,0,0,1,1.368-7.9,3.644,3.644,0,0,1,1.244-1.418,1.629,1.629,0,0,1,1.766-.087,4.415,4.415,0,0,1,1.554,2.574,14.451,14.451,0,0,1,.622,4.178,5.519,5.519,0,0,1-.062,1.132A1.542,1.542,0,0,1,117.755,303.171Z" transform="translate(-48.327 -18.848)" fill="#263238"/>
      <path id="Path_2866" data-name="Path 2866" d="M125.681,302.43a1.933,1.933,0,0,1-.6.423,4.713,4.713,0,0,1-1.928.472,5.049,5.049,0,0,1-2.86-.783,4.974,4.974,0,0,1-1.592-6.578,5.1,5.1,0,0,1,2.189-2,4.652,4.652,0,0,1,1.928-.46,1.729,1.729,0,0,1,.721.1,7.165,7.165,0,0,0-2.487.672,4.974,4.974,0,0,0-1.94,1.915,4.688,4.688,0,0,0,1.443,5.981,4.9,4.9,0,0,0,2.611.808,6.827,6.827,0,0,0,2.512-.547Z" transform="translate(-45.359 -18.89)" fill="#263238"/>
      <path id="Path_2867" data-name="Path 2867" d="M127.843,291a25.429,25.429,0,0,0-5.534.958l-.833.274.622-.634a17.323,17.323,0,0,0,3.084-3.731,5.6,5.6,0,0,0,.647-3.818c-.137-.584-.485-1.045-.958-1.057a3.034,3.034,0,0,0-1.405.373,5.483,5.483,0,0,0-1.716,1.38c-.336.41-.473.684-.51.659a1.654,1.654,0,0,1,.361-.771,4.713,4.713,0,0,1,1.7-1.567,3.208,3.208,0,0,1,1.592-.485,1.243,1.243,0,0,1,.908.435,2.176,2.176,0,0,1,.46.908,5.907,5.907,0,0,1-.647,4.178,16.067,16.067,0,0,1-3.221,3.843l-.211-.373a15.372,15.372,0,0,1,4.079-.647,4.49,4.49,0,0,1,1.579.075Z" transform="translate(-44.587 -21.549)" fill="#263238"/>
    </g>
    <g id="freepik--Character--inject-95" transform="translate(146.298 165.763)">
      <path id="Path_2868" data-name="Path 2868" d="M194.979,278.521l26.5-5.111,50.837,11.665,25.767,5.372.373,35.205-57.477,10.583-38.787-11.49L187.53,303.168Z" transform="translate(-106.674 -116.872)" fill="#ffbe9d"/>
      <path id="Path_2869" data-name="Path 2869" d="M187.121,281.494l25.008-5.894s17.683,54.717,61.32,52.317c35.566-1.928,35.6-38,35.6-38l26,4.589s10.906,66.021-1.045,112.331c-9.948,38.55-18.778,91.377-18.778,91.377H142.49l44.631-216.715Z" transform="translate(-117.644 -116.338)" fill="#8dc63f"/>
      <path id="Path_2870" data-name="Path 2870" d="M405.035,447S333.791,322.188,320.97,306.171c-14.04-17.534-25.244-15.507-25.244-15.507l-7.536,84.077,60.574,85.942,14.438,5.211Z" transform="translate(-82.157 -112.687)" fill="#8dc63f"/>
      <path id="Path_2871" data-name="Path 2871" d="M194.972,279.78s-40.49,3.233-55.015,69.639c-6.566,30.007-14.923,65.175-17.261,88.8-1.741,17.149,8.842,34.981,25.941,37.17l21.464,3.979a22.533,22.533,0,0,0,26.015-16.863l7.25-30.02L184.054,426l4.464-89.424Z" transform="translate(-122.51 -115.32)" fill="#8dc63f"/>
      <path id="Path_2872" data-name="Path 2872" d="M302.012,328.12a4.4,4.4,0,0,1,.186.92c.112.671.236,1.567.41,2.674.087.584.174,1.244.286,1.94s.149,1.48.224,2.313c.174,1.654.373,3.544.46,5.646a136.074,136.074,0,0,1,.1,14.761,177.127,177.127,0,0,1-1.791,17.982c-.933,6.342-2.1,12.336-3.283,17.758s-2.363,10.284-3.37,14.363-1.89,7.349-2.487,9.613c-.3,1.082-.535,1.952-.721,2.6a7.014,7.014,0,0,1-.286.9,5.06,5.06,0,0,1,.162-.92c.149-.672.361-1.542.609-2.636l2.288-9.712c.957-4.091,2.1-8.954,3.233-14.376s2.3-11.4,3.233-17.733,1.567-12.436,1.828-17.92a131.137,131.137,0,0,0,0-14.7c0-2.089-.224-3.979-.361-5.646-.062-.821-.124-1.592-.174-2.313s-.162-1.343-.224-1.94c-.124-1.107-.211-2-.286-2.674a6.709,6.709,0,0,1-.037-.9Z" transform="translate(-81.292 -103.546)" fill="#263238"/>
      <path id="Path_2873" data-name="Path 2873" d="M193.851,423.086a3.462,3.462,0,0,1-.211-.547c-.124-.41-.3-.933-.51-1.6l-.8-2.574a7.673,7.673,0,0,0-1.443-3.221,10.283,10.283,0,0,0-3.731-2.288,29.935,29.935,0,0,0-5.049-1.418,74.844,74.844,0,0,0-12.436-1.244h-.336v-.323L173,386.028c2.35-15.01,4.489-28.6,6.044-38.55.808-4.875,1.455-8.842,1.915-11.652.224-1.331.41-2.388.547-3.171a3.419,3.419,0,0,1,.162-.821.821.821,0,0,1,.075-.274.721.721,0,0,1,0,.286,2.728,2.728,0,0,1-.1.833c-.1.783-.249,1.84-.423,3.184-.41,2.823-.995,6.8-1.7,11.689-1.517,9.948-3.581,23.516-5.87,38.55-1.343,8.581-2.6,16.7-3.731,23.827l-.286-.336A74.033,74.033,0,0,1,182.2,411a29.853,29.853,0,0,1,5.111,1.5,10.347,10.347,0,0,1,3.843,2.487,4.626,4.626,0,0,1,.97,1.729l.46,1.654c.286,1.007.522,1.878.721,2.6s.323,1.244.423,1.629a2.685,2.685,0,0,1,.124.485Z" transform="translate(-111.104 -102.709)" fill="#263238"/>
      <path id="Path_2874" data-name="Path 2874" d="M144.2,417.927a7,7,0,0,1,.323-1.666,25.971,25.971,0,0,1,1.567-4.365,29.709,29.709,0,0,1,23.764-17.3,25.942,25.942,0,0,1,4.626-.149,7.582,7.582,0,0,1,1.691.211,55.4,55.4,0,0,0-6.218.386,30.654,30.654,0,0,0-23.416,17.037,58.843,58.843,0,0,0-2.338,5.845Z" transform="translate(-117.227 -87.402)" fill="#263238"/>
      <path id="Path_2875" data-name="Path 2875" d="M151.73,386.759a3.069,3.069,0,0,1,.97-.087,20.559,20.559,0,0,1,2.674.124,30.482,30.482,0,0,1,8.543,2.139,31.164,31.164,0,0,1,7.586,4.489,20.043,20.043,0,0,1,1.977,1.791c.435.46.671.721.634.759s-1.094-.87-2.885-2.189a35.838,35.838,0,0,0-15.918-6.541C153.11,386.92,151.73,386.87,151.73,386.759Z" transform="translate(-115.393 -89.288)" fill="#263238"/>
      <path id="Path_2876" data-name="Path 2876" d="M187.785,326.044a10.086,10.086,0,0,1-.087-1.778c0-1.144-.075-2.786-.224-4.813a78.466,78.466,0,0,0-2.711-15.632,79.822,79.822,0,0,0-5.832-14.749c-.945-1.8-1.741-3.246-2.325-4.216a10.046,10.046,0,0,1-.846-1.567,9.379,9.379,0,0,1,1.057,1.43,45.219,45.219,0,0,1,2.487,4.141,69.639,69.639,0,0,1,8.581,30.567,47.287,47.287,0,0,1,0,4.837,9,9,0,0,1-.1,1.778Z" transform="translate(-109.54 -114.465)" fill="#263238"/>
      <g id="Group_233" data-name="Group 233" transform="translate(218.568 221.825)" opacity="0.3">
        <path id="Path_2877" data-name="Path 2877" d="M298.581,384.357c10.322-17.5,10.545-40.229,1.53-58.447a163.279,163.279,0,0,1-1.841,58.373" transform="translate(-298.27 -325.91)"/>
      </g>
      <g id="Group_234" data-name="Group 234" transform="translate(100.654 285.732)" opacity="0.3">
        <path id="Path_2878" data-name="Path 2878" d="M229.776,391.626c-7.834,2.3-18.653,2.86-26.326,0,5.982,8.493,17.509,11.565,27.508,8.8s19.225-12.771,20-23.13C246.117,383.841,237.623,389.363,229.776,391.626Z" transform="translate(-203.45 -377.3)"/>
      </g>
      <path id="Path_2879" data-name="Path 2879" d="M259.018,366.1a3.255,3.255,0,0,1-.187.7c-.149.448-.323,1.132-.672,1.952a40.518,40.518,0,0,1-3.37,6.827,43.787,43.787,0,0,1-7.076,8.8,42.828,42.828,0,0,1-24.61,11.814,43.885,43.885,0,0,1-11.291,0,41.894,41.894,0,0,1-7.461-1.629c-.871-.261-1.5-.547-1.952-.709a4.349,4.349,0,0,1-.659-.286,27.348,27.348,0,0,1,2.674.746A44.478,44.478,0,0,0,257.9,368.637C258.62,367.02,258.956,366.075,259.018,366.1Z" transform="translate(-103.213 -94.296)" fill="#263238"/>
      <path id="Path_2880" data-name="Path 2880" d="M186.089,436.11a1.837,1.837,0,0,1-.311.336,8.56,8.56,0,0,1-1.007.858,15.755,15.755,0,0,1-4.278,2.263,24.537,24.537,0,0,1-7.063,1.243,64.661,64.661,0,0,1-8.7-.311c-6.218-.535-11.739-1.443-15.731-2.151-2-.361-3.619-.672-4.725-.908a8.469,8.469,0,0,1-1.729-.423,10.7,10.7,0,0,1,1.766.174l4.763.7c4,.609,9.551,1.43,15.719,1.965a70.8,70.8,0,0,0,8.7.361,25.38,25.38,0,0,0,6.939-1.119A21.39,21.39,0,0,0,186.089,436.11Z" transform="translate(-117.631 -77.245)" fill="#263238"/>
      <path id="Path_2881" data-name="Path 2881" d="M300.571,173.974,305.682,169c6.8,2.96,9.948,10.856,11.1,18.193s.982,15.047,4.1,21.787c2.388,5.186,6.728,9.948,6.218,15.681-.485,5.409-5.385,9.787-5.409,15.221,0,5.235,4.352,9.252,6.889,13.828,5.136,9.264,8.469,47.168,5.783,57.428-22.6-1.952-62.613-4.365-85.221-9.563C255.107,262.628,280.189,207.662,300.571,173.974Z" transform="translate(-91.666 -142.302)" fill="#263238"/>
      <path id="Path_2882" data-name="Path 2882" d="M264.81,295.87Z" transform="translate(-87.851 -111.401)" fill="#ffbe9d"/>
      <path id="Path_2883" data-name="Path 2883" d="M319.606,211.548c1.567-26.475-17.659-50.7-44.457-53.9-28.44-3.382-53.6,16.987-55.96,44.694l-6.665,111.846a9.712,9.712,0,0,0,1.716,6.081c6.566,9.6,18.454,17.111,29.087,18.591,10.284,1.43,20.718-1.244,29.472-6.118a9.526,9.526,0,0,0,4.837-8.183l.46-25.033a.149.149,0,0,1,.162-.162,33.989,33.989,0,0,0,7.026-.2c6.616-1.617,23.491-8.108,29.161-32.88C316.335,258.082,318.226,234.765,319.606,211.548Z" transform="translate(-100.59 -145.155)" fill="#ffbe9d"/>
      <path id="Path_2884" data-name="Path 2884" d="M269.05,237.445c0-.249,2.773-.522,7.262-.771,1.132,0,2.214-.187,2.487-.933a5.571,5.571,0,0,0-.547-3.333l-2.786-8.7c-3.855-12.336-6.566-22.446-6.069-22.583s4.042,9.725,7.9,22.061q1.38,4.57,2.649,8.7c.348,1.244.982,2.761.3,4.39a2.773,2.773,0,0,1-1.952,1.48,7.708,7.708,0,0,1-1.927.137C271.836,237.867,269.062,237.693,269.05,237.445Z" transform="translate(-86.819 -134.479)" fill="#263238"/>
      <path id="Path_2885" data-name="Path 2885" d="M295.778,209.372c-.485.535-3.42-1.928-7.623-2.052s-7.337,2.077-7.785,1.5c-.224-.261.286-1.244,1.654-2.263a10.086,10.086,0,0,1,6.218-1.89A9.948,9.948,0,0,1,294.3,207C295.6,208.116,296.089,209.135,295.778,209.372Z" transform="translate(-84.074 -133.615)" fill="#263238"/>
      <path id="Path_2886" data-name="Path 2886" d="M261.716,210.37c-.572.535-3.631-2.238-8.22-2.636s-8.158,1.7-8.618,1.082c-.224-.286.4-1.244,1.952-2.263a11.416,11.416,0,0,1,6.914-1.542,11.192,11.192,0,0,1,6.491,2.823C261.592,209.039,261.99,210.134,261.716,210.37Z" transform="translate(-92.717 -133.544)" fill="#263238"/>
      <path id="Path_2887" data-name="Path 2887" d="M272.62,274.251s-17.136.187-37.63-13.891c0,0,5.3,22.608,37.493,21.9Z" transform="translate(-95.114 -120.05)" fill="#eb996e"/>
      <path id="Path_2888" data-name="Path 2888" d="M269.611,239.3a8.071,8.071,0,0,0-6.939-3.395,7.262,7.262,0,0,0-5.186,2.288,4.464,4.464,0,0,0-.684,5.148c1.082,1.729,3.544,2.288,5.7,1.84a16.8,16.8,0,0,0,5.87-2.935A5.174,5.174,0,0,0,269.711,241a1.455,1.455,0,0,0,.1-1.617" transform="translate(-89.929 -126.009)" fill="#eb996e"/>
      <path id="Path_2889" data-name="Path 2889" d="M258.621,232c.721,0,.435,4.726,4.315,8.357s9.016,3.457,9.016,4.116c0,.311-1.244.846-3.358.746a12.162,12.162,0,0,1-7.536-3.171,10.222,10.222,0,0,1-3.308-6.976C257.689,233.094,258.3,232,258.621,232Z" transform="translate(-89.572 -126.957)" fill="#263238"/>
      <path id="Path_2890" data-name="Path 2890" d="M262.97,196.144c-.522,1.144-4.887.261-10.1.473s-9.5,1.244-10.123.187c-.261-.535.535-1.579,2.313-2.6a17.783,17.783,0,0,1,15.4-.5C262.261,194.6,263.144,195.6,262.97,196.144Z" transform="translate(-93.236 -136.653)" fill="#263238"/>
      <path id="Path_2891" data-name="Path 2891" d="M296.912,196.995c-.9.995-4.44,0-8.7,0s-7.847.709-8.7-.323c-.373-.5.187-1.492,1.753-2.487a14.5,14.5,0,0,1,14,.3C296.8,195.49,297.31,196.51,296.912,196.995Z" transform="translate(-84.3 -136.571)" fill="#263238"/>
      <path id="Path_2892" data-name="Path 2892" d="M280.263,154.432c-2.313-3.93-6.6-5.72-11.4-6.442-19.6-2.972-41.46,8.829-52.441,25.319s-11.565,41.1-3.532,59.206l12.224-7.635c24.535-10.123,41.858-33.763,57.639-58.186C284.951,163.373,282.315,157.851,280.263,154.432Z" transform="translate(-101.825 -147.531)" fill="#263238"/>
      <path id="Path_2893" data-name="Path 2893" d="M296.514,164.553c-8.2-9.327-14.152-18.653-31.164-12.137-2.487,4.763,2.487,10.943,6.765,14.55,6.218,5.3,11.553,8.867,15.607,12.659,8.183,7.648,17.484,33.377,18.293,47.417,0,.883,1.554-12.05,2.487-12.187,1.144-.174,5.758-5.82,5.123-13.53C311.437,174.974,304.709,173.867,296.514,164.553Z" transform="translate(-87.882 -146.871)" fill="#263238"/>
      <path id="Path_2894" data-name="Path 2894" d="M256.87,147.925a7,7,0,0,1,3.818.323,16.515,16.515,0,0,1,7.735,5.086,13.864,13.864,0,0,1,1.542,2.176,11.118,11.118,0,0,1,.9,2.35,25.706,25.706,0,0,1,1.007,4.029c.336,2.4-.236,3.855-.361,3.818a29.123,29.123,0,0,0-.46-3.668A37.515,37.515,0,0,0,269.8,158.2a11.911,11.911,0,0,0-.871-2.127,14.039,14.039,0,0,0-1.442-2.015,18.28,18.28,0,0,0-7.1-5.049C258.275,148.249,256.845,148.124,256.87,147.925Z" transform="translate(-89.785 -147.466)" fill="#455a64"/>
      <path id="Path_2895" data-name="Path 2895" d="M291.082,215.666a3.731,3.731,0,0,1-3.519,3.731,3.569,3.569,0,0,1-3.892-3.3,3.731,3.731,0,0,1,3.519-3.818,3.557,3.557,0,0,1,3.892,3.382Z" transform="translate(-83.258 -131.764)" fill="#263238"/>
      <path id="Path_2896" data-name="Path 2896" d="M258.142,215.809a3.731,3.731,0,0,1-3.519,3.818,3.557,3.557,0,0,1-3.892-3.283,3.731,3.731,0,0,1,3.519-3.83,3.557,3.557,0,0,1,3.892,3.3Z" transform="translate(-91.281 -131.708)" fill="#263238"/>
      <path id="Path_2897" data-name="Path 2897" d="M167.567,262.028c2.313-3.805,4.974-7.387,9.2-8.966s9.028-2.487,12.349-5.571c5.211-4.788,4.974-12.746,4.5-19.686s-.6-14.923,4.726-19.586c4.452-3.892,11.528-4.241,15.383-8.7,2.574-2.972,3.084-7.076,3.979-10.869,2.487-10.16,8.046-27.905,37.991-38.115L229.21,251.184c1.977.56,6.7,5.061,6.964,8.108.236,2.848-.995,5.733-1.02,8.593,0,3.494,3.805,5.584,6.218,8.17,3.059,3.3,4,8.046,3.532,12.436a87.321,87.321,0,0,1-4.788,17.547c-24.573-2.487-60.437-3.283-79.165-18.952C157.556,284.25,162.419,270.5,167.567,262.028Z" transform="translate(-113.422 -146.8)" fill="#263238"/>
      <path id="Path_2898" data-name="Path 2898" d="M225.56,210.032c-.46-.249-18.554-7.461-19.71,11.627s18.206,16.253,18.268,15.719S225.56,210.032,225.56,210.032Z" transform="translate(-102.224 -132.683)" fill="#ffbe9d"/>
      <path id="Path_2899" data-name="Path 2899" d="M217.792,228.637c-.087-.075-.348.211-.933.423a3.308,3.308,0,0,1-2.487-.087c-1.965-.87-3.47-4.166-3.358-7.6a11.08,11.08,0,0,1,1.244-4.688,3.88,3.88,0,0,1,2.649-2.4,1.691,1.691,0,0,1,1.9,1.032c.224.547.075.92.174.958s.435-.3.323-1.094a2.077,2.077,0,0,0-.672-1.244,2.487,2.487,0,0,0-1.8-.6,4.651,4.651,0,0,0-3.644,2.736,11.329,11.329,0,0,0-1.467,5.248c-.112,3.843,1.629,7.548,4.34,8.506a3.507,3.507,0,0,0,3.059-.323C217.73,229.085,217.854,228.674,217.792,228.637Z" transform="translate(-101.27 -131.504)" fill="#eb996e"/>
      <path id="Path_2900" data-name="Path 2900" d="M276.14,217.276a30.117,30.117,0,0,1,.609-4.265,17.41,17.41,0,0,1,22.583-12.324,16.167,16.167,0,0,1,4.4,2.288,15.917,15.917,0,0,1,3.731,3.606,17.161,17.161,0,0,1,.323,20.394,16.166,16.166,0,0,1-3.581,3.731,15.891,15.891,0,0,1-4.328,2.425,17.3,17.3,0,0,1-9.066.92,17.111,17.111,0,0,1-7.349-3.1,17.509,17.509,0,0,1-6.554-9.414,32.346,32.346,0,0,1-.746-4.253,2.6,2.6,0,0,0,0,.286v.846a8.875,8.875,0,0,0,.137,1.355,11.927,11.927,0,0,0,.348,1.828,17.691,17.691,0,0,0,23.429,12.087,17.84,17.84,0,0,0,7.884-27.483,16.851,16.851,0,0,0-3.855-3.731,16.538,16.538,0,0,0-4.514-2.288,17.683,17.683,0,0,0-23.031,12.846,13.345,13.345,0,0,0-.3,1.84,9.811,9.811,0,0,0-.087,1.368c0,.336,0,.609,0,.833Q276.154,217.176,276.14,217.276Z" transform="translate(-85.092 -134.941)" fill="#455a64"/>
      <path id="Path_2901" data-name="Path 2901" d="M237.53,217.909a30.965,30.965,0,0,1,.6-4.265,17.522,17.522,0,0,1,6.218-9.625,17.2,17.2,0,0,1,7.25-3.333,17.41,17.41,0,0,1,9.09.634,16.526,16.526,0,0,1,4.4,2.288,16.165,16.165,0,0,1,3.731,3.606,17.173,17.173,0,0,1,.336,20.382,16.289,16.289,0,0,1-3.594,3.731,15.856,15.856,0,0,1-4.328,2.425,17.3,17.3,0,0,1-9.066.92,17.049,17.049,0,0,1-7.337-3.1,17.547,17.547,0,0,1-6.566-9.414,31.09,31.09,0,0,1-.734-4.253,1.019,1.019,0,0,0,0,.286c0,.224,0,.51,0,.846a7.36,7.36,0,0,0,.124,1.355,10.72,10.72,0,0,0,.361,1.828,17.41,17.41,0,0,0,6.529,9.725,17.671,17.671,0,0,0,7.461,3.258,17.894,17.894,0,0,0,9.364-.9,17.842,17.842,0,0,0-.535-33.564,17.758,17.758,0,0,0-23.068,12.834,10.392,10.392,0,0,0-.3,1.84,6.985,6.985,0,0,0-.087,1.368v.833A.745.745,0,0,0,237.53,217.909Z" transform="translate(-94.533 -134.802)" fill="#455a64"/>
      <path id="Path_2902" data-name="Path 2902" d="M265.1,214.149c.1.062.6-.746,1.753-1.679a8.481,8.481,0,0,1,10.6-.187c1.244.883,1.716,1.679,1.8,1.6a4.452,4.452,0,0,0-1.517-1.965,8.319,8.319,0,0,0-11.192.211A4.489,4.489,0,0,0,265.1,214.149Z" transform="translate(-87.781 -132.349)" fill="#455a64"/>
      <path id="Path_2903" data-name="Path 2903" d="M218.17,208.75a17.15,17.15,0,0,0,3.519.721c2.2.348,5.248.672,8.605.97l8.618.771a23.491,23.491,0,0,0,3.569.274,17.311,17.311,0,0,0-3.519-.734c-2.189-.336-5.235-.659-8.605-.958l-8.605-.771a21.8,21.8,0,0,0-3.581-.274Z" transform="translate(-99.211 -132.62)" fill="#455a64"/>
      <path id="Path_2904" data-name="Path 2904" d="M298.46,224.938a22.533,22.533,0,0,0,3.731-6.006,22.856,22.856,0,0,0,1.082-7,4.974,4.974,0,0,1,.373,2.114,13.754,13.754,0,0,1-.846,5.111,13.518,13.518,0,0,1-2.686,4.427C299.206,224.552,298.51,225,298.46,224.938Z" transform="translate(-79.656 -131.846)" fill="#fff"/>
      <path id="Path_2905" data-name="Path 2905" d="M300.884,206.6c.1-.149.808.211,1.244,1.057s.249,1.617.075,1.6-.323-.647-.659-1.331S300.772,206.733,300.884,206.6Z" transform="translate(-79.07 -133.153)" fill="#fff"/>
      <path id="Path_2906" data-name="Path 2906" d="M263.782,222.7c-.1,0,.249-.995.535-2.6a17.758,17.758,0,0,0-2.276-12.2c-.833-1.393-1.5-2.164-1.43-2.238a6.753,6.753,0,0,1,1.816,1.99,15.818,15.818,0,0,1,2.4,12.535,6.792,6.792,0,0,1-1.045,2.512Z" transform="translate(-88.875 -133.373)" fill="#fff"/>
      <path id="Path_2907" data-name="Path 2907" d="M210.375,231.773a12.287,12.287,0,0,0-.634,1.057A6.616,6.616,0,0,0,208.92,236a5.832,5.832,0,0,0,1.766,4.328,6.218,6.218,0,0,0,5.372,1.729,6.342,6.342,0,0,0,4.452-3.494,5.907,5.907,0,0,0,.137-4.676,6.753,6.753,0,0,0-1.865-2.686c-.6-.51-.995-.721-.97-.771a2.861,2.861,0,0,1,1.119.572,6.38,6.38,0,0,1,2.139,2.711,6.218,6.218,0,0,1,0,5.1,6.566,6.566,0,0,1-10.794,1.94,6.218,6.218,0,0,1-1.8-4.763,6.355,6.355,0,0,1,1.057-3.283A2.67,2.67,0,0,1,210.375,231.773Z" transform="translate(-101.576 -127.34)" fill="#e0e0e0"/>
      <path id="Path_2908" data-name="Path 2908" d="M294.47,246.13a5.26,5.26,0,0,0,3.308.2,6.491,6.491,0,0,0,3.047-1.878,7.884,7.884,0,0,0,1.965-3.9,7.088,7.088,0,0,0-.522-4.328,7.909,7.909,0,0,0-2.226-2.848,12.947,12.947,0,0,0-2.985-1.629,2.138,2.138,0,0,1,.933.124A7.25,7.25,0,0,1,300.328,233a8.145,8.145,0,0,1,2.487,2.972,7.461,7.461,0,0,1,.622,4.688,8.319,8.319,0,0,1-2.189,4.216,6.716,6.716,0,0,1-3.37,1.9,4.639,4.639,0,0,1-2.6-.137C294.694,246.4,294.445,246.155,294.47,246.13Z" transform="translate(-80.628 -127.022)" fill="#e0e0e0"/>
      <path id="Path_2909" data-name="Path 2909" d="M256.281,452.421l18.442,5.459s10.172,4.365,15.122,5.5c6.143,1.405,10.334-.5,10.558-3.917s-4.551-3.855-4.551-3.855a94.507,94.507,0,0,1-11.814-5.459,20.929,20.929,0,0,1-6.591-7.461l6.591.908s13.866,9.948,19.089,12.958,6.367-2.276,6.815-3.867S294.5,434.962,294.5,434.962s15.221,9.774,17.945,12.212,6.827,3.233,7.735,1.654,3.407-1.592,0-8.332S289.5,415.624,289.5,415.624l7.461-1.592,8.183,3.644a20.158,20.158,0,0,0,3.407,7.785c2.947,4.377,8.183,0,8.183,0l-3.246-16.788L297.319,398.55s-16.813,2.052-19.312,3.184-5.235,5.894-5.235,5.894l-4.539,1.84c-7.051,2.039-6.815,9.09-9.09,9.314s-68.607-12.709-68.607-12.709l-6.006-1.567c-9.948,7.548-13.915,20.021-15.669,31.089,0,0-1.828,5.422,0,8.406Z" transform="translate(-111.419 -86.393)" fill="#ffbe9d"/>
      <path id="Path_2910" data-name="Path 2910" d="M229.226,436.652a3.4,3.4,0,0,1-.062-1.082,6.219,6.219,0,0,1,.112-1.244,9.512,9.512,0,0,1,.323-1.666,23.5,23.5,0,0,1,4.638-8.543,50.813,50.813,0,0,1,6.864-6.877,20.321,20.321,0,0,1,3.221-2.4,33.388,33.388,0,0,1-2.922,2.686,64.334,64.334,0,0,0-6.666,6.939,25.617,25.617,0,0,0-4.688,8.27C229.313,435.11,229.362,436.664,229.226,436.652Z" transform="translate(-96.538 -82.425)" fill="#eb996e"/>
      <path id="Path_2911" data-name="Path 2911" d="M255.638,405.85a9.508,9.508,0,0,0-1.393.97,15.1,15.1,0,0,0-3.022,3.47,16.487,16.487,0,0,0-1.517,2.8,15.112,15.112,0,0,0-.721,3.557,8.954,8.954,0,0,1-1.467,3.93,15.945,15.945,0,0,0-2.2,3.731,9.949,9.949,0,0,0,0,7.014l.087.236-.211.137a13.829,13.829,0,0,0-5.857,8.046,22.384,22.384,0,0,0-.56,3.979,3.233,3.233,0,0,1-.124-1.069,12.511,12.511,0,0,1,.323-3,13.8,13.8,0,0,1,5.895-8.481l-.124.373a10.645,10.645,0,0,1,0-7.461,15.4,15.4,0,0,1,2.288-3.818,8.407,8.407,0,0,0,1.393-3.731,11.7,11.7,0,0,1,2.487-6.5,13.568,13.568,0,0,1,3.258-3.42,4.974,4.974,0,0,1,1.119-.634,1.453,1.453,0,0,1,.348-.124Z" transform="translate(-94.224 -84.615)" fill="#eb996e"/>
      <path id="Path_2912" data-name="Path 2912" d="M266.855,412.436a10.209,10.209,0,0,1-8.7-3.084c.124-.149,1.791,1.132,4.191,1.965S266.855,412.25,266.855,412.436Z" transform="translate(-89.474 -83.765)" fill="#eb996e"/>
      <path id="Path_2913" data-name="Path 2913" d="M271.252,427.759a41.152,41.152,0,0,1-6.976-2.661,43.9,43.9,0,0,1-6.715-3.258,44.919,44.919,0,0,1,6.976,2.661,43.911,43.911,0,0,1,6.715,3.258Z" transform="translate(-89.617 -80.72)" fill="#eb996e"/>
      <path id="Path_2914" data-name="Path 2914" d="M257.923,434.47a59.7,59.7,0,0,1-7.063-2.91,9.24,9.24,0,0,1,3.731.97,8.9,8.9,0,0,1,3.333,1.94Z" transform="translate(-91.249 -78.353)" fill="#eb996e"/>
      <path id="Path_2915" data-name="Path 2915" d="M267.608,427.557a8.9,8.9,0,0,0-4.39,5.534c-.087,0-.162-.435,0-1.132a5.807,5.807,0,0,1,3.308-4.191C267.136,427.507,267.584,427.483,267.608,427.557Z" transform="translate(-88.262 -79.337)" fill="#eb996e"/>
      <path id="Path_2916" data-name="Path 2916" d="M272.714,419.447c.075.174-1.144.8-1.965,2.189a19.034,19.034,0,0,0-1.045,2.736,3.3,3.3,0,0,1,.5-3.072C271.148,419.708,272.69,419.273,272.714,419.447Z" transform="translate(-86.703 -81.312)" fill="#eb996e"/>
      <path id="Path_2917" data-name="Path 2917" d="M270.71,405.929c-.062,0-.311-.286-.5-.883a4.69,4.69,0,0,1,0-2.487,4.627,4.627,0,0,1,1.244-2.114c.448-.435.821-.585.858-.522a12.435,12.435,0,0,0-1.43,2.8,13.567,13.567,0,0,0-.174,3.208Z" transform="translate(-86.576 -86.062)" fill="#eb996e"/>
      <path id="Path_2918" data-name="Path 2918" d="M407.535,416.518s-.833-16.315-17.746-19.7-46.534,10.993-46.534,10.993l-83,57.838,2.487,7.15,84.239-11.739,7.71,2.96,59.169-38.874L469.7,384.782l-6.218-4.862s-15.644,10.782-25.99,15.42S412.186,408.111,407.535,416.518Z" transform="translate(-88.96 -90.93)" fill="#f5f5f5"/>
      <path id="Path_2919" data-name="Path 2919" d="M259.23,474.874l70.236-43.636,74.253-11.926s3.731,5.4,10.036,4.079h0l61.059-42.281,1.156,2.549L357.558,466.853a10.16,10.16,0,0,1-10.309-2.015Z" transform="translate(-89.211 -90.64)" fill="#455a64"/>
      <path id="Path_2920" data-name="Path 2920" d="M386.48,411.83a2.735,2.735,0,0,1-.572.473l-1.716,1.244c-1.492,1.069-3.644,2.624-6.218,4.589-5.273,3.917-12.436,9.5-20.171,15.831s-14.686,12.212-19.661,16.5l-5.932,5.1-1.617,1.368a2.886,2.886,0,0,1-.585.448,5.117,5.117,0,0,1,.5-.535l1.53-1.467c1.343-1.244,3.3-3.059,5.758-5.235,4.9-4.377,11.777-10.3,19.549-16.651s14.923-11.876,20.307-15.706c2.661-1.928,4.862-3.42,6.4-4.427l1.778-1.144A4.123,4.123,0,0,1,386.48,411.83Z" transform="translate(-71.971 -83.158)" fill="#263238"/>
      <path id="Path_2921" data-name="Path 2921" d="M402.517,406.324c-6.728-7.225-17.323-9.8-27.172-9.028s-19.188,4.439-28.378,8.083L261.05,464.187l.771,2.214L348.2,407.953s19.3-6.218,27.843-7.287C390.318,398.887,402.517,406.324,402.517,406.324Z" transform="translate(-88.767 -86.73)" fill="#e0e0e0"/>
      <path id="Path_2922" data-name="Path 2922" d="M385.65,416.208l41.311-27.868S393.111,405.949,385.65,416.208Z" transform="translate(-58.42 -88.879)" fill="#e0e0e0"/>
      <path id="Path_2923" data-name="Path 2923" d="M261.05,464.231a2.1,2.1,0,0,1,.348-.286l1.069-.759,4.116-2.9L281.8,449.744l50.364-34.583,14.624-9.948h0a103.63,103.63,0,0,1,26.115-7.847,39.06,39.06,0,0,1,21.414,3.022,26.547,26.547,0,0,1,6.852,4.6A20.256,20.256,0,0,1,405,409.85a16.042,16.042,0,0,1,1.492,3.594c.087.41.162.734.224.982a2.888,2.888,0,0,1,.062.336,20.309,20.309,0,0,0-1.965-4.8,20.818,20.818,0,0,0-3.855-4.738,27.434,27.434,0,0,0-6.815-4.477,39.035,39.035,0,0,0-21.141-2.835,104.523,104.523,0,0,0-25.916,7.8h.062l-14.624,9.948-50.4,34.459L266.783,460.5l-4.178,2.786-1.107.721A2.416,2.416,0,0,1,261.05,464.231Z" transform="translate(-88.767 -86.775)" fill="#263238"/>
      <path id="Path_2924" data-name="Path 2924" d="M321.53,417.9a2.712,2.712,0,0,1,.647-.4c.435-.236,1.082-.6,1.915-1.02,1.679-.871,4.129-2.089,7.213-3.482a93.766,93.766,0,0,1,25.207-7.723,54.941,54.941,0,0,1,26.115,2.388,39.545,39.545,0,0,1,7.225,3.47,16.045,16.045,0,0,1,1.816,1.244,4.04,4.04,0,0,1,.609.46s-.908-.522-2.549-1.455a43.865,43.865,0,0,0-7.25-3.246,56.259,56.259,0,0,0-25.9-2.176,99.485,99.485,0,0,0-25.107,7.461c-3.1,1.343-5.571,2.487-7.287,3.3l-1.965.908A3.731,3.731,0,0,1,321.53,417.9Z" transform="translate(-74.037 -84.903)" fill="#263238"/>
      <path id="Path_2925" data-name="Path 2925" d="M437.714,382.42a5.191,5.191,0,0,1-.535.41l-1.6,1.069-5.957,3.83c-5.049,3.233-12,7.7-19.623,12.722s-14.438,9.638-19.412,13L384.7,417.4l-1.617,1.057a2.633,2.633,0,0,1-.585.323,3.182,3.182,0,0,1,.51-.435l1.554-1.156c1.343-.995,3.308-2.4,5.758-4.129,4.9-3.445,11.714-8.133,19.35-13.157s14.637-9.426,19.735-12.56c2.549-1.567,4.626-2.81,6.069-3.656l1.679-.97a3.408,3.408,0,0,1,.56-.3Z" transform="translate(-59.187 -90.321)" fill="#263238"/>
      <path id="Path_2926" data-name="Path 2926" d="M414.079,422.26a28.95,28.95,0,0,1-3.2,5.745c-1.592,1.89-6.79,4.527-7.2,8.12s.435,12.025-5.186,18.442a31.562,31.562,0,0,1-13.319,8.7l-22.173-2.164-35.417-13.94a3.109,3.109,0,0,1-2.263-3.731,4.477,4.477,0,0,1,3.731-3.333l.846-.137s-2.039-1.666.883-4.589c2.487-2.487,7.8-1.082,10.533-.174s18.778,7.611,21.65,8.643c2.549.908,4.514,1.716,4.514,1.716s-20.531-13.853-20.817-15.669c-.336-2.176-.112-3.171,1.99-4.688,2.487-1.8,6.566.124,10.52,1.791,2.947,1.244,21.737,10.521,21.737,10.521s.846-.821,0-2.487-7.088-9.7-8.071-11.192-1.244-2.338-.261-3.594c1.368-1.778,4.974-2.624,8.295.41,2.1,1.94,9.575,6.964,9.575,6.964l34.5-25.17s4.29-.112,2.8,5.87S414.079,422.26,414.079,422.26Z" transform="translate(-73.133 -85.443)" fill="#ffbe9d"/>
      <path id="Path_2927" data-name="Path 2927" d="M377.218,436.274A8.792,8.792,0,0,1,371,431.051c.162-.1,1.169,1.443,2.885,2.873S377.3,436.087,377.218,436.274Z" transform="translate(-61.988 -78.478)" fill="#eb996e"/>
      <path id="Path_2928" data-name="Path 2928" d="M378.28,423.209c0-.075.46-.211,1.244-.112a5.385,5.385,0,0,1,4.315,3.569c.236.721.2,1.244.112,1.244a9.737,9.737,0,0,0-2.189-3.084A9.949,9.949,0,0,0,378.28,423.209Z" transform="translate(-60.215 -80.423)" fill="#eb996e"/>
      <path id="Path_2929" data-name="Path 2929" d="M380.107,430.258c-.186,0-.274-1.853-1.007-3.967s-1.766-3.669-1.617-3.731a6.952,6.952,0,0,1,2.226,3.569,6.852,6.852,0,0,1,.4,4.129Z" transform="translate(-60.413 -80.545)" fill="#eb996e"/>
      <path id="Path_2930" data-name="Path 2930" d="M396.382,418.366c0,.062-.435-.186-.883-.783a5.708,5.708,0,0,1-.622-5.534c.3-.672.634-1.007.7-.958a8.133,8.133,0,0,0,.808,7.275Z" transform="translate(-56.281 -83.339)" fill="#eb996e"/>
      <path id="Path_2931" data-name="Path 2931" d="M373.733,443.63a5.434,5.434,0,0,1-2.425,0,16.166,16.166,0,0,1-5.472-2.039,30.269,30.269,0,0,1-4.713-3.42,8.1,8.1,0,0,1-1.7-1.691,9.674,9.674,0,0,1,1.99,1.331,46.641,46.641,0,0,0,4.75,3.221,19.585,19.585,0,0,0,5.235,2.151A21.153,21.153,0,0,1,373.733,443.63Z" transform="translate(-64.808 -77.154)" fill="#eb996e"/>
      <path id="Path_2932" data-name="Path 2932" d="M376.186,439.37c.174,0,.187,1.244-.858,2.276s-2.313.982-2.288.808.982-.423,1.828-1.244S376,439.345,376.186,439.37Z" transform="translate(-61.491 -76.451)" fill="#eb996e"/>
      <path id="Path_2933" data-name="Path 2933" d="M383.194,434.371c.075,0,.075.336-.162.783a3.059,3.059,0,0,1-1.405,1.244,3.133,3.133,0,0,1-1.878.274c-.5-.1-.746-.3-.709-.373a6.013,6.013,0,0,0,2.313-.485C382.523,435.229,383.02,434.308,383.194,434.371Z" transform="translate(-60.03 -77.669)" fill="#eb996e"/>
      <path id="Path_2934" data-name="Path 2934" d="M365.511,448.848c-.062.162-8.307-3.271-18.4-7.685S328.876,433.03,329,432.881s8.319,3.283,18.417,7.7S365.586,448.687,365.511,448.848Z" transform="translate(-72.218 -78.032)" fill="#eb996e"/>
    </g>
    <g id="freepik--Desk--inject-95" transform="translate(24.84 547.348)">
      <path id="Path_2935" data-name="Path 2935" d="M584.84,454.7c0,.174-125.376.323-279.987.323S24.84,454.877,24.84,454.7s125.351-.323,280.012-.323S584.84,454.517,584.84,454.7Z" transform="translate(-24.84 -454.38)" fill="#263238"/>
    </g>
    <g id="freepik--Device--inject-95" transform="translate(40.744 408.944)">
      <path id="Path_2936" data-name="Path 2936" d="M37.74,349.313,64.725,481.79H298.95a4.676,4.676,0,0,0,4.676-4.676h0a4.676,4.676,0,0,0-4.676-4.688H251.794l-25.02-123.249a5.1,5.1,0,0,0-4.974-4.091L42.814,343.17a5.123,5.123,0,0,0-5.074,6.143Z" transform="translate(-37.628 -343.062)" fill="#e0e0e0"/>
      <path id="Path_2937" data-name="Path 2937" d="M37.742,349.334l-.075-.4a5.11,5.11,0,0,1,0-1.243,5.173,5.173,0,0,1,2.487-3.867A4.975,4.975,0,0,1,41.7,343.2a8.879,8.879,0,0,1,1.84-.112h4.216l10.545.087,67.687.634,47.181.485,26.438.261,13.853.149,7.088.075h1.816a5.459,5.459,0,0,1,1.816.535A5.335,5.335,0,0,1,226.738,348a8.32,8.32,0,0,1,.5,1.8l.361,1.778c.236,1.244.485,2.388.734,3.581q.721,3.594,1.467,7.238,1.48,7.275,3,14.736,3.034,14.923,6.218,30.5c4.216,20.767,8.618,42.368,13.132,64.665l-.311-.249h46.372a9.3,9.3,0,0,1,1.828.112,5.008,5.008,0,0,1,1.343,9.289,5.112,5.112,0,0,1-2.214.6H64.528v-.2c-8.257-40.727-14.923-73.843-19.611-96.8-2.313-11.466-4.1-20.394-5.322-26.463q-.9-4.551-1.368-6.9c-.311-1.567-.448-2.363-.448-2.363s.187.8.51,2.338.821,3.88,1.443,6.889c1.244,6.069,3.1,14.985,5.459,26.45,4.7,22.944,11.478,56.047,19.822,96.749l-.249-.2,109.968-.062H299.113a4.526,4.526,0,0,0,1.915-.51,4.4,4.4,0,0,0,2.226-3.171,4.464,4.464,0,0,0-.721-3.146,4.414,4.414,0,0,0-2.674-1.778,9.3,9.3,0,0,0-1.691-.1H251.535v-.249c-4.514-22.272-8.9-43.873-13.107-64.665q-3.171-15.594-6.218-30.517l-2.985-14.736c-.485-2.425-.982-4.837-1.467-7.225-.236-1.244-.485-2.4-.721-3.581l-.361-1.791a8.866,8.866,0,0,0-.448-1.691,4.85,4.85,0,0,0-3.93-2.885h-1.753l-7.088-.087-13.866-.149-26.426-.311-47.193-.56-67.687-.833-10.533-.137-4.216-.062a7.859,7.859,0,0,0-1.816.1A4.974,4.974,0,0,0,40.2,344a5.111,5.111,0,0,0-2.487,3.731A7.461,7.461,0,0,0,37.742,349.334Z" transform="translate(-37.629 -343.083)" fill="#263238"/>
      <circle id="Ellipse_39" data-name="Ellipse 39" cx="7.735" cy="7.735" r="7.735" transform="translate(92.571 59.14)" fill="#fff"/>
      <path id="Path_2938" data-name="Path 2938" d="M37.9,349H50.174l33.489.162,110.49.771,15.98.137h3.93a10.077,10.077,0,0,1,2,.124,5.6,5.6,0,0,1,4.278,3.992c.3,1.244.51,2.487.771,3.731l5.708,28.776c3.619,18.342,6.889,34.82,9.625,48.735s4.974,25.083,6.442,32.855c.746,3.867,1.318,6.877,1.716,8.941.187,1.007.336,1.791.435,2.338s.124.8.124.8-.075-.261-.187-.783-.286-1.318-.5-2.325l-1.841-8.867c-1.567-7.772-3.83-18.977-6.641-32.818s-6.093-30.38-9.762-48.71c-1.828-9.165-3.731-18.79-5.745-28.764-.261-1.244-.485-2.487-.759-3.731a4.974,4.974,0,0,0-2.114-2.86,4.814,4.814,0,0,0-1.679-.672,9.266,9.266,0,0,0-1.89-.112h-3.917l-15.98-.124-110.49-.97-33.489-.373-9.1-.249H37.9Z" transform="translate(-37.564 -341.642)" fill="#263238"/>
    </g>
  </g>
</svg>
