<svg xmlns="http://www.w3.org/2000/svg" width="62.005" height="62" viewBox="0 0 62.005 62">
  <g id="_622624" data-name="622624" transform="translate(0 -0.02)">
    <g id="Group_242" data-name="Group 242" transform="translate(0 0.02)">
      <g id="Group_241" data-name="Group 241" transform="translate(0 0)">
        <path id="Path_3227" data-name="Path 3227" d="M59.654,22.14,52.5,21.086a24.7,24.7,0,0,0-2.364-4.17l2.72-6.965a2.775,2.775,0,0,0-1.2-3.433L41.389.416a2.746,2.746,0,0,0-3.6.687L33.331,6.959a20.09,20.09,0,0,0-4.66,0L24.212,1.1A2.76,2.76,0,0,0,20.626.408L10.375,6.5A2.863,2.863,0,0,0,9.148,9.959l2.715,6.947A23.855,23.855,0,0,0,9.5,21.083L2.374,22.134A2.778,2.778,0,0,0,0,24.914V37.131a2.765,2.765,0,0,0,2.351,2.775L9.5,40.96a24.7,24.7,0,0,0,2.364,4.17l-2.72,6.965a2.773,2.773,0,0,0,1.2,3.433l10.308,6.128a2.829,2.829,0,0,0,1.382.364,2.742,2.742,0,0,0,2.183-1.08l4.454-5.857a24.249,24.249,0,0,0,4.663,0L37.8,60.948a2.765,2.765,0,0,0,3.586.69l2.971-1.767a1.291,1.291,0,0,0-1.32-2.219L39.847,59.38l-4.9-6.446a1.3,1.3,0,0,0-1.194-.5,25.026,25.026,0,0,1-5.492,0,1.306,1.306,0,0,0-1.194.5l-5.115,6.484L11.644,53.291a.216.216,0,0,1-.08-.266l2.971-7.606a1.291,1.291,0,0,0-.16-1.232,22.308,22.308,0,0,1-2.754-4.88,1.294,1.294,0,0,0-1.013-.8l-7.872-1.16c-.008,0-.137-.217-.145-.217V24.912l.145-.22,7.872-1.16a1.291,1.291,0,0,0,1.013-.8,21.192,21.192,0,0,1,2.746-4.867,1.292,1.292,0,0,0,.168-1.243L11.576,9.057a.287.287,0,0,1,.1-.323L22.168,2.663l4.9,6.446a1.31,1.31,0,0,0,1.194.5,18.289,18.289,0,0,1,5.492,0,1.3,1.3,0,0,0,1.194-.5l5.115-6.482L50.369,8.752a.218.218,0,0,1,.083.266l-2.971,7.606a1.291,1.291,0,0,0,.16,1.232,22.308,22.308,0,0,1,2.754,4.88,1.294,1.294,0,0,0,1.013.8L59.28,24.7c.008,0,.137.22.145.22V37.134l-.145.217-5.048.744a1.291,1.291,0,1,0,.375,2.555l5.022-.741a2.773,2.773,0,0,0,2.377-2.777V24.914A2.771,2.771,0,0,0,59.654,22.14Z" transform="translate(0 -0.02)" fill="#fff"/>
        <path id="Path_3228" data-name="Path 3228" d="M177.308,167.721a6.823,6.823,0,0,1-2.149-5.02c.137-3.188-1.2-6.231-4.077-9.3a12.329,12.329,0,0,0-8.993-4.071,12.763,12.763,0,0,0-7.913,2.9,1.288,1.288,0,0,0,.147,2.111l7.9,4.735a7.022,7.022,0,0,1-3.785,5.567l-7.068-4.242a1.393,1.393,0,0,0-1.336,0,1.292,1.292,0,0,0-.672,1.059,12.819,12.819,0,0,0,3.5,9.639,12.978,12.978,0,0,0,9.4,4.056,11.785,11.785,0,0,0,2.95-.39l16.49,16.49a6.77,6.77,0,1,0,9.574-9.574Zm9.176,22.938h-.005a4.161,4.161,0,0,1-2.961-1.227L166.5,172.41a1.3,1.3,0,0,0-.915-.377,1.233,1.233,0,0,0-.367.052,10.084,10.084,0,0,1-2.958.488,10.342,10.342,0,0,1-10.217-8.755l5.676,3.4a1.3,1.3,0,0,0,1.243.049L159.5,167a9.6,9.6,0,0,0,5.335-8.634,1.294,1.294,0,0,0-.628-1.108l-6.82-4.092a10.027,10.027,0,0,1,4.733-1.258,9.752,9.752,0,0,1,7.076,3.255c2.413,2.576,3.488,4.934,3.379,7.425a9.406,9.406,0,0,0,2.9,6.96l13.961,13.963a4.187,4.187,0,0,1-2.958,7.148Z" transform="translate(-131.251 -131.246)" fill="#fff"/>
      </g>
    </g>
  </g>
</svg>
