<svg xmlns="http://www.w3.org/2000/svg" xmlns:xlink="http://www.w3.org/1999/xlink" width="35" height="28" viewBox="0 0 35 28">
  <defs>
    <clipPath id="clip-Twitter">
      <rect width="35" height="28"/>
    </clipPath>
  </defs>
  <g id="Twitter" clip-path="url(#clip-Twitter)">
    <g id="_733635" data-name="733635" transform="translate(0.269 -48)">
      <g id="Group_731" data-name="Group 731" transform="translate(0 48)">
        <path id="Path_4598" data-name="Path 4598" d="M34.462,51.315a14.73,14.73,0,0,1-4.071,1.116,7.025,7.025,0,0,0,3.108-3.9,14.119,14.119,0,0,1-4.48,1.71A7.064,7.064,0,0,0,16.8,55.067a7.275,7.275,0,0,0,.164,1.611A20,20,0,0,1,2.4,49.288,7.067,7.067,0,0,0,4.57,58.73a6.977,6.977,0,0,1-3.192-.87v.078a7.1,7.1,0,0,0,5.66,6.942,7.051,7.051,0,0,1-1.852.233,6.247,6.247,0,0,1-1.338-.121,7.132,7.132,0,0,0,6.6,4.922,14.2,14.2,0,0,1-8.76,3.013A13.233,13.233,0,0,1,0,72.83,19.89,19.89,0,0,0,10.838,76c13,0,20.108-10.769,20.108-20.1,0-.312-.011-.614-.026-.913A14.094,14.094,0,0,0,34.462,51.315Z" transform="translate(0 -48)" fill="#fff"/>
      </g>
    </g>
  </g>
</svg>
