<svg xmlns="http://www.w3.org/2000/svg" xmlns:xlink="http://www.w3.org/1999/xlink" width="1300" height="500" viewBox="0 0 1300 500">
  <defs>
    <linearGradient id="linear-gradient" x1="0.525" y1="1.399" x2="0.521" y2="-0.39" gradientUnits="objectBoundingBox">
      <stop offset="0"/>
      <stop offset="0.485" stop-color="#545454" stop-opacity="0"/>
      <stop offset="0.602" stop-color="#535353" stop-opacity="0.008"/>
      <stop offset="1" stop-color="#545454" stop-opacity="0"/>
    </linearGradient>
  </defs>
  <g id="Group_1244" data-name="Group 1244" transform="translate(-40 -170)">
    <g id="Group_1242" data-name="Group 1242">
      <rect id="senior-man-listening-music-through-headphones" width="1300" height="500" rx="20" transform="translate(40 170)" fill="#e2e2e2"/>
      <g id="_1077114" data-name="1077114" transform="translate(522 219)">
        <path id="Path_12" data-name="Path 12" d="M149.016,193.986c26.65,0,49.727-9.558,68.582-28.417s28.414-41.926,28.414-68.579S236.454,47.273,217.6,28.411,175.662,0,149.016,0,99.291,9.558,80.436,28.414,52.019,70.343,52.019,96.99s9.561,49.729,28.42,68.582S122.371,193.986,149.016,193.986Zm0,0" transform="translate(16.435)" fill="#fff"/>
        <path id="Path_13" data-name="Path 13" d="M335.167,262.96a239.565,239.565,0,0,0-3.263-25.446,200.477,200.477,0,0,0-6.258-25.584,126.372,126.372,0,0,0-10.517-23.858,90.039,90.039,0,0,0-15.86-20.668,69.935,69.935,0,0,0-22.782-14.315,78.736,78.736,0,0,0-29.084-5.263c-4.111,0-8.087,1.687-15.764,6.686-4.725,3.082-10.253,6.646-16.422,10.587-5.275,3.361-12.422,6.51-21.249,9.362a82.512,82.512,0,0,1-51.979,0c-8.818-2.848-15.964-6-21.234-9.359-6.111-3.9-11.641-7.469-16.437-10.594-7.669-5-11.647-6.685-15.759-6.685a78.62,78.62,0,0,0-29.08,5.27,69.86,69.86,0,0,0-22.785,14.315A90.051,90.051,0,0,0,20.84,188.071a126.614,126.614,0,0,0-10.516,23.863,200.961,200.961,0,0,0-6.257,25.581A238.728,238.728,0,0,0,.8,262.97c-.535,7.706-.8,15.7-.8,23.78,0,21.02,6.68,38.04,19.86,50.59,13.015,12.385,30.236,18.668,51.177,18.668H264.943c20.941,0,38.156-6.28,51.174-18.668,13.181-12.542,19.863-29.563,19.863-50.594,0-8.114-.276-16.118-.814-23.787Zm0,0" transform="translate(0 46.702)" fill="#fff"/>
      </g>
    </g>
    <g id="Group_1243" data-name="Group 1243">
      <g id="harps-joseph-tAvpDE7fXgY-unsplash" transform="translate(1150 480)" fill="#e2e2e2" stroke="#fff" stroke-width="5">
        <rect width="170" height="170" rx="20" stroke="none"/>
        <rect x="2.5" y="2.5" width="165" height="165" rx="17.5" fill="none"/>
      </g>
      <g id="_1077114-2" data-name="1077114" transform="translate(1176 503.003)">
        <path id="Path_14" data-name="Path 14" d="M63.1,68.4A33.093,33.093,0,0,0,87.283,58.38,33.092,33.092,0,0,0,97.3,34.2,33.1,33.1,0,0,0,87.28,10.018,33.1,33.1,0,0,0,63.1,0,33.092,33.092,0,0,0,38.917,10.019,33.094,33.094,0,0,0,28.9,34.2,33.092,33.092,0,0,0,38.918,58.383,33.1,33.1,0,0,0,63.1,68.4Zm0,0" transform="translate(-4.76)" fill="#fff"/>
        <path id="Path_15" data-name="Path 15" d="M118.183,122.715a84.478,84.478,0,0,0-1.151-8.972,70.693,70.693,0,0,0-2.207-9.021,44.559,44.559,0,0,0-3.708-8.413,31.748,31.748,0,0,0-5.592-7.288,24.656,24.656,0,0,0-8.033-5.047,27.762,27.762,0,0,0-10.255-1.856c-1.45,0-2.851.595-5.559,2.357-1.666,1.087-3.615,2.343-5.791,3.733a33.181,33.181,0,0,1-7.493,3.3,29.1,29.1,0,0,1-18.328,0,33.1,33.1,0,0,1-7.487-3.3c-2.155-1.377-4.1-2.634-5.8-3.735-2.7-1.763-4.107-2.357-5.557-2.357a27.727,27.727,0,0,0-10.254,1.858,24.636,24.636,0,0,0-8.034,5.047,31.753,31.753,0,0,0-5.59,7.287,44.646,44.646,0,0,0-3.708,8.415,70.858,70.858,0,0,0-2.206,9.02,84.179,84.179,0,0,0-1.151,8.976C.1,125.436,0,128.256,0,131.1c0,7.412,2.356,13.413,7,17.839,4.589,4.367,10.661,6.583,18.046,6.583H93.422c7.384,0,13.454-2.214,18.045-6.583,4.648-4.422,7-10.424,7-17.84,0-2.861-.1-5.683-.287-8.387Zm0,0" transform="translate(0 -13.525)" fill="#fff"/>
      </g>
      <rect id="Rectangle_781" data-name="Rectangle 781" width="160" height="160" rx="15" transform="translate(1155 485)" fill="url(#linear-gradient)"/>
      <text id="John" transform="translate(1211 630)" fill="#fff" font-size="20" font-family="WorkSans-Regular, Work Sans"><tspan x="0" y="0">John</tspan></text>
    </g>
  </g>
</svg>
