<svg xmlns="http://www.w3.org/2000/svg" width="42.917" height="43.024" viewBox="0 0 42.917 43.024">
  <g id="Group_1293" data-name="Group 1293" transform="translate(-1763.078 -835.395)">
    <path id="Path_5918" data-name="Path 5918" d="M301.156,151l3.087-11.51a21.3,21.3,0,1,1,8.481,8.408Zm12.145-7.411.726.435a17.291,17.291,0,1,0-5.916-5.862l.448.734-1.723,6.424Z" transform="translate(1461.922 727.417)" fill="#fff"/>
    <path id="Path_5919" data-name="Path 5919" d="M323.84,125.205c-.875-.524-2.014-1.108-3.044-.686-.789.324-1.3,1.561-1.807,2.194a.763.763,0,0,1-.982.213,13.814,13.814,0,0,1-6.88-5.893.842.842,0,0,1,.109-1.151,4.667,4.667,0,0,0,1.247-2.029,4.433,4.433,0,0,0-.559-2.4c-.415-.9-.878-2.166-1.771-2.674a2.433,2.433,0,0,0-2.639.392,5.348,5.348,0,0,0-1.855,4.243,5.994,5.994,0,0,0,.164,1.346,11.243,11.243,0,0,0,1.293,2.978,23.9,23.9,0,0,0,1.349,2.052,20.788,20.788,0,0,0,5.85,5.43,17.712,17.712,0,0,0,3.646,1.736,8.083,8.083,0,0,0,4.246.671,5.136,5.136,0,0,0,3.848-2.862,2.5,2.5,0,0,0,.18-1.462C326.016,126.291,324.652,125.691,323.84,125.205Z" transform="translate(1468.814 734.396)" fill="#fff" fill-rule="evenodd"/>
  </g>
</svg>
