<svg xmlns="http://www.w3.org/2000/svg" width="42.008" height="42" viewBox="0 0 42.008 42">
  <g id="_1959251" data-name="1959251" transform="translate(0.002)">
    <path id="Path_1873" data-name="Path 1873" d="M282.261,0a.82.82,0,0,0,0,1.641A16.474,16.474,0,0,1,298.717,18.1a.82.82,0,1,0,1.641,0A18.117,18.117,0,0,0,282.261,0Zm0,0" transform="translate(-258.352)" fill="#fff"/>
    <path id="Path_1874" data-name="Path 1874" d="M294.6,74.138a.821.821,0,0,0,.82-.82,13.176,13.176,0,0,0-13.16-13.161.82.82,0,1,0,0,1.641,11.533,11.533,0,0,1,11.52,11.52A.821.821,0,0,0,294.6,74.138Zm0,0" transform="translate(-258.352 -55.221)" fill="#fff"/>
    <path id="Path_1875" data-name="Path 1875" d="M288.845,128.553a.82.82,0,1,0,1.641,0,8.233,8.233,0,0,0-8.224-8.224.82.82,0,1,0,0,1.641,6.59,6.59,0,0,1,6.583,6.583Zm0,0" transform="translate(-258.352 -110.456)" fill="#fff"/>
    <path id="Path_1876" data-name="Path 1876" d="M281.441,181.3a.82.82,0,0,0,.82.82,1.649,1.649,0,0,1,1.647,1.648.82.82,0,1,0,1.641,0,3.292,3.292,0,0,0-3.288-3.288A.82.82,0,0,0,281.441,181.3Zm0,0" transform="translate(-258.352 -165.676)" fill="#fff"/>
    <path id="Path_1877" data-name="Path 1877" d="M169.075,315.5a.82.82,0,1,1-.82-.82A.82.82,0,0,1,169.075,315.5Zm0,0" transform="translate(-153.698 -288.861)" fill="#fff"/>
    <path id="Path_1878" data-name="Path 1878" d="M22.481,107.157a9.754,9.754,0,0,0,11.185-1.885l1.7-1.7a2.354,2.354,0,0,0,0-3.332L28.808,93.69a2.353,2.353,0,0,0-3.331,0l-2.785,2.785a1.623,1.623,0,0,1-2,.265,30.778,30.778,0,0,1-2.895-2.1.82.82,0,0,0-1.039,1.27,32.357,32.357,0,0,0,3.05,2.21,3.273,3.273,0,0,0,4.045-.487l2.786-2.786a.713.713,0,0,1,1.01,0L34.2,101.4a.714.714,0,0,1,0,1.011l-1.7,1.7a8.113,8.113,0,0,1-9.3,1.572A45.464,45.464,0,0,1,2.462,84.834a8.053,8.053,0,0,1,1.575-9.267L5.7,73.908a.712.712,0,0,1,1.009,0l6.556,6.555a.713.713,0,0,1,0,1.01l-2.785,2.785A3.273,3.273,0,0,0,9.989,88.3c.473.741.984,1.471,1.517,2.172a.82.82,0,1,0,1.305-.994c-.506-.664-.99-1.358-1.44-2.061a1.624,1.624,0,0,1,.265-2l2.785-2.785a2.353,2.353,0,0,0,0-3.331L7.867,72.748a2.352,2.352,0,0,0-3.331,0L2.877,74.407A9.692,9.692,0,0,0,.992,85.563a47.093,47.093,0,0,0,21.49,21.594Zm0,0" transform="translate(0 -66.145)" fill="#fff"/>
  </g>
</svg>
