<svg xmlns="http://www.w3.org/2000/svg" width="80" height="80" viewBox="0 0 80 80">
  <g id="Group_1176" data-name="Group 1176" transform="translate(-1751 -1053)">
    <rect id="Rectangle_1375" data-name="Rectangle 1375" width="80" height="80" rx="20" transform="translate(1751 1053)" fill="#ec008c"/>
    <g id="_62025" data-name="62025" transform="translate(1771 1011.246)">
      <path id="Path_4476" data-name="Path 4476" d="M40.2,70.226l-1.888-1.888a2.011,2.011,0,0,0-2.832,0l-19.8,19.806L5.3,77.772a2.01,2.01,0,0,0-2.832,0L.583,79.661a2.011,2.011,0,0,0,0,2.832l13.67,13.67a1.975,1.975,0,0,0,2.819,0l23.1-23.1A1.993,1.993,0,0,0,40.2,70.226Z" fill="#fff"/>
    </g>
  </g>
</svg>
