<svg xmlns="http://www.w3.org/2000/svg" xmlns:xlink="http://www.w3.org/1999/xlink" width="46" height="42" viewBox="0 0 46 42">
  <defs>
    <clipPath id="clip-_4">
      <rect width="46" height="42"/>
    </clipPath>
  </defs>
  <g id="_4" data-name="4" clip-path="url(#clip-_4)">
    <g id="_393405" data-name="393405" transform="translate(0 -24.346)">
      <g id="Group_596" data-name="Group 596" transform="translate(11.861 35.496)">
        <g id="Group_595" data-name="Group 595">
          <path id="Path_4505" data-name="Path 4505" d="M143.821,166.66a2.568,2.568,0,0,0-.11-.33l-.015-.04-.006-.013-.008-.019-7.655-17.327a.8.8,0,0,0-1.471.65l7.646,17.307c.009.024.032.09.065.2a2.042,2.042,0,0,1-.507,1.538,7.335,7.335,0,0,1-5.937,2.623,2.046,2.046,0,0,1-1.476-.658c-.057-.1-.09-.159-.1-.183l-.687-1.555a.8.8,0,0,0-1.471.65l.7,1.576.01.02.005.012.018.036a2.574,2.574,0,0,0,.172.307,16.161,16.161,0,0,0,8.833,6.684.8.8,0,0,0,.993-.439A16.161,16.161,0,0,0,143.821,166.66Zm-2.192,9.692c-.478-.184-.926-.382-1.349-.589a3.446,3.446,0,0,1,.355-.36,2.237,2.237,0,0,1,1.513-.6C142.006,175.3,141.836,175.821,141.629,176.352Zm.883-3.139a4.122,4.122,0,0,0-3.667,1.758,15.042,15.042,0,0,1-2.673-2.1c.042,0,.082,0,.124,0a9.16,9.16,0,0,0,6.434-2.9A14.956,14.956,0,0,1,142.511,173.213Z" transform="translate(-132.018 -148.451)" fill="#b5b3b3"/>
        </g>
      </g>
      <g id="Group_598" data-name="Group 598" transform="translate(3.621 27.019)">
        <g id="Group_597" data-name="Group 597">
          <path id="Path_4506" data-name="Path 4506" d="M45.15,54.584a.8.8,0,0,0-.8-.477,6.725,6.725,0,0,0-3.793,1.676.8.8,0,0,0,.55,1.391l.064,0A6.725,6.725,0,0,0,44.964,55.5.8.8,0,0,0,45.15,54.584Z" transform="translate(-40.304 -54.105)" fill="#b5b3b3"/>
        </g>
      </g>
      <g id="Group_600" data-name="Group 600" transform="translate(0.408 24.346)">
        <g id="Group_599" data-name="Group 599" transform="translate(0 0)">
          <path id="Path_4507" data-name="Path 4507" d="M18.81,33.271l-3.148-7.125c-.85-1.924-3.909-2.373-6.966-1.023a8.278,8.278,0,0,0-3.307,2.52,3.293,3.293,0,0,0-.627,3.318h0L14.9,53.9a.8.8,0,0,0,1.471-.65L7.278,32.676a5.9,5.9,0,0,0,1.013.086,8.627,8.627,0,0,0,3.436-.778,7.936,7.936,0,0,0,3.508-2.823l2.1,4.76a.8.8,0,0,0,1.471-.65Zm-7.732-2.758c-2.345,1.036-4.435.725-4.844-.2a1.824,1.824,0,0,1,.45-1.713,6.757,6.757,0,0,1,2.663-2,7.077,7.077,0,0,1,2.805-.648c1.043,0,1.808.327,2.039.849C14.6,27.723,13.422,29.477,11.078,30.513Z" transform="translate(-4.542 -24.346)" fill="#b5b3b3"/>
        </g>
      </g>
      <g id="Group_602" data-name="Group 602" transform="translate(16.015 29.967)">
        <g id="Group_601" data-name="Group 601" transform="translate(0 0)">
          <path id="Path_4508" data-name="Path 4508" d="M207.814,87.018a.8.8,0,0,0-1.093.315c-1.871,3.386-10.96,2.393-19.75,1.432-2.61-.285-5.309-.58-7.864-.768a.8.8,0,1,0-.118,1.6c2.527.186,5.211.479,7.808.763a117.587,117.587,0,0,0,12.02.928c.365,0,.725,0,1.077-.015,4.5-.13,7.114-1.136,8.236-3.166A.8.8,0,0,0,207.814,87.018Z" transform="translate(-178.243 -86.917)" fill="#b5b3b3"/>
        </g>
      </g>
      <g id="Group_604" data-name="Group 604" transform="translate(22.506 46.813)">
        <g id="Group_603" data-name="Group 603" transform="translate(0 0)">
          <path id="Path_4509" data-name="Path 4509" d="M266.732,276.034c-3.962-1.071-9.107-1.316-14.553-1.576l-.842-.04a.8.8,0,1,0-.077,1.607l.842.04c10.309.491,20.046.955,20.046,7.1a7.2,7.2,0,0,1-2.385,5.719c-1.424,1.265-5.933,4.065-17.011,2.751a.8.8,0,1,0-.189,1.6,48.433,48.433,0,0,0,5.633.347c4.452,0,9.52-.725,12.636-3.493a8.839,8.839,0,0,0,2.926-6.921C273.757,279.643,271.459,277.312,266.732,276.034Z" transform="translate(-250.494 -274.417)" fill="#b5b3b3"/>
        </g>
      </g>
      <g id="Group_606" data-name="Group 606" transform="translate(0 35.703)">
        <g id="Group_605" data-name="Group 605" transform="translate(0 0)">
          <path id="Path_4510" data-name="Path 4510" d="M5.322,158.85a6.388,6.388,0,0,1-3.682-5.224,6.256,6.256,0,0,1,.093-1.9.8.8,0,0,0-1.571-.346,7.863,7.863,0,0,0-.124,2.385,7.988,7.988,0,0,0,4.511,6.491.8.8,0,0,0,.773-1.411Z" transform="translate(0 -150.754)" fill="#b5b3b3"/>
        </g>
      </g>
    </g>
  </g>
</svg>
