<svg xmlns="http://www.w3.org/2000/svg" width="250" height="250" viewBox="0 0 250 250">
  <g id="Group_1175" data-name="Group 1175" transform="translate(-200 -3498)">
    <rect id="Rectangle_1228" data-name="Rectangle 1228" width="250" height="250" rx="20" transform="translate(200 3498)" fill="#f6f6f6"/>
    <g id="_1077114" data-name="1077114" transform="translate(243 3525)">
      <path id="Path_4615" data-name="Path 4615" d="M134.234,94.4A45.672,45.672,0,0,0,167.61,80.574,45.67,45.67,0,0,0,181.437,47.2a45.678,45.678,0,0,0-13.829-33.374,47.191,47.191,0,0,0-66.748,0A45.673,45.673,0,0,0,87.032,47.2a45.671,45.671,0,0,0,13.83,33.375A45.683,45.683,0,0,0,134.234,94.4Zm0,0" transform="translate(-53.719)" fill="#b5b3b3"/>
      <path id="Path_4616" data-name="Path 4616" d="M163.107,303.348a116.585,116.585,0,0,0-1.588-12.383,97.564,97.564,0,0,0-3.046-12.45,61.5,61.5,0,0,0-5.118-11.612,43.816,43.816,0,0,0-7.718-10.058,34.029,34.029,0,0,0-11.087-6.966,38.316,38.316,0,0,0-14.153-2.561c-2,0-3.935.821-7.672,3.253-2.3,1.5-4.989,3.234-7.992,5.152a45.792,45.792,0,0,1-10.341,4.556,40.154,40.154,0,0,1-25.3,0,45.685,45.685,0,0,1-10.333-4.554c-2.974-1.9-5.665-3.635-8-5.155-3.732-2.433-5.668-3.253-7.669-3.253a38.267,38.267,0,0,0-14.152,2.564,34,34,0,0,0-11.088,6.966A43.821,43.821,0,0,0,10.142,266.9a61.617,61.617,0,0,0-5.118,11.613,97.8,97.8,0,0,0-3.044,12.449A116.175,116.175,0,0,0,.392,303.352C.131,307.1,0,310.994,0,314.925c0,10.23,3.252,18.512,9.665,24.62,6.334,6.027,14.714,9.085,24.905,9.085h94.363c10.191,0,18.569-3.056,24.9-9.085,6.414-6.1,9.666-14.387,9.666-24.621,0-3.949-.135-7.844-.4-11.576Zm0,0" transform="translate(0 -152.652)" fill="#b5b3b3"/>
    </g>
  </g>
</svg>
