<svg xmlns="http://www.w3.org/2000/svg" width="44.309" height="36.347" viewBox="0 0 44.309 36.347">
  <g id="_562688" data-name="562688" transform="translate(0 -46.004)">
    <g id="Group_177" data-name="Group 177" transform="translate(32.169 56.414)">
      <g id="Group_176" data-name="Group 176">
        <path id="Path_1879" data-name="Path 1879" d="M373.2,166.544a.865.865,0,1,0-1.229,1.219l.005.005a.856.856,0,0,0,.61.255.867.867,0,0,0,.613-1.479Z" transform="translate(-371.717 -166.288)" fill="#fff"/>
      </g>
    </g>
    <g id="Group_179" data-name="Group 179" transform="translate(7.963 46.004)">
      <g id="Group_178" data-name="Group 178" transform="translate(0 0)">
        <path id="Path_1880" data-name="Path 1880" d="M128.1,67.077l-8.038-8.038a.865.865,0,1,0-1.224,1.224l6.381,6.381H110.007a2.292,2.292,0,0,1-2.289-2.289V49.138l6.16,6.16a.865.865,0,1,0,1.224-1.224l-7.817-7.817a.866.866,0,0,0-1.224,0l-13.8,13.8a.866.866,0,0,0,0,1.224L113.084,82.1a.865.865,0,0,0,1.224,0l13.8-13.8a.865.865,0,0,0,0-1.224Zm-22.117-18.3V59.8H94.966ZM112.83,79.4,94.966,61.531h11.022v2.823a4.024,4.024,0,0,0,4.02,4.02h2.823Zm1.731,0V68.374h11.021Z" transform="translate(-92.011 -46.004)" fill="#fff"/>
      </g>
    </g>
    <g id="Group_181" data-name="Group 181" transform="translate(0 64.004)">
      <g id="Group_180" data-name="Group 180">
        <path id="Path_1881" data-name="Path 1881" d="M5.939,254H.865a.865.865,0,0,0,0,1.731H5.939a.865.865,0,0,0,0-1.731Z" transform="translate(0 -253.999)" fill="#fff"/>
      </g>
    </g>
    <g id="Group_183" data-name="Group 183" transform="translate(7.641 64.004)">
      <g id="Group_182" data-name="Group 182">
        <path id="Path_1882" data-name="Path 1882" d="M89.174,254h-.013a.865.865,0,0,0,0,1.731h.013a.865.865,0,0,0,0-1.731Z" transform="translate(-88.296 -253.999)" fill="#fff"/>
      </g>
    </g>
    <g id="Group_185" data-name="Group 185" transform="translate(0.001 54.918)">
      <g id="Group_184" data-name="Group 184" transform="translate(0 0)">
        <path id="Path_1883" data-name="Path 1883" d="M3.648,149H.878a.865.865,0,1,0,0,1.731h2.77a.865.865,0,1,0,0-1.731Z" transform="translate(-0.013 -149.002)" fill="#fff"/>
      </g>
    </g>
    <g id="Group_187" data-name="Group 187" transform="translate(5.598 54.918)">
      <g id="Group_186" data-name="Group 186" transform="translate(0 0)">
        <path id="Path_1884" data-name="Path 1884" d="M68.821,149H65.547a.865.865,0,1,0,0,1.731h3.274a.865.865,0,1,0,0-1.731Z" transform="translate(-64.682 -149.002)" fill="#fff"/>
      </g>
    </g>
    <g id="Group_189" data-name="Group 189" transform="translate(5.909 68.764)">
      <g id="Group_188" data-name="Group 188">
        <path id="Path_1885" data-name="Path 1885" d="M73.995,309H69.148a.865.865,0,0,0,0,1.731h4.846a.865.865,0,1,0,0-1.731Z" transform="translate(-68.283 -308.998)" fill="#fff"/>
      </g>
    </g>
    <g id="Group_191" data-name="Group 191" transform="translate(2.337 74.302)">
      <g id="Group_190" data-name="Group 190" transform="translate(0 0)">
        <path id="Path_1886" data-name="Path 1886" d="M40.077,373h-12.2a.865.865,0,1,0,0,1.731h12.2a.865.865,0,1,0,0-1.731Z" transform="translate(-27.009 -372.996)" fill="#fff"/>
      </g>
    </g>
  </g>
</svg>
