<svg xmlns="http://www.w3.org/2000/svg" width="564.501" height="347.297" viewBox="0 0 564.501 347.297">
  <g id="People_search-pana_2_" data-name="People search-pana (2)" transform="translate(-62.76 -95.121)">
    <g id="freepik--Floor--inject-60" transform="translate(62.76 429.854)">
      <path id="Path_2490" data-name="Path 2490" d="M627.261,465.655c0,.136-126.382.235-282.241.235s-282.26-.1-282.26-.235,126.355-.235,282.26-.235S627.261,465.528,627.261,465.655Z" transform="translate(-62.76 -465.42)" fill="#263238"/>
    </g>
    <g id="freepik--character-3--inject-60" transform="translate(448.493 125.173)">
      <path id="Path_2491" data-name="Path 2491" d="M514.583,204.463,509,214.578l-3.426-27.5a11.083,11.083,0,0,1,1.139-5.785,12.026,12.026,0,0,1,1.392-2.233,12.161,12.161,0,0,1,2.4-2.251,1,1,0,0,0-.172-1.9c-.895-.09-3.345,1.22-5.27,3.851s-2.133-2.432-2.242-4.276-.705-7.53-1.293-7.928c-.9-.588-1.681.253-1.528,2.088s.208,7.394-.759,7.431-1.383-9.365-1.383-9.365.235-2.034-.9-2.034c-2.034,0-.859,9.944-.723,10.847.1.651-.958.723-1.021,0s-.2-9.392-2.269-9.4c-1.582,0,.9,8.181-.072,10.016s-1.247-6.418-2.766-6.373c-.56,0-.985.118-.136,4.818.452,2.531,2.115,6.165,2.63,11.1l.136,1.284c.09,6.147,1.446,24.669,7.042,38.771a11.417,11.417,0,0,0,20.095,2.034c3.444-5.18,8.877-18.73,8.877-18.73Z" transform="translate(-489.478 -131.854)" fill="#b78876"/>
      <path id="Path_2492" data-name="Path 2492" d="M496.28,184.9a2.2,2.2,0,0,1,.8.217,2.874,2.874,0,0,1,1.564,1.293l.19.344.108-.389a4.964,4.964,0,0,1,.75-1.5,5.5,5.5,0,0,1,2.594-1.907c.8-.289,1.347-.271,1.338-.334a2.54,2.54,0,0,0-1.41.1,5.116,5.116,0,0,0-2.8,1.934,4.739,4.739,0,0,0-.786,1.627l.307-.045a2.956,2.956,0,0,0-1.808-1.32A1.4,1.4,0,0,0,496.28,184.9Z" transform="translate(-490.131 -133.572)" fill="#a36957"/>
      <path id="Path_2493" data-name="Path 2493" d="M536.172,132.821c-2.612.6-5.035,1.98-5.279,4.655s.09,5.5-1.031,7.937c-1.266,2.712-4.285,4.773-4.384,7.792-.063,1.808,1.031,3.571.976,5.424-.081,3.019-3.173,5.306-3.336,8.334-.109,2.169,1.338,4.258.985,6.409-.271,1.681-1.573,2.992-2.124,4.6-1.094,3.2,1.1,6.716,3.959,8.515a12.981,12.981,0,0,0,18.911-6.038c1.582-3.842,1.238-8.136.9-12.312q-1.609-19.372-2.4-38.789" transform="translate(-492.572 -128.46)" fill="#263238"/>
      <path id="Path_2494" data-name="Path 2494" d="M591.574,433.374s-25.79-81.012-26.314-83.543c-.47-2.3,8.913-58.4,10.088-72.931l-33.166,1.238v.244l-14.1.777,13.1,163.914,14.463-.253-1.211-57.094c9.41,25.311,23.873,53.125,23.873,53.125Z" transform="translate(-493.186 -142.632)" fill="#b78876"/>
      <path id="Path_2495" data-name="Path 2495" d="M557.372,414.7c0-.488-.19-17.727-.19-17.727-.19,1.03-5.849-14.97-5.713-15.946C551.5,380.523,557.372,414.7,557.372,414.7Z" transform="translate(-495.432 -152.633)" fill="#a36957"/>
      <path id="Path_2496" data-name="Path 2496" d="M550.7,372.65a3.366,3.366,0,0,0-.1.967,23.755,23.755,0,0,0,0,2.64,16.621,16.621,0,0,0,.154,1.808c.072.633.172,1.356.325,2.079a35.09,35.09,0,0,0,1.247,4.646c1.1,3.218,2.332,6.047,3.2,8.09l1.058,2.414a4.271,4.271,0,0,0,.452.859,3.25,3.25,0,0,0-.271-.9c-.2-.588-.515-1.437-.9-2.477-.777-2.079-1.953-4.927-3.046-8.136a39.761,39.761,0,0,1-1.275-4.574c-.154-.714-.262-1.4-.362-2.043s-.172-1.247-.208-1.808c-.108-1.094-.154-2-.181-2.612A4.441,4.441,0,0,0,550.7,372.65Z" transform="translate(-495.345 -151.828)" fill="#a36957"/>
      <path id="Path_2497" data-name="Path 2497" d="M540.614,461.205v-1.428l15.638-.687.045,5.921-.967.063c-4.294.253-21.84.976-24.714.108C527.408,464.224,540.614,461.205,540.614,461.205Z" transform="translate(-493.381 -160.13)" fill="#455a64"/>
      <path id="Path_2498" data-name="Path 2498" d="M556.5,465.24h-.271l-.768.054-2.82.127c-2.4.1-5.695.181-9.338.2s-6.951,0-9.338-.118l-2.829-.1-.768-.045h.768l2.829.054c2.386,0,5.695.072,9.338.054s6.942-.081,9.329-.136l2.829-.072h.768Z" transform="translate(-493.38 -160.721)" fill="#263238"/>
      <path id="Path_2499" data-name="Path 2499" d="M535.961,465.542a6.091,6.091,0,0,0-.524-1.347,6.873,6.873,0,0,0-.976-1.085,2.052,2.052,0,0,1,1.13.985A2.016,2.016,0,0,1,535.961,465.542Z" transform="translate(-493.798 -160.516)" fill="#263238"/>
      <path id="Path_2500" data-name="Path 2500" d="M541.1,463.062a3.052,3.052,0,0,1-.488-.6c-.226-.362-.38-.669-.335-.7s.262.244.488.6S541.147,463.035,541.1,463.062Z" transform="translate(-494.357 -160.388)" fill="#263238"/>
      <path id="Path_2501" data-name="Path 2501" d="M542.477,462.367a2.385,2.385,0,0,1-.542-.362c-.262-.235-.461-.47-.425-.506s.28.127.551.362S542.513,462.331,542.477,462.367Z" transform="translate(-494.475 -160.361)" fill="#263238"/>
      <path id="Path_2502" data-name="Path 2502" d="M543.287,460.82a3.538,3.538,0,1,1-.814-.081A2.087,2.087,0,0,1,543.287,460.82Z" transform="translate(-494.49 -160.288)" fill="#263238"/>
      <path id="Path_2503" data-name="Path 2503" d="M543.568,459.69a1.573,1.573,0,0,1-.9.262,1.618,1.618,0,0,1-.9-.117,5.119,5.119,0,0,1,.9-.072A4.591,4.591,0,0,1,543.568,459.69Z" transform="translate(-494.5 -160.188)" fill="#263238"/>
      <path id="Path_2504" data-name="Path 2504" d="M540.289,461.552a2.614,2.614,0,0,1-.994,0,6.328,6.328,0,0,1-1.067-.226,3.1,3.1,0,0,1-.606-.253.515.515,0,0,1-.253-.307.4.4,0,0,1,.154-.407,1.808,1.808,0,0,1,2.269.533,1.935,1.935,0,0,1,.325.669.643.643,0,0,1,0,.262,3.05,3.05,0,0,0-.461-.85,1.809,1.809,0,0,0-.85-.551,1.564,1.564,0,0,0-1.193.09c-.163.117-.1.3.081.407a2.542,2.542,0,0,0,.56.235,5.567,5.567,0,0,0,1.031.262C539.909,461.525,540.289,461.525,540.289,461.552Z" transform="translate(-494.077 -160.234)" fill="#263238"/>
      <path id="Path_2505" data-name="Path 2505" d="M540.305,461.554a.967.967,0,0,1-.117-.7,1.555,1.555,0,0,1,.271-.732.994.994,0,0,1,.832-.506.4.4,0,0,1,.307.461,1.086,1.086,0,0,1-.172.443,2.882,2.882,0,0,1-.47.606,1.429,1.429,0,0,1-.57.407,6.116,6.116,0,0,0,.47-.5,3.145,3.145,0,0,0,.416-.6c.145-.217.235-.6,0-.642s-.506.226-.66.425a1.81,1.81,0,0,0-.28.651,3.118,3.118,0,0,0-.027.678Z" transform="translate(-494.346 -160.181)" fill="#263238"/>
      <path id="Path_2506" data-name="Path 2506" d="M558.354,460.518s-.443,0-1.148.045a4.917,4.917,0,0,0-4.068,3.263c-.235.669-.253,1.121-.289,1.112a.906.906,0,0,1,0-.316,4.667,4.667,0,0,1,4.339-4.194,4.08,4.08,0,0,1,.9,0A1.14,1.14,0,0,1,558.354,460.518Z" transform="translate(-495.563 -160.257)" fill="#263238"/>
      <path id="Path_2507" data-name="Path 2507" d="M550.177,463.868a9.335,9.335,0,0,1-2.278.217,8.949,8.949,0,0,1-2.269-.19c0-.054,1.021,0,2.269,0S550.168,463.814,550.177,463.868Z" transform="translate(-494.871 -160.588)" fill="#263238"/>
      <path id="Path_2508" data-name="Path 2508" d="M553.952,463.829s-.081.217-.19.452-.154.443-.208.434-.081-.244,0-.515S553.952,463.793,553.952,463.829Z" transform="translate(-495.627 -160.585)" fill="#263238"/>
      <path id="Path_2509" data-name="Path 2509" d="M555.228,462.249a1.058,1.058,0,0,1-.217.362c-.154.163-.325.262-.362.226s.063-.2.226-.362S555.192,462.213,555.228,462.249Z" transform="translate(-495.737 -160.433)" fill="#263238"/>
      <path id="Path_2510" data-name="Path 2510" d="M557.016,461.511c0,.045-.217.045-.443.127s-.4.208-.434.172.081-.253.371-.344S557.034,461.457,557.016,461.511Z" transform="translate(-495.88 -160.355)" fill="#263238"/>
      <path id="Path_2511" data-name="Path 2511" d="M558.351,461.166c0,.045-.063.127-.2.181s-.244.054-.262,0,.063-.127.2-.181S558.333,461.121,558.351,461.166Z" transform="translate(-496.048 -160.326)" fill="#263238"/>
      <path id="Path_2512" data-name="Path 2512" d="M582.466,456.925l-.6-1.3,13.984-7.024,2.459,5.37-.85.461c-3.815,1.98-19.525,9.835-22.5,10.224C571.645,465.088,582.466,456.925,582.466,456.925Z" transform="translate(-497.628 -159.123)" fill="#455a64"/>
      <path id="Path_2513" data-name="Path 2513" d="M598.366,454.08a1.879,1.879,0,0,1-.226.136l-.687.362-2.522,1.284c-2.142,1.058-5.116,2.495-8.434,4s-6.328,2.8-8.57,3.715l-2.621,1.058-.714.28a.9.9,0,0,1-.262.081l.244-.118.705-.307,2.6-1.121c2.188-.9,5.216-2.26,8.533-3.76s6.328-2.92,8.461-3.959l2.549-1.22.7-.325Z" transform="translate(-497.628 -159.649)" fill="#263238"/>
      <path id="Path_2514" data-name="Path 2514" d="M579.749,463.92a6.015,6.015,0,0,0-1.04-1.012,5.876,5.876,0,0,0-1.32-.588,2.513,2.513,0,0,1,2.359,1.6Z" transform="translate(-497.922 -160.441)" fill="#263238"/>
      <path id="Path_2515" data-name="Path 2515" d="M583.423,459.56a1.882,1.882,0,0,1-.687-.344c-.362-.235-.624-.461-.6-.5a1.785,1.785,0,0,1,.7.334C583.188,459.28,583.451,459.515,583.423,459.56Z" transform="translate(-498.378 -160.094)" fill="#263238"/>
      <path id="Path_2516" data-name="Path 2516" d="M584.4,458.355c0,.045-.307,0-.651-.108s-.615-.235-.6-.289.307,0,.651.108S584.406,458.3,584.4,458.355Z" transform="translate(-498.475 -160.02)" fill="#263238"/>
      <path id="Path_2517" data-name="Path 2517" d="M584.5,456.559a3.679,3.679,0,0,1-1.473.687,1.94,1.94,0,0,1,.7-.434C584.133,456.622,584.476,456.5,584.5,456.559Z" transform="translate(-498.463 -159.886)" fill="#263238"/>
      <path id="Path_2518" data-name="Path 2518" d="M584.288,455.389a2.289,2.289,0,0,1-.714.615,1.617,1.617,0,0,1-.9.271,4.526,4.526,0,0,1,.813-.443C583.926,455.6,584.252,455.344,584.288,455.389Z" transform="translate(-498.429 -159.775)" fill="#263238"/>
      <path id="Path_2519" data-name="Path 2519" d="M582.086,458.451a2.932,2.932,0,0,1-.9.407,5.936,5.936,0,0,1-1.067.226,2.64,2.64,0,0,1-.66,0,.515.515,0,0,1-.353-.181.4.4,0,0,1,0-.425,1.851,1.851,0,0,1,2.857.027c.108.136.144.226.136.235a2.837,2.837,0,0,0-.759-.588,1.809,1.809,0,0,0-1.013-.154,1.564,1.564,0,0,0-1.049.569c-.1.172,0,.316.244.334a3.4,3.4,0,0,0,.606,0,6.951,6.951,0,0,0,1.049-.181C581.716,458.578,582.077,458.424,582.086,458.451Z" transform="translate(-498.08 -160.007)" fill="#263238"/>
      <path id="Path_2520" data-name="Path 2520" d="M582.12,458.459a1.066,1.066,0,0,1-.389-.588,1.547,1.547,0,0,1-.054-.777,1,1,0,0,1,.551-.8c.217-.072.741.38.777.542s-.262.081-.28.226a2.968,2.968,0,0,1-.181.741c-.154.416-.335.624-.353.606s.108-.244.226-.642a3.214,3.214,0,0,0,.136-.723c0-.253,0-.633-.28-.569s-.371.416-.425.66a1.666,1.666,0,0,0,0,.705A4.021,4.021,0,0,0,582.12,458.459Z" transform="translate(-498.331 -159.861)" fill="#263238"/>
      <path id="Path_2521" data-name="Path 2521" d="M598.28,449.94a5.767,5.767,0,0,0-1.031.515,4.827,4.827,0,0,0-2.368,4.637,9.894,9.894,0,0,0,.19,1.13,1.415,1.415,0,0,1-.136-.28,4.378,4.378,0,0,1-.19-.841,4.728,4.728,0,0,1,2.441-4.764,3.862,3.862,0,0,1,.786-.334,1.026,1.026,0,0,1,.307-.063Z" transform="translate(-499.585 -159.252)" fill="#263238"/>
      <path id="Path_2522" data-name="Path 2522" d="M592.03,456.38a8.8,8.8,0,0,1-1.989,1.121,8.537,8.537,0,0,1-2.151.759c0-.054.9-.407,2.079-.9S592,456.325,592.03,456.38Z" transform="translate(-498.93 -159.87)" fill="#263238"/>
      <path id="Path_2523" data-name="Path 2523" d="M595.512,455c.045,0,0,.235,0,.488v.488a.719.719,0,0,1-.172-.488C595.34,455.189,595.466,454.945,595.512,455Z" transform="translate(-499.646 -159.737)" fill="#263238"/>
      <path id="Path_2524" data-name="Path 2524" d="M595.968,453c.054,0,0,.208-.054.416s-.181.38-.226.362,0-.208.054-.425A.719.719,0,0,1,595.968,453Z" transform="translate(-499.677 -159.546)" fill="#263238"/>
      <path id="Path_2525" data-name="Path 2525" d="M597.316,451.587c0,.054-.181.136-.353.3s-.271.353-.325.335,0-.262.2-.47S597.307,451.533,597.316,451.587Z" transform="translate(-499.768 -159.407)" fill="#263238"/>
      <path id="Path_2526" data-name="Path 2526" d="M598.391,450.739a.361.361,0,0,1-.108.244c-.109.1-.208.154-.244.117s0-.145.108-.244S598.355,450.7,598.391,450.739Z" transform="translate(-499.904 -159.327)" fill="#263238"/>
      <path id="Path_2527" data-name="Path 2527" d="M568.683,239.839l-.145-27.553,16.922-3.119s-1.808-8.136-4.149-15.964c-1.808-6.156-5.695-8.768-10.4-11.064v-.081l-.407-.108a38.264,38.264,0,0,0-12.249-3.2l-16.416.19s-12.547-1.564-19.489,7.376c-2.712,3.444-10.947,27.019-10.947,27.019l19.706,9.492-1.871-13.071s.371,9.473,1.582,12.475c.669,1.672,2.621,6.87,2.621,6.87l-.253,15.675Z" transform="translate(-491.584 -133.205)" fill="#8dc63f"/>
      <path id="Path_2528" data-name="Path 2528" d="M535.287,231.9a3.9,3.9,0,0,1-.389-.9c-.226-.579-.524-1.428-.9-2.486a75.05,75.05,0,0,1-2.2-8.407,59.821,59.821,0,0,1-1.085-8.624c-.054-1.112-.072-2.016-.054-2.64a4.114,4.114,0,0,1,.063-.967c.081,0,.127,1.374.316,3.616a80,80,0,0,0,1.22,8.56c.66,3.308,1.455,6.264,2.061,8.4l.714,2.522A4,4,0,0,1,535.287,231.9Z" transform="translate(-493.433 -136.002)" fill="#263238"/>
      <path id="Path_2529" data-name="Path 2529" d="M542.078,246.089a4.52,4.52,0,0,1-.8-1.808,4.265,4.265,0,0,1-.343-1.962,4.724,4.724,0,0,1,.8,1.808A4.3,4.3,0,0,1,542.078,246.089Z" transform="translate(-494.42 -139.311)" fill="#263238"/>
      <path id="Path_2530" data-name="Path 2530" d="M544.342,245.74a5.605,5.605,0,0,1-.524-2.766,5.668,5.668,0,0,1,.443-2.784,17.509,17.509,0,0,1,0,2.775A17.308,17.308,0,0,1,544.342,245.74Z" transform="translate(-494.695 -139.106)" fill="#263238"/>
      <path id="Path_2531" data-name="Path 2531" d="M531.486,226.923c-.054.108-4.637-2.061-10.242-4.863s-10.088-5.153-10.034-5.27,4.646,2.052,10.242,4.854S531.549,226.8,531.486,226.923Z" transform="translate(-491.565 -136.858)" fill="#263238"/>
      <path id="Path_2532" data-name="Path 2532" d="M581.668,192.342c-.217.271-1.076-.145-2.576-.452a13.233,13.233,0,0,0-6.328.316c-2.585.714-5.424,2.414-8.741,4.52a49.932,49.932,0,0,1-5.6,3.218,19.291,19.291,0,0,1-7.232,1.934,20.61,20.61,0,0,1-7.349-1.067,57.524,57.524,0,0,1-5.975-2.377c-1.808-.814-3.462-1.582-5-2.142a27.359,27.359,0,0,0-4.384-1.211,14.934,14.934,0,0,0-6.4.063c-1.5.371-2.368.777-2.594.506s.3-1.157,1.808-2.179a12.845,12.845,0,0,1,7.485-1.708,24.688,24.688,0,0,1,5.189.8,55.517,55.517,0,0,1,5.505,1.808c3.679,1.383,7.584,2.974,11.426,2.757s7.44-2.278,10.847-4.176,6.969-3.67,10.305-4.095A12.014,12.014,0,0,1,579.7,190.1C581.414,191.158,581.866,192.125,581.668,192.342Z" transform="translate(-492.355 -134.16)" fill="#fafafa"/>
      <path id="Path_2533" data-name="Path 2533" d="M570.755,220.753c-.217.253-.814.145-1.808,0a23.209,23.209,0,0,0-3.95-.362,8.137,8.137,0,0,0-2.386.325l-.244.09-.334.136-.7.307c-.47.217-.9.461-1.464.723-1.012.533-2.115,1.157-3.381,1.808a24.925,24.925,0,0,1-4.185,1.573,24.117,24.117,0,0,1-8.542.669,21.976,21.976,0,0,1-6.716-1.736c-3.616-1.636-5.225-3.562-4.881-4.059s2.5.235,5.894.9a29.5,29.5,0,0,0,13.035-.343,27.054,27.054,0,0,0,3.5-1.22c1.139-.488,2.305-1.04,3.489-1.519.6-.235,1.2-.461,1.808-.651.307-.1.615-.181.9-.262l.461-.117.542-.1a9.944,9.944,0,0,1,3.616.181,10.558,10.558,0,0,1,4.375,2.025C570.692,219.849,570.954,220.518,570.755,220.753Z" transform="translate(-493.574 -136.863)" fill="#fafafa"/>
      <path id="Path_2534" data-name="Path 2534" d="M574.826,228.843c-.135,0-.271-5.107-.307-11.417s0-11.426.163-11.426.271,5.107.307,11.417S574.953,228.843,574.826,228.843Z" transform="translate(-497.645 -135.822)" fill="#263238"/>
      <path id="Path_2535" data-name="Path 2535" d="M568.683,239.839l-.145-27.553,16.922-3.119s-1.808-8.136-4.149-15.964c-1.808-6.156-5.695-8.768-10.4-11.064v-.081l-.407-.108a38.264,38.264,0,0,0-12.249-3.2l-16.416.19s-12.547-1.564-19.489,7.376c-2.712,3.444-10.947,27.019-10.947,27.019l19.706,9.492-1.871-13.071s.371,9.473,1.582,12.475c.669,1.672,2.621,6.87,2.621,6.87l-.253,15.675Z" transform="translate(-491.584 -133.205)" fill="#8dc63f"/>
      <path id="Path_2536" data-name="Path 2536" d="M535.287,231.9a3.9,3.9,0,0,1-.389-.9c-.226-.579-.524-1.428-.9-2.486a75.05,75.05,0,0,1-2.2-8.407,59.821,59.821,0,0,1-1.085-8.624c-.054-1.112-.072-2.016-.054-2.64a4.114,4.114,0,0,1,.063-.967c.081,0,.127,1.374.316,3.616a80,80,0,0,0,1.22,8.56c.66,3.308,1.455,6.264,2.061,8.4l.714,2.522A4,4,0,0,1,535.287,231.9Z" transform="translate(-493.433 -136.002)" fill="#263238"/>
      <path id="Path_2537" data-name="Path 2537" d="M542.078,246.089a4.52,4.52,0,0,1-.8-1.808,4.265,4.265,0,0,1-.343-1.962,4.724,4.724,0,0,1,.8,1.808A4.3,4.3,0,0,1,542.078,246.089Z" transform="translate(-494.42 -139.311)" fill="#263238"/>
      <path id="Path_2538" data-name="Path 2538" d="M544.342,245.74a5.605,5.605,0,0,1-.524-2.766,5.668,5.668,0,0,1,.443-2.784,17.509,17.509,0,0,1,0,2.775A17.308,17.308,0,0,1,544.342,245.74Z" transform="translate(-494.695 -139.106)" fill="#263238"/>
      <path id="Path_2539" data-name="Path 2539" d="M531.486,226.923c-.054.108-4.637-2.061-10.242-4.863s-10.088-5.153-10.034-5.27,4.646,2.052,10.242,4.854S531.549,226.8,531.486,226.923Z" transform="translate(-491.565 -136.858)" fill="#263238"/>
      <path id="Path_2540" data-name="Path 2540" d="M581.668,192.342c-.217.271-1.076-.145-2.576-.452a13.233,13.233,0,0,0-6.328.316c-2.585.714-5.424,2.414-8.741,4.52a49.932,49.932,0,0,1-5.6,3.218,19.291,19.291,0,0,1-7.232,1.934,20.61,20.61,0,0,1-7.349-1.067,57.524,57.524,0,0,1-5.975-2.377c-1.808-.814-3.462-1.582-5-2.142a27.359,27.359,0,0,0-4.384-1.211,14.934,14.934,0,0,0-6.4.063c-1.5.371-2.368.777-2.594.506s.3-1.157,1.808-2.179a12.845,12.845,0,0,1,7.485-1.708,24.688,24.688,0,0,1,5.189.8,55.517,55.517,0,0,1,5.505,1.808c3.679,1.383,7.584,2.974,11.426,2.757s7.44-2.278,10.847-4.176,6.969-3.67,10.305-4.095A12.014,12.014,0,0,1,579.7,190.1C581.414,191.158,581.866,192.125,581.668,192.342Z" transform="translate(-492.355 -134.16)" fill="#fafafa"/>
      <path id="Path_2541" data-name="Path 2541" d="M570.755,220.753c-.217.253-.814.145-1.808,0a23.209,23.209,0,0,0-3.95-.362,8.137,8.137,0,0,0-2.386.325l-.244.09-.334.136-.7.307c-.47.217-.9.461-1.464.723-1.012.533-2.115,1.157-3.381,1.808a24.925,24.925,0,0,1-4.185,1.573,24.117,24.117,0,0,1-8.542.669,21.976,21.976,0,0,1-6.716-1.736c-3.616-1.636-5.225-3.562-4.881-4.059s2.5.235,5.894.9a29.5,29.5,0,0,0,13.035-.343,27.054,27.054,0,0,0,3.5-1.22c1.139-.488,2.305-1.04,3.489-1.519.6-.235,1.2-.461,1.808-.651.307-.1.615-.181.9-.262l.461-.117.542-.1a9.944,9.944,0,0,1,3.616.181,10.558,10.558,0,0,1,4.375,2.025C570.692,219.849,570.954,220.518,570.755,220.753Z" transform="translate(-493.574 -136.863)" fill="#fafafa"/>
      <path id="Path_2542" data-name="Path 2542" d="M580.633,275.336c-.136-8.949-7.72-30.246-7.72-30.246l-38.337,1.618s-9.781,20.719-9.437,41.69,6.328,77.812,6.328,77.812h46.382l-1.311-42.558C576.014,309.894,580.895,292.728,580.633,275.336Z" transform="translate(-492.902 -139.577)" fill="#263238"/>
      <path id="Path_2543" data-name="Path 2543" d="M575.256,250.34a2.856,2.856,0,0,1-.118.3l-.371.9-1.483,3.263c-1.3,2.857-3.173,6.933-5.487,11.968-4.619,10.115-11.01,24.1-17.311,39.855-3.119,7.882-5.876,15.485-8.217,22.454-1.112,3.5-2.224,6.816-3.11,9.943-.452,1.564-.9,3.083-1.32,4.52s-.768,2.875-1.121,4.212c-.75,2.712-1.284,5.134-1.808,7.286-.253,1.076-.488,2.07-.7,2.992s-.362,1.808-.524,2.54c-.307,1.5-.551,2.712-.723,3.5-.09.389-.154.687-.208.9a1.394,1.394,0,0,1-.081.307s.985-6.825,3.706-17.618c.352-1.347.714-2.757,1.094-4.23s.85-2.974,1.3-4.52c.9-3.155,1.971-6.472,3.073-9.943,2.314-6.988,5.062-14.6,8.19-22.5,6.328-15.765,12.746-29.731,17.446-39.774l5.623-11.914c.669-1.383,1.193-2.459,1.555-3.227.181-.344.316-.624.416-.832a1.562,1.562,0,0,1,.172-.389Z" transform="translate(-493.627 -140.081)" fill="#455a64"/>
      <path id="Path_2544" data-name="Path 2544" d="M569.192,372.412a3.277,3.277,0,0,1-.289-.588l-.759-1.708c-.651-1.492-1.537-3.67-2.576-6.382a192.758,192.758,0,0,1-11-43.959c-.362-2.884-.606-5.225-.732-6.843-.054-.768-.1-1.392-.136-1.862a3.339,3.339,0,0,1,0-.66,3.262,3.262,0,0,1,.109.651c.063.47.136,1.085.235,1.808.172,1.609.47,3.941.9,6.816a214.9,214.9,0,0,0,10.974,43.887c.994,2.712,1.808,4.917,2.441,6.427l.669,1.745a2.775,2.775,0,0,1,.163.669Z" transform="translate(-495.645 -145.85)" fill="#455a64"/>
      <path id="Path_2545" data-name="Path 2545" d="M574.826,228.843c-.135,0-.271-5.107-.307-11.417s0-11.426.163-11.426.271,5.107.307,11.417S574.953,228.843,574.826,228.843Z" transform="translate(-497.645 -135.822)" fill="#263238"/>
      <path id="Path_2546" data-name="Path 2546" d="M541.844,177.83c.109-4.52.127-9.247.127-9.247s-5.767-1.112-6.78-8.705c-.723-5.5.172-14.979.651-19.254a7.737,7.737,0,0,1,1.6-3.905h0c8.443-3.182,16.678-1.392,22.454,5.424h0l-1.4,36.574a7.8,7.8,0,0,1-8.5,7.232h0A8.24,8.24,0,0,1,541.844,177.83Z" transform="translate(-493.843 -129.021)" fill="#b78876"/>
      <path id="Path_2547" data-name="Path 2547" d="M537.72,150.319a.967.967,0,0,0,.9,1,.9.9,0,0,0,1.031-.85.967.967,0,0,0-.9-1,.9.9,0,0,0-1.031.85Z" transform="translate(-494.111 -130.392)" fill="#263238"/>
      <path id="Path_2548" data-name="Path 2548" d="M536.248,149.187c.118.136.9-.389,1.907-.362s1.808.57,1.916.443-.063-.28-.389-.533a2.712,2.712,0,0,0-1.528-.515,2.559,2.559,0,0,0-1.528.452C536.3,148.925,536.185,149.133,536.248,149.187Z" transform="translate(-493.969 -130.273)" fill="#263238"/>
      <path id="Path_2549" data-name="Path 2549" d="M549.64,150.989a.958.958,0,0,0,.9,1,.9.9,0,0,0,1.031-.85.976.976,0,0,0-.9-1,.9.9,0,0,0-1.031.85Z" transform="translate(-495.256 -130.456)" fill="#263238"/>
      <path id="Path_2550" data-name="Path 2550" d="M548.289,149.9c.117.127.9-.4,1.907-.371s1.808.569,1.916.452-.063-.289-.389-.542a2.711,2.711,0,0,0-1.528-.515,2.621,2.621,0,0,0-1.528.452C548.343,149.634,548.234,149.9,548.289,149.9Z" transform="translate(-495.125 -130.34)" fill="#263238"/>
      <path id="Path_2551" data-name="Path 2551" d="M543.6,157.557a7.693,7.693,0,0,0-1.69-.344c-.271,0-.515-.1-.561-.28a1.411,1.411,0,0,1,.2-.786l.841-2.007a34.01,34.01,0,0,0,1.907-5.27,34.956,34.956,0,0,0-2.323,5.1c-.28.714-.551,1.383-.814,2.025a1.555,1.555,0,0,0-.163,1.049.678.678,0,0,0,.425.4,1.852,1.852,0,0,0,.452.072A6.275,6.275,0,0,0,543.6,157.557Z" transform="translate(-494.423 -130.335)" fill="#263238"/>
      <path id="Path_2552" data-name="Path 2552" d="M542.72,171.871a19.245,19.245,0,0,0,10.206-2.441s-2.594,5.134-10.142,4.23Z" transform="translate(-494.592 -132.31)" fill="#a36957"/>
      <path id="Path_2553" data-name="Path 2553" d="M556.568,151.158c-.9,2.088-3.091,3.7-2.793,5.948.2,1.446,1.13,2.8.9,4.258-.226,1.808-2.124,3.1-2.4,4.918-.325,2.242,1.808,3.977,2.712,6.066,1.266,3.037-.352,6.454-.389,9.745a10.459,10.459,0,0,0,9.293,10.124c2.034.163,4.321-.452,5.424-2.2.9-1.437.7-3.263,1.22-4.863.768-2.386,3.037-4.131,3.516-6.59.9-4.52-4.52-8.19-4.185-12.746.154-1.943,1.356-3.616,1.862-5.523a8.082,8.082,0,0,0-1.591-7.232c-1.329-1.591-3.272-2.64-4.411-4.375-1.293-1.971-1.338-4.52-1.808-6.771a17.058,17.058,0,0,0-27.119-10s-1.293,5.867,4.728,6.843,8.813-.154,9.492,2.26a6.391,6.391,0,0,0,1.808,5.514C555.275,149.305,557.617,148.745,556.568,151.158Z" transform="translate(-494.013 -128.366)" fill="#263238"/>
      <path id="Path_2554" data-name="Path 2554" d="M545.156,161.332a1.428,1.428,0,0,1,2.585-.976,1.012,1.012,0,0,1,.154.9,1.184,1.184,0,0,1-.506.524,1.862,1.862,0,0,1-1.437.3,1.085,1.085,0,0,1-.832-1.094" transform="translate(-494.822 -131.38)" fill="#a36957"/>
      <path id="Path_2555" data-name="Path 2555" d="M547.454,159c.063,0,.1.253,0,.633a2.586,2.586,0,0,1-.9,1.238,2.513,2.513,0,0,1-1.455.5c-.4,0-.624-.108-.615-.172a6.209,6.209,0,0,0,1.808-.705C547.111,159.9,547.327,159,547.454,159Z" transform="translate(-494.761 -131.308)" fill="#263238"/>
      <path id="Path_2556" data-name="Path 2556" d="M549.937,155.546c-.09.09-.289,0-.443-.108s-.2-.353-.108-.443.289-.045.443.108A.381.381,0,0,1,549.937,155.546Z" transform="translate(-495.227 -130.919)" fill="#a36957"/>
      <path id="Path_2557" data-name="Path 2557" d="M551.539,154.578c.109.072.117.262,0,.434s-.271.262-.389.19-.117-.253,0-.425S551.422,154.515,551.539,154.578Z" transform="translate(-495.393 -130.881)" fill="#a36957"/>
      <path id="Path_2558" data-name="Path 2558" d="M553.319,155.365c-.108.072-.289,0-.4-.163s-.118-.353,0-.425.28,0,.4.163A.313.313,0,0,1,553.319,155.365Z" transform="translate(-495.563 -130.9)" fill="#a36957"/>
      <path id="Path_2559" data-name="Path 2559" d="M551.56,156.773a.289.289,0,1,1-.06-.369.289.289,0,0,1,.06.369Z" transform="translate(-495.395 -131.052)" fill="#a36957"/>
      <path id="Path_2560" data-name="Path 2560" d="M536.941,155.685c-.072.108-.335.054-.479-.2s-.054-.5.072-.506.244.127.334.271A.443.443,0,0,1,536.941,155.685Z" transform="translate(-493.983 -130.922)" fill="#a36957"/>
      <path id="Path_2561" data-name="Path 2561" d="M538.266,155.261c-.118,0-.163-.235-.1-.443s.226-.334.353-.289.163.244.1.443S538.393,155.306,538.266,155.261Z" transform="translate(-494.152 -130.878)" fill="#a36957"/>
      <path id="Path_2562" data-name="Path 2562" d="M539.432,155.745c-.108-.063-.1-.307,0-.551s.335-.389.443-.325.1.307,0,.551S539.549,155.809,539.432,155.745Z" transform="translate(-494.268 -130.91)" fill="#a36957"/>
      <path id="Path_2563" data-name="Path 2563" d="M537.639,157.578c-.1.09-.325,0-.434-.271s0-.488.1-.5.253.136.334.316S537.738,157.5,537.639,157.578Z" transform="translate(-494.058 -131.098)" fill="#a36957"/>
      <path id="Path_2564" data-name="Path 2564" d="M550.769,146.472c-.108.244-.985.1-2.025.108s-1.916.154-2.025-.09.759-.85,2.025-.85S550.877,146.246,550.769,146.472Z" transform="translate(-494.975 -130.025)" fill="#263238"/>
      <path id="Path_2565" data-name="Path 2565" d="M538.542,146.932c-.045.253-.705.344-1.474.307s-1.41-.217-1.428-.479.651-.515,1.482-.461S538.587,146.7,538.542,146.932Z" transform="translate(-493.912 -130.087)" fill="#263238"/>
      <path id="Path_2566" data-name="Path 2566" d="M527.659,260.63c-.163-2,8.135-3.1,8.813-3.245s.506-1.157-.117-.994c-.9.244-10.305,2.5-10.486.542-.108-1.085,1.862-1.094,1.862-1.094s8.967-1.464,8.841-2.386-5.424-.244-7.177.108-2.622-.334-2.133-1.238c.325-.615,5.722-1.808,7.476-2.151s6.617-1.04,3.9-2.64-4.167-3.769-4.158-4.646a.976.976,0,0,1,1.808-.389,11.34,11.34,0,0,0,2.368,2.061A7.748,7.748,0,0,0,541,245.669c.9.253,1.708.434,2.386.57,4.682-1.473,26.893-11.571,26.893-11.571l.045-19.146,15.186-2.8.307,18.64a18.314,18.314,0,0,1-12.312,17.6l-28.212,9.8v-.045a91.534,91.534,0,0,1-9.256,3.815c-4.429,1.347-4.52.949-4.628.407-.181-1.455,7.7-2.658,5.857-3.381S527.795,262.166,527.659,260.63Z" transform="translate(-492.973 -136.468)" fill="#b78876"/>
    </g>
    <g id="freepik--character-2--inject-60" transform="translate(294.871 123.342)">
      <path id="Path_2567" data-name="Path 2567" d="M345.775,384.25c-.542,1.627-6.075,68.23-6.075,68.23l14.915,1.012,9.04-62.888Z" transform="translate(-321.47 -151.111)" fill="#ffbe9d"/>
      <path id="Path_2568" data-name="Path 2568" d="M393.643,131.9c1.6,4.348,2.567,7.232,4.14,10.685.9,1.962,2.061,3.932,1.953,6.075-.072,1.482-.759,2.884-.723,4.357.063,2.6,2.278,4.565,4.23,6.273s4,3.959,3.616,6.527c-.172,1.121-.814,2.133-.9,3.263a5.6,5.6,0,0,0,1.437,3.779,29.258,29.258,0,0,1,2.549,3.254l.307,2.079-24.479-7.738" transform="translate(-325.895 -126.874)" fill="#263238"/>
      <path id="Path_2569" data-name="Path 2569" d="M389.26,381.44c.416,1.654,4.429,72.488,4.429,72.488l14.87-1.121.976-71.367Z" transform="translate(-326.23 -150.841)" fill="#ffbe9d"/>
      <path id="Path_2570" data-name="Path 2570" d="M409.421,461.184l-.045-1.564-15.846.325.1,5.162h.976c4.357.145,22.165.443,25.058-.425C422.881,463.742,409.421,461.184,409.421,461.184Z" transform="translate(-326.64 -158.35)" fill="#8dc63f"/>
      <g id="Group_216" data-name="Group 216" transform="translate(66.944 302.424)" opacity="0.3">
        <path id="Path_2571" data-name="Path 2571" d="M399.384,465a5.044,5.044,0,0,0-2.088-3.083,5.6,5.6,0,0,0-3.706-1l.09,4.1Z" transform="translate(-393.59 -460.897)"/>
      </g>
      <g id="Group_217" data-name="Group 217" transform="translate(66.99 304.325)" opacity="0.3">
        <path id="Path_2572" data-name="Path 2572" d="M416.013,463s4.728,1.175,4.158,1.9-18.576,1.067-26.531.56v-.325l21.008-.217S415.1,463,416.013,463Z" transform="translate(-393.64 -463)"/>
      </g>
      <path id="Path_2573" data-name="Path 2573" d="M393.38,465.27h1.049l2.875.063c2.423,0,5.767.045,9.464,0s7.051-.19,9.464-.316l2.866-.163.777-.054H419.1l-2.866.1c-2.423.09-5.767.2-9.464.262s-7.042.072-9.464.072H393.38Z" transform="translate(-326.625 -158.848)" fill="#263238"/>
      <path id="Path_2574" data-name="Path 2574" d="M416.9,465.093a5.65,5.65,0,0,1,.506-1.284,5.788,5.788,0,0,1,.958-1.04,2.053,2.053,0,0,0-1.121.949A1.808,1.808,0,0,0,416.9,465.093Z" transform="translate(-328.882 -158.653)" fill="#263238"/>
      <path id="Path_2575" data-name="Path 2575" d="M411.7,462.868a1.886,1.886,0,0,0,.479-.579c.217-.344.371-.633.325-.66s-.262.226-.488.569S411.654,462.868,411.7,462.868Z" transform="translate(-328.384 -158.543)" fill="#263238"/>
      <path id="Path_2576" data-name="Path 2576" d="M410.27,462.25a2.383,2.383,0,0,0,.542-.362c.262-.235.461-.443.425-.479s-.28.117-.551.352S410.233,462.214,410.27,462.25Z" transform="translate(-328.247 -158.522)" fill="#263238"/>
      <path id="Path_2577" data-name="Path 2577" d="M409.34,460.809a1.809,1.809,0,0,0,.823.081,1.979,1.979,0,0,0,.823-.09,1.808,1.808,0,0,0-.823-.081,2.052,2.052,0,0,0-.823.09Z" transform="translate(-328.158 -158.454)" fill="#263238"/>
      <path id="Path_2578" data-name="Path 2578" d="M409,459.75a1.7,1.7,0,0,0,.9.226,1.663,1.663,0,0,0,.949-.136,6.62,6.62,0,0,0-.9,0A4.646,4.646,0,0,0,409,459.75Z" transform="translate(-328.126 -158.363)" fill="#263238"/>
      <path id="Path_2579" data-name="Path 2579" d="M412.26,461.439a3.27,3.27,0,0,0,1.012,0,6.69,6.69,0,0,0,1.076-.235,3.335,3.335,0,0,0,.606-.253.506.506,0,0,0,.244-.3.353.353,0,0,0-.154-.371,1.953,1.953,0,0,0-2.3.542,1.808,1.808,0,0,0-.316.642.5.5,0,0,0,0,.253,2.713,2.713,0,0,1,.443-.814,1.88,1.88,0,0,1,.859-.542,1.753,1.753,0,0,1,1.211.054c.163.108.1.289-.072.389a2.612,2.612,0,0,1-.569.235,7.555,7.555,0,0,1-1.039.28C412.64,461.4,412.26,461.412,412.26,461.439Z" transform="translate(-328.439 -158.398)" fill="#263238"/>
      <path id="Path_2580" data-name="Path 2580" d="M412.406,461.438a.9.9,0,0,0,.1-.66,1.519,1.519,0,0,0-.289-.687,1.049,1.049,0,0,0-.859-.461.362.362,0,0,0-.3.443.9.9,0,0,0,.181.416,3.1,3.1,0,0,0,.488.56,1.546,1.546,0,0,0,.587.371,6.491,6.491,0,0,1-.488-.461,3.166,3.166,0,0,1-.434-.551c-.145-.2-.253-.561,0-.606a.9.9,0,0,1,.678.389,1.4,1.4,0,0,1,.3.606,3.37,3.37,0,0,1,.036.642Z" transform="translate(-328.322 -158.351)" fill="#263238"/>
      <path id="Path_2581" data-name="Path 2581" d="M393.64,460.863a10.468,10.468,0,0,1,1.166,0,5.261,5.261,0,0,1,2.558.9A4.764,4.764,0,0,1,399,463.828c.262.624.289,1.049.325,1.04a.76.76,0,0,0,0-.3,3.3,3.3,0,0,0-.19-.786,4.52,4.52,0,0,0-1.645-2.151,5.009,5.009,0,0,0-2.667-.9,4.022,4.022,0,0,0-.9,0A2.644,2.644,0,0,0,393.64,460.863Z" transform="translate(-326.65 -158.454)" fill="#263238"/>
      <path id="Path_2582" data-name="Path 2582" d="M402.12,463.815a9.291,9.291,0,0,0,2.305.172,8.938,8.938,0,0,0,2.305-.217h-2.305A21.034,21.034,0,0,0,402.12,463.815Z" transform="translate(-327.465 -158.749)" fill="#263238"/>
      <path id="Path_2583" data-name="Path 2583" d="M398.7,463.879s.09.2.2.416.172.416.226.407.072-.226-.054-.479S398.736,463.843,398.7,463.879Z" transform="translate(-327.136 -158.759)" fill="#263238"/>
      <path id="Path_2584" data-name="Path 2584" d="M397.38,462.409a.831.831,0,0,0,.235.334c.172.145.325.253.371.217s-.072-.19-.235-.344S397.416,462.373,397.38,462.409Z" transform="translate(-327.01 -158.617)" fill="#263238"/>
      <path id="Path_2585" data-name="Path 2585" d="M395.52,461.75c0,.054.217.045.452.118s.407.181.443.154-.09-.235-.38-.325S395.5,461.705,395.52,461.75Z" transform="translate(-326.831 -158.546)" fill="#263238"/>
      <path id="Path_2586" data-name="Path 2586" d="M394.2,461.466a.425.425,0,0,0,.208.163c.136.045.253.045.271,0s-.081-.127-.208-.172S394.218,461.421,394.2,461.466Z" transform="translate(-326.704 -158.524)" fill="#263238"/>
      <path id="Path_2587" data-name="Path 2587" d="M322.459,229.127a15.033,15.033,0,0,1,1.663-19.724l26.115-25.193,4.972,18.414c-.461.262-20.221,18.287-20.221,18.287l14.057,20.746a11.254,11.254,0,0,1,.994,10.847l-.9,2.811a6.915,6.915,0,0,1-9.889,3.869l-4.24-2.323a.9.9,0,0,1-.289-1.392h0a.958.958,0,0,1,.814-.362l5.957.488a2.712,2.712,0,0,0,2.8-1.808h0Z" transform="translate(-319.533 -131.898)" fill="#ffbe9d"/>
      <path id="Path_2588" data-name="Path 2588" d="M336.634,224.955c-1.04-1.537-2.377-2.911-3.444-4.285" transform="translate(-320.844 -135.4)" fill="#ffbe9d"/>
      <path id="Path_2589" data-name="Path 2589" d="M416.506,201.916l5.849,10.585,3.616-28.764a11.6,11.6,0,0,0-1.193-6.047,12.66,12.66,0,0,0-1.455-2.341,12.972,12.972,0,0,0-2.5-2.35,1.049,1.049,0,0,1,.181-1.98c.9-.1,3.5,1.275,5.514,4.032s2.224-2.549,2.332-4.52.741-7.873,1.356-8.289c.9-.615,1.763.262,1.6,2.179s-.217,7.729.8,7.765,1.446-9.79,1.446-9.79-.244-2.124.9-2.115c2.124,0,.9,10.4.75,11.381-.1.687,1,.759,1.067,0s.217-9.817,2.377-9.835c1.654,0-.9,8.56.072,10.486s1.3-6.716,2.893-6.662c.588,0,1.031.118.145,5.035-.47,2.64-2.215,6.445-2.712,11.607l-.145,1.338s-2.983,25.211-7.412,40.578c-2.649,9.2-15.711,10.106-21.017,2.124-3.616-5.424-9.275-19.58-9.275-19.58Z" transform="translate(-327.424 -129.6)" fill="#ffbe9d"/>
      <path id="Path_2590" data-name="Path 2590" d="M440.184,180.93c0,.045-.334.045-.841.217a3.073,3.073,0,0,0-1.636,1.356l-.2.362-.117-.407a4.953,4.953,0,0,0-.777-1.564,5.7,5.7,0,0,0-2.712-2c-.841-.3-1.41-.28-1.4-.353a2.766,2.766,0,0,1,1.473.1,5.424,5.424,0,0,1,2.938,2.034,4.926,4.926,0,0,1,.814,1.69h-.316a3.028,3.028,0,0,1,1.871-1.383,1.51,1.51,0,0,1,.9-.054Z" transform="translate(-330.383 -131.349)" fill="#eb996e"/>
      <path id="Path_2591" data-name="Path 2591" d="M337.5,461.114l.045-1.564,15.846.325-.1,5.162h-.976c-4.357.145-22.174.443-25.058-.434C324.03,463.663,337.5,461.114,337.5,461.114Z" transform="translate(-320.227 -158.343)" fill="#8dc63f"/>
      <g id="Group_218" data-name="Group 218" transform="translate(27.351 302.36)" opacity="0.3">
        <path id="Path_2592" data-name="Path 2592" d="M349.79,464.934a5.107,5.107,0,0,1,2.079-3.092,5.623,5.623,0,0,1,3.715-.994l-.09,4.095Z" transform="translate(-349.79 -460.826)"/>
      </g>
      <g id="Group_219" data-name="Group 219" transform="translate(6.476 304.235)" opacity="0.3">
        <path id="Path_2593" data-name="Path 2593" d="M330.9,462.9s-4.728,1.166-4.158,1.9,18.585,1.058,26.54.56v-.334l-21.026-.226S331.825,462.99,330.9,462.9Z" transform="translate(-326.697 -462.9)"/>
      </g>
      <path id="Path_2594" data-name="Path 2594" d="M353.525,465.2h-1.058l-2.866.063c-2.423,0-5.776.045-9.473,0s-7.042-.2-9.464-.316l-2.866-.163-.777-.063h.786l2.866.108c2.423.09,5.767.2,9.464.262s7.042.072,9.464.072h3.616Z" transform="translate(-320.226 -158.84)" fill="#263238"/>
      <path id="Path_2595" data-name="Path 2595" d="M332.694,465.023a6,6,0,0,0-.506-1.284,6.182,6.182,0,0,0-.958-1.04,2.115,2.115,0,0,1,1.121.949A1.889,1.889,0,0,1,332.694,465.023Z" transform="translate(-320.656 -158.646)" fill="#263238"/>
      <path id="Path_2596" data-name="Path 2596" d="M337.964,462.8a1.885,1.885,0,0,1-.488-.57c-.226-.344-.362-.642-.316-.669s.262.235.479.579S338.009,462.771,337.964,462.8Z" transform="translate(-321.225 -158.536)" fill="#263238"/>
      <path id="Path_2597" data-name="Path 2597" d="M339.377,462.17a2.307,2.307,0,0,1-.551-.353c-.271-.235-.452-.452-.416-.488s.28.127.551.362S339.413,462.134,339.377,462.17Z" transform="translate(-321.345 -158.514)" fill="#263238"/>
      <path id="Path_2598" data-name="Path 2598" d="M340.234,460.738a2.223,2.223,0,0,1-.832.081,1.808,1.808,0,0,1-.823-.1,2.15,2.15,0,0,1,.823-.081A1.989,1.989,0,0,1,340.234,460.738Z" transform="translate(-321.362 -158.447)" fill="#263238"/>
      <path id="Path_2599" data-name="Path 2599" d="M340.541,459.67a2.459,2.459,0,0,1-1.871.1,4.776,4.776,0,0,1,.9,0A7.237,7.237,0,0,1,340.541,459.67Z" transform="translate(-321.371 -158.355)" fill="#263238"/>
      <path id="Path_2600" data-name="Path 2600" d="M337.176,461.369a3.275,3.275,0,0,1-1.012,0,6.587,6.587,0,0,1-1.076-.244,2.8,2.8,0,0,1-.615-.244.506.506,0,0,1-.244-.3.353.353,0,0,1,.163-.371,1.934,1.934,0,0,1,2.287.542,1.7,1.7,0,0,1,.316.633v.262a2.358,2.358,0,0,0-.443-.813,1.809,1.809,0,0,0-.85-.543,1.655,1.655,0,0,0-1.211.054c-.163.108-.108.289.072.389a3.063,3.063,0,0,0,.56.235,8.134,8.134,0,0,0,1.04.271A8.423,8.423,0,0,1,337.176,461.369Z" transform="translate(-320.944 -158.391)" fill="#263238"/>
      <path id="Path_2601" data-name="Path 2601" d="M337.186,461.359a.85.85,0,0,1-.108-.651,1.509,1.509,0,0,1,.3-.687,1,1,0,0,1,.85-.461.371.371,0,0,1,.307.434,1.138,1.138,0,0,1-.181.425,3.465,3.465,0,0,1-.5.56,1.546,1.546,0,0,1-.588.371s.208-.172.5-.461a3.355,3.355,0,0,0,.434-.56c.145-.2.244-.551,0-.6a.9.9,0,0,0-.678.389,1.509,1.509,0,0,0-.3.606A3.679,3.679,0,0,0,337.186,461.359Z" transform="translate(-321.216 -158.344)" fill="#263238"/>
      <path id="Path_2602" data-name="Path 2602" d="M355.506,460.782a7.926,7.926,0,0,0-1.166,0,5.423,5.423,0,0,0-2.567.9,4.782,4.782,0,0,0-1.636,2.061,9.037,9.037,0,0,0-.316,1.04v-.3a3.828,3.828,0,0,1,.19-.786,4.52,4.52,0,0,1,1.645-2.16,5.225,5.225,0,0,1,2.712-.9,4.8,4.8,0,0,1,.9,0,1.344,1.344,0,0,1,.235.145Z" transform="translate(-322.442 -158.446)" fill="#263238"/>
      <path id="Path_2603" data-name="Path 2603" d="M347.14,463.743a10.032,10.032,0,0,1-2.314.172,9.329,9.329,0,0,1-2.3-.217c0-.054,1.031,0,2.305,0A18.674,18.674,0,0,1,347.14,463.743Z" transform="translate(-321.742 -158.74)" fill="#263238"/>
      <path id="Path_2604" data-name="Path 2604" d="M351,463.809s-.09.2-.2.416-.172.416-.226.407-.081-.235.054-.479S350.955,463.773,351,463.809Z" transform="translate(-322.51 -158.752)" fill="#263238"/>
      <path id="Path_2605" data-name="Path 2605" d="M352.3,462.339a1.054,1.054,0,0,1-.235.334c-.163.154-.334.244-.371.208s.072-.181.235-.334S352.269,462.3,352.3,462.339Z" transform="translate(-322.621 -158.611)" fill="#263238"/>
      <path id="Path_2606" data-name="Path 2606" d="M354.133,461.681c0,.054-.226.045-.461.118s-.4.181-.443.145.1-.235.389-.316S354.151,461.636,354.133,461.681Z" transform="translate(-322.768 -158.54)" fill="#263238"/>
      <path id="Path_2607" data-name="Path 2607" d="M355.5,461.386c0,.045-.072.127-.208.163s-.253.045-.271,0,.072-.117.208-.163S355.481,461.341,355.5,461.386Z" transform="translate(-322.941 -158.517)" fill="#263238"/>
      <path id="Path_2608" data-name="Path 2608" d="M358.929,241.757,348.47,266.164,336.24,400.853l31.458,3.4,10.224-116.2,3.091,117.125,28.854-.9-4.24-137.916a26.593,26.593,0,0,0-2.712-10.721l-6.933-14.183Z" transform="translate(-321.137 -137.396)" fill="#263238"/>
      <path id="Path_2609" data-name="Path 2609" d="M385.222,279.254a1.2,1.2,0,0,1-.289.244,2.017,2.017,0,0,1-1.049.289,3.281,3.281,0,0,1-1.672-.461,3.689,3.689,0,0,1-1.492-1.745c-.714-1.609-.551-3.661-.606-5.831s0-4.61-.045-7.141V251.639c0-1.6.045-2.92.054-3.932a8.046,8.046,0,0,1,.09-1.446,9.839,9.839,0,0,1,.1,1.446c0,1.012.054,2.332.09,3.932.054,3.318.1,7.9.127,12.972v7.141c0,2.206-.154,4.2.479,5.7a3.308,3.308,0,0,0,2.856,2.151A2.711,2.711,0,0,0,385.222,279.254Z" transform="translate(-325.347 -137.858)" fill="#455a64"/>
      <path id="Path_2610" data-name="Path 2610" d="M408.744,257.187a2.6,2.6,0,0,1-.777.425,9.364,9.364,0,0,1-2.323.651,10.032,10.032,0,0,1-3.616-.145,14.905,14.905,0,0,1-4.095-1.564,13.008,13.008,0,0,1-5.424-5.731,11.525,11.525,0,0,1-.823-2.269,3.073,3.073,0,0,1-.127-.9,29.608,29.608,0,0,0,1.248,2.992,13.559,13.559,0,0,0,5.333,5.469,16.164,16.164,0,0,0,3.968,1.555,10.34,10.34,0,0,0,3.453.226A19.743,19.743,0,0,0,408.744,257.187Z" transform="translate(-326.451 -137.991)" fill="#455a64"/>
      <path id="Path_2611" data-name="Path 2611" d="M367.915,248.06a2.432,2.432,0,0,1,0,.841,11.228,11.228,0,0,1-.452,2.251,12.981,12.981,0,0,1-11.146,9.139,11.368,11.368,0,0,1-2.3,0,2.585,2.585,0,0,1-.832-.154c0-.09,1.2.081,3.092-.19a13.369,13.369,0,0,0,10.847-8.9C367.762,249.253,367.825,248.051,367.915,248.06Z" transform="translate(-322.765 -138.031)" fill="#455a64"/>
      <path id="Path_2612" data-name="Path 2612" d="M383.663,245.663A.54.54,0,0,1,384,245.6a1.338,1.338,0,0,1,.832.4,1.6,1.6,0,0,1,.47,1.311,1.573,1.573,0,0,1-2.82.56,1.555,1.555,0,0,1-.063-1.392,1.338,1.338,0,0,1,.615-.687c.2-.1.325-.09.325-.063a1.57,1.57,0,0,0-.633.9,1.284,1.284,0,0,0,.127,1.049,1.085,1.085,0,0,0,1.13.407,1.1,1.1,0,0,0,.9-.814,1.3,1.3,0,0,0-.289-1.012C384.16,245.7,383.663,245.744,383.663,245.663Z" transform="translate(-325.559 -137.794)" fill="#455a64"/>
      <path id="Path_2613" data-name="Path 2613" d="M368.06,412.053a5.56,5.56,0,0,1-1.2,0c-.768,0-1.889-.118-3.263-.226-2.712-.217-6.563-.588-10.748-1.1s-7.964-1.085-10.694-1.546c-1.365-.226-2.468-.425-3.227-.579a6.492,6.492,0,0,1-1.166-.28,5.191,5.191,0,0,1,1.2.1l3.236.434c2.712.371,6.527.9,10.7,1.4s7.982.9,10.721,1.238l3.254.371A5.56,5.56,0,0,1,368.06,412.053Z" transform="translate(-321.283 -153.423)" fill="#455a64"/>
      <path id="Path_2614" data-name="Path 2614" d="M413.058,410.99a4.515,4.515,0,0,1-1.094.108l-2.974.127c-2.513.108-5.975.289-9.8.588s-7.277.669-9.772.958l-2.956.334a5.822,5.822,0,0,1-1.094.072,4.658,4.658,0,0,1,1.067-.253c.687-.136,1.7-.3,2.938-.488,2.495-.371,5.948-.786,9.781-1.094s7.313-.425,9.826-.443h2.983a5.908,5.908,0,0,1,1.094.09Z" transform="translate(-325.856 -153.671)" fill="#455a64"/>
      <path id="Path_2615" data-name="Path 2615" d="M412.709,405.54a11.172,11.172,0,0,1,.19,4.52,5.424,5.424,0,0,1-.334-2.242,5.793,5.793,0,0,1,.145-2.278Z" transform="translate(-328.463 -153.156)" fill="#455a64"/>
      <path id="Path_2616" data-name="Path 2616" d="M412.3,395.55a5.424,5.424,0,0,1,.334,2.242,5.794,5.794,0,0,1-.145,2.269,5.424,5.424,0,0,1-.325-2.251A5.669,5.669,0,0,1,412.3,395.55Z" transform="translate(-328.424 -152.197)" fill="#455a64"/>
      <path id="Path_2617" data-name="Path 2617" d="M411.9,385.55a10.992,10.992,0,0,1,.181,4.52,5.6,5.6,0,0,1-.325-2.251A5.422,5.422,0,0,1,411.9,385.55Z" transform="translate(-328.384 -151.236)" fill="#455a64"/>
      <path id="Path_2618" data-name="Path 2618" d="M411.488,375.56a5.793,5.793,0,0,1,.325,2.251,5.423,5.423,0,0,1-.145,2.269,5.84,5.84,0,0,1-.325-2.251A5.423,5.423,0,0,1,411.488,375.56Z" transform="translate(-328.345 -150.277)" fill="#455a64"/>
      <path id="Path_2619" data-name="Path 2619" d="M411.079,365.57a5.577,5.577,0,0,1,.325,2.242,5.422,5.422,0,0,1-.145,2.269,5.768,5.768,0,0,1-.325-2.242,5.831,5.831,0,0,1,.145-2.269Z" transform="translate(-328.306 -149.317)" fill="#455a64"/>
      <path id="Path_2620" data-name="Path 2620" d="M410.67,355.58a5.487,5.487,0,0,1,.334,2.242,5.791,5.791,0,0,1-.145,2.269,5.353,5.353,0,0,1-.325-2.242A5.705,5.705,0,0,1,410.67,355.58Z" transform="translate(-328.268 -148.358)" fill="#455a64"/>
      <path id="Path_2621" data-name="Path 2621" d="M410.268,345.59a5.722,5.722,0,0,1,.325,2.242,5.793,5.793,0,0,1-.145,2.269,5.6,5.6,0,0,1-.325-2.251A5.424,5.424,0,0,1,410.268,345.59Z" transform="translate(-328.228 -147.398)" fill="#455a64"/>
      <path id="Path_2622" data-name="Path 2622" d="M409.859,335.59a5.839,5.839,0,0,1,.325,2.251,5.424,5.424,0,0,1-.145,2.269,5.793,5.793,0,0,1-.325-2.251,5.631,5.631,0,0,1,.145-2.269Z" transform="translate(-328.189 -146.438)" fill="#455a64"/>
      <path id="Path_2623" data-name="Path 2623" d="M409.449,325.6a5.641,5.641,0,0,1,.325,2.251,5.73,5.73,0,0,1-.136,2.269,5.55,5.55,0,0,1-.334-2.251,5.83,5.83,0,0,1,.145-2.269Z" transform="translate(-328.15 -145.478)" fill="#455a64"/>
      <path id="Path_2624" data-name="Path 2624" d="M409.04,315.61a5.55,5.55,0,0,1,.335,2.251,5.83,5.83,0,0,1-.145,2.269,5.424,5.424,0,0,1-.325-2.251A5.731,5.731,0,0,1,409.04,315.61Z" transform="translate(-328.111 -144.519)" fill="#455a64"/>
      <path id="Path_2625" data-name="Path 2625" d="M408.638,305.62a10.993,10.993,0,0,1,.181,4.52,5.641,5.641,0,0,1-.325-2.251,5.424,5.424,0,0,1,.145-2.269Z" transform="translate(-328.071 -143.559)" fill="#455a64"/>
      <path id="Path_2626" data-name="Path 2626" d="M408.229,295.63a5.794,5.794,0,0,1,.325,2.251,5.36,5.36,0,0,1-.145,2.26,5.723,5.723,0,0,1-.325-2.242,5.6,5.6,0,0,1,.145-2.269Z" transform="translate(-328.033 -142.6)" fill="#455a64"/>
      <path id="Path_2627" data-name="Path 2627" d="M407.819,285.64a5.352,5.352,0,0,1,.325,2.242,5.7,5.7,0,0,1-.136,2.269,5.424,5.424,0,0,1-.334-2.242A5.793,5.793,0,0,1,407.819,285.64Z" transform="translate(-327.993 -141.64)" fill="#455a64"/>
      <path id="Path_2628" data-name="Path 2628" d="M407.41,275.65a5.424,5.424,0,0,1,.335,2.242,5.8,5.8,0,0,1-.145,2.269,5.424,5.424,0,0,1-.325-2.251,5.642,5.642,0,0,1,.136-2.26Z" transform="translate(-327.954 -140.681)" fill="#455a64"/>
      <path id="Path_2629" data-name="Path 2629" d="M406.978,265.65a10.992,10.992,0,0,1,.181,4.52,5.594,5.594,0,0,1-.325-2.251A5.424,5.424,0,0,1,406.978,265.65Z" transform="translate(-327.912 -139.72)" fill="#455a64"/>
      <path id="Path_2630" data-name="Path 2630" d="M406.738,259c.127,0,.244.316.262.723s-.072.732-.208.741-.244-.316-.262-.723S406.6,259,406.738,259Z" transform="translate(-327.888 -139.081)" fill="#455a64"/>
      <path id="Path_2631" data-name="Path 2631" d="M342.045,404a5.814,5.814,0,0,1,0,2.269,5.488,5.488,0,0,1-.452,2.233,11.174,11.174,0,0,1,.425-4.52Z" transform="translate(-321.645 -153.006)" fill="#455a64"/>
      <path id="Path_2632" data-name="Path 2632" d="M342.94,394.06a5.477,5.477,0,0,1,0,2.278,5.687,5.687,0,0,1-.443,2.224,5.424,5.424,0,0,1,0-2.269A5.758,5.758,0,0,1,342.94,394.06Z" transform="translate(-321.727 -152.053)" fill="#455a64"/>
      <path id="Path_2633" data-name="Path 2633" d="M343.943,384.11a11.172,11.172,0,0,1-.425,4.52,5.667,5.667,0,0,1,0-2.278A5.424,5.424,0,0,1,343.943,384.11Z" transform="translate(-321.825 -151.098)" fill="#455a64"/>
      <path id="Path_2634" data-name="Path 2634" d="M344.845,374.148a5.831,5.831,0,0,1,0,2.269,5.485,5.485,0,0,1-.452,2.233,11.173,11.173,0,0,1,.425-4.52Z" transform="translate(-321.914 -150.139)" fill="#455a64"/>
      <path id="Path_2635" data-name="Path 2635" d="M345.77,364.2a5.423,5.423,0,0,1,0,2.269,5.685,5.685,0,0,1-.443,2.224,5.424,5.424,0,0,1,0-2.269A5.687,5.687,0,0,1,345.77,364.2Z" transform="translate(-321.999 -149.186)" fill="#455a64"/>
      <path id="Path_2636" data-name="Path 2636" d="M346.713,354.24a11.172,11.172,0,0,1-.425,4.52,5.868,5.868,0,0,1,0-2.278A5.469,5.469,0,0,1,346.713,354.24Z" transform="translate(-322.092 -148.229)" fill="#455a64"/>
      <path id="Path_2637" data-name="Path 2637" d="M347.645,344.278a5.869,5.869,0,0,1,0,2.278,5.469,5.469,0,0,1-.452,2.224,11.172,11.172,0,0,1,.425-4.52Z" transform="translate(-322.183 -147.27)" fill="#455a64"/>
      <path id="Path_2638" data-name="Path 2638" d="M348.57,334.33a5.424,5.424,0,0,1,0,2.269,5.689,5.689,0,0,1-.443,2.224,5.422,5.422,0,0,1,0-2.269A5.686,5.686,0,0,1,348.57,334.33Z" transform="translate(-322.268 -146.317)" fill="#455a64"/>
      <path id="Path_2639" data-name="Path 2639" d="M349.513,324.37a11.174,11.174,0,0,1-.425,4.52,5.869,5.869,0,0,1,0-2.278A5.469,5.469,0,0,1,349.513,324.37Z" transform="translate(-322.361 -145.36)" fill="#455a64"/>
      <path id="Path_2640" data-name="Path 2640" d="M350.445,314.408a5.668,5.668,0,0,1,0,2.278,5.424,5.424,0,0,1-.452,2.224,11.174,11.174,0,0,1,.425-4.52Z" transform="translate(-322.452 -144.401)" fill="#455a64"/>
      <path id="Path_2641" data-name="Path 2641" d="M351.37,304.46a5.421,5.421,0,0,1,0,2.269,5.758,5.758,0,0,1-.443,2.233,5.476,5.476,0,0,1,0-2.278A5.686,5.686,0,0,1,351.37,304.46Z" transform="translate(-322.536 -143.448)" fill="#455a64"/>
      <path id="Path_2642" data-name="Path 2642" d="M352.313,294.5a11.174,11.174,0,0,1-.425,4.52,5.811,5.811,0,0,1,0-2.269A5.487,5.487,0,0,1,352.313,294.5Z" transform="translate(-322.63 -142.491)" fill="#455a64"/>
      <path id="Path_2643" data-name="Path 2643" d="M353.245,284.538a5.668,5.668,0,0,1,0,2.278,5.424,5.424,0,0,1-.452,2.224,11.173,11.173,0,0,1,.425-4.52Z" transform="translate(-322.721 -141.533)" fill="#455a64"/>
      <path id="Path_2644" data-name="Path 2644" d="M354.17,274.59a5.424,5.424,0,0,1,0,2.269,5.757,5.757,0,0,1-.443,2.233,5.478,5.478,0,0,1,0-2.278A5.686,5.686,0,0,1,354.17,274.59Z" transform="translate(-322.805 -140.579)" fill="#455a64"/>
      <path id="Path_2645" data-name="Path 2645" d="M355.113,264.63a11.127,11.127,0,0,1-.425,4.52,5.713,5.713,0,0,1,0-2.269A5.424,5.424,0,0,1,355.113,264.63Z" transform="translate(-322.898 -139.622)" fill="#455a64"/>
      <path id="Path_2646" data-name="Path 2646" d="M395.806,235.106s.3-25.745.253-26.215l16.642-1.916s-5.08-19.236-7.873-22.834c-7.232-9.356-18.82-7.7-18.82-7.7l-17.175-.2a13.937,13.937,0,0,0-1.464-.253,17.727,17.727,0,0,0-14,4.52l-19.525,17.7,15.548,14.21,7.168-5.849,2.133,28.818Z" transform="translate(-320.907 -131.097)" fill="#8dc63f"/>
      <path id="Path_2647" data-name="Path 2647" d="M412.295,199.26c.072.108-11.58,7.53-26.016,16.569S360.064,232.1,360.01,232s11.58-7.53,26.016-16.569S412.231,199.151,412.295,199.26Z" transform="translate(-323.42 -133.344)" fill="#263238"/>
      <path id="Path_2648" data-name="Path 2648" d="M392.882,176.94c.109.081-7.232,9.943-16.407,22.1s-16.687,21.9-16.8,21.821,7.232-9.943,16.416-22.1S392.783,176.859,392.882,176.94Z" transform="translate(-323.389 -131.2)" fill="#263238"/>
      <path id="Path_2649" data-name="Path 2649" d="M350.6,179.728c.117-3.381-1.618-6.852-.4-10.007.9-2.341,3.417-3.751,4.429-6.047s.361-4.782,0-7.168-.488-5.162,1.2-6.906c1.392-1.428,3.616-1.745,5.089-3.092a7.232,7.232,0,0,0,1.934-4.945c.118-1.808-.09-3.616.145-5.424a11.58,11.58,0,0,1,6.2-8.732,8.823,8.823,0,0,1,10.585,1.663l-11.164,42.414a43.2,43.2,0,0,0-18.025,8.244Z" transform="translate(-322.437 -126.34)" fill="#263238"/>
      <path id="Path_2650" data-name="Path 2650" d="M350.679,163.749a2.334,2.334,0,0,0-.3.235,1.573,1.573,0,0,0-.479.9,1.727,1.727,0,0,0,.479,1.51,2.1,2.1,0,0,0,2.043.362,2.712,2.712,0,0,0,1.727-1.88,5.342,5.342,0,0,0-.09-3.073c-.3-1.085-.814-2.16-1.211-3.372a7.773,7.773,0,0,1-.28-3.905,8.045,8.045,0,0,1,4.438-5.876c1.049-.5,2.1-.814,2.992-1.238a5.659,5.659,0,0,0,2.169-1.645,5.884,5.884,0,0,0,1.284-3.706,12.975,12.975,0,0,0-.154-1.473,3.166,3.166,0,0,1,.154.362,4.755,4.755,0,0,1,.19,1.112,5.975,5.975,0,0,1-1.211,3.914,6.038,6.038,0,0,1-2.26,1.808c-.9.452-1.971.786-2.983,1.275a7.675,7.675,0,0,0-4.158,5.568,7.458,7.458,0,0,0,.262,3.688c.371,1.166.9,2.26,1.193,3.39a5.658,5.658,0,0,1,0,3.308,3.073,3.073,0,0,1-2,2.079,2.35,2.35,0,0,1-2.323-.488,1.889,1.889,0,0,1-.479-1.736,1.609,1.609,0,0,1,.6-.967A.832.832,0,0,1,350.679,163.749Z" transform="translate(-322.424 -127.709)" fill="#263238"/>
      <path id="Path_2651" data-name="Path 2651" d="M388.618,171.443c-.38-4.746-5.849-1.862-5.243-6.581a199.106,199.106,0,0,0,1.537-32.072" transform="translate(-325.66 -126.96)" fill="#263238"/>
      <path id="Path_2652" data-name="Path 2652" d="M370.226,171.444l-2.115-32.425c5.424-7.421,12.655-8.994,21.568-6.328,0,0,3.77,15.666,3.318,23.159-.461,7.846-6.328,9.419-6.328,9.419s.208,2.64.488,5.876c1.51.244,3.941.642,5.6,1.058.633.154-12.592,17.944-12.592,17.944l-15.43-16.714A21.4,21.4,0,0,1,370.226,171.444Z" transform="translate(-323.874 -126.834)" fill="#ffbe9d"/>
      <path id="Path_2653" data-name="Path 2653" d="M392.11,146.284a.994.994,0,0,1-.859,1.094.949.949,0,0,1-1.112-.786,1.012,1.012,0,0,1,.859-1.1A.967.967,0,0,1,392.11,146.284Z" transform="translate(-326.314 -128.178)" fill="#263238"/>
      <path id="Path_2654" data-name="Path 2654" d="M393.22,145.338c-.118.136-.9-.343-1.989-.235s-1.808.714-1.925.6.045-.3.362-.579a2.712,2.712,0,0,1,3.119-.289C393.139,145.048,393.274,145.274,393.22,145.338Z" transform="translate(-326.23 -128.081)" fill="#263238"/>
      <path id="Path_2655" data-name="Path 2655" d="M380.05,147.684a.994.994,0,0,1-.859,1.094.958.958,0,0,1-1.112-.8.994.994,0,0,1,.859-1.094.958.958,0,0,1,1.112.8Z" transform="translate(-325.155 -128.312)" fill="#263238"/>
      <path id="Path_2656" data-name="Path 2656" d="M381.139,146.717c-.108.136-.9-.344-1.989-.235s-1.808.714-1.925.6,0-.3.362-.579a2.712,2.712,0,0,1,1.528-.642,2.558,2.558,0,0,1,1.591.353C381.058,146.428,381.194,146.654,381.139,146.717Z" transform="translate(-325.07 -128.213)" fill="#263238"/>
      <path id="Path_2657" data-name="Path 2657" d="M386.7,154a7.156,7.156,0,0,1,1.7-.479c.271-.054.524-.136.551-.325a1.411,1.411,0,0,0-.262-.8c-.316-.633-.66-1.293-1.012-1.989a35.463,35.463,0,0,1-2.341-5.252,35.648,35.648,0,0,1,2.766,5.044c.335.705.66,1.374.976,2.016a1.618,1.618,0,0,1,.244,1.058.714.714,0,0,1-.407.443,2.765,2.765,0,0,1-.461.108A6.771,6.771,0,0,1,386.7,154Z" transform="translate(-325.853 -128.148)" fill="#263238"/>
      <path id="Path_2658" data-name="Path 2658" d="M387.87,168.645a19.742,19.742,0,0,1-10.63-1.745s3.037,5.062,10.7,3.616Z" transform="translate(-325.075 -130.236)" fill="#eb996e"/>
      <path id="Path_2659" data-name="Path 2659" d="M386.295,157.777a1.935,1.935,0,0,0-1.808-.551,1.808,1.808,0,0,0-1.148.768,1.13,1.13,0,0,0,0,1.284,1.3,1.3,0,0,0,1.437.217,4.194,4.194,0,0,0,1.284-.949,1.265,1.265,0,0,0,.271-.344.37.37,0,0,0-.045-.4" transform="translate(-325.642 -129.302)" fill="#eb996e"/>
      <path id="Path_2660" data-name="Path 2660" d="M383.447,156.1c.172,0,.289,1.13,1.356,1.853s2.3.479,2.314.642-.244.253-.768.316a2.92,2.92,0,0,1-1.925-.47,2.486,2.486,0,0,1-1.067-1.564C383.266,156.4,383.365,156.1,383.447,156.1Z" transform="translate(-325.659 -129.198)" fill="#263238"/>
      <path id="Path_2661" data-name="Path 2661" d="M389.6,143.638c.063.163.8,0,1.69,0s1.636.136,1.7,0-.678-.6-1.7-.588S389.527,143.484,389.6,143.638Z" transform="translate(-326.262 -127.945)" fill="#263238"/>
      <path id="Path_2662" data-name="Path 2662" d="M377.7,144.1v-.027a7.657,7.657,0,0,1,1.672-.416c1-.1,1.808.226,1.9.072s-.126-.253-.47-.425a2.784,2.784,0,0,0-1.482-.253,2.5,2.5,0,0,0-1.754.832l-.072.127h0C377.6,144.1,377.662,144.115,377.7,144.1Z" transform="translate(-325.099 -127.943)" fill="#263238"/>
      <path id="Path_2663" data-name="Path 2663" d="M377.4,151.84c.09,0,.172-.108.19-.262s0-.289-.117-.3-.172.108-.19.262S377.316,151.831,377.4,151.84Z" transform="translate(-325.079 -128.735)" fill="#eb996e"/>
      <path id="Path_2664" data-name="Path 2664" d="M380.1,151.732c.081,0,.145-.145.081-.289s-.208-.2-.271-.145-.054.163,0,.262S379.987,151.741,380.1,151.732Z" transform="translate(-325.327 -128.735)" fill="#eb996e"/>
      <path id="Path_2665" data-name="Path 2665" d="M378.642,152.96a.172.172,0,0,0,.136-.2.181.181,0,0,0-.163-.181.19.19,0,0,0-.145.2C378.479,152.842,378.551,152.96,378.642,152.96Z" transform="translate(-325.193 -128.86)" fill="#eb996e"/>
      <path id="Path_2666" data-name="Path 2666" d="M394.079,151.191c.081,0,.136-.145.117-.3s-.1-.262-.19-.253-.136.145-.118.3S393.989,151.2,394.079,151.191Z" transform="translate(-326.674 -128.674)" fill="#eb996e"/>
      <path id="Path_2667" data-name="Path 2667" d="M391.353,151.262c.09,0,.154-.108.145-.235s-.081-.226-.163-.217a.207.207,0,0,0-.145.235C391.2,151.172,391.271,151.262,391.353,151.262Z" transform="translate(-326.415 -128.69)" fill="#eb996e"/>
      <path id="Path_2668" data-name="Path 2668" d="M392.685,152.111c.09,0,.163-.127.163-.28s-.072-.271-.154-.271-.154.118-.154.271S392.6,152.111,392.685,152.111Z" transform="translate(-326.545 -128.762)" fill="#eb996e"/>
      <path id="Path_2669" data-name="Path 2669" d="M383.834,128.466a17.256,17.256,0,0,0,4.384,10.061c2.5,2.757,5.342,5.162,9.04,5.831-.994-3.164-1.211-5.7-2.016-8.334a15.177,15.177,0,0,0-4-7.114,9.338,9.338,0,0,0-9.636-1.573" transform="translate(-325.495 -126.369)" fill="#263238"/>
      <path id="Path_2670" data-name="Path 2670" d="M396.751,141.934a2.429,2.429,0,0,1-.633.108,5.867,5.867,0,0,1-1.808-.163,7.738,7.738,0,0,1-2.4-1.094,17.259,17.259,0,0,1-2.468-2.052,23,23,0,0,1-3.462-4.646A10.076,10.076,0,0,1,385,131.9a14.7,14.7,0,0,1,1.347,1.971,28.571,28.571,0,0,0,3.507,4.52,12.068,12.068,0,0,0,4.619,3.164,17.179,17.179,0,0,0,2.278.38Z" transform="translate(-325.821 -126.874)" fill="#455a64"/>
      <path id="Path_2671" data-name="Path 2671" d="M395.38,143.37a2.1,2.1,0,0,1,.28.244,7.178,7.178,0,0,1,.678.814,9.943,9.943,0,0,1,1.618,3.525,10.369,10.369,0,0,1,.289,2.712,17.972,17.972,0,0,1-.425,3.055,18.381,18.381,0,0,0-.47,3.29,7.3,7.3,0,0,0,.723,3.4,7.63,7.63,0,0,0,2.178,2.712c.9.687,1.944,1.175,2.793,1.907a3.616,3.616,0,0,1,1.455,2.766,5.423,5.423,0,0,1-.9,2.567,12.655,12.655,0,0,0-1.031,1.907,4.076,4.076,0,0,0-.316,1.573,2.712,2.712,0,0,0,.416,1.293,1.167,1.167,0,0,1-.253-.271,2.188,2.188,0,0,1-.344-1.012,4.187,4.187,0,0,1,.244-1.672,12.291,12.291,0,0,1,.994-1.98,5.178,5.178,0,0,0,.8-2.4,3.272,3.272,0,0,0-1.347-2.441c-.8-.669-1.808-1.139-2.793-1.871a7.991,7.991,0,0,1-2.323-2.875,7.757,7.757,0,0,1-.759-3.616,18.435,18.435,0,0,1,.506-3.372,17.772,17.772,0,0,0,.461-2.983,10.278,10.278,0,0,0-.226-2.594,10.632,10.632,0,0,0-1.446-3.5C395.7,143.777,395.353,143.4,395.38,143.37Z" transform="translate(-326.817 -127.976)" fill="#455a64"/>
      <path id="Path_2672" data-name="Path 2672" d="M403.313,158.79a1.113,1.113,0,0,1-.145.407,2.179,2.179,0,0,1-.9.9,3.01,3.01,0,0,1-1.934.334,3.073,3.073,0,0,1-2.133-1.464,4.764,4.764,0,0,1-.642-3.092,7.945,7.945,0,0,1,1.356-3.345c.687-1.067,1.627-2.025,2.323-3.146a4.664,4.664,0,0,0,.624-3.842,5.017,5.017,0,0,0-2.513-3,6.464,6.464,0,0,0-1.808-.588c-.633-.136-1.265-.271-1.88-.452a10.459,10.459,0,0,1-3.245-1.537,25.153,25.153,0,0,1-2.432-1.953,15.367,15.367,0,0,1-2.947-3.39,6.774,6.774,0,0,1-.533-1.112,1.807,1.807,0,0,1-.1-.416,15.7,15.7,0,0,0,.786,1.428,17.041,17.041,0,0,0,3.01,3.245,14.328,14.328,0,0,0,5.586,3.318c.588.163,1.211.3,1.853.425a7.07,7.07,0,0,1,1.962.624,5.424,5.424,0,0,1,2.712,3.281,5.153,5.153,0,0,1-.678,4.212c-.759,1.184-1.69,2.115-2.359,3.146a7.584,7.584,0,0,0-1.329,3.155,4.393,4.393,0,0,0,.533,2.856,2.866,2.866,0,0,0,1.9,1.392,2.938,2.938,0,0,0,1.808-.244A2.567,2.567,0,0,0,403.313,158.79Z" transform="translate(-325.955 -126.989)" fill="#263238"/>
      <path id="Path_2673" data-name="Path 2673" d="M354.147,178.753a4.137,4.137,0,0,1-.325-.325,6.213,6.213,0,0,1-.75-1.112,7.566,7.566,0,0,1-.705-4.818,7.042,7.042,0,0,1,1.4-3.11,18.7,18.7,0,0,1,2.829-2.712,12.576,12.576,0,0,0,2.884-3.019,5.125,5.125,0,0,0,.768-2.007,4.122,4.122,0,0,0-.28-2.151c-.56-1.41-1.618-2.585-2.215-4a4.52,4.52,0,0,1-.334-2.251,4.42,4.42,0,0,1,.859-2,10.044,10.044,0,0,1,3-2.5,15.242,15.242,0,0,0,2.712-1.925,5.162,5.162,0,0,0,1.871-4.185,6.453,6.453,0,0,0-.515-1.681s.1.127.262.389a3.542,3.542,0,0,1,.434,1.266,5.306,5.306,0,0,1-1.808,4.456,15.212,15.212,0,0,1-2.712,2.007,9.944,9.944,0,0,0-2.865,2.432,4.231,4.231,0,0,0-.759,1.808,4,4,0,0,0,.325,2.007c.551,1.329,1.6,2.495,2.215,4.014a4.52,4.52,0,0,1,.316,2.4,5.868,5.868,0,0,1-.85,2.179,12.773,12.773,0,0,1-2.992,3.11,18.168,18.168,0,0,0-2.8,2.594,6.8,6.8,0,0,0-1.383,2.929,7.612,7.612,0,0,0,.542,4.673A15.42,15.42,0,0,0,354.147,178.753Z" transform="translate(-322.674 -127.743)" fill="#455a64"/>
      <path id="Path_2674" data-name="Path 2674" d="M358.186,176.112c.407-3.543,1.1-5.017,1.085-8.588,0-3.272,3.01-7.629,1.139-11.48A43.636,43.636,0,0,1,363,148.975c.624-1.419,2.9-5.722,3.48-7.168-.371-2.667-2.287-2.468-1.916-5.116a11.412,11.412,0,0,1,4.646-8.136,13.009,13.009,0,0,1,5.722-1.736,11.824,11.824,0,0,1,4.185.19,5.487,5.487,0,0,1,3.336,2.377l-.705-.669a10.025,10.025,0,0,1-2.35,8.461,14.734,14.734,0,0,1-7.711,4.52,5.93,5.93,0,0,1-.651,2.866l.072.1-.172.09a6.207,6.207,0,0,1-.651.9,5.423,5.423,0,0,1-1.13,1,4.357,4.357,0,0,0,0,3.86c.732,1.383,2.224,2.368,2.522,3.905.343,1.727-.976,3.381-.9,5.134a5.577,5.577,0,0,0,.9,2.621c3.191,4.095,2.63,8.316.823,13.18-.669,1.808-1.7,3.706-1.175,5.559s2.26,2.9,2.811,4.637c.777,2.4-1,4.818-2.667,6.725a56.616,56.616,0,0,0-11.037-3.616A20.1,20.1,0,0,0,361,183.8a4.24,4.24,0,0,1-7.928,1.2C356.17,183.343,357.78,179.664,358.186,176.112Z" transform="translate(-322.754 -126.376)" fill="#263238"/>
      <path id="Path_2675" data-name="Path 2675" d="M364.36,138.653a18.983,18.983,0,0,0,3.046,1.69,11.073,11.073,0,0,0,14.264-5.207,26.112,26.112,0,0,0,1.347-3.236,3.056,3.056,0,0,1-.136.9,11.843,11.843,0,0,1-.9,2.45,12.113,12.113,0,0,1-2.242,3.155,11.083,11.083,0,0,1-3.95,2.621,11.453,11.453,0,0,1-8.461-.362,10.331,10.331,0,0,1-2.233-1.338A3.028,3.028,0,0,1,364.36,138.653Z" transform="translate(-323.838 -126.874)" fill="#455a64"/>
      <path id="Path_2676" data-name="Path 2676" d="M365,134.467c0-.072.832.127,2.151.181a12.456,12.456,0,0,0,9.356-3.616c.949-.9,1.41-1.627,1.473-1.582a5.7,5.7,0,0,1-1.229,1.808,11.661,11.661,0,0,1-4.375,3,11.5,11.5,0,0,1-5.243.714A5.37,5.37,0,0,1,365,134.467Z" transform="translate(-323.9 -126.639)" fill="#455a64"/>
      <path id="Path_2677" data-name="Path 2677" d="M364.359,136.939c.108-.09.841.723,2.016,1.3s2.251.714,2.242.85a3.318,3.318,0,0,1-2.459-.425C364.883,138.024,364.25,136.993,364.359,136.939Z" transform="translate(-323.837 -127.357)" fill="#455a64"/>
      <path id="Path_2678" data-name="Path 2678" d="M365.176,191.166a2.264,2.264,0,0,1,.081-.569,2.712,2.712,0,0,1,.859-1.428,4.52,4.52,0,0,0,1.7-1.808,3.345,3.345,0,0,0-.109-3.164,3.787,3.787,0,0,0-1.455-1.211,3.2,3.2,0,0,1-1.609-1.591,2.793,2.793,0,0,1-.244-1.193,3.49,3.49,0,0,1,.28-1.22,16.679,16.679,0,0,1,1.22-2.188,8.452,8.452,0,0,0-.9-9.943,4.456,4.456,0,0,1-1.265-2.712,4.727,4.727,0,0,1,1.067-2.712c.551-.759,1.184-1.41,1.654-2.133a3.733,3.733,0,0,0,.759-2.287,3.869,3.869,0,0,0-1-2.079,7.785,7.785,0,0,1-1.329-2.043,4.746,4.746,0,0,1,.163-4.194,8.135,8.135,0,0,1,2.64-2.278,3.833,3.833,0,0,0,1.6-1.916,2.946,2.946,0,0,0,.2-1.582c-.072-.353-.2-.524-.172-.533a1.2,1.2,0,0,1,.262.515,2.811,2.811,0,0,1-.118,1.663,4.013,4.013,0,0,1-1.618,2.07,8.028,8.028,0,0,0-2.513,2.224,4.4,4.4,0,0,0-.081,3.878,7.852,7.852,0,0,0,1.266,1.889,3.553,3.553,0,0,1,.3,4.872c-.5.768-1.139,1.419-1.663,2.151a4.294,4.294,0,0,0-.967,2.432,3.951,3.951,0,0,0,1.166,2.414,8.832,8.832,0,0,1,2.251,5.288,8.669,8.669,0,0,1-1.284,5.2,14.987,14.987,0,0,0-1.211,2.115,3.189,3.189,0,0,0-.271,1.076,2.5,2.5,0,0,0,.2,1.031,2.857,2.857,0,0,0,1.419,1.419,4.113,4.113,0,0,1,1.573,1.356,2.9,2.9,0,0,1,.479,1.808,5.307,5.307,0,0,1-.416,1.627,3.228,3.228,0,0,1-.859,1.175c-.344.289-.687.488-.958.714a2.712,2.712,0,0,0-.9,1.311A3.619,3.619,0,0,1,365.176,191.166Z" transform="translate(-323.778 -127.881)" fill="#455a64"/>
      <path id="Path_2679" data-name="Path 2679" d="M364.27,137.481a11.75,11.75,0,0,0,2.875,2.07,8.741,8.741,0,0,0,3.715.814,10.432,10.432,0,0,0,4.52-1.076,6.834,6.834,0,0,0,3.128-3.318c.615-1.311,1-2.594,1.455-3.616a8.714,8.714,0,0,1,1.338-2.3,3.867,3.867,0,0,1,.515-.515c.127-.108.2-.154.217-.145a10.2,10.2,0,0,0-1.808,3.082c-.407,1.031-.759,2.314-1.374,3.679a7.114,7.114,0,0,1-3.3,3.553,10.332,10.332,0,0,1-4.728,1.094,8.8,8.8,0,0,1-3.86-.9,8.136,8.136,0,0,1-2.142-1.591A2.766,2.766,0,0,1,364.27,137.481Z" transform="translate(-323.83 -126.634)" fill="#455a64"/>
    </g>
    <g id="freepik--character-1--inject-60" transform="translate(137.716 116.831)">
      <path id="Path_2680" data-name="Path 2680" d="M165.373,455.64l-1.681,7.078s-11.58,15.033-15.15,14.3c-2.341-.479.533-4.4,4.936-15.828l.9-4.71Z" transform="translate(-145.875 -151.458)" fill="#8dc63f"/>
      <path id="Path_2681" data-name="Path 2681" d="M148.11,475.37a1.4,1.4,0,0,0,.615.6,2.16,2.16,0,0,0,2.215-.307,65.586,65.586,0,0,0,5.767-5.424c2.142-2.251,3.941-4.411,5.207-6.011l1.482-1.9c.136-.19.271-.362.4-.524a.8.8,0,0,1,.154-.172s0,.072-.118.2a4.294,4.294,0,0,0-.371.542c-.325.47-.814,1.139-1.428,1.944a74.138,74.138,0,0,1-5.18,6.066,56.714,56.714,0,0,1-5.831,5.424,2.713,2.713,0,0,1-1.3.488,1.935,1.935,0,0,1-1.031-.226,1.329,1.329,0,0,1-.488-.452.606.606,0,0,1-.09-.244Z" transform="translate(-145.913 -152.033)" fill="#263238"/>
      <path id="Path_2682" data-name="Path 2682" d="M149.92,471.476a1.872,1.872,0,0,1,.958-.108,4.964,4.964,0,0,1,2.179.759,3.969,3.969,0,0,1,1.582,1.672,2.08,2.08,0,0,1,.253.9,5.374,5.374,0,0,0-.38-.859,4.212,4.212,0,0,0-1.564-1.564,5.566,5.566,0,0,0-2.088-.8C150.291,471.431,149.929,471.512,149.92,471.476Z" transform="translate(-146.087 -152.967)" fill="#263238"/>
      <path id="Path_2683" data-name="Path 2683" d="M162,466.824a1.455,1.455,0,0,1-.145-.334,6.219,6.219,0,0,1-.226-.967,5.252,5.252,0,0,1,.542-3.218,4.927,4.927,0,0,1,2.341-2.278,3.9,3.9,0,0,1,.9-.3,1.059,1.059,0,0,1,.371,0,7.4,7.4,0,0,0-1.257.452,5.107,5.107,0,0,0-2.224,2.233,5.514,5.514,0,0,0-.579,3.11C161.878,466.3,162.041,466.815,162,466.824Z" transform="translate(-147.207 -151.849)" fill="#263238"/>
      <path id="Path_2684" data-name="Path 2684" d="M166.321,457c.054,0-.208,1-.425,2.26a7.62,7.62,0,0,1-.6,2.224c-.045,0,.181-1.012.4-2.269A7.792,7.792,0,0,1,166.321,457Z" transform="translate(-147.564 -151.589)" fill="#263238"/>
      <path id="Path_2685" data-name="Path 2685" d="M153.87,462.879a2.649,2.649,0,0,1,1.482,0,2.568,2.568,0,0,1,1.338.633c0,.054-.606-.253-1.383-.434S153.87,462.978,153.87,462.879Z" transform="translate(-146.467 -152.143)" fill="#263238"/>
      <path id="Path_2686" data-name="Path 2686" d="M153.6,464.215a2.343,2.343,0,0,1,2.35.56,5.7,5.7,0,0,0-1.148-.407C154.151,464.215,153.609,464.279,153.6,464.215Z" transform="translate(-146.441 -152.268)" fill="#263238"/>
      <path id="Path_2687" data-name="Path 2687" d="M152.58,465.885a1.564,1.564,0,0,1,1.293-.163,1.6,1.6,0,0,1,1.1.705,6.81,6.81,0,0,0-1.112-.461A6.153,6.153,0,0,0,152.58,465.885Z" transform="translate(-146.343 -152.419)" fill="#263238"/>
      <path id="Path_2688" data-name="Path 2688" d="M154.75,462.019a14.21,14.21,0,0,0,1.356-.47,10.637,10.637,0,0,0,1.4-.669c.253-.145.506-.307.768-.488a.928.928,0,0,0,.479-.705c-.009-.271-.344-.425-.615-.362a1.636,1.636,0,0,0-.714.479c-.425.4-.786.786-1.085,1.112-.588.669-.9,1.112-.9,1.085a2.139,2.139,0,0,1,.2-.334c.145-.208.353-.5.642-.841a11.637,11.637,0,0,1,1.058-1.157,1.808,1.808,0,0,1,.8-.542.687.687,0,0,1,.9.542,1.184,1.184,0,0,1-.579.9,8.742,8.742,0,0,1-.8.5,9.474,9.474,0,0,1-1.437.642,9.326,9.326,0,0,1-1.021.28,1.575,1.575,0,0,1-.461.027Z" transform="translate(-146.551 -151.789)" fill="#263238"/>
      <path id="Path_2689" data-name="Path 2689" d="M155.19,461.767a12.75,12.75,0,0,1-.208-1.293,5.686,5.686,0,0,0-.4-1.347,2.875,2.875,0,0,0-.434-.678c-.172-.2-.443-.371-.66-.244s-.244.443-.217.705a3.525,3.525,0,0,0,.226.777,4.52,4.52,0,0,0,.759,1.166c.533.6.958.9.9.9a1.313,1.313,0,0,1-.307-.181,6.743,6.743,0,0,1-.732-.633,4.312,4.312,0,0,1-.823-1.193,2.92,2.92,0,0,1-.253-.823.9.9,0,0,1,.316-.9.759.759,0,0,1,.9.289,2.711,2.711,0,0,1,.452.741,4.855,4.855,0,0,1,.371,1.392c.045.407.063.732.072.958A1.076,1.076,0,0,1,155.19,461.767Z" transform="translate(-146.385 -151.682)" fill="#263238"/>
      <g id="Group_220" data-name="Group 220" transform="translate(1.851 307.861)" opacity="0.4">
        <path id="Path_2690" data-name="Path 2690" d="M163.694,463.109l.814-3.4s-2.838.524-3.571,2.649a8.9,8.9,0,0,0-.56,3.616l-6.165,6.653s-1.546-3.019-4.348-2.3c0,0-2.206,4.854-2.133,6.066s1.482,1.067,1.98.841a24.758,24.758,0,0,0,5.523-4.357C158.5,469.491,162.112,465.2,163.694,463.109Z" transform="translate(-147.728 -459.71)"/>
      </g>
      <path id="Path_2691" data-name="Path 2691" d="M226.683,459.645l.054-9.437L209.056,450l-.226,13.8,1.094.081c4.881.334,24.814,1.338,28.095.389C241.662,463.216,226.683,459.645,226.683,459.645Z" transform="translate(-151.745 -150.916)" fill="#8dc63f"/>
      <g id="Group_221" data-name="Group 221" transform="translate(57.112 307.688)" opacity="0.4">
        <path id="Path_2692" data-name="Path 2692" d="M215.251,464.654a6.165,6.165,0,0,0-2.215-3.8,5.939,5.939,0,0,0-4.113-1.329l-.063,4.936Z" transform="translate(-208.86 -459.518)"/>
      </g>
      <g id="Group_222" data-name="Group 222" transform="translate(57.085 310.736)" opacity="0.4">
        <path id="Path_2693" data-name="Path 2693" d="M234.005,462.89s5.243,1.582,4.574,2.441-20.854.606-29.749-.289v-.389l23.5.5S232.975,462.926,234.005,462.89Z" transform="translate(-208.83 -462.89)"/>
      </g>
      <path id="Path_2694" data-name="Path 2694" d="M208.56,464.82h.307l.9.063,3.218.181c2.712.127,6.463.262,10.6.316s7.9,0,10.612,0l3.218-.1h.9a2.494,2.494,0,0,0,.3,0,1.11,1.11,0,0,0-.307,0H223.584c-4.149,0-7.891-.172-10.6-.262l-3.209-.109h-.9Z" transform="translate(-151.719 -152.34)" fill="#263238"/>
      <path id="Path_2695" data-name="Path 2695" d="M234.91,465.4a6.771,6.771,0,0,1,.615-1.528,6.935,6.935,0,0,1,1.112-1.211,2.848,2.848,0,0,0-1.727,2.712Z" transform="translate(-154.25 -152.132)" fill="#263238"/>
      <path id="Path_2696" data-name="Path 2696" d="M229.17,462.535a2.25,2.25,0,0,0,.569-.669,2.026,2.026,0,0,0,.389-.786,2.116,2.116,0,0,0-.57.669A1.961,1.961,0,0,0,229.17,462.535Z" transform="translate(-153.699 -151.98)" fill="#263238"/>
      <path id="Path_2697" data-name="Path 2697" d="M227.6,461.725c0,.045.316-.136.624-.407s.533-.524.488-.569-.316.145-.624.407S227.563,461.68,227.6,461.725Z" transform="translate(-153.548 -151.948)" fill="#263238"/>
      <path id="Path_2698" data-name="Path 2698" d="M226.62,459.99a2.089,2.089,0,0,0,.9.135,2.007,2.007,0,0,0,.9-.09,2.069,2.069,0,0,0-.9-.127A2.278,2.278,0,0,0,226.62,459.99Z" transform="translate(-153.454 -151.867)" fill="#263238"/>
      <path id="Path_2699" data-name="Path 2699" d="M226.29,458.67a2.653,2.653,0,0,0,2.1.181,5.937,5.937,0,0,0-1.049-.081A4.768,4.768,0,0,0,226.29,458.67Z" transform="translate(-153.422 -151.749)" fill="#263238"/>
      <path id="Path_2700" data-name="Path 2700" d="M229.86,460.835a3.2,3.2,0,0,0,1.13,0,6.686,6.686,0,0,0,1.22-.253,3.234,3.234,0,0,0,.7-.271.624.624,0,0,0,.28-.353.425.425,0,0,0-.163-.452,2.088,2.088,0,0,0-2.585.569,2.025,2.025,0,0,0-.38.759.623.623,0,0,0,0,.307,3.191,3.191,0,0,1,.533-.967,2,2,0,0,1,.976-.615,1.726,1.726,0,0,1,1.356.108c.172.136.1.344-.1.461a3.3,3.3,0,0,1-.642.262,8.625,8.625,0,0,1-1.175.3A6.419,6.419,0,0,1,229.86,460.835Z" transform="translate(-153.765 -151.807)" fill="#263238"/>
      <path id="Path_2701" data-name="Path 2701" d="M230.029,460.825a1.121,1.121,0,0,0,.145-.786,1.935,1.935,0,0,0-.3-.832,1.148,1.148,0,0,0-.9-.6.47.47,0,0,0-.362.524,1.212,1.212,0,0,0,.19.506,3.491,3.491,0,0,0,.524.7,1.654,1.654,0,0,0,.651.47,7.047,7.047,0,0,1-.533-.569,3.943,3.943,0,0,1-.47-.687c-.154-.244-.253-.678,0-.723s.57.262.741.488a1.808,1.808,0,0,1,.307.741A3.987,3.987,0,0,1,230.029,460.825Z" transform="translate(-153.645 -151.743)" fill="#263238"/>
      <path id="Path_2702" data-name="Path 2702" d="M209,459.459s.506,0,1.3.063a5.523,5.523,0,0,1,4.583,3.751c.262.759.28,1.275.325,1.266a1.184,1.184,0,0,0,0-.353,4.086,4.086,0,0,0-.181-.958,5.424,5.424,0,0,0-1.754-2.658,5.36,5.36,0,0,0-2.956-1.193,4.825,4.825,0,0,0-.976,0A1.1,1.1,0,0,0,209,459.459Z" transform="translate(-151.762 -151.814)" fill="#263238"/>
      <path id="Path_2703" data-name="Path 2703" d="M211.133,451.36a30.629,30.629,0,0,0-.2,3.616,28.918,28.918,0,0,0,0,3.616,33.452,33.452,0,0,0,.2-3.616A30.837,30.837,0,0,0,211.133,451.36Z" transform="translate(-151.942 -151.047)" fill="#263238"/>
      <path id="Path_2704" data-name="Path 2704" d="M218.41,463.329a9.94,9.94,0,0,0,2.576.289,10.151,10.151,0,0,0,2.594-.172c0-.063-1.166,0-2.585,0S218.419,463.265,218.41,463.329Z" transform="translate(-152.665 -152.195)" fill="#263238"/>
      <path id="Path_2705" data-name="Path 2705" d="M214.579,463.269c-.045.045.09.253.208.515s.172.506.235.5.09-.271,0-.578S214.615,463.233,214.579,463.269Z" transform="translate(-152.297 -152.19)" fill="#263238"/>
      <path id="Path_2706" data-name="Path 2706" d="M213.16,461.459a1.107,1.107,0,0,0,.244.416c.181.19.362.307.407.262s-.072-.226-.253-.416S213.2,461.414,213.16,461.459Z" transform="translate(-152.161 -152.016)" fill="#263238"/>
      <path id="Path_2707" data-name="Path 2707" d="M211.1,460.6c0,.063.244.063.506.154s.443.235.488.2-.1-.289-.416-.4S211.082,460.546,211.1,460.6Z" transform="translate(-151.963 -151.925)" fill="#263238"/>
      <path id="Path_2708" data-name="Path 2708" d="M209.63,460.2c0,.054.081.154.226.208s.28.063.307,0-.081-.145-.226-.208S209.657,460.141,209.63,460.2Z" transform="translate(-151.822 -151.891)" fill="#263238"/>
      <path id="Path_2709" data-name="Path 2709" d="M232.577,259.29l-6.789,177.2-27.534.578,4.574-153.546L171.859,438.246H145.68l33.727-178.6Z" transform="translate(-145.68 -132.599)" fill="#263238"/>
      <path id="Path_2710" data-name="Path 2710" d="M215.2,266.42a18.58,18.58,0,0,1-.316,2.92c-.262,1.808-.642,4.267-1.1,7a28.821,28.821,0,0,1-.786,3.842,5.423,5.423,0,0,1-1.808,2.712,4.248,4.248,0,0,1-2,.9,1.609,1.609,0,0,1-.8,0,4.954,4.954,0,0,0,4.176-3.724,34.419,34.419,0,0,0,.732-3.788c.461-2.712.9-5.2,1.238-6.969a17.691,17.691,0,0,1,.669-2.893Z" transform="translate(-151.702 -133.284)" fill="#455a64"/>
      <path id="Path_2711" data-name="Path 2711" d="M209.543,267.311c.063.045-.163.325,0,.8a.9.9,0,0,0,.461.588.741.741,0,0,0,.823-.163.768.768,0,0,0,.271-.786.9.9,0,0,0-.533-.533c-.443-.19-.759,0-.8-.072s.253-.4.9-.253a1.211,1.211,0,0,1,.841.705,1.247,1.247,0,0,1-1.718,1.5,1.229,1.229,0,0,1-.588-.9C209.109,267.51,209.525,267.248,209.543,267.311Z" transform="translate(-151.78 -133.325)" fill="#455a64"/>
      <path id="Path_2712" data-name="Path 2712" d="M193.178,269.628a5.189,5.189,0,0,1,.524-4.918c.136.063-.262,1.1-.4,2.45A22.344,22.344,0,0,1,193.178,269.628Z" transform="translate(-150.204 -133.12)" fill="#455a64"/>
      <path id="Path_2713" data-name="Path 2713" d="M196.842,269.375a4.258,4.258,0,0,1-.4-2.6,4.3,4.3,0,0,1,.75-2.522,22.673,22.673,0,0,1-.271,2.558,23.342,23.342,0,0,1-.081,2.567Z" transform="translate(-150.55 -133.076)" fill="#455a64"/>
      <path id="Path_2714" data-name="Path 2714" d="M228.369,270.154a15.766,15.766,0,0,1,.154-2.658,16.97,16.97,0,0,1,.118-2.667,4.989,4.989,0,0,1,.371,2.712,5.171,5.171,0,0,1-.642,2.612Z" transform="translate(-153.621 -133.131)" fill="#455a64"/>
      <path id="Path_2715" data-name="Path 2715" d="M232.347,269.924c-.136-.054.289-1.211.389-2.712s-.154-2.712,0-2.712a4.348,4.348,0,0,1,.506,2.766,4.393,4.393,0,0,1-.9,2.658Z" transform="translate(-154.001 -133.1)" fill="#455a64"/>
      <path id="Path_2716" data-name="Path 2716" d="M199.08,173.006l16.994-1.356c.108-1.989,0-9.663,0-9.663s7.078-1.1,7.159-8.136-1.139-23.313-1.139-23.313h0a24.569,24.569,0,0,0-24.7,3.11l-1.049.8Z" transform="translate(-150.547 -120.041)" fill="#ffbe9d"/>
      <path id="Path_2717" data-name="Path 2717" d="M217.17,165.142a16.4,16.4,0,0,1-9.22-2.612s2.179,5.089,9.229,4.447Z" transform="translate(-151.661 -123.306)" fill="#eb996e"/>
      <path id="Path_2718" data-name="Path 2718" d="M196.779,143.116c-.118-.054-4.863-1.437-4.71,3.4s4.981,3.679,4.981,3.543S196.779,143.116,196.779,143.116Z" transform="translate(-150.135 -121.42)" fill="#ffbe9d"/>
      <path id="Path_2719" data-name="Path 2719" d="M195.654,148.446s-.09.054-.226.127a.85.85,0,0,1-.633,0,2.1,2.1,0,0,1-1.021-1.808,2.784,2.784,0,0,1,.2-1.211.958.958,0,0,1,.615-.669.425.425,0,0,1,.5.217c.072.136.045.235.072.235s.1-.081.054-.28a.524.524,0,0,0-.2-.3.669.669,0,0,0-.47-.108,1.22,1.22,0,0,0-.859.777,2.883,2.883,0,0,0-.244,1.356,2.187,2.187,0,0,0,1.293,2.052.9.9,0,0,0,.768-.154A.3.3,0,0,0,195.654,148.446Z" transform="translate(-150.267 -121.588)" fill="#eb996e"/>
      <path id="Path_2720" data-name="Path 2720" d="M222.016,142.654a1.012,1.012,0,0,1-.976,1.021.967.967,0,0,1-1.04-.9,1.012,1.012,0,0,1,.976-1.021.967.967,0,0,1,1.04.9Z" transform="translate(-152.818 -121.31)" fill="#263238"/>
      <path id="Path_2721" data-name="Path 2721" d="M222.884,141.607c-.127.127-.9-.434-1.971-.434s-1.889.542-2.007.416.072-.3.416-.551a2.812,2.812,0,0,1,1.609-.5,2.712,2.712,0,0,1,1.573.506C222.838,141.308,222.947,141.543,222.884,141.607Z" transform="translate(-152.71 -121.194)" fill="#263238"/>
      <path id="Path_2722" data-name="Path 2722" d="M209.966,142.747a1,1,0,0,1-.976,1.049.967.967,0,0,1-1.04-.9,1.012,1.012,0,0,1,.976-1.012A.967.967,0,0,1,209.966,142.747Z" transform="translate(-151.661 -121.322)" fill="#263238"/>
      <path id="Path_2723" data-name="Path 2723" d="M211.074,141.828c-.127.136-.9-.434-1.98-.434s-1.88.551-2,.416.063-.3.416-.551a2.712,2.712,0,0,1,1.6-.488,2.639,2.639,0,0,1,1.573.506C211.019,141.529,211.128,141.773,211.074,141.828Z" transform="translate(-151.575 -121.216)" fill="#263238"/>
      <path id="Path_2724" data-name="Path 2724" d="M215.811,149.9a7.059,7.059,0,0,1,1.763-.325c.28,0,.542-.081.588-.271a1.491,1.491,0,0,0-.181-.823l-.823-2.115a35.561,35.561,0,0,1-1.808-5.523,37.846,37.846,0,0,1,2.287,5.369l.786,2.124a1.609,1.609,0,0,1,.136,1.085.669.669,0,0,1-.452.407,1.926,1.926,0,0,1-.47.063,7.531,7.531,0,0,1-1.826.009Z" transform="translate(-152.371 -121.223)" fill="#263238"/>
      <path id="Path_2725" data-name="Path 2725" d="M212.3,151.69c.181,0,.181,1.166,1.193,2.007s2.26.705,2.269.9-.28.235-.8.244a2.938,2.938,0,0,1-1.907-.66,2.54,2.54,0,0,1-.9-1.681C212.094,151.97,212.221,151.681,212.3,151.69Z" transform="translate(-152.063 -122.265)" fill="#263238"/>
      <path id="Path_2726" data-name="Path 2726" d="M211.283,137.143c-.109.3-1.193.154-2.468.307s-2.305.506-2.477.235c-.072-.127.1-.4.515-.687a4.086,4.086,0,0,1,1.808-.642,4.158,4.158,0,0,1,1.934.226C211.093,136.773,211.328,137,211.283,137.143Z" transform="translate(-151.504 -120.789)" fill="#263238"/>
      <path id="Path_2727" data-name="Path 2727" d="M222.48,138.123c-.19.244-.9,0-1.808,0s-1.663.172-1.808-.09,0-.371.38-.606a2.658,2.658,0,0,1,2.965.09C222.462,137.743,222.6,138,222.48,138.123Z" transform="translate(-152.704 -120.856)" fill="#263238"/>
      <path id="Path_2728" data-name="Path 2728" d="M225.23,125.133a2.6,2.6,0,0,0-.958-2.332,1.862,1.862,0,0,0-2.4.181,2.16,2.16,0,0,0-1.808-2.621c-1.157-.072-2.133.8-3.254,1.1a5.225,5.225,0,0,1-3.3-.38c-1.049-.416-2.025-1-3.082-1.392a9.04,9.04,0,0,0-11.571,5.315,4,4,0,0,0-4.258,1.609,6.6,6.6,0,0,0-1,4.637,14.716,14.716,0,0,0,.8,3.173v.271c.081,3.9.515,8.461,2.179,8.488,2.893,0,2.2-5.424,2.2-5.424,3.553-1.374,2.233-6.689,3.119-7.494s2.712-2.712,10.169,1.112a14.463,14.463,0,0,0,8.814.958h.253a6.572,6.572,0,0,0,1.907-.814,3.77,3.77,0,0,0,1.573-1.745,2.088,2.088,0,0,0-.407-2.215A4.465,4.465,0,0,0,225.23,125.133Z" transform="translate(-150.274 -119.138)" fill="#263238"/>
      <path id="Path_2729" data-name="Path 2729" d="M213.038,142.3a7.86,7.86,0,0,0-.226-1.049,4.321,4.321,0,0,0-1.609-2.305,4.185,4.185,0,1,0,0,6.707,4.384,4.384,0,0,0,1.609-2.305c.19-.66.181-1.049.226-1.049s0,.09,0,.28a3.37,3.37,0,0,1-.081.814,4.366,4.366,0,0,1-1.582,2.522,4.52,4.52,0,0,1-4.33.705,4.583,4.583,0,1,1,4.33-7.946,4.384,4.384,0,0,1,1.582,2.531,3.334,3.334,0,0,1,.081.814Z" transform="translate(-151.28 -120.923)" fill="#263238"/>
      <path id="Path_2730" data-name="Path 2730" d="M226.04,142.3a3.61,3.61,0,0,0-.226-1.049,4.348,4.348,0,0,0-1.6-2.305,4.185,4.185,0,1,0,0,6.707,4.411,4.411,0,0,0,1.6-2.305c.19-.66.181-1.049.226-1.049s0,.09,0,.28a3.373,3.373,0,0,1-.081.814,4.366,4.366,0,0,1-1.582,2.522,4.52,4.52,0,0,1-4.321.705,4.583,4.583,0,0,1,0-8.642,4.52,4.52,0,0,1,4.321.7,4.384,4.384,0,0,1,1.582,2.531,3.336,3.336,0,0,1,.081.814C226.04,142.2,226.04,142.3,226.04,142.3Z" transform="translate(-152.53 -120.922)" fill="#263238"/>
      <path id="Path_2731" data-name="Path 2731" d="M217.289,142.435c-.054.127-.786-.09-1.7-.045s-1.627.3-1.69.181.642-.615,1.672-.651S217.353,142.327,217.289,142.435Z" transform="translate(-152.232 -121.326)" fill="#263238"/>
      <path id="Path_2732" data-name="Path 2732" d="M203.562,142.424a10.577,10.577,0,0,1-3.083.407,10.685,10.685,0,0,1-3.11-.063,10.151,10.151,0,0,1,3.082-.407A10.748,10.748,0,0,1,203.562,142.424Z" transform="translate(-150.645 -121.361)" fill="#263238"/>
      <path id="Path_2733" data-name="Path 2733" d="M250.289,200.583,255.9,210.7l3.426-27.507a11.02,11.02,0,0,0-1.139-5.776,11.459,11.459,0,0,0-1.392-2.242,12.158,12.158,0,0,0-2.4-2.251,1,1,0,0,1,.181-1.889c.9-.1,3.345,1.211,5.27,3.851s2.124-2.441,2.233-4.285.705-7.521,1.293-7.928c.9-.588,1.681.253,1.537,2.1s-.217,7.385.759,7.421,1.374-9.365,1.374-9.365-.235-2.034.9-2.025c2.025,0,.85,9.943.714,10.847-.09.651.967.732,1.031,0s.2-9.383,2.26-9.4c1.591,0-.9,8.19.072,10.025s1.247-6.427,2.766-6.373c.56,0,.985.108.145,4.809-.452,2.531-2.124,6.174-2.631,11.11l-.136,1.275c-.1,6.147-1.455,24.669-7.042,38.771a11.426,11.426,0,0,1-20.1,2.034c-3.435-5.18-8.868-18.721-8.868-18.721Z" transform="translate(-154.37 -123.14)" fill="#ffbe9d"/>
      <path id="Path_2734" data-name="Path 2734" d="M271.979,181.031a5.115,5.115,0,0,0-.8.208,2.92,2.92,0,0,0-1.564,1.293l-.19.344-.108-.38a4.771,4.771,0,0,0-.75-1.5,5.487,5.487,0,0,0-2.594-1.916c-.8-.28-1.338-.262-1.338-.334a2.649,2.649,0,0,1,1.41.1,5.153,5.153,0,0,1,2.811,1.934,4.674,4.674,0,0,1,.777,1.618h-.3a2.838,2.838,0,0,1,1.808-1.32A1.365,1.365,0,0,1,271.979,181.031Z" transform="translate(-157.105 -124.858)" fill="#eb996e"/>
      <path id="Path_2735" data-name="Path 2735" d="M239.945,182.6,255.9,212.792l2.712-26.694H272.9l-5.252,38.047a11.164,11.164,0,0,1-7.53,9.257h0c-5.189,1.745-12.086-.289-14.644-5.125l-9.347-15.91Z" transform="translate(-154.367 -125.234)" fill="#8dc63f"/>
      <path id="Path_2736" data-name="Path 2736" d="M258.844,228.43a5.63,5.63,0,0,1-1.067-1.7,14.075,14.075,0,0,1-.9-9.51,5.929,5.929,0,0,1,.741-1.871,17.6,17.6,0,0,0,1.211,13.08Z" transform="translate(-156.317 -128.379)" fill="#263238"/>
      <g id="Group_223" data-name="Group 223" transform="translate(98.026 86.546)" opacity="0.3">
        <path id="Path_2737" data-name="Path 2737" d="M257.176,214.88a6.752,6.752,0,0,0-2.784,4.321,16.055,16.055,0,0,0-.1,5.261,3.1,3.1,0,0,0,.4,1.446,1.112,1.112,0,0,0,1.3.488,1.157,1.157,0,0,0,.579-1.067,4.238,4.238,0,0,0-.28-1.238A10.54,10.54,0,0,1,257.6,215.2" transform="translate(-254.122 -214.88)"/>
      </g>
      <path id="Path_2738" data-name="Path 2738" d="M187.644,174.627c2.386-.452,4.7-1.32,7.5-1.437h0a30.029,30.029,0,0,0,18.079,0c.741.1,1.808.19,3.046.344,7.873.9,10.893,2.594,16.551,8.136l-.624,31.864s1.9,36.267,1.808,42.124H180.2l-.081-24.569V224.4l-17.663,6.472,1.609-9.293s7.919-30.843,9.166-35C174.7,181.533,180.123,176.065,187.644,174.627Z" transform="translate(-147.292 -124.33)" fill="#8dc63f"/>
      <path id="Path_2739" data-name="Path 2739" d="M170.568,226.546l25.826-6.716,7.385,12.014-26.305,11.073a10.576,10.576,0,0,1-4.375.9h0a10.658,10.658,0,0,1-9.844-6.6l-.8-1.953Z" transform="translate(-147.292 -128.809)" fill="#8dc63f"/>
      <path id="Path_2740" data-name="Path 2740" d="M186.295,222.11c-.127,0-.235-4.746-.235-10.594s.108-10.585.235-10.585.244,4.737.244,10.585S186.431,222.11,186.295,222.11Z" transform="translate(-149.558 -126.994)" fill="#263238"/>
      <g id="Group_224" data-name="Group 224" transform="translate(32.642 99.743)" opacity="0.3">
        <path id="Path_2741" data-name="Path 2741" d="M181.79,242.895a8.976,8.976,0,0,0,3.444,3.209,13.759,13.759,0,0,0,10.694.56,30.59,30.59,0,0,0,9.41-5.568,79.01,79.01,0,0,0,10.468-10.179,1.112,1.112,0,0,0,.38-.859c-.09-.56-.9-.633-1.428-.551-5.351.85-10.233,3.444-15.114,5.8q-8.705,4.212-17.808,7.575" transform="translate(-181.79 -229.479)"/>
      </g>
      <path id="Path_2742" data-name="Path 2742" d="M233.219,201.648a1.222,1.222,0,0,1-.1.244l-.335.7c-.154.3-.38.651-.633,1.076a14.867,14.867,0,0,1-1.04,1.365,15.448,15.448,0,0,1-3.544,3.073,16.118,16.118,0,0,1-5.776,2.26,15.476,15.476,0,0,1-7.494-.515,17.754,17.754,0,0,1-7.313-4.574,16.913,16.913,0,0,1-4.52-8.389,13.2,13.2,0,0,1-.045-5.089,11.236,11.236,0,0,1,2.188-4.764,9.211,9.211,0,0,1,4.267-3.055,5.8,5.8,0,0,1,2.6-.271,4.2,4.2,0,0,1,2.341,1.13,3.336,3.336,0,0,1,1.031,2.35,4.348,4.348,0,0,1-.732,2.4,6.418,6.418,0,0,1-3.986,2.5,18.023,18.023,0,0,1-21.261-12.5,13.677,13.677,0,0,1-.651-3.932,1.33,1.33,0,0,1,.045.253l.108.759a19.4,19.4,0,0,0,.678,2.866,18.35,18.35,0,0,0,6,8.759,17.943,17.943,0,0,0,6.617,3.263,17.745,17.745,0,0,0,8.425.136,6.047,6.047,0,0,0,3.715-2.332,3.851,3.851,0,0,0,.651-2.142,2.811,2.811,0,0,0-.9-2.025,3.725,3.725,0,0,0-2.088-1,5.315,5.315,0,0,0-2.4.253,8.849,8.849,0,0,0-4.041,2.9,10.847,10.847,0,0,0-2.1,4.565,12.8,12.8,0,0,0,0,4.908,16.551,16.551,0,0,0,4.339,8.181,17.582,17.582,0,0,0,7.123,4.52,15.259,15.259,0,0,0,7.322.56,16.072,16.072,0,0,0,5.695-2.16,15.9,15.9,0,0,0,3.543-2.965,17.862,17.862,0,0,0,2.26-3.3Z" transform="translate(-149.766 -124.566)" fill="#e0e0e0"/>
      <path id="Path_2743" data-name="Path 2743" d="M235.356,240.856a16.342,16.342,0,0,0-1.473-3.272,11.254,11.254,0,0,0-7.837-5.261,15.448,15.448,0,0,0-6.662.307,18.549,18.549,0,0,0-3.507,1.3,13.072,13.072,0,0,0-3.272,2.2,5.993,5.993,0,0,0-1.88,3.525,3.616,3.616,0,0,0,1.546,3.616,2.712,2.712,0,0,0,3.788-.579,10.061,10.061,0,0,0,1.808-4.185,16.534,16.534,0,0,0-.6-8.994A16.786,16.786,0,0,0,212.6,222.5a19.263,19.263,0,0,0-6.626-3.878A19.525,19.525,0,0,0,190,220.011c-1.021.551-1.763,1.058-2.278,1.392l-.57.389-.208.127a17.616,17.616,0,0,1,2.965-2.07,19.308,19.308,0,0,1,9.446-2.649,19.96,19.96,0,0,1,6.753,1.049,19.471,19.471,0,0,1,6.789,3.923,17.355,17.355,0,0,1,4.818,7.186,17.031,17.031,0,0,1,.615,9.256,10.549,10.549,0,0,1-1.88,4.384,3.2,3.2,0,0,1-4.393.66,3.751,3.751,0,0,1-1.482-1.808,4.52,4.52,0,0,1-.262-2.251,6.328,6.328,0,0,1,2-3.779,13.56,13.56,0,0,1,3.381-2.26,18.981,18.981,0,0,1,3.616-1.311,16.009,16.009,0,0,1,6.825-.262,11.426,11.426,0,0,1,7.937,5.5,11.958,11.958,0,0,1,1.085,2.459,6.677,6.677,0,0,1,.181.678A.9.9,0,0,1,235.356,240.856Z" transform="translate(-149.643 -128.556)" fill="#e0e0e0"/>
      <path id="Path_2744" data-name="Path 2744" d="M184.275,209.86a3.964,3.964,0,0,1-.452.57,10.968,10.968,0,0,1-1.41,1.365,13.244,13.244,0,0,1-2.468,1.564,14.581,14.581,0,0,1-3.4,1.157,18.007,18.007,0,0,1-6.472,0,19.064,19.064,0,0,1-1.916-.434c-.443-.136-.687-.217-.678-.253s1.012.154,2.64.353a20.285,20.285,0,0,0,6.328-.154,15.7,15.7,0,0,0,3.3-1.085,14.727,14.727,0,0,0,2.459-1.446C183.507,210.547,184.221,209.805,184.275,209.86Z" transform="translate(-147.774 -127.851)" fill="#e0e0e0"/>
      <path id="Path_2745" data-name="Path 2745" d="M179.076,243.674a16.275,16.275,0,0,0-.994-2.811,8.841,8.841,0,0,0-12.113-3.941,16.588,16.588,0,0,0-2.459,1.681,2.2,2.2,0,0,1,.515-.633,7.946,7.946,0,0,1,1.808-1.347,8.895,8.895,0,0,1,12.583,4.095,8.135,8.135,0,0,1,.651,2.133A2.314,2.314,0,0,1,179.076,243.674Z" transform="translate(-147.392 -130.308)" fill="#e0e0e0"/>
      <path id="Path_2746" data-name="Path 2746" d="M243.694,225.8a3.154,3.154,0,0,1-.244-.9,15.975,15.975,0,0,1-.334-2.468,20.151,20.151,0,0,1,.09-3.706,21.523,21.523,0,0,1,1.039-4.429,21.137,21.137,0,0,1,2.007-4.077,19.445,19.445,0,0,1,2.278-2.929,17.175,17.175,0,0,1,1.808-1.7,3.435,3.435,0,0,1,.741-.524c.063.072-.958.9-2.323,2.45a22.428,22.428,0,0,0-2.16,2.929,21.305,21.305,0,0,0-2.974,8.334,21.992,21.992,0,0,0-.19,3.616C243.513,224.54,243.784,225.8,243.694,225.8Z" transform="translate(-155.034 -127.391)" fill="#e0e0e0"/>
      <path id="Path_2747" data-name="Path 2747" d="M272.331,207.683a2.843,2.843,0,0,1-.5.533,6.092,6.092,0,0,1-1.736,1,7.774,7.774,0,0,1-6.436-.5,6.581,6.581,0,0,1-2.567-2.585,9.41,9.41,0,0,1-.994-2.793,11.851,11.851,0,0,1-.244-1.962,1.806,1.806,0,0,1,0-.732c.081,0,.145,1.03.533,2.621a10.576,10.576,0,0,0,1.049,2.649,6.418,6.418,0,0,0,2.423,2.4,7.765,7.765,0,0,0,6.1.588,11.02,11.02,0,0,0,2.368-1.22Z" transform="translate(-156.642 -126.967)" fill="#e0e0e0"/>
      <path id="Path_2748" data-name="Path 2748" d="M240.241,184.138a2.061,2.061,0,0,1-.651.416,6.979,6.979,0,0,1-2,.642,8.136,8.136,0,0,1-3.11-.1,9.709,9.709,0,0,1-3.471-1.582,9.157,9.157,0,0,1-3.616-5.767,8.036,8.036,0,0,1-.108-2.088,2.332,2.332,0,0,1,.145-.759,19.443,19.443,0,0,0,.289,2.775,9.392,9.392,0,0,0,3.553,5.424,9.718,9.718,0,0,0,3.3,1.537,8.345,8.345,0,0,0,2.965.19,15.367,15.367,0,0,0,2.7-.687Z" transform="translate(-153.516 -124.494)" fill="#e0e0e0"/>
      <path id="Path_2749" data-name="Path 2749" d="M207.558,262.54a43.575,43.575,0,0,0-2.35-3.815,23.367,23.367,0,0,0-8.09-6.96,24.708,24.708,0,0,0-5.541-2.07,21.08,21.08,0,0,0-4.8-.551,42.474,42.474,0,0,0-4.456.407,4.989,4.989,0,0,1,1.166-.334,18.3,18.3,0,0,1,3.29-.407,20.057,20.057,0,0,1,4.9.461,23.872,23.872,0,0,1,5.659,2.079,22.309,22.309,0,0,1,8.136,7.186,20.454,20.454,0,0,1,1.645,2.866,4.862,4.862,0,0,1,.443,1.139Z" transform="translate(-149.199 -131.592)" fill="#e0e0e0"/>
      <path id="Path_2750" data-name="Path 2750" d="M238.848,197.92c.127,0,.9,13.324,1.727,29.776s1.392,29.785,1.257,29.831-.9-13.324-1.727-29.776S238.712,197.929,238.848,197.92Z" transform="translate(-154.626 -126.705)" fill="#263238"/>
      <path id="Path_2751" data-name="Path 2751" d="M200,218.692a11.083,11.083,0,0,0,4.429-3.959,11.752,11.752,0,0,0,1.229-2.359,12.538,12.538,0,0,0,.714-3.227c0-1.021,1.184-1.555,1.736-.823s.66,3.525-.633,6.545,3.209.6,4.863-.262,6.888-3.263,7.539-2.956c.958.452.642,1.591-1.031,2.4s-6.508,3.616-6.038,4.52,8.823-3.616,8.823-3.616,1.645-1.247,2.215-.271c1.04,1.808-8.136,5.849-9.04,6.219-.615.253-.136,1.211.515.9s8.235-4.664,9.311-2.875c.832,1.365-7.548,3.435-8.651,5.216s6.21-2.224,6.951-.9c.271.506.407.9-4.1,2.6-2.423.9-6.436,1.338-10.974,3.435l-1.184.533" transform="translate(-150.897 -127.672)" fill="#ffbe9d"/>
      <path id="Path_2752" data-name="Path 2752" d="M179.818,242.464a2.645,2.645,0,0,1,.488-.253l1.419-.642,5.315-2.314,17.98-7.656-.108.344-2.4-3.851-5.116-8.136.262.09-15.295,4.845-4.429,1.374-1.193.344-.416.1a1.465,1.465,0,0,1,.4-.172l1.166-.416,4.384-1.492,15.223-5.035.172-.054.09.145,5.134,8.136,2.4,3.851.145.226-.253.108L187.1,239.517l-5.369,2.179-1.455.57A2.932,2.932,0,0,1,179.818,242.464Z" transform="translate(-148.623 -128.781)" fill="#263238"/>
      <path id="Path_2753" data-name="Path 2753" d="M179.52,222.109a5.758,5.758,0,0,1,6.093,1.636,20.425,20.425,0,0,0-2.929-1.275,21.314,21.314,0,0,0-3.164-.362Z" transform="translate(-148.93 -129.001)" fill="#263238"/>
    </g>
    <g id="freepik--magnifying-glass--inject-60" transform="translate(263.051 95.121)">
      <path id="Path_2754" data-name="Path 2754" d="M500.981,389.61,424.615,256.44a88.507,88.507,0,0,0,34.63-50.242c11.9-46.1-15.105-93.848-60.728-107.39a88.868,88.868,0,0,0-110.825,60.917c-13.342,47.006,14.255,96.479,61.279,109.785a88.452,88.452,0,0,0,57.717-3.209l75.182,134.183a10.983,10.983,0,0,0,15.006,4.185h0a10.992,10.992,0,0,0,4.1-15.06ZM351.169,262.623A81.817,81.817,0,1,1,451.8,205.511,81.817,81.817,0,0,1,351.169,262.623Z" transform="translate(-284.332 -95.121)" fill="#455a64"/>
      <path id="Path_2755" data-name="Path 2755" d="M325.371,242.677a2.481,2.481,0,0,1-.244-.208l-.669-.651c-.569-.588-1.492-1.392-2.522-2.558a72.919,72.919,0,0,1-8.09-10.468,79.958,79.958,0,0,1-4.52-7.964,82.061,82.061,0,0,1-3.959-9.718,75.426,75.426,0,0,1-.343-47.367,77.089,77.089,0,0,1,8.2-17.817,74.119,74.119,0,0,1,7.937-10.576c1.021-1.184,1.925-2.007,2.486-2.6l.66-.66c.154-.145.235-.217.244-.208a2.492,2.492,0,0,1-.208.244l-.633.7c-.533.615-1.419,1.446-2.414,2.658a78.247,78.247,0,0,0-7.792,10.631,81.585,81.585,0,0,0-4.312,8.018,84.3,84.3,0,0,0-3.76,9.745,75.788,75.788,0,0,0,.344,47.1,83.166,83.166,0,0,0,3.905,9.69,81.756,81.756,0,0,0,4.429,7.955,78.037,78.037,0,0,0,7.946,10.522c1.012,1.184,1.907,2.007,2.45,2.621.271.289.479.515.642.678a2.175,2.175,0,0,1,.226.244Z" transform="translate(-285.969 -98.651)" fill="#e0e0e0"/>
      <path id="Path_2756" data-name="Path 2756" d="M355.321,116a16.884,16.884,0,0,1-2.4.958c-1.491.56-3.525,1.374-5.7,2.423s-4.086,2.133-5.46,2.947a15.927,15.927,0,0,1-2.242,1.275,11.952,11.952,0,0,1,2.07-1.555,46.43,46.43,0,0,1,5.424-3.064,45.045,45.045,0,0,1,5.8-2.314,11.526,11.526,0,0,1,2.5-.669Z" transform="translate(-289.633 -97.126)" fill="#e0e0e0"/>
    </g>
    <g id="freepik--Plant--inject-60" transform="translate(245.961 373.552)">
      <path id="Path_2757" data-name="Path 2757" d="M285.593,426.281c-1.555,2.224-4.592,1.483-5.993.127a11.266,11.266,0,0,1-2.54-5.207c-1.238-4.294-2.486-8.8-1.564-13.171a7.294,7.294,0,0,1,1.681-3.616,3.824,3.824,0,0,1,3.616-1.2c1.528.407,2.477,1.9,3.164,3.327a31.439,31.439,0,0,1,3.1,13.469,10.847,10.847,0,0,1-1.473,6.246" transform="translate(-266.363 -403.135)" fill="#8dc63f"/>
      <g id="Group_225" data-name="Group 225" transform="translate(8.814)" opacity="0.2">
        <path id="Path_2758" data-name="Path 2758" d="M285.593,426.281c-1.555,2.224-4.592,1.483-5.993.127a11.266,11.266,0,0,1-2.54-5.207c-1.238-4.294-2.486-8.8-1.564-13.171a7.294,7.294,0,0,1,1.681-3.616,3.824,3.824,0,0,1,3.616-1.2c1.528.407,2.477,1.9,3.164,3.327a31.439,31.439,0,0,1,3.1,13.469,10.847,10.847,0,0,1-1.473,6.246" transform="translate(-275.177 -403.135)"/>
      </g>
      <path id="Path_2759" data-name="Path 2759" d="M278.817,441.084a13.5,13.5,0,0,0-8.389-1.021,6.942,6.942,0,0,0-4.14,1.853c-1.04,1.139-1.238,3.146-.045,4.131a3.9,3.9,0,0,0,2.612.66c2.215,0,4.673-.416,6.445.9,1.012.759,1.681,2.025,2.893,2.4a2.875,2.875,0,0,0,3.146-1.4,4.918,4.918,0,0,0,.353-3.616A5.487,5.487,0,0,0,278.817,441.084Z" transform="translate(-265.426 -406.657)" fill="#8dc63f"/>
      <path id="Path_2760" data-name="Path 2760" d="M291.26,430.234a8.135,8.135,0,0,1-1.3-7.476,14.392,14.392,0,0,1,4.42-6.409,23.775,23.775,0,0,1,7.919-4.664,8.308,8.308,0,0,1,3.553-.606,3.7,3.7,0,0,1,2.983,1.808c.841,1.582,0,3.507-.823,5.08a61.885,61.885,0,0,1-5.2,7.919c-1.555,2.007-3.345,3.987-5.713,4.89s-4.845.8-6.1-.841" transform="translate(-267.744 -403.897)" fill="#8dc63f"/>
      <path id="Path_2761" data-name="Path 2761" d="M285.583,463.733a4.521,4.521,0,0,1-.145-1.012l-.271-2.757c-.127-1.166-.3-2.549-.615-4.059a32.456,32.456,0,0,0-1.473-4.782,17.834,17.834,0,0,0-2.441-4.321,9.039,9.039,0,0,0-3.092-2.567,8.463,8.463,0,0,0-2.6-.814,4.781,4.781,0,0,1-1-.145,4.7,4.7,0,0,1,1.021,0,7.828,7.828,0,0,1,2.712.705,9.1,9.1,0,0,1,3.263,2.594,17.173,17.173,0,0,1,2.531,4.411,29,29,0,0,1,1.455,4.863,33.693,33.693,0,0,1,.542,4.1c.09,1.175.117,2.124.136,2.775A4.7,4.7,0,0,1,285.583,463.733Z" transform="translate(-266.244 -406.988)" fill="#263238"/>
      <path id="Path_2762" data-name="Path 2762" d="M286.063,458.709a1.588,1.588,0,0,1,0-.47V456.9c0-1.166,0-2.856-.054-4.936-.108-4.167-.47-9.943-1.157-16.271s-1.627-12.014-2.468-16.09c-.2-1.021-.4-1.943-.588-2.712s-.334-1.51-.488-2.07l-.307-1.3a1.53,1.53,0,0,1-.081-.47,3.853,3.853,0,0,1,.163.443c.1.334.226.768.389,1.284s.353,1.257.551,2.061.434,1.717.651,2.712a153.267,153.267,0,0,1,2.594,16.108c.7,6.328,1,12.1,1.031,16.271,0,2.088,0,3.778-.072,4.945,0,.542-.063.994-.081,1.347A2.026,2.026,0,0,1,286.063,458.709Z" transform="translate(-266.914 -404.087)" fill="#263238"/>
      <path id="Path_2763" data-name="Path 2763" d="M286.577,447.951a8.918,8.918,0,0,1,0-1.41c.054-.9.172-2.206.425-3.8a51.407,51.407,0,0,1,1.238-5.541,49.871,49.871,0,0,1,2.314-6.554,35.145,35.145,0,0,1,6.807-10.594,17.759,17.759,0,0,1,1.6-1.482c.244-.208.461-.416.678-.579l.624-.434a8.58,8.58,0,0,1,1.184-.75,41.172,41.172,0,0,0-3.878,3.453,36.809,36.809,0,0,0-6.626,10.549,52.247,52.247,0,0,0-2.332,6.5,54.969,54.969,0,0,0-1.311,5.478c-.3,1.582-.461,2.874-.56,3.769A9.092,9.092,0,0,1,286.577,447.951Z" transform="translate(-267.455 -404.449)" fill="#263238"/>
    </g>
  </g>
</svg>
