<svg xmlns="http://www.w3.org/2000/svg" width="62" height="62" viewBox="0 0 62 62">
  <g id="_296952" data-name="296952" transform="translate(0 -0.001)">
    <g id="Group_244" data-name="Group 244" transform="translate(0 0.001)">
      <g id="Group_243" data-name="Group 243" transform="translate(0 0)">
        <path id="Path_3259" data-name="Path 3259" d="M142.542,174.93a17.149,17.149,0,0,0,4.985-5.228l-1.64-1a15.213,15.213,0,0,1-3.05,3.586,12.572,12.572,0,0,0-3.37-7.225,12.077,12.077,0,0,0-2.319-1.882,5.417,5.417,0,0,0,1.342-3.567v-8.536l-.1-.2a6.15,6.15,0,0,0-10.666,0l-.1.2v8.536a5.346,5.346,0,0,0,1.344,3.566,12.077,12.077,0,0,0-2.321,1.883,12.573,12.573,0,0,0-3.369,7.227,15.017,15.017,0,0,1-5.238-11.4h-1.921a16.945,16.945,0,0,0,26.426,14.038Zm-9.487-25.222a4.123,4.123,0,0,1,3.514,1.856v4.5c-1.888-.147-2.478-.72-2.553-.98v-1.4l-4.474,1.917v-4.037h0A4.12,4.12,0,0,1,133.055,149.709Zm-3.514,7.982,3.027-1.3c.529.691,1.645,1.434,4,1.593v1.627a3.517,3.517,0,0,1-1.57,2.923,3.494,3.494,0,0,1-3.882,0,3.89,3.89,0,0,1-.546-.454,3.441,3.441,0,0,1-1.03-2.473Zm1.056,6.768a5.368,5.368,0,0,0,1.5.5V169.2h1.921v-4.238a5.37,5.37,0,0,0,1.5-.5,10.483,10.483,0,0,1,5.517,9.164,15.04,15.04,0,0,1-15.944,0A10.387,10.387,0,0,1,130.6,164.459Z" transform="translate(-102.055 -129.892)" fill="#fff"/>
        <path id="Path_3260" data-name="Path 3260" d="M138.505,123.866l1.612,1.044a15.018,15.018,0,0,1,27.634,8.148h1.921a16.939,16.939,0,0,0-31.167-9.192Z" transform="translate(-121.733 -102.058)" fill="#fff"/>
        <rect id="Rectangle_200" data-name="Rectangle 200" width="2.557" height="1.921" transform="translate(29.722 40.906)" fill="#fff"/>
        <path id="Path_3261" data-name="Path 3261" d="M56.643,24.288a26.183,26.183,0,0,0-2.765-6.666l3.79-3.8L48.182,4.334l-3.8,3.789a26.175,26.175,0,0,0-6.666-2.765V0H24.288V5.359a26.182,26.182,0,0,0-6.666,2.765l-3.8-3.789L4.333,13.82l3.789,3.8a26.179,26.179,0,0,0-2.765,6.666H0V37.714H5.358a26.374,26.374,0,0,0,2.765,6.664l-3.79,3.79,9.486,9.5,3.8-3.79a26.174,26.174,0,0,0,6.666,2.765V62H37.713V56.643a26.18,26.18,0,0,0,6.666-2.765l3.8,3.79,9.486-9.5-3.79-3.79a26.374,26.374,0,0,0,2.765-6.664H62V24.288Zm3.437,11.5H55.123l-.171.747a24.475,24.475,0,0,1-3.1,7.479l-.4.647,3.5,3.5-6.774,6.785-3.516-3.5-.647.4a24.278,24.278,0,0,1-7.477,3.1l-.747.17V60.08H26.208V55.123l-.747-.17a24.278,24.278,0,0,1-7.477-3.1l-.647-.4-3.516,3.5L7.047,48.169l3.5-3.5-.4-.647a24.473,24.473,0,0,1-3.1-7.479l-.171-.747H1.921V26.209H6.878l.171-.747a24.282,24.282,0,0,1,3.1-7.477l.4-.647-3.5-3.517,6.774-6.774,3.517,3.5.647-.4a24.276,24.276,0,0,1,7.477-3.1l.747-.171V1.922h9.584V6.879l.747.171a24.279,24.279,0,0,1,7.477,3.1l.647.4,3.517-3.5,6.774,6.774-3.5,3.517.4.647a24.276,24.276,0,0,1,3.1,7.477l.17.747H60.08v9.584Z" transform="translate(0 -0.001)" fill="#fff"/>
        <rect id="Rectangle_201" data-name="Rectangle 201" width="2.557" height="1.921" transform="translate(29.722 4.474)" fill="#fff"/>
        <rect id="Rectangle_202" data-name="Rectangle 202" width="2.557" height="1.921" transform="translate(29.722 55.606)" fill="#fff"/>
        <rect id="Rectangle_203" data-name="Rectangle 203" width="2.557" height="1.921" transform="translate(4.156 30.039)" fill="#fff"/>
        <rect id="Rectangle_204" data-name="Rectangle 204" width="2.557" height="1.921" transform="translate(55.288 30.039)" fill="#fff"/>
        <rect id="Rectangle_205" data-name="Rectangle 205" width="2.557" height="1.921" transform="translate(47.618 12.144)" fill="#fff"/>
        <rect id="Rectangle_206" data-name="Rectangle 206" width="2.557" height="1.921" transform="translate(47.618 47.935)" fill="#fff"/>
        <rect id="Rectangle_207" data-name="Rectangle 207" width="2.557" height="1.921" transform="translate(11.825 12.144)" fill="#fff"/>
        <rect id="Rectangle_208" data-name="Rectangle 208" width="2.557" height="1.921" transform="translate(11.825 47.935)" fill="#fff"/>
        <path id="Path_3262" data-name="Path 3262" d="M95.945,75.814V73.893A22.077,22.077,0,0,0,73.893,95.945h1.921A20.154,20.154,0,0,1,95.945,75.814Z" transform="translate(-64.945 -64.945)" fill="#fff"/>
        <path id="Path_3263" data-name="Path 3263" d="M256,276.132v1.921A22.077,22.077,0,0,0,278.052,256h-1.921A20.154,20.154,0,0,1,256,276.132Z" transform="translate(-225 -225.001)" fill="#fff"/>
      </g>
    </g>
  </g>
</svg>
