<svg xmlns="http://www.w3.org/2000/svg" width="78.861" height="76.233" viewBox="0 0 78.861 76.233">
  <g id="_888987" data-name="888987" transform="translate(0 -8)">
    <g id="Group_103" data-name="Group 103" transform="translate(38.201 70.708)">
      <g id="Group_102" data-name="Group 102" transform="translate(0 0)">
        <rect id="Rectangle_106" data-name="Rectangle 106" width="2.459" height="2.459" fill="#fff"/>
      </g>
    </g>
    <g id="Group_105" data-name="Group 105" transform="translate(0 8)">
      <g id="Group_104" data-name="Group 104" transform="translate(0 0)">
        <path id="Path_1834" data-name="Path 1834" d="M77.547,73.718H76.233V26.4a5.257,5.257,0,0,0-5.257-5.257H65.718V13.257A5.257,5.257,0,0,0,60.46,8H28.916a5.257,5.257,0,0,0-5.257,5.257v1.314H21.03a5.257,5.257,0,0,0-5.257,5.257v1.314H7.886A5.257,5.257,0,0,0,2.629,26.4V73.718H1.314A1.314,1.314,0,0,0,0,75.032v3.943a5.257,5.257,0,0,0,5.257,5.257H73.6a5.257,5.257,0,0,0,5.257-5.257V75.032A1.314,1.314,0,0,0,77.547,73.718Zm-51.26-60.46a2.629,2.629,0,0,1,2.629-2.629H60.46a2.629,2.629,0,0,1,2.629,2.629v21.03a2.629,2.629,0,0,1-2.629,2.629H57.832a1.315,1.315,0,0,0-1.051.526L53.889,41.3,51,37.442a1.315,1.315,0,0,0-1.051-.526H28.916a2.629,2.629,0,0,1-2.629-2.629ZM18.4,19.829A2.629,2.629,0,0,1,21.03,17.2h2.629V34.287a5.257,5.257,0,0,0,5.257,5.257H46v1.314a2.629,2.629,0,0,1-2.629,2.629h-9.2a1.315,1.315,0,0,0-1.051.526L30.23,47.868l-2.892-3.855a1.315,1.315,0,0,0-1.051-.526H21.03A2.629,2.629,0,0,1,18.4,40.859ZM21.03,46.116h4.6l3.549,4.732a1.314,1.314,0,0,0,2.1,0l3.549-4.732h8.543a5.257,5.257,0,0,0,5.257-5.257V39.545h.657l3.549,4.732a1.314,1.314,0,0,0,2.1,0l3.549-4.732H60.46a5.257,5.257,0,0,0,5.257-5.257V29.03h2.629v36.8H63.089V64.517a6.572,6.572,0,0,0-2.9-5.448,5.257,5.257,0,1,0-7.435-.09l.09.09a6.572,6.572,0,0,0-2.9,5.448v1.314H28.916V64.517a6.572,6.572,0,0,0-2.9-5.448,5.257,5.257,0,1,0-7.435-.09l.09.09a6.572,6.572,0,0,0-2.9,5.448v1.314H10.515V29.03h5.257V40.859A5.257,5.257,0,0,0,21.03,46.116ZM56.517,60.574a3.943,3.943,0,0,1,3.943,3.943v1.314H52.574V64.517A3.943,3.943,0,0,1,56.517,60.574Zm-2.629-5.257a2.629,2.629,0,1,1,2.629,2.629A2.629,2.629,0,0,1,53.889,55.317ZM22.344,60.574a3.943,3.943,0,0,1,3.943,3.943v1.314H18.4V64.517A3.943,3.943,0,0,1,22.344,60.574Zm-2.629-5.257a2.629,2.629,0,1,1,2.629,2.629A2.629,2.629,0,0,1,19.715,55.317ZM5.257,26.4a2.629,2.629,0,0,1,2.629-2.629h7.886V26.4H9.2a1.314,1.314,0,0,0-1.314,1.314V67.146A1.314,1.314,0,0,0,9.2,68.46h60.46a1.314,1.314,0,0,0,1.314-1.314V27.715A1.314,1.314,0,0,0,69.661,26.4H65.718V23.772h5.257A2.629,2.629,0,0,1,73.6,26.4V73.718H51.26a1.314,1.314,0,0,0-.929.385l-2.244,2.244H30.774L28.531,74.1a1.314,1.314,0,0,0-.929-.385H5.257ZM76.233,78.975A2.629,2.629,0,0,1,73.6,81.6H5.257a2.629,2.629,0,0,1-2.629-2.629V76.347H27.057L29.3,78.59a1.314,1.314,0,0,0,.929.385h18.4a1.314,1.314,0,0,0,.929-.385L51.8,76.347H76.233Z" transform="translate(0 -8)" fill="#fff"/>
      </g>
    </g>
    <g id="Group_107" data-name="Group 107" transform="translate(38.201 14.148)">
      <g id="Group_106" data-name="Group 106" transform="translate(0 0)">
        <rect id="Rectangle_107" data-name="Rectangle 107" width="20.903" height="2.459" fill="#fff"/>
      </g>
    </g>
    <g id="Group_109" data-name="Group 109" transform="translate(30.824 20.296)">
      <g id="Group_108" data-name="Group 108" transform="translate(0 0)">
        <rect id="Rectangle_108" data-name="Rectangle 108" width="28.28" height="2.459" fill="#fff"/>
      </g>
    </g>
    <g id="Group_111" data-name="Group 111" transform="translate(30.824 25.214)">
      <g id="Group_110" data-name="Group 110" transform="translate(0 0)">
        <rect id="Rectangle_109" data-name="Rectangle 109" width="28.28" height="2.459" fill="#fff"/>
      </g>
    </g>
    <g id="Group_113" data-name="Group 113" transform="translate(30.824 30.132)">
      <g id="Group_112" data-name="Group 112" transform="translate(0 0)">
        <rect id="Rectangle_110" data-name="Rectangle 110" width="23.362" height="2.459" fill="#fff"/>
      </g>
    </g>
    <g id="Group_115" data-name="Group 115" transform="translate(33.283 14.148)">
      <g id="Group_114" data-name="Group 114" transform="translate(0 0)">
        <rect id="Rectangle_111" data-name="Rectangle 111" width="2.459" height="2.459" fill="#fff"/>
      </g>
    </g>
  </g>
</svg>
