<svg id="_1732607" data-name="1732607" xmlns="http://www.w3.org/2000/svg" width="62" height="62" viewBox="0 0 62 62">
  <path id="Path_1844" data-name="Path 1844" d="M61,17H57.517a16.753,16.753,0,0,0-2-4.855l2.459-2.459a1,1,0,0,0,0-1.414L53.728,4.029a1.029,1.029,0,0,0-1.414,0L49.855,6.488a16.8,16.8,0,0,0-4.855-2V1a1,1,0,0,0-1-1H38a1,1,0,0,0-1,1V4.483a16.759,16.759,0,0,0-4.854,2L29.687,4.029a1,1,0,0,0-1.414,0L24.03,8.272a1,1,0,0,0,0,1.414l2.459,2.459a16.754,16.754,0,0,0-2,4.855H21a1,1,0,0,0-1,1v2H5a3,3,0,0,0-3,3V52H1a1,1,0,0,0-1,1v4a5.006,5.006,0,0,0,5,5H49a5.006,5.006,0,0,0,5-5V53a1,1,0,0,0-1-1H52V37.657l.313.314a1,1,0,0,0,1.414,0l4.243-4.243a1,1,0,0,0,0-1.414l-2.459-2.459a16.753,16.753,0,0,0,2-4.855H61a1,1,0,0,0,1-1V18a1,1,0,0,0-1-1ZM52,57a3,3,0,0,1-3,3H5a3,3,0,0,1-3-3V54H14v1a3,3,0,0,0,3,3H37a3,3,0,0,0,3-3V54H52ZM16,54H38v1a1,1,0,0,1-1,1H17a1,1,0,0,1-1-1Zm34-2H4V23a1,1,0,0,1,1-1H20v2a1,1,0,0,0,1,1h3.483a16.753,16.753,0,0,0,2,4.855l-2.459,2.459a1,1,0,0,0,0,1.414l4.243,4.243a1.029,1.029,0,0,0,1.414,0l2.459-2.459a16.755,16.755,0,0,0,4.854,2V41a1,1,0,0,0,1,1h6a1,1,0,0,0,1-1V37.517a16.759,16.759,0,0,0,4.854-2l.147.145ZM60,23H56.709a1,1,0,0,0-.982.813,14.846,14.846,0,0,1-2.319,5.615,1,1,0,0,0,.119,1.27l2.323,2.323L53.021,35.85,50.7,33.527a1,1,0,0,0-1.27-.12,14.842,14.842,0,0,1-5.615,2.32,1,1,0,0,0-.814.982V40H39V36.709a1,1,0,0,0-.813-.982,14.846,14.846,0,0,1-5.615-2.32,1,1,0,0,0-1.27.12L28.98,35.85l-2.829-2.829L28.474,30.7a1,1,0,0,0,.119-1.27,14.83,14.83,0,0,1-2.319-5.615A1,1,0,0,0,25.291,23H22V19h3.291a1,1,0,0,0,.982-.813,14.846,14.846,0,0,1,2.319-5.615,1,1,0,0,0-.119-1.27L26.15,8.979,28.979,6.15,31.3,8.473a1,1,0,0,0,1.27.12,14.842,14.842,0,0,1,5.615-2.32A1,1,0,0,0,39,5.291V2h4V5.291a1,1,0,0,0,.813.982,14.846,14.846,0,0,1,5.615,2.32,1,1,0,0,0,1.27-.12L53.02,6.15l2.829,2.829L53.526,11.3a1,1,0,0,0-.119,1.27,14.83,14.83,0,0,1,2.319,5.615,1,1,0,0,0,.983.813H60Zm0,0" transform="translate(0 0)" fill="#fff"/>
  <path id="Path_1845" data-name="Path 1845" d="M237,64a13,13,0,1,0,13,13A13.015,13.015,0,0,0,237,64Zm-1,23.949V82.778a1,1,0,0,0-.654-.938A5.244,5.244,0,0,1,232,76.893a5.35,5.35,0,0,1,2-4.2v4.2a1.007,1.007,0,0,0,.278.693l2,2.083a1.031,1.031,0,0,0,1.443,0l2-2.083a1,1,0,0,0,.279-.693v-4.2a5.35,5.35,0,0,1,2,4.2,5.244,5.244,0,0,1-3.346,4.947,1,1,0,0,0-.654.938v5.171c-.33.03-.662.051-1,.051S236.33,87.979,236,87.949Zm4-.375V83.436a7.346,7.346,0,0,0-.654-13.374A1,1,0,0,0,238,71v5.49l-1,1.041-1-1.041V71a1,1,0,0,0-1.346-.938A7.346,7.346,0,0,0,234,83.436v4.138a11,11,0,1,1,6,0Zm0,0" transform="translate(-196 -56)" fill="#fff"/>
  <path id="Path_1846" data-name="Path 1846" d="M88,216H50V194H60v-2H49a1,1,0,0,0-1,1v24a1,1,0,0,0,1,1H89a1,1,0,0,0,1-1v-5H88Zm0,0" transform="translate(-42 -168)" fill="#fff"/>
</svg>
