<svg xmlns="http://www.w3.org/2000/svg" width="485.567" height="439.104" viewBox="0 0 485.567 439.104">
  <g id="Plain_credit_card-pana" data-name="Plain credit card-pana" transform="translate(-27.486 -40.61)">
    <g id="freepik--background-complete--inject-88" transform="translate(27.486 70.909)">
      <path id="Path_5498" data-name="Path 5498" d="M115.63,244.992a48.9,48.9,0,1,1-9.959-68.352A48.9,48.9,0,0,1,115.63,244.992Z" transform="translate(-27.486 -59.438)" fill="#ebebeb"/>
      <path id="Path_5499" data-name="Path 5499" d="M105.344,237.053a37.263,37.263,0,1,1-7.636-52.087,37.263,37.263,0,0,1,7.636,52.087Z" transform="translate(-26.516 -58.469)" fill="#f5f5f5"/>
      <path id="Path_5500" data-name="Path 5500" d="M105.464,236.221c-.185-.131.665-1.527,1.9-4.178a39.357,39.357,0,0,0,3.392-11.716,36.9,36.9,0,0,0-2.083-17.7,35.517,35.517,0,0,0-2.182-4.7,35.157,35.157,0,0,0-2.913-4.505,36.357,36.357,0,0,0-13.1-10.712,36.673,36.673,0,0,0-10.45-3.272,34.972,34.972,0,0,0-5.16-.415,37.775,37.775,0,0,0-9.512,1.091,38.518,38.518,0,0,0-7.832,2.967,39.465,39.465,0,0,0-9.817,7.21c-2.062,2.062-3.087,3.349-3.272,3.272s.578-1.6,2.443-3.96a34.362,34.362,0,0,1,9.7-8.236,37.361,37.361,0,0,1,18.3-4.963,37.765,37.765,0,0,1,11.236,1.582,38.952,38.952,0,0,1,5.618,2.182,41.527,41.527,0,0,1,5.356,3.131,41.1,41.1,0,0,1,4.778,3.96,37.885,37.885,0,0,1,9.294,14.541,37.2,37.2,0,0,1,1.614,18.893,34.5,34.5,0,0,1-4.363,11.945C106.773,235.131,105.606,236.32,105.464,236.221Z" transform="translate(-25.949 -58.575)" fill="#e0e0e0"/>
      <path id="Path_5501" data-name="Path 5501" d="M64.424,233.806l-3.807,5.247-4.691-3.382,3.709-5.105c-4.44-3.654-7.843-8.334-8.956-12.228l6.73-3.851a23.3,23.3,0,0,0,6.687,9.927l5.683-7.832c-4.3-5.04-8.858-11-3.992-17.7,3.611-4.974,10.319-6.621,18.348-2.094l3.774-5.2,4.691,3.4-3.709,5.105a26.321,26.321,0,0,1,7.45,9.818L89.8,213.975a23.639,23.639,0,0,0-5.454-7.636l-5.781,7.974c4.363,5,8.792,10.908,3.992,17.453C79.074,236.62,72.442,238.257,64.424,233.806Zm10.352-24.14L79.609,203c-2.891-1.244-4.865-.589-5.989.96s-.436,3.545,1.156,5.705Zm-.131,17.159c1.189-1.647.48-3.523-1.025-5.694l-4.7,6.48c2.727,1.189,4.636.709,5.727-.785Z" transform="translate(-25.379 -57.196)" fill="#e0e0e0"/>
      <path id="Path_5502" data-name="Path 5502" d="M383.849,371.462a42.433,42.433,0,1,1-8.639-59.309,42.433,42.433,0,0,1,8.639,59.309Z" transform="translate(-2.063 -47.012)" fill="#ebebeb"/>
      <path id="Path_5503" data-name="Path 5503" d="M374.921,364.581a32.332,32.332,0,1,1-6.545-45.2,32.332,32.332,0,0,1,6.545,45.2Z" transform="translate(-1.219 -46.174)" fill="#f5f5f5"/>
      <path id="Path_5504" data-name="Path 5504" d="M375.034,363.857c-.164-.12.578-1.331,1.636-3.632a34.143,34.143,0,0,0,2.945-10.167,32.723,32.723,0,0,0,.087-7.265,32.146,32.146,0,0,0-1.9-8.094,29.63,29.63,0,0,0-1.876-4.08,30.065,30.065,0,0,0-2.542-3.927,32.269,32.269,0,0,0-3.218-3.622,35.242,35.242,0,0,0-3.851-3.174,34.349,34.349,0,0,0-4.3-2.531,31.731,31.731,0,0,0-9.065-2.825,30.148,30.148,0,0,0-4.483-.36,32.615,32.615,0,0,0-8.247.982,33.268,33.268,0,0,0-6.8,2.585A34.305,34.305,0,0,0,324.888,324c-1.789,1.789-2.683,2.9-2.836,2.782s.5-1.385,2.116-3.425a29.866,29.866,0,0,1,8.421-7.145,32.563,32.563,0,0,1,7.09-3.022,32.946,32.946,0,0,1,8.792-1.287,31.409,31.409,0,0,1,4.811.305,31.843,31.843,0,0,1,4.931,1.091,33.18,33.18,0,0,1,13.668,8.039,34.26,34.26,0,0,1,3.447,3.938,31.634,31.634,0,0,1,2.683,4.265,31.279,31.279,0,0,1,1.942,4.363,33.238,33.238,0,0,1,1.8,8.727,32.442,32.442,0,0,1-.4,7.7,29.911,29.911,0,0,1-3.829,10.363C376.157,362.908,375.143,363.933,375.034,363.857Z" transform="translate(-0.731 -46.268)" fill="#e0e0e0"/>
      <path id="Path_5505" data-name="Path 5505" d="M339.421,361.753l-3.272,4.56-4.08-2.956,3.218-4.44c-3.851-3.163-6.8-7.232-7.767-10.6l5.836-3.338a20.388,20.388,0,0,0,5.8,8.618l4.931-6.807c-3.72-4.363-7.636-9.534-3.458-15.359,3.131-4.363,8.956-5.749,15.915-1.811l3.273-4.527,4.069,2.956-3.218,4.44a22.7,22.7,0,0,1,6.469,8.476l-5.672,3.523a20.377,20.377,0,0,0-4.691-6.632l-5.018,6.927c3.752,4.363,7.636,9.436,3.469,15.173C352.118,364.2,346.37,365.614,339.421,361.753Zm8.978-20.944,4.189-5.781c-2.509-1.091-4.222-.513-5.2.829S347.013,338.944,348.4,340.809Zm-.12,14.89c1.036-1.429.415-3.054-.894-4.941l-4.069,5.618c2.356,1.036,4.025.622,4.963-.676Z" transform="translate(-0.233 -45.069)" fill="#e0e0e0"/>
      <path id="Path_5506" data-name="Path 5506" d="M146.9,101.279a27.871,27.871,0,1,1-22.329-32.42,27.871,27.871,0,0,1,22.329,32.42Z" transform="translate(-21.661 -68.386)" fill="#ebebeb"/>
      <path id="Path_5507" data-name="Path 5507" d="M139.828,99.518A21.239,21.239,0,1,1,122.822,74.81a21.239,21.239,0,0,1,17.006,24.707Z" transform="translate(-21.108 -67.836)" fill="#f5f5f5"/>
      <path id="Path_5508" data-name="Path 5508" d="M139.935,98.931a11.683,11.683,0,0,1-.087-2.618,22.547,22.547,0,0,0-1.222-6.84,21.707,21.707,0,0,0-2.062-4.363A20.846,20.846,0,0,0,133.1,80.9a20.533,20.533,0,0,0-2.291-1.865,20.3,20.3,0,0,0-2.64-1.571,21.326,21.326,0,0,0-2.945-1.2,23.353,23.353,0,0,0-3.185-.753,23.845,23.845,0,0,0-3.272-.24,21.741,21.741,0,0,0-3.174.262,20.247,20.247,0,0,0-2.989.709,19.635,19.635,0,0,0-2.738,1.091,20.977,20.977,0,0,0-7.832,6.512,22.569,22.569,0,0,0-3.272,6.163,12.293,12.293,0,0,1-.862,2.465,6.12,6.12,0,0,1,.251-2.64,19.635,19.635,0,0,1,2.891-6.654,21.108,21.108,0,0,1,8.094-7.145,20.724,20.724,0,0,1,2.934-1.222,21.556,21.556,0,0,1,3.207-.807A23.517,23.517,0,0,1,118.7,73.7a24,24,0,0,1,3.523.251,23.551,23.551,0,0,1,3.436.818,22.82,22.82,0,0,1,3.174,1.32,19.755,19.755,0,0,1,2.825,1.734,19.3,19.3,0,0,1,2.422,2.04,21.893,21.893,0,0,1,3.589,4.592,22.155,22.155,0,0,1,2.007,4.658,19.777,19.777,0,0,1,.753,7.21A6.545,6.545,0,0,1,139.935,98.931Z" transform="translate(-21.094 -67.904)" fill="#e0e0e0"/>
      <path id="Path_5509" data-name="Path 5509" d="M118.13,107.983l-.622,3.654-3.272-.556.6-3.556a15.643,15.643,0,0,1-7.636-3.982l2.465-3.665a13.33,13.33,0,0,0,5.923,3.382l.927-5.454c-3.458-1.494-7.287-3.392-6.49-8.05.589-3.447,3.6-5.978,8.847-5.683l.611-3.622,3.273.556-.611,3.556a15.02,15.02,0,0,1,6.272,3.109L126.1,91.4a13.635,13.635,0,0,0-4.691-2.553l-.949,5.541c3.469,1.462,7.232,3.349,6.447,7.93C126.322,105.735,123.344,108.244,118.13,107.983Zm-.8-14.934.8-4.625c-1.8.1-2.64.927-2.825,2.007S115.981,92.34,117.334,93.049Zm4.265,8.8c.2-1.091-.644-1.92-1.964-2.64l-.764,4.483c1.691-.087,2.553-.829,2.727-1.854Z" transform="translate(-20.245 -67.291)" fill="#e0e0e0"/>
    </g>
    <g id="freepik--Floor--inject-88" transform="translate(62.419 479.136)">
      <path id="Path_5510" data-name="Path 5510" d="M510.144,442.9c0,.164-100.891.295-225.311.295S59.51,443.034,59.51,442.9s100.858-.284,225.322-.284S510.144,442.751,510.144,442.9Z" transform="translate(-59.51 -442.62)" fill="#263238"/>
    </g>
    <g id="freepik--Device--inject-88" transform="translate(34.565 62.296)">
      <path id="Path_5511" data-name="Path 5511" d="M184.9,134.2s.949-48.88-39.488-73.708H273.572s36.641,29.692,36.947,73.708Z" transform="translate(-23.854 -60.49)" fill="#ebebeb"/>
      <path id="Path_5512" data-name="Path 5512" d="M259.39,76.854c0,.164-14.639.295-32.725.295s-32.725-.131-32.725-.295,14.639-.284,32.725-.284S259.39,76.7,259.39,76.854Z" transform="translate(-19.446 -59.029)" fill="#455a64"/>
      <path id="Path_5513" data-name="Path 5513" d="M273.974,84.965c0,.153-19.4.284-43.317.284s-43.317-.131-43.317-.284,19.395-.295,43.317-.295S273.974,84.8,273.974,84.965Z" transform="translate(-20.045 -58.294)" fill="#263238"/>
      <path id="Path_5514" data-name="Path 5514" d="M280.655,105.464c0,.153-19.395.284-43.317.284s-43.328-.131-43.328-.284,19.4-.284,43.328-.284S280.655,105.311,280.655,105.464Z" transform="translate(-19.439 -56.431)" fill="#263238"/>
      <path id="Path_5515" data-name="Path 5515" d="M235.7,94.294a10.343,10.343,0,0,1-1.767.12l-4.843.087c-4.091.055-9.73.087-15.97.087s-11.879,0-15.97-.087l-4.843-.087a10.343,10.343,0,0,1-1.767-.12,11.358,11.358,0,0,1,1.767-.109l4.843-.087c4.091,0,9.73-.087,15.97-.087s11.879,0,15.97.087l4.843.087A11.358,11.358,0,0,1,235.7,94.294Z" transform="translate(-19.754 -57.445)" fill="#263238"/>
      <path id="Path_5516" data-name="Path 5516" d="M269.538,94.294a5.7,5.7,0,0,1-1.309.12l-3.578.087c-3.011.055-7.189.087-11.792.087s-8.781,0-11.792-.087l-3.578-.087a5.825,5.825,0,0,1-1.309-.12,6.382,6.382,0,0,1,1.309-.109l3.578-.087c3.011,0,7.189-.087,11.792-.087s8.727,0,11.792.087l3.578.087a6.251,6.251,0,0,1,1.309.109Z" transform="translate(-15.609 -57.445)" fill="#263238"/>
      <path id="Path_5517" data-name="Path 5517" d="M243.071,116.454a10.571,10.571,0,0,1-1.778.12l-4.832.087c-4.091,0-9.741.087-15.97.087s-11.89,0-15.981-.087l-4.832-.087a10.57,10.57,0,0,1-1.778-.12,11.607,11.607,0,0,1,1.778-.109l4.832-.087c4.091,0,9.741-.087,15.981-.087s11.879,0,15.97.087l4.832.087a11.607,11.607,0,0,1,1.778.109Z" transform="translate(-19.086 -55.432)" fill="#263238"/>
      <path id="Path_5518" data-name="Path 5518" d="M276.909,116.454a5.824,5.824,0,0,1-1.309.12l-3.578.087c-3.022,0-7.189.087-11.792.087s-8.727,0-11.8-.087l-3.578-.087a5.825,5.825,0,0,1-1.309-.12,6.381,6.381,0,0,1,1.309-.109l3.578-.087c3.022,0,7.189-.087,11.8-.087s8.727,0,11.792.087l3.578.087a6.382,6.382,0,0,1,1.309.109Z" transform="translate(-14.94 -55.432)" fill="#263238"/>
      <path id="Path_5519" data-name="Path 5519" d="M165,126.79H354.087l10.3,327.577a16.744,16.744,0,0,1-16.766,17.268H151.028a10.822,10.822,0,0,1-10.81-10.289l-9.087-184.97S75.052,256.01,76,193.909C76,193.909,78.554,126.79,165,126.79Z" transform="translate(-30.159 -54.468)" fill="#263238"/>
      <path id="Path_5520" data-name="Path 5520" d="M167.687,471.133,159.44,126.79H353.368l3.5,329.857a14.486,14.486,0,0,1-14.519,14.944Z" transform="translate(-22.579 -54.468)" fill="#455a64"/>
      <path id="Path_5521" data-name="Path 5521" d="M174.13,145.08l3.927,160.331H336L333.872,145.08Z" transform="translate(-21.245 -52.806)" fill="#263238"/>
      <path id="Path_5522" data-name="Path 5522" d="M190.236,164.439c7.712,2.083,17.453,1.2,25.373.818a2.182,2.182,0,1,0,0-4.363c-7.919-.393-17.671-1.276-25.373.818a1.451,1.451,0,0,0,0,2.782Z" transform="translate(-19.876 -51.418)" fill="#e0e0e0"/>
      <path id="Path_5523" data-name="Path 5523" d="M225.853,164.153c7.57,1.931,17.355,1.582,25.089.84a2.182,2.182,0,0,0,0-4.363c-7.734-.753-17.519-1.091-25.089.84a1.407,1.407,0,0,0,0,2.694Z" transform="translate(-16.638 -51.448)" fill="#e0e0e0"/>
      <path id="Path_5524" data-name="Path 5524" d="M260.986,163.477c3.807,1.156,7.919.96,11.868,1.025a77.187,77.187,0,0,0,12.1-.229c1.974-.284,1.974-3.72,0-3.992a75.891,75.891,0,0,0-12.1-.24c-3.949.065-8.061-.131-11.868,1.025a1.254,1.254,0,0,0,0,2.411Z" transform="translate(-13.438 -51.46)" fill="#e0e0e0"/>
      <path id="Path_5525" data-name="Path 5525" d="M293.557,163.689a63.934,63.934,0,0,0,8.672.665c2.88.065,5.989.535,8.781-.262a1.909,1.909,0,0,0,0-3.654c-2.793-.8-5.9-.327-8.781-.262a62.176,62.176,0,0,0-8.672.676,1.484,1.484,0,0,0,0,2.836Z" transform="translate(-10.492 -51.453)" fill="#e0e0e0"/>
      <rect id="Rectangle_1406" data-name="Rectangle 1406" width="45.771" height="32.714" transform="translate(156.867 271.672)" fill="#8dc63f"/>
      <rect id="Rectangle_1407" data-name="Rectangle 1407" width="8.279" height="32.714" transform="translate(156.867 271.672)" fill="#263238"/>
      <rect id="Rectangle_1408" data-name="Rectangle 1408" width="45.771" height="32.714" transform="translate(212.914 271.672)" fill="#8dc63f"/>
      <rect id="Rectangle_1409" data-name="Rectangle 1409" width="8.279" height="32.714" transform="translate(212.444 271.672)" fill="#263238"/>
      <rect id="Rectangle_1410" data-name="Rectangle 1410" width="45.771" height="32.714" transform="translate(268.971 271.672)" fill="#8dc63f"/>
      <rect id="Rectangle_1411" data-name="Rectangle 1411" width="8.279" height="32.714" transform="translate(267.662 271.672)" fill="#263238"/>
      <rect id="Rectangle_1412" data-name="Rectangle 1412" width="45.771" height="32.714" transform="translate(268.971 315.196)" fill="#8dc63f"/>
      <rect id="Rectangle_1413" data-name="Rectangle 1413" width="8.53" height="32.714" transform="translate(268.971 315.196)" fill="#263238"/>
      <rect id="Rectangle_1414" data-name="Rectangle 1414" width="45.771" height="32.714" transform="translate(156.867 315.196)" fill="#8dc63f"/>
      <rect id="Rectangle_1415" data-name="Rectangle 1415" width="8.279" height="32.714" transform="translate(156.867 315.131)" fill="#263238"/>
      <rect id="Rectangle_1416" data-name="Rectangle 1416" width="45.771" height="32.714" transform="translate(156.867 358.284)" fill="#8dc63f"/>
      <rect id="Rectangle_1417" data-name="Rectangle 1417" width="45.771" height="32.714" transform="translate(156.867 358.284)" opacity="0.3"/>
      <rect id="Rectangle_1418" data-name="Rectangle 1418" width="8.279" height="32.714" transform="translate(156.867 358.284)" fill="#263238"/>
      <rect id="Rectangle_1419" data-name="Rectangle 1419" width="45.771" height="32.714" transform="translate(212.663 315.196)" fill="#8dc63f"/>
      <rect id="Rectangle_1420" data-name="Rectangle 1420" width="8.279" height="32.714" transform="translate(212.663 315.131)" fill="#263238"/>
      <rect id="Rectangle_1421" data-name="Rectangle 1421" width="45.771" height="32.714" transform="translate(212.914 358.284)" fill="#8dc63f"/>
      <rect id="Rectangle_1422" data-name="Rectangle 1422" width="45.771" height="32.714" transform="translate(212.914 358.284)" opacity="0.3"/>
      <rect id="Rectangle_1423" data-name="Rectangle 1423" width="8.279" height="32.714" transform="translate(212.914 358.284)" fill="#263238"/>
      <rect id="Rectangle_1424" data-name="Rectangle 1424" width="45.771" height="32.714" transform="translate(268.971 358.284)" fill="#e0e0e0"/>
      <rect id="Rectangle_1425" data-name="Rectangle 1425" width="8.279" height="32.714" transform="translate(268.971 358.284)" fill="#263238"/>
      <path id="Path_5526" data-name="Path 5526" d="M154,471.633c-.785,0-3.654-77.165-6.414-172.352s-4.363-172.45-3.578-172.472,3.654,77.144,6.414,172.352S154.784,471.611,154,471.633Z" transform="translate(-23.999 -54.466)" fill="#455a64"/>
      <path id="Path_5527" data-name="Path 5527" d="M322.3,275.32v5.88l18.108,4.505-.1-9.065Z" transform="translate(-7.786 -40.976)" fill="#455a64"/>
      <path id="Path_5528" data-name="Path 5528" d="M76.71,424.481v0Z" transform="translate(-30.094 -27.429)" fill="none"/>
      <path id="Path_5529" data-name="Path 5529" d="M128.632,264.554a7.319,7.319,0,0,0-3.12-.513,11.061,11.061,0,0,0-3.12.764L110,268.95l-24.216,8.138L39.969,292.359a7.636,7.636,0,0,0-4.363,3.272,7.374,7.374,0,0,0-1.036,5.247,20.32,20.32,0,0,0,.785,2.651l.884,2.64c.589,1.756,1.167,3.491,1.756,5.225q3.447,10.352,6.72,20.1c4.363,12.981,8.378,25.089,12.076,36.1,7.352,22.068,13.319,39.935,17.453,52.284,2.051,6.174,3.632,10.963,4.723,14.181.524,1.625.938,2.858,1.211,3.7s.393,1.265.393,1.265h0a6.822,6.822,0,0,0,.556,1.2,7.6,7.6,0,0,0,8.683,3.654c2.378-.764,5.105-1.724,8.192-2.749l45.553-15.359L94.969,274.033l24.3-8.149,43.884,134.467-1.92-46.775c-8.836-26.322-18.381-54.782-28.362-84.485A7.44,7.44,0,0,0,128.632,264.554Zm-56,69.126L61.786,299.362l3.676-1.167L76.3,332.512Zm7.527-18.9L73.829,294.77l3.676-1.156,6.327,19.995Zm8.487,25.373-6.316-20.006L86,318.986l6.316,19.995Zm2.182,5.367,3.676-1.167,17.508,55.392-3.676,1.156Zm22.907,72.475-3.742-11.836,3.676-1.167,3.742,11.846Zm15.13-6.283-3.676,1.156-23.093-73.086,3.676-1.156Zm-24.98-80.078-3.676,1.156-13.4-42.357,3.676-1.167Z" transform="translate(-33.932 -42.002)" fill="#8dc63f"/>
      <path id="Path_5530" data-name="Path 5530" d="M128.632,264.554a7.319,7.319,0,0,0-3.12-.513,11.061,11.061,0,0,0-3.12.764L110,268.95l-24.216,8.138L39.969,292.359a7.636,7.636,0,0,0-4.363,3.272,7.374,7.374,0,0,0-1.036,5.247,20.32,20.32,0,0,0,.785,2.651l.884,2.64c.589,1.756,1.167,3.491,1.756,5.225q3.447,10.352,6.72,20.1c4.363,12.981,8.378,25.089,12.076,36.1,7.352,22.068,13.319,39.935,17.453,52.284,2.051,6.174,3.632,10.963,4.723,14.181.524,1.625.938,2.858,1.211,3.7s.393,1.265.393,1.265h0a6.822,6.822,0,0,0,.556,1.2,7.6,7.6,0,0,0,8.683,3.654c2.378-.764,5.105-1.724,8.192-2.749l45.553-15.359L94.969,274.033l24.3-8.149,43.884,134.467-1.92-46.775c-8.836-26.322-18.381-54.782-28.362-84.485A7.44,7.44,0,0,0,128.632,264.554Zm-56,69.126L61.786,299.362l3.676-1.167L76.3,332.512Zm7.527-18.9L73.829,294.77l3.676-1.156,6.327,19.995Zm8.487,25.373-6.316-20.006L86,318.986l6.316,19.995Zm2.182,5.367,3.676-1.167,17.508,55.392-3.676,1.156Zm22.907,72.475-3.742-11.836,3.676-1.167,3.742,11.846Zm15.13-6.283-3.676,1.156-23.093-73.086,3.676-1.156Zm-24.98-80.078-3.676,1.156-13.4-42.357,3.676-1.167Z" transform="translate(-33.932 -42.002)" opacity="0.3"/>
      <path id="Path_5531" data-name="Path 5531" d="M139.749,413.06l-.055-.175L94.142,428.244c-3.087,1.025-5.814,1.985-8.192,2.749a7.6,7.6,0,0,1-8.683-3.654c-.425-.764-.524-1.211-.556-1.2h0l.109.316a7.238,7.238,0,0,0,.4.905,7.527,7.527,0,0,0,2.629,2.847,7.636,7.636,0,0,0,6.13.938c2.4-.753,5.127-1.691,8.225-2.716l52.284-17.453,12.4-4.145,1.2-.611Z" transform="translate(-30.094 -29.086)" fill="#263238"/>
      <path id="Path_5532" data-name="Path 5532" d="M80.2,437.82c-.273-.84-.687-2.073-1.211-3.7-1.091-3.272-2.673-8.05-4.723-14.181-4.112-12.348-10.079-30.216-17.453-52.284-3.7-11.028-7.734-23.115-12.076-36.1q-3.273-9.73-6.72-20.1c-.589-1.734-1.167-3.469-1.756-5.225l-.884-2.64a20.323,20.323,0,0,1-.785-2.651,7.374,7.374,0,0,1,1.036-5.247,7.636,7.636,0,0,1,4.363-3.272l45.815-15.272,24.216-8.116,12.392-4.145a11.061,11.061,0,0,1,3.12-.764,7.32,7.32,0,0,1,3.12.513,7.439,7.439,0,0,1,4.265,4.516c9.959,29.7,19.5,58.163,28.362,84.485l-.076-1.767c-8.661-25.875-18.021-53.778-27.762-82.9a8,8,0,0,0-4.571-4.843,7.821,7.821,0,0,0-3.349-.545,11.606,11.606,0,0,0-3.272.785l-12.381,4.156-24.216,8.116L39.838,292a8.083,8.083,0,0,0-4.647,3.414,7.865,7.865,0,0,0-1.091,5.6,21.207,21.207,0,0,0,.807,2.716c.295.884.6,1.756.894,2.64.578,1.745,1.167,3.491,1.745,5.214q3.491,10.352,6.752,20.1l12.174,36.052,17.6,52.229c2.094,6.152,3.709,10.908,4.811,14.181.556,1.614.982,2.847,1.265,3.687l.447,1.254h0S80.472,438.66,80.2,437.82Z" transform="translate(-33.976 -42.044)" fill="#263238"/>
      <rect id="Rectangle_1426" data-name="Rectangle 1426" width="3.851" height="76.642" transform="translate(68.125 297.796) rotate(-17.54)" fill="#fafafa"/>
      <rect id="Rectangle_1427" data-name="Rectangle 1427" width="3.851" height="44.451" transform="translate(52.881 248.42) rotate(-17.54)" fill="#fafafa"/>
      <rect id="Rectangle_1428" data-name="Rectangle 1428" width="3.851" height="20.977" transform="translate(39.904 252.767) rotate(-17.54)" fill="#fafafa"/>
      <rect id="Rectangle_1429" data-name="Rectangle 1429" width="3.836" height="35.862" transform="translate(27.173 256.328) rotate(-17.526)" fill="#fafafa"/>
      <rect id="Rectangle_1430" data-name="Rectangle 1430" width="3.851" height="12.414" transform="translate(76.108 364.142) rotate(-17.54)" fill="#fafafa"/>
      <rect id="Rectangle_1431" data-name="Rectangle 1431" width="3.851" height="20.977" transform="translate(48.389 278.144) rotate(-17.54)" fill="#fafafa"/>
      <rect id="Rectangle_1432" data-name="Rectangle 1432" width="3.851" height="58.087" transform="translate(56.856 303.533) rotate(-17.54)" fill="#fafafa"/>
      <path id="Path_5533" data-name="Path 5533" d="M89.93,273.879l48.564,151.768.055.175L158.892,419h0l-.774-18.828L114.234,265.73Z" transform="translate(-28.893 -41.847)" fill="#fafafa"/>
      <path id="Path_5534" data-name="Path 5534" d="M134.25,422.1l19.722-6.938-.425-8.65-19.024,6.523Z" transform="translate(-24.867 -29.06)" fill="#263238"/>
    </g>
    <g id="freepik--Icon--inject-88" transform="translate(372.008 40.61)">
      <path id="Path_5535" data-name="Path 5535" d="M362.436,190.64c0,.153-.611.251-1.374.218s-1.353-.185-1.342-.349.622-.251,1.374-.218S362.447,190.476,362.436,190.64Z" transform="translate(-341.83 -27.015)" fill="#263238"/>
      <path id="Path_5536" data-name="Path 5536" d="M372.445,190.2a6.294,6.294,0,0,1-2.651.491,6.48,6.48,0,0,1-2.694-.076,12.773,12.773,0,0,1,5.345-.415Z" transform="translate(-341.16 -27.033)" fill="#263238"/>
      <path id="Path_5537" data-name="Path 5537" d="M382.137,188.46a6.48,6.48,0,0,1-2.564.84,6.7,6.7,0,0,1-2.683.284,12.8,12.8,0,0,1,5.247-1.091Z" transform="translate(-340.271 -27.18)" fill="#263238"/>
      <path id="Path_5538" data-name="Path 5538" d="M391.47,185.47a6.544,6.544,0,0,1-2.422,1.167,6.435,6.435,0,0,1-2.618.633,6.382,6.382,0,0,1,2.422-1.167,6.828,6.828,0,0,1,2.618-.633Z" transform="translate(-339.404 -27.452)" fill="#263238"/>
      <path id="Path_5539" data-name="Path 5539" d="M400.316,181.24a13.06,13.06,0,0,1-4.756,2.476,6.708,6.708,0,0,1,2.247-1.494A6.545,6.545,0,0,1,400.316,181.24Z" transform="translate(-338.575 -27.836)" fill="#263238"/>
      <path id="Path_5540" data-name="Path 5540" d="M408.452,175.791c.1.12-.8.927-2.007,1.8a6.469,6.469,0,0,1-2.334,1.342c-.087-.131.807-.938,2.007-1.811S408.354,175.661,408.452,175.791Z" transform="translate(-337.799 -28.333)" fill="#263238"/>
      <path id="Path_5541" data-name="Path 5541" d="M415.626,169.131c.12.109-.644,1.091-1.691,2.094s-2,1.811-2.094,1.691.644-1.091,1.691-2.094S415.506,168.99,415.626,169.131Z" transform="translate(-337.097 -28.937)" fill="#263238"/>
      <path id="Path_5542" data-name="Path 5542" d="M421.535,161.34c.142.076-.447,1.091-1.3,2.356s-1.647,2.182-1.767,2.04a6.742,6.742,0,0,1,1.3-2.367C420.619,162.17,421.4,161.253,421.535,161.34Z" transform="translate(-336.494 -29.644)" fill="#263238"/>
      <path id="Path_5543" data-name="Path 5543" d="M425.862,152.56a12.829,12.829,0,0,1-2.182,4.909,12.036,12.036,0,0,1,2.182-4.909Z" transform="translate(-336.021 -30.441)" fill="#263238"/>
      <path id="Path_5544" data-name="Path 5544" d="M428.379,143.1a6.545,6.545,0,0,1-.316,2.673,6.424,6.424,0,0,1-.873,2.553,12.752,12.752,0,0,1,1.189-5.225Z" transform="translate(-335.702 -31.301)" fill="#263238"/>
      <path id="Path_5545" data-name="Path 5545" d="M429.325,133.33a12.511,12.511,0,0,1-.338,5.345,6.546,6.546,0,0,1-.109-2.683,6.688,6.688,0,0,1,.447-2.662Z" transform="translate(-335.557 -32.188)" fill="#263238"/>
      <path id="Path_5546" data-name="Path 5546" d="M428.8,123.53a12.49,12.49,0,0,1,.469,5.334,6.764,6.764,0,0,1-.513-2.64A6.664,6.664,0,0,1,428.8,123.53Z" transform="translate(-335.57 -33.078)" fill="#263238"/>
      <path id="Path_5547" data-name="Path 5547" d="M426.8,113.91a6.48,6.48,0,0,1,.927,2.531,6.545,6.545,0,0,1,.371,2.673,6.665,6.665,0,0,1-.927-2.531,6.719,6.719,0,0,1-.371-2.673Z" transform="translate(-335.738 -33.952)" fill="#263238"/>
      <path id="Path_5548" data-name="Path 5548" d="M423.24,104.76a6.479,6.479,0,0,1,1.342,2.334,6.393,6.393,0,0,1,.818,2.574,6.85,6.85,0,0,1-1.342-2.345,6.6,6.6,0,0,1-.818-2.563Z" transform="translate(-336.061 -34.783)" fill="#263238"/>
      <path id="Path_5549" data-name="Path 5549" d="M418,96.451c.12-.1.905.807,1.767,2.029a6.6,6.6,0,0,1,1.3,2.356c-.131.087-.927-.829-1.767-2.029A6.621,6.621,0,0,1,418,96.451Z" transform="translate(-336.537 -35.539)" fill="#263238"/>
      <path id="Path_5550" data-name="Path 5550" d="M411.191,89.411c.1-.12,1.091.535,2.182,1.549s1.833,1.974,1.724,2.083-1.025-.665-2.105-1.669S411.092,89.531,411.191,89.411Z" transform="translate(-337.156 -36.179)" fill="#263238"/>
      <path id="Path_5551" data-name="Path 5551" d="M405.081,85.193c.076-.131.665.076,1.309.469s1.091.818,1.014.949-.676-.076-1.309-.458S404.994,85.335,405.081,85.193Z" transform="translate(-337.711 -36.564)" fill="#263238"/>
      <circle id="Ellipse_92" data-name="Ellipse 92" cx="37.786" cy="37.786" r="37.786" fill="#8dc63f"/>
      <path id="Path_5552" data-name="Path 5552" d="M357.47,79.206l5.847-5.847L374.6,83.384l22.144-21.3,5.432,5.847L373.767,94.663Z" transform="translate(-342.035 -38.66)" fill="#fafafa"/>
    </g>
    <g id="freepik--Character--inject-88" transform="translate(226.046 165.286)">
      <path id="Path_5553" data-name="Path 5553" d="M407.679,164.363c-2.258,3.763-2.029,8.487-1.4,12.839s1.614,8.792.644,13.09c-.644,2.825-2.182,5.651-1.44,8.454.491,2,1.985,3.567,2.727,5.454,1.091,2.727.469,5.76.109,8.661S407.984,219,409.9,221.2c2.389,2.727,6.785,2.607,10.057,1.091s5.869-4.211,8.9-6.185,6.981-3.272,10.243-1.7c1.505.72,2.8,2.007,4.461,2.182,2.323.175,4.156-1.953,6.4-2.574,1.931-.524,3.992.12,5.978-.109,4.047-.447,7.036-4.811,6.469-8.836a9.916,9.916,0,0,0-8.2-7.952c-1.713-.284-3.774-.327-4.712-1.789-1.4-2.182,1.091-4.92.622-7.439-.305-1.811-2.029-3.022-3.72-3.763s-3.556-1.233-4.865-2.52c-2.345-2.291-2.083-6.043-2.8-9.25-1.189-5.28-6.13-16.09-16.886-17.148" transform="translate(-191.729 -154.877)" fill="#263238"/>
      <path id="Path_5554" data-name="Path 5554" d="M403.727,439.641l.207-7.7,14.432.295L418.18,443.5h-.895c-3.982.142-20.279.436-22.908-.425C391.411,442.15,403.727,439.641,403.727,439.641Z" transform="translate(-192.762 -129.74)" fill="#8dc63f"/>
      <path id="Path_5555" data-name="Path 5555" d="M411.37,442.666a4.974,4.974,0,0,1,1.9-3.032,4.832,4.832,0,0,1,3.393-.982l-.076,4.025Z" transform="translate(-191.177 -129.132)" fill="#8dc63f"/>
      <path id="Path_5556" data-name="Path 5556" d="M397.71,440.31s-4.363,1.156-3.8,1.876,17,1.091,24.271.545v-.316l-19.21-.218S398.55,440.365,397.71,440.31Z" transform="translate(-192.767 -128.98)" fill="#8dc63f"/>
      <path id="Path_5557" data-name="Path 5557" d="M418.388,442.268h-.96l-2.618.065h-8.661c-3.382,0-6.447-.185-8.661-.305l-2.618-.164-.709-.055h.709l2.629.1c2.182.087,5.269.2,8.65.262s6.436.076,8.65.065h3.589Z" transform="translate(-192.763 -128.844)" fill="#263238"/>
      <path id="Path_5558" data-name="Path 5558" d="M398.642,442.441a6.16,6.16,0,0,0-.469-1.265,6.252,6.252,0,0,0-.873-1.025,1.941,1.941,0,0,1,1.025.938A1.985,1.985,0,0,1,398.642,442.441Z" transform="translate(-192.455 -128.994)" fill="#263238"/>
      <path id="Path_5559" data-name="Path 5559" d="M402.532,440.441a3.276,3.276,0,0,1-.447-.556c-.207-.327-.338-.633-.294-.655s.24.229.447.556S402.576,440.419,402.532,440.441Z" transform="translate(-192.048 -129.078)" fill="#263238"/>
      <path id="Path_5560" data-name="Path 5560" d="M403.624,439.869a2.318,2.318,0,0,1-.5-.349c-.251-.229-.415-.447-.382-.48s.262.12.5.349S403.657,439.837,403.624,439.869Z" transform="translate(-191.961 -129.096)" fill="#263238"/>
      <path id="Path_5561" data-name="Path 5561" d="M404.375,438.568c0,.055-.338.087-.753.087s-.753,0-.753-.1a1.69,1.69,0,0,1,.753-.076,1.79,1.79,0,0,1,.753.087Z" transform="translate(-191.949 -129.147)" fill="#263238"/>
      <path id="Path_5562" data-name="Path 5562" d="M404.642,437.69a1.462,1.462,0,0,1-.84.229,1.385,1.385,0,0,1-.862-.142,5.043,5.043,0,0,1,.851,0,3.51,3.51,0,0,1,.851-.087Z" transform="translate(-191.943 -129.218)" fill="#263238"/>
      <path id="Path_5563" data-name="Path 5563" d="M402.225,439.288a2.673,2.673,0,0,1-.927,0,6.05,6.05,0,0,1-.982-.24,2.963,2.963,0,0,1-.556-.24.535.535,0,0,1-.229-.294.371.371,0,0,1,.153-.371,1.712,1.712,0,0,1,2.094.545,1.527,1.527,0,0,1,.284.622c0,.153,0,.251,0,.251a2.531,2.531,0,0,0-.4-.8,1.625,1.625,0,0,0-.785-.535,1.429,1.429,0,0,0-1.091.055c-.153.109-.1.284.065.382a3.065,3.065,0,0,0,.513.229,6.2,6.2,0,0,0,.949.273A8.5,8.5,0,0,1,402.225,439.288Z" transform="translate(-192.253 -129.191)" fill="#263238"/>
      <path id="Path_5564" data-name="Path 5564" d="M401.829,439.369a.927.927,0,0,1-.087-.644,1.429,1.429,0,0,1,.284-.687.916.916,0,0,1,.785-.458.382.382,0,0,1,.273.436,1.09,1.09,0,0,1-.164.4,3.1,3.1,0,0,1-.447.556,1.4,1.4,0,0,1-.545.371,4.788,4.788,0,0,0,.458-.458,2.818,2.818,0,0,0,.393-.545c.131-.2.229-.545,0-.589s-.48.2-.622.382a1.4,1.4,0,0,0-.273.6A4.26,4.26,0,0,0,401.829,439.369Z" transform="translate(-192.054 -129.228)" fill="#263238"/>
      <path id="Path_5565" data-name="Path 5565" d="M416.586,438.621a5.666,5.666,0,0,0-1.091,0,4.527,4.527,0,0,0-3.84,2.945c-.229.611-.262,1.025-.295,1.025a1.092,1.092,0,0,1,0-.295,4.363,4.363,0,0,1,4.123-3.8,5.1,5.1,0,0,1,.785,0A1.383,1.383,0,0,1,416.586,438.621Z" transform="translate(-191.179 -129.145)" fill="#263238"/>
      <path id="Path_5566" data-name="Path 5566" d="M414.9,433.08a24,24,0,0,1,.065,2.967,23.275,23.275,0,0,1-.109,2.956,26.616,26.616,0,0,1-.066-2.956,26.111,26.111,0,0,1,.109-2.967Z" transform="translate(-190.868 -129.637)" fill="#263238"/>
      <path id="Path_5567" data-name="Path 5567" d="M410.082,441.006a8.015,8.015,0,0,1-2.116.164,8.477,8.477,0,0,1-2.105-.207c0-.054.949,0,2.116,0S410.071,441.006,410.082,441.006Z" transform="translate(-191.678 -128.923)" fill="#263238"/>
      <path id="Path_5568" data-name="Path 5568" d="M412.356,441.061a4.407,4.407,0,0,1-.185.4c-.109.207-.153.415-.207.4s-.065-.229.055-.469S412.323,441,412.356,441.061Z" transform="translate(-191.127 -128.913)" fill="#263238"/>
      <path id="Path_5569" data-name="Path 5569" d="M413.366,439.861a.918.918,0,0,1-.218.327c-.153.142-.294.24-.327.207s.055-.185.207-.327S413.333,439.828,413.366,439.861Z" transform="translate(-191.046 -129.021)" fill="#263238"/>
      <path id="Path_5570" data-name="Path 5570" d="M414.8,439.337c0,.055-.207,0-.415.12s-.371.175-.4.142.087-.229.349-.316S414.809,439.294,414.8,439.337Z" transform="translate(-190.94 -129.076)" fill="#263238"/>
      <path id="Path_5571" data-name="Path 5571" d="M415.766,439.093a.391.391,0,0,1-.185.164.44.44,0,0,1-.251,0,.336.336,0,0,1,.185-.164C415.636,439.049,415.745,439.049,415.766,439.093Z" transform="translate(-190.817 -129.093)" fill="#263238"/>
      <path id="Path_5572" data-name="Path 5572" d="M441.258,439.641l.207-7.7,14.421.295L455.7,443.5h-.894c-3.982.142-20.268.436-22.908-.425C428.942,442.15,441.258,439.641,441.258,439.641Z" transform="translate(-189.354 -129.74)" fill="#8dc63f"/>
      <path id="Path_5573" data-name="Path 5573" d="M448.89,442.666a5,5,0,0,1,1.909-3.032,4.811,4.811,0,0,1,3.392-.982l-.087,4.025Z" transform="translate(-187.769 -129.132)" fill="#8dc63f"/>
      <path id="Path_5574" data-name="Path 5574" d="M435.241,440.31s-4.363,1.156-3.807,1.876,17,1.091,24.271.545v-.316l-19.22-.218S436.081,440.365,435.241,440.31Z" transform="translate(-189.359 -128.98)" fill="#8dc63f"/>
      <path id="Path_5575" data-name="Path 5575" d="M455.919,442.268h-.96l-2.629.065h-8.661c-3.382,0-6.447-.185-8.65-.305l-2.629-.164-.709-.055h.72l2.618.1c2.182.087,5.269.2,8.65.262s6.447.076,8.661.065h3.589Z" transform="translate(-189.355 -128.844)" fill="#263238"/>
      <path id="Path_5576" data-name="Path 5576" d="M436.161,442.441a5.747,5.747,0,0,0-.458-1.265,6.252,6.252,0,0,0-.873-1.025,2.324,2.324,0,0,1,1.331,2.291Z" transform="translate(-189.046 -128.994)" fill="#263238"/>
      <path id="Path_5577" data-name="Path 5577" d="M440.061,440.441a2.956,2.956,0,0,1-.436-.556c-.2-.327-.338-.633-.294-.655s.24.229.436.556A2.761,2.761,0,0,1,440.061,440.441Z" transform="translate(-188.638 -129.078)" fill="#263238"/>
      <path id="Path_5578" data-name="Path 5578" d="M441.154,439.869a2.06,2.06,0,0,1-.5-.349c-.24-.229-.415-.447-.382-.48s.251.12.5.349S441.187,439.837,441.154,439.869Z" transform="translate(-188.552 -129.096)" fill="#263238"/>
      <path id="Path_5579" data-name="Path 5579" d="M441.905,438.568c0,.055-.338.087-.753.087s-.753,0-.753-.1a1.69,1.69,0,0,1,.753-.076,1.79,1.79,0,0,1,.753.087Z" transform="translate(-188.54 -129.147)" fill="#263238"/>
      <path id="Path_5580" data-name="Path 5580" d="M442.143,437.69a1.56,1.56,0,0,1-.851.229,1.386,1.386,0,0,1-.862-.142,5.249,5.249,0,0,1,.851,0,3.589,3.589,0,0,1,.862-.087Z" transform="translate(-188.538 -129.218)" fill="#263238"/>
      <path id="Path_5581" data-name="Path 5581" d="M439.795,439.289a2.683,2.683,0,0,1-.927,0,6.05,6.05,0,0,1-.982-.24,2.761,2.761,0,0,1-.567-.24.513.513,0,0,1-.218-.294.393.393,0,0,1,.142-.371,1.7,1.7,0,0,1,2.094.545,1.572,1.572,0,0,1,.294.622.557.557,0,0,1,0,.251,2.444,2.444,0,0,0-.414-.8,1.646,1.646,0,0,0-.774-.535,1.462,1.462,0,0,0-1.091.055c-.142.109-.087.284.065.382a2.816,2.816,0,0,0,.524.229,5.862,5.862,0,0,0,.949.273C439.435,439.256,439.795,439.256,439.795,439.289Z" transform="translate(-188.84 -129.191)" fill="#263238"/>
      <path id="Path_5582" data-name="Path 5582" d="M439.36,439.368a.884.884,0,0,1-.1-.644,1.581,1.581,0,0,1,.273-.676.916.916,0,0,1,.775-.458.382.382,0,0,1,.284.436.906.906,0,0,1-.175.4,2.7,2.7,0,0,1-.447.556,1.408,1.408,0,0,1-.534.371,5.839,5.839,0,0,0,.447-.458,3.371,3.371,0,0,0,.4-.545c.131-.2.218-.545,0-.589s-.469.2-.622.382a1.713,1.713,0,0,0-.273.6,3.382,3.382,0,0,0-.033.622Z" transform="translate(-188.646 -129.227)" fill="#263238"/>
      <path id="Path_5583" data-name="Path 5583" d="M454.116,438.621a5.716,5.716,0,0,0-1.091,0,4.712,4.712,0,0,0-2.345.916,4.767,4.767,0,0,0-1.494,2.029c-.229.611-.262,1.025-.294,1.025a.874.874,0,0,1,0-.294,3.665,3.665,0,0,1,.175-.775A4.363,4.363,0,0,1,453,438.5a5.323,5.323,0,0,1,.8,0,.828.828,0,0,1,.316.12Z" transform="translate(-187.77 -129.146)" fill="#263238"/>
      <path id="Path_5584" data-name="Path 5584" d="M452.431,433.08a26.887,26.887,0,0,1,.065,2.967,26,26,0,0,1-.109,2.956,23.784,23.784,0,0,1-.065-2.956,23.384,23.384,0,0,1,.109-2.967Z" transform="translate(-187.459 -129.637)" fill="#263238"/>
      <path id="Path_5585" data-name="Path 5585" d="M447.6,441.006a7.9,7.9,0,0,1-2.105.164,8.3,8.3,0,0,1-2.105-.207c0-.054.949,0,2.105,0S447.6,441.006,447.6,441.006Z" transform="translate(-188.269 -128.923)" fill="#263238"/>
      <path id="Path_5586" data-name="Path 5586" d="M449.875,441.061s-.076.2-.175.4-.164.415-.207.4-.065-.229,0-.469S449.853,441,449.875,441.061Z" transform="translate(-187.718 -128.913)" fill="#263238"/>
      <path id="Path_5587" data-name="Path 5587" d="M450.9,439.861a.918.918,0,0,1-.218.327c-.153.142-.305.24-.338.207s.065-.185.218-.327S450.853,439.828,450.9,439.861Z" transform="translate(-187.638 -129.021)" fill="#263238"/>
      <path id="Path_5588" data-name="Path 5588" d="M452.319,439.337c0,.055-.2,0-.414.12s-.36.175-.4.142.087-.229.349-.316S452.341,439.294,452.319,439.337Z" transform="translate(-187.533 -129.076)" fill="#263238"/>
      <path id="Path_5589" data-name="Path 5589" d="M453.287,439.093a.391.391,0,0,1-.185.164.449.449,0,0,1-.251,0c-.022,0,.076-.12.2-.164S453.276,439.049,453.287,439.093Z" transform="translate(-187.41 -129.093)" fill="#263238"/>
      <path id="Path_5590" data-name="Path 5590" d="M400.816,257.55,393.9,360.645v92.972h27.642s1.167-80.176.436-85.423c0,0,4.516-80.307,5.029-79.162,1.091,2.345,1.025,70.61,2.574,79.064s8.727,85.521,8.727,85.521h26.605l-8.945-88.357c-.185-10.647-2.923-104.142-2.923-104.142Z" transform="translate(-192.764 -145.58)" fill="#263238"/>
      <path id="Path_5591" data-name="Path 5591" d="M460.58,432.623a1.963,1.963,0,0,1-1.025.36,6.011,6.011,0,0,1-2.923-.48,19.057,19.057,0,0,0-4-1.44c-1.56-.229-3.185.589-4.734,1.625a11.453,11.453,0,0,1-4.876,2.247,10.189,10.189,0,0,1-4.363-.535,23.783,23.783,0,0,1-2.727-1.091,3.445,3.445,0,0,1-.927-.534c0-.1,1.429.567,3.763,1.265a10.417,10.417,0,0,0,4.189.393,11.192,11.192,0,0,0,4.636-2.182,13.806,13.806,0,0,1,2.465-1.331,5.29,5.29,0,0,1,2.64-.327,17.225,17.225,0,0,1,4.123,1.538,6.37,6.37,0,0,0,2.749.622C460.209,432.732,460.558,432.568,460.58,432.623Z" transform="translate(-189.031 -129.867)" fill="#455a64"/>
      <path id="Path_5592" data-name="Path 5592" d="M421.724,431.994a7.641,7.641,0,0,0-.873-.709,4.178,4.178,0,0,0-2.913-.436,12,12,0,0,0-4.058,2.04,14.533,14.533,0,0,1-2.465,1.331,5.727,5.727,0,0,1-3.043.36c-2.094-.36-3.752-1.451-5.454-1.822a8.8,8.8,0,0,0-4.472.2c-2.509.753-3.981,1.527-4.025,1.418a4.451,4.451,0,0,1,1-.589,19.845,19.845,0,0,1,2.913-1.222,9.032,9.032,0,0,1,4.7-.316c1.778.382,3.458,1.462,5.378,1.778s3.676-.676,5.127-1.582a11.683,11.683,0,0,1,4.265-1.985,4.265,4.265,0,0,1,3.12.644,1.876,1.876,0,0,1,.8.895Z" transform="translate(-192.717 -129.881)" fill="#455a64"/>
      <path id="Path_5593" data-name="Path 5593" d="M447.282,277.393a3.469,3.469,0,0,1-1.614.545,9.818,9.818,0,0,1-7.756-2.182c-.807-.687-1.167-1.244-1.091-1.287a12.447,12.447,0,0,0,10.483,2.891Z" transform="translate(-188.866 -144.044)" fill="#455a64"/>
      <path id="Path_5594" data-name="Path 5594" d="M404.873,273.46c.065,0,.065.556-.218,1.364a6.8,6.8,0,0,1-1.865,2.749,6.96,6.96,0,0,1-2.945,1.549c-.84.185-1.374.12-1.374.054a8.857,8.857,0,0,0,6.4-5.716Z" transform="translate(-192.349 -144.135)" fill="#455a64"/>
      <path id="Path_5595" data-name="Path 5595" d="M403.944,232.211l-5.563-20.388s-26.18,6.818-27.849,4.7c-9.5-11.748-14.3-27.893-15.8-33.685.207-.829.491-1.8.873-2.934a9.043,9.043,0,0,1,1.462-2.683,13.744,13.744,0,0,1,2.64-2.727,1.178,1.178,0,0,0-.349-2.182c-1.091-.076-3.84,1.582-5.9,4.734s-2.683-2.738-2.945-4.876-1.407-8.727-2.127-9.2c-1.091-.644-1.953.371-1.636,2.509s.807,8.618-.327,8.727S344.09,163.3,344.09,163.3s.12-2.378-1.2-2.323c-2.389.1-.24,11.639,0,12.741.164.753-1.091.894-1.2.065s-.96-10.908-3.382-10.908c-1.865.065,1.669,9.512.676,11.7s-1.953-7.439-3.731-7.309c-.655,0-1.145.175.207,5.629a113.457,113.457,0,0,0,4.036,11.454h-.1s9.708,56.963,34.907,53.778C401.13,234.819,403.944,232.211,403.944,232.211Z" transform="translate(-198.15 -154.352)" fill="#ffbe9d"/>
      <path id="Path_5596" data-name="Path 5596" d="M377.271,288.609,217.388,276.97a8.225,8.225,0,0,1-7.636-8.8l7.156-98.229a8.225,8.225,0,0,1,8.8-7.636l159.938,11.672a8.236,8.236,0,0,1,7.636,8.8l-7.156,98.229a8.214,8.214,0,0,1-8.858,7.6Z" transform="translate(-209.493 -154.234)" fill="#8dc63f"/>
      <path id="Path_5597" data-name="Path 5597" d="M377.291,288.626a13.33,13.33,0,0,0,1.462,0,8.072,8.072,0,0,0,3.949-1.549,8.16,8.16,0,0,0,3.273-5.88c.2-2.771.425-5.967.676-9.556l4.363-60.836q.687-9.632,1.451-20.169c.131-1.745.251-3.523.382-5.3s.436-3.611-.131-5.312a7.821,7.821,0,0,0-3.054-4.287,8.171,8.171,0,0,0-2.443-1.178,14.181,14.181,0,0,0-2.749-.36l-48.226-3.48-110.49-8.083a7.963,7.963,0,0,0-6.381,2.5,7.843,7.843,0,0,0-1.767,3.022,14.387,14.387,0,0,0-.48,3.534q-.545,7.265-1.091,14.421-1.091,14.323-2.051,28.187c-1.353,18.479-2.662,36.314-3.905,53.287a8.127,8.127,0,0,0,1.44,5.847,7.941,7.941,0,0,0,5,3.185c4.069.4,8.192.622,12.206.949l23.4,1.713,42.019,3.1,60.825,4.516,16.526,1.265,4.363.371,1.462.131s-.491,0-1.462-.076l-4.363-.284-16.537-1.145L294.1,282.79,252.118,279.8l-23.409-1.691c-4.025-.316-8.072-.524-12.261-.938a8.443,8.443,0,0,1-5.323-3.382,8.727,8.727,0,0,1-1.538-6.185c1.233-16.984,2.531-34.808,3.872-53.3q1-13.864,2.04-28.187.524-7.167,1.091-14.421a15.272,15.272,0,0,1,.5-3.665,8.509,8.509,0,0,1,8.727-5.912l110.49,8.072,48.215,3.534a14.889,14.889,0,0,1,2.836.382,8.584,8.584,0,0,1,2.585,1.244,8.421,8.421,0,0,1,3.272,4.538,8.246,8.246,0,0,1,.316,2.771c0,.916-.12,1.8-.185,2.705-.131,1.778-.262,3.556-.393,5.3q-.764,10.516-1.484,20.159c-1.909,25.678-3.458,46.459-4.527,60.836q-.4,5.378-.72,9.545a8.246,8.246,0,0,1-3.4,5.956,8.007,8.007,0,0,1-4,1.516,6.777,6.777,0,0,1-1.091,0Z" transform="translate(-209.512 -154.25)" fill="#263238"/>
      <path id="Path_5598" data-name="Path 5598" d="M354.938,197.353a12.2,12.2,0,1,1-11.279-13.09,12.2,12.2,0,0,1,11.279,13.09Z" transform="translate(-198.515 -152.24)" fill="#fafafa"/>
      <path id="Path_5599" data-name="Path 5599" d="M356.288,210.218h-.927a12.6,12.6,0,1,1,.927,0Zm0-24.4a11.541,11.541,0,1,0,.851,0Z" transform="translate(-197.367 -152.168)" fill="#fafafa"/>
      <path id="Path_5600" data-name="Path 5600" d="M226.611,230.017l-.709,9.818-1-.076.644-8.89-2.3-.164.065-.894Z" transform="translate(-208.265 -148.1)" fill="#fafafa"/>
      <path id="Path_5601" data-name="Path 5601" d="M235.578,239.623l-.076.894-6.861-.5v-.709L233,235.619c1.178-1.014,1.44-1.647,1.484-2.323.087-1.091-.665-1.887-2.182-2a3.273,3.273,0,0,0-2.749.895l-.665-.665a4.363,4.363,0,0,1,3.567-1.145c1.985.142,3.174,1.244,3.054,2.88a4.08,4.08,0,0,1-1.833,2.945l-3.556,3.022Z" transform="translate(-207.775 -148.052)" fill="#fafafa"/>
      <path id="Path_5602" data-name="Path 5602" d="M245.227,238.62l-1.953-.142-.2,2.574-1-.076.185-2.574-5.52-.393v-.731l5.661-6.109,1.091.076-5.454,5.956,4.254.316.164-2.269.982.065-.164,2.269,1.953.142Z" transform="translate(-207.039 -147.977)" fill="#fafafa"/>
      <path id="Path_5603" data-name="Path 5603" d="M258.977,239.62l-1.953-.142-.2,2.574-1-.076.185-2.563-5.52-.4v-.731l5.661-6.109,1.091.087-5.454,5.945,4.254.316.164-2.269.982.076-.175,2.258,1.963.142Z" transform="translate(-205.79 -147.886)" fill="#fafafa"/>
      <path id="Path_5604" data-name="Path 5604" d="M266.728,239.9c-.12,1.669-1.374,2.88-3.763,2.705a5.007,5.007,0,0,1-3.414-1.516l.545-.753a4.276,4.276,0,0,0,2.923,1.353c1.658.12,2.6-.633,2.683-1.822s-.633-2.094-3.12-2.28l-2.083-.153.862-4.865,5.356.393-.065.894-4.472-.327-.567,3.087,1.265.1C265.822,236.922,266.859,238.166,266.728,239.9Z" transform="translate(-204.967 -147.849)" fill="#fafafa"/>
      <path id="Path_5605" data-name="Path 5605" d="M275.6,240.5a3.054,3.054,0,0,1-3.556,2.76c-2.607-.185-3.883-2.094-3.654-5.181.24-3.327,2.182-4.931,4.843-4.734a4.505,4.505,0,0,1,2.28.7l-.469.785a3.447,3.447,0,0,0-1.865-.6c-2.116-.153-3.567,1.091-3.763,3.752v.807a3.12,3.12,0,0,1,3.109-1.462A2.967,2.967,0,0,1,275.6,240.5Zm-.993,0c.1-1.287-.8-2.182-2.3-2.291a2.269,2.269,0,0,0-2.673,1.953c-.087,1.091.742,2.182,2.433,2.291a2.182,2.182,0,0,0,2.542-2Z" transform="translate(-204.167 -147.781)" fill="#fafafa"/>
      <path id="Path_5606" data-name="Path 5606" d="M287.869,241.525c-.12,1.636-1.4,2.8-3.763,2.629a5.051,5.051,0,0,1-3.425-1.516l.545-.753a4.363,4.363,0,0,0,2.945,1.353c1.625.109,2.574-.578,2.662-1.789s-.687-2.007-2.5-2.182l-.7-.055.055-.742,2.956-3.2-5.007-.36.065-.895,6.294.458-.055.709-3.022,3.273C287.018,238.776,287.978,239.954,287.869,241.525Z" transform="translate(-203.048 -147.718)" fill="#fafafa"/>
      <path id="Path_5607" data-name="Path 5607" d="M296.873,242.045a3.054,3.054,0,0,1-3.567,2.782c-2.6-.185-3.883-2.094-3.654-5.181.24-3.272,2.182-4.931,4.843-4.734a4.5,4.5,0,0,1,2.28.7l-.469.785a3.359,3.359,0,0,0-1.865-.6c-2.116-.153-3.567,1.091-3.763,3.752v.807a3.12,3.12,0,0,1,3.109-1.462,2.967,2.967,0,0,1,3.087,3.152Zm-.993,0c.1-1.287-.8-2.182-2.3-2.291a2.269,2.269,0,0,0-2.673,1.953c-.087,1.091.742,2.182,2.433,2.291a2.182,2.182,0,0,0,2.542-2Z" transform="translate(-202.235 -147.638)" fill="#fafafa"/>
      <path id="Path_5608" data-name="Path 5608" d="M305.615,235.807l-.055.709-4.756,8.727-1.091-.076,4.68-8.6-5.029-.371-.142,1.833-.993-.065.207-2.727Z" transform="translate(-201.454 -147.607)" fill="#fafafa"/>
      <path id="Path_5609" data-name="Path 5609" d="M318.425,236.737l-.055.72-4.756,8.727-1.091-.076,4.669-8.6-5.029-.371-.131,1.833-.993-.076.2-2.727Z" transform="translate(-200.29 -147.522)" fill="#fafafa"/>
      <path id="Path_5610" data-name="Path 5610" d="M326.791,244.43c-.12,1.734-1.669,2.694-4,2.531s-3.7-1.353-3.567-3.087a2.454,2.454,0,0,1,2.062-2.269,2.182,2.182,0,0,1-1.385-2.258c.12-1.593,1.549-2.487,3.622-2.345s3.382,1.254,3.272,2.847a2.182,2.182,0,0,1-1.723,2.029,2.476,2.476,0,0,1,1.723,2.553Zm-1.025-.087c.087-1.211-.895-2.04-2.629-2.182s-2.8.545-2.891,1.756.873,2.04,2.607,2.182S325.678,245.553,325.766,244.343Zm-2.574-2.978c1.527.109,2.487-.513,2.563-1.571s-.84-1.854-2.3-1.953-2.465.491-2.542,1.582S321.675,241.266,323.191,241.365Z" transform="translate(-199.548 -147.448)" fill="#fafafa"/>
      <path id="Path_5611" data-name="Path 5611" d="M335.6,242.815c-.24,3.327-2.182,4.931-4.843,4.734a4.581,4.581,0,0,1-2.28-.7l.458-.785a3.491,3.491,0,0,0,1.876.6c2.105.153,3.556-1.091,3.752-3.763v-.8a3.142,3.142,0,0,1-3.12,1.462,2.967,2.967,0,0,1-3.087-3.174,3.065,3.065,0,0,1,3.567-2.76C334.578,237.819,335.855,239.728,335.6,242.815Zm-1.244-2.051c.076-1.091-.742-2.182-2.433-2.28a2.182,2.182,0,0,0-2.542,1.953c-.1,1.287.8,2.182,2.3,2.291a2.269,2.269,0,0,0,2.705-1.964Z" transform="translate(-198.718 -147.393)" fill="#fafafa"/>
      <path id="Path_5612" data-name="Path 5612" d="M344.732,238.647l-.72,9.818-1-.065.644-8.89-2.3-.175.065-.895Z" transform="translate(-197.537 -147.316)" fill="#fafafa"/>
      <path id="Path_5613" data-name="Path 5613" d="M353.657,248.225l-.065.895-6.861-.491v-.72l4.363-3.687c1.178-1,1.44-1.647,1.494-2.323.076-1.091-.665-1.887-2.182-2a3.36,3.36,0,0,0-2.749.894l-.633-.7a4.363,4.363,0,0,1,3.567-1.145c1.985.142,3.174,1.244,3.054,2.88-.065.938-.425,1.756-1.833,2.945l-3.556,3.033Z" transform="translate(-197.049 -147.273)" fill="#fafafa"/>
      <path id="Path_5614" data-name="Path 5614" d="M361.849,246.91c-.12,1.625-1.4,2.8-3.752,2.629a5.061,5.061,0,0,1-3.436-1.516l.545-.764a4.243,4.243,0,0,0,2.956,1.353c1.614.12,2.563-.567,2.662-1.778s-.687-2.007-2.509-2.182h-.7l.055-.742,2.967-3.2-5.007-.36.065-.894,6.283.458v.709l-3.022,3.272C361,244.161,361.969,245.34,361.849,246.91Z" transform="translate(-196.328 -147.224)" fill="#fafafa"/>
      <rect id="Rectangle_1433" data-name="Rectangle 1433" width="4.265" height="78.594" transform="matrix(0.073, -0.997, 0.997, 0.073, 89.277, 108.529)" fill="#fafafa"/>
      <rect id="Rectangle_1434" data-name="Rectangle 1434" width="4.265" height="40.306" transform="matrix(0.073, -0.997, 0.997, 0.073, 126.854, 119.803)" fill="#fafafa"/>
      <rect id="Rectangle_1435" data-name="Rectangle 1435" width="32.976" height="24.631" rx="4.96" transform="translate(14.738 48.555) rotate(4.17)" fill="#455a64"/>
      <path id="Path_5615" data-name="Path 5615" d="M221.85,216.543l.12-1.571L238.9,216.2a3.556,3.556,0,1,0,.513-7.09l-16.93-1.233.109-1.582,16.941,1.233a5.138,5.138,0,0,1-.742,10.243Z" transform="translate(-208.392 -150.236)" fill="#8dc63f"/>
      <rect id="Rectangle_1436" data-name="Rectangle 1436" width="1.582" height="11.65" transform="translate(35.037 63.52) rotate(-85.78)" fill="#8dc63f"/>
      <rect id="Rectangle_1437" data-name="Rectangle 1437" width="84.812" height="7.276" transform="translate(20.102 28.601) rotate(4.17)" fill="#fafafa"/>
      <path id="Path_5616" data-name="Path 5616" d="M408.732,158.32a9.73,9.73,0,0,0-2.76,7.57,17.387,17.387,0,0,0,2.629,7.8" transform="translate(-191.67 -154.594)" fill="#263238"/>
      <path id="Path_5617" data-name="Path 5617" d="M432.4,201.121l1.484-34.176L420.173,156.56l-12.457,6.087s-.415,15.643,0,22.428,7.254,7.5,7.254,7.5-.2,3.742-.415,7.636a8.945,8.945,0,0,0,8.3,9.392h0a8.934,8.934,0,0,0,9.545-8.487Z" transform="translate(-191.526 -154.754)" fill="#ffbe9d"/>
      <path id="Path_5618" data-name="Path 5618" d="M409.74,172.673a.873.873,0,1,0,.873-.873.873.873,0,0,0-.873.873Z" transform="translate(-191.325 -153.369)" fill="#263238"/>
      <path id="Path_5619" data-name="Path 5619" d="M408.181,171.818c.109.109.753-.436,1.68-.491s1.636.4,1.734.284-.065-.262-.371-.48a2.247,2.247,0,0,0-1.4-.36,2.182,2.182,0,0,0-1.331.535C408.214,171.545,408.127,171.763,408.181,171.818Z" transform="translate(-191.468 -153.463)" fill="#263238"/>
      <path id="Path_5620" data-name="Path 5620" d="M419,172.674a.862.862,0,0,0,.862.862.873.873,0,1,0-.862-.862Z" transform="translate(-190.484 -153.37)" fill="#263238"/>
      <path id="Path_5621" data-name="Path 5621" d="M417.681,171.818c.109.109.753-.436,1.68-.491s1.636.4,1.734.284-.065-.262-.371-.48a2.324,2.324,0,0,0-2.738.175C417.714,171.545,417.627,171.763,417.681,171.818Z" transform="translate(-190.605 -153.463)" fill="#263238"/>
      <path id="Path_5622" data-name="Path 5622" d="M417.786,179.78a17.453,17.453,0,0,1-4.516,1.549,2.64,2.64,0,0,0,3.1.884,1.92,1.92,0,0,0,1.418-2.433Z" transform="translate(-191.005 -152.644)" fill="#fafafa"/>
      <path id="Path_5623" data-name="Path 5623" d="M414.35,189.833a16.908,16.908,0,0,0,8.988-3.033s-2.04,4.985-8.836,4.7Z" transform="translate(-190.906 -152.007)" fill="#eb996e"/>
      <path id="Path_5624" data-name="Path 5624" d="M414.778,179.679a6.547,6.547,0,0,0-1.527-.185c-.24,0-.469,0-.524-.218a1.331,1.331,0,0,1,.142-.764c.2-.611.415-1.254.633-1.931.447-1.385.829-2.629,1.091-3.545a5.6,5.6,0,0,0,.338-1.505,6.544,6.544,0,0,0-.589,1.418c-.327.895-.753,2.182-1.2,3.512-.207.687-.415,1.331-.611,1.953a1.527,1.527,0,0,0-.087.971.545.545,0,0,0,.393.338,1.363,1.363,0,0,0,.4,0A5.575,5.575,0,0,0,414.778,179.679Z" transform="translate(-191.083 -153.394)" fill="#263238"/>
      <path id="Path_5625" data-name="Path 5625" d="M430.773,177.674a8.225,8.225,0,0,1,.371-3.349,3.12,3.12,0,0,1,2.433-2.105,2.673,2.673,0,0,1,2.76,2.182,3.272,3.272,0,0,1-1.68,3.273,4.363,4.363,0,0,1-3.774.1" transform="translate(-189.418 -153.331)" fill="#ffbe9d"/>
      <path id="Path_5626" data-name="Path 5626" d="M432.592,176.564c0-.076.36.1.84-.055a1.505,1.505,0,0,0,1.014-1.44.872.872,0,0,0-.982-1.124c-.5,0-.862.175-.895.1s.229-.316.84-.491a1.331,1.331,0,0,1,1.091.218,1.549,1.549,0,0,1,.469,1.342,2.181,2.181,0,0,1-.5,1.265,1.614,1.614,0,0,1-1,.524C432.843,176.967,432.527,176.607,432.592,176.564Z" transform="translate(-189.252 -153.213)" fill="#eb996e"/>
      <path id="Path_5627" data-name="Path 5627" d="M407.88,159.3c-3.011,3.742,1,6.1,3,7.636,1.538,1.2,6.076,4.363,10.057,2.869-1.407-1.887-3.011-2.716-3.632-4.516,1.625,2.291,3.338,4.025,6.13,4.309-.556-1.625-1.342-4.931-.742-5.061.742,6.458,6.8,11.89,10.963,9.817a13.821,13.821,0,0,0-1.287-12.457,15.708,15.708,0,0,0-10.657-6.8,16.875,16.875,0,0,0-13.832,4.145" transform="translate(-191.592 -154.904)" fill="#263238"/>
      <path id="Path_5628" data-name="Path 5628" d="M434.314,177.911c0-.065.513.425.305,1.353a1.822,1.822,0,0,1-1,1.233,2.182,2.182,0,0,1-1.963-.076,2.291,2.291,0,0,1-1.091-1.647,2.182,2.182,0,0,1,.393-1.538c.545-.742,1.156-.818,1.156-.764a4,4,0,0,0-.818.982,1.865,1.865,0,0,0-.207,1.244,1.789,1.789,0,0,0,.818,1.233,1.734,1.734,0,0,0,1.462.1,1.505,1.505,0,0,0,.84-.884,3.207,3.207,0,0,0,.109-1.233Z" transform="translate(-189.435 -152.946)" fill="#8dc63f"/>
      <path id="Path_5629" data-name="Path 5629" d="M391.508,232.208l10.232-2.127,3.109,17.213a274.124,274.124,0,0,0-6.545,26.813l24,14.977,3.7-7.025,5.923,5.629,25.536-13.581c-3.153-16.362-11.116-20.639-11.116-23.3,0-7.636-1.091-.218,5.312-25.515s-16.962-27.882-16.962-27.882.524,3.534-18.064.164c-6.807-1.233-33.979,13.035-33.979,13.035Z" transform="translate(-193.786 -151.043)" fill="#8dc63f"/>
      <path id="Path_5630" data-name="Path 5630" d="M413.77,197.577s-.218,18.719,4.243,17.453,13.45-9.261,13.821-17.661Z" transform="translate(-190.959 -151.047)" fill="#ffbe9d"/>
      <path id="Path_5631" data-name="Path 5631" d="M414.811,228.727a40.364,40.364,0,0,1,.382-6.632,38.041,38.041,0,0,1,.96-6.545,39.823,39.823,0,0,1-.393,6.643,38.178,38.178,0,0,1-.949,6.534Z" transform="translate(-190.866 -149.395)" fill="#263238"/>
      <path id="Path_5632" data-name="Path 5632" d="M417.462,227.127a25.222,25.222,0,0,1-.425-5.312,25.7,25.7,0,0,1,.142-5.334,25.5,25.5,0,0,1,.425,5.323,24,24,0,0,1-.142,5.323Z" transform="translate(-190.669 -149.311)" fill="#263238"/>
      <path id="Path_5633" data-name="Path 5633" d="M413.763,229.451c-.153,0-.262-.48,0-1.014s.687-.775.785-.655-.076.469-.262.884S413.927,229.462,413.763,229.451Z" transform="translate(-190.974 -148.287)" fill="#263238"/>
      <path id="Path_5634" data-name="Path 5634" d="M414.324,229.436c-.153,0-.207-.393-.131-.818s.284-.731.436-.7.207.393.131.818S414.476,229.469,414.324,229.436Z" transform="translate(-190.924 -148.272)" fill="#263238"/>
      <path id="Path_5635" data-name="Path 5635" d="M414.871,229.447c-.153,0-.316-.316-.36-.742s.055-.774.218-.785.316.316.349.731S415.045,229.425,414.871,229.447Z" transform="translate(-190.893 -148.272)" fill="#263238"/>
      <path id="Path_5636" data-name="Path 5636" d="M415.8,229.779c-.164,0-.284-.545-.567-1.091s-.611-1.025-.5-1.156.687.2,1.025.916S415.954,229.79,415.8,229.779Z" transform="translate(-190.874 -148.31)" fill="#263238"/>
      <path id="Path_5637" data-name="Path 5637" d="M417.556,227.962c-.142.055-.436-.415-.436-1.091s.295-1.091.436-1.091.131.513.131,1.091S417.709,227.907,417.556,227.962Z" transform="translate(-190.655 -148.466)" fill="#263238"/>
      <path id="Path_5638" data-name="Path 5638" d="M418.091,227.639c-.153,0-.316-.349-.36-.807s0-.851.207-.862.316.349.36.807S418.244,227.628,418.091,227.639Z" transform="translate(-190.601 -148.449)" fill="#263238"/>
      <path id="Path_5639" data-name="Path 5639" d="M419,227.475c-.12.1-.458-.131-.753-.513s-.436-.764-.305-.851.458.131.753.5S419.1,227.377,419,227.475Z" transform="translate(-190.584 -148.438)" fill="#263238"/>
      <path id="Path_5640" data-name="Path 5640" d="M419.3,227.188c-.142.065-.415-.218-.764-.524s-.655-.535-.6-.687.545-.131.982.262S419.446,227.1,419.3,227.188Z" transform="translate(-190.581 -148.456)" fill="#263238"/>
      <path id="Path_5641" data-name="Path 5641" d="M412.592,199.458c0-.065.327-.229.709.12a.916.916,0,1,1-1.516,1,.96.96,0,0,1,.12-.873c.316-.415.7-.316.676-.251a1.544,1.544,0,0,0-.327.458c-.109.295,0,.687.447.633s.48-.436.305-.709S412.6,199.545,412.592,199.458Z" transform="translate(-191.144 -150.866)" fill="#263238"/>
      <path id="Path_5642" data-name="Path 5642" d="M413.011,202.749c-.1.12-.4,0-.7-.153s-.458-.48-.371-.611.4-.065.7.153S413.1,202.618,413.011,202.749Z" transform="translate(-191.127 -150.634)" fill="#263238"/>
      <path id="Path_5643" data-name="Path 5643" d="M413.28,203.363c.131.1,0,.48-.436.644s-.8,0-.764-.164.284-.251.556-.36S413.16,203.265,413.28,203.363Z" transform="translate(-191.113 -150.506)" fill="#263238"/>
      <path id="Path_5644" data-name="Path 5644" d="M413.269,205.051c.12.1,0,.382-.164.633s-.48.382-.6.273-.055-.382.164-.633S413.138,205,413.269,205.051Z" transform="translate(-191.079 -150.351)" fill="#263238"/>
      <path id="Path_5645" data-name="Path 5645" d="M412.856,206.886c0-.065.436-.218.949.251a1.091,1.091,0,0,1,.295,1.091,1.244,1.244,0,0,1-1.156.895,1.211,1.211,0,0,1-1.091-.938.993.993,0,0,1,.491-1.091c.633-.349,1.091,0,.982.055a1.661,1.661,0,0,0-.753.273.578.578,0,0,0-.207.633.72.72,0,0,0,.633.491.753.753,0,0,0,.545-1.211C413.216,207.017,412.845,207.017,412.856,206.886Z" transform="translate(-191.136 -150.189)" fill="#263238"/>
      <path id="Path_5646" data-name="Path 5646" d="M413.986,209.8c.076.142-.164.4-.425.7s-.48.567-.633.513-.131-.491.207-.884S413.92,209.654,413.986,209.8Z" transform="translate(-191.044 -149.924)" fill="#263238"/>
      <path id="Path_5647" data-name="Path 5647" d="M414.54,211.6c.142.055.12.491-.218.884s-.775.469-.851.338.164-.415.425-.709S414.387,211.546,414.54,211.6Z" transform="translate(-190.988 -149.755)" fill="#263238"/>
      <path id="Path_5648" data-name="Path 5648" d="M414.78,214.67c-.153,0-.316-.349-.349-.818s0-.84.207-.862.316.349.349.818S414.944,214.659,414.78,214.67Z" transform="translate(-190.9 -149.628)" fill="#263238"/>
      <path id="Path_5649" data-name="Path 5649" d="M419.7,215.054c-.076.131-.382.109-.676,0s-.469-.415-.393-.556.382-.109.676.055S419.777,214.857,419.7,215.054Z" transform="translate(-190.519 -149.499)" fill="#263238"/>
      <path id="Path_5650" data-name="Path 5650" d="M421.4,213c.109.109-.076.469-.4.807s-.7.524-.807.415.065-.469.4-.807S421.284,212.9,421.4,213Z" transform="translate(-190.379 -149.629)" fill="#263238"/>
      <path id="Path_5651" data-name="Path 5651" d="M422.729,211.9c0-.087.284-.131.7-.12h.055l.076.065a.818.818,0,0,1,.229.753.8.8,0,0,1-.709.654.862.862,0,0,1-.884-.535.72.72,0,0,1,.175-.807c.36-.327.7-.164.654-.1s-.218.109-.338.349a.36.36,0,0,0,0,.349.4.4,0,0,0,.36.175c.229,0,.338-.4.218-.545l.131.065C422.969,212.092,422.718,212.026,422.729,211.9Z" transform="translate(-190.199 -149.744)" fill="#263238"/>
      <path id="Path_5652" data-name="Path 5652" d="M424.124,211.737c-.153,0-.218-.4-.131-.818s.284-.731.436-.709.207.4.12.818S424.277,211.77,424.124,211.737Z" transform="translate(-190.034 -149.881)" fill="#263238"/>
      <path id="Path_5653" data-name="Path 5653" d="M426.414,210.125c-.055.142-.415.12-.8,0s-.633-.425-.567-.567.425-.12.8,0S426.48,209.984,426.414,210.125Z" transform="translate(-189.935 -149.949)" fill="#263238"/>
      <path id="Path_5654" data-name="Path 5654" d="M426.567,208.205c.065,0,.055.2.185.338s.295.175.415,0,0-.305-.175-.371a.765.765,0,0,0-.393,0c-.065,0,0-.305.371-.382a.676.676,0,0,1,.633.218.709.709,0,0,1,.055.851.72.72,0,0,1-.785.349.676.676,0,0,1-.48-.458C426.283,208.336,426.512,208.151,426.567,208.205Z" transform="translate(-189.815 -150.101)" fill="#263238"/>
      <path id="Path_5655" data-name="Path 5655" d="M428.118,206.666a.548.548,0,0,1-.316-.905c.109-.055.338.109.425.36S428.26,206.623,428.118,206.666Z" transform="translate(-189.698 -150.286)" fill="#263238"/>
      <path id="Path_5656" data-name="Path 5656" d="M429.6,205.248c-.076.131-.382.109-.676-.065s-.469-.415-.382-.545.371-.109.665.055S429.676,205.106,429.6,205.248Z" transform="translate(-189.619 -150.394)" fill="#263238"/>
      <path id="Path_5657" data-name="Path 5657" d="M430.605,203.1c.065.153-.2.4-.567.567s-.742.185-.807,0,.2-.393.567-.556A.83.83,0,0,1,430.605,203.1Z" transform="translate(-189.556 -150.535)" fill="#263238"/>
      <path id="Path_5658" data-name="Path 5658" d="M430.99,200.592c0-.055.207-.262.578-.065a.742.742,0,0,1,.371.6.764.764,0,0,1-.513.742.753.753,0,0,1-.873-.207.72.72,0,0,1-.12-.7c.142-.382.447-.4.458-.327s-.087.2-.065.4.153.393.393.305.24-.305.1-.491S431.055,200.669,430.99,200.592Z" transform="translate(-189.449 -150.767)" fill="#263238"/>
      <path id="Path_5659" data-name="Path 5659" d="M432.424,198.4c0,.153-.24.349-.622.436s-.709,0-.742-.12.24-.349.622-.436S432.391,198.251,432.424,198.4Z" transform="translate(-189.389 -150.968)" fill="#263238"/>
      <path id="Path_5660" data-name="Path 5660" d="M430.91,197.7l.6-.458" transform="translate(-189.402 -151.059)" fill="#263238"/>
      <path id="Path_5661" data-name="Path 5661" d="M385.5,212.006c-.142,0-.2-.316-.1-.6s.284-.469.425-.425.2.316.109.6S385.655,212.093,385.5,212.006Z" transform="translate(-193.54 -149.811)" fill="#263238"/>
      <path id="Path_5662" data-name="Path 5662" d="M386.736,213.384c0-.065.2-.273.589-.1a.764.764,0,0,1,0,1.4.785.785,0,0,1-.916-.109.764.764,0,0,1-.218-.687c.076-.425.393-.491.414-.425s-.065.218,0,.436.218.415.491.284.218-.371,0-.556S386.769,213.46,386.736,213.384Z" transform="translate(-193.465 -149.607)" fill="#263238"/>
      <path id="Path_5663" data-name="Path 5663" d="M388.289,216.692c-.065.142-.4.142-.764,0s-.589-.382-.534-.524.4-.142.764,0S388.343,216.551,388.289,216.692Z" transform="translate(-193.392 -149.349)" fill="#263238"/>
      <path id="Path_5664" data-name="Path 5664" d="M388.636,218.68c-.055.153-.316.2-.6.109s-.469-.284-.425-.436.316-.2.6-.1S388.68,218.538,388.636,218.68Z" transform="translate(-193.336 -149.154)" fill="#263238"/>
      <path id="Path_5665" data-name="Path 5665" d="M389.221,220c.131.076.1.393-.087.7s-.436.5-.567.415-.1-.393.076-.7A.705.705,0,0,1,389.221,220Z" transform="translate(-193.256 -148.991)" fill="#263238"/>
      <path id="Path_5666" data-name="Path 5666" d="M389.561,221.414c-.076,0,.185-.4.742-.251a1.015,1.015,0,0,1,.687.655.894.894,0,0,1-.567,1.091,1.091,1.091,0,0,1-1.167-.229.774.774,0,0,1,0-1.014.48.48,0,0,1,.687,0c.12.142.065.251,0,.251a.19.19,0,0,1-.164-.065.162.162,0,0,0-.24.087.36.36,0,0,0,.1.393.6.6,0,0,0,.578.065c.447-.164.262-.665-.065-.829S389.616,221.479,389.561,221.414Z" transform="translate(-193.203 -148.889)" fill="#263238"/>
      <path id="Path_5667" data-name="Path 5667" d="M391.068,224.006c.109.109,0,.36-.2.556s-.469.24-.578.131,0-.371.2-.556S390.926,223.864,391.068,224.006Z" transform="translate(-193.095 -148.634)" fill="#263238"/>
      <path id="Path_5668" data-name="Path 5668" d="M391.61,225.724c.12.109,0,.382-.185.611s-.491.338-.611.229,0-.382.2-.611S391.5,225.614,391.61,225.724Z" transform="translate(-193.049 -148.475)" fill="#263238"/>
      <path id="Path_5669" data-name="Path 5669" d="M401.821,270.368c-.131.076-.425-.175-.633-.567s-.284-.764-.153-.84.425.175.644.567S401.963,270.292,401.821,270.368Z" transform="translate(-192.122 -144.545)" fill="#263238"/>
      <path id="Path_5670" data-name="Path 5670" d="M402.68,270.368c-.142.065-.4-.2-.578-.589s-.2-.753,0-.818.4.2.578.589S402.822,270.3,402.68,270.368Z" transform="translate(-192.032 -144.545)" fill="#263238"/>
      <path id="Path_5671" data-name="Path 5671" d="M403.885,270.921v.349c0,.164.164.229.316.142s.142-.207,0-.349-.251-.12-.294-.2.131-.273.48-.164a.644.644,0,0,1,.1,1.189.687.687,0,0,1-.807,0,.654.654,0,0,1-.207-.589C403.591,270.9,403.863,270.844,403.885,270.921Z" transform="translate(-191.895 -144.389)" fill="#263238"/>
      <path id="Path_5672" data-name="Path 5672" d="M407.036,271.555c.1.12-.109.436-.458.7s-.7.371-.8.24.109-.436.458-.7S406.949,271.424,407.036,271.555Z" transform="translate(-191.687 -144.313)" fill="#263238"/>
      <path id="Path_5673" data-name="Path 5673" d="M408.019,272.558c.065.142-.087.36-.338.491s-.535.12-.6,0,.076-.36.338-.491S407.954,272.427,408.019,272.558Z" transform="translate(-191.568 -144.226)" fill="#263238"/>
      <path id="Path_5674" data-name="Path 5674" d="M409.392,274.232c-.164,0-.316-.207-.371-.513s.055-.567.207-.589.316.207.36.513S409.545,274.21,409.392,274.232Z" transform="translate(-191.392 -144.165)" fill="#263238"/>
      <path id="Path_5675" data-name="Path 5675" d="M411.684,274.13a.869.869,0,0,0,0,.425c.065.218.207.371.447.229s.175-.349,0-.5-.349-.109-.393-.175.131-.305.545-.2a.731.731,0,0,1,.513.5.8.8,0,0,1-1.276.8.72.72,0,0,1-.229-.676C411.346,274.109,411.662,274.01,411.684,274.13Z" transform="translate(-191.185 -144.097)" fill="#263238"/>
      <path id="Path_5676" data-name="Path 5676" d="M414.463,275.164c.109.12-.055.425-.36.687s-.633.382-.731.262.055-.425.36-.687S414.365,275.044,414.463,275.164Z" transform="translate(-190.998 -143.985)" fill="#263238"/>
      <path id="Path_5677" data-name="Path 5677" d="M416.275,276.235c.109.109-.065.447-.469.633s-.785.087-.8-.076.251-.305.556-.447S416.155,276.115,416.275,276.235Z" transform="translate(-190.847 -143.888)" fill="#263238"/>
      <path id="Path_5678" data-name="Path 5678" d="M417.569,278.259c-.153.055-.349-.12-.436-.382s0-.513.109-.556.349.12.436.382S417.711,278.215,417.569,278.259Z" transform="translate(-190.657 -143.785)" fill="#263238"/>
      <path id="Path_5679" data-name="Path 5679" d="M419.095,277.286c-.065,0,.065-.327.48-.305a.687.687,0,0,1,.578.415.7.7,0,0,1-.305.862.709.709,0,0,1-.916-.12.676.676,0,0,1-.054-.72c.207-.371.556-.295.524-.218a.758.758,0,0,0-.142.36c-.011.2.087.327.295.207s.131-.273-.065-.393S419.16,277.34,419.095,277.286Z" transform="translate(-190.502 -143.816)" fill="#263238"/>
      <path id="Path_5680" data-name="Path 5680" d="M420.563,275.928c-.131.087-.36,0-.513-.229s-.164-.469,0-.556.36,0,.513.229S420.693,275.841,420.563,275.928Z" transform="translate(-190.399 -143.985)" fill="#263238"/>
      <path id="Path_5681" data-name="Path 5681" d="M421.277,274.767c-.109.109-.338.065-.513-.109s-.229-.4-.12-.513.349-.065.524.109S421.386,274.658,421.277,274.767Z" transform="translate(-190.34 -144.078)" fill="#263238"/>
      <path id="Path_5682" data-name="Path 5682" d="M422.039,272.527c-.076,0,.087-.294.425-.175a.535.535,0,0,1,.36.48.644.644,0,0,1-1.178.305.589.589,0,0,1,0-.556c.131-.284.371-.295.393-.229a1.592,1.592,0,0,1,0,.327.251.251,0,0,0,.076.164h.12a.449.449,0,0,0,.1,0s0-.076,0-.12S422.126,272.582,422.039,272.527Z" transform="translate(-190.25 -144.239)" fill="#263238"/>
      <path id="Path_5683" data-name="Path 5683" d="M423.618,274.2a.349.349,0,0,1-.2-.425.316.316,0,0,1,.36-.284.327.327,0,0,1,.2.415A.338.338,0,0,1,423.618,274.2Z" transform="translate(-190.084 -144.133)" fill="#263238"/>
      <path id="Path_5684" data-name="Path 5684" d="M424.342,275.072a.491.491,0,0,1-.131-.469.416.416,0,0,1,.284-.393c.153-.033.338.185.284.491S424.462,275.17,424.342,275.072Z" transform="translate(-190.012 -144.067)" fill="#263238"/>
      <path id="Path_5685" data-name="Path 5685" d="M425.413,276.2a.469.469,0,0,1-.48.131.415.415,0,0,1-.393-.294c-.033-.153.2-.327.5-.273S425.489,276.023,425.413,276.2Z" transform="translate(-189.981 -143.927)" fill="#263238"/>
      <path id="Path_5686" data-name="Path 5686" d="M426.184,277.159c-.055-.055.087-.273.425-.218a.644.644,0,0,1,.469.393.654.654,0,0,1-1.091.644.545.545,0,0,1,0-.622c.175-.327.48-.24.447-.164a.529.529,0,0,0-.076.295c.011.142,0,.142.065.142h.109c.109,0,.076-.065.087-.1a.261.261,0,0,0-.1-.164C426.359,277.224,426.228,277.224,426.184,277.159Z" transform="translate(-189.858 -143.82)" fill="#263238"/>
      <path id="Path_5687" data-name="Path 5687" d="M427.461,279.179a.338.338,0,0,1-.24-.393.3.3,0,0,1,.316-.316.316.316,0,0,1,.251.382A.338.338,0,0,1,427.461,279.179Z" transform="translate(-189.738 -143.68)" fill="#263238"/>
      <path id="Path_5688" data-name="Path 5688" d="M429.472,278.126c0,.153-.305.229-.611.153s-.524-.251-.491-.4.316-.218.622-.153S429.5,278.028,429.472,278.126Z" transform="translate(-189.633 -143.75)" fill="#263238"/>
      <path id="Path_5689" data-name="Path 5689" d="M430.137,277.805a.358.358,0,0,1-.316-.36c-.022-.218.087-.415.251-.425s.294.153.316.371S430.3,277.795,430.137,277.805Z" transform="translate(-189.501 -143.812)" fill="#263238"/>
      <path id="Path_5690" data-name="Path 5690" d="M431.494,276.725c-.153,0-.284-.175-.284-.393s.131-.393.284-.393.284.175.284.393S431.657,276.725,431.494,276.725Z" transform="translate(-189.375 -143.91)" fill="#263238"/>
      <path id="Path_5691" data-name="Path 5691" d="M432.566,275.2c0-.055.2-.273.556-.055a.633.633,0,0,1,.294.633.665.665,0,0,1-.72.545.633.633,0,0,1-.305-1.211c.371-.185.6.065.534.12s-.2,0-.305.207a.273.273,0,0,0-.076.229.285.285,0,0,0,.175.087c.109.011.164,0,.185-.076a.8.8,0,0,0,0-.229C432.9,275.377,432.6,275.268,432.566,275.2Z" transform="translate(-189.302 -143.991)" fill="#263238"/>
      <path id="Path_5692" data-name="Path 5692" d="M435.316,274.393c-.12.12-.327.087-.535.065s-.425-.087-.491-.229.175-.4.578-.338S435.425,274.294,435.316,274.393Z" transform="translate(-189.096 -144.097)" fill="#263238"/>
      <path id="Path_5693" data-name="Path 5693" d="M436.712,273.672c-.076.142-.382.131-.709.076s-.611-.153-.633-.316.316-.327.731-.251S436.788,273.542,436.712,273.672Z" transform="translate(-188.997 -144.162)" fill="#263238"/>
      <path id="Path_5694" data-name="Path 5694" d="M437.4,273.066c-.153,0-.262-.207-.251-.425s.164-.382.327-.36.262.2.24.415A.37.37,0,0,1,437.4,273.066Z" transform="translate(-188.835 -144.243)" fill="#263238"/>
      <path id="Path_5695" data-name="Path 5695" d="M438.591,271.169c-.055,0,.109-.294.5-.218a.622.622,0,0,1,.469.524.709.709,0,0,1-.447.764.7.7,0,0,1-.829-.349.567.567,0,0,1,.153-.709c.349-.251.6,0,.545,0s-.185.1-.262.251,0,.131,0,.164a.229.229,0,0,0,.175.076.24.24,0,0,0,.12-.185.207.207,0,0,0-.087-.185C438.809,271.213,438.634,271.235,438.591,271.169Z" transform="translate(-188.738 -144.364)" fill="#263238"/>
      <path id="Path_5696" data-name="Path 5696" d="M440.289,271.166a.36.36,0,0,1-.207-.447.335.335,0,0,1,.36-.338c.153.033.24.229.2.447S440.441,271.2,440.289,271.166Z" transform="translate(-188.571 -144.415)" fill="#263238"/>
      <path id="Path_5697" data-name="Path 5697" d="M441.741,269.94a.338.338,0,0,1-.24-.393.295.295,0,1,1,.567.065A.338.338,0,0,1,441.741,269.94Z" transform="translate(-188.441 -144.521)" fill="#263238"/>
      <path id="Path_5698" data-name="Path 5698" d="M443.86,268.748c-.087.131-.36.109-.644,0s-.534-.164-.556-.327.295-.316.687-.229S443.947,268.618,443.86,268.748Z" transform="translate(-188.335 -144.616)" fill="#263238"/>
      <path id="Path_5699" data-name="Path 5699" d="M444.764,268.058c-.142.065-.36-.142-.273-.425s.371-.338.458-.207a.5.5,0,0,1,.076.371.469.469,0,0,1-.262.262Z" transform="translate(-188.17 -144.689)" fill="#263238"/>
      <path id="Path_5700" data-name="Path 5700" d="M445.941,266.909a.338.338,0,0,1-.24-.393.311.311,0,0,1,.327-.316.325.325,0,0,1,.24.382A.338.338,0,0,1,445.941,266.909Z" transform="translate(-188.059 -144.795)" fill="#263238"/>
      <path id="Path_5701" data-name="Path 5701" d="M432.1,213.742l-7.232,7.276,17.519,17.224s3.567-10.385,6.054-19.526C450.2,212.259,432.1,213.742,432.1,213.742Z" transform="translate(-189.951 -149.573)" fill="#8dc63f"/>
      <path id="Path_5702" data-name="Path 5702" d="M428.941,221.126c-.153,0-.316-.316-.36-.731s.055-.774.207-.785.316.305.36.731S429.094,221.126,428.941,221.126Z" transform="translate(-189.615 -149.027)" fill="#263238"/>
      <path id="Path_5703" data-name="Path 5703" d="M430.541,221.334c0,.153-.273.284-.611.284s-.6-.131-.6-.284.273-.284.6-.284S430.541,221.17,430.541,221.334Z" transform="translate(-189.546 -148.896)" fill="#263238"/>
      <path id="Path_5704" data-name="Path 5704" d="M430.871,223.632c-.142-.087-.131-.338-.131-.611s0-.513.131-.6.436.153.436.6S431.024,223.73,430.871,223.632Z" transform="translate(-189.418 -148.773)" fill="#263238"/>
      <path id="Path_5705" data-name="Path 5705" d="M432.215,223.77c-.065,0,.185-.349.654-.2a.84.84,0,0,1,.567.633.851.851,0,0,1-1.6.48.785.785,0,0,1,.218-.84.622.622,0,0,1,.524-.175c.142,0,.185.109.164.131a.754.754,0,0,0-.382.305c-.142.24-.065.556.316.458s.284-.447,0-.622S432.259,223.835,432.215,223.77Z" transform="translate(-189.322 -148.67)" fill="#263238"/>
      <path id="Path_5706" data-name="Path 5706" d="M433.923,226.527c-.142,0-.2-.295-.12-.545s.273-.415.425-.371.207.295.12.545S434.076,226.571,433.923,226.527Z" transform="translate(-189.143 -148.482)" fill="#263238"/>
      <path id="Path_5707" data-name="Path 5707" d="M435.45,226.16c.153,0,.207.458.12.96s-.284.894-.436.862-.207-.458-.12-.96S435.3,226.138,435.45,226.16Z" transform="translate(-189.033 -148.432)" fill="#263238"/>
      <path id="Path_5708" data-name="Path 5708" d="M437.114,228.018c0,.153-.273.316-.655.36s-.687-.055-.709-.207.273-.316.655-.36S437.114,227.833,437.114,228.018Z" transform="translate(-188.963 -148.283)" fill="#263238"/>
      <path id="Path_5709" data-name="Path 5709" d="M437.684,228.772c0-.065.229-.24.644-.065a.905.905,0,0,1,.513.6.851.851,0,0,1-.447.927.774.774,0,0,1-1.036-.229.7.7,0,0,1,.153-.84.524.524,0,0,1,.556-.131c.131.055.153.131.131.153a.44.44,0,0,0-.349.262c-.12.262,0,.436.316.305s.207-.48,0-.676S437.695,228.859,437.684,228.772Z" transform="translate(-188.824 -148.207)" fill="#263238"/>
      <path id="Path_5710" data-name="Path 5710" d="M439.354,232.442c-.153,0-.284-.415-.284-.916s.131-.905.284-.905.284.4.284.905S439.517,232.442,439.354,232.442Z" transform="translate(-188.661 -148.027)" fill="#263238"/>
      <path id="Path_5711" data-name="Path 5711" d="M437.953,206.89a10.406,10.406,0,0,1-1.571,2.345c-1.091,1.374-2.6,3.273-4.363,5.2s-3.382,3.752-4.571,5.018a14.946,14.946,0,0,1-2.018,1.964,13.908,13.908,0,0,1,1.713-2.236c1.091-1.32,2.705-3.131,4.451-5.116l4.472-5.094a20.038,20.038,0,0,1,1.887-2.084Z" transform="translate(-189.9 -150.182)" fill="#263238"/>
      <path id="Path_5712" data-name="Path 5712" d="M448.238,266.768c0,.153-.327.207-.655.131s-.556-.273-.524-.425.338-.207.655-.131S448.271,266.616,448.238,266.768Z" transform="translate(-187.936 -144.785)" fill="#263238"/>
      <path id="Path_5713" data-name="Path 5713" d="M448.926,265.531c0-.055.065-.229.382-.251a.524.524,0,0,1,.48.327.513.513,0,0,1-.338.731c-.545.142-1.014-.393-.775-.807a.349.349,0,0,1,.36-.175.1.1,0,0,1,.1.131.24.24,0,0,0-.1.218s.164.12.262.087h0a.1.1,0,0,0-.065-.109C449.112,265.607,448.959,265.607,448.926,265.531Z" transform="translate(-187.794 -144.878)" fill="#263238"/>
      <path id="Path_5714" data-name="Path 5714" d="M364.4,231.238c-.622-2.062-8.443-6.294-7.265-7.439,1.527-1.505,7.963,4.778,8.541,5.269s1.287-.349.742-.764c-.785-.6-8.923-7.058-7.429-8.541.829-.829,2.182.84,2.182.84s7.178,6.621,7.865,5.89-3.4-4.767-4.876-6.021-1.462-2.465-.393-2.662c.72-.142,5.323,3.611,6.741,4.9s5.291,4.865,4.778,1.516a.772.772,0,0,1,0-.153c-.589-3.272,0-6.01.764-6.665a1.292,1.292,0,0,1,1.854,1.4v.24a17.671,17.671,0,0,0,.229,3.414,9.075,9.075,0,0,0,.949,2.9c.556,1.091,1.091,1.92,1.527,2.651,5.225,2.88,20.268,10.483,35.332,11.639,2.727.207,16.526-17.639,16.526-17.639l13.537,13.3c-1.833,3.131-2.476,3.851-11.672,16.428-15,20.519-62.177-13.461-62.177-13.461h0l-.436-.218a105.906,105.906,0,0,1-10.428-5.847c-4.058-2.847-3.818-3.218-3.414-3.654C358.8,227.41,365.038,233.355,364.4,231.238Z" transform="translate(-196.114 -149.256)" fill="#ffbe9d"/>
    </g>
  </g>
</svg>
