<svg xmlns="http://www.w3.org/2000/svg" width="62" height="62" viewBox="0 0 62 62">
  <g id="_3052417" data-name="3052417" transform="translate(-1 -1)">
    <path id="Path_1838" data-name="Path 1838" d="M15,24a5,5,0,1,0-5,5A5.006,5.006,0,0,0,15,24Zm-5,3a3,3,0,1,1,3-3A3,3,0,0,1,10,27Z" fill="#fff"/>
    <path id="Path_1839" data-name="Path 1839" d="M63,31V13H48.508A22.982,22.982,0,0,0,38.8,7.034,2.684,2.684,0,0,0,37.612,5.64L30.026,1.425A3.384,3.384,0,0,0,25,4.383V7.1a22.986,22.986,0,0,0-9.825,6.219l1.463,1.364A21.008,21.008,0,0,1,25,9.2v2.419a3.383,3.383,0,0,0,5.026,2.957l7.587-4.214a2.687,2.687,0,0,0,1.123-1.247A20.948,20.948,0,0,1,45.587,13H39V31H52.892a20.827,20.827,0,0,1-3.771,10.138c-.042-.01-.08-.028-.122-.036V36a3,3,0,0,0-5.916-.677A37.063,37.063,0,0,1,27.056,39H20a5,5,0,0,0-4.539,2.932A20.763,20.763,0,0,1,11.394,33H12.7l.479-1.321,1.273.6,3.82-3.82-.6-1.273L19,26.7V21.3l-1.321-.48.6-1.273-3.82-3.82-1.273.595L12.7,15H7.3L6.82,16.321l-1.273-.6-3.82,3.82.6,1.273L1,21.3v5.4l1.321.48-.6,1.273,3.82,3.82,1.273-.595L7.3,33H9.364A22.79,22.79,0,0,0,15,44.476V48a4.99,4.99,0,0,0,4.433,4.943L21.157,63H27V58.72l6-2V53.5a37.084,37.084,0,0,1,10.084,3.18A3,3,0,0,0,49,56V50.9a4.983,4.983,0,0,0,1.962-8.905A22.8,22.8,0,0,0,54.9,31ZM36.641,8.612l-7.586,4.214A1.383,1.383,0,0,1,27,11.617V4.383a1.383,1.383,0,0,1,2.055-1.209L36.64,7.388a.7.7,0,0,1,0,1.224ZM8.4,30.177l-.212-.447L7.17,29.307l-1.2.562L4.132,28.032l.56-1.2-.445-1.081L3,25.3V22.7l.823-.3.443-.2.425-1.031-.56-1.2,1.838-1.837,1.2.562,1.077-.447L8.7,17h2.6l.3.823.212.447,1.019.423,1.2-.562,1.838,1.837-.56,1.2.445,1.081L17,22.7v2.6l-.823.3-.443.2-.425,1.031.56,1.2-1.838,1.837-1.2-.562-1.077.447L11.3,31H8.7ZM43,37.566V54.435A39.087,39.087,0,0,0,27.056,51H25V41h2.056A39.1,39.1,0,0,0,43,37.566ZM17,48V44a3,3,0,0,1,3-3h3V51H20A3,3,0,0,1,17,48Zm5.843,13-1.371-8H25v8ZM31,55.279l-4,1.334V53h.056A36.614,36.614,0,0,1,31,53.222ZM47,56a1,1,0,0,1-2,0V36a1,1,0,0,1,2,0Zm2-7.184V43.185a2.982,2.982,0,0,1,0,5.631Zm5.517-25.007L61,16.606V28.132ZM52.555,23H49.446l-7.2-8h17.51Zm-5.072.809L41,28.132V16.606ZM49.3,25h3.4l6,4H43.3Z" fill="#fff"/>
    <path id="Path_1840" data-name="Path 1840" d="M30,27H28a1,1,0,0,1-1-1H25a3,3,0,0,0,3,3v2h2V29a3,3,0,0,0,0-6H28a1,1,0,0,1,0-2h2a1,1,0,0,1,1,1h2a3,3,0,0,0-3-3V17H28v2a3,3,0,0,0,0,6h2a1,1,0,0,1,0,2Z" fill="#fff"/>
  </g>
</svg>
