<svg id="_994420" data-name="994420" xmlns="http://www.w3.org/2000/svg" width="62" height="62" viewBox="0 0 62 62">
  <g id="Group_119" data-name="Group 119" transform="translate(35.928 51.52)">
    <g id="Group_118" data-name="Group 118" transform="translate(0 0)">
      <rect id="Rectangle_125" data-name="Rectangle 125" width="2" height="10" transform="translate(0.072 0.48)" fill="#fff"/>
    </g>
  </g>
  <g id="Group_121" data-name="Group 121" transform="translate(23.726 51.52)">
    <g id="Group_120" data-name="Group 120" transform="translate(0 0)">
      <rect id="Rectangle_126" data-name="Rectangle 126" width="2" height="10" transform="translate(0.274 0.48)" fill="#fff"/>
    </g>
  </g>
  <g id="Group_123" data-name="Group 123" transform="translate(25.833 28.933)">
    <g id="Group_122" data-name="Group 122">
      <path id="Path_1847" data-name="Path 1847" d="M205.167,224A5.173,5.173,0,0,0,200,229.167v2.067a5.167,5.167,0,0,0,10.333,0v-2.067A5.173,5.173,0,0,0,205.167,224Zm3.1,7.233a3.1,3.1,0,1,1-6.2,0v-2.067a3.1,3.1,0,0,1,6.2,0Z" transform="translate(-200 -224)" fill="#fff"/>
    </g>
  </g>
  <g id="Group_125" data-name="Group 125" transform="translate(0 43.4)">
    <g id="Group_124" data-name="Group 124">
      <path id="Path_1848" data-name="Path 1848" d="M54.767,338.067H44.433a7.25,7.25,0,0,0-2.72.533,7.219,7.219,0,0,0-5.547-2.6H25.833a7.219,7.219,0,0,0-5.547,2.6,7.25,7.25,0,0,0-2.72-.533H7.233A7.243,7.243,0,0,0,0,345.3v9.3H2.067v-9.3a5.173,5.173,0,0,1,5.167-5.167h4.133V354.6h2.067V340.133h4.133a5.168,5.168,0,0,1,1.612.269,7.183,7.183,0,0,0-.579,2.831V354.6h2.067V343.233a5.173,5.173,0,0,1,5.167-5.167h4.133V354.6h2.067V338.067h4.133a5.173,5.173,0,0,1,5.167,5.167V354.6H43.4V343.233a7.183,7.183,0,0,0-.579-2.831,5.167,5.167,0,0,1,1.612-.269h4.133V354.6h2.067V340.133h4.133a5.173,5.173,0,0,1,5.167,5.167v9.3H62v-9.3A7.243,7.243,0,0,0,54.767,338.067Z" transform="translate(0 -336)" fill="#fff"/>
    </g>
  </g>
  <g id="Group_127" data-name="Group 127" transform="translate(5.423 53.553)">
    <g id="Group_126" data-name="Group 126" transform="translate(0 0)">
      <rect id="Rectangle_127" data-name="Rectangle 127" width="2" height="8" transform="translate(-0.423 0.447)" fill="#fff"/>
    </g>
  </g>
  <g id="Group_129" data-name="Group 129" transform="translate(7.233 31)">
    <g id="Group_128" data-name="Group 128">
      <path id="Path_1849" data-name="Path 1849" d="M61.167,240A5.167,5.167,0,0,0,56,245.167v2.067a5.167,5.167,0,0,0,10.333,0v-2.067A5.167,5.167,0,0,0,61.167,240Zm3.1,7.233a3.1,3.1,0,0,1-6.2,0v-2.067a3.1,3.1,0,0,1,6.2,0Z" transform="translate(-56 -240)" fill="#fff"/>
    </g>
  </g>
  <g id="Group_131" data-name="Group 131" transform="translate(54.909 53.553)">
    <g id="Group_130" data-name="Group 130" transform="translate(0 0)">
      <rect id="Rectangle_128" data-name="Rectangle 128" width="2" height="8" transform="translate(0.091 0.447)" fill="#fff"/>
    </g>
  </g>
  <g id="Group_133" data-name="Group 133" transform="translate(44.433 31)">
    <g id="Group_132" data-name="Group 132">
      <path id="Path_1850" data-name="Path 1850" d="M349.167,240A5.167,5.167,0,0,0,344,245.167v2.067a5.167,5.167,0,0,0,10.333,0v-2.067A5.167,5.167,0,0,0,349.167,240Zm3.1,7.233a3.1,3.1,0,1,1-6.2,0v-2.067a3.1,3.1,0,1,1,6.2,0Z" transform="translate(-344 -240)" fill="#fff"/>
    </g>
  </g>
  <g id="Group_135" data-name="Group 135">
    <g id="Group_134" data-name="Group 134">
      <path id="Path_1851" data-name="Path 1851" d="M55.254,25.833A24.489,24.489,0,0,0,51.8,17.5l4.772-4.771L49.267,5.426,44.5,10.2a24.489,24.489,0,0,0-8.33-3.452V0H25.833V6.747A24.649,24.649,0,0,0,17.5,10.2L12.733,5.426,5.426,12.733,10.2,17.5a24.489,24.489,0,0,0-3.452,8.33H0V36.167H5.167V34.1h-3.1V27.9h6.4l.151-.855a22.435,22.435,0,0,1,3.76-9.076l.5-.711L8.348,12.733l4.384-4.384,4.524,4.527.711-.5a22.559,22.559,0,0,1,9.076-3.761l.857-.151v-6.4h6.2v6.4l.855.151a22.435,22.435,0,0,1,9.076,3.76l.711.5,4.526-4.527,4.384,4.384-4.527,4.524.5.711a22.435,22.435,0,0,1,3.76,9.076l.151.855h6.4v6.2h-3.1v2.067H62V25.833Z" fill="#fff"/>
    </g>
  </g>
  <g id="Group_137" data-name="Group 137" transform="translate(22.817 21.668)">
    <g id="Group_136" data-name="Group 136">
      <path id="Path_1852" data-name="Path 1852" d="M183.681,167.835a8.3,8.3,0,0,0-7.033,7.033l2.047.293a6.237,6.237,0,0,1,12.346,0l2.046-.293A8.3,8.3,0,0,0,183.681,167.835Z" transform="translate(-176.648 -167.749)" fill="#fff"/>
    </g>
  </g>
  <g id="Group_139" data-name="Group 139" transform="translate(15.654 15.471)">
    <g id="Group_138" data-name="Group 138">
      <path id="Path_1853" data-name="Path 1853" d="M134.35,119.934a15.5,15.5,0,0,0-13.158,13.158l2.047.293a13.433,13.433,0,0,1,26.594,0h0l2.047-.293A15.5,15.5,0,0,0,134.35,119.934Z" transform="translate(-121.192 -119.777)" fill="#fff"/>
    </g>
  </g>
</svg>
