<svg xmlns="http://www.w3.org/2000/svg" width="150" height="150" viewBox="0 0 150 150">
  <g id="Group_245" data-name="Group 245" transform="translate(-885 -2244)">
    <circle id="Ellipse_15" data-name="Ellipse 15" cx="75" cy="75" r="75" transform="translate(885 2244)" fill="#fff"/>
    <g id="_254434" data-name="254434" transform="translate(884.48 2300)">
      <g id="Group_8" data-name="Group 8" transform="translate(61.52)">
        <path id="Path_45" data-name="Path 45" d="M87.987,15.49,66.854,1.022A5.159,5.159,0,0,0,64.078,0C62.5,0,61.52,1.268,61.52,3.391V34.659c0,2.12.976,3.386,2.553,3.386a5.116,5.116,0,0,0,2.764-1.025L87.979,22.553a4.338,4.338,0,0,0,2.113-3.533A4.323,4.323,0,0,0,87.987,15.49Z" transform="translate(-61.52)" fill="#ec008c"/>
      </g>
    </g>
  </g>
</svg>
