<svg xmlns="http://www.w3.org/2000/svg" width="80" height="80" viewBox="0 0 80 80">
  <g id="Group_1175" data-name="Group 1175" transform="translate(-1666 -1053)">
    <rect id="Rectangle_1376" data-name="Rectangle 1376" width="80" height="80" rx="20" transform="translate(1666 1053)" fill="#f7f7f7"/>
    <g id="_2403789" data-name="2403789" transform="translate(1684 1059.377)">
      <g id="Group_413" data-name="Group 413" transform="translate(0 7.623)">
        <path id="Path_4478" data-name="Path 4478" d="M176.57,276.094l-2.982,3.265-1.1-1.123a1.047,1.047,0,0,0-1.493,1.467l1.878,1.911a1.047,1.047,0,0,0,.747.313h.019a1.047,1.047,0,0,0,.754-.341l3.727-4.08a1.047,1.047,0,0,0-1.546-1.412Z" transform="translate(-152.823 -247.685)" fill="#b5b3b3"/>
        <path id="Path_4479" data-name="Path 4479" d="M63.23,184.909h.019a1.047,1.047,0,0,0,.754-.341l3.727-4.08a1.047,1.047,0,1,0-1.546-1.412L63.2,182.34l-1.1-1.123a1.047,1.047,0,0,0-1.493,1.467l1.878,1.911A1.047,1.047,0,0,0,63.23,184.909Z" transform="translate(-53.992 -160.823)" fill="#b5b3b3"/>
        <path id="Path_4480" data-name="Path 4480" d="M47.813,42.936a1.047,1.047,0,0,0,.548,1.375l2.6,1.119a1.06,1.06,0,0,0,1.371-.538l1.174-2.65a1.047,1.047,0,0,0-1.914-.848l-.1.229a12.652,12.652,0,0,0-8.056-6.761V20.705s0,0,0,0V12.533a1.047,1.047,0,0,0-1.047-1.047H37.043v-.443a3.42,3.42,0,0,0-6.839,0v.443H25.089v-.443a3.42,3.42,0,0,0-6.839,0v.443H13.241v-.443a3.42,3.42,0,0,0-6.839,0v.443H1.047A1.047,1.047,0,0,0,0,12.533H0V48.176a1.047,1.047,0,0,0,1.047,1.047H5.422a1.048,1.048,0,0,0,.056-2.094q-.05,0-.1,0H2.094V21.748H33.15a1.047,1.047,0,0,0,0-2.094H2.094V13.58H6.4v.444a3.42,3.42,0,0,0,6.84,0V13.58H18.25v.444a3.42,3.42,0,0,0,6.84,0V13.58H30.2v.444a3.42,3.42,0,0,0,6.84,0V13.58h4.3V34.471A12.615,12.615,0,0,0,27.487,47.129H14.73a1.062,1.062,0,0,0-1.088,1.086,1.048,1.048,0,0,0,1.046,1.009h12.99A12.614,12.614,0,0,0,50.3,54.429a12.451,12.451,0,0,0,2.074-4.52,1.047,1.047,0,1,0-2.042-.46,10.441,10.441,0,0,1-1.691,3.7,10.748,10.748,0,0,1-10.675,4.16A10.506,10.506,0,1,1,49.626,42.577l-.437-.188a1.047,1.047,0,0,0-1.375.548ZM32.3,11.042a1.326,1.326,0,0,1,2.652,0v2.981a1.326,1.326,0,0,1-2.652,0ZM21.669,9.716A1.328,1.328,0,0,1,23,11.042v2.981a1.326,1.326,0,0,1-2.652,0V11.042a1.327,1.327,0,0,1,1.326-1.326Zm-11.848,0a1.328,1.328,0,0,1,1.326,1.326v2.982a1.326,1.326,0,0,1-2.652,0V11.042A1.328,1.328,0,0,1,9.821,9.716Z" transform="translate(0 -7.623)" fill="#b5b3b3"/>
        <path id="Path_4481" data-name="Path 4481" d="M333.667,340.35a1.047,1.047,0,0,0,1.047-1.047v-3.68h3.679a1.047,1.047,0,0,0,0-2.094h-3.679v-3.68a1.047,1.047,0,1,0-2.094,0v3.68h-3.68a1.047,1.047,0,0,0,0,2.094h3.68v3.68A1.047,1.047,0,0,0,333.667,340.35Z" transform="translate(-293.57 -295.183)" fill="#b5b3b3"/>
        <path id="Path_4482" data-name="Path 4482" d="M89.088,385.7a1.046,1.046,0,1,0-.566,1.367A1.056,1.056,0,0,0,89.088,385.7Z" transform="translate(-77.962 -345.543)" fill="#b5b3b3"/>
        <path id="Path_4483" data-name="Path 4483" d="M169.779,170.469a4.406,4.406,0,1,0,4.406,4.406A4.411,4.411,0,0,0,169.779,170.469Zm0,6.718a2.312,2.312,0,1,1,2.312-2.312A2.315,2.315,0,0,1,169.779,177.187Z" transform="translate(-148.062 -153.422)" fill="#b5b3b3"/>
        <path id="Path_4484" data-name="Path 4484" d="M59.395,263.153a4.406,4.406,0,1,0,4.406,4.406A4.411,4.411,0,0,0,59.395,263.153Zm0,6.718a2.312,2.312,0,1,1,2.312-2.312A2.315,2.315,0,0,1,59.395,269.871Z" transform="translate(-49.233 -236.404)" fill="#b5b3b3"/>
        <path id="Path_4485" data-name="Path 4485" d="M279.426,174.875a4.406,4.406,0,1,0,4.406-4.406A4.411,4.411,0,0,0,279.426,174.875Zm6.718,0a2.312,2.312,0,1,1-2.312-2.312A2.315,2.315,0,0,1,286.144,174.875Z" transform="translate(-250.176 -153.422)" fill="#b5b3b3"/>
        <path id="Path_4486" data-name="Path 4486" d="M351.059,124.256a1.046,1.046,0,1,0,.114-1.3A1.053,1.053,0,0,0,351.059,124.256Z" transform="translate(-314.156 -110.597)" fill="#b5b3b3"/>
      </g>
    </g>
  </g>
</svg>
