<svg xmlns="http://www.w3.org/2000/svg" width="42" height="36.586" viewBox="0 0 42 36.586">
  <g id="_3022112" data-name="3022112" transform="translate(0 -33)">
    <path id="Path_4456" data-name="Path 4456" d="M38.637,51.852A3.7,3.7,0,0,0,42,48.176V36.691A3.7,3.7,0,0,0,38.309,33H26.086a3.7,3.7,0,0,0-3.691,3.691v4.84H7.055a3.7,3.7,0,0,0-3.691,3.691V59.988a3.674,3.674,0,0,0,.212,1.23H2.215A2.217,2.217,0,0,0,0,63.434a6.159,6.159,0,0,0,6.152,6.152h29.7A6.159,6.159,0,0,0,42,63.434a2.217,2.217,0,0,0-2.215-2.215h-1.36a3.674,3.674,0,0,0,.212-1.23ZM24.855,36.691a1.232,1.232,0,0,1,1.23-1.23H38.309a1.232,1.232,0,0,1,1.23,1.23V48.176a1.232,1.232,0,0,1-1.23,1.23h-11.4a1.23,1.23,0,0,0-.652.187l-2.481,1.551,1.03-3.435a1.231,1.231,0,0,0,.052-.354ZM35.848,67.125H6.152A3.7,3.7,0,0,1,2.469,63.68H39.531A3.7,3.7,0,0,1,35.848,67.125ZM11.73,51.949a1.395,1.395,0,1,1,1.395,1.395A1.4,1.4,0,0,1,11.73,51.949Zm-.656,5.25c0-.743.958-1.395,2.051-1.395a2.512,2.512,0,0,1,1.549.5,1.212,1.212,0,0,1,.5.893v4.02h-4.1Zm6.563,4.02V57.2a3.629,3.629,0,0,0-1.426-2.815l-.062-.048a3.855,3.855,0,1,0-6.046,0,3.627,3.627,0,0,0-1.49,2.86v4.02H7.055a1.232,1.232,0,0,1-1.23-1.23V45.223a1.232,1.232,0,0,1,1.23-1.23h15.34v3.183l-.979,3.262a2.458,2.458,0,0,0,3.661,2.794l2.182-1.364h8.917v8.121a1.232,1.232,0,0,1-1.23,1.23Z" fill="#b5b3b3"/>
    <path id="Path_4457" data-name="Path 4457" d="M364.855,169H362.23a1.23,1.23,0,0,0,0,2.461h2.625a1.23,1.23,0,1,0,0-2.461Z" transform="translate(-331.387 -124.844)" fill="#b5b3b3"/>
    <path id="Path_4458" data-name="Path 4458" d="M338.23,99.461h6.563a1.23,1.23,0,1,0,0-2.461H338.23a1.23,1.23,0,0,0,0,2.461Z" transform="translate(-309.355 -58.75)" fill="#b5b3b3"/>
  </g>
</svg>
