<svg xmlns="http://www.w3.org/2000/svg" xmlns:xlink="http://www.w3.org/1999/xlink" width="82" height="82" viewBox="0 0 82 82">
  <defs>
    <clipPath id="clip-Expert-Icon">
      <rect width="82" height="82"/>
    </clipPath>
  </defs>
  <g id="Expert-Icon" clip-path="url(#clip-Expert-Icon)">
    <g id="_4287533" data-name="4287533" transform="translate(-51)">
      <path id="Path_38" data-name="Path 38" d="M105.043,133.242h-4v-2.931a4.016,4.016,0,0,1,1.9-3.393,20.02,20.02,0,1,0-21.418,0,4.016,4.016,0,0,1,1.9,3.393v2.931h-4A18.439,18.439,0,0,0,61,151.66v3.523a2.4,2.4,0,0,0,2.4,2.4h57.656a2.4,2.4,0,0,0,2.4-2.4V151.66A18.439,18.439,0,0,0,105.043,133.242ZM77.016,110.02a15.215,15.215,0,1,1,23.351,12.84,8.828,8.828,0,0,0-3.927,5.578H94.633V115.819l4.1-4.1a2.4,2.4,0,1,0-3.4-3.4l-3.106,3.106-3.106-3.106a2.4,2.4,0,0,0-3.4,3.4l4.1,4.1v12.618H88.021a8.828,8.828,0,0,0-3.927-5.578A15.137,15.137,0,0,1,77.016,110.02Zm19.219,23.223v2.4a4,4,0,0,1-8.008,0v-2.4Zm22.422,19.539H65.8V151.66a13.629,13.629,0,0,1,13.613-13.613h4.34a8.806,8.806,0,0,0,16.946,0h4.34a13.629,13.629,0,0,1,13.613,13.613Z" transform="translate(0 -75.586)" fill="#fff"/>
      <path id="Path_39" data-name="Path 39" d="M243.4,9.609a2.4,2.4,0,0,0,2.4-2.4V2.4a2.4,2.4,0,1,0-4.8,0v4.8A2.4,2.4,0,0,0,243.4,9.609Z" transform="translate(-151.172)" fill="#fff"/>
      <path id="Path_40" data-name="Path 40" d="M143.723,34.558a2.4,2.4,0,1,0,4.161-2.4l-2.4-4.161a2.4,2.4,0,0,0-4.161,2.4Z" transform="translate(-67.186 -22.502)" fill="#fff"/>
      <path id="Path_41" data-name="Path 41" d="M68.994,104.481l4.161,2.4a2.4,2.4,0,0,0,2.4-4.161l-4.161-2.4a2.4,2.4,0,1,0-2.4,4.161Z" transform="translate(-5.705 -83.983)" fill="#fff"/>
      <path id="Path_42" data-name="Path 42" d="M388.544,106a2.4,2.4,0,0,0,3.282.879l4.161-2.4a2.4,2.4,0,0,0-2.4-4.161l-4.161,2.4A2.4,2.4,0,0,0,388.544,106Z" transform="translate(-274.815 -83.983)" fill="#fff"/>
      <path id="Path_43" data-name="Path 43" d="M327.2,35.437a2.4,2.4,0,0,0,3.282-.879l2.4-4.161a2.4,2.4,0,1,0-4.161-2.4l-2.4,4.161A2.4,2.4,0,0,0,327.2,35.437Z" transform="translate(-222.557 -22.502)" fill="#fff"/>
    </g>
  </g>
</svg>
