<svg xmlns="http://www.w3.org/2000/svg" width="800" height="388.211" viewBox="0 0 800 388.211">
  <g id="Webinar-pana" transform="translate(-22.73 -106.664)">
    <g id="freepik--Table--inject-163" transform="translate(22.73 494.281)">
      <path id="Path_4843" data-name="Path 4843" d="M822.73,446.387c0,.171-179.108.3-399.977.3s-400.023-.126-400.023-.3,179.062-.3,400.023-.3S822.73,446.227,822.73,446.387Z" transform="translate(-22.73 -446.09)" fill="#263238"/>
    </g>
    <g id="freepik--Plants--inject-163" transform="translate(51.895 301.613)">
      <path id="Path_4844" data-name="Path 4844" d="M663.539,407.821s-30.274-34.83-41.694-69.661-6-30.833-6-30.833,15.417,33.848,27.122,50.19,32.615,40.312,32.615,40.312Z" transform="translate(32.131 -273.143)" fill="#455a64"/>
      <path id="Path_4845" data-name="Path 4845" d="M663.141,312.114a1.759,1.759,0,0,0-3.277,1.142c1.839,12.242,5.836,40.963,5.71,59.588-.206,24.2,0,33.551,0,33.551h12.562s-2.284-50.019-5.082-65.275C671.066,330.454,666.875,318.578,663.141,312.114Z" transform="translate(38.559 -272.574)" fill="#455a64"/>
      <path id="Path_4846" data-name="Path 4846" d="M668.75,402.863a133.609,133.609,0,0,0,10.369-37.617c1.039-8.907-.822-20.944-3.574-37.012a100.176,100.176,0,0,1-1.587-17.8,3,3,0,0,1,5.641-1.416c1.519,2.718,5.927,11.991,7.046,17.792,3.049,15.862,6.5,23.8,3.86,38.827s-12.4,38.233-12.4,38.233Z" transform="translate(39.824 -273.106)" fill="#455a64"/>
      <path id="Path_4847" data-name="Path 4847" d="M678.68,406.3s33.243-71.431,35.55-82.028,10.129-35.013,11.054-33.631,2.284,14.286-3.689,29.029-31.564,88.8-31.564,88.8H678.68" transform="translate(41.234 -275.501)" fill="#455a64"/>
      <path id="Path_4848" data-name="Path 4848" d="M672.75,400.631a7.664,7.664,0,0,1-.936-.639c-.582-.445-1.485-1.073-2.569-1.964a115.028,115.028,0,0,1-8.93-7.891,149.6,149.6,0,0,1-24.119-30.948,202.261,202.261,0,0,1-16.456-35.653c-1.667-4.739-2.889-8.622-3.677-11.328-.411-1.336-.7-2.4-.891-3.106a5.986,5.986,0,0,1-.251-1.142,7.115,7.115,0,0,1,.388,1.062l1.016,3.072c.868,2.672,2.158,6.532,3.883,11.237a216.471,216.471,0,0,0,16.6,35.47,155.889,155.889,0,0,0,23.879,30.982c3.552,3.54,6.6,6.224,8.747,7.994,1.062.925,1.93,1.587,2.49,2.067a6.961,6.961,0,0,1,.822.788Z" transform="translate(32.182 -273.034)" fill="#263238"/>
      <path id="Path_4849" data-name="Path 4849" d="M669.8,365.689a12.755,12.755,0,0,1-.3-2.09c-.16-1.485-.365-3.426-.605-5.71-.525-4.842-1.348-11.5-2.524-18.82s-2.49-13.909-3.506-18.66c-.491-2.284-.9-4.18-1.211-5.63a12.746,12.746,0,0,1-.377-2.09,12.187,12.187,0,0,1,.64,2.021c.377,1.313.868,3.22,1.439,5.584,1.142,4.728,2.535,11.317,3.711,18.66s1.919,14.023,2.284,18.877c.206,2.432.331,4.4.388,5.71a10.273,10.273,0,0,1,.057,2.147Z" transform="translate(38.764 -272.362)" fill="#263238"/>
      <path id="Path_4850" data-name="Path 4850" d="M675.976,308.35a5.324,5.324,0,0,1,.388.914c.263.674.594,1.553,1.005,2.649s.936,2.569,1.427,4.26,1.142,3.563,1.61,5.71l.822,3.357c.286,1.142.48,2.41.731,3.677.548,2.535.879,5.287,1.279,8.177a121.782,121.782,0,0,1-1.348,37.754c-.605,2.855-1.142,5.573-1.861,8.062-.343,1.245-.628,2.467-.994,3.609s-.719,2.284-1.062,3.3c-.64,2.113-1.4,3.951-2.021,5.584s-1.21,3.026-1.724,4.145l-1.142,2.569a4.928,4.928,0,0,1-.457.879,5.063,5.063,0,0,1,.331-.936l1.051-2.627c.48-1.142,1.051-2.524,1.61-4.168s1.313-3.494,1.918-5.607c.32-1.051.662-2.147,1.016-3.289s.617-2.364.948-3.609c.7-2.49,1.142-5.2,1.793-7.994a126.361,126.361,0,0,0,1.348-37.56c-.388-2.878-.7-5.619-1.21-8.142-.251-1.268-.434-2.5-.7-3.666s-.525-2.284-.776-3.357c-.445-2.147-1.051-4.043-1.507-5.71s-.9-3.106-1.3-4.271-.651-2.01-.868-2.7A5.123,5.123,0,0,1,675.976,308.35Z" transform="translate(40.375 -272.978)" fill="#263238"/>
      <path id="Path_4851" data-name="Path 4851" d="M724.223,291.89a.856.856,0,0,1,0,.32,7.574,7.574,0,0,1-.148.925c-.148.811-.331,2.021-.651,3.563A129.714,129.714,0,0,1,720,309.556c-1.713,5.367-3.917,11.648-6.612,18.569s-5.8,14.446-8.748,22.463-5.31,15.828-7.48,22.908-4.18,13.475-6.155,18.728a120.647,120.647,0,0,1-5.242,12.219c-.685,1.416-1.3,2.467-1.69,3.2l-.468.811a1.141,1.141,0,0,1-.183.274,1.281,1.281,0,0,1,.114-.308l.411-.845c.354-.754.925-1.827,1.564-3.255,1.336-2.832,3.14-6.989,5.025-12.265s3.883-11.637,6.007-18.74,4.419-14.937,7.423-22.965,6.1-15.565,8.816-22.463,5.036-13.156,6.738-18.489,2.866-9.718,3.586-12.767c.365-1.519.594-2.718.788-3.517.091-.365.16-.662.217-.914a1.038,1.038,0,0,1,.114-.308Z" transform="translate(41.907 -275.315)" fill="#263238"/>
      <path id="Path_4852" data-name="Path 4852" d="M630.012,278.169a2.866,2.866,0,0,0-4.716,2.923,81.324,81.324,0,0,0,4.18,10.735c4.568,9.718,18,44.537,24.279,63.688s15.131,54.815,15.131,54.815l13.418-2.17s-12.276-58.641-24.21-79.824C648.4,311.4,638.76,286.87,630.012,278.169Z" transform="translate(33.637 -277.376)" fill="#455a64"/>
      <path id="Path_4853" data-name="Path 4853" d="M653.41,356.28a7.819,7.819,0,0,1,.7,1.61c.4,1.051.936,2.581,1.542,4.5,1.233,3.826,2.752,9.136,4.271,15.108s2.786,11.351,3.666,15.268c.411,1.85.742,3.426,1.016,4.648a8.953,8.953,0,0,1,.274,1.724,8.194,8.194,0,0,1-.548-1.656c-.32-1.222-.731-2.764-1.222-4.568l-3.871-15.257c-1.519-5.938-2.958-11.294-4.065-15.143l-1.325-4.568A8.707,8.707,0,0,1,653.41,356.28Z" transform="translate(37.647 -266.173)" fill="#263238"/>
      <path id="Path_4854" data-name="Path 4854" d="M675.431,409.184a1.611,1.611,0,0,1-.068-.354,8.339,8.339,0,0,0-.16-1.062c-.137-.925-.263-2.284-.548-4.065-.491-3.517-1.37-8.6-2.809-14.789a214.521,214.521,0,0,0-6.281-21.435c-2.752-7.994-6.2-16.536-10.118-25.432-7.891-17.758-15.771-33.506-20.955-45.142-2.615-5.813-4.648-10.552-5.984-13.864-.685-1.644-1.142-2.935-1.507-3.814-.148-.411-.274-.731-.377-1a1.288,1.288,0,0,1-.1-.343,2.79,2.79,0,0,1,.171.32c.1.217.263.582.445.971l1.622,3.769c1.416,3.266,3.517,7.994,6.189,13.7,5.287,11.591,13.247,27.293,21.149,45.074,3.917,8.907,7.354,17.518,10.084,25.5a204.268,204.268,0,0,1,6.155,21.572,150.368,150.368,0,0,1,2.592,14.846c.24,1.77.32,3.152.422,4.088,0,.434.057.777.08,1.062A1.485,1.485,0,0,1,675.431,409.184Z" transform="translate(33.829 -277.304)" fill="#263238"/>
      <path id="Path_4855" data-name="Path 4855" d="M677.02,398.919a15.549,15.549,0,0,1-.457-2.284c-.263-1.576-.617-3.654-1.039-6.167-.925-5.2-2.284-12.356-4.362-20.145s-4.282-14.743-6.018-19.722l-2.056-5.87a13.59,13.59,0,0,1-.708-2.193,15.1,15.1,0,0,1,.971,2.09c.571,1.359,1.382,3.346,2.284,5.824a194.241,194.241,0,0,1,6.235,19.711,205.854,205.854,0,0,1,4.168,20.247c.388,2.615.674,4.739.822,6.212A15.331,15.331,0,0,1,677.02,398.919Z" transform="translate(38.92 -268.124)" fill="#263238"/>
      <rect id="Rectangle_1170" data-name="Rectangle 1170" width="52.371" height="63.802" transform="translate(691.102 128.865)" fill="#8dc63f"/>
      <g id="Group_980" data-name="Group 980" transform="translate(691.102 128.865)" opacity="0.3">
        <rect id="Rectangle_1171" data-name="Rectangle 1171" width="52.371" height="63.802"/>
      </g>
      <rect id="Rectangle_1172" data-name="Rectangle 1172" width="46.456" height="63.802" transform="translate(680.311 128.865)" fill="#8dc63f"/>
      <path id="Path_4856" data-name="Path 4856" d="M93.759,371.334c-8.93-5.71-21.286-5.824-29.965.24-8.245,5.767-12.436,16.25-12.071,26.265s5.242,22.326,14.343,27.613l26.722-.114A35.881,35.881,0,0,0,107.5,398.376C107.9,387.824,102.678,377.044,93.759,371.334Z" transform="translate(-47.782 -264.646)" fill="#455a64"/>
      <path id="Path_4857" data-name="Path 4857" d="M77.325,426.332a12.06,12.06,0,0,1-.16-2.284c0-1.645-.114-3.746-.183-6.27-.137-5.287-.343-12.562-.7-20.658s-.788-15.371-1.142-20.658c-.148-2.512-.274-4.568-.377-6.258a11.9,11.9,0,0,1,0-2.284,12.665,12.665,0,0,1,.365,2.284c.183,1.473.4,3.609.651,6.247.48,5.276,1,12.562,1.37,20.658s.468,15.405.445,20.7c0,2.649,0,4.785-.091,6.269A12.561,12.561,0,0,1,77.325,426.332Z" transform="translate(-44.515 -264.521)" fill="#263238"/>
      <path id="Path_4858" data-name="Path 4858" d="M54.878,392.145c0,.228-1.473.308-3.243.16s-3.186-.457-3.175-.685,1.473-.308,3.243-.171S54.9,391.905,54.878,392.145Z" transform="translate(-48.242 -261.19)" fill="#263238"/>
      <path id="Path_4859" data-name="Path 4859" d="M55.174,384.448c-.1.217-1.348-.126-2.8-.777s-2.547-1.336-2.455-1.553,1.348.137,2.8.777S55.265,384.276,55.174,384.448Z" transform="translate(-48.036 -262.514)" fill="#263238"/>
      <path id="Path_4860" data-name="Path 4860" d="M59.23,378.827c-.126.194-1.53-.468-2.992-1.679s-2.387-2.478-2.215-2.627,1.336.788,2.752,1.964S59.356,378.622,59.23,378.827Z" transform="translate(-47.455 -263.586)" fill="#263238"/>
      <path id="Path_4861" data-name="Path 4861" d="M62.957,373.39c-.217.091-.891-.959-1.507-2.352s-.948-2.6-.731-2.706.891.959,1.507,2.364S63.162,373.3,62.957,373.39Z" transform="translate(-46.511 -264.463)" fill="#263238"/>
      <path id="Path_4862" data-name="Path 4862" d="M69.311,369.526c-.217.091-.936-1.028-1.427-2.581s-.525-2.9-.3-2.935.651,1.142,1.142,2.672S69.528,369.423,69.311,369.526Z" transform="translate(-45.546 -265.076)" fill="#263238"/>
      <path id="Path_4863" data-name="Path 4863" d="M79.964,364.411c.228.08.091,1.039-.3,2.147s-.891,1.93-1.142,1.85-.091-1.028.3-2.135S79.747,364.331,79.964,364.411Z" transform="translate(-43.991 -265.02)" fill="#263238"/>
      <path id="Path_4864" data-name="Path 4864" d="M88.108,367.824c.16.171-.423.971-1.3,1.781s-1.713,1.325-1.873,1.142.423-.971,1.29-1.781S87.948,367.653,88.108,367.824Z" transform="translate(-43.068 -264.539)" fill="#263238"/>
      <path id="Path_4865" data-name="Path 4865" d="M95.145,372.336c.137.194-.571.9-1.576,1.587S91.639,375,91.5,374.8s.582-.9,1.587-1.587S95.019,372.142,95.145,372.336Z" transform="translate(-42.134 -263.901)" fill="#263238"/>
      <path id="Path_4866" data-name="Path 4866" d="M100.312,379.058c.091.217-1.016.9-2.49,1.53s-2.741.959-2.832.742,1.028-.9,2.5-1.519S100.221,378.841,100.312,379.058Z" transform="translate(-41.637 -262.948)" fill="#263238"/>
      <path id="Path_4867" data-name="Path 4867" d="M102.255,386.417c0,.228-1.142.571-2.547.742s-2.6.137-2.638-.1,1.142-.56,2.535-.742S102.22,386.177,102.255,386.417Z" transform="translate(-41.341 -261.925)" fill="#263238"/>
      <path id="Path_4868" data-name="Path 4868" d="M103.251,395.7c-.091.217-1.3-.1-2.7-.708s-2.467-1.279-2.375-1.5,1.313.1,2.706.708S103.354,395.485,103.251,395.7Z" transform="translate(-41.184 -260.899)" fill="#263238"/>
      <path id="Path_4869" data-name="Path 4869" d="M102.428,403.627c-.08.217-1.61-.148-3.209-1.2s-2.547-2.284-2.387-2.455,1.336.754,2.855,1.736S102.508,403.433,102.428,403.627Z" transform="translate(-41.377 -259.973)" fill="#263238"/>
      <path id="Path_4870" data-name="Path 4870" d="M98.208,410.775c-.137.183-1.359-.525-2.524-1.793s-1.793-2.524-1.61-2.661,1.142.879,2.284,2.078S98.368,410.593,98.208,410.775Z" transform="translate(-41.771 -259.07)" fill="#263238"/>
      <path id="Path_4871" data-name="Path 4871" d="M60.157,411.055c.1.206-1.142,1.142-2.866,1.964s-3.14,1.4-3.289,1.222,1.142-1.142,2.855-1.976S60.043,410.85,60.157,411.055Z" transform="translate(-47.457 -258.402)" fill="#263238"/>
      <path id="Path_4872" data-name="Path 4872" d="M56.5,404.678c.091.217-.936.891-2.284,1.507s-2.547.948-2.649.731.936-.891,2.284-1.507S56.4,404.461,56.5,404.678Z" transform="translate(-47.802 -259.311)" fill="#263238"/>
      <path id="Path_4873" data-name="Path 4873" d="M54.037,399.02c0,.228-1.233.605-2.832.834s-2.9.217-2.935,0,1.233-.605,2.821-.822S54,398.8,54.037,399.02Z" transform="translate(-48.269 -260.128)" fill="#263238"/>
      <path id="Path_4874" data-name="Path 4874" d="M62.466,395.913c.069.228-1.142.8-2.8.982s-2.981-.1-2.958-.331,1.3-.331,2.855-.514S62.4,395.685,62.466,395.913Z" transform="translate(-47.071 -260.561)" fill="#263238"/>
      <path id="Path_4875" data-name="Path 4875" d="M69.336,388.947c.069.217-.914.719-2.284.845s-2.375-.16-2.352-.388,1.051-.331,2.284-.457S69.268,388.718,69.336,388.947Z" transform="translate(-45.937 -261.555)" fill="#263238"/>
      <path id="Path_4876" data-name="Path 4876" d="M70.656,383.538c-.08.228-1.142.057-2.375-.365s-2.17-.948-2.09-1.142,1.142-.057,2.375.377S70.736,383.321,70.656,383.538Z" transform="translate(-45.726 -262.53)" fill="#263238"/>
      <path id="Path_4877" data-name="Path 4877" d="M72.9,378.069c-.16.171-.891-.308-1.416-1.222s-.571-1.77-.343-1.827.617.605,1.142,1.4S73.076,377.91,72.9,378.069Z" transform="translate(-45.04 -263.513)" fill="#263238"/>
      <path id="Path_4878" data-name="Path 4878" d="M70.06,400.838c.057.228-.856.651-2.056.948a7.686,7.686,0,0,1-1.724.251l-.16-.5c.308,0,.5,0,.548.057s-.091.24-.343.434l-.171-.5a8,8,0,0,1,1.656-.571C69,400.666,70,400.609,70.06,400.838Z" transform="translate(-45.735 -259.867)" fill="#263238"/>
      <path id="Path_4879" data-name="Path 4879" d="M71.69,410.738c.08.217-1.142.879-2.627,1.485s-2.844.914-2.923.7,1.142-.891,2.615-1.485S71.622,410.521,71.69,410.738Z" transform="translate(-45.733 -258.451)" fill="#263238"/>
      <path id="Path_4880" data-name="Path 4880" d="M63.569,406.345c.08.217-.708.685-1.747,1.039s-1.941.468-2.021.24.708-.685,1.747-1.039S63.455,406.116,63.569,406.345Z" transform="translate(-46.633 -259.082)" fill="#263238"/>
      <path id="Path_4881" data-name="Path 4881" d="M64.4,386.424c0,.228-1.416.091-2.981-.468s-2.718-1.313-2.615-1.519,1.37.171,2.9.708S64.454,386.23,64.4,386.424Z" transform="translate(-46.775 -262.184)" fill="#263238"/>
      <path id="Path_4882" data-name="Path 4882" d="M83.346,384.007c.137.194-.628.925-1.7,1.633s-2.056,1.142-2.193.925.64-.925,1.713-1.633S83.22,383.779,83.346,384.007Z" transform="translate(-43.844 -262.245)" fill="#263238"/>
      <path id="Path_4883" data-name="Path 4883" d="M84.38,393.941c0,.228-.765.594-1.8.811s-1.919.206-1.976,0,.765-.594,1.8-.811S84.323,393.712,84.38,393.941Z" transform="translate(-43.68 -260.85)" fill="#263238"/>
      <path id="Path_4884" data-name="Path 4884" d="M85.726,405.4c-.1.206-1.268-.114-2.592-.731a5.567,5.567,0,0,1-2.284-1.507c0-.217,1.268.114,2.592.731S85.818,405.18,85.726,405.4Z" transform="translate(-43.644 -259.527)" fill="#263238"/>
      <path id="Path_4885" data-name="Path 4885" d="M82.888,416.412c-.183.16-.936-.457-1.679-1.37s-1.142-1.77-1.016-1.919.925.468,1.679,1.382S83.071,416.252,82.888,416.412Z" transform="translate(-43.74 -258.106)" fill="#263238"/>
      <path id="Path_4886" data-name="Path 4886" d="M82.362,376.657c.148.183-.354.811-1.21,1.233s-1.644.457-1.7.228.56-.594,1.325-.982S82.248,376.474,82.362,376.657Z" transform="translate(-43.843 -263.288)" fill="#263238"/>
      <path id="Path_4887" data-name="Path 4887" d="M92.008,386.693c.08.217-.914.765-2.284.959s-2.455-.069-2.444-.3,1.062-.377,2.284-.548S91.928,386.476,92.008,386.693Z" transform="translate(-42.731 -261.87)" fill="#263238"/>
      <path id="Path_4888" data-name="Path 4888" d="M90.162,377.689c.1.206-.879.914-2.284,1.359s-2.6.445-2.638.217,1.051-.605,2.375-1.039S90.048,377.472,90.162,377.689Z" transform="translate(-43.021 -263.144)" fill="#263238"/>
      <path id="Path_4889" data-name="Path 4889" d="M94.36,400.8c0,.228-1.69.377-3.723,0s-3.552-1.142-3.426-1.313,1.679.126,3.631.468S94.36,400.56,94.36,400.8Z" transform="translate(-42.742 -260.046)" fill="#263238"/>
      <path id="Path_4890" data-name="Path 4890" d="M90.552,414.262c-.137.183-1.382-.548-2.615-1.793s-1.953-2.444-1.8-2.627,1.142.822,2.387,2.033S90.677,414.079,90.552,414.262Z" transform="translate(-42.896 -258.572)" fill="#263238"/>
      <path id="Path_4891" data-name="Path 4891" d="M76.858,367a38.829,38.829,0,0,0-7.48,5.915,36.543,36.543,0,0,0-9.319,20.556,46.593,46.593,0,0,0,.56,12.619,100,100,0,0,0,2.364,10.129c.822,2.844,1.576,5.127,2.078,6.715a16.72,16.72,0,0,1,.719,2.489,13.43,13.43,0,0,1-1.028-2.375c-.605-1.553-1.45-3.814-2.341-6.658a84.1,84.1,0,0,1-2.558-10.164,44.925,44.925,0,0,1-.64-12.847,35.938,35.938,0,0,1,9.73-20.921,26.437,26.437,0,0,1,5.573-4.317,14.182,14.182,0,0,1,1.713-.891A2.511,2.511,0,0,1,76.858,367Z" transform="translate(-46.744 -264.651)" fill="#263238"/>
      <path id="Path_4892" data-name="Path 4892" d="M86.359,426c-.194-.1,1.907-3.335,3.826-9.136A51.834,51.834,0,0,0,92.469,393.3a44.365,44.365,0,0,0-3.631-12.642,29.942,29.942,0,0,0-6.189-8.633,22.977,22.977,0,0,0-6.075-3.837c-1.576-.651-2.524-.811-2.512-.879a2.282,2.282,0,0,1,.7,0,12.118,12.118,0,0,1,1.93.514,20.966,20.966,0,0,1,6.349,3.7,29.11,29.11,0,0,1,6.509,8.736,43.611,43.611,0,0,1,3.769,12.79,50.11,50.11,0,0,1-2.569,23.879c-.48,1.473-1.142,2.729-1.564,3.871a19.939,19.939,0,0,1-1.416,2.809A18.273,18.273,0,0,1,86.359,426Z" transform="translate(-44.608 -264.611)" fill="#263238"/>
      <path id="Path_4893" data-name="Path 4893" d="M55.89,416.93h47.027l.285,9.41H55.89Z" transform="translate(-47.187 -257.562)" fill="#8dc63f"/>
      <path id="Path_4894" data-name="Path 4894" d="M59.39,421.05l2.7,28.732H96.47l2.764-28.412Z" transform="translate(-46.691 -256.977)" fill="#8dc63f"/>
      <path id="Path_4895" data-name="Path 4895" d="M103.2,425.323c0,.24-10.586.423-23.65.423s-23.65-.183-23.65-.423,10.586-.423,23.65-.423S103.2,425.083,103.2,425.323Z" transform="translate(-47.186 -256.431)" fill="#263238"/>
      <path id="Path_4896" data-name="Path 4896" d="M97.652,433.285a7.081,7.081,0,0,1-1,1.8,26.424,26.424,0,0,1-3.654,4.305l-.217.206-.206-.228a67.612,67.612,0,0,0-9.227-8.062h.525L79.78,434.9l-4.831,4.18-.263.24-.274-.228-7.845-6.6.457-.057c-1.622,1.987-2.992,3.643-4.065,4.968a10.87,10.87,0,0,1-1.6,1.736,12.8,12.8,0,0,1,1.313-1.964l3.837-5.127.206-.263.263.206,7.994,6.464h-.525l4.808-4.225,4.1-3.574.251-.217.274.194a60.425,60.425,0,0,1,9.136,8.325h-.434a46,46,0,0,0,5.07-5.664Z" transform="translate(-46.411 -255.646)" fill="#263238"/>
    </g>
    <g id="freepik--Device--inject-163" transform="translate(136.322 135.335)">
      <rect id="Rectangle_1173" data-name="Rectangle 1173" width="531.088" height="351.204" rx="14.57" transform="translate(17.427)" fill="#455a64"/>
      <path id="Path_4897" data-name="Path 4897" d="M122.246,419.44H697.631v10.4A20.327,20.327,0,0,1,677.3,450.171H142.527A20.327,20.327,0,0,1,122.2,429.843v-10.4Z" transform="translate(-122.2 -90.927)" fill="#455a64"/>
      <path id="Path_4898" data-name="Path 4898" d="M324.15,416.56l7.137,11.363H431.758l6.623-11.363Z" transform="translate(-93.528 -91.336)" fill="#263238"/>
      <path id="Path_4899" data-name="Path 4899" d="M663.98,416.6c0,.194-117.875.343-263.237.343S137.46,416.8,137.46,416.6s117.852-.343,263.283-.343S663.98,416.408,663.98,416.6Z" transform="translate(-120.033 -91.379)" fill="#263238"/>
      <rect id="Rectangle_1174" data-name="Rectangle 1174" width="498.587" height="295.749" rx="3.27" transform="translate(32.638 20.19)" fill="#ebebeb"/>
      <path id="Path_4900" data-name="Path 4900" d="M648.9,442.884H150.31l.537-274.074H648.9Z" transform="translate(-118.209 -126.511)" fill="#fff"/>
      <path id="Path_4901" data-name="Path 4901" d="M187.581,159.951A3.986,3.986,0,1,1,183.6,156a3.986,3.986,0,0,1,3.986,3.951Z" transform="translate(-114.049 -128.33)" fill="#263238"/>
      <path id="Path_4902" data-name="Path 4902" d="M166.451,159.951A3.986,3.986,0,1,1,162.5,156a3.986,3.986,0,0,1,3.951,3.951Z" transform="translate(-117.049 -128.33)" fill="#263238"/>
      <path id="Path_4903" data-name="Path 4903" d="M176.591,159.956a3.974,3.974,0,1,1-1.164-2.822,3.986,3.986,0,0,1,1.164,2.822Z" transform="translate(-115.609 -128.334)" fill="#263238"/>
      <rect id="Rectangle_1175" data-name="Rectangle 1175" width="499.124" height="26.471" transform="translate(32.101 289.902)" fill="#263238"/>
      <path id="Path_4904" data-name="Path 4904" d="M167.351,400.477v.845h-3.974v-.662l2.135-2.033a1.49,1.49,0,0,0,.617-1.142c0-.491-.343-.777-1-.777a1.507,1.507,0,0,0-1.256.56l-.708-.537a2.512,2.512,0,0,1,2.056-.891c1.142,0,1.93.582,1.93,1.542a2.147,2.147,0,0,1-.9,1.7l-1.439,1.37Z" transform="translate(-116.385 -94.279)" fill="#fff"/>
      <path id="Path_4905" data-name="Path 4905" d="M167.3,397.639a.64.64,0,1,1,.628.639.617.617,0,0,1-.628-.639Zm0,2.935a.639.639,0,1,1,.29.624A.64.64,0,0,1,167.3,400.574Z" transform="translate(-115.798 -94.113)" fill="#fff"/>
      <path id="Path_4906" data-name="Path 4906" d="M170.865,395.923v5.39h-.994v-4.568H168.73V395.9Z" transform="translate(-115.594 -94.27)" fill="#fff"/>
      <path id="Path_4907" data-name="Path 4907" d="M176.358,400.077H175.4V401.3h-.971v-1.222H171.47v-.651L174.131,396H175.2l-2.512,3.323h1.77v-1.085h.936v1.085h.959Z" transform="translate(-115.205 -94.255)" fill="#fff"/>
      <rect id="Rectangle_1176" data-name="Rectangle 1176" width="409.102" height="1.861" transform="translate(69.958 303.663)" fill="#fff"/>
      <rect id="Rectangle_1177" data-name="Rectangle 1177" width="127.844" height="4.979" transform="translate(69.649 301.665)" fill="#8dc63f"/>
      <path id="Path_4908" data-name="Path 4908" d="M300.308,399.274a6.224,6.224,0,1,1-6.224-6.224A6.224,6.224,0,0,1,300.308,399.274Z" transform="translate(-98.68 -94.674)" fill="#8dc63f"/>
      <path id="Path_4909" data-name="Path 4909" d="M551.25,398.92a1.793,1.793,0,0,1-1.964,1.77c-1.473,0-2.284-.948-2.284-2.684a2.558,2.558,0,0,1,2.649-2.866,2.74,2.74,0,0,1,1.416.354l-.377.754a1.782,1.782,0,0,0-1.016-.263c-1.016,0-1.656.628-1.656,1.85h0a1.827,1.827,0,0,1,1.439-.56,1.679,1.679,0,0,1,1.793,1.645Zm-.971,0c0-.56-.422-.914-1.073-.914a.982.982,0,0,0-1.142.925c0,.5.4.9,1.142.9a.925.925,0,0,0,1.073-.868Z" transform="translate(-61.891 -94.378)" fill="#fff"/>
      <path id="Path_4910" data-name="Path 4910" d="M551.151,396.92a.64.64,0,1,1,.29.624A.639.639,0,0,1,551.151,396.92Zm0,2.935a.64.64,0,1,1,.29.624.639.639,0,0,1-.29-.624Z" transform="translate(-61.3 -94.228)" fill="#fff"/>
      <path id="Path_4911" data-name="Path 4911" d="M552.82,397.895c0-1.77.971-2.775,2.284-2.775s2.284,1,2.284,2.775-.971,2.775-2.284,2.775S552.82,399.665,552.82,397.895Zm3.494,0c0-1.3-.5-1.9-1.245-1.9s-1.245.594-1.245,1.9.514,1.907,1.245,1.907S556.314,399.2,556.314,397.895Z" transform="translate(-61.062 -94.38)" fill="#fff"/>
      <path id="Path_4912" data-name="Path 4912" d="M557.35,397.895c0-1.77.971-2.775,2.284-2.775s2.284,1,2.284,2.775-.971,2.775-2.284,2.775S557.35,399.665,557.35,397.895Zm3.506,0c0-1.3-.514-1.9-1.256-1.9s-1.233.594-1.233,1.9.5,1.907,1.233,1.907S560.856,399.2,560.856,397.895Z" transform="translate(-60.419 -94.38)" fill="#fff"/>
      <path id="Path_4913" data-name="Path 4913" d="M569.163,397.929H567.29V392.55h5.379v1.861h-3.506Z" transform="translate(-59.008 -94.745)" fill="#fff"/>
      <path id="Path_4914" data-name="Path 4914" d="M572.669,404.067H567.29V398.7h1.861v3.506h3.517Z" transform="translate(-59.008 -93.872)" fill="#fff"/>
      <path id="Path_4915" data-name="Path 4915" d="M580.167,404.069H574.8v-1.861h3.494V398.69h1.873Z" transform="translate(-57.941 -93.874)" fill="#fff"/>
      <path id="Path_4916" data-name="Path 4916" d="M580.169,397.917h-1.861v-3.506H574.79V392.55h5.379Z" transform="translate(-57.943 -94.745)" fill="#fff"/>
      <path id="Path_4917" data-name="Path 4917" d="M215.67,183.08H186.276L171.59,208.535l14.686,25.443H215.67l14.686-25.443Z" transform="translate(-115.188 -124.485)" fill="#ebebeb"/>
      <path id="Path_4918" data-name="Path 4918" d="M187.155,213.24a25.945,25.945,0,0,1-3.586-4.636,8.873,8.873,0,0,1-1.222-5.641,31.326,31.326,0,0,0,.742-3.346c.114-1.576-.548-3.22,0-4.694.868-2.284,3.963-2.661,5.847-4.248,1.462-1.245,2.181-3.255,3.791-4.294a7.137,7.137,0,0,1,4.876-.662,17.987,17.987,0,0,0,4.99.434,33.633,33.633,0,0,0,3.426-.925,4.694,4.694,0,0,1,3.426.24,2.284,2.284,0,0,1,.936,3.049c1.93-.891,4.374.617,4.9,2.661a5.71,5.71,0,0,1-2.158,5.63,12.562,12.562,0,0,1-5.824,2.375c-5.9,1.142-12.3.491-17.381-2.707" transform="translate(-113.669 -124.211)" fill="#263238"/>
      <path id="Path_4919" data-name="Path 4919" d="M213.911,218.945c-.194-3.643-1.21-11.111-2.215-17.861a14.092,14.092,0,0,0-14.846-11.991h-.731c-7.811.982-11.34,8.165-10.141,15.988l2.284,28.036h19.071s-.457-4.922-.457-4.968S214.322,226.482,213.911,218.945Z" transform="translate(-113.177 -123.636)" fill="#ffbe9d"/>
      <path id="Path_4920" data-name="Path 4920" d="M205.485,223.475a17.666,17.666,0,0,1-10.015-2.135s2.7,5.265,10.164,4.088Z" transform="translate(-111.797 -119.053)" fill="#eb996e"/>
      <path id="Path_4921" data-name="Path 4921" d="M206.6,205.362a1.062,1.062,0,0,1-.959,1.142,1.016,1.016,0,0,1-1.142-.891,1.073,1.073,0,0,1,.959-1.142,1.016,1.016,0,0,1,1.142.891Z" transform="translate(-110.516 -121.449)" fill="#263238"/>
      <path id="Path_4922" data-name="Path 4922" d="M207.8,203.034c-.126.148-.982-.4-2.147-.32s-1.964.719-2.1.582,0-.32.411-.617a2.992,2.992,0,0,1,1.667-.64,2.809,2.809,0,0,1,1.713.434C207.725,202.726,207.862,202.966,207.8,203.034Z" transform="translate(-110.657 -121.794)" fill="#263238"/>
      <path id="Path_4923" data-name="Path 4923" d="M197.021,206.053a1.142,1.142,0,0,1-.959,1.142,1.039,1.039,0,0,1-1.142-.9,1.142,1.142,0,0,1,.959-1.142,1.039,1.039,0,0,1,1.142.9Z" transform="translate(-111.875 -121.352)" fill="#263238"/>
      <path id="Path_4924" data-name="Path 4924" d="M197.845,203.9c-.126.148-.982-.4-2.147-.32s-1.964.708-2.1.582,0-.32.411-.617a2.969,2.969,0,0,1,3.426-.217C197.765,203.576,197.9,203.828,197.845,203.9Z" transform="translate(-112.071 -121.674)" fill="#263238"/>
      <path id="Path_4925" data-name="Path 4925" d="M201.636,212.188a7.569,7.569,0,0,1,1.861-.468c.3,0,.571-.126.605-.331a1.507,1.507,0,0,0-.251-.856l-1.028-2.193a39.571,39.571,0,0,1-2.364-5.71,38.474,38.474,0,0,1,2.821,5.561c.343.765.674,1.507.994,2.2a1.816,1.816,0,0,1,.228,1.142.777.777,0,0,1-.457.468,2.285,2.285,0,0,1-.5.1A7.49,7.49,0,0,1,201.636,212.188Z" transform="translate(-111.089 -121.71)" fill="#263238"/>
      <path id="Path_4926" data-name="Path 4926" d="M197.959,199.861c-.091.32-1.256.251-2.6.514s-2.421.7-2.627.423.091-.434.514-.777a4.42,4.42,0,0,1,1.907-.811,4.283,4.283,0,0,1,2.067.1C197.73,199.484,198,199.712,197.959,199.861Z" transform="translate(-112.196 -122.207)" fill="#263238"/>
      <path id="Path_4927" data-name="Path 4927" d="M207.2,200.138c-.194.274-1,.057-1.964.1s-1.759.3-1.964,0,0-.4.354-.674a2.684,2.684,0,0,1,1.564-.537,2.775,2.775,0,0,1,1.6.423C207.141,199.738,207.279,200,207.2,200.138Z" transform="translate(-110.702 -122.221)" fill="#263238"/>
      <path id="Path_4928" data-name="Path 4928" d="M187.4,208.014c-.137,0-5.287-1.142-4.773,3.963s6.087,3.426,6.075,3.312S187.4,208.014,187.4,208.014Z" transform="translate(-113.626 -120.961)" fill="#ffbe9d"/>
      <path id="Path_4929" data-name="Path 4929" d="M186.254,213.345a1.612,1.612,0,0,1-.217.148.9.9,0,0,1-.674.08,2.215,2.215,0,0,1-1.222-1.884,2.855,2.855,0,0,1,.126-1.3,1.028,1.028,0,0,1,.605-.765.468.468,0,0,1,.548.194c.091.137.069.251.091.251s.1-.091,0-.308a.582.582,0,0,0-.228-.3.651.651,0,0,0-.514-.08,1.29,1.29,0,0,0-.856.891,3.06,3.06,0,0,0-.16,1.462,2.284,2.284,0,0,0,1.519,2.09.982.982,0,0,0,.811-.217C186.323,213.517,186.323,213.345,186.254,213.345Z" transform="translate(-113.465 -120.754)" fill="#eb996e"/>
      <path id="Path_4930" data-name="Path 4930" d="M211.426,194.2c-.354,2.044-4.511,3.928-7.994,3.826-3.175-.091-4.751-1.667-7.046-2.786-1.462-.708-1.462-.708-3.426-.388-1.6.263-2.432,2.147-3.323,3.506,1.713,3.734,1.016,8.074.286,12.116a2.01,2.01,0,0,1-.514,1.222,1.644,1.644,0,0,1-2.09-.308,6.418,6.418,0,0,1-1.622-3.266,21.343,21.343,0,0,1-.5-8.371,14.423,14.423,0,0,1,3.426-7.548,13.7,13.7,0,0,1,9.353-4.26,16.844,16.844,0,0,1,9.969,2.821,10.038,10.038,0,0,1,3.426,3.426" transform="translate(-113.285 -123.797)" fill="#263238"/>
      <path id="Path_4931" data-name="Path 4931" d="M202.672,213.486l-2.627-1.222a.88.88,0,0,0-.48-.114.719.719,0,0,0-.445.308,2.421,2.421,0,0,0-.3,2.672,2.044,2.044,0,0,0,2.467.9,2.8,2.8,0,0,0,1.45-2.467Z" transform="translate(-111.36 -120.358)" fill="#eb996e"/>
      <path id="Path_4932" data-name="Path 4932" d="M201.4,216.283a1.783,1.783,0,0,1-1.542.137,2.444,2.444,0,0,1-1.359-1.142,2.5,2.5,0,0,1-.171-2.147,2.5,2.5,0,0,1,1.085-1.29.731.731,0,0,1,.685,0c.605.331,1,.617,1.4.868.765.514,1.222.868,1.142.936s-.571-.148-1.393-.571l-1.4-.731h-.206a2.158,2.158,0,0,0-.32.263,1.987,1.987,0,0,0-.48.754,2.056,2.056,0,0,0,.091,1.667,2.136,2.136,0,0,0,1.028.971A6.276,6.276,0,0,0,201.4,216.283Z" transform="translate(-111.415 -120.414)" fill="#263238"/>
      <path id="Path_4933" data-name="Path 4933" d="M201.667,206.058a4.462,4.462,0,0,0-.274-1.279,5.368,5.368,0,0,0-1.976-2.821,5.116,5.116,0,1,0,0,8.211,5.367,5.367,0,0,0,1.976-2.821c.228-.811.217-1.29.274-1.29s0,.126,0,.354a4.009,4.009,0,0,1-.1.993,5.3,5.3,0,0,1-1.93,3.095,5.618,5.618,0,1,1,0-8.873,5.3,5.3,0,0,1,1.93,3.095,3.963,3.963,0,0,1,.1.993C201.7,205.944,201.69,206.058,201.667,206.058Z" transform="translate(-112.49 -122.02)" fill="#263238"/>
      <path id="Path_4934" data-name="Path 4934" d="M212.862,205.6a9.828,9.828,0,0,0-.274-1.245,5.2,5.2,0,0,0-1.919-2.741,4.979,4.979,0,1,0,0,7.994,5.2,5.2,0,0,0,1.919-2.741c.228-.788.217-1.256.274-1.256s0,.114,0,.343a4.317,4.317,0,0,1-.091.971,5.207,5.207,0,0,1-1.884,3.015,5.481,5.481,0,1,1,0-8.656,5.23,5.23,0,0,1,1.884,3.026,4.215,4.215,0,0,1,.091.971C212.9,205.486,212.885,205.6,212.862,205.6Z" transform="translate(-110.861 -122.065)" fill="#263238"/>
      <path id="Path_4935" data-name="Path 4935" d="M202.689,203.989c-.114.1-.628-.228-1.313-.206s-1.142.354-1.3.251.32-.822,1.29-.845S202.837,203.9,202.689,203.989Z" transform="translate(-111.148 -121.63)" fill="#263238"/>
      <path id="Path_4936" data-name="Path 4936" d="M191.769,204.7c.1.126-.9,1.039-2.227,2.033a7.662,7.662,0,0,1-2.581,1.553c-.1-.126.9-1.039,2.227-2.033A7.549,7.549,0,0,1,191.769,204.7Z" transform="translate(-113.006 -121.416)" fill="#263238"/>
      <path id="Path_4937" data-name="Path 4937" d="M291.337,205.177c0,.16-13.213.3-29.509.3s-29.509-.137-29.509-.3,13.213-.3,29.509-.3S291.337,205.017,291.337,205.177Z" transform="translate(-106.566 -121.39)" fill="#263238"/>
      <path id="Path_4938" data-name="Path 4938" d="M263.986,210.588c0,.16-7.012.3-15.668.3s-15.668-.137-15.668-.3,7.012-.308,15.668-.308S263.986,210.417,263.986,210.588Z" transform="translate(-106.519 -120.623)" fill="#263238"/>
    </g>
    <g id="freepik--Character--inject-163" transform="translate(272.662 118.113)">
      <path id="Path_4939" data-name="Path 4939" d="M440.526,245.09a44.971,44.971,0,0,1,21.2,27.407c5.516,19.733,22.383,71.122,22.383,71.122s9.638,11.34,10.666,19.733-1.028,28.709-4.134,32.5a8.713,8.713,0,0,1-7.514,3.163l-40.574-3.848L426.56,288.188Z" transform="translate(-215.327 -98.46)" fill="#8dc63f"/>
      <path id="Path_4940" data-name="Path 4940" d="M325.816,245.24s-29.018,9.136-36.246,17.015l23.753,110.5-.423,34.876H450.486c0-1.724,1.233-115.774,1.233-115.774l8.257-44.754-48.865-8.6-9.638-7.583-54.392,2.764-8.268,8.257Z" transform="translate(-234.776 -100.472)" fill="#8dc63f"/>
      <g id="Group_981" data-name="Group 981" transform="translate(78.318 238.44)" opacity="0.3">
        <path id="Path_4941" data-name="Path 4941" d="M333.957,327.683c-.423-.936-1.039-1.953-2.044-2.158-1.656-.343-2.764,1.61-3.323,3.209a145.672,145.672,0,0,1-18.066,35.276l-.354,16.97c7.994-6.749,15.919-13.978,21.035-23.125S338.228,337.23,333.957,327.683Z" transform="translate(-310.17 -325.485)"/>
      </g>
      <path id="Path_4942" data-name="Path 4942" d="M296.382,258.36s-9.558,13.03-13.521,21.538S246,359.836,244.034,367.225s-7.08,30.616,7.937,36.007h30.913L313.9,340.5l1.587-72.8Z" transform="translate(-241.589 -96.576)" fill="#8dc63f"/>
      <path id="Path_4943" data-name="Path 4943" d="M284.142,346.164a13.673,13.673,0,0,0-2.113-1.416,23.98,23.98,0,0,0-6.486-2.352,31.239,31.239,0,0,0-4.728-.662,18.842,18.842,0,0,0-5.47.388,20.178,20.178,0,0,0-10.4,6.532,28.367,28.367,0,0,0-5.893,10.952,54.643,54.643,0,0,0-1.85,10.107c-.3,2.923-.4,5.31-.5,6.943,0,.777-.091,1.4-.114,1.9a2.4,2.4,0,0,1-.091.662,4.981,4.981,0,0,1,0-.662v-1.9c0-1.656.069-4.031.308-6.977a52.726,52.726,0,0,1,1.747-10.278,28.412,28.412,0,0,1,5.973-11.191,20.556,20.556,0,0,1,10.735-6.669,18.67,18.67,0,0,1,5.573-.308,30.062,30.062,0,0,1,4.785.742,22.555,22.555,0,0,1,6.509,2.558,11.423,11.423,0,0,1,1.542,1.142A3.245,3.245,0,0,1,284.142,346.164Z" transform="translate(-240.894 -84.822)" fill="#263238"/>
      <path id="Path_4944" data-name="Path 4944" d="M266.63,334.627a4.017,4.017,0,0,1,1.039-.16,18.47,18.47,0,0,1,2.866,0,23.869,23.869,0,0,1,4.214.628,25.124,25.124,0,0,1,9.376,4.477,23.373,23.373,0,0,1,3.14,2.878,18.461,18.461,0,0,1,1.77,2.284,3.906,3.906,0,0,1,.525.914c-.091.068-.936-1.142-2.6-2.878a28.039,28.039,0,0,0-3.163-2.729,28.547,28.547,0,0,0-4.385-2.627,30.1,30.1,0,0,0-4.8-1.759,27.411,27.411,0,0,0-4.111-.731C268.126,334.615,266.63,334.741,266.63,334.627Z" transform="translate(-238.033 -85.778)" fill="#263238"/>
      <path id="Path_4945" data-name="Path 4945" d="M295.517,331.739a6.372,6.372,0,0,1-1.427-.1c-.914-.114-2.227-.251-3.871-.377a66.143,66.143,0,0,0-25.272,3.026c-1.565.5-2.821.948-3.677,1.279a7.2,7.2,0,0,1-1.359.445,5.713,5.713,0,0,1,1.268-.662c.834-.4,2.078-.9,3.632-1.462a58.332,58.332,0,0,1,25.455-3.038c1.633.171,2.958.365,3.86.56a7.5,7.5,0,0,1,1.393.331Z" transform="translate(-238.987 -86.328)" fill="#263238"/>
      <path id="Path_4946" data-name="Path 4946" d="M373.22,283.477a1.623,1.623,0,0,1-.32-.377l-.845-1.142-3.106-4.294c-2.661-3.769-6.384-9.022-10.757-15.188l.48-.069c-1.667,4.888-3.506,10.278-5.436,15.988l-.126.354-.32-.206-.639-.411a32.912,32.912,0,0,1-6.726-5.71,40.032,40.032,0,0,1-4.808-6.646,56.035,56.035,0,0,1-5.287-12.756,89.078,89.078,0,0,1-2-9.136c-.183-1.028-.32-1.861-.434-2.49a3.964,3.964,0,0,0-.148-.628.542.542,0,0,0-.069-.217,17.34,17.34,0,0,1,.879,3.3,90.174,90.174,0,0,0,2.181,9.022A56.4,56.4,0,0,0,341.1,265.5a40.774,40.774,0,0,0,4.762,6.532,32.4,32.4,0,0,0,6.6,5.573l.628.411-.434.16c1.953-5.71,3.8-11.066,5.493-15.988l.171-.5.308.434c4.294,6.224,7.994,11.523,10.586,15.314,1.245,1.85,2.284,3.323,2.981,4.4l.765,1.142a2.7,2.7,0,0,1,.263.5Z" transform="translate(-228.656 -99.104)" fill="#263238"/>
      <g id="Group_982" data-name="Group 982" transform="translate(180.081 237.121)" opacity="0.3">
        <path id="Path_4947" data-name="Path 4947" d="M399.565,324.33a62.6,62.6,0,0,0,7.994,37.069c6.4,11.123,15.782,21.047,27.465,26.368.377-11.34-.171-24.7.206-36.041Z" transform="translate(-399.281 -324.33)"/>
      </g>
      <path id="Path_4948" data-name="Path 4948" d="M398.729,314.621s-5,1.382-1.256,11.625,5,9.615,7.5,19.185,5.413,18.272,9.775,23.73,20.613,16.444,20.613,16.444l14.572-13.7s-2.4-10.278-1.827-17.2,2.033-23.982,1.827-26.939-3.335-9.992-3.335-9.992V312.93l-7.491-23.045s-4.168-1.873-5.619,4.785l-2.5-7.069s-3.951-.628-4.99,7.491.834,19.357.834,19.357l-2.09,14.149-3.118,9.581-2.706.411s-4.077-1.142-6.3-8.782S404.348,312.953,398.729,314.621Z" transform="translate(-219.654 -92.426)" fill="#ffbe9d"/>
      <path id="Path_4949" data-name="Path 4949" d="M441.018,346.61a2.959,2.959,0,0,0-.069-.514,14.435,14.435,0,0,1-.1-1.53c-.08-1.393-.183-3.323-.308-5.71-.228-4.968-.537-11.888-.9-19.962l.057.171a2.935,2.935,0,0,0-2.946-.776,4.328,4.328,0,0,0-2.7,1.987c-1.279,2.044-1.348,4.716-1.747,7.286-.788,5.836-1.542,11.42-2.227,16.456-.343,2.535-.708,4.933-1.2,7.16a45.255,45.255,0,0,1-1.816,6.075A49,49,0,0,0,425.5,362.2a15.381,15.381,0,0,0-.468,3.826,12.162,12.162,0,0,0,.571,3.266,5.048,5.048,0,0,1-.343-.8,8.6,8.6,0,0,1-.457-2.455,14.561,14.561,0,0,1,.377-3.94,44.528,44.528,0,0,1,1.5-5,46.634,46.634,0,0,0,1.713-6.041c.468-2.2.822-4.568,1.142-7.126.662-5.07,1.4-10.62,2.181-16.467.183-1.29.32-2.581.548-3.86a10.173,10.173,0,0,1,1.279-3.666,4.91,4.91,0,0,1,3.072-2.215,3.426,3.426,0,0,1,3.506.959l.057.08v.091c.285,8.074.525,14.994.7,19.973,0,2.41.1,4.34.148,5.71v1.53A2.58,2.58,0,0,1,441.018,346.61Z" transform="translate(-215.578 -88.169)" fill="#eb996e"/>
      <path id="Path_4950" data-name="Path 4950" d="M432.373,322.46a5.71,5.71,0,0,1-.617-1.3,34.7,34.7,0,0,1-1.222-3.723,38.414,38.414,0,0,1-1.039-5.71,16.6,16.6,0,0,1-.069-3.426,7.457,7.457,0,0,1,1.256-3.563,5.116,5.116,0,0,1,2.672-2.01l.217-.057.114.194c2.113,3.723,3.951,7.012,5.23,9.376l1.5,2.8a4.452,4.452,0,0,1,.48,1.051,5.186,5.186,0,0,1-.662-.948l-1.644-2.706c-1.37-2.284-3.277-5.561-5.4-9.273l.331.137a4.568,4.568,0,0,0-2.341,1.781,6.853,6.853,0,0,0-1.142,3.289,16.457,16.457,0,0,0,0,3.357,42.887,42.887,0,0,0,.9,5.71c.365,1.6.765,2.878,1.028,3.757a6.711,6.711,0,0,1,.411,1.268Z" transform="translate(-214.928 -90.285)" fill="#eb996e"/>
      <path id="Path_4951" data-name="Path 4951" d="M429.018,325.828a5.341,5.341,0,0,1-.137-1.336c0-.982-.091-2.193-.148-3.62-.091-3.06-.194-7.286-.251-11.957a103.451,103.451,0,0,1,.183-11.979,18.829,18.829,0,0,1,.777-3.563,4.157,4.157,0,0,1,.537-1.233,33.451,33.451,0,0,0-.9,4.842c-.285,3.026,0,7.252,0,11.922s.091,8.9.08,11.956v3.632A6.135,6.135,0,0,1,429.018,325.828Z" transform="translate(-215.068 -91.78)" fill="#eb996e"/>
      <path id="Path_4952" data-name="Path 4952" d="M418.151,358.182c-.08-.069.834-1.142,1.953-3.095a25.994,25.994,0,0,0,1.7-3.552,29.291,29.291,0,0,0,1.3-4.636,28.781,28.781,0,0,0,.4-4.8,26.578,26.578,0,0,0-.343-3.917c-.377-2.227-.857-3.552-.754-3.586a3.423,3.423,0,0,1,.411.9,16.457,16.457,0,0,1,.754,2.6,22.273,22.273,0,0,1,.48,3.986,23.582,23.582,0,0,1-1.747,9.65,22.3,22.3,0,0,1-1.839,3.563,16.375,16.375,0,0,1-1.61,2.17C418.436,357.953,418.185,358.2,418.151,358.182Z" transform="translate(-216.522 -85.751)" fill="#eb996e"/>
      <path id="Path_4953" data-name="Path 4953" d="M441.98,349l12.642,4.385s12.082-6.247,20.407,0,15.554,22.7,13.27,29.36c0,0-5.71,7.1-10.118,8.142s-21.366-3.083-28.435-4.568-19.265-9.41-19.265-9.41Z" transform="translate(-214.771 -83.707)" fill="#ffbe9d"/>
      <path id="Path_4954" data-name="Path 4954" d="M442,368.845a5.066,5.066,0,0,1-.137-1.142c0-.856-.1-1.873-.171-3.06-.137-2.581-.308-6.144-.365-10.1s.057-7.526.285-10.107c.114-1.29.263-2.284.388-3.049a3.8,3.8,0,0,1,.263-1.142c.091,0-.1,1.6-.228,4.18s-.171,6.132-.114,10.072.137,7.343.183,10.084v3.061a3.746,3.746,0,0,1-.1,1.2Z" transform="translate(-213.233 -84.949)" fill="#eb996e"/>
      <path id="Path_4955" data-name="Path 4955" d="M482.7,353.5a40.287,40.287,0,0,0-4.2-3.791,23.148,23.148,0,0,0-25.626-1.4,41.268,41.268,0,0,0-4.568,3.3,6.761,6.761,0,0,1,1.039-1.142,20.954,20.954,0,0,1,3.346-2.535,22.737,22.737,0,0,1,26.106,1.45,20.06,20.06,0,0,1,3.038,2.889A6.443,6.443,0,0,1,482.7,353.5Z" transform="translate(-212.24 -84.347)" fill="#263238"/>
      <path id="Path_4956" data-name="Path 4956" d="M481.555,343.745a25.251,25.251,0,0,0-5.265-2.9,23.228,23.228,0,0,0-14.229-.423,33.255,33.255,0,0,0-7.366,3.06,34.929,34.929,0,0,0-5.333,3.769c-1.416,1.211-2.5,2.284-3.243,3a9.134,9.134,0,0,1-1.2,1.142,7.871,7.871,0,0,1,1.028-1.279,39.485,39.485,0,0,1,3.14-3.163,32.807,32.807,0,0,1,5.333-3.917,31.633,31.633,0,0,1,7.48-3.163,22.748,22.748,0,0,1,14.549.605,16.881,16.881,0,0,1,3.894,2.193c.423.308.708.605.925.788A1.256,1.256,0,0,1,481.555,343.745Z" transform="translate(-212.72 -85.132)" fill="#263238"/>
      <path id="Path_4957" data-name="Path 4957" d="M481.956,335.4c0,.114-2.284-.56-5.915-1.051a46.425,46.425,0,0,0-6.475-.411,50.841,50.841,0,0,0-7.914.708,51.792,51.792,0,0,0-7.686,2.033,45.6,45.6,0,0,0-5.95,2.6c-3.277,1.713-5.127,3.106-5.2,3a8.1,8.1,0,0,1,1.268-1,14.5,14.5,0,0,1,1.564-1.073c.628-.4,1.336-.868,2.158-1.3a43.824,43.824,0,0,1,5.973-2.741,47.021,47.021,0,0,1,7.765-2.1,48.046,48.046,0,0,1,7.994-.674,42.777,42.777,0,0,1,6.544.537c.925.114,1.747.331,2.467.48a17.692,17.692,0,0,1,1.85.48A9.436,9.436,0,0,1,481.956,335.4Z" transform="translate(-213.018 -85.923)" fill="#263238"/>
      <path id="Path_4958" data-name="Path 4958" d="M396.12,237.23a10.5,10.5,0,0,1,.868,3.357,32.32,32.32,0,0,1-.48,9.81,56.226,56.226,0,0,1-1.633,6.852,52.027,52.027,0,0,1-3.312,7.594c-2.729,5.253-6.155,10.974-10.129,17.13l-.457.719V269.16l.445.217L370.7,277.93l.091-.137a112.187,112.187,0,0,0-4.659,25.637c-1.051,13.9-.206,27.19.445,39.25s.936,22.942,1.313,32.078.685,16.513.959,21.618c.16,2.535.274,4.5.354,5.87,0,.651.08,1.142.1,1.53a2.8,2.8,0,0,1,0,.525,2.556,2.556,0,0,0-.08-.514c-.08-.343-.091-.879-.16-1.53-.126-1.336-.285-3.312-.457-5.87-.343-5.093-.742-12.482-1.142-21.618s-.891-20-1.439-32.067-1.542-25.375-.491-39.318a111.665,111.665,0,0,1,4.785-25.774v-.08h.069l10.689-8.576.445-.365v13.247l-.468-.148c7.845-12.162,14.229-22.737,15.211-31.29a33.537,33.537,0,0,0,.617-9.73,17.427,17.427,0,0,0-.468-2.535A9.093,9.093,0,0,1,396.12,237.23Z" transform="translate(-224.056 -99.576)" fill="#263238"/>
      <path id="Path_4959" data-name="Path 4959" d="M374.739,366.22h-.365a3.209,3.209,0,1,0,.411,0Z" transform="translate(-223.163 -81.262)" fill="#fff"/>
      <path id="Path_4960" data-name="Path 4960" d="M374.737,327.68h-.365a3.2,3.2,0,1,0,.411,0Z" transform="translate(-223.161 -86.734)" fill="#fff"/>
      <path id="Path_4961" data-name="Path 4961" d="M374.4,294a3.222,3.222,0,0,0,.422-6.429H374.4a3.22,3.22,0,0,0,0,6.441Z" transform="translate(-223.19 -92.429)" fill="#fff"/>
      <path id="Path_4962" data-name="Path 4962" d="M332.625,202.772c-4-4.442-7.994-8.919-10.952-14.126s-4.659-11.294-3.7-17.13c.571-3.426,2.033-6.738,2.284-10.278.32-4.8-1.69-9.81,0-14.3,2.649-7.035,12.116-8.119,17.849-12.973,4.465-3.78,6.635-9.912,11.545-13.087,4.294-2.786,9.81-2.718,14.846-2.01s10.152,2,15.223,1.313c3.609-.48,7.012-1.941,10.54-2.821s7.491-1.142,10.632.731,4.922,6.292,2.855,9.3c5.87-2.706,13.327,1.873,14.937,8.131s-1.61,13.03-6.589,17.13-11.42,6.052-17.758,7.252c-17.975,3.426-37.491,1.473-52.988-8.256" transform="translate(-230.782 -116.69)" fill="#263238"/>
      <path id="Path_4963" data-name="Path 4963" d="M394.363,261.467c-.879-6.852-1.6-12.482-1.644-13.19,0,0,22.748-5.116,21.492-28.115-.605-11.123-3.711-33.917-6.772-54.507a42.893,42.893,0,0,0-45.314-36.543l-2.284.137c-23.81,3-34.579,24.907-30.925,48.637l12.859,79.562s5.481,17.6,17.21,20.647l14.846,21.149,2.444-9.136,11.031-9.615a43.464,43.464,0,0,0,5.447-8.1,17.769,17.769,0,0,0,1.61-10.929Z" transform="translate(-229.289 -114.94)" fill="#ffbe9d"/>
      <path id="Path_4964" data-name="Path 4964" d="M388.506,233.981s-14.446,2.147-30.536-6.521c0,0,8.2,16.068,30.993,12.47Z" transform="translate(-225.065 -100.963)" fill="#eb996e"/>
      <path id="Path_4965" data-name="Path 4965" d="M391.932,178.767a3.3,3.3,0,0,1-2.946,3.529,3.14,3.14,0,0,1-3.574-2.741A3.277,3.277,0,0,1,388.369,176a3.14,3.14,0,0,1,3.563,2.764Z" transform="translate(-221.171 -108.273)" fill="#263238"/>
      <path id="Path_4966" data-name="Path 4966" d="M395.545,171.656c-.377.457-2.992-1.222-6.521-.971s-5.961,2.181-6.418,1.793c-.194-.171.171-.971,1.245-1.873a8.987,8.987,0,0,1,5.093-1.953,8.611,8.611,0,0,1,5.23,1.313C395.316,170.7,395.727,171.451,395.545,171.656Z" transform="translate(-221.575 -109.315)" fill="#263238"/>
      <path id="Path_4967" data-name="Path 4967" d="M362.712,180.855a3.278,3.278,0,0,1-2.946,3.517,3.129,3.129,0,0,1-3.574-2.729,3.3,3.3,0,0,1,2.935-3.529,3.152,3.152,0,0,1,3.586,2.741Z" transform="translate(-225.319 -107.973)" fill="#263238"/>
      <path id="Path_4968" data-name="Path 4968" d="M365.185,174.269c-.388.457-2.992-1.222-6.521-.971s-6.007,2.181-6.418,1.77c-.206-.171.16-.971,1.233-1.873a9.056,9.056,0,0,1,5.1-1.953,8.6,8.6,0,0,1,5.219,1.313C364.946,173.31,365.368,174.063,365.185,174.269Z" transform="translate(-225.886 -108.947)" fill="#263238"/>
      <path id="Path_4969" data-name="Path 4969" d="M376.764,199.726c0-.206,2.147-.731,5.71-1.427.891-.148,1.736-.388,1.85-1a4.625,4.625,0,0,0-.788-2.638l-3.129-6.692c-4.351-9.524-7.571-17.392-7.183-17.564s4.225,7.411,8.588,16.947l3.015,6.738a5.253,5.253,0,0,1,.708,3.506,2.284,2.284,0,0,1-1.393,1.416,6.143,6.143,0,0,1-1.519.32C379.014,199.761,376.8,199.92,376.764,199.726Z" transform="translate(-222.904 -109.064)" fill="#263238"/>
      <path id="Path_4970" data-name="Path 4970" d="M365.546,161.984c-.285.994-3.837.765-7.994,1.542s-7.389,2.135-7.994,1.313c-.274-.4.251-1.336,1.542-2.364a14.149,14.149,0,0,1,12.139-2.17C364.85,160.82,365.672,161.528,365.546,161.984Z" transform="translate(-226.269 -110.572)" fill="#263238"/>
      <path id="Path_4971" data-name="Path 4971" d="M393.691,162.805c-.56.845-3.049.183-5.984.331s-5.367.9-6,.1c-.274-.388.069-1.222,1.142-2.056a8.7,8.7,0,0,1,9.65-.343C393.553,161.595,393.942,162.348,393.691,162.805Z" transform="translate(-221.707 -110.605)" fill="#263238"/>
      <path id="Path_4972" data-name="Path 4972" d="M333.342,186.712c-.4-.137-16.1-3.609-14.549,12.071s18.523,10.563,18.523,10.118S333.342,186.712,333.342,186.712Z" transform="translate(-230.643 -106.808)" fill="#ffbe9d"/>
      <path id="Path_4973" data-name="Path 4973" d="M329.874,203.087c-.08,0-.251.217-.7.468a2.718,2.718,0,0,1-2.033.251c-1.724-.445-3.426-2.935-3.734-5.71a9.136,9.136,0,0,1,.377-3.986,3.186,3.186,0,0,1,1.85-2.284,1.4,1.4,0,0,1,1.69.594c.251.423.183.742.263.754s.308-.285.126-.925a1.782,1.782,0,0,0-.719-.925,2.124,2.124,0,0,0-1.6-.32,3.86,3.86,0,0,0-2.6,2.718,9.261,9.261,0,0,0-.514,4.465c.411,3.152,2.284,5.95,4.648,6.372a2.935,2.935,0,0,0,2.467-.662C329.885,203.464,329.965,203.11,329.874,203.087Z" transform="translate(-230.144 -106.144)" fill="#eb996e"/>
      <path id="Path_4974" data-name="Path 4974" d="M406.591,144.731c-1.073,6.247-13.7,11.968-24.233,11.66-9.673-.285-14.457-5.082-21.481-8.5-4.454-2.158-4.454-2.158-10.495-1.142-4.876.788-7.411,6.555-10.152,10.666,5.219,11.42,3.106,24.621.891,36.954a6.235,6.235,0,0,1-1.587,3.746c-1.759,1.553-4.568.628-6.349-.959-2.775-2.547-4.043-6.315-4.945-9.969a64.5,64.5,0,0,1-1.553-25.5,44.2,44.2,0,0,1,10.6-23.068,41.865,41.865,0,0,1,28.549-13.007,51.389,51.389,0,0,1,30.4,8.633c4.157,2.729,7.994,6.1,10.392,10.472" transform="translate(-229.594 -115.427)" fill="#263238"/>
      <path id="Path_4975" data-name="Path 4975" d="M379.91,203.509l-7.994-3.723a2.638,2.638,0,0,0-1.45-.365,2.284,2.284,0,0,0-1.382.936,7.411,7.411,0,0,0-.891,8.165,6.258,6.258,0,0,0,7.5,2.764c2.832-1.142,4.2-4.465,4.431-7.526Z" transform="translate(-223.732 -104.944)" fill="#eb996e"/>
      <path id="Path_4976" data-name="Path 4976" d="M376.063,212c0,.069-.377.3-1.142.468a6.921,6.921,0,0,1-3.426-.251,7.137,7.137,0,0,1-3.963-3.3,7.343,7.343,0,0,1-.491-6.3,7.64,7.64,0,0,1,1.85-2.8,7.343,7.343,0,0,1,1.3-.982,2.056,2.056,0,0,1,.925-.285,2.124,2.124,0,0,1,.925.171,14.209,14.209,0,0,1,1.245.708l1.085.674,1.953,1.21c2.364,1.507,3.791,2.512,3.711,2.649s-1.656-.594-4.134-1.919l-2.021-1.142-1.142-.628c-.388-.194-.8-.457-1.142-.594a.845.845,0,0,0-.879.091,6.22,6.22,0,0,0-1.051.834,6.853,6.853,0,0,0-1.553,2.375,6.441,6.441,0,0,0,.343,5.356,6.6,6.6,0,0,0,3.3,3.038,8.051,8.051,0,0,0,3.095.582C375.606,211.991,376.028,211.923,376.063,212Z" transform="translate(-223.847 -105.068)" fill="#263238"/>
      <path id="Path_4977" data-name="Path 4977" d="M376.779,180.84a27.922,27.922,0,0,0-.628-3.974,16.193,16.193,0,0,0-21.229-11.157,15.394,15.394,0,0,0-4.077,2.2,14.848,14.848,0,0,0-3.426,3.426,15.988,15.988,0,0,0,0,19.014,14.846,14.846,0,0,0,3.426,3.426,15.394,15.394,0,0,0,4.077,2.2,16.239,16.239,0,0,0,21.229-11.157,28.2,28.2,0,0,0,.628-3.963.879.879,0,0,1,0,.263c0,.206,0,.468,0,.777a6.645,6.645,0,0,1-.091,1.268,12.77,12.77,0,0,1-.308,1.713,15.68,15.68,0,0,1-1.77,4.419,16.524,16.524,0,0,1-19.882,7.194,15.7,15.7,0,0,1-4.214-2.284,15.485,15.485,0,0,1-3.54-3.529,16.559,16.559,0,0,1,0-19.7,15.222,15.222,0,0,1,3.529-3.529,15.7,15.7,0,0,1,4.214-2.284,16.535,16.535,0,0,1,19.882,7.194,15.679,15.679,0,0,1,1.77,4.419,12.775,12.775,0,0,1,.308,1.713,6.65,6.65,0,0,1,.091,1.268c0,.308,0,.571,0,.777a.993.993,0,0,1,.011.3Z" transform="translate(-227.088 -109.945)" fill="#263238"/>
      <path id="Path_4978" data-name="Path 4978" d="M410.912,179.434a28.217,28.217,0,0,0-.605-3.871,15.908,15.908,0,0,0-5.824-8.645,15.474,15.474,0,0,0-6.623-2.912,15.748,15.748,0,0,0-8.245.7,15.347,15.347,0,0,0-3.963,2.135,15.04,15.04,0,0,0-3.312,3.335,15.634,15.634,0,0,0,0,18.523,14.755,14.755,0,0,0,3.312,3.323,15.051,15.051,0,0,0,3.963,2.147,15.862,15.862,0,0,0,8.245.7,15.474,15.474,0,0,0,6.623-2.912,15.908,15.908,0,0,0,5.824-8.645,28.226,28.226,0,0,0,.605-3.871,6.3,6.3,0,0,1,0,1.016,7.492,7.492,0,0,1-.091,1.245,12.341,12.341,0,0,1-.3,1.667,16.09,16.09,0,0,1-12.562,11.991,16.2,16.2,0,1,1,0-31.838,16.091,16.091,0,0,1,12.562,11.991,12.34,12.34,0,0,1,.3,1.667,7.488,7.488,0,0,1,.091,1.245,6.3,6.3,0,0,1,0,1.016Z" transform="translate(-222.119 -110.082)" fill="#263238"/>
      <path id="Path_4979" data-name="Path 4979" d="M380,174.486c-.069.057-.445-.251-1.142-.582a6.475,6.475,0,0,0-2.878-.628,6.247,6.247,0,0,0-2.844.731c-.685.354-1.051.685-1.142.617s.206-.5.891-.982a5.6,5.6,0,0,1,6.144-.1A2.638,2.638,0,0,1,380,174.486Z" transform="translate(-223.077 -108.742)" fill="#263238"/>
      <path id="Path_4980" data-name="Path 4980" d="M346.673,176.73a72.2,72.2,0,0,1-7.149,5.71,73.087,73.087,0,0,1-7.514,5.242,68.836,68.836,0,0,1,7.16-5.71,70.988,70.988,0,0,1,7.5-5.242Z" transform="translate(-228.751 -108.165)" fill="#263238"/>
      <g id="Group_983" data-name="Group 983" transform="translate(104.136 142.885)" opacity="0.3">
        <path id="Path_4981" data-name="Path 4981" d="M333.032,241.81c-1.587,15.5,4.305,31.861,16.741,41.248.971.742,2.193,1.473,3.346,1.051a3.654,3.654,0,0,0,1.736-1.781,30.285,30.285,0,0,0,3.7-19.916c-1.964,5.185-3.654,10.278-5.641,15.691C342.1,271.524,335.315,257.546,333.032,241.81Z" transform="translate(-332.778 -241.81)"/>
      </g>
      <path id="Path_4982" data-name="Path 4982" d="M369.87,277.227l9.136-3.335,1.507,15.428s9.844-17.94,13.921-26.117,1.976-22.634,1.976-22.634,1.45,12.562-8.4,28.629l-7.446,12.1V268.628Z" transform="translate(-223.376 -99.101)" opacity="0.3"/>
      <g id="Group_984" data-name="Group 984" transform="translate(8.299 254.596)" opacity="0.3">
        <path id="Path_4983" data-name="Path 4983" d="M281,341.571a24.347,24.347,0,0,0-13.213-1.656,25.432,25.432,0,0,0-13.156,4.979c-3.7,2.981-6.2,7.686-5.71,12.413l.457.057c3.186-8.611,9.513-14.846,17.678-15.634s16.125,2.866,21.7,8.862C288.145,346.116,285.016,343.478,281,341.571Z" transform="translate(-248.856 -339.633)"/>
      </g>
      <g id="Group_985" data-name="Group 985" transform="translate(237.293 258.867)" opacity="0.3">
        <path id="Path_4984" data-name="Path 4984" d="M483.137,349.8a20.864,20.864,0,0,0-11.785-6.064A26.425,26.425,0,0,0,449.38,350.1l1.736-1.416a27.739,27.739,0,0,1,14.64-3.974,21.138,21.138,0,0,1,13.944,5.573c3.426,3.243,5.47,7.64,7.423,11.922a14.926,14.926,0,0,0-3.986-12.4Z" transform="translate(-449.38 -343.372)"/>
      </g>
      <path id="Path_4985" data-name="Path 4985" d="M427.45,290.175a6.223,6.223,0,0,1,.411-1.245c.354-.9.788-2.01,1.29-3.323,1.142-2.8,2.627-6.658,4.225-10.963s2.981-8.222,3.974-11.054l1.142-3.369a5.962,5.962,0,0,1,.5-1.211,4.738,4.738,0,0,1-.285,1.279c-.217.822-.56,1.987-1,3.426-.891,2.878-2.215,6.852-3.814,11.134s-3.186,8.165-4.4,10.917c-.594,1.382-1.142,2.49-1.473,3.255A5.242,5.242,0,0,1,427.45,290.175Z" transform="translate(-215.201 -96.483)" fill="#263238"/>
      <path id="Path_4986" data-name="Path 4986" d="M302,290.313c-.16,0-1.4-5.4-2.775-12.139S296.876,266.011,297,265.92s1.393,5.4,2.764,12.139S302.163,290.278,302,290.313Z" transform="translate(-233.723 -95.502)" fill="#263238"/>
      <path id="Path_4987" data-name="Path 4987" d="M300.01,356.018c.365.183-4.18-35.584-4.18-35.584s2.866-27.145,4.477-28.4v-9.581s4.442-2.684,5.63,1.656c0,0,3.94-3.426,4.568,4.716s.834,16.456.834,16.456l8.759,21.9,1.439.731s1.884-17.13,2.981-19.688,1.85-8.668,6-7.743,4.5,4.351,3.757,9.947-1.679,11.42-1.325,15.006,1.987,11.568,1.485,17.895-3.974,13-7.606,17.678-10.586,14.377-14.355,17.29C311.247,379.326,300.01,356.018,300.01,356.018Z" transform="translate(-233.888 -93.272)" fill="#ffbe9d"/>
      <path id="Path_4988" data-name="Path 4988" d="M303.877,325.56a6.849,6.849,0,0,1,0-1.53c.069-1.142.171-2.49.285-4.157.263-3.506.674-8.348,1.142-13.7.251-2.661.491-5.2.708-7.526a13.409,13.409,0,0,0,0-3.232,4.568,4.568,0,0,0-1.142-2.467,4.888,4.888,0,0,0-3.574-1.565,10.128,10.128,0,0,0-1.5.183,1.392,1.392,0,0,1,.365-.183,3.86,3.86,0,0,1,1.142-.24,5.025,5.025,0,0,1,3.894,1.519,4.888,4.888,0,0,1,1.268,2.684,13.088,13.088,0,0,1,0,3.346c-.206,2.284-.434,4.876-.662,7.537-.491,5.344-.971,10.175-1.348,13.7l-.468,4.145A8.682,8.682,0,0,1,303.877,325.56Z" transform="translate(-233.324 -91.923)" fill="#eb996e"/>
      <path id="Path_4989" data-name="Path 4989" d="M308.113,308.47a12.424,12.424,0,0,0-1.553,2.821,47.33,47.33,0,0,0-1.45,7.72c-.48,3.06-.936,5.824-1.3,7.823a17.128,17.128,0,0,1-.708,3.209,19.074,19.074,0,0,1,.3-3.277c.251-2.01.651-4.785,1.142-7.845s.811-5.858,1.656-7.777a7.479,7.479,0,0,1,1.245-2.067C307.816,308.619,308.09,308.447,308.113,308.47Z" transform="translate(-232.855 -89.461)" fill="#eb996e"/>
      <path id="Path_4990" data-name="Path 4990" d="M304.67,283.39a3.984,3.984,0,0,1,.308,1.142c.16.731.354,1.793.571,3.118.434,2.638.914,6.3,1.222,10.381s.365,7.777.32,10.449c0,1.336-.057,2.421-.114,3.163a4,4,0,0,1-.137,1.142,38.2,38.2,0,0,1-.171-4.317c-.057-2.672-.194-6.349-.491-10.4s-.708-7.72-1.039-10.369A36.452,36.452,0,0,1,304.67,283.39Z" transform="translate(-232.633 -93.022)" fill="#eb996e"/>
      <path id="Path_4991" data-name="Path 4991" d="M327.453,312.949a3.152,3.152,0,0,1-2.946.251c-1.679-.5-2.455-1.793-2.284-1.85a15.644,15.644,0,0,0,2.478,1.279,16.683,16.683,0,0,0,2.752.32Z" transform="translate(-230.144 -89.052)" fill="#eb996e"/>
      <path id="Path_4992" data-name="Path 4992" d="M306.638,342.87,283.5,352.6h-13.8s-13.635,4.26-15.736,17.05-2.4,19.357,3.6,20.944,22.931,1.759,31.324-1.028S319.28,369.01,319.28,369.01l2.113-12.836Z" transform="translate(-240.025 -84.577)" fill="#ffbe9d"/>
      <path id="Path_4993" data-name="Path 4993" d="M305.535,357.862a6.117,6.117,0,0,1-.662-.605,14.712,14.712,0,0,1-1.5-1.919,26,26,0,0,1-3.232-7.32,43.394,43.394,0,0,1-1.427-7.857,14.847,14.847,0,0,1-.091-3.312,22.3,22.3,0,0,1,.5,3.255,58.165,58.165,0,0,0,1.587,7.754,30.707,30.707,0,0,0,3.015,7.263C304.77,356.846,305.615,357.782,305.535,357.862Z" transform="translate(-233.498 -85.432)" fill="#eb996e"/>
      <path id="Path_4994" data-name="Path 4994" d="M314.8,362.741a24.116,24.116,0,0,0,1.313-4.956,15.987,15.987,0,0,0-3.106-11.625c-1.4-1.964-2.992-3.677-4.328-5.344a25.3,25.3,0,0,1-3.129-4.728,12.482,12.482,0,0,1-1.142-3.654,4.647,4.647,0,0,1,0-1.393,16.331,16.331,0,0,0,1.576,4.853,26.621,26.621,0,0,0,3.186,4.568c1.336,1.622,2.935,3.335,4.374,5.344a16.629,16.629,0,0,1,2.889,6.338,16.115,16.115,0,0,1,.148,5.71,15.008,15.008,0,0,1-1.051,3.677c-.183.411-.354.719-.468.925S314.81,362.753,314.8,362.741Z" transform="translate(-232.677 -86.257)" fill="#eb996e"/>
      <path id="Path_4995" data-name="Path 4995" d="M283.588,312.588a116.011,116.011,0,0,1-5.641-10.278,113.25,113.25,0,0,1-5.116-10.54,116.005,116.005,0,0,1,5.641,10.278A114.578,114.578,0,0,1,283.588,312.588Z" transform="translate(-237.154 -91.832)" fill="#fff"/>
      <path id="Path_4996" data-name="Path 4996" d="M315,275.608a70.98,70.98,0,0,1,3.483-8.565,73.567,73.567,0,0,1,4.031-8.314,73.327,73.327,0,0,1-3.483,8.565A72.4,72.4,0,0,1,315,275.608Z" transform="translate(-231.166 -96.523)" fill="#fff"/>
      <path id="Path_4997" data-name="Path 4997" d="M348.378,298.7a52.772,52.772,0,0,1-5.253-5.87,53.339,53.339,0,0,1-4.785-6.247,50.852,50.852,0,0,1,5.242,5.87A52.766,52.766,0,0,1,348.378,298.7Z" transform="translate(-227.852 -92.569)" fill="#fff"/>
      <path id="Path_4998" data-name="Path 4998" d="M339.74,331.2a45.535,45.535,0,0,1,3.951-5.961,43.612,43.612,0,0,1,4.442-5.607,44.675,44.675,0,0,1-3.951,5.961,41.712,41.712,0,0,1-4.442,5.607Z" transform="translate(-227.653 -87.877)" fill="#fff"/>
      <path id="Path_4999" data-name="Path 4999" d="M330.677,377.836a11.341,11.341,0,0,1-1.336-2.284c-.754-1.462-1.724-3.506-2.706-5.8s-1.77-4.431-2.284-5.973a11.537,11.537,0,0,1-.731-2.558,11.819,11.819,0,0,1,1.142,2.41l2.455,5.881c.948,2.181,1.793,4.157,2.535,5.858a11.841,11.841,0,0,1,.925,2.467Z" transform="translate(-229.942 -81.972)" fill="#fff"/>
      <path id="Path_5000" data-name="Path 5000" d="M359.714,356.541a42.424,42.424,0,0,1-6.932-1.039,41.285,41.285,0,0,1-6.852-1.622,82.76,82.76,0,0,1,13.7,2.661Z" transform="translate(-226.775 -83.014)" fill="#fff"/>
      <path id="Path_5001" data-name="Path 5001" d="M380,315.051a83.235,83.235,0,0,1,6.6-7.56,85.654,85.654,0,0,1,7.057-7.172,85.954,85.954,0,0,1-6.612,7.571,87.48,87.48,0,0,1-7.046,7.16Z" transform="translate(-221.938 -90.618)" fill="#fff"/>
      <path id="Path_5002" data-name="Path 5002" d="M403.994,372.97c-.126.114-3.814-4.168-8.245-9.536s-7.914-9.821-7.788-9.924,3.814,4.168,8.245,9.536S404.1,372.867,403.994,372.97Z" transform="translate(-220.808 -83.067)" fill="#fff"/>
      <path id="Path_5003" data-name="Path 5003" d="M266.858,346.12c.08.16-3.289,1.873-6.966,4.694s-6.235,5.607-6.372,5.481a8.13,8.13,0,0,1,1.553-1.941,35.128,35.128,0,0,1,4.454-4.008,35.649,35.649,0,0,1,5.048-3.22,8.6,8.6,0,0,1,2.284-1Z" transform="translate(-239.895 -84.116)" fill="#fff"/>
      <path id="Path_5004" data-name="Path 5004" d="M274.17,324a24.331,24.331,0,0,1-2.684,4.568,23.982,23.982,0,0,1-3.186,4.248,24.606,24.606,0,0,1,2.684-4.568A23.638,23.638,0,0,1,274.17,324Z" transform="translate(-237.796 -87.256)" fill="#fff"/>
      <path id="Path_5005" data-name="Path 5005" d="M292.288,346.934a15.086,15.086,0,0,1-2.215-9.764c.171,0,.228,2.284.857,4.945S292.448,346.854,292.288,346.934Z" transform="translate(-234.719 -85.386)" fill="#fff"/>
      <path id="Path_5006" data-name="Path 5006" d="M295.855,276.8a17.538,17.538,0,0,1-4.4.925,16.912,16.912,0,0,1-4.488.331,17.711,17.711,0,0,1,4.408-.925,17.411,17.411,0,0,1,4.477-.331Z" transform="translate(-235.146 -93.961)" fill="#fff"/>
      <path id="Path_5007" data-name="Path 5007" d="M309.684,252.07a35,35,0,0,1-7.994,4.431,17.487,17.487,0,0,1,3.848-2.478,18.108,18.108,0,0,1,4.145-1.953Z" transform="translate(-233.056 -97.469)" fill="#fff"/>
      <path id="Path_5008" data-name="Path 5008" d="M348.936,263.882a41.532,41.532,0,0,1-4.408-5.3,41.115,41.115,0,0,1-3.928-5.653A79.594,79.594,0,0,1,348.936,263.882Z" transform="translate(-227.531 -97.347)" fill="#fff"/>
      <path id="Path_5009" data-name="Path 5009" d="M398.529,288.76a27.967,27.967,0,0,1-6.909-11.1c.171-.069,1.393,2.592,3.312,5.641S398.666,288.646,398.529,288.76Z" transform="translate(-220.288 -93.836)" fill="#fff"/>
      <path id="Path_5010" data-name="Path 5010" d="M417.323,293.64a66.559,66.559,0,0,1-5.253,11.568,35.327,35.327,0,0,1,2.364-5.9A33.529,33.529,0,0,1,417.323,293.64Z" transform="translate(-217.384 -91.567)" fill="#fff"/>
      <path id="Path_5011" data-name="Path 5011" d="M420.709,269.365a61.364,61.364,0,0,1-5.778-6.464,63.253,63.253,0,0,1-5.31-6.852A126.6,126.6,0,0,1,420.709,269.365Z" transform="translate(-217.732 -96.904)" fill="#fff"/>
      <path id="Path_5012" data-name="Path 5012" d="M390.388,248.029a26.839,26.839,0,0,1-.514-5.527,26.014,26.014,0,0,1,.08-5.561,26.839,26.839,0,0,1,.514,5.527,25.12,25.12,0,0,1-.08,5.561Z" transform="translate(-220.552 -99.617)" fill="#fff"/>
      <path id="Path_5013" data-name="Path 5013" d="M415.763,245.34a43.866,43.866,0,0,1-7.057,1.245,43.235,43.235,0,0,1-7.126.651,43.868,43.868,0,0,1,7.057-1.245,43.149,43.149,0,0,1,7.126-.651Z" transform="translate(-218.874 -98.424)" fill="#fff"/>
      <path id="Path_5014" data-name="Path 5014" d="M452.218,274.753a71.954,71.954,0,0,1-4.248-8.085,70.652,70.652,0,0,1-3.7-8.348,70.875,70.875,0,0,1,4.26,8.085A71.02,71.02,0,0,1,452.218,274.753Z" transform="translate(-212.813 -96.581)" fill="#fff"/>
      <path id="Path_5015" data-name="Path 5015" d="M445,297.961a74.235,74.235,0,0,1,2.581-12.882,37.046,37.046,0,0,1-.993,6.5A36.02,36.02,0,0,1,445,297.961Z" transform="translate(-212.709 -92.782)" fill="#fff"/>
      <path id="Path_5016" data-name="Path 5016" d="M463.017,317.206a72.167,72.167,0,0,1-3.426-8.77,73.088,73.088,0,0,1-2.821-8.976,75.447,75.447,0,0,1,3.426,8.782A74.75,74.75,0,0,1,463.017,317.206Z" transform="translate(-211.038 -90.74)" fill="#fff"/>
      <path id="Path_5017" data-name="Path 5017" d="M461.153,326.628a15.828,15.828,0,0,1-5.767-2.067,15.3,15.3,0,0,1-4.876-3.7c.114-.137,2.215,1.6,5.162,3.175S461.21,326.457,461.153,326.628Z" transform="translate(-211.927 -87.703)" fill="#fff"/>
      <path id="Path_5018" data-name="Path 5018" d="M482.442,351.764a32.6,32.6,0,0,1-3.552-7.994,32.6,32.6,0,0,1,3.551,7.994Z" transform="translate(-207.897 -84.449)" fill="#fff"/>
      <path id="Path_5019" data-name="Path 5019" d="M351.362,386.716a22.748,22.748,0,0,1-.891-5.059,23.1,23.1,0,0,1-.3-5.127,21.445,21.445,0,0,1,.948,5.1A22.3,22.3,0,0,1,351.362,386.716Z" transform="translate(-226.177 -79.798)" fill="#fff"/>
      <path id="Path_5020" data-name="Path 5020" d="M419.14,384.944a21.294,21.294,0,0,1,.742-4.945,21.591,21.591,0,0,1,1.336-4.819,20.911,20.911,0,0,1-.754,4.945,21.243,21.243,0,0,1-1.325,4.819Z" transform="translate(-216.381 -79.99)" fill="#fff"/>
    </g>
    <g id="freepik--speech-bubble--inject-163" transform="translate(490.255 106.664)">
      <path id="Path_5021" data-name="Path 5021" d="M432.16,196.619l10.1-17.632a47.346,47.346,0,1,1,11.34,12.562h0Z" transform="translate(-432.126 -106.658)" fill="#fafafa"/>
      <path id="Path_5022" data-name="Path 5022" d="M432.164,196.624l21.435-4.888h.217l-.137-.183h0l-.206.194a48.788,48.788,0,0,0,9.73,5.87,47.347,47.347,0,0,0,12.973,3.7,42.446,42.446,0,0,0,7.491.377c1.29-.069,2.592-.1,3.917-.206l4-.605a47.705,47.705,0,0,0,37.56-37.251,48.444,48.444,0,0,0-.56-21.047,46.741,46.741,0,0,0-10.141-19.414l-1.953-2.227c-.64-.719-1.393-1.3-2.078-1.964a18.548,18.548,0,0,0-2.147-1.873l-2.284-1.69a19.036,19.036,0,0,0-2.352-1.553l-2.4-1.462-2.512-1.222a23.844,23.844,0,0,0-2.535-1.142,48.489,48.489,0,0,0-21.207-3.255,46.593,46.593,0,0,0-19.414,5.71,47.963,47.963,0,0,0-22.485,27.67,50.934,50.934,0,0,0-2.056,15.382,46.821,46.821,0,0,0,2.284,13.281,48.294,48.294,0,0,0,4.739,10.186v-.148c-6.327,11.34-9.421,16.878-9.912,17.746.5-.856,3.677-6.361,10.152-17.609v-.137a47.551,47.551,0,0,1-4.591-10.152,46.742,46.742,0,0,1-2.284-13.19,51.113,51.113,0,0,1,2.09-15.234A47.632,47.632,0,0,1,459.777,113a46.033,46.033,0,0,1,19.242-5.71,47.814,47.814,0,0,1,20.944,3.232,23.225,23.225,0,0,1,2.5,1.142l2.489,1.21,2.4,1.485a19.835,19.835,0,0,1,2.284,1.53l2.284,1.679c.765.548,1.4,1.233,2.113,1.85a21.98,21.98,0,0,1,2.056,1.941l1.907,2.09a46.33,46.33,0,0,1,10.027,19.219,47.6,47.6,0,0,1,.56,20.784,46.534,46.534,0,0,1-7.88,18.077,47.266,47.266,0,0,1-29.212,18.831l-3.951.617c-1.313.1-2.6.148-3.883.217a42.826,42.826,0,0,1-7.423-.343,47.186,47.186,0,0,1-12.9-3.586,48.349,48.349,0,0,1-9.7-5.778l-.879-.674.674.879h0l.08-.228Z" transform="translate(-432.13 -106.664)" fill="#263238"/>
      <path id="Path_5023" data-name="Path 5023" d="M487.4,147.125a4.568,4.568,0,1,0,1.338-3.287A4.568,4.568,0,0,0,487.4,147.125Z" transform="translate(-424.283 -101.576)" fill="#263238"/>
      <path id="Path_5024" data-name="Path 5024" d="M471.21,147.125a4.568,4.568,0,1,0,1.317-3.267A4.568,4.568,0,0,0,471.21,147.125Z" transform="translate(-426.582 -101.576)" fill="#263238"/>
      <path id="Path_5025" data-name="Path 5025" d="M455.133,144.819a4.568,4.568,0,1,0,2.8-2.17A4.568,4.568,0,0,0,455.133,144.819Z" transform="translate(-428.948 -101.577)" fill="#263238"/>
    </g>
  </g>
</svg>
