<svg xmlns="http://www.w3.org/2000/svg" xmlns:xlink="http://www.w3.org/1999/xlink" width="35" height="28" viewBox="0 0 35 28">
  <defs>
    <clipPath id="clip-Youtube">
      <rect width="35" height="28"/>
    </clipPath>
  </defs>
  <g id="Youtube" clip-path="url(#clip-Youtube)">
    <path id="_1384028" data-name="1384028" d="M34.279-2.247a4.385,4.385,0,0,0-3.085-3.085C28.456-6.082,17.5-6.082,17.5-6.082s-10.955,0-13.694.721A4.474,4.474,0,0,0,.721-2.247,46.2,46.2,0,0,0,0,6.171a46.033,46.033,0,0,0,.721,8.418,4.385,4.385,0,0,0,3.085,3.085c2.767.75,13.694.75,13.694.75s10.955,0,13.694-.721a4.385,4.385,0,0,0,3.085-3.085A46.217,46.217,0,0,0,35,6.2s.029-5.708-.721-8.447ZM14.012,11.418V.924l9.11,5.247Zm0,0" transform="translate(0 8.082)" fill="#fff"/>
  </g>
</svg>
