<?xml version="1.0" encoding="iso-8859-1"?>
<!-- Generator: Adobe Illustrator 19.0.0, SVG Export Plug-In . SVG Version: 6.00 Build 0)  -->
<svg version="1.1" id="Layer_1" xmlns="http://www.w3.org/2000/svg" xmlns:xlink="http://www.w3.org/1999/xlink" x="0px" y="0px"
	 viewBox="0 0 512 512" style="enable-background:new 0 0 512 512;" xml:space="preserve">
<g>
	<path style="fill:#B3404A;" d="M384.023,244.284c-5.029,0-9.902-2.673-12.486-7.397L258.191,29.738
		c-0.472-0.862-1.209-1.3-2.191-1.3c-0.983,0-1.719,0.438-2.191,1.3L140.465,236.887c-3.771,6.889-12.41,9.419-19.3,5.648
		c-6.889-3.77-9.419-12.41-5.648-19.298L228.862,16.086C234.292,6.164,244.69,0,256,0c11.31,0,21.71,6.164,27.139,16.086
		l113.344,207.151c3.77,6.889,1.241,15.529-5.648,19.298C388.67,243.721,386.329,244.284,384.023,244.284z"/>
	<path style="fill:#B3404A;" d="M127.991,501.712c-7.853,0-14.219-6.366-14.219-14.219V234.605c0-4.812,2.433-9.296,6.465-11.92
		c4.034-2.625,9.12-3.029,13.518-1.078c14.602,6.475,32.123,9.898,50.67,9.898c7.853,0,14.219,6.366,14.219,14.219
		c0,7.853-6.366,14.219-14.219,14.219c-14.708,0-28.997-1.826-42.215-5.346v232.896C142.21,495.346,135.844,501.712,127.991,501.712
		z"/>
</g>
<path style="fill:#F4B2B0;" d="M327.575,245.725c-28.62,0-54.248-7.576-71.574-19.527v248.207c0,12.91,10.465,23.375,23.375,23.375
	h81.26c12.91,0,23.375-10.465,23.375-23.375V234.605C368.264,241.59,348.732,245.725,327.575,245.725z"/>
<path style="fill:#B3404A;" d="M360.635,512h-81.26c-20.73,0-37.594-16.864-37.594-37.594V226.197c0-5.284,2.931-10.133,7.609-12.59
	c4.681-2.456,10.335-2.114,14.684,0.884c15.675,10.812,38.82,17.013,63.501,17.013c18.548,0,36.07-3.423,50.67-9.898
	c4.398-1.951,9.484-1.544,13.518,1.078c4.033,2.623,6.465,7.108,6.465,11.92v239.801C398.229,495.135,381.365,512,360.635,512z
	 M270.219,249.589v224.815c0,5.048,4.108,9.156,9.156,9.156h81.26c5.048,0,9.156-4.108,9.156-9.156V254.597
	c-13.22,3.522-27.507,5.346-42.215,5.346C307.11,259.944,287.228,256.281,270.219,249.589z"/>
<path style="fill:#F4B2B0;" d="M314.187,102.451l-43.521-79.539c-6.342-11.59-22.988-11.59-29.33,0l-43.521,79.539H314.187z"/>
<path style="fill:#B3404A;" d="M314.187,116.67H197.815c-5.022,0-9.672-2.649-12.233-6.969c-2.561-4.32-2.652-9.67-0.242-14.076
	l43.521-79.539C234.292,6.164,244.69,0,256,0c11.31,0,21.71,6.164,27.139,16.086l43.521,79.539c2.41,4.407,2.319,9.756-0.242,14.076
	C323.857,114.021,319.207,116.67,314.187,116.67z M221.805,88.231h68.394l-32.006-58.493c-0.472-0.862-1.209-1.3-2.191-1.3
	c-0.983,0-1.719,0.438-2.191,1.3L221.805,88.231z"/>
<g>
</g>
<g>
</g>
<g>
</g>
<g>
</g>
<g>
</g>
<g>
</g>
<g>
</g>
<g>
</g>
<g>
</g>
<g>
</g>
<g>
</g>
<g>
</g>
<g>
</g>
<g>
</g>
<g>
</g>
</svg>
