<?xml version="1.0"?>
<svg xmlns="http://www.w3.org/2000/svg" xmlns:xlink="http://www.w3.org/1999/xlink" version="1.1" id="Capa_1" x="0px" y="0px" viewBox="0 0 491.52 491.52" style="enable-background:new 0 0 491.52 491.52;" xml:space="preserve" width="512px" height="512px"><g><g>
	<g>
		<path d="M445.44,33.792H261.12V15.36c0-8.704-6.656-15.36-15.36-15.36S230.4,6.656,230.4,15.36v18.432H46.08    c-8.704,0-15.36,6.656-15.36,15.36v257.536H460.8V49.152C460.8,40.448,454.144,33.792,445.44,33.792z" data-original="#000000" class="active-path" data-old_color="#000000" fill="#FFFFFF"/>
	</g>
</g><g>
	<g>
		<path d="M476.16,332.288H15.36c-8.192,0-15.36,7.168-15.36,15.36c0,8.704,6.656,15.36,15.36,15.36h199.168l-90.624,95.744    c-5.632,6.144-5.632,15.872,0.512,21.504c6.144,5.632,15.872,5.632,21.504-0.512l84.48-89.088v85.504    c0,8.704,6.656,15.36,15.36,15.36s15.36-6.656,15.36-15.36v-85.504l84.48,89.088c5.632,6.144,15.36,6.656,21.504,0.512    c6.144-5.632,6.656-15.36,0.512-21.504l-90.624-95.744H476.16c8.704,0,15.36-6.656,15.36-15.36    C491.52,338.944,484.864,332.288,476.16,332.288z" data-original="#000000" class="active-path" data-old_color="#000000" fill="#FFFFFF"/>
	</g>
</g></g> </svg>
