<svg xmlns="http://www.w3.org/2000/svg" width="912.209" height="416.407" viewBox="0 0 912.209 416.407">
  <g id="About_us_page-pana" data-name="About us page-pana" transform="translate(-83.019 -196.54)">
    <g id="freepik--speech-bubble--inject-34" transform="translate(868.547 196.54)">
      <path id="Path_3310" data-name="Path 3310" d="M675.841,196.609A63.021,63.021,0,0,0,632.65,305.491L624.136,335.3l30.109-16.464a63.051,63.051,0,1,0,21.6-122.29Z" transform="translate(-612.532 -196.535)" fill="#f5f5f5"/>
      <path id="Path_3311" data-name="Path 3311" d="M675.945,196.614h1.127l3.293.133a16.28,16.28,0,0,1,2.432.133l2.966.43c1.053.178,2.2.282,3.4.549l3.782.949a62.3,62.3,0,0,1,36.709,27.321l1.958,3.218c.564,1.127,1.127,2.284,1.691,3.456a60.734,60.734,0,0,1,5.933,23.894,65.866,65.866,0,0,1-.148,8.9c-.1,1.483-.415,2.966-.623,4.45-.119.756-.223,1.483-.341,2.269l-.578,2.254a59.685,59.685,0,0,1-7.223,17.635A63.318,63.318,0,0,1,699.6,318.444a64.549,64.549,0,0,1-43.265,1.483l-2.047-.712h.311c-10.264,5.621-20.335,11.139-30.109,16.464l-.786.445.237-.875c2.966-10.279,5.8-20.246,8.528-29.812l.1.371a66.347,66.347,0,0,1-10.264-12.489,65.374,65.374,0,0,1-6.585-14.061,63.449,63.449,0,0,1-2.863-14.565c-.119-1.2-.163-2.4-.178-3.589a31.6,31.6,0,0,1,0-3.56,48.475,48.475,0,0,1,.608-6.927,62.86,62.86,0,0,1,8.781-24,64.695,64.695,0,0,1,14.55-16.434l3.916-2.966,3.96-2.4a30.8,30.8,0,0,1,3.841-2.017c1.276-.578,2.462-1.246,3.708-1.691a65.077,65.077,0,0,1,12.815-3.634l4.776-.7,3.5-.148h2.151l-2.136.148-3.5.208-4.746.742a65.9,65.9,0,0,0-12.726,3.723c-1.231.445-2.4,1.127-3.664,1.706a32.9,32.9,0,0,0-3.827,2.032l-3.975,2.418-3.812,2.966a63.907,63.907,0,0,0-14.357,16.315,62.3,62.3,0,0,0-8.558,23.82,49.859,49.859,0,0,0-.593,6.867,30.755,30.755,0,0,0,0,3.515,24.053,24.053,0,0,0,.178,3.56,62.274,62.274,0,0,0,19.564,40.625l.163.148-.074.222c-2.714,9.552-5.562,19.519-8.484,29.812l-.549-.445,30.094-16.464.148-.089h.178l2.032.7a63.615,63.615,0,0,0,42.731-1.483,62.68,62.68,0,0,0,30.391-25.911,59.2,59.2,0,0,0,7.179-17.428c.193-.742.386-1.483.564-2.225l.356-2.254c.193-1.483.5-2.966.623-4.45a67.045,67.045,0,0,0,.163-8.781,60.053,60.053,0,0,0-5.8-23.731l-1.661-3.426-1.928-3.189a62.3,62.3,0,0,0-18.214-18.97,62.934,62.934,0,0,0-18.11-8.35l-3.767-.994c-1.187-.267-2.329-.386-3.367-.578l-2.966-.46c-.89-.133-1.706-.119-2.418-.178l-3.293-.208A5.124,5.124,0,0,1,675.945,196.614Z" transform="translate(-612.636 -196.54)" fill="#263238"/>
      <path id="Path_3312" data-name="Path 3312" d="M646,240.6h4.45l9.73-13.571v-8.9s6.9-.415,6.081,11.243,0,8.677,0,8.677,14.624,0,15.841,1.335c.89.92,1.29,15.455,1.483,23.346a8.528,8.528,0,0,1-6.036,8.588,6.569,6.569,0,0,1-1.587.208c-3.649,0-22.248-2.966-22.248-2.966H646Z" transform="translate(-596.515 -186.108)" fill="#263238"/>
      <path id="Path_3313" data-name="Path 3313" d="M637.43,231.63l2.744,30.495h7.638V232.238Z" transform="translate(-600.656 -179.585)" fill="#263238"/>
    </g>
    <g id="freepik--character-1--inject-34" transform="translate(83.019 219.934)">
      <path id="Path_3314" data-name="Path 3314" d="M260.082,253.482c-.252,4.761-6.452,11.109-4.539,15.47,3.53,8.039,1.483,17.665-3.085,25.214s-11.406,13.349-18.125,18.955a151.793,151.793,0,0,0-3.041-34.929c-.742-3.589-1.958-7.594-5.236-9.226-4.257-2.106-9.656.934-14.016-.934-4.642-2.017-5.577-8.365-9.492-11.569-3.545-2.892-8.751-2.581-13.1-1.127s-8.336,3.9-12.8,4.895-9.848.1-12.325-3.753c-1.483-2.373-.43-.92-1.884-3.337,0,0-8.706.3-11.7-9.834,0,0-4.094-11.257,4.969-16.226,0,0,2.062-20.349,22.515-11.2,5.933,2.64,12.845-5.844,18.585-2.966,4.776,2.418,6.185,9.062,10.961,11.495,5.488,2.788,11.866-1.365,18.006-1.617a14.832,14.832,0,0,1,14.832,14.832s.964-4.064,7.624-2.284S260.557,244.2,260.082,253.482Z" transform="translate(-50.742 -212.313)" fill="#263238"/>
      <path id="Path_3315" data-name="Path 3315" d="M246.119,277.3a14.387,14.387,0,0,0-1.246-6.7c-.86-1.735-4.079-5.681-7.609-5.933l.519-20.958a8.35,8.35,0,0,0-7.416-8.454l-41.07-4.331a25.022,25.022,0,0,0-27.6,23.316c-.994,15.8-1.587,35.122.282,46.9,3.767,23.731,21.922,26.7,21.922,26.7l-.445,16.552c-.7,17.635,12.5,28.255,26.119,28.255s26.193-11.762,25.793-29.219l1.335-53.4a9.344,9.344,0,0,0,6.007-2.966,15,15,0,0,0,3.411-9.759Z" transform="translate(-45.456 -203.386)" fill="#ffbe9d"/>
      <path id="Path_3316" data-name="Path 3316" d="M167.53,256.166a3.055,3.055,0,0,0,2.966,3.07,2.912,2.912,0,1,0-2.966-3.07Z" transform="translate(-42.184 -192.452)" fill="#263238"/>
      <path id="Path_3317" data-name="Path 3317" d="M164.194,254.419c.371.4,2.67-1.305,5.933-1.305s5.666,1.646,6.022,1.246c.163-.178-.222-.89-1.261-1.646a8.306,8.306,0,0,0-4.82-1.483,7.891,7.891,0,0,0-4.731,1.483C164.342,253.529,163.942,254.241,164.194,254.419Z" transform="translate(-43.831 -193.508)" fill="#263238"/>
      <path id="Path_3318" data-name="Path 3318" d="M188.81,256.576a3.041,3.041,0,0,0,2.966,3.07,2.966,2.966,0,0,0,3.13-2.744,3.041,3.041,0,0,0-2.966-3.07A2.966,2.966,0,0,0,188.81,256.576Z" transform="translate(-31.902 -192.253)" fill="#263238"/>
      <path id="Path_3319" data-name="Path 3319" d="M185.857,254.829c.371.4,2.67-1.305,5.933-1.29s5.666,1.632,6.022,1.231c.163-.178-.208-.89-1.261-1.646a8.306,8.306,0,0,0-4.82-1.483A7.994,7.994,0,0,0,187,253.123C186.005,253.939,185.664,254.651,185.857,254.829Z" transform="translate(-33.353 -193.31)" fill="#263238"/>
      <path id="Path_3320" data-name="Path 3320" d="M180.528,279.012a22.472,22.472,0,0,0-5.31-.964c-.831-.074-1.617-.252-1.765-.816a4.346,4.346,0,0,1,.564-2.477l2.462-6.333c3.441-9.062,5.933-16.508,5.547-16.641s-3.441,7.09-6.867,16.152c-.831,2.225-1.617,4.361-2.358,6.393a4.85,4.85,0,0,0-.445,3.278,2.106,2.106,0,0,0,1.379,1.216,5.933,5.933,0,0,0,1.483.208,20.5,20.5,0,0,0,5.31-.015Z" transform="translate(-39.905 -193.243)" fill="#263238"/>
      <path id="Path_3321" data-name="Path 3321" d="M176.373,298.989a60.336,60.336,0,0,0,31.741-8.469s-8.217,17.8-31.933,15.618Z" transform="translate(-38.004 -174.523)" fill="#eb996e"/>
      <path id="Path_3322" data-name="Path 3322" d="M184.845,250.732c.326.89,3.589.475,7.416.934s6.941,1.483,7.416.712c.222-.386-.311-1.216-1.557-2.076a12.975,12.975,0,0,0-11.332-1.261C185.424,249.62,184.712,250.317,184.845,250.732Z" transform="translate(-33.825 -194.938)" fill="#263238"/>
      <path id="Path_3323" data-name="Path 3323" d="M163.837,249.331c.578.742,2.818,0,5.532,0s5,.489,5.532-.282c.237-.386-.133-1.127-1.127-1.824a8.024,8.024,0,0,0-8.9.282C163.9,248.2,163.585,248.96,163.837,249.331Z" transform="translate(-44.009 -196.029)" fill="#263238"/>
      <path id="Path_3324" data-name="Path 3324" d="M178.32,283.171c0-.074.222-.475.89-.89a5.74,5.74,0,0,1,2.966-.8,5.813,5.813,0,0,1,2.966.771c.667.415.964.8.9.875a14.384,14.384,0,0,0-3.827-.86,13.139,13.139,0,0,0-3.9.9Z" transform="translate(-36.97 -178.892)" fill="#eb996e"/>
      <path id="Path_3325" data-name="Path 3325" d="M210.87,270.329a19.046,19.046,0,0,0,2.254-1.1,6.081,6.081,0,0,0,2.744-4.865,6.215,6.215,0,0,0-2.462-5.058,5.205,5.205,0,0,0-2.254-.875c-.074-.089,1.1-.489,2.566.415a6.422,6.422,0,0,1,2.966,5.517,6.1,6.1,0,0,1-1.1,3.4,6.334,6.334,0,0,1-2.136,1.943A3.693,3.693,0,0,1,210.87,270.329Z" transform="translate(-21.242 -190.107)" fill="#eb996e"/>
      <path id="Path_3326" data-name="Path 3326" d="M158.625,227.406c-3.827,10.234,5.265,17.65,12.355,19.282,9.908,2.314,20.438-3.945,27.217-1.29,5.058,1.987,9.834,5.933,15.2,5.117,2.61-.386,5.191-1.884,7.727-1.2,3.248.89,4.568,4.835,4.45,8.2-.089,4.153-1.483,8.276-.964,12.4s4.2,8.38,8.217,7.283a9.878,9.878,0,0,0,6.734-8.9c.475-5.71-.578-12.5-.3-18.229.252-5.043.267-10.59-2.966-14.491s-8.692-4.954-13.72-5.636a381.746,381.746,0,0,0-64.015-3.382" transform="translate(-46.925 -205.518)" fill="#263238"/>
      <path id="Path_3327" data-name="Path 3327" d="M149.99,233.58a3.293,3.293,0,0,1-.208-1.068,6.288,6.288,0,0,1,.623-3.07,6.911,6.911,0,0,1,3.574-3.4,6.214,6.214,0,0,1,3.115-.341c1.112.1,2.225.4,3.4.46a6.659,6.659,0,0,0,3.5-.771,16.848,16.848,0,0,0,3.248-2.358c1.068-.92,2.151-1.928,3.4-2.833A11.049,11.049,0,0,1,175,218.288a16.093,16.093,0,0,1,9.923,1.691,46.679,46.679,0,0,1,8.781,6.274,34.38,34.38,0,0,0,8.766,5.933,10.1,10.1,0,0,0,4.82.742,13.764,13.764,0,0,0,4.45-1.483,41.78,41.78,0,0,1,8.247-3.8,16.315,16.315,0,0,1,7.95-.252,12.266,12.266,0,0,1,5.77,3.1,11.659,11.659,0,0,1,2.744,4.123,9.077,9.077,0,0,1,.608,3.07,5.664,5.664,0,0,1,0,.816q0,.267,0,.267a11.347,11.347,0,0,0-.8-4.034,11.51,11.51,0,0,0-2.759-3.93,11.865,11.865,0,0,0-5.592-2.877,15.929,15.929,0,0,0-7.653.326,41.927,41.927,0,0,0-8.113,3.827,13.971,13.971,0,0,1-4.746,1.483,10.767,10.767,0,0,1-5.176-.756,35.269,35.269,0,0,1-8.973-6.022,46.351,46.351,0,0,0-8.632-6.185,15.47,15.47,0,0,0-9.448-1.676c-3.1.519-5.34,2.7-7.416,4.539a17.385,17.385,0,0,1-3.4,2.388,7.327,7.327,0,0,1-3.812.8c-1.231-.089-2.343-.4-3.411-.534a6.066,6.066,0,0,0-2.966.267,6.7,6.7,0,0,0-3.456,3.13,6.452,6.452,0,0,0-.742,2.966C149.931,233.209,150.109,233.565,149.99,233.58Z" transform="translate(-50.764 -209.512)" fill="#455a64"/>
      <path id="Path_3328" data-name="Path 3328" d="M159.01,245.459a1.928,1.928,0,0,1-1.038,0,3.575,3.575,0,0,1-2.4-1.721,7.031,7.031,0,0,1-.564-4.657,13.438,13.438,0,0,1,2.432-5.74,12.874,12.874,0,0,1,6.037-4.539,13.349,13.349,0,0,1,8.647-.222,30.3,30.3,0,0,1,8.321,4.717,29.071,29.071,0,0,0,8.736,4.895,16.419,16.419,0,0,0,9.789-.534,46.8,46.8,0,0,0,8.5-4.049,76.317,76.317,0,0,1,7.638-4.019,21.684,21.684,0,0,1,7.3-1.884,13.556,13.556,0,0,1,10.16,3.411,9.033,9.033,0,0,1,1.75,2.4,4.167,4.167,0,0,1,.356.979,11.064,11.064,0,0,0-2.3-3.159,13.527,13.527,0,0,0-9.923-3.1,21.21,21.21,0,0,0-7.09,1.943,74.4,74.4,0,0,0-7.535,4.049,47.311,47.311,0,0,1-8.617,4.138,17.161,17.161,0,0,1-10.249.564,29.96,29.96,0,0,1-8.9-5.013,29.9,29.9,0,0,0-8.083-4.657,12.874,12.874,0,0,0-8.232.133,12.563,12.563,0,0,0-5.814,4.272,12.948,12.948,0,0,0-2.432,5.488,6.7,6.7,0,0,0,.4,4.45,3.5,3.5,0,0,0,2.151,1.765,5.665,5.665,0,0,0,.964.089Z" transform="translate(-48.318 -204.898)" fill="#455a64"/>
      <path id="Path_3329" data-name="Path 3329" d="M223.65,282.627a22.663,22.663,0,0,0,1.32-2.076,14.2,14.2,0,0,0,1.765-6.348,13.2,13.2,0,0,0-.564-4.45A16.879,16.879,0,0,0,223.8,265.1c-1.038-1.483-2.269-3.115-3.352-4.895a11.391,11.391,0,0,1-1.943-6.17,15.144,15.144,0,0,1,1.987-6.155,13.1,13.1,0,0,0,1.661-5.458,9.329,9.329,0,0,0-4.375-8.143,9.7,9.7,0,0,0-6.363-1.246,19.816,19.816,0,0,0-2.373.578,2.328,2.328,0,0,1,.549-.326,8.57,8.57,0,0,1,1.78-.549,9.671,9.671,0,0,1,6.674,1.068,9.834,9.834,0,0,1,4.82,8.632,13.838,13.838,0,0,1-1.691,5.77,14.506,14.506,0,0,0-1.9,5.844,10.634,10.634,0,0,0,1.824,5.77c1.038,1.721,2.254,3.293,3.293,4.88a17.545,17.545,0,0,1,2.4,4.88,13.572,13.572,0,0,1,.489,4.717,13.794,13.794,0,0,1-1.987,6.393,9.7,9.7,0,0,1-1.112,1.483A4.588,4.588,0,0,1,223.65,282.627Z" transform="translate(-22.126 -202.538)" fill="#455a64"/>
      <path id="Path_3330" data-name="Path 3330" d="M187.089,259.7a32.894,32.894,0,0,0-.623-3.693,14.976,14.976,0,0,0-26.609-5.176,14.832,14.832,0,0,0,0,17.576A13.6,13.6,0,0,0,163,271.577a13.8,13.8,0,0,0,3.753,2.032,14.951,14.951,0,0,0,14.15-2.076,15.277,15.277,0,0,0,5.562-8.232,33.679,33.679,0,0,0,.623-3.678,11.776,11.776,0,0,1-.326,3.752,15.2,15.2,0,0,1-5.607,8.721,15.47,15.47,0,0,1-14.713,2.314,14.372,14.372,0,0,1-3.96-2.106A14.831,14.831,0,0,1,159.175,269a15.5,15.5,0,0,1,0-18.481,15.534,15.534,0,0,1,15.455-6.066,15.44,15.44,0,0,1,12.058,11.539A11.863,11.863,0,0,1,187.089,259.7Z" transform="translate(-47.697 -196.917)" fill="#263238"/>
      <path id="Path_3331" data-name="Path 3331" d="M210.5,259.7a29.024,29.024,0,0,0-.623-3.693,14.982,14.982,0,0,0-26.609-5.176,14.832,14.832,0,0,0,0,17.576,13.883,13.883,0,0,0,3.144,3.174,14.09,14.09,0,0,0,3.767,2.032,15.054,15.054,0,0,0,19.667-10.234,29.662,29.662,0,0,0,.623-3.678,11.258,11.258,0,0,1-.326,3.753,15.158,15.158,0,0,1-5.488,8.647,15.47,15.47,0,0,1-14.713,2.314,14.373,14.373,0,0,1-3.96-2.106A14.951,14.951,0,0,1,182.661,269a15.559,15.559,0,0,1,0-18.481,15.811,15.811,0,0,1,7.282-5.429,15.633,15.633,0,0,1,8.187-.638,15.455,15.455,0,0,1,12.044,11.539A11.346,11.346,0,0,1,210.5,259.7Z" transform="translate(-36.342 -196.917)" fill="#263238"/>
      <path id="Path_3332" data-name="Path 3332" d="M182.136,253.038h0v.148h0v-.267h0v.3a10.1,10.1,0,0,1-2.492.237c-1.483,0-2.714-.178-2.714-.386s1.216-.386,2.714-.386a9.4,9.4,0,0,1,2.492.237v.3h0v-.267h0v.148h0Z" transform="translate(-37.642 -192.81)" fill="#263238"/>
      <path id="Path_3333" data-name="Path 3333" d="M218.859,255.638a55.247,55.247,0,0,1-9.344-.282,55.692,55.692,0,0,1-9.285-1.053,59.242,59.242,0,0,1,9.344.282,57.643,57.643,0,0,1,9.285,1.053Z" transform="translate(-26.383 -192.057)" fill="#263238"/>
      <path id="Path_3334" data-name="Path 3334" d="M190.46,269.59a4.02,4.02,0,0,1,.1,2.388,8.172,8.172,0,0,1-8.395,6.867,4,4,0,0,1-2.329-.578c0-.119.92.119,2.329,0a8.38,8.38,0,0,0,7.861-6.422A16.993,16.993,0,0,0,190.46,269.59Z" transform="translate(-36.236 -184.637)" fill="#263238"/>
      <path id="Path_3335" data-name="Path 3335" d="M149.512,341.38a1.986,1.986,0,0,1,0,.475v1.394c0,1.276,0,3.085.074,5.369,0,4.7,0,11.421.1,19.712,0,16.641-.5,39.631-1.795,64.994s-2.625,48.278-3.53,64.949c-.415,8.261-.756,14.98-.994,19.682q-.178,3.426-.267,5.34c0,.578-.074,1.038-.089,1.394a2.433,2.433,0,0,1,0,.475,1.692,1.692,0,0,1,0-.475v-1.394c0-1.276.074-3.07.133-5.354.133-4.657.371-11.391.742-19.7.7-16.627,2.047-39.587,3.308-64.949s1.943-48.337,2.032-64.979c0-8.276.1-15,.133-19.7,0-2.284,0-4.094.074-5.369v-1.394A1.987,1.987,0,0,1,149.512,341.38Z" transform="translate(-54.038 -149.948)" fill="#263238"/>
      <path id="Path_3336" data-name="Path 3336" d="M257.7,326.906c-7.98-9.211-23.568-10.56-30.48-5.562s-10.753,13.482-11.45,21.981,1.483,17.027,4.717,24.9c5.206,12.637,12.9,22.871,24.4,35.893l29.664,38.89-57.177,55.828,23.731,37.391,48.6-39.156,40.195-42.6" transform="translate(-18.936 -161.014)" fill="#8dc63f"/>
      <path id="Path_3337" data-name="Path 3337" d="M104.61,405.856a9.315,9.315,0,0,1,3.085-1.483,21.831,21.831,0,0,1,8.172-1.112,22.085,22.085,0,0,1,8.024,1.987,9.226,9.226,0,0,1,2.966,1.809c0,.1-1.187-.549-3.115-1.305a25.3,25.3,0,0,0-7.846-1.721,25.762,25.762,0,0,0-7.98.86C105.856,405.441,104.669,405.975,104.61,405.856Z" transform="translate(-72.587 -120.063)" fill="#263238"/>
      <path id="Path_3338" data-name="Path 3338" d="M329.484,341.845h0c-19.949-26.46-41.426-24.28-52.372-24.591V305.64c-8.083,0-19.133,7.283-24.844,12.489l-5.651,7.757h0a28.8,28.8,0,0,0-18.451-18.11,56.976,56.976,0,0,0-9.448-2.136v10.382c-26.816.756-41.159,8.083-59.076,28.818-.92,1.068-2.744,2.892-4.835,4.954h0L101.8,412.089c-10.827,11.984-20.765,28.477-18.436,44.5h0c2.536,18.036,13.052,29.9,33.179,43.5l55.768,36.146-.267,6.215H305.129s90.253-66.581,92.463-91.246C399.313,431.712,368.225,390.4,329.484,341.845ZM174.549,483.209l-39.023-29.115,42.153-43.621Zm127.792,2.314-1.053-21.551,5.666-56.614c11.124,12.755,31.711,38.074,31.711,41.856Z" transform="translate(-83.019 -167.217)" fill="#8dc63f"/>
      <path id="Path_3339" data-name="Path 3339" d="M223.8,313.51a11.339,11.339,0,0,1-1.009,1.765c-.712,1.1-1.735,2.685-3.085,4.6a105.026,105.026,0,0,1-11.673,14.061c-1.261,1.276-2.536,2.477-3.782,3.619l-.623.578v-.845a18.852,18.852,0,0,0-5.458-12.993,8.083,8.083,0,0,0-3.4-2.4,2.121,2.121,0,0,0-1.483.252,1.483,1.483,0,0,1,1.483-.519,7.712,7.712,0,0,1,3.693,2.314,18.911,18.911,0,0,1,3.916,5.31,19.1,19.1,0,0,1,1.958,8.024l-.623-.282c1.216-1.142,2.492-2.329,3.738-3.6a127.282,127.282,0,0,0,11.791-13.823l3.263-4.45a10.114,10.114,0,0,1,1.29-1.6Z" transform="translate(-29.737 -163.415)" fill="#263238"/>
      <path id="Path_3340" data-name="Path 3340" d="M174.49,312.68a8.438,8.438,0,0,1,1.157,1.379l2.966,3.9c2.477,3.322,5.829,7.95,9.507,13.082l2.4,3.352-.667.1a32.068,32.068,0,0,1,2.966-6.867,11.717,11.717,0,0,1,4.286-4.227,7.95,7.95,0,0,1,3.841-1.068,3.145,3.145,0,0,1,1.483.208H200.95a8.41,8.41,0,0,0-3.6,1.231,11.866,11.866,0,0,0-3.975,4.153,33.461,33.461,0,0,0-2.848,6.749l-.237.7-.43-.593-2.4-3.352c-3.678-5.132-6.971-9.8-9.329-13.2-1.083-1.617-2-2.966-2.744-4.049A8.008,8.008,0,0,1,174.49,312.68Z" transform="translate(-38.821 -163.816)" fill="#263238"/>
      <g id="Group_268" data-name="Group 268" transform="translate(163.568 151.579)" opacity="0.1">
        <path id="Path_3341" data-name="Path 3341" d="M193.3,321.659a22.841,22.841,0,0,1,5.8,18.2c-.282,2.165-.534,5.058,1.483,5.859,1.409.549,2.966-.415,4.108-1.365A80.7,80.7,0,0,0,225.6,318.841a4.865,4.865,0,0,0,.771-2.6,1.78,1.78,0,0,0-1.735-1.735,2.61,2.61,0,0,0-1.483,1.083c-6.17,7.119-12.993,14.521-19.163,21.625a15.752,15.752,0,0,0-3.426-10.961c-2.447-2.966-5.117-6.037-7.223-4.6" transform="translate(-193.3 -314.51)"/>
      </g>
      <path id="Path_3342" data-name="Path 3342" d="M238.836,493.182a3.756,3.756,0,0,1-.46-.623c-.326-.475-.727-1.1-1.246-1.869l-4.553-7.06c-3.871-6.14-9.285-14.7-15.588-24.651l-.148-.252.208-.193,13.912-13.883,30.272-29.961c3.856-3.767,7-6.823,9.225-9.018l2.551-2.418a8.1,8.1,0,0,1,.92-.816,6.78,6.78,0,0,1-.816.919c-.608.638-1.483,1.483-2.432,2.536l-9.107,9.24L231.45,445.26c-4.895,4.88-9.611,9.552-13.927,13.838v-.445c6.2,10.012,11.539,18.614,15.351,24.8,1.839,2.966,3.322,5.429,4.375,7.179.475.786.845,1.483,1.142,1.928a3.423,3.423,0,0,1,.445.623Z" transform="translate(-18.357 -120.444)" fill="#263238"/>
      <path id="Path_3343" data-name="Path 3343" d="M223.915,323.651l-.222.282-.682.8c-.638.682-1.483,1.75-2.551,3.144a31.473,31.473,0,0,0-5.681,13.542,38.9,38.9,0,0,0,3.307,21.4,50.533,50.533,0,0,0,6.526,11.168c2.8,3.575,5.77,7.149,8.81,10.991,11.969,15.084,22.248,29.13,29.812,39.216l8.9,11.969c1.023,1.365,1.824,2.462,2.418,3.263l.608.86.193.3a1.545,1.545,0,0,1-.252-.252l-.667-.816-2.521-3.248c-2.18-2.774-5.3-6.808-9.122-11.866-7.653-10-18.021-24-29.961-39.053-2.966-3.782-5.933-7.416-8.81-10.931a51.26,51.26,0,0,1-6.585-11.361,39.082,39.082,0,0,1-3.189-21.773,31.562,31.562,0,0,1,8.721-16.656l.742-.742C223.811,323.725,223.9,323.636,223.915,323.651Z" transform="translate(-19.796 -158.515)" fill="#263238"/>
      <path id="Path_3344" data-name="Path 3344" d="M270.146,336.56c0,.074-.816.356-2.21,1.1a22.027,22.027,0,0,0-5.265,4.049,43.62,43.62,0,0,0-5.933,7.92,121.283,121.283,0,0,1-6.63,10.382,25.215,25.215,0,0,1-19.282,10.264,23.555,23.555,0,0,1-6.749-.638,14.5,14.5,0,0,1-1.765-.519,3.834,3.834,0,0,1-.593-.252,32.332,32.332,0,0,0,9.077.86,25.54,25.54,0,0,0,9.478-2.536,25.213,25.213,0,0,0,9.166-7.653c2.625-3.411,4.613-7.06,6.63-10.234a41.766,41.766,0,0,1,6.155-7.935,20.677,20.677,0,0,1,5.518-3.945,13.733,13.733,0,0,1,1.721-.667,2.625,2.625,0,0,1,.682-.193Z" transform="translate(-15.999 -152.277)" fill="#fafafa"/>
      <path id="Path_3345" data-name="Path 3345" d="M271.611,427.839h-.356l-.994-.237c-.445-.119-.994-.193-1.646-.3a21.239,21.239,0,0,0-2.254-.252,41.782,41.782,0,0,0-14.313,1.839,71.583,71.583,0,0,0-9.418,3.441c-3.293,1.483-6.7,3.293-10.382,5.028a67.842,67.842,0,0,1-11.984,4.539,35.825,35.825,0,0,1-6.734,1.068,29.5,29.5,0,0,1-7.016-.5,41.158,41.158,0,0,1-12.741-5.251c-3.827-2.284-7.253-4.88-10.531-7.282-6.482-4.865-12.681-8.9-18.57-10.649a29.9,29.9,0,0,0-8.113-1.335,22.737,22.737,0,0,0-6.155.727,24.882,24.882,0,0,0-4.924,1.973l.282-.208.89-.534a17.573,17.573,0,0,1,3.678-1.483,22.707,22.707,0,0,1,6.244-.86,29.9,29.9,0,0,1,8.247,1.231c6.022,1.706,12.325,5.77,18.837,10.6,3.293,2.4,6.719,4.954,10.5,7.208a40.372,40.372,0,0,0,12.5,5.147,27.9,27.9,0,0,0,6.823.489,34.442,34.442,0,0,0,6.585-1.024,67.9,67.9,0,0,0,11.866-4.45c3.678-1.72,7.1-3.53,10.382-4.969a69.888,69.888,0,0,1,9.522-3.382,40.536,40.536,0,0,1,14.476-1.617,19.417,19.417,0,0,1,5.295,1.038Z" transform="translate(-52.839 -113.138)" fill="#fafafa"/>
      <path id="Path_3346" data-name="Path 3346" d="M140.422,415.61a2.23,2.23,0,0,1,.119.519,10.93,10.93,0,0,1,.178,1.483,22.348,22.348,0,0,1-.237,5.5,18.229,18.229,0,0,1-3.085,7.594,23.5,23.5,0,0,1-7.609,6.511c-2.966,1.824-6.037,3.352-8.484,5.132a23.273,23.273,0,0,0-5.725,5.532,9.211,9.211,0,0,0-1.706,4.983c0,1.276.193,1.973.1,1.987a1.483,1.483,0,0,1-.178-.489,7.7,7.7,0,0,1-.237-1.483,9.151,9.151,0,0,1,1.483-5.3,22.706,22.706,0,0,1,5.77-5.814c2.492-1.854,5.5-3.411,8.5-5.206a23.733,23.733,0,0,0,7.416-6.274,18.377,18.377,0,0,0,3.13-7.268,26.922,26.922,0,0,0,.475-5.4A14.193,14.193,0,0,1,140.422,415.61Z" transform="translate(-68.264 -114.08)" fill="#fafafa"/>
      <path id="Path_3347" data-name="Path 3347" d="M299.26,374.228a33.629,33.629,0,0,0-8.8,2.759,26.222,26.222,0,0,0-7.905,5.933,24.293,24.293,0,0,0-3.352,4.806c-.979,1.795-1.646,3.827-2.611,5.829a14.356,14.356,0,0,1-3.9,5.221,17.488,17.488,0,0,1-5.31,2.966,25.972,25.972,0,0,1-10.086,1.246,59.771,59.771,0,0,1-6.793-.8,15.962,15.962,0,0,1-2.447-.519,14.612,14.612,0,0,1,2.492.223c1.6.163,3.9.475,6.763.549a26.283,26.283,0,0,0,9.834-1.38,14.52,14.52,0,0,0,8.751-7.816c.934-1.958,1.617-4,2.64-5.859a24.224,24.224,0,0,1,3.545-4.88,26.032,26.032,0,0,1,8.2-6.022,24.635,24.635,0,0,1,6.526-2.047,18.3,18.3,0,0,1,1.854-.208A1.824,1.824,0,0,1,299.26,374.228Z" transform="translate(-3.272 -134.087)" fill="#fafafa"/>
      <path id="Path_3348" data-name="Path 3348" d="M274.672,387.67l-.341.1-1.009.222c-.89.193-2.21.43-3.93.7a89.357,89.357,0,0,1-14.639,1.038A67.843,67.843,0,0,1,233.32,386.1a71.19,71.19,0,0,1-11.658-5.473,84.532,84.532,0,0,0-12.311-6.007,28.181,28.181,0,0,0-6.7-1.483,26.89,26.89,0,0,0-6.66.326,43.384,43.384,0,0,0-11.866,4.3c-7.194,3.812-13.245,8.054-18.718,11.005a45.178,45.178,0,0,1-13.66,5.34,19.282,19.282,0,0,1-3.96.43h-1.038a1.3,1.3,0,0,1-.356,0h.356l1.023-.119a22.54,22.54,0,0,0,3.916-.578,47.017,47.017,0,0,0,13.453-5.5c5.384-2.966,11.406-7.283,18.644-11.168a43.609,43.609,0,0,1,12.118-4.45,27.721,27.721,0,0,1,6.852-.356,28.65,28.65,0,0,1,6.9,1.557A83.179,83.179,0,0,1,222.063,380,74.324,74.324,0,0,0,233.6,385.46a68.436,68.436,0,0,0,21.195,3.752,96.214,96.214,0,0,0,14.58-.786c1.721-.222,3.041-.415,3.945-.564l1.023-.133A1.29,1.29,0,0,1,274.672,387.67Z" transform="translate(-52.399 -135.011)" fill="#fafafa"/>
      <path id="Path_3349" data-name="Path 3349" d="M147.746,401.173a5.072,5.072,0,0,0-.089-2.284A6.571,6.571,0,0,0,143,395.077c-1.29-.386-2.759-.608-4.331-.964a10.723,10.723,0,0,1-4.761-2.18,12.637,12.637,0,0,1-3.293-4.746,37.7,37.7,0,0,1-1.706-5.933,32.484,32.484,0,0,0-1.691-5.755,21.418,21.418,0,0,0-2.774-4.806,21.077,21.077,0,0,0-7.164-6.037,22.336,22.336,0,0,0-5.933-2.106c-1.483-.3-2.329-.356-2.329-.43a1.586,1.586,0,0,1,.623,0,14.3,14.3,0,0,1,1.75.163,20.32,20.32,0,0,1,6.215,1.913,21.09,21.09,0,0,1,7.416,6.1,21.552,21.552,0,0,1,2.966,4.939,33,33,0,0,1,1.75,5.933,37.337,37.337,0,0,0,1.646,5.77,12.088,12.088,0,0,0,3.055,4.45,10.1,10.1,0,0,0,4.45,2.106c1.483.386,2.966.638,4.346,1.068a6.808,6.808,0,0,1,4.791,4.242,3.619,3.619,0,0,1,0,1.795A1.483,1.483,0,0,1,147.746,401.173Z" transform="translate(-70.456 -139.941)" fill="#fafafa"/>
      <path id="Path_3350" data-name="Path 3350" d="M250.495,342.538a19.846,19.846,0,0,0-4.361-1.765,13.54,13.54,0,0,0-5.458,0,28.186,28.186,0,0,0-6.927,2.329c-2.477,1.112-5.087,2.566-7.935,4.064a45.217,45.217,0,0,1-9.537,3.96,27.707,27.707,0,0,1-11.406.371,44.408,44.408,0,0,1-11.628-3.841c-7.579-3.693-13.883-8.647-19.964-12.5A53.4,53.4,0,0,0,156,327.247a28.061,28.061,0,0,0-12.741-.148,45.11,45.11,0,0,0-4.45,1.483,17.709,17.709,0,0,1,4.45-1.765,27.453,27.453,0,0,1,12.933-.089,53.037,53.037,0,0,1,17.546,7.831c6.14,3.841,12.444,8.781,19.9,12.414a44.185,44.185,0,0,0,11.421,3.8,27.291,27.291,0,0,0,11.109-.326,44.36,44.36,0,0,0,9.418-3.827c2.848-1.483,5.488-2.966,8.009-4a29.145,29.145,0,0,1,7.075-2.254,13.75,13.75,0,0,1,5.606.208,14.1,14.1,0,0,1,3.263,1.365,10.4,10.4,0,0,1,.949.608Z" transform="translate(-56.061 -157.38)" fill="#fafafa"/>
      <path id="Path_3351" data-name="Path 3351" d="M215.583,474.02l4.123,2.062h23.731l4.791-3.916L230.964,443.6c-2.121.934-11.435,2.388-14.446,3.441a24.163,24.163,0,0,1-8.083,1.365,43.984,43.984,0,0,1-9.151-.756l-.653-.208a3.277,3.277,0,0,0-1.276-.267c-2.566-.222-4.6,2.462-3.159,4.583s8.454,4.954,17.413,4.7h.43c7.861,0,.653,6.585-4.02,10.5a6.2,6.2,0,0,0-2.254,5.621,2.64,2.64,0,0,0,1.053,1.928C208.805,475.771,215.583,474.02,215.583,474.02Z" transform="translate(-29.53 -100.555)" fill="#ffbe9d"/>
      <path id="Path_3352" data-name="Path 3352" d="M143.218,514.539a1.825,1.825,0,0,1,0-.415v-1.231c0-1.142.089-2.729.163-4.731.178-4.153.415-10.071.727-17.368.608-14.713,1.483-34.944,2.388-57.3s1.483-42.657,1.9-57.326c.163-7.3.282-13.215.371-17.383,0-2,.074-3.589.1-4.731V352.84a1.643,1.643,0,0,1,0-.43,1.4,1.4,0,0,1,0,.43v5.948c0,4.108,0,10.041-.119,17.383-.208,14.684-.8,34.959-1.676,57.355s-1.839,42.642-2.61,57.3c-.415,7.283-.742,13.2-.979,17.354-.133,2-.237,3.589-.311,4.716l-.1,1.231A1.973,1.973,0,0,1,143.218,514.539Z" transform="translate(-54.003 -144.618)" fill="#263238"/>
      <path id="Path_3353" data-name="Path 3353" d="M187.242,533.36a2.21,2.21,0,0,1,0-.549c0-.4-.074-.934-.133-1.617l-.43-6.244c-.178-2.7-.4-6.022-.519-9.878s-.4-8.232-.43-13.082-.208-10.175-.133-15.885v-8.9c0-3.1.133-6.17.208-9.374.371-12.83,1.038-26.92,2.076-41.693,2.076-29.56,4.717-56.243,6.407-75.569.831-9.641,1.483-17.442,1.987-22.9.222-2.655.415-4.746.534-6.215.074-.682.119-1.216.163-1.617s.074-.549.074-.549a2.52,2.52,0,0,1,0,.549l-.074,1.632q-.156,2.225-.4,6.229c-.341,5.414-.949,13.245-1.735,22.915-1.557,19.282-4.108,45.979-6.185,75.569-1.038,14.832-1.72,28.848-2.136,41.663,0,3.2-.163,6.333-.237,9.374s0,5.933-.1,8.9c-.089,5.7,0,11.005,0,15.855s.222,9.24.311,13.082.252,7.179.386,9.878.222,4.776.3,6.244v1.631a2.6,2.6,0,0,1,.074.549Z" transform="translate(-33.463 -160.622)" fill="#263238"/>
      <path id="Path_3354" data-name="Path 3354" d="M194.664,365.145c-.074-.074.756-.415,1.676.371a2.139,2.139,0,1,1-3.248.549c.608-1.053,1.483-.994,1.483-.89s-.638.252-.979,1.127a1.75,1.75,0,0,0,0,1.483,1.572,1.572,0,0,0,2.729-.46,1.78,1.78,0,0,0-.415-1.379C195.346,365.189,194.664,365.278,194.664,365.145Z" transform="translate(-29.969 -138.531)" fill="#263238"/>
      <path id="Path_3355" data-name="Path 3355" d="M191.851,410.047c-.074-.074.771-.43,1.691.371a2.18,2.18,0,0,1,.712,1.869,2.076,2.076,0,0,1-1.795,1.705,2.121,2.121,0,0,1-2.255-1.023,2.239,2.239,0,0,1,.089-2.017c.608-1.053,1.483-.979,1.483-.89a2.568,2.568,0,0,0-.979,1.127,1.691,1.691,0,0,0,0,1.483,1.483,1.483,0,0,0,2.714-.46,1.691,1.691,0,0,0-.415-1.365C192.548,410.047,191.851,410.15,191.851,410.047Z" transform="translate(-31.323 -116.837)" fill="#263238"/>
      <path id="Path_3356" data-name="Path 3356" d="M273.761,452.287a9.82,9.82,0,0,1-1.987-.252,27.16,27.16,0,0,1-5.221-1.676A29.189,29.189,0,0,1,253.2,438.42a46.141,46.141,0,0,1-3.693-9.24,27.439,27.439,0,0,0-3.278-7.268,13.541,13.541,0,0,0-3.767-3.767c-1.083-.668-1.765-.89-1.735-.964a1.661,1.661,0,0,1,.5.119,8.066,8.066,0,0,1,1.379.593,12.459,12.459,0,0,1,4.064,3.708,26.964,26.964,0,0,1,3.515,7.416,47.463,47.463,0,0,0,3.678,9.077,29.783,29.783,0,0,0,12.919,11.866,47.168,47.168,0,0,0,6.971,2.329Z" transform="translate(-6.814 -113.321)" fill="#fafafa"/>
    </g>
    <g id="freepik--character-2--inject-34" transform="translate(175.661 232.742)">
      <path id="Path_3357" data-name="Path 3357" d="M454.561,538.4l-25.214-73.181L441,395c3.4-18.94,5.3-35.6.208-45.134-13.6-25.407-30.02-27.691-52.446-33.52-4.628-1.2-39.824-2.388-43.7-1.483-30.539,3.426-50.088,19.623-60.811,45.979l-11.628,46.869-15.974,48.946a20.957,20.957,0,0,1-14.076,11.465L181,489.169l.519,12.059L181,517.543l82.021-15.44c16.434-3.085,33.15-9.151,37.866-25.007l8.825-26.134c4.316,11.065,9.018,21.21,9.018,21.21l-5.933,65.9Z" transform="translate(-128.317 -175.722)" fill="#455a64"/>
      <path id="Path_3358" data-name="Path 3358" d="M403.038,396.358,379.6,474.716a37.822,37.822,0,0,1-25.214,25.333l-97.535,25.986L243.92,492.366l88.161-32.779,21.64-78.461s5-43.873,44.674-41.619" transform="translate(-97.914 -163.701)" fill="#455a64"/>
      <path id="Path_3359" data-name="Path 3359" d="M398.554,339.493h-1.187c-.786,0-1.943-.089-3.471,0a38.755,38.755,0,0,0-13.037,2.655,35.049,35.049,0,0,0-8.41,4.717,40.712,40.712,0,0,0-8.024,8.217,59.654,59.654,0,0,0-10.279,26h0c-5.933,21.833-13.349,48.56-21.551,78.506v.178h-.163l-88.221,32.942.222-.489,2.3,5.933c3.634,9.492,7.223,18.837,10.62,27.691l-.46-.237,83.8-22.248,9.448-2.521c1.483-.415,3.1-.8,4.613-1.246a39.466,39.466,0,0,0,4.361-1.661,37.287,37.287,0,0,0,18.436-18.243,52.437,52.437,0,0,0,2.759-7.742q2.343-7.772,4.45-14.832c5.71-18.9,10.293-34.114,13.453-44.5l3.664-12.014.964-3.1c.222-.7.356-1.053.356-1.053s-.089.371-.282,1.068-.5,1.765-.9,3.13c-.816,2.774-2,6.823-3.53,12.058l-13.23,44.6q-2.091,7.1-4.45,14.832a52.45,52.45,0,0,1-2.759,7.831,37.9,37.9,0,0,1-4.45,7.416,38.3,38.3,0,0,1-14.209,11.243,42.86,42.86,0,0,1-4.45,1.706c-1.483.445-3.07.831-4.628,1.261l-9.448,2.521L257.072,526.48l-.326.089-.119-.312c-3.4-8.9-7-18.214-10.635-27.691l-2.3-5.933-.133-.356.356-.134,88.176-32.749-.222.237c8.291-29.916,15.692-56.643,21.729-78.446h0a59.624,59.624,0,0,1,10.471-26.178,40.268,40.268,0,0,1,8.143-8.261,35.256,35.256,0,0,1,8.514-4.7,37.569,37.569,0,0,1,13.141-2.536,31.261,31.261,0,0,1,3.471,0Z" transform="translate(-98.088 -163.686)" fill="#263238"/>
      <path id="Path_3360" data-name="Path 3360" d="M313.345,414.417a4.108,4.108,0,0,1-1.172.089,14.492,14.492,0,0,1-3.159-.371,20.616,20.616,0,0,1-9.255-4.88,22.575,22.575,0,0,1-6.022-8.558,11.868,11.868,0,0,1-.578-1.735,8.559,8.559,0,0,1-.3-1.335c-.119-.742-.163-1.157-.1-1.157a38.393,38.393,0,0,0,1.483,4,24.532,24.532,0,0,0,6.022,8.2,22.1,22.1,0,0,0,8.9,4.924C311.684,414.283,313.345,414.254,313.345,414.417Z" transform="translate(-74.328 -136.136)" fill="#263238"/>
      <path id="Path_3361" data-name="Path 3361" d="M270.485,368.39a13.2,13.2,0,0,1-.816,2.3c-.578,1.483-1.483,3.575-2.418,6.215-1.928,5.236-4.642,12.667-4.924,21.21a35.315,35.315,0,0,0,1.617,11.866,42.478,42.478,0,0,0,4.019,8.9,60.3,60.3,0,0,0,3.693,5.5,18.556,18.556,0,0,1,1.483,1.987,4.394,4.394,0,0,1-.475-.445c-.3-.311-.7-.742-1.2-1.35a45.328,45.328,0,0,1-3.945-5.414,42.213,42.213,0,0,1-4.227-9,35.6,35.6,0,0,1-1.706-12.058,63.853,63.853,0,0,1,5.147-21.388c1.053-2.61,2-4.687,2.655-6.126a15.659,15.659,0,0,1,1.1-2.2Z" transform="translate(-89.386 -149.704)" fill="#263238"/>
      <path id="Path_3362" data-name="Path 3362" d="M312.092,430.921a29.117,29.117,0,0,0-3.589-6.081,28.713,28.713,0,0,0-5.473-4.45,4.315,4.315,0,0,1,2.017.7,14.164,14.164,0,0,1,6.645,7.713,4.45,4.45,0,0,1,.4,2.121Z" transform="translate(-69.352 -124.578)" fill="#263238"/>
      <path id="Path_3363" data-name="Path 3363" d="M254.095,445.7s-27.9,2.492-27.513,20.616l34.737-1.765Z" transform="translate(-106.294 -112.348)" fill="#b78876"/>
      <path id="Path_3364" data-name="Path 3364" d="M278.985,244.39q-3.827,18.51-7.3,37.08c-2.966,15.692-5.636,32.1-1.2,47.462,2.432,8.425,6.912,16.078,11.346,23.642,2.492,4.242,5.221,8.721,9.641,10.916,6.007,2.966,13.6.623,18.392-4.079s7.208-11.258,8.9-17.8c3.219-12.667,3.93-25.823,4.45-38.889s.786-26.623-2.966-39.29-11.969-24.651-24.206-29.664" transform="translate(-86.213 -214.752)" fill="#263238"/>
      <path id="Path_3365" data-name="Path 3365" d="M276.81,240.166a21.625,21.625,0,0,1,12.147-4.524c3.56-7.208,12-10.516,19.89-12.044,11.628-2.269,10.382-2.581,21.195,2.2s26.208,18.273,28.181,29.961a106.658,106.658,0,0,0,9.745,29.486c2.966,6.155,8.751,10.382,12.177,16.315a24.325,24.325,0,0,1,1.409,21.358c-2.788,6.689-8.706,12.592-8.143,19.8.311,4.2.163,7.194,1.824,11.065,5.621,13.111,2.966,30.584-9.107,38.148s-29.545,4.924-38.875-5.933c-8.1-9.374-9.656-22.752-8.9-35.122s3.6-24.666,2.8-37.08" transform="translate(-82.021 -220.437)" fill="#263238"/>
      <path id="Path_3366" data-name="Path 3366" d="M354.122,495.469l-.178-4.272-62.888-6.63L263.5,405.35,145.48,402.68l35.7,92.789Q268.7,496.137,354.122,495.469Z" transform="translate(-145.48 -133.135)" fill="#263238"/>
      <path id="Path_3367" data-name="Path 3367" d="M189.9,437.833a6.17,6.17,0,1,0,2.269-8.425A6.17,6.17,0,0,0,189.9,437.833Z" transform="translate(-124.415 -120.618)" fill="#fff"/>
      <path id="Path_3368" data-name="Path 3368" d="M321.778,383.849c14.15,0,26.876-12.058,26.46-29.975l2.551-102.341h0a8.543,8.543,0,0,0-7.653-8.677l-42.167-4.45a25.689,25.689,0,0,0-28.329,23.939c-1.009,16.2-1.617,36.027.3,48.115,3.856,24.31,22.5,27.41,22.5,27.41l-.46,16.983c-.712,18.1,12.83,28.982,26.8,28.982Z" transform="translate(-84.496 -212.58)" fill="#b78876"/>
      <path id="Path_3369" data-name="Path 3369" d="M278.69,264.316a3.115,3.115,0,0,0,2.966,3.144,2.966,2.966,0,0,0,3.2-2.8,3.1,3.1,0,0,0-2.966-3.144,2.967,2.967,0,0,0-3.2,2.8Z" transform="translate(-81.113 -201.351)" fill="#263238"/>
      <path id="Path_3370" data-name="Path 3370" d="M275.245,262.514c.386.4,2.759-1.335,6.111-1.335s5.814,1.691,6.17,1.276c.178-.178-.208-.9-1.276-1.691a8.618,8.618,0,0,0-4.954-1.483,8.217,8.217,0,0,0-4.85,1.572C275.408,261.594,275.067,262.336,275.245,262.514Z" transform="translate(-82.8 -202.426)" fill="#263238"/>
      <path id="Path_3371" data-name="Path 3371" d="M300.53,264.737a3.1,3.1,0,0,0,2.966,3.144,2.966,2.966,0,0,0,3.219-2.8,3.115,3.115,0,0,0-2.966-3.144,2.966,2.966,0,0,0-3.219,2.8Z" transform="translate(-70.56 -201.149)" fill="#263238"/>
      <path id="Path_3372" data-name="Path 3372" d="M297.486,262.934c.386.415,2.744-1.335,6.1-1.335s5.814,1.691,6.185,1.276c.178-.178-.208-.9-1.29-1.691a8.632,8.632,0,0,0-4.939-1.483,8.262,8.262,0,0,0-4.865,1.572C297.65,262.014,297.294,262.756,297.486,262.934Z" transform="translate(-72.055 -202.223)" fill="#263238"/>
      <path id="Path_3373" data-name="Path 3373" d="M292.031,287.769a22.252,22.252,0,0,0-5.443-.979c-.86-.089-1.676-.267-1.824-.845a4.45,4.45,0,0,1,.579-2.551c.8-2.062,1.646-4.242,2.536-6.511,3.515-9.3,6.066-16.938,5.681-17.072s-3.53,7.282-7.045,16.567c-.845,2.3-1.661,4.45-2.432,6.571a5.042,5.042,0,0,0-.445,3.352,2.18,2.18,0,0,0,1.409,1.261,5.547,5.547,0,0,0,1.483.193,21.358,21.358,0,0,0,5.5.015Z" transform="translate(-78.777 -202.17)" fill="#263238"/>
      <path id="Path_3374" data-name="Path 3374" d="M287.7,308.262a61.85,61.85,0,0,0,32.556-8.692s-7.905,16.7-32.23,14.432Z" transform="translate(-76.759 -182.958)" fill="#aa6550"/>
      <path id="Path_3375" data-name="Path 3375" d="M290.347,284.855a5.933,5.933,0,0,1,5.414-2.24,5.547,5.547,0,0,1,3.812,2.032,3.5,3.5,0,0,1,.267,4,4.049,4.049,0,0,1-4.449,1.112,12.9,12.9,0,0,1-4.286-2.551,3.767,3.767,0,0,1-.949-.994,1.112,1.112,0,0,1,0-1.261" transform="translate(-75.668 -191.173)" fill="#aa6550"/>
      <path id="Path_3376" data-name="Path 3376" d="M299.4,280.22c-.549,0-.564,3.619-3.678,6.2s-6.986,2.18-7.016,2.7c0,.222.86.7,2.507.742a9.092,9.092,0,0,0,5.933-2.032,7.89,7.89,0,0,0,2.833-5.206C300.056,281.11,299.641,280.205,299.4,280.22Z" transform="translate(-76.271 -192.308)" fill="#263238"/>
      <path id="Path_3377" data-name="Path 3377" d="M296.455,258.741c.326.92,3.678.489,7.624.964s7.119,1.483,7.638.727c.237-.4-.326-1.246-1.6-2.136a12.754,12.754,0,0,0-5.666-1.987,12.933,12.933,0,0,0-5.933.7C297.048,257.6,296.322,258.311,296.455,258.741Z" transform="translate(-72.537 -203.904)" fill="#263238"/>
      <path id="Path_3378" data-name="Path 3378" d="M276.087,256.023c.593.771,2.966,0,5.7,0s5.132.5,5.666-.282c.237-.386-.134-1.157-1.157-1.869a8.173,8.173,0,0,0-9.151.282C276.161,254.866,275.835,255.652,276.087,256.023Z" transform="translate(-82.41 -205.65)" fill="#263238"/>
      <path id="Path_3379" data-name="Path 3379" d="M272.67,263.981c9.151-5.31,18.065-10.219,23.731-19.118,3.159,8.9,9.329,13.349,17.517,18.08s17.339,7.505,26.4,10.219c-4.583,4.45-5.191,11.643-4.138,17.947s3.471,12.37,3.871,18.748c.519,8.514-2.6,16.864-2.788,25.392-.267,11.7,4.895,22.752,9.952,33.3l21.966-12.8-3.159-57.029.267-40.358L332.042,226.53l-43.369,4.746Z" transform="translate(-84.022 -218.251)" fill="#263238"/>
      <path id="Path_3380" data-name="Path 3380" d="M271.563,386.595c11.139,11.258,9.952,31.325,22.248,41.4,7.505,6.17,18.466,6.749,27.677,3.634s16.953-9.418,24.057-16.063,13.823-13.779,21.907-19.163c7.846-5.236,21.284-8.454,23.182-17.709,1.394-6.763-5.725-14.906-7.06-21.684-2.121-10.768,9.522-19.089,11.465-29.886,3.886-21.581-7.505-46.914-19.371-65.261s-18.57-39.127-48.649-40.832c-26.92-1.2-45.252,11.717-54.211,30.406-4.45,9.359-5.532,19.949-6.407,30.3-2.032,24.176-3.159,49.806,8.009,71.342,2.314,4.45,5.073,10.115,1.958,14.061-2.848,3.6-9.3,3.456-11.109,7.683S268.211,383.2,271.563,386.595Zm33.55-143.322c3.6-.148,14.3,0,26.223,15.885,7.134,9.507,7.119,24.9,6.971,38.326-.133,9.982,0,35.241,0,35.241s1.572,31.9-9.27,34.722c-13.349,3.471-24.962,1.083-34.915-8.395s-15.648-22.782-17.917-36.338-3.545-27.38-1.765-41.01a57.429,57.429,0,0,1,8.1-23.6A33,33,0,0,1,305.113,243.273Z" transform="translate(-87.795 -220.948)" fill="#8dc63f"/>
      <g id="Group_269" data-name="Group 269" transform="translate(226.307 129.486)" opacity="0.3">
        <path id="Path_3381" data-name="Path 3381" d="M372.22,326.078c-8.9,4.835-15.054,12.029-22.248,19.118s-15.336,13.957-25.214,16.508-21.759-.489-26.7-9.374c27.84,4.746,60.159-17.487,69.71-44.081a15.485,15.485,0,0,0-.089,7.045A94.261,94.261,0,0,0,372.22,326.078Z" transform="translate(-298.06 -308.25)"/>
      </g>
      <g id="Group_270" data-name="Group 270" transform="translate(188.322 139.973)" opacity="0.3">
        <path id="Path_3382" data-name="Path 3382" d="M273.9,315.32a27.365,27.365,0,0,0,13.453,17,17.8,17.8,0,0,1,4.242,2.507,4.123,4.123,0,0,1,1.29,4.45,4,4,0,0,1-4.776,1.75,11.866,11.866,0,0,1-4.45-3.144c-4.85-4.687-9.848-9.433-11.213-16.019a7.816,7.816,0,0,0,1.6-3.308A14.935,14.935,0,0,0,273.9,315.32Z" transform="translate(-272.45 -315.32)"/>
      </g>
      <path id="Path_3383" data-name="Path 3383" d="M369.3,311.8a3.772,3.772,0,0,1-.415.86c-.311.549-.712,1.394-1.35,2.4a81.953,81.953,0,0,1-5.755,8.336,89.723,89.723,0,0,1-10.16,11.079,62.294,62.294,0,0,1-15.129,10.486,70.416,70.416,0,0,1-8.988,3.219,68.738,68.738,0,0,1-8.692,1.928,60.722,60.722,0,0,1-15.025.564,52.028,52.028,0,0,1-9.952-1.9c-1.157-.311-2.017-.667-2.61-.875a3.752,3.752,0,0,1-.89-.371s1.276.356,3.589.949a55.593,55.593,0,0,0,9.923,1.646,62.387,62.387,0,0,0,14.832-.712,69.348,69.348,0,0,0,8.573-1.958,71.185,71.185,0,0,0,8.9-3.189,63.256,63.256,0,0,0,14.965-10.382A93.831,93.831,0,0,0,361.316,323a95.691,95.691,0,0,0,5.933-8.158c.667-.979,1.112-1.795,1.483-2.314A6.142,6.142,0,0,1,369.3,311.8Z" transform="translate(-75.489 -177.048)" fill="#263238"/>
      <path id="Path_3384" data-name="Path 3384" d="M309.291,337.4a6.922,6.922,0,0,1-1.765.46,27.768,27.768,0,0,1-4.954.445,30.435,30.435,0,0,1-26.994-16.182,27.31,27.31,0,0,1-1.943-4.6,7.015,7.015,0,0,1-.415-1.78,64.065,64.065,0,0,0,2.848,6.111,31.147,31.147,0,0,0,26.49,15.9C306.726,337.879,309.277,337.242,309.291,337.4Z" transform="translate(-83.756 -175.14)" fill="#263238"/>
      <path id="Path_3385" data-name="Path 3385" d="M293.65,370.375a3.177,3.177,0,0,1,.86-.223c.564-.133,1.483-.252,2.492-.519a78.467,78.467,0,0,0,9-2.507,102.7,102.7,0,0,0,27.1-14.491,224.664,224.664,0,0,0,23.36-20.186l6.734-6.526c.742-.727,1.365-1.305,1.839-1.765a4.211,4.211,0,0,1,.682-.579,4.447,4.447,0,0,1-.564.682l-1.75,1.869c-1.483,1.6-3.752,3.9-6.556,6.7a202.472,202.472,0,0,1-23.286,20.438,98.351,98.351,0,0,1-27.38,14.372,67.129,67.129,0,0,1-9.122,2.284c-1.083.222-1.958.3-2.536.371A3.542,3.542,0,0,1,293.65,370.375Z" transform="translate(-73.884 -171.356)" fill="#263238"/>
    </g>
    <g id="freepik--character-3--inject-34" transform="translate(625.06 221.948)">
      <path id="Path_3386" data-name="Path 3386" d="M741.163,407.073l-52.327-61.7-.119.119c-2.062-2.032-3.871-3.841-4.791-4.895-18.125-21-32.527-28.181-60.277-28.566h0l-53.929,1.157c-10.026.831-32.779-3.456-53.825,24.443h0c-38.341,48.041-69.087,88.9-67.352,108.185,2.18,24.4,95.236,93.961,95.236,93.961l127.911-.1-.267-9.745,55.19-35.819c19.9-13.453,30.3-25.214,32.823-43.013C761.646,435.254,751.827,418.939,741.163,407.073ZM506.818,443.8c0-3.752,20.172-27.41,31.147-40.046l5.71,54.626-.979,21.343Zm162.277,33.624-3.041-71.995h0l41.708,43.146Z" transform="translate(-448.473 -166.143)" fill="#455a64"/>
      <rect id="Rectangle_242" data-name="Rectangle 242" width="115.615" height="79.129" rx="3.42" transform="matrix(0.896, -0.443, 0.443, 0.896, 41.592, 320.061)" fill="#e0e0e0"/>
      <path id="Path_3387" data-name="Path 3387" d="M523.913,432.471a5.859,5.859,0,1,1-1.943,8.054A5.859,5.859,0,0,1,523.913,432.471Z" transform="translate(-413.375 -108.363)" fill="#fff"/>
      <path id="Path_3388" data-name="Path 3388" d="M594.743,340.46a2,2,0,0,1,0,.475v6.674c0,4.657.089,11.3.148,19.5.089,16.464.727,39.186,2,64.282s2.581,47.8,3.278,64.252c.356,8.217.593,14.832.727,19.489,0,2.254.089,4.034.119,5.3v1.379a2.327,2.327,0,0,1,0,.475,2.437,2.437,0,0,1,0-.475,8.433,8.433,0,0,0-.089-1.379c0-1.261-.163-2.966-.267-5.3-.237-4.642-.578-11.287-.979-19.46-.9-16.493-2.136-39.186-3.5-64.252s-1.839-47.848-1.78-64.312c0-8.187,0-14.832.1-19.5,0-2.254,0-4.034.074-5.3v-1.379A2.973,2.973,0,0,1,594.743,340.46Z" transform="translate(-377.963 -152.406)" fill="#263238"/>
      <path id="Path_3389" data-name="Path 3389" d="M530.735,319.708c6.823-4.969,14.758-3.471,21.6,1.483s10.635,13.349,11.317,21.759-1.483,16.834-4.672,24.636c-5.147,12.5-12.755,22.619-24.132,35.493l-29.308,38.489L562.119,496.8,538.67,533.793,491.3,495.66c-16.182-13.66-29.946-27.632-40.046-42.078" transform="translate(-447.131 -163.913)" fill="#455a64"/>
      <path id="Path_3390" data-name="Path 3390" d="M451.24,453.675l.341.445.994,1.335c.875,1.172,2.18,2.966,3.945,5.132a206.17,206.17,0,0,0,16.315,18.08q5.562,5.54,12.652,11.865c4.717,4.212,10.026,8.38,15.663,12.9l37.673,30.228-.519.089c7.282-11.495,15.188-23.983,23.42-37.006v.475l-29.189-28.477-27.38-26.7-.237-.222.193-.267c10.382-13.571,20.2-26.475,29.338-38.474h0a191.8,191.8,0,0,0,15.5-19.46,88.544,88.544,0,0,0,10.189-20.008,50.664,50.664,0,0,0,3.322-19.7,32.422,32.422,0,0,0-5-15.93,25.777,25.777,0,0,0-10.056-9.018,18.675,18.675,0,0,0-9.774-2.165,15.07,15.07,0,0,0-6.007,1.78c-1.276.682-1.869,1.142-1.884,1.112l.445-.341a11.1,11.1,0,0,1,1.379-.875,15.069,15.069,0,0,1,6.051-1.9,18.748,18.748,0,0,1,9.938,2.106,25.778,25.778,0,0,1,10.249,9.062,32.808,32.808,0,0,1,5.161,16.167,51.3,51.3,0,0,1-3.144,19.682,88.809,88.809,0,0,1-10.2,20.186,192.958,192.958,0,0,1-15.5,19.549h0c-9.137,12-18.97,24.918-29.293,38.563v-.5l27.395,26.7,29.175,28.492.222.223-.163.252c-8.247,13.023-16.167,25.5-23.464,36.976l-.208.341-.311-.252-37.6-30.332c-5.621-4.538-10.961-8.751-15.633-12.963s-8.9-8.172-12.622-11.865a199.88,199.88,0,0,1-16.241-18.258c-1.735-2.225-2.966-4-3.856-5.206-.415-.578-.727-1.038-.949-1.365S451.24,453.675,451.24,453.675Z" transform="translate(-447.136 -163.963)" fill="#263238"/>
      <path id="Path_3391" data-name="Path 3391" d="M643.6,404.262a21.98,21.98,0,0,1-2.966-.92,20.513,20.513,0,0,0-14.432.756,23.731,23.731,0,0,1-2.863,1.231,8.719,8.719,0,0,1,2.625-1.735,18.332,18.332,0,0,1,14.832-.771A9,9,0,0,1,643.6,404.262Z" transform="translate(-363.977 -122.856)" fill="#263238"/>
      <path id="Path_3392" data-name="Path 3392" d="M544.349,471.607l-10.293,5.117a14.505,14.505,0,0,1-15.633-1.75L512,469.738l17.8-27.988c2.091.9,10.694,2.121,13.66,3.174a23.73,23.73,0,0,0,7.994,1.335,44.244,44.244,0,0,0,9.062-.742c.193-.074.46-.134.638-.208a2.968,2.968,0,0,1,1.276-.222c2.536-.237,4.553,2.432,3.13,4.45s-8.365,4.895-17.235,4.642h-.415c-7.787,0-.638,6.511,3.975,10.382a6.111,6.111,0,0,1,2.225,5.562,2.581,2.581,0,0,1-1.038,1.913C551.053,473.342,544.349,471.607,544.349,471.607Z" transform="translate(-417.776 -103.463)" fill="#a36853"/>
      <path id="Path_3393" data-name="Path 3393" d="M559.075,375.141c-13.645,0-25.911-11.628-25.793-28.952l-2.462-98.648h.282a8.247,8.247,0,0,1,7.416-8.365l40.669-4.3a24.755,24.755,0,0,1,27.306,23.079c.979,15.618,1.572,34.737-.282,46.395-3.767,23.479-21.729,26.475-21.729,26.475l.43,16.315c.7,17.443-12.37,27.944-25.837,27.944Z" transform="translate(-408.683 -203.491)" fill="#a36853"/>
      <path id="Path_3394" data-name="Path 3394" d="M577.632,259.885a2.967,2.967,0,0,1-2.892,2.966,2.862,2.862,0,0,1-3.1-2.714,3,3,0,0,1,5.992-.252Z" transform="translate(-388.959 -192.652)" fill="#263238"/>
      <path id="Path_3395" data-name="Path 3395" d="M582.9,258.154c-.371.4-2.64-1.29-5.933-1.276s-5.592,1.617-5.933,1.231.208-.89,1.246-1.646a8.321,8.321,0,0,1,4.761-1.483,7.979,7.979,0,0,1,4.687,1.483C582.765,257.279,583.106,257.976,582.9,258.154Z" transform="translate(-389.301 -193.71)" fill="#263238"/>
      <path id="Path_3396" data-name="Path 3396" d="M556.607,260.285a3.076,3.076,0,1,1-3.1-2.714A2.966,2.966,0,0,1,556.607,260.285Z" transform="translate(-399.154 -192.46)" fill="#263238"/>
      <path id="Path_3397" data-name="Path 3397" d="M561.449,258.564c-.371.4-2.655-1.29-5.933-1.29s-5.606,1.632-5.933,1.231c-.178-.163.208-.875,1.246-1.632a8.2,8.2,0,0,1,4.761-1.483,7.979,7.979,0,0,1,4.687,1.483C561.3,257.674,561.642,258.386,561.449,258.564Z" transform="translate(-399.636 -193.512)" fill="#263238"/>
      <path id="Path_3398" data-name="Path 3398" d="M565.985,282.5a20.674,20.674,0,0,1,5.25-.949c.831-.089,1.617-.252,1.75-.816a4.212,4.212,0,0,0-.549-2.447c-.786-2-1.587-4.094-2.447-6.289-3.4-8.9-5.844-16.315-5.488-16.464s3.411,7.016,6.793,15.974c.83,2.21,1.6,4.316,2.344,6.333a4.747,4.747,0,0,1,.43,3.248,2.107,2.107,0,0,1-1.35,1.2,5.8,5.8,0,0,1-1.409.193A21.577,21.577,0,0,1,565.985,282.5Z" transform="translate(-392.425 -193.445)" fill="#263238"/>
      <path id="Path_3399" data-name="Path 3399" d="M577.229,302.25a59.712,59.712,0,0,1-31.4-8.38s8.128,17.635,31.577,15.44Z" transform="translate(-401.43 -174.918)" fill="#8f5039"/>
      <path id="Path_3400" data-name="Path 3400" d="M563.376,254.5c-.311.89-3.545.46-7.342.92s-6.867,1.483-7.416.712c-.237-.386.3-1.216,1.483-2.062a12.829,12.829,0,0,1,11.213-1.231C562.812,253.446,563.524,254.083,563.376,254.5Z" transform="translate(-400.11 -195.112)" fill="#263238"/>
      <path id="Path_3401" data-name="Path 3401" d="M581.8,251.881c-.564.742-2.8,0-5.473,0s-4.954.489-5.473-.282c-.237-.371.134-1.1,1.112-1.795a7.535,7.535,0,0,1,4.45-1.2,7.416,7.416,0,0,1,4.361,1.483C581.739,250.768,582.051,251.525,581.8,251.881Z" transform="translate(-389.373 -196.796)" fill="#263238"/>
      <path id="Path_3402" data-name="Path 3402" d="M536.692,280.132c3.99-.712,7.179.519,8.306,4.45,1.676,5.859.534,8.751.816,12.785l5.933-1.78c-1.483-13.512,1.884-23.509.415-37.08,8.247,2.67,19.578-2.432,23.093-10.976a22.96,22.96,0,0,0,24.473,1.721,9.433,9.433,0,0,0,10.071,4.717c4.45-1.261,9.166-7.594,10.457-12.088,2.314-8.083,1.187-19.682-5.369-24.947s-19.7-4-24.8,2.685c-2.017,2.64-2.254,7.52-5.5,8.187-2.892.593-5.517-1.483-8.158-2.848-8.232-4.079-19.608,1.335-21.64,10.293-6.882-4.108-15.218-6.793-22.915-4.583s-13.838,10.753-11.213,18.318c1.083,3.174,3.53,5.933,3.8,9.24.519,6.452-7.223,12.3-4.746,18.273,1.379,3.352,5.428,4.835,7.253,7.965,2.047,3.5.771,7.92.949,11.969.267,6.763,3.738,16.775,10.219,18.7" transform="translate(-414.288 -213.671)" fill="#263238"/>
      <path id="Path_3403" data-name="Path 3403" d="M533.255,258.43a5.592,5.592,0,0,0-4.45,3.575,12.281,12.281,0,0,0-1.2,5.77,12.888,12.888,0,0,0,2.818,8.6,7.416,7.416,0,0,0,8.365,2.121" transform="translate(-410.242 -192.043)" fill="#a36853"/>
      <path id="Path_3404" data-name="Path 3404" d="M535.894,271.821a2.758,2.758,0,0,1-2.254-.089,4.821,4.821,0,0,1-2.032-1.483,5.518,5.518,0,0,1-1.083-2.966,5.592,5.592,0,0,1,.608-2.966,5.385,5.385,0,0,1,1.661-1.884c1.216-.8,2.166-.756,2.151-.667a13.359,13.359,0,0,0-1.809,1.112,5.176,5.176,0,0,0-1.839,4.45,4.657,4.657,0,0,0,2.566,3.93A13.674,13.674,0,0,0,535.894,271.821Z" transform="translate(-408.832 -190.454)" fill="#8f5039"/>
      <path id="Path_3405" data-name="Path 3405" d="M559.583,285.069c2.966,2.032,8.573.964,10.679-2.047a57.162,57.162,0,0,1-12.4-9.122S553.65,280.9,559.583,285.069Z" transform="translate(-396.317 -184.568)" fill="#fafafa"/>
      <path id="Path_3406" data-name="Path 3406" d="M567.455,286.6a13.2,13.2,0,0,0-3.767-.89,14.091,14.091,0,0,0-3.767.845,2.34,2.34,0,0,1,.89-.86,5.785,5.785,0,0,1,5.77,0C567.247,286.121,567.544,286.522,567.455,286.6Z" transform="translate(-394.622 -179.243)" fill="#aa6550"/>
    </g>
    <g id="freepik--character-4--inject-34" transform="translate(448.347 219.075)">
      <path id="Path_3407" data-name="Path 3407" d="M553.625,369.935a274.256,274.256,0,0,0,17.042-28.774c6.126-11.688,5.087-12.281,3.619-12.8-3.945-1.409-11.554,20.127-12.563,14.491s12.311-25.214,8.128-26.46c-5.458-1.691-13.008,21.017-13.779,22.886s-3.485.727-2.684-.92c1.142-2.358,12.5-27.558,7.149-29.264-2.966-.934-4.034,4.613-4.034,4.613s-8.9,24.4-11.406,23.509,2.225-15.41,4.168-20.186.489-7.609-2.284-6.778c-1.9.564-8.2,15.04-10.012,19.8s-6.556,17.947-9.433,9.418c0-.133-.1-.252-.163-.386-2.6-8.484-7.416-14.15-9.923-14.832s-4.331,2.076-3.293,4.45a2.968,2.968,0,0,0,.653,1.112c.134.148.267.371.4.534a44.482,44.482,0,0,1,3.619,8.336,24.157,24.157,0,0,1,1.29,8.009c0,3.159,1.483,12.355,1.365,14.624" transform="translate(-240.166 -164.74)" fill="#ffad9d"/>
      <path id="Path_3408" data-name="Path 3408" d="M609.165,356.115l-35.879,71.194S553,368.618,542.05,345.272c-4.168-8.9-12.533-15.069-20.557-19.163v-.163l-1.676-.667a84.956,84.956,0,0,0-18.036-6.244c-37.851-10.842-73.507-7.06-114.785,7.416,0,0-21.432,5.755-31.829,33.713-9.344,25.214-19.83,63.778-21.625,70.6-12.859,43.28,5.5,67.382,31.058,64.415,10.531-1.661,19.489-10.382,23.449-13.764l13.512-12.7.3,9.834L386.685,539.29l155.35-.326L514,467.043l6.229-32.972L530.9,459.4a44.392,44.392,0,0,0,81.383,1.053L648.6,369Z" transform="translate(-329.33 -162.903)" fill="#8dc63f"/>
      <path id="Path_3409" data-name="Path 3409" d="M405.975,401.84a15.272,15.272,0,0,1-1.394,2c-.934,1.246-2.343,3.041-4.138,5.191-3.575,4.316-8.721,10.115-14.7,16.241S374.071,436.666,369.8,440.3c-2.121,1.839-3.886,3.263-5.132,4.212a12.8,12.8,0,0,1-1.987,1.483,15.13,15.13,0,0,1,1.795-1.646c1.187-1.023,2.892-2.521,4.969-4.45,4.153-3.752,9.774-9.062,15.737-15.173s11.183-11.866,14.832-16.048c1.854-2.106,3.307-3.841,4.316-5.028A14.1,14.1,0,0,1,405.975,401.84Z" transform="translate(-313.216 -119.874)" fill="#263238"/>
      <path id="Path_3410" data-name="Path 3410" d="M454.181,441.516a3.208,3.208,0,0,1,.074-.831c.119-.623.237-1.394.4-2.343l1.617-8.632c1.365-7.283,3.233-17.339,4.717-28.537q.564-4.2,1.009-8.172a43.484,43.484,0,0,0,.43-7.609,76.366,76.366,0,0,0-1.913-12.8c-.8-3.619-1.483-6.526-1.943-8.558-.208-1.023-.326-1.824-.386-2.358a3.322,3.322,0,0,1,0-.846,3.218,3.218,0,0,1,.178.816c.1.534.282,1.32.534,2.329.489,2,1.305,4.88,2.18,8.5a71.981,71.981,0,0,1,2.091,12.889,45.714,45.714,0,0,1-.386,7.713c-.282,2.655-.623,5.4-.994,8.2-1.483,11.228-3.456,21.284-4.954,28.537-.771,3.545-1.394,6.452-1.854,8.588-.222.934-.4,1.706-.534,2.329A4.17,4.17,0,0,1,454.181,441.516Z" transform="translate(-269.004 -139.69)" fill="#263238"/>
      <path id="Path_3411" data-name="Path 3411" d="M491.68,407.374A100.566,100.566,0,0,1,494.9,390.08a50.684,50.684,0,0,1-1.261,8.781A51.48,51.48,0,0,1,491.68,407.374Z" transform="translate(-250.883 -125.556)" fill="#263238"/>
      <path id="Path_3412" data-name="Path 3412" d="M496.109,409.712a67.441,67.441,0,0,1-1.483-10.012,66.215,66.215,0,0,1-.786-10.1,67.455,67.455,0,0,1,1.483,10.012,66.222,66.222,0,0,1,.786,10.1Z" transform="translate(-249.839 -125.788)" fill="#263238"/>
      <path id="Path_3413" data-name="Path 3413" d="M418.236,499.979c-.208,0-.386-23.85-.386-53.247s.178-53.262.386-53.262.386,23.835.386,53.262S418.443,499.979,418.236,499.979Z" transform="translate(-286.558 -123.918)" fill="#263238"/>
      <g id="Group_271" data-name="Group 271" transform="translate(189.968 225.441)" opacity="0.2">
        <path id="Path_3414" data-name="Path 3414" d="M457.41,363.73c7.282,13.957,13.616,27.84,14.194,43.576.445,12.236-4.45,22.441.608,33.594-.252.193-4.568-9.418-6.482-13.927-3.93-9.285-7.416-17.576-7.416-17.576s2.7-20.958,2.966-24.532S457.41,363.73,457.41,363.73Z" transform="translate(-457.41 -363.73)"/>
      </g>
      <g id="Group_272" data-name="Group 272" transform="translate(7.697 222.342)" opacity="0.2">
        <path id="Path_3415" data-name="Path 3415" d="M336.537,435.652c0,7-4.346-16.107-.282-21.788,2.863-3.99,7.757-5.933,12.5-7.1s9.715-1.958,13.927-4.45c5.443-3.219,8.9-8.9,12.711-13.883s8.9-26.327,15.188-26.787v31.147a423.945,423.945,0,0,1-46.9,26.3,21.848,21.848,0,0,0-7.149,16.567Z" transform="translate(-334.52 -361.64)"/>
      </g>
      <g id="Group_273" data-name="Group 273" transform="translate(72.187 272.414)" opacity="0.2">
        <path id="Path_3416" data-name="Path 3416" d="M378,428.816c10.16-5.71,17.576-13.349,29.056-15.321,11.05-1.958,22.426,0,33.609-.771q-.9-8.469-1.854-16.968l-31.993-.356Z" transform="translate(-378 -395.4)"/>
      </g>
      <path id="Path_3417" data-name="Path 3417" d="M372.462,361.4c.208,0,.386,6.927.386,15.47s-.178,15.485-.386,15.485a152.27,152.27,0,0,1-.386-15.485,152.1,152.1,0,0,1,.386-15.47Z" transform="translate(-308.7 -139.414)" fill="#263238"/>
      <path id="Path_3418" data-name="Path 3418" d="M335.938,416.837a7.075,7.075,0,0,1-.178-2.759,19.579,19.579,0,0,1,1.572-6.482,19.281,19.281,0,0,1,3.634-5.577,7.417,7.417,0,0,1,2.106-1.78,35.741,35.741,0,0,0-5.028,7.668A33.635,33.635,0,0,0,335.938,416.837Z" transform="translate(-326.253 -120.647)" fill="#263238"/>
      <path id="Path_3419" data-name="Path 3419" d="M340.17,410.925a13.96,13.96,0,0,0,2.329-.845c1.483-.593,3.619-1.483,6.215-2.714a215.867,215.867,0,0,0,19.771-10.382c7.505-4.45,14.046-8.825,18.629-12.177,2.3-1.691,4.138-3.085,5.369-4.079a14.73,14.73,0,0,0,1.869-1.617,15.051,15.051,0,0,0-2.076,1.365l-5.5,3.856c-4.672,3.233-11.228,7.55-18.718,11.955s-14.491,7.994-19.608,10.5l-6.081,2.966A13.988,13.988,0,0,0,340.17,410.925Z" transform="translate(-324.092 -130.857)" fill="#263238"/>
      <path id="Path_3420" data-name="Path 3420" d="M526.472,300.854c-2.551-3.337-6.6-5.933-7.416-10.012-1.023-5.473,4.45-10.6,3.456-16.093-.653-3.753-4.109-6.393-7.639-7.846s-7.416-2.151-10.649-4.094a21.521,21.521,0,0,1-8.5-10.471,35.824,35.824,0,0,1-1.261-3.6,38.246,38.246,0,0,0-1.795-7.7c-.133-.653-.252-1.305-.371-1.958l.163,1.483a15.591,15.591,0,0,0-1.928-3.471c-2.714-3.619-8.143-5.636-11.866-3.1l1.78-1.187A34.247,34.247,0,0,0,454,212.04a31.669,31.669,0,0,0-6.7-.222c-7.994-.415-19.549,1.913-24.428,5.013-6.229,3.945-12.607,9.359-15.737,16.048-1.676,3.6-2.818,7.772-5.933,10.175-4.242,3.2-10.19,1.958-15.485,2.551-8.721.994-16.315,7.683-19.282,15.944a31.785,31.785,0,0,0,2.432,25.467c.92,1.706,2,3.678,1.275,5.473a6.882,6.882,0,0,1-3.337,2.966,17.932,17.932,0,0,0-8.069,8.439c-1.483,3.693-.92,8.365,2.076,10.976a9.018,9.018,0,0,0,9.048,1.29,19.682,19.682,0,0,0-1.379,7.016,14.684,14.684,0,0,0,7.283,13.037c4.642,2.418,11.139,1.142,13.868-3.322a18.243,18.243,0,0,0,28.181,15.4c2.2-1.483,4.45-3.441,7.045-2.966s4.064,2.966,5.844,4.776c4.746,4.939,12.845,5.5,19.089,2.7s10.842-8.41,14.15-14.4a11.035,11.035,0,0,0,19.682-2.759,18.451,18.451,0,0,0,33.031-10.471,15.158,15.158,0,0,0,9.834-24.191Zm-149.165,4.583v-.089l.148-.074Z" transform="translate(-315.502 -211.733)" fill="#263238"/>
      <path id="Path_3421" data-name="Path 3421" d="M455.826,333.069s19-3.144,22.93-27.929c1.958-12.325,1.335-32.527.3-49.035a26.178,26.178,0,0,0-28.863-24.4l-43.013,4.553a8.721,8.721,0,0,0-7.8,8.9L403.9,352.81c-3.13.667-10.234,2.21-13.72,3.219,0,0,33.253,74.323,41.4,73.463S472.26,358.3,472.26,358.3a170.006,170.006,0,0,0-17.235-4.227,205.023,205.023,0,0,1,.8-21Z" transform="translate(-299.928 -202.151)" fill="#ffad9d"/>
      <path id="Path_3422" data-name="Path 3422" d="M445.683,258.146a3.174,3.174,0,0,1-3.055,3.2,2.966,2.966,0,0,1-3.278-2.863,3.174,3.174,0,0,1,3.055-3.2,3.04,3.04,0,0,1,3.278,2.863Z" transform="translate(-276.169 -190.695)" fill="#263238"/>
      <path id="Path_3423" data-name="Path 3423" d="M451.243,256.308c-.4.415-2.8-1.365-6.229-1.35s-5.933,1.72-6.289,1.305c-.193-.193.208-.934,1.305-1.735A8.9,8.9,0,0,1,445.088,253a8.424,8.424,0,0,1,4.954,1.6C451.021,255.373,451.436,256.13,451.243,256.308Z" transform="translate(-276.493 -191.793)" fill="#263238"/>
      <path id="Path_3424" data-name="Path 3424" d="M423.438,258.576a3.174,3.174,0,0,1-3.07,3.2,2.967,2.967,0,0,1-3.278-2.863,3.174,3.174,0,0,1,3.07-3.2,3.041,3.041,0,0,1,3.278,2.863Z" transform="translate(-286.925 -190.487)" fill="#263238"/>
      <path id="Path_3425" data-name="Path 3425" d="M428.572,256.747c-.386.415-2.8-1.365-6.215-1.35s-5.933,1.721-6.3,1.305c-.178-.193.222-.934,1.32-1.735a8.811,8.811,0,0,1,5.043-1.557,8.454,8.454,0,0,1,4.954,1.6C428.408,255.768,428.764,256.569,428.572,256.747Z" transform="translate(-287.445 -191.595)" fill="#263238"/>
      <path id="Path_3426" data-name="Path 3426" d="M433.37,282.043a22.391,22.391,0,0,1,5.562-.994c.86-.089,1.691-.267,1.839-.86a4.449,4.449,0,0,0-.578-2.6c-.831-2.106-1.676-4.331-2.581-6.645-3.589-9.463-6.185-17.25-5.8-17.4s3.589,7.416,7.179,16.894l2.477,6.689a4.984,4.984,0,0,1,.445,3.426,2.165,2.165,0,0,1-1.483,1.276,6.561,6.561,0,0,1-1.483.208,22.617,22.617,0,0,1-5.577,0Z" transform="translate(-279.829 -191.528)" fill="#263238"/>
      <path id="Path_3427" data-name="Path 3427" d="M445.249,302.9A63.007,63.007,0,0,1,412.07,294s8.054,17.012,32.853,14.7Z" transform="translate(-289.35 -171.982)" fill="#ed9482"/>
      <path id="Path_3428" data-name="Path 3428" d="M427.4,276.735a6.718,6.718,0,0,1,2.507-1.083,2.21,2.21,0,0,1,2.329,1.1,5.511,5.511,0,0,0,.356.86c.5.682,1.557.43,2.358.667a2.492,2.492,0,0,1,1.32,3.278,5.013,5.013,0,0,1-2.966,2.551,10.635,10.635,0,0,1-5.31.727,4.45,4.45,0,0,1-3.278-1.632,3.886,3.886,0,0,1,.252-4.242,11.316,11.316,0,0,1,3.4-2.966" transform="translate(-283.487 -180.865)" fill="#ed9482"/>
      <path id="Path_3429" data-name="Path 3429" d="M426.259,274.36c.549,0,.564,3.678,3.738,6.3s7.119,2.225,7.149,2.744c0,.237-.875.727-2.551.771a9.256,9.256,0,0,1-5.933-2.077,8.1,8.1,0,0,1-2.966-5.295C425.591,275.309,426.007,274.331,426.259,274.36Z" transform="translate(-282.775 -181.472)" fill="#263238"/>
      <path id="Path_3430" data-name="Path 3430" d="M430.6,252.465c-.341.92-3.752.489-7.757.964s-7.268,1.587-7.787.742c-.237-.386.326-1.261,1.632-2.165a13.631,13.631,0,0,1,11.866-1.305C430.008,251.293,430.75,252.02,430.6,252.465Z" transform="translate(-287.933 -193.29)" fill="#263238"/>
      <path id="Path_3431" data-name="Path 3431" d="M450.093,251.132c-.608.786-2.966,0-5.8,0s-5.221.519-5.77-.3c-.252-.386.133-1.172,1.172-1.9a8.4,8.4,0,0,1,9.329.282C450.034,249.99,450.36,250.791,450.093,251.132Z" transform="translate(-276.604 -194.375)" fill="#263238"/>
      <path id="Path_3432" data-name="Path 3432" d="M469.961,232.8a33.609,33.609,0,0,1-40.669,25.763A31.933,31.933,0,0,1,410.47,283.63a68.02,68.02,0,0,1,7.994,40.8c-.727,5.933-2.462,12.266-6.971,16.315-6.882,6.17-18.481,4.672-25.1-1.765-6.348-6.185-8.588-15.855-6.793-24.532s7.238-16.315,14.076-21.892a15.707,15.707,0,0,1-8.1-26.935c1.943-1.839,4.45-3.2,5.933-5.443s1.721-4.731,2.566-7.119c2.21-6.244,7.787-10.56,13.1-14.535,4.45-3.352,9.433-6.852,15.04-6.838,2.966,0,5.933,1.038,8.9.638,4.079-.549,7.268-3.649,10.635-5.933a23.167,23.167,0,0,1,16.315-4.45c5.74.9,11.094,5.191,12.177,10.887" transform="translate(-305.327 -206.864)" fill="#263238"/>
      <path id="Path_3433" data-name="Path 3433" d="M439.144,231.2c-.875,4.791,1.483,9.7,5.073,13.052s8.024,5.428,12.459,7.416a56.481,56.481,0,0,0-6.422-13.349,18.867,18.867,0,0,0-12.044-8.128" transform="translate(-276.72 -202.815)" fill="#263238"/>
      <path id="Path_3434" data-name="Path 3434" d="M365.416,292.2a3.279,3.279,0,0,1-.134-1.557,5.933,5.933,0,0,1,2.225-3.827,9.848,9.848,0,0,1,6.763-1.839c2.774,0,5.844.92,9.24.712a11.688,11.688,0,0,0,9.018-5.592,11.865,11.865,0,0,0,1.691-5.829c.148-2.121,0-4.346.074-6.66a12.045,12.045,0,0,1,2.165-6.778,14.076,14.076,0,0,1,5.933-4.45c4.672-2.121,10-2.151,15.1-3.1a21.938,21.938,0,0,0,7.208-2.522,19.282,19.282,0,0,0,5.354-5.087c2.892-3.975,4.835-8.41,7.49-12.192a25.526,25.526,0,0,1,30.02-9.715,25.213,25.213,0,0,1,6.244,3.308,19.683,19.683,0,0,1,4.375,4.123,1.838,1.838,0,0,1-.3-.267l-.816-.816a28.271,28.271,0,0,0-3.426-2.788,25.971,25.971,0,0,0-15.321-4.583,25.482,25.482,0,0,0-20.216,11.154c-2.6,3.708-4.524,8.143-7.416,12.236a19.771,19.771,0,0,1-5.577,5.28,22.248,22.248,0,0,1-7.416,2.625c-5.221.964-10.383.994-14.951,2.966a13.542,13.542,0,0,0-5.636,4.212,11.243,11.243,0,0,0-2.047,6.378c-.133,2.24,0,4.45-.1,6.66a12.651,12.651,0,0,1-1.824,6.126,12.192,12.192,0,0,1-9.522,5.784c-3.545.178-6.6-.742-9.315-.816a9.522,9.522,0,0,0-6.556,1.646,5.933,5.933,0,0,0-2.254,3.619A6.319,6.319,0,0,0,365.416,292.2Z" transform="translate(-311.977 -206.683)" fill="#fafafa"/>
      <path id="Path_3435" data-name="Path 3435" d="M390.2,346.58l1.572,39.512,3.975,37.822,42.019-1.795-3.026-74.679Z" transform="translate(-299.918 -146.575)" fill="#263238"/>
      <path id="Path_3436" data-name="Path 3436" d="M386.04,346.49l1.572,39.646,3.975,37.822,42.019-1.795-3.026-74.8Z" transform="translate(-301.928 -146.619)" fill="#455a64"/>
      <path id="Path_3437" data-name="Path 3437" d="M387.371,420.774a274.105,274.105,0,0,0,33.268-3.56c13.022-2.091,12.889-3.263,12.429-4.761-1.246-4-23.049,2.788-19.133-1.394s27.543-5.191,26.06-9.314c-1.913-5.384-24.621,2.151-26.579,2.64s-2.67-2.343-.875-2.7c2.581-.5,29.56-6.467,27.721-11.777-1.009-2.966-6.1-.475-6.1-.475s-24.888,7.416-25.674,4.939,13.69-7.416,18.674-8.751,6.393-4.168,4.064-5.933c-1.587-1.172-16.953,2.432-21.848,3.841s-18.3,5.473-13.2-1.943c.089-.119.148-.237.222-.356,5.236-7.149,6.882-14.4,5.933-16.834s-4.257-2.21-5.518,0a3.159,3.159,0,0,0-.5,1.187,2.933,2.933,0,0,1-.193.653,44.5,44.5,0,0,1-4.45,7.876,23.732,23.732,0,0,1-5.651,5.829c-2.536,1.854-8.9,8.647-10.9,9.848" transform="translate(-307.205 -138.808)" fill="#ffad9d"/>
      <path id="Path_3438" data-name="Path 3438" d="M381.582,379.48,403.8,412.644l-36.62,37.347,1.246-60.574Z" transform="translate(-311.041 -130.678)" fill="#8dc63f"/>
    </g>
  </g>
</svg>
