<svg xmlns="http://www.w3.org/2000/svg" width="41.074" height="32.881" viewBox="0 0 41.074 32.881">
  <g id="camera_mute_white" data-name="camera mute white" transform="translate(-369 -918.825)">
    <path id="_1159798" data-name="1159798" d="M40.648,2.308a.871.871,0,0,0-.861-.016L30.363,7.439V4.351A4.356,4.356,0,0,0,26.012,0H4.352A4.356,4.356,0,0,0,0,4.351v17.18a4.356,4.356,0,0,0,4.351,4.351h21.66a4.356,4.356,0,0,0,4.351-4.351V18.5l9.425,5.146a.87.87,0,0,0,1.287-.764V3.057a.87.87,0,0,0-.426-.748ZM28.622,21.531a2.613,2.613,0,0,1-2.611,2.611H4.352a2.613,2.613,0,0,1-2.611-2.611V4.351A2.614,2.614,0,0,1,4.352,1.74h21.66a2.614,2.614,0,0,1,2.611,2.611Zm10.713-.116-8.971-4.9v-7.1l8.971-4.9Zm0,0" transform="translate(369 922.055)" fill="#fff"/>
    <rect id="Rectangle_1456" data-name="Rectangle 1456" width="44" height="2.5" rx="1.25" transform="translate(369.071 949.938) rotate(-45)" fill="#fff"/>
  </g>
</svg>
