<svg xmlns="http://www.w3.org/2000/svg" width="62" height="62" viewBox="0 0 62 62">
  <g id="_3051561" data-name="3051561" transform="translate(-1 -1)">
    <path id="Path_3229" data-name="Path 3229" d="M54.672,32.742A4.5,4.5,0,0,0,55.74,31H60a3,3,0,0,0,3-3V8a3,3,0,0,0-3-3H32a3,3,0,0,0-3,3V28a3,3,0,0,0,3,3H43.586l-2,2h-3.1a6.95,6.95,0,0,0-4.949,2.05l-5.415,5.414A3.824,3.824,0,0,0,27.467,45H1V63H49V50.053l3.064-1.021L63,51.22V36.78L52.242,38.932,50.093,37.32ZM41.926,42.66l-2.391-1.913a7.934,7.934,0,0,0-1.792-1.076L45,32.414,48.586,36ZM53.258,31.328,50,34.586,46.414,31l3.258-3.258a2.536,2.536,0,0,1,3.586,3.586ZM32,29a1,1,0,0,1-1-1V8a1,1,0,0,1,1-1H60a1,1,0,0,1,1,1V28a1,1,0,0,1-1,1H55.946a4.5,4.5,0,0,0-.722-2H59V25H33v2H47.586l-2,2ZM29.535,41.878l5.415-5.414A4.967,4.967,0,0,1,38.485,35h1.1L35.52,39.066A7.983,7.983,0,0,0,34.554,39a3.551,3.551,0,0,0-3.434,4.466l-1.252,1.252a1.82,1.82,0,0,1-.333-2.84Zm-4.17,10.9,2.855,2.855-3.381,1.353a1,1,0,0,1-.827-.827ZM30,54.586,26.414,51l5.79-5.79a3.515,3.515,0,0,0,.521.392l3.912,2.347ZM3,61V47H27.586l-3.438,3.438L22,55.808V56a3,3,0,0,0,3,3h.192l5.369-2.147L38.4,49.01l.917.55A10.084,10.084,0,0,0,47,50.689V61ZM53,40.819l8-1.6V48.78l-8-1.6ZM51,40.5v6.78l-3.914,1.3a8.178,8.178,0,0,1-6.734-.739l-6.6-3.958a1.554,1.554,0,0,1,.8-2.887,5.985,5.985,0,0,1,3.731,1.31L41.649,45H47V43H44.414l4.251-4.251Z" fill="#fff"/>
    <path id="Path_3230" data-name="Path 3230" d="M5,49H20v2H5Z" fill="#fff"/>
    <path id="Path_3231" data-name="Path 3231" d="M5,53H20v2H5Z" fill="#fff"/>
    <path id="Path_3232" data-name="Path 3232" d="M5,57H20v2H5Z" fill="#fff"/>
    <path id="Path_3233" data-name="Path 3233" d="M35,59H45V53H35Zm2-4h6v2H37Z" fill="#fff"/>
    <path id="Path_3234" data-name="Path 3234" d="M25,23H1V43H25ZM3,25H23V38.389L19.887,33.2a4.534,4.534,0,0,0-7.774,0L7.434,41H3ZM22.234,41H9.766l4.062-6.771a2.534,2.534,0,0,1,4.344,0Z" fill="#fff"/>
    <path id="Path_3235" data-name="Path 3235" d="M6,19H22a3,3,0,0,0,3-3V4a3,3,0,0,0-3-3H6A3,3,0,0,0,3,4V16A3,3,0,0,0,6,19ZM5,4A1,1,0,0,1,6,3H22a1,1,0,0,1,1,1V16a1,1,0,0,1-1,1H6a1,1,0,0,1-1-1Z" fill="#fff"/>
    <path id="Path_3236" data-name="Path 3236" d="M8,33a3,3,0,1,0-3-3A3,3,0,0,0,8,33Zm0-4a1,1,0,1,1-1,1A1,1,0,0,1,8,29Z" fill="#fff"/>
    <path id="Path_3237" data-name="Path 3237" d="M11.618,15a2.642,2.642,0,0,0,1.171-.276l4.765-2.382a2.619,2.619,0,0,0,0-4.684L12.789,5.276A2.619,2.619,0,0,0,9,7.618v4.764A2.622,2.622,0,0,0,11.618,15ZM11,7.618A.618.618,0,0,1,11.618,7a.612.612,0,0,1,.276.065l4.763,2.382a.618.618,0,0,1,0,1.106l-4.764,2.382A.636.636,0,0,1,11,12.382Z" fill="#fff"/>
    <path id="Path_3238" data-name="Path 3238" d="M45,9H33V19H45Zm-2,8H35V11h8Z" fill="#fff"/>
    <path id="Path_3239" data-name="Path 3239" d="M47,9H59v2H47Z" fill="#fff"/>
    <path id="Path_3240" data-name="Path 3240" d="M57,13h2v2H57Z" fill="#fff"/>
    <path id="Path_3241" data-name="Path 3241" d="M47,13h8v2H47Z" fill="#fff"/>
    <path id="Path_3242" data-name="Path 3242" d="M47,17H59v2H47Z" fill="#fff"/>
    <path id="Path_3243" data-name="Path 3243" d="M33,21H59v2H33Z" fill="#fff"/>
  </g>
</svg>
