<svg xmlns="http://www.w3.org/2000/svg" width="80" height="80" viewBox="0 0 80 80">
  <g id="Group_1822" data-name="Group 1822" transform="translate(-1608 -1688)">
    <rect id="Rectangle_118" data-name="Rectangle 118" width="80" height="80" rx="20" transform="translate(1608 1688)" fill="#ec008c"/>
    <path id="Union_1" data-name="Union 1" d="M25.59,42.253V33.191l-1.367-.173a12.057,12.057,0,0,1-12.1,11.212A11.945,11.945,0,0,1,8.378,20.886V6.961A7,7,0,0,1,16.252.049L21.868.7a1.224,1.224,0,0,1-.282,2.432l-5.615-.652a4.527,4.527,0,0,0-5.109,4.48V20.368a12.414,12.414,0,0,1,3.251.1V9.966a5.548,5.548,0,0,1,6.24-5.477L49.519,7.874A1.233,1.233,0,0,1,50.68,9.1v25.61a1.322,1.322,0,0,1-.539,1.286L34.362,46.785a5.592,5.592,0,0,1-8.772-4.532Zm2.484-8.387v8.387a3.1,3.1,0,0,0,4.881,2.521L48.2,34.351V20.1Zm-25.59-1.6a9.576,9.576,0,0,0,9.639,9.512,9.512,9.512,0,1,0,0-19.023A9.576,9.576,0,0,0,2.484,32.266Zm26.923-7.983A2.923,2.923,0,0,0,28.074,26.8v4.088L48.2,17.131v-5.7ZM16.6,9.966V21.145a12.008,12.008,0,0,1,7.525,9.4l1.468.186V26.8A5.4,5.4,0,0,1,28,22.272L46.039,9.934,20.071,6.92a3.3,3.3,0,0,0-.38-.022A3.066,3.066,0,0,0,16.6,9.966ZM12.634,38.779,7.32,34.731V33.055h3.163a2.506,2.506,0,0,0,1.3-.312,1.619,1.619,0,0,0,.723-.883H7.32L7.3,30.023h5.205a1.58,1.58,0,0,0-.723-.874,2.564,2.564,0,0,0-1.3-.3H7.32V27.009h9.362v1.837H13.808a1.414,1.414,0,0,1,.515.464,2.282,2.282,0,0,1,.316.713h2.042V31.86h-1.97a3.206,3.206,0,0,1-.56,1.32,3.57,3.57,0,0,1-1.121,1.008,3.866,3.866,0,0,1-1.59.49h-.578l5.6,4.1ZM26.967,20.665l-5.788-.133a1.23,1.23,0,0,1-1.266-1.308l.134-5.7a1.238,1.238,0,0,1,2.475.048l-.067,2.82L27.962,11.2a1.23,1.23,0,0,1,1.708,1.771l-5.5,5.185,2.849.065A1.221,1.221,0,0,1,27,20.665ZM44,5.735,27.532,3.823a1.224,1.224,0,0,1,.282-2.432L44.286,3.3a1.225,1.225,0,0,1-.111,2.442A1.518,1.518,0,0,1,44,5.735Z" transform="translate(1623 1704)" fill="#fff"/>
  </g>
</svg>
