<svg xmlns="http://www.w3.org/2000/svg" width="659.999" height="566.826" viewBox="0 0 659.999 566.826">
  <g id="Conference-pana_1_" data-name="Conference-pana (1)" transform="translate(-14.61 -81.648)">
    <g id="freepik--Floor--inject-209" transform="translate(14.61 543.135)">
      <path id="Path_5026" data-name="Path 5026" d="M674.609,409.8c0,.2-147.76.366-329.985.366S14.61,409.993,14.61,409.8s147.732-.366,330.013-.366S674.609,409.585,674.609,409.8Z" transform="translate(-14.61 -409.43)" fill="#263238"/>
    </g>
    <g id="freepik--Plant--inject-209" transform="translate(40.121 286.586)">
      <path id="Path_5027" data-name="Path 5027" d="M63.365,327.759A42.237,42.237,0,0,0,45.4,321.578c-2.928-.3-6.138-.211-8.447,1.563a1.746,1.746,0,0,0-.873,1.549,1.83,1.83,0,0,0,.831,1.07,25.652,25.652,0,0,0,26.5,2" transform="translate(-31.364 -188.77)" fill="#8dc63f"/>
      <path id="Path_5028" data-name="Path 5028" d="M60.672,333.728a87.014,87.014,0,0,1-11.6-10.207,29.369,29.369,0,0,1-7.279-13.445,5.434,5.434,0,0,1,.577-4.505c9.25,7.223,16.515,16.571,18.3,28.158" transform="translate(-29.135 -195.246)" fill="#8dc63f"/>
      <path id="Path_5029" data-name="Path 5029" d="M55.563,333.932a41.885,41.885,0,0,1,.211-15.219,20.654,20.654,0,0,1,8.11-12.573c1.605,3.731.915,8.039-.211,11.939a58.16,58.16,0,0,1-8.039,16.895" transform="translate(-23.659 -195.014)" fill="#8dc63f"/>
      <path id="Path_5030" data-name="Path 5030" d="M68.393,337.424a26.384,26.384,0,0,0-14.4,7.293A27.229,27.229,0,0,0,45.74,358.8c5.406-.338,9.982-4.139,13.3-8.447s5.632-8.954,9.264-12.939" transform="translate(-27.423 -182.259)" fill="#8dc63f"/>
      <path id="Path_5031" data-name="Path 5031" d="M63.934,348.993A35.536,35.536,0,0,1,68.045,315.4c3.126,11.151,1.985,23.737-4.111,33.593" transform="translate(-21.007 -191.237)" fill="#8dc63f"/>
      <path id="Path_5032" data-name="Path 5032" d="M78.953,349.41A25.694,25.694,0,0,0,54.4,363.49c-.31.619-.577,1.408-.169,1.929a1.8,1.8,0,0,0,1.633.479c4.829-.31,9.123-3.224,12.671-6.533s6.631-7.152,10.545-10.024" transform="translate(-24.045 -177.392)" fill="#8dc63f"/>
      <path id="Path_5033" data-name="Path 5033" d="M72.056,358.7a45.856,45.856,0,0,1-.465-25.554c.9-3.28,2.422-6.744,5.463-8.293a1.042,1.042,0,0,1,.831-.141,1.056,1.056,0,0,1,.521.605,15.388,15.388,0,0,1,1.3,7.335,45.687,45.687,0,0,1-1.154,7.42c-.957,4.533-1.408,9.4-3.956,13.319a25.476,25.476,0,0,0-1.577,2.928c-.465.986-.479,1.408-.9,2.14" transform="translate(-17.527 -187.452)" fill="#8dc63f"/>
      <path id="Path_5034" data-name="Path 5034" d="M94.238,360.339a32.917,32.917,0,0,1,5.744-27.032c.408-.549.957-1.126,1.633-1.056,1.042.085,1.309,1.478,1.267,2.506a49.094,49.094,0,0,1-8.645,25.582" transform="translate(-7.975 -184.365)" fill="#8dc63f"/>
      <path id="Path_5035" data-name="Path 5035" d="M96,356.29a39.421,39.421,0,0,0,32.382-6.575,26.215,26.215,0,0,0-17.5-2.14c-5.843,1.338-11.263,3.956-14.825,8.715" transform="translate(-6.922 -178.373)" fill="#8dc63f"/>
      <path id="Path_5036" data-name="Path 5036" d="M97.72,354.275a37.324,37.324,0,0,1,29.341-16.965c-1.408,4.716-5.223,8.447-9.6,10.6a53.319,53.319,0,0,1-14.079,4.125c-1.873.366-4.449.76-5.632,2.239" transform="translate(-6.22 -182.299)" fill="#8dc63f"/>
      <path id="Path_5037" data-name="Path 5037" d="M95.615,338.764a85.236,85.236,0,0,0,3.759-17.191,28.6,28.6,0,0,0-3.421-16.993c-5.632,10.982-6.251,23.822-.507,34.761" transform="translate(-8.789 -195.65)" fill="#8dc63f"/>
      <path id="Path_5038" data-name="Path 5038" d="M108,328.681c6.645-12.066,20.189-21.71,33.9-23.062-5.322,13.206-19.739,23.329-33.9,23.062" transform="translate(-2.027 -195.226)" fill="#8dc63f"/>
      <path id="Path_5039" data-name="Path 5039" d="M105,324.244c9.855,1.506,18.3,7.842,27.595,11.672a12.347,12.347,0,0,0,6.237,1.2,4.885,4.885,0,0,0,3.055-8.645,13.545,13.545,0,0,0-4.533-2.745c-10.081-4.224-20.893-4.294-31.509-1.76" transform="translate(-3.251 -188.438)" fill="#8dc63f"/>
      <path id="Path_5040" data-name="Path 5040" d="M101,328.749c2.239.634,3,1.8,4.773,3.309a51.6,51.6,0,0,0,20.936,10.756c.788.2,1.844.268,2.239-.451s-.1-1.408-.535-1.957a28.89,28.89,0,0,0-12.671-8.574c-4.885-1.8-9.109-3.942-14.741-3.506" transform="translate(-4.882 -185.987)" fill="#8dc63f"/>
      <path id="Path_5041" data-name="Path 5041" d="M96.35,299.123a39.633,39.633,0,0,0,30.369,10.334,2.14,2.14,0,0,0,1.408-.493c.76-.845-.155-2.126-1.042-2.816-8.926-6.955-19.711-9.855-30.706-7.04" transform="translate(-6.779 -198.317)" fill="#8dc63f"/>
      <path id="Path_5042" data-name="Path 5042" d="M101.8,299.206a42.308,42.308,0,0,1,37.887-6.251,30.143,30.143,0,0,1-18.063,7.913,57.414,57.414,0,0,1-19.823-1.675" transform="translate(-4.556 -201.202)" fill="#8dc63f"/>
      <path id="Path_5043" data-name="Path 5043" d="M101.111,290.9c-.873-8.912-.31-15.952-.915-24.906,0-.7-.211-1.577-.873-1.83-.943-.352-1.718.788-2.013,1.732a28.538,28.538,0,0,0,3.787,24.821" transform="translate(-6.922 -212.165)" fill="#8dc63f"/>
      <path id="Path_5044" data-name="Path 5044" d="M99.18,291.933A52.191,52.191,0,0,0,113.935,277.6c2.914-4,5.378-8.771,4.716-13.671a14.163,14.163,0,0,0-10.658,5.294,29.749,29.749,0,0,0-5.42,10.911c-1.183,3.928-2.013,7.955-3.393,11.8" transform="translate(-5.625 -212.232)" fill="#8dc63f"/>
      <path id="Path_5045" data-name="Path 5045" d="M109.537,287.464a119.221,119.221,0,0,0,36.324-21.414c-4.35-1.746-9.306-.7-13.643,1.056a43.054,43.054,0,0,0-22.878,20.26" transform="translate(-1.48 -211.733)" fill="#8dc63f"/>
      <path id="Path_5046" data-name="Path 5046" d="M102.07,290.337a73.928,73.928,0,0,0,20.175.1c6.533-1.1,12.671-3.689,18.824-6.265a2.2,2.2,0,0,0,1.281-.971,1.408,1.408,0,0,0-.451-1.605,4,4,0,0,0-1.619-.76c-6.631-1.858-13.812-.986-20.344,1.225a93.486,93.486,0,0,0-17.866,8.279" transform="translate(-4.446 -205.749)" fill="#8dc63f"/>
      <path id="Path_5047" data-name="Path 5047" d="M75.857,307.566A35.676,35.676,0,0,1,75.533,278c2.816,4.224,3.126,9.644,2.6,14.684S76.1,302.92,76,307.988" transform="translate(-16.513 -206.492)" fill="#8dc63f"/>
      <path id="Path_5048" data-name="Path 5048" d="M70.768,292.481A41.224,41.224,0,0,0,40.16,305.518a28.594,28.594,0,0,0,16.768-3.111,86.289,86.289,0,0,0,14.361-9.6" transform="translate(-29.699 -200.587)" fill="#8dc63f"/>
      <path id="Path_5049" data-name="Path 5049" d="M61.508,289.715c-5.632-.451-10.954-1.14-16.332.507A19.57,19.57,0,0,0,32.73,300.781a29.565,29.565,0,0,0,15.3-2.9,87.608,87.608,0,0,0,13.474-8.166" transform="translate(-32.73 -201.932)" fill="#8dc63f"/>
      <path id="Path_5050" data-name="Path 5050" d="M75.578,292.18c-5.026-3.28-10.179-6.6-16.036-8.011s-12.671-.352-16.712,4.055c4.731,2.816,10.489,3.111,15.98,3.111s12.221,0,17.4,1.76" transform="translate(-28.61 -204.214)" fill="#8dc63f"/>
      <path id="Path_5051" data-name="Path 5051" d="M68.953,300.057c-8.6-8.447-11.855-23.6-8.447-35.127a53.5,53.5,0,0,1,8.447,35.127" transform="translate(-21.943 -211.824)" fill="#8dc63f"/>
      <path id="Path_5052" data-name="Path 5052" d="M82.9,280.932c1.619-3.759,2.816-7.715,4.224-11.559a33.409,33.409,0,0,1,6.012-10.644,15.754,15.754,0,0,1,10.644-5.519,42.871,42.871,0,0,1-20.654,27.778" transform="translate(-12.265 -216.604)" fill="#8dc63f"/>
      <path id="Path_5053" data-name="Path 5053" d="M86.3,280.828c-2.675-3.689-5.772-8.7-9.419-11.46S68.519,264.947,64.07,266A29.89,29.89,0,0,0,86.3,280.828" transform="translate(-19.946 -211.517)" fill="#8dc63f"/>
      <path id="Path_5054" data-name="Path 5054" d="M81.8,281.143a63.2,63.2,0,0,1-4.224-13.727,21.442,21.442,0,0,1,2.154-13.966c4.731,8.926,6.237,18.5,2.337,27.792" transform="translate(-14.584 -216.507)" fill="#8dc63f"/>
      <path id="Path_5055" data-name="Path 5055" d="M82.93,258.909c2.675-8.828,10.77-15.346,19.5-18.3a7.18,7.18,0,0,1,3.421-.507,2.942,2.942,0,0,1,2.52,2.1c.324,1.506-.915,2.816-2.084,3.858A66.369,66.369,0,0,1,82.93,258.937" transform="translate(-12.253 -221.966)" fill="#8dc63f"/>
      <path id="Path_5056" data-name="Path 5056" d="M83.041,256.931c.338-5.632.69-11.474,2.548-16.895S91.01,229.575,96.2,227.21c.887,5.758-1.647,11.474-4.716,16.43s-6.744,9.63-8.588,15.149" transform="translate(-12.265 -227.21)" fill="#8dc63f"/>
      <path id="Path_5057" data-name="Path 5057" d="M87.7,260.088c-2.21-6.448-2.436-14.628-6.293-20.246-2.7-3.914-7.04-6.589-9.334-10.742a16.374,16.374,0,0,0,.535,12.207,35.324,35.324,0,0,0,7.138,10.179c2.816,3.055,5.294,5.35,7.955,8.574" transform="translate(-17.062 -226.439)" fill="#8dc63f"/>
      <path id="Path_5058" data-name="Path 5058" d="M83.028,441.464c-.169,0-.324-42.969-.338-95.963s.127-95.991.3-95.991.324,42.969.324,95.991S83.2,441.464,83.028,441.464Z" transform="translate(-12.351 -218.114)" fill="#263238"/>
      <path id="Path_5059" data-name="Path 5059" d="M120.515,294.42a9.139,9.139,0,0,1-1.605.605l-4.449,1.506c-3.759,1.267-8.9,3.126-14.487,5.42s-10.756,4.294-13.727,6.871a10.011,10.011,0,0,0-2.816,3.646c-.436,1.014-.507,1.633-.563,1.619s0-.155,0-.451a7.15,7.15,0,0,1,.324-1.253A9.489,9.489,0,0,1,85.88,308.5a24,24,0,0,1,5.955-3.7c2.379-1.112,5.026-2.267,7.828-3.421,5.632-2.295,10.8-4.1,14.586-5.266,1.9-.591,3.435-1.028,4.519-1.309a9.235,9.235,0,0,1,1.746-.38Z" transform="translate(-12.289 -199.795)" fill="#263238"/>
      <path id="Path_5060" data-name="Path 5060" d="M131.966,272.94a5.757,5.757,0,0,1-.451.493l-1.408,1.3-5.153,4.674L107.82,294.664c-6.688,5.941-12.474,11.643-16.473,15.923-2.013,2.14-3.59,3.914-4.66,5.139-.507.577-.915,1.056-1.253,1.408a2.634,2.634,0,0,1-.465.479,3.152,3.152,0,0,1,.366-.549l1.155-1.506c1.028-1.281,2.562-3.1,4.533-5.28a212.917,212.917,0,0,1,16.416-16.135c6.7-5.941,12.812-11.263,17.247-15.121l5.28-4.534,1.408-1.211a3.28,3.28,0,0,1,.591-.338Z" transform="translate(-11.421 -208.556)" fill="#263238"/>
      <path id="Path_5061" data-name="Path 5061" d="M96.094,296.982c-.169-.084,1.225-3.309,2.619-7.391s2.056-7.518,2.239-7.49a24.738,24.738,0,0,1-1.647,7.687,50.357,50.357,0,0,1-2.084,5.167,8.73,8.73,0,0,1-1.126,2.027Z" transform="translate(-6.889 -204.82)" fill="#263238"/>
      <path id="Path_5062" data-name="Path 5062" d="M90.216,320.232a6.22,6.22,0,0,1-1.028-1.2l-2.647-3.379c-2.224-2.816-5.28-6.828-8.715-11.165s-6.6-8.208-8.9-11.024l-2.689-3.337a6.942,6.942,0,0,1-.929-1.281,8.788,8.788,0,0,1,1.112,1.126c.69.746,1.661,1.844,2.816,3.21,2.379,2.745,5.632,6.589,9.039,10.925s6.462,8.335,8.588,11.263c1.07,1.408,1.915,2.661,2.478,3.506A7.769,7.769,0,0,1,90.216,320.232Z" transform="translate(-19.44 -202.067)" fill="#263238"/>
      <path id="Path_5063" data-name="Path 5063" d="M78.346,307.4a15.135,15.135,0,0,1-3.449-6.448,18.8,18.8,0,0,1-.788-6.519h.282c-.127.493-.211.76-.268.746s0-.282,0-.788H74.4a30.2,30.2,0,0,0,1.1,6.336,47.373,47.373,0,0,0,2.844,6.673Z" transform="translate(-15.863 -199.807)" fill="#263238"/>
      <path id="Path_5064" data-name="Path 5064" d="M74.961,294.908a12,12,0,0,0-2.408-1.408,16.2,16.2,0,0,0-6.688-.535,42.246,42.246,0,0,0-6.73,1.084,22.406,22.406,0,0,1-2.816.676,8.983,8.983,0,0,1,2.647-1.1,31.3,31.3,0,0,1,6.814-1.281,14.741,14.741,0,0,1,6.885.746A4.294,4.294,0,0,1,74.961,294.908Z" transform="translate(-23.107 -200.691)" fill="#263238"/>
      <path id="Path_5065" data-name="Path 5065" d="M75.345,292.978c0,.1-1.408-.563-3.689-1.338a38.3,38.3,0,0,0-9.208-1.9,38.79,38.79,0,0,0-9.391.479c-2.379.422-3.815.873-3.858.774a3.478,3.478,0,0,1,.986-.422A22.152,22.152,0,0,1,53,289.8,32.565,32.565,0,0,1,71.825,291.2a23.838,23.838,0,0,1,2.647,1.183,5,5,0,0,1,.873.591Z" transform="translate(-26.012 -201.999)" fill="#263238"/>
      <path id="Path_5066" data-name="Path 5066" d="M84.283,287.562a76.478,76.478,0,0,1-2.675-9.349,79.456,79.456,0,0,1-2.1-9.5,74.927,74.927,0,0,1,2.7,9.348,77.619,77.619,0,0,1,2.07,9.5Z" transform="translate(-13.648 -210.282)" fill="#263238"/>
      <path id="Path_5067" data-name="Path 5067" d="M85.137,285.044a43.651,43.651,0,0,0-2.985-5.632,24.175,24.175,0,0,0-4.393-4.519,4.119,4.119,0,0,1,1.7.873,13.516,13.516,0,0,1,3.2,3.294A12.376,12.376,0,0,1,85.137,285.044Z" transform="translate(-14.362 -207.764)" fill="#263238"/>
      <path id="Path_5068" data-name="Path 5068" d="M94.323,387.764c-.07,0-.2-1.028-.676-2.816a40.829,40.829,0,0,0-2.816-7.434,103.215,103.215,0,0,0-15.29-21.541c-3.407-3.886-6.7-7.546-9.5-11.066a77.2,77.2,0,0,1-6.8-9.855,48.434,48.434,0,0,1-3.435-7.237c-.31-.9-.535-1.605-.676-2.084A3.282,3.282,0,0,1,55,325s.366.986,1.07,2.731a53.162,53.162,0,0,0,3.548,7.124,81.889,81.889,0,0,0,6.857,9.672c2.816,3.463,6.124,7.04,9.532,11.01a97.454,97.454,0,0,1,15.163,21.682,37.225,37.225,0,0,1,2.7,7.575,21.113,21.113,0,0,1,.394,2.154A4.379,4.379,0,0,1,94.323,387.764Z" transform="translate(-23.646 -187.321)" fill="#263238"/>
      <path id="Path_5069" data-name="Path 5069" d="M116.839,342.362a16.141,16.141,0,0,1-1.774,1,38.016,38.016,0,0,0-4.618,3.041,52.8,52.8,0,0,0-6.054,5.533c-2.126,2.239-4.322,4.843-6.547,7.645-4.477,5.632-8.659,10.573-11.165,14.53-1.267,1.971-2.182,3.618-2.816,4.787a16.337,16.337,0,0,1-.986,1.788,2.323,2.323,0,0,1,.169-.507c.127-.31.31-.8.591-1.408a45.057,45.057,0,0,1,2.647-4.9,159.525,159.525,0,0,1,11.038-14.7c2.239-2.816,4.463-5.406,6.631-7.645a48.021,48.021,0,0,1,6.209-5.491,32.973,32.973,0,0,1,4.759-2.915,13.942,13.942,0,0,1,1.408-.605C116.67,342.39,116.839,342.334,116.839,342.362Z" transform="translate(-12.273 -180.242)" fill="#263238"/>
      <path id="Path_5070" data-name="Path 5070" d="M114.3,351.2a26.084,26.084,0,0,1-3.759.549,49.282,49.282,0,0,0-8.912,1.746,27.019,27.019,0,0,0-7.983,4.224c-1.83,1.408-2.7,2.591-2.816,2.534a2.942,2.942,0,0,1,.549-.873,14.929,14.929,0,0,1,1.971-2,23.935,23.935,0,0,1,8.067-4.449,40.239,40.239,0,0,1,9.053-1.591,20.632,20.632,0,0,1,3.83-.141Z" transform="translate(-9.031 -176.647)" fill="#263238"/>
      <path id="Path_5071" data-name="Path 5071" d="M91.635,360.322c-.2-.113,1.492-2.7,2.816-6.181s1.521-6.6,1.732-6.561a5.631,5.631,0,0,1,0,2.013,22.33,22.33,0,0,1-1.1,4.759A22.974,22.974,0,0,1,92.9,358.7,5.9,5.9,0,0,1,91.635,360.322Z" transform="translate(-8.709 -178.11)" fill="#263238"/>
      <path id="Path_5072" data-name="Path 5072" d="M127.864,318.65a3.32,3.32,0,0,1-.605.31l-1.76.8c-.774.338-1.718.76-2.816,1.309s-2.309,1.112-3.59,1.887l-2.056,1.169c-.7.408-1.408.9-2.168,1.408-1.506.915-3.013,2.041-4.632,3.2a88.7,88.7,0,0,0-9.7,8.532,85.375,85.375,0,0,0-8.18,9.982c-1.1,1.647-2.182,3.2-3.041,4.745-.451.76-.9,1.478-1.3,2.21l-1.1,2.084c-.718,1.323-1.239,2.576-1.76,3.661s-.9,2.027-1.211,2.816l-.746,1.788a2.479,2.479,0,0,1-.3.605,3.322,3.322,0,0,1,.183-.648l.634-1.844a27.754,27.754,0,0,1,1.126-2.816c.493-1.056.971-2.379,1.689-3.717l1.056-2.112c.38-.746.831-1.408,1.267-2.253.859-1.563,1.929-3.126,3.013-4.815a77.167,77.167,0,0,1,18.007-18.627c1.647-1.154,3.182-2.281,4.716-3.182.76-.465,1.408-.943,2.2-1.338l2.084-1.14c1.309-.76,2.562-1.3,3.646-1.816s2.041-.915,2.816-1.225l1.816-.69a2.084,2.084,0,0,1,.7-.281Z" transform="translate(-12.261 -189.911)" fill="#263238"/>
      <path id="Path_5073" data-name="Path 5073" d="M95.76,332.731a4.392,4.392,0,0,1,1.408-2.21,9.4,9.4,0,0,1,5.955-2.281,16.5,16.5,0,0,1,6.265,1.225,8.954,8.954,0,0,1,2.365,1.155,14.67,14.67,0,0,1-2.52-.732,18.766,18.766,0,0,0-6.1-1.028,9.672,9.672,0,0,0-5.632,2,15.947,15.947,0,0,0-1.746,1.872Z" transform="translate(-7.02 -185.999)" fill="#263238"/>
      <path id="Path_5074" data-name="Path 5074" d="M92.91,337.633a15.881,15.881,0,0,0,1.309-11.263,3.576,3.576,0,0,1,.7,1.605,11.348,11.348,0,0,1,.3,4.224,11.517,11.517,0,0,1-1.253,4.027C93.431,337.183,93.037,337.675,92.91,337.633Z" transform="translate(-8.182 -186.762)" fill="#263238"/>
      <path id="Path_5075" data-name="Path 5075" d="M61.85,374c.929,16.43,5.871,33.128,13.488,50.023h33.1c7.265-16.726,11.869-33.4,12.671-50.023Z" transform="translate(-20.852 -167.333)" fill="#263238"/>
      <path id="Path_5076" data-name="Path 5076" d="M114.245,392.92c0,.169-10.9.31-24.343.31s-24.343-.141-24.343-.31,10.9-.31,24.343-.31S114.245,392.751,114.245,392.92Z" transform="translate(-19.338 -159.742)" fill="#fafafa"/>
      <path id="Path_5077" data-name="Path 5077" d="M112.83,397.15c0,.169-10.207.31-22.808.31s-22.822-.141-22.822-.31,10.207-.31,22.822-.31S112.83,396.967,112.83,397.15Z" transform="translate(-18.669 -158.017)" fill="#fafafa"/>
    </g>
    <g id="freepik--character-4--inject-209" transform="translate(393.562 81.648)">
      <path id="Path_5078" data-name="Path 5078" d="M349.865,87.944c4.407-1.718,9.419,1.985,13.98.746,2.816-.76,4.745-3.154,7.138-4.745a14.515,14.515,0,0,1,12.84-1.408c3.956,1.675,6.575,3.562,7.406,7.786,3.337-2.253,9.461,1.7,11.756,5.8s2.1,8.447,1.309,13.094a61.821,61.821,0,0,1-8.616,22.428c-.38.605-1.014,1.3-1.675,1.028s-.648-.718-.76-1.2a51.391,51.391,0,0,1-.69-12.573,31.3,31.3,0,0,0-1.69-12.418c-1.619-3.886-5-7.293-9.179-7.814a13.3,13.3,0,0,0-8.757,2.562c-2.591,1.7-4.829,3.914-7.279,5.829a17.022,17.022,0,0,1-8.321,3.928,8.138,8.138,0,0,1-8.039-3.562c-1.521-2.717-.324-6.8,2.661-7.673a6.11,6.11,0,0,1-2.084-11.8Z" transform="translate(-258.393 -81.648)" fill="#263238"/>
      <path id="Path_5079" data-name="Path 5079" d="M394.922,109.229l-1.1,47.165c-.183,8.025-8.067,14.811-16.078,14.234h0c-7.462-.549-12.164-7.42-11.981-14.9.084-3.562.141-6.519.127-6.885,0,0-11.981-1.408-12.573-13.3-.282-5.758.1-17.655.563-28.426A22.2,22.2,0,0,1,375.239,85.9h1.14C388.811,86.125,395.527,96.811,394.922,109.229Z" transform="translate(-255.44 -79.914)" fill="#ffbe9d"/>
      <path id="Path_5080" data-name="Path 5080" d="M362.21,131.938a27.623,27.623,0,0,0,15.36-5s-3.351,8.715-15.276,8.081Z" transform="translate(-251.774 -63.173)" fill="#eb996e"/>
      <path id="Path_5081" data-name="Path 5081" d="M357,107.785a1.689,1.689,0,0,0,1.7,1.647,1.633,1.633,0,0,0,1.689-1.591,1.7,1.7,0,0,0-1.7-1.661,1.633,1.633,0,0,0-1.69,1.605Z" transform="translate(-253.899 -71.642)" fill="#263238"/>
      <path id="Path_5082" data-name="Path 5082" d="M355.669,105.616c.211.211,1.408-.788,3.295-.859s3.21.8,3.407.577-.141-.493-.746-.9a4.674,4.674,0,0,0-2.731-.732,4.435,4.435,0,0,0-2.619.957C355.74,105.109,355.557,105.532,355.669,105.616Z" transform="translate(-254.455 -72.654)" fill="#263238"/>
      <path id="Path_5083" data-name="Path 5083" d="M369.43,107.785a1.718,1.718,0,0,0,1.718,1.647,1.619,1.619,0,0,0,1.69-1.591,1.7,1.7,0,0,0-1.7-1.661,1.633,1.633,0,0,0-1.7,1.605Z" transform="translate(-248.829 -71.642)" fill="#263238"/>
      <path id="Path_5084" data-name="Path 5084" d="M368.459,105.372c.211.211,1.408-.788,3.294-.845s3.21.8,3.407.563-.141-.493-.746-.9a4.674,4.674,0,0,0-2.731-.718,4.477,4.477,0,0,0-2.619.943C368.53,104.866,368.347,105.288,368.459,105.372Z" transform="translate(-249.238 -72.749)" fill="#263238"/>
      <path id="Path_5085" data-name="Path 5085" d="M365.434,119.07a12.8,12.8,0,0,0-3-.422c-.465,0-.915-.113-1-.422a2.393,2.393,0,0,1,.253-1.408c.408-1.154.817-2.351,1.253-3.618a61.176,61.176,0,0,0,2.816-9.419,61.076,61.076,0,0,0-3.506,9.18c-.422,1.267-.817,2.478-1.2,3.632a2.7,2.7,0,0,0-.169,1.844,1.2,1.2,0,0,0,.788.648,3.462,3.462,0,0,0,.8.084A11.418,11.418,0,0,0,365.434,119.07Z" transform="translate(-252.35 -72.62)" fill="#263238"/>
      <path id="Path_5086" data-name="Path 5086" d="M367.923,100.179c.2.493,2.013.183,4.224.366s3.914.7,4.224.239c.113-.211-.2-.676-.915-1.126a6.955,6.955,0,0,0-3.14-.971,7.04,7.04,0,0,0-3.238.507C368.219,99.545,367.839,99.939,367.923,100.179Z" transform="translate(-249.448 -74.707)" fill="#263238"/>
      <path id="Path_5087" data-name="Path 5087" d="M356.017,101.868c.338.394,1.577-.084,3.1-.155s2.816.169,3.083-.267-.1-.634-.676-1a4.224,4.224,0,0,0-2.534-.591,4.294,4.294,0,0,0-2.45.929C356.017,101.234,355.862,101.671,356.017,101.868Z" transform="translate(-254.323 -74.228)" fill="#263238"/>
      <path id="Path_5088" data-name="Path 5088" d="M382.389,108.9c.2-.1,8.1-2.731,8.138,5.42s-8.152,6.519-8.166,6.279S382.389,108.9,382.389,108.9Z" transform="translate(-243.555 -70.729)" fill="#ffbe9d"/>
      <path id="Path_5089" data-name="Path 5089" d="M384.122,116.746a2.822,2.822,0,0,0,.38.211,1.506,1.506,0,0,0,1.07,0,3.506,3.506,0,0,0,1.605-3.168,4.7,4.7,0,0,0-.408-2.027,1.647,1.647,0,0,0-1.084-1.084.732.732,0,0,0-.831.394c-.113.225,0,.394-.1.408s-.169-.141-.113-.479a.859.859,0,0,1,.324-.507.971.971,0,0,1,.774-.211,1.957,1.957,0,0,1,1.492,1.253,4.6,4.6,0,0,1,.507,2.267,3.674,3.674,0,0,1-2.056,3.534,1.492,1.492,0,0,1-1.3-.211C384.136,116.929,384.094,116.76,384.122,116.746Z" transform="translate(-242.839 -69.973)" fill="#eb996e"/>
      <path id="Path_5090" data-name="Path 5090" d="M351.83,105.292a17.162,17.162,0,0,0,15.149-4.013c2.816-2.562,4.914-6.181,8.447-7.434a9.729,9.729,0,0,1,7.434.732,18.823,18.823,0,0,1,5.815,4.956c-2.07,6.138-.267,12.84,1.535,19.063a3.2,3.2,0,0,0,1.014,1.844c.986.7,2.408,0,3.224-.845a10.08,10.08,0,0,0,2-5.392A33.634,33.634,0,0,0,395.883,101a22.893,22.893,0,0,0-6.7-11.263,21.639,21.639,0,0,0-15.374-5.153A26.441,26.441,0,0,0,358.63,90.65a15.572,15.572,0,0,0-4.787,5.955" transform="translate(-256.008 -80.468)" fill="#263238"/>
      <path id="Path_5091" data-name="Path 5091" d="M346.38,89.674a2.056,2.056,0,0,0,.1.7,3.365,3.365,0,0,0,1.211,1.633,5.237,5.237,0,0,0,3.083.9,9.363,9.363,0,0,0,2.013-.2,4.421,4.421,0,0,0,2.041-1.042,2.9,2.9,0,0,0,.873-2.351,2.548,2.548,0,0,0-1.816-2.013,3.182,3.182,0,0,0-1.408-.141,2.731,2.731,0,0,0-1.408.69,3.675,3.675,0,0,0-1.1,2.816,4.224,4.224,0,0,0,1.408,2.943,6.519,6.519,0,0,0,3.013,1.563,10.756,10.756,0,0,0,6.941-.929,30.356,30.356,0,0,0,5.885-3.858A39.9,39.9,0,0,1,372.6,86.7a11.911,11.911,0,0,1,5.5-1.6,11.615,11.615,0,0,1,4.914,1.056,14.516,14.516,0,0,1,5.632,4.716,19.7,19.7,0,0,1,1.1,1.689,6.812,6.812,0,0,0,.366.605.943.943,0,0,0-.07-.169,4.222,4.222,0,0,0-.225-.479,15.318,15.318,0,0,0-6.631-6.617,11.713,11.713,0,0,0-5.054-1.14,12.291,12.291,0,0,0-5.716,1.577,39.156,39.156,0,0,0-5.449,3.745,30.437,30.437,0,0,1-5.815,3.8,10.348,10.348,0,0,1-6.673,1,6.2,6.2,0,0,1-2.816-1.408,3.914,3.914,0,0,1-1.3-2.675,3.365,3.365,0,0,1,.971-2.619,2.492,2.492,0,0,1,2.506-.493,2.253,2.253,0,0,1,1.605,1.633,2.577,2.577,0,0,1-.831,2.1,4.013,4.013,0,0,1-1.9,1,8.672,8.672,0,0,1-1.943.225,5.083,5.083,0,0,1-3-.8,3.351,3.351,0,0,1-1.211-1.535q-.107-.312-.183-.634Z" transform="translate(-258.231 -80.379)" fill="#455a64"/>
      <path id="Path_5092" data-name="Path 5092" d="M391.385,99.193a13.322,13.322,0,0,1-2.464.732,6.87,6.87,0,0,1-2.731-.169,11.728,11.728,0,0,1-3.111-1.408,9.545,9.545,0,0,1-3.815-4.716,22,22,0,0,1-.634-2.492,1.931,1.931,0,0,0,0,.7,7.743,7.743,0,0,0,.38,1.887,9.349,9.349,0,0,0,3.872,4.97,11.49,11.49,0,0,0,3.224,1.408,6.772,6.772,0,0,0,2.886.1,6.532,6.532,0,0,0,1.816-.619A2.2,2.2,0,0,0,391.385,99.193Z" transform="translate(-245.089 -77.776)" fill="#455a64"/>
      <path id="Path_5093" data-name="Path 5093" d="M391.432,103.377c0-.084-.957.169-2.506.141a11.263,11.263,0,0,1-9.729-5.857c-.732-1.408-.957-2.309-1.028-2.281a2.814,2.814,0,0,0,.113.662,8.869,8.869,0,0,0,.662,1.746,10.911,10.911,0,0,0,4.1,4.519,11.024,11.024,0,0,0,5.885,1.563,8.206,8.206,0,0,0,1.858-.225,2.817,2.817,0,0,0,.648-.268Z" transform="translate(-245.264 -76.047)" fill="#455a64"/>
      <path id="Path_5094" data-name="Path 5094" d="M373.045,110.3a.225.225,0,0,0,.239-.183.2.2,0,1,0-.394,0A.211.211,0,0,0,373.045,110.3Z" transform="translate(-247.417 -70.116)" fill="#eb996e"/>
      <path id="Path_5095" data-name="Path 5095" d="M370.518,109.867a.253.253,0,0,0,.239-.225.206.206,0,1,0-.394-.056.225.225,0,0,0,.155.282Z" transform="translate(-248.452 -70.344)" fill="#eb996e"/>
      <path id="Path_5096" data-name="Path 5096" d="M368.839,109.932c.113,0,.225-.127.239-.31s0-.338-.169-.352-.225.127-.239.31S368.741,109.918,368.839,109.932Z" transform="translate(-249.139 -70.381)" fill="#eb996e"/>
      <path id="Path_5097" data-name="Path 5097" d="M371.871,111.863c.113,0,.2,0,.2-.127s-.1-.127-.211-.127-.2,0-.2.141a.183.183,0,0,0,.211.113Z" transform="translate(-247.919 -69.427)" fill="#eb996e"/>
      <path id="Path_5098" data-name="Path 5098" d="M369.564,111.472a.225.225,0,0,0,.211-.225.2.2,0,1,0-.211.225Z" transform="translate(-248.85 -69.655)" fill="#eb996e"/>
      <path id="Path_5099" data-name="Path 5099" d="M357.646,110.511a.225.225,0,0,0,.239-.2.211.211,0,0,0-.155-.253.225.225,0,0,0-.239.2A.211.211,0,0,0,357.646,110.511Z" transform="translate(-253.701 -70.059)" fill="#eb996e"/>
      <path id="Path_5100" data-name="Path 5100" d="M355.953,110.437a.253.253,0,0,0,.225-.253.211.211,0,0,0-.183-.253.245.245,0,0,0-.225.239.253.253,0,0,0,.183.268Z" transform="translate(-254.401 -70.112)" fill="#eb996e"/>
      <path id="Path_5101" data-name="Path 5101" d="M359.149,110.458a.169.169,0,1,0-.169-.2.183.183,0,0,0,.169.2Z" transform="translate(-253.091 -70.034)" fill="#eb996e"/>
      <path id="Path_5102" data-name="Path 5102" d="M357.946,112.222a.225.225,0,1,0-.1-.282.2.2,0,0,0,.1.282Z" transform="translate(-253.564 -69.349)" fill="#eb996e"/>
      <path id="Path_5103" data-name="Path 5103" d="M356.521,111.968a.167.167,0,1,0-.239-.1A.2.2,0,0,0,356.521,111.968Z" transform="translate(-254.194 -69.418)" fill="#eb996e"/>
      <path id="Path_5104" data-name="Path 5104" d="M363.587,119.248c2.281,7.448,8.954.788,4.871-2.168a33.791,33.791,0,0,0-5.139,1.9" transform="translate(-251.321 -67.195)" fill="#eb996e"/>
      <path id="Path_5105" data-name="Path 5105" d="M365.471,122.808c2.436.563,5.7-2.267,3.618-5.167-1.014-.3-3.041,1.154-4.069,1.338-2.9,1.1-3.013.845-.211-.493,1.281-.422,2.9-1.746,4.393-1.675C372.525,119.218,368.723,124.836,365.471,122.808Z" transform="translate(-251.543 -67.306)" fill="#263238"/>
      <path id="Path_5106" data-name="Path 5106" d="M365.541,134.672l10.109,10.193,17.993-11.306,5.266,9.4L389.968,248.7l-36.718.3,2.436-96.808Z" transform="translate(-255.429 -60.473)" fill="#f5f5f5"/>
      <path id="Path_5107" data-name="Path 5107" d="M321.242,243.235l-2.112-22.71,21.006-72.845,6.828,26.257s4.364,46,4.364,46.9-5.322,9.7-5.322,9.7l1.647,12.671Z" transform="translate(-269.346 -54.713)" fill="#8dc63f"/>
      <path id="Path_5108" data-name="Path 5108" d="M374.057,134l-11.263,8.982L334.03,153.3l5.589,29.327,5.069,45.278.816,20.907h23.118l1.7-38.013s-4.224-54.416-2.084-64.426Z" transform="translate(-263.268 -60.293)" fill="#8dc63f"/>
      <path id="Path_5109" data-name="Path 5109" d="M385.819,133.55l10.686,7.377,13.769,5.941s14.825,3.266,14.192,4.224-4.773,52.374-4.773,52.374L421.1,249H372.43V228.513L387.523,148.8Z" transform="translate(-247.605 -60.477)" fill="#8dc63f"/>
      <path id="Path_5110" data-name="Path 5110" d="M410.976,146c2.056.563,13.854,22.386,13.854,22.386l11.362,9.433,6.547-12.122,15.586.183,1.76,20.387s-9.236,20.02-12.9,22.146-15.205-2.126-20.978-4.224-21.639-20.964-21.639-20.964Z" transform="translate(-234.495 -55.399)" fill="#8dc63f"/>
      <path id="Path_5111" data-name="Path 5111" d="M343.926,210.264a28.862,28.862,0,0,1-2.281-2.816,30.479,30.479,0,0,0-6.138-6.04,16.556,16.556,0,0,0-7.941-2.985c-2.2-.183-3.562.211-3.576,0s.31-.183.929-.338a10.181,10.181,0,0,1,2.675-.253,15.557,15.557,0,0,1,8.321,2.914,25.54,25.54,0,0,1,6.153,6.322A13.009,13.009,0,0,1,343.926,210.264Z" transform="translate(-267.364 -34.259)" fill="#263238"/>
      <path id="Path_5112" data-name="Path 5112" d="M343.533,204.264a34.931,34.931,0,0,0-6.589-5.772,33.916,33.916,0,0,0-8.124-3.28,6.519,6.519,0,0,1,2.619.253,19.262,19.262,0,0,1,5.9,2.393,19.458,19.458,0,0,1,4.787,4.224,6.731,6.731,0,0,1,1.408,2.182Z" transform="translate(-265.394 -35.34)" fill="#263238"/>
      <path id="Path_5113" data-name="Path 5113" d="M363.391,229.189a5.738,5.738,0,0,1-.549-.859,28.332,28.332,0,0,1-1.408-2.562c-1.239-2.239-2.985-5.5-4.871-9.658a115.869,115.869,0,0,1-5.632-15.036,89.548,89.548,0,0,1-3.492-19.359,185.95,185.95,0,0,1-.07-21.3c.07-1.6.127-3.182.2-4.688a15.624,15.624,0,0,1,.634-4.393,5.857,5.857,0,0,1,1.028-1.887,4.843,4.843,0,0,1,1.647-1.253,3.449,3.449,0,0,1,3.689.338l-.282.38-2.337-1.492-.183-.127.113-.169a19.626,19.626,0,0,1,2.7-3.14c.859-.845,1.577-1.549,2.154-2.154s.971-1.07,1.239-1.408a5.627,5.627,0,0,1,.408-.521,2.2,2.2,0,0,1-.31.577,13.26,13.26,0,0,1-1.169,1.506c-.549.634-1.253,1.408-2.084,2.239a20.208,20.208,0,0,0-2.576,3.126l-.07-.3,2.365,1.408-.282.394a2.914,2.914,0,0,0-3.154-.211,4.391,4.391,0,0,0-1.408,1.112,5.869,5.869,0,0,0-.9,1.718,15.053,15.053,0,0,0-.549,4.224q-.084,2.253-.169,4.688a199.176,199.176,0,0,0,.141,21.217,101.37,101.37,0,0,0,8.912,34.24c1.83,4.224,3.506,7.462,4.66,9.743.549,1.084,1,1.943,1.338,2.619a4.775,4.775,0,0,1,.267.985Z" transform="translate(-257.938 -57.887)" fill="#263238"/>
      <path id="Path_5114" data-name="Path 5114" d="M373.33,230.193a5.057,5.057,0,0,1,.366-.971c.282-.7.676-1.619,1.155-2.816,1-2.393,2.436-5.857,4.153-10.179,3.393-8.63,7.687-20.71,11.925-34.212,2.548-8.081,4.843-15.726,6.871-22.456.507-1.675.986-3.294,1.408-4.857a15.954,15.954,0,0,0,.845-4.491c.127-2.816-2.253-5.322-4.435-4.928v-.436l3.463-.282-.169.141a4.956,4.956,0,0,0-1.323-4.421,6.548,6.548,0,0,0-1.338-1.014,3.3,3.3,0,0,1,1.478.873,5.153,5.153,0,0,1,1.535,4.646v.127h-.141l-3.463.352v-.436c2.562-.479,5.167,2.267,5.068,5.364a16.076,16.076,0,0,1-.817,4.66c-.451,1.563-.929,3.2-1.408,4.871-1.971,6.744-4.224,14.417-6.8,22.527-4.224,13.516-8.616,25.6-12.136,34.184-1.774,4.224-3.28,7.743-4.379,10.095l-1.281,2.7A4.222,4.222,0,0,1,373.33,230.193Z" transform="translate(-247.238 -58.144)" fill="#263238"/>
      <path id="Path_5115" data-name="Path 5115" d="M381,208.289a16.894,16.894,0,0,1-6.9.634,16.782,16.782,0,0,1,6.9-.634Z" transform="translate(-246.924 -30.074)" fill="#263238"/>
      <path id="Path_5116" data-name="Path 5116" d="M356.927,207.123c0,.127-.69.127-1.225.929a1.788,1.788,0,0,0-.3,1.408,1.675,1.675,0,0,0,2.914.352,1.844,1.844,0,0,0,.07-1.492c-.338-.9-1.028-1.084-.971-1.183s.859-.1,1.408.971a2.3,2.3,0,0,1,0,2.027,2.182,2.182,0,0,1-2.253,1.084,2.126,2.126,0,0,1-1.9-1.591,2.21,2.21,0,0,1,.535-1.957C356.11,206.828,356.983,207.053,356.927,207.123Z" transform="translate(-254.867 -30.499)" fill="#263238"/>
      <path id="Path_5117" data-name="Path 5117" d="M406.035,174.3a71.62,71.62,0,0,1-9.771,2.9,70.965,70.965,0,0,1-9.954,2.2,142.829,142.829,0,0,1,19.711-5.1Z" transform="translate(-241.943 -43.855)" fill="#263238"/>
      <path id="Path_5118" data-name="Path 5118" d="M405.845,184.243a5.774,5.774,0,0,1-.549-1.408,24.871,24.871,0,0,1-.788-4.153,82.569,82.569,0,0,1-.084-13.882,39.724,39.724,0,0,1,.986-7.617,25.344,25.344,0,0,1,2.21-5.871,18.622,18.622,0,0,1,2.393-3.492,4.591,4.591,0,0,1,1.126-1.07,33.593,33.593,0,0,0-3.055,4.8,25.948,25.948,0,0,0-2.013,5.8,42.583,42.583,0,0,0-.915,7.49,102.021,102.021,0,0,0-.127,13.8C405.338,182.117,405.957,184.2,405.845,184.243Z" transform="translate(-234.657 -55.093)" fill="#263238"/>
      <path id="Path_5119" data-name="Path 5119" d="M421.182,162.268a15.487,15.487,0,0,0-10.672,7.926,4.225,4.225,0,0,1,.69-1.971,11.981,11.981,0,0,1,7.9-5.871A4.055,4.055,0,0,1,421.182,162.268Z" transform="translate(-232.072 -48.802)" fill="#263238"/>
      <path id="Path_5120" data-name="Path 5120" d="M420.21,189.66a19.9,19.9,0,0,1,1.267-3.83c.887-2.323,2.239-5.491,3.914-8.9s3.365-6.42,4.646-8.546a19.776,19.776,0,0,1,2.267-3.337,23.62,23.62,0,0,1-1.816,3.6c-1.169,2.182-2.816,5.209-4.435,8.6s-3.083,6.519-4.1,8.785A24.543,24.543,0,0,1,420.21,189.66Z" transform="translate(-228.115 -47.628)" fill="#263238"/>
      <path id="Path_5121" data-name="Path 5121" d="M416.89,185.715a12.346,12.346,0,0,1,.732-3.295,25.185,25.185,0,0,1,3.59-7.377,18.3,18.3,0,0,1,6.251-5.322,10.08,10.08,0,0,1,3.168-1.211c0,.113-1.155.619-2.914,1.675a20.275,20.275,0,0,0-5.913,5.294,29.763,29.763,0,0,0-3.689,7.04,19.107,19.107,0,0,1-1.225,3.2Z" transform="translate(-229.469 -46.217)" fill="#263238"/>
      <path id="Path_5122" data-name="Path 5122" d="M438.8,189.411a1.81,1.81,0,0,1-.873.366,4.223,4.223,0,0,1-2.548-.408,7.292,7.292,0,0,1-2.816-2.619,20.837,20.837,0,0,1-3.421-12.333,9.432,9.432,0,0,1,.577-3.407c.127,0-.1,1.323,0,3.407a24.272,24.272,0,0,0,1.492,7.969c1.14,2.928,2.633,5.561,4.435,6.519a4.843,4.843,0,0,0,3.154.507Z" transform="translate(-224.478 -45.197)" fill="#263238"/>
      <path id="Path_5123" data-name="Path 5123" d="M377.726,148.44s-.577-5.35-3.083-5.632-7.349.169-7.518,5.632l2.506,4.013S364.956,163.8,364,167.475s-4,74.844-4,74.844l7.87,16.135,8.447-16.388,1.408-76.8-3.252-12.15Z" transform="translate(-252.675 -56.726)" fill="#8dc63f"/>
      <path id="Path_5124" data-name="Path 5124" d="M388.422,145.327a4.756,4.756,0,0,1-.8.971c-.549.591-1.408,1.408-2.422,2.408a70,70,0,0,1-8.912,7.04l-.535.366v-.971a34.665,34.665,0,0,0-.718-6.223,10.122,10.122,0,0,0-2.126-4.491,12.951,12.951,0,0,0-3.717-2.816,3.421,3.421,0,0,1,1.239.38,8.561,8.561,0,0,1,2.816,2.07,10.475,10.475,0,0,1,2.393,4.688,32.756,32.756,0,0,1,.788,6.336v.324l-.563-.282a98.9,98.9,0,0,0,8.968-6.772A42.26,42.26,0,0,1,388.422,145.327Z" transform="translate(-248.927 -57.189)" fill="#263238"/>
      <path id="Path_5125" data-name="Path 5125" d="M373.719,141.595a24.061,24.061,0,0,0-3.182,2.056,15.488,15.488,0,0,0-5.012,7.392,14.348,14.348,0,0,0-.352,1.605l-.141.76-.507-.591c-2.07-2.464-3.886-4.674-5.153-6.293a15.008,15.008,0,0,1-1.943-2.675,16.474,16.474,0,0,1,2.309,2.365c1.408,1.521,3.252,3.675,5.35,6.138l-.648.183a15.231,15.231,0,0,1,.38-1.69,14.713,14.713,0,0,1,5.406-7.6,11.909,11.909,0,0,1,2.492-1.408C373.41,141.623,373.719,141.539,373.719,141.595Z" transform="translate(-253.724 -57.202)" fill="#263238"/>
      <path id="Path_5126" data-name="Path 5126" d="M371.387,149.245c0,.2-1.07.38-2.393.408s-2.393-.113-2.393-.324,1.056-.38,2.379-.408S371.387,149.034,371.387,149.245Z" transform="translate(-249.983 -54.209)" fill="#263238"/>
      <path id="Path_5127" data-name="Path 5127" d="M373.757,144.09a15.487,15.487,0,0,1-7.307,6.307,34.39,34.39,0,0,1,3.675-3.126,37.832,37.832,0,0,1,3.632-3.182Z" transform="translate(-250.044 -56.178)" fill="#263238"/>
      <path id="Path_5128" data-name="Path 5128" d="M367.085,159.769a20.09,20.09,0,0,1,.366-5.491,20.018,20.018,0,0,1,1.112-5.378,21.115,21.115,0,0,1-.38,5.477,21.24,21.24,0,0,1-1.1,5.392Z" transform="translate(-249.806 -54.216)" fill="#263238"/>
      <path id="Path_5129" data-name="Path 5129" d="M368.495,169.263a66.85,66.85,0,0,1,0-10.038,65.892,65.892,0,0,1,.69-10.024,71.652,71.652,0,0,1,0,10.038A70.546,70.546,0,0,1,368.495,169.263Z" transform="translate(-249.287 -54.093)" fill="#263238"/>
      <g id="Group_996" data-name="Group 996" transform="translate(107.325 86.019)" opacity="0.4">
        <path id="Path_5130" data-name="Path 5130" d="M377.726,148.44s-.577-5.35-3.083-5.632-7.349.169-7.518,5.632l2.506,4.013S364.956,163.8,364,167.475s-4,74.844-4,74.844l7.87,16.135,8.447-16.388,1.408-76.8-3.252-12.15Z" transform="translate(-360 -142.745)"/>
      </g>
      <path id="Path_5131" data-name="Path 5131" d="M344.953,241.179a4.226,4.226,0,0,1-.1-.9c0-.676-.07-1.535-.113-2.6-.07-2.239-.211-5.5-.422-9.532-.422-8.039-1.281-19.133-2.689-31.34s-3.069-23.23-4.336-31.185c-.634-3.914-1.154-7.04-1.535-9.419-.155-1.056-.3-1.9-.394-2.562a3.69,3.69,0,0,1-.085-.915,6.51,6.51,0,0,1,.225.887c.141.648.324,1.492.535,2.534.465,2.21,1.07,5.42,1.76,9.391,1.408,7.941,3.14,18.95,4.562,31.185s2.182,23.343,2.464,31.41c.155,4.027.211,7.293.2,9.546v2.6A5.629,5.629,0,0,1,344.953,241.179Z" transform="translate(-262.759 -52.657)" fill="#263238"/>
      <g id="Group_997" data-name="Group 997" transform="translate(87.896 97.641)" opacity="0.4">
        <path id="Path_5132" data-name="Path 5132" d="M348.129,151c-1.3,12.671-2.576,25.469-1.563,38.182s4.519,25.511,12,35.859a6.082,6.082,0,0,0,1.816,1.83,2.21,2.21,0,0,0,2.45-.084c1.14-.971.479-2.816-.253-4.125A123.9,123.9,0,0,1,348.129,151" transform="translate(-346.2 -151)"/>
      </g>
      <g id="Group_998" data-name="Group 998" transform="translate(125.881 107.102)" opacity="0.4">
        <path id="Path_5133" data-name="Path 5133" d="M373.856,221.794c-.169,1.408,1.577,2.464,2.971,2.14a6.336,6.336,0,0,0,3.295-2.633c7.04-9.109,11.038-20.232,13.22-31.523s2.619-20.555,3.041-32.058c-5.632,23.343-16.149,52.768-23.2,65.425" transform="translate(-373.18 -157.72)"/>
      </g>
      <g id="Group_999" data-name="Group 999" transform="translate(167.863 114.325)" opacity="0.4">
        <path id="Path_5134" data-name="Path 5134" d="M404.986,162.85s-.507,15.107,3.309,17.585l-1.14,11.263s.183,10.038.38,13.544A46.208,46.208,0,0,1,403,184.856a138.246,138.246,0,0,1,1.732-20.978" transform="translate(-402.999 -162.85)"/>
      </g>
      <g id="Group_1000" data-name="Group 1000" transform="translate(207.483 110.312)" opacity="0.4">
        <path id="Path_5135" data-name="Path 5135" d="M431.14,161.408a12.981,12.981,0,0,0,5.941,8.166,7.04,7.04,0,0,0,3.1,1,6.575,6.575,0,0,0,5.632-3.562,17.542,17.542,0,0,0,1.619-6.814L431.9,160Z" transform="translate(-431.14 -160)"/>
      </g>
      <g id="Group_1001" data-name="Group 1001" transform="translate(53.669 160.261)" opacity="0.4">
        <path id="Path_5136" data-name="Path 5136" d="M344.712,211.306a19.922,19.922,0,0,0-20.006-11.024,4.435,4.435,0,0,1-1.774,0A1.323,1.323,0,0,1,321.89,199a1.774,1.774,0,0,1,.7-1.056c3.942-3.393,10.207-3.14,14.445-.141a18.8,18.8,0,0,1,7.673,13.488" transform="translate(-321.89 -195.477)"/>
      </g>
      <g id="Group_1002" data-name="Group 1002" transform="translate(184.297 122.378)" opacity="0.4">
        <path id="Path_5137" data-name="Path 5137" d="M431.339,168.57a24.835,24.835,0,0,0-16.346,14.783c-.31.788-.535,1.788,0,2.379a1.647,1.647,0,0,0,2.21-.211,5.491,5.491,0,0,0,1.084-2.182,24.61,24.61,0,0,1,13.094-14.459" transform="translate(-414.671 -168.57)"/>
      </g>
      <path id="Path_5138" data-name="Path 5138" d="M433.814,176.059l.268-9.18a1.942,1.942,0,0,1,.169-.788l2.07-4.97s-8.447-9.6-8.87-10.785-.183-2.436,1.915-1.577,8.87,7.138,8.87,7.138l2.619-4.632s-6.11-6.5-6.716-7.194-.253-4.365,2.013-3.14a73.224,73.224,0,0,1,8.011,6.434l1.563-1.563-4.519-6.955s-1.577-2.436.338-3.14,2.816.7,4.224,2.267a51.777,51.777,0,0,1,3.548,4.956l1.408-.1,2.084-.507-.169-2.422s-2.816-4.027-3.252-4.928-1.577-2.464,0-3.168,2.576-.831,3.421.591a8.771,8.771,0,0,0,1.7,1.844,11.8,11.8,0,0,1,2.816-1.9c1.239-.394,2.7,1.042,1.267,5-.239.662-1.661,7.969-1.661,7.969l-.479,3.872-1.661,3.421L447.3,165.7l.282,8.94a8.884,8.884,0,0,1-1.408,5.632,5.2,5.2,0,0,1-5.8,1.7,11.559,11.559,0,0,1-6.561-5.913Z" transform="translate(-225.233 -61.396)" fill="#ffbe9d"/>
      <path id="Path_5139" data-name="Path 5139" d="M443.453,151.184a13.76,13.76,0,0,1-.507-1.985l-.591-2.154c-.113-.394-.225-.831-.324-1.281a1.632,1.632,0,0,1,0-.225.394.394,0,0,1,0-.169h0a.38.38,0,0,1,.324-.183.366.366,0,0,1,.253.113h0v.2a.577.577,0,0,1,0,.239h0a.352.352,0,0,1-.239.268.338.338,0,0,1-.3,0h0l-.085-.084h0l-.084-.155a3.276,3.276,0,0,0-.366-.535,30.738,30.738,0,0,0-3.548-3.351,9.082,9.082,0,0,1-1.478-1.408,6.393,6.393,0,0,1,1.788,1.042,20.077,20.077,0,0,1,3.815,3.309,5.214,5.214,0,0,1,.436.648l.085.169h0a.956.956,0,0,1-.2.127c-.056.014,0,.1-.127.084-.451.07-.282,0-.324,0h0s.155,0,.183-.084a.123.123,0,0,1,.141-.084,1.26,1.26,0,0,0,.253,0h.084v.084l.268,1.281c.2.817.352,1.563.451,2.2A3.829,3.829,0,0,1,443.453,151.184Z" transform="translate(-221.468 -57.654)" fill="#eb996e"/>
      <path id="Path_5140" data-name="Path 5140" d="M445.152,147.241a15.856,15.856,0,0,0-.591-4.407c-.873-2.295-2.309-3.815-2.126-3.984a6.843,6.843,0,0,1,2.816,3.745,7.039,7.039,0,0,1,.394,3.337C445.5,146.791,445.236,147.269,445.152,147.241Z" transform="translate(-219.056 -58.315)" fill="#eb996e"/>
      <path id="Path_5141" data-name="Path 5141" d="M437.574,156.93a16.9,16.9,0,0,1-3.492-3.463,16.306,16.306,0,0,1-2.943-3.956,16.808,16.808,0,0,1,3.492,3.478,17.039,17.039,0,0,1,2.943,3.942Z" transform="translate(-223.657 -53.967)" fill="#eb996e"/>
      <path id="Path_5142" data-name="Path 5142" d="M439.77,153.5a14.162,14.162,0,0,1-3.492-2.9,15.177,15.177,0,0,1-3-3.421,13.868,13.868,0,0,1,3.506,2.9A14.276,14.276,0,0,1,439.77,153.5Z" transform="translate(-222.784 -54.917)" fill="#eb996e"/>
      <path id="Path_5143" data-name="Path 5143" d="M434.979,164.218a3.562,3.562,0,0,1-1.619-1.154,6.575,6.575,0,0,1-1.549-4.519,5.842,5.842,0,0,1,.7-2.591c.38-.718.774-1.3,1.07-1.8.591-1,.648-1.732.76-1.732s.225.817-.3,1.957a10.461,10.461,0,0,0-1.506,4.224,7.04,7.04,0,0,0,1.225,4.224C434.416,163.7,435.05,164.106,434.979,164.218Z" transform="translate(-223.385 -52.78)" fill="#eb996e"/>
      <path id="Path_5144" data-name="Path 5144" d="M443.9,155.7a40.825,40.825,0,0,1-3.027,5.632,8.643,8.643,0,0,1-1.563,2.013,5.42,5.42,0,0,1-1.8,1.126c-1.155.422-1.929.211-1.915.127a14.466,14.466,0,0,0,1.718-.605,7.335,7.335,0,0,0,2.943-3.055C442.01,157.912,443.7,155.547,443.9,155.7Z" transform="translate(-221.842 -51.444)" fill="#eb996e"/>
      <path id="Path_5145" data-name="Path 5145" d="M446.364,143.362a13.53,13.53,0,0,1-.338-3.8v.2c-.352-.493-.718-1.056-1.07-1.647-.788-1.408-1.408-2.689-1.872-3.59s-.774-1.492-.69-1.549.549.408,1.14,1.281,1.281,2.14,2.056,3.492c.352.577.69,1.126,1.014,1.619v.2A12.671,12.671,0,0,1,446.364,143.362Z" transform="translate(-219.072 -60.715)" fill="#eb996e"/>
      <path id="Path_5146" data-name="Path 5146" d="M448.9,149.238c-.07,0,.113-.563.169-1.535a34.667,34.667,0,0,0,0-3.984h0c.225-1.183.451-2.436.69-3.759v-.282h0a5.153,5.153,0,0,0-1.408-2.943c-.591-.817-1.14-1.605-1.675-2.365a9.364,9.364,0,0,1-1.408-2.281,10.023,10.023,0,0,1,1.8,1.985l1.8,2.267a15.474,15.474,0,0,1,1.028,1.408,3.548,3.548,0,0,1,.549,1.957h0v.282c-.267,1.323-.507,2.576-.746,3.759h0a24.355,24.355,0,0,1-.324,4.055C449.3,148.76,448.959,149.281,448.9,149.238Z" transform="translate(-217.893 -61.073)" fill="#eb996e"/>
      <path id="Path_5147" data-name="Path 5147" d="M437.556,151.35c-.2,0,.07-1.408-.113-2.985s-.718-2.816-.521-2.943,1.056,1.07,1.239,2.816S437.739,151.434,437.556,151.35Z" transform="translate(-221.316 -55.638)" fill="#eb996e"/>
      <path id="Path_5148" data-name="Path 5148" d="M441.824,147.781a21.119,21.119,0,0,1-.718-3.111,23.257,23.257,0,0,1-.986-3.027c.141-.127,1.2,1.028,1.69,2.816a4.59,4.59,0,0,1,.014,3.323Z" transform="translate(-219.994 -57.18)" fill="#eb996e"/>
      <rect id="Rectangle_1187" data-name="Rectangle 1187" width="195.981" height="273.331" transform="translate(42.829 188.521)" fill="#263238"/>
      <path id="Path_5149" data-name="Path 5149" d="M293.294,235.258a95.738,95.738,0,0,1,18.627-62.328l.845.634A94.752,94.752,0,0,0,294.35,235.2Z" transform="translate(-279.947 -44.414)" fill="#263238"/>
      <rect id="Rectangle_1188" data-name="Rectangle 1188" width="8.18" height="17.514" rx="2.82" transform="matrix(0.812, 0.584, -0.584, 0.812, 34.833, 118.795)" fill="#263238"/>
      <rect id="Rectangle_1189" data-name="Rectangle 1189" width="195.981" height="273.331" transform="translate(0 188.521)" fill="#455a64"/>
      <path id="Path_5150" data-name="Path 5150" d="M339.094,215.58a2.284,2.284,0,0,1-.2.746l-.591,2.14c-.141.465-.282.986-.451,1.535s-.422,1.155-.662,1.788a38.008,38.008,0,0,1-1.774,4.308c-.366.774-.746,1.591-1.155,2.436s-.943,1.675-1.408,2.562a60.718,60.718,0,0,1-3.52,5.435,71.182,71.182,0,0,1-10.01,10.9,69.856,69.856,0,0,1-12.235,8.335,61.15,61.15,0,0,1-5.885,2.7c-.943.352-1.83.76-2.731,1.042l-2.591.8a41.5,41.5,0,0,1-4.505,1.14c-.662.141-1.281.3-1.858.394l-1.591.211-2.2.282c-.507.07-.774.084-.774.084l.76-.141,2.2-.338,1.577-.239c.577-.1,1.183-.268,1.858-.408a45.725,45.725,0,0,0,4.477-1.183l2.576-.817c.887-.282,1.774-.7,2.717-1.056a62.471,62.471,0,0,0,5.843-2.717,71.532,71.532,0,0,0,12.178-8.321,70.719,70.719,0,0,0,9.982-10.841,63.591,63.591,0,0,0,3.52-5.392c.493-.873,1.028-1.7,1.408-2.534s.788-1.661,1.169-2.436a44.733,44.733,0,0,0,1.816-4.224c.239-.634.493-1.225.676-1.774l.465-1.535c.268-.845.479-1.549.648-2.112A6.552,6.552,0,0,1,339.094,215.58Z" transform="translate(-283.285 -27.016)" fill="#263238"/>
      <path id="Path_5151" data-name="Path 5151" d="M319.456,216a3.339,3.339,0,0,1-.07.563l-.253,1.605a19.871,19.871,0,0,1-.521,2.534A33.467,33.467,0,0,1,317.7,224c-.2.605-.408,1.225-.634,1.887s-.535,1.3-.816,2a43.658,43.658,0,0,1-2.07,4.224,52.232,52.232,0,0,1-6.251,8.912,53.253,53.253,0,0,1-8.067,7.321c-1.408.943-2.689,1.872-4,2.576-.662.366-1.267.76-1.887,1.07l-1.788.859c-1.126.577-2.224.943-3.154,1.323a19.845,19.845,0,0,1-2.45.817l-1.563.465a4.775,4.775,0,0,1-.549.127l.535-.2,1.549-.493a25.423,25.423,0,0,0,2.422-.873,33.638,33.638,0,0,0,3.111-1.408c.577-.268,1.169-.563,1.788-.873s1.211-.7,1.858-1.07a43.752,43.752,0,0,0,3.956-2.576,49.9,49.9,0,0,0,14.262-16.149,46.772,46.772,0,0,0,2.07-4.224c.282-.69.605-1.337.831-1.985l.648-1.873a33.162,33.162,0,0,0,.957-3.266,20.572,20.572,0,0,0,.563-2.506c.127-.619.225-1.154.31-1.6S319.456,216,319.456,216Z" transform="translate(-283.484 -26.845)" fill="#263238"/>
      <path id="Path_5152" data-name="Path 5152" d="M375.22,245.991a1.986,1.986,0,0,0-.873.521,2.492,2.492,0,0,0-.605,1.14,2.056,2.056,0,0,0,.38,1.746h0a37.28,37.28,0,0,0,7.546.648,13.4,13.4,0,0,0,5.026-1.2,8.574,8.574,0,0,0,4-4.364,7.039,7.039,0,0,0,.535-3.252,4.942,4.942,0,0,0-1.408-3.112c-1.746-1.746-4.533-2.056-7.166-1.9a46.8,46.8,0,0,0-16.895,4.519,43.279,43.279,0,0,0-8.279,5.139,17.712,17.712,0,0,0-5.955,8.236,8.1,8.1,0,0,0,3.534,9.363,20.7,20.7,0,0,0,10.968,2.379c7.729-.2,15.966-1.239,23.4-5.054a31.186,31.186,0,0,0,9.855-7.814,22.527,22.527,0,0,0,5.083-11.672,18.908,18.908,0,0,0-3.773-14.079,19.711,19.711,0,0,0-12.671-6.659,38.267,38.267,0,0,0-14.009.76c-2.239.591-4.435,1.267-6.6,1.887a56.193,56.193,0,0,0-6.237,2.436,124.445,124.445,0,0,0-21.625,12.671c-6.406,4.562-12.178,9.081-17.528,13.094s-10.264,7.56-14.7,10.5a122.326,122.326,0,0,1-11.8,6.828l-4.491,2.14c-1.338.549-2.478.971-3.393,1.323-1.844.718-2.816,1.07-2.816,1.07l2.816-1.126c.915-.366,2.056-.788,3.393-1.338l4.463-2.168a128.646,128.646,0,0,0,11.77-6.871c4.407-2.943,9.349-6.448,14.656-10.517s11.108-8.56,17.514-13.136a124.713,124.713,0,0,1,21.654-12.671c2.042-.845,4.153-1.619,6.265-2.45a59.615,59.615,0,0,1,6.617-1.887,38.561,38.561,0,0,1,14.079-.774,19.936,19.936,0,0,1,12.784,6.758,19.246,19.246,0,0,1,3.844,14.333,22.906,22.906,0,0,1-5.153,11.812,31.227,31.227,0,0,1-9.855,7.884c-7.49,3.844-15.769,4.885-23.526,5.083a20.922,20.922,0,0,1-11.108-2.436,8.284,8.284,0,0,1-3.632-9.616,17.951,17.951,0,0,1,6.04-8.363,43.742,43.742,0,0,1,8.335-5.153,47.25,47.25,0,0,1,16.965-4.505c2.647-.155,5.491.169,7.307,1.971a5.167,5.167,0,0,1,1.492,3.224,7.124,7.124,0,0,1-.563,3.323,8.771,8.771,0,0,1-4.083,4.435,13.419,13.419,0,0,1-5.068,1.183,36.9,36.9,0,0,1-7.575-.69h0a2.084,2.084,0,0,1-.366-1.8,2.422,2.422,0,0,1,.619-1.154,1.647,1.647,0,0,1,.816-.648Z" transform="translate(-283.383 -25.2)" fill="#263238"/>
      <path id="Path_5153" data-name="Path 5153" d="M454.885,215.77l-1.872.8a26.833,26.833,0,0,0-4.984,3.027,30.7,30.7,0,0,0-6.195,6.8c-2.084,2.943-4.224,6.491-6.856,10.179s-5.477,7.786-8.6,12.122a97.365,97.365,0,0,1-10.968,13.079,61.187,61.187,0,0,1-7.138,5.871,68.8,68.8,0,0,1-8.307,4.885,85.192,85.192,0,0,1-19.133,6.561c-13.6,3.027-26.933,3.168-38.929,3.238s-22.85,0-31.9.788a42.7,42.7,0,0,0-20.189,6.659,34.9,34.9,0,0,0-4.59,3.618l-1.408,1.408s.479-.521,1.408-1.478a35.015,35.015,0,0,1,4.562-3.661,42.56,42.56,0,0,1,20.246-6.758c9.067-.817,19.908-.831,31.917-.859s25.342-.239,38.858-3.252a85.136,85.136,0,0,0,19.077-6.533,68.268,68.268,0,0,0,8.279-4.857,61.854,61.854,0,0,0,7.04-5.843,97.215,97.215,0,0,0,10.953-13.023c3.14-4.322,5.941-8.447,8.63-12.108s4.787-7.194,6.885-10.137a30.283,30.283,0,0,1,6.265-6.814,26.669,26.669,0,0,1,5.1-2.971Z" transform="translate(-283.754 -26.939)" fill="#263238"/>
      <path id="Path_5154" data-name="Path 5154" d="M283.77,346.341s.2-.8.605-2.337a29.259,29.259,0,0,1,.831-2.816,40.163,40.163,0,0,1,1.408-3.773,48.539,48.539,0,0,1,5.111-9.715,49.647,49.647,0,0,1,9.855-10.714,77.844,77.844,0,0,1,34.367-15.022c7.04-1.337,14.487-2.084,22.217-2.816a209.108,209.108,0,0,0,23.766-3.28,64.877,64.877,0,0,0,22.146-8.842,72.576,72.576,0,0,0,16.374-15.065,195.949,195.949,0,0,0,11.77-16.472c3.477-5.308,6.673-10.278,9.757-14.713,1.563-2.21,3.027-4.308,4.548-6.209.746-.957,1.408-1.915,2.182-2.816l2.168-2.52a56.924,56.924,0,0,1,4.083-4.365c.648-.648,1.239-1.3,1.858-1.858l1.816-1.563c1.169-.957,2.126-1.9,3.1-2.548l2.408-1.689,2-1.408-1.957,1.408c-.662.465-1.408,1.028-2.393,1.7s-1.915,1.605-3.069,2.562l-1.8,1.563c-.619.563-1.211,1.225-1.858,1.873-1.281,1.309-2.717,2.7-4.069,4.365l-2.154,2.534c-.732.873-1.408,1.844-2.154,2.816-1.507,1.9-2.985,4.013-4.533,6.223-3.069,4.421-6.251,9.4-9.729,14.727a195.016,195.016,0,0,1-11.756,16.458,72.227,72.227,0,0,1-16.43,15.135A64.763,64.763,0,0,1,382,296.051a210.787,210.787,0,0,1-23.808,3.295c-7.73.746-15.191,1.478-22.189,2.816a77.943,77.943,0,0,0-34.367,14.966,49.784,49.784,0,0,0-14.966,20.316c-.591,1.408-1.014,2.661-1.408,3.759s-.662,2.042-.859,2.816C284.009,345.609,283.77,346.341,283.77,346.341Z" transform="translate(-283.77 -26.927)" fill="#263238"/>
      <path id="Path_5155" data-name="Path 5155" d="M420.258,319.529a24.412,24.412,0,0,1-.366,3.661,17.568,17.568,0,0,1-1.253,4.294,7.04,7.04,0,0,1-4.308,4.083,5.857,5.857,0,0,1-3.6-.084,8.968,8.968,0,0,1-3.365-2.154,15.741,15.741,0,0,1-2.647-3.478,16.9,16.9,0,0,1-1-2.1,21.8,21.8,0,0,1-.859-2.239,42.236,42.236,0,0,1-1.014-21.921,67.1,67.1,0,0,1,3.773-12.305,38.438,38.438,0,0,1,3.069-6.138,13.91,13.91,0,0,1,5.054-4.97,7.04,7.04,0,0,1,7.124.366,14.361,14.361,0,0,1,4.6,6.012,112.359,112.359,0,0,1,4.956,15.065,131.417,131.417,0,0,1,4.139,33.719q0,4.435-.366,8.926a44.533,44.533,0,0,1-1.492,8.968,21.979,21.979,0,0,1-4.224,8.152,14.629,14.629,0,0,1-7.856,4.914,18.091,18.091,0,0,1-9.292-.535,27.906,27.906,0,0,1-8.166-4.224,79.547,79.547,0,0,1-6.927-5.885c-2.2-2.042-4.379-4.069-6.448-6.195-4.083-4.224-7.7-9.011-9.349-14.53a34.325,34.325,0,0,1-.169-16.656c.535-2.661,1.211-5.266,1.985-7.786s1.507-5.04,2.393-7.448c.436-1.211.859-2.422,1.281-3.618l1.408-3.506c.887-2.323,1.929-4.548,2.914-6.758a158.619,158.619,0,0,1,13.15-23.385,161.682,161.682,0,0,1,25.455-29.158c3.435-3.041,6.167-5.336,8.1-6.786l2.914-2.253s-.986.8-2.886,2.295-4.632,3.773-8.053,6.828A163.471,163.471,0,0,0,403.588,262a159.5,159.5,0,0,0-13.108,23.357c-.971,2.21-2.013,4.435-2.886,6.758q-.69,1.732-1.408,3.506c-.422,1.183-.845,2.393-1.267,3.6-.9,2.408-1.605,4.914-2.393,7.434s-1.408,5.111-1.985,7.772a34.339,34.339,0,0,0,.141,16.43c1.619,5.449,5.223,10.193,9.292,14.4,2.055,2.112,4.224,4.139,6.434,6.181a79.059,79.059,0,0,0,6.913,5.857,27.116,27.116,0,0,0,8.067,4.224,17.514,17.514,0,0,0,9.137.521,14.318,14.318,0,0,0,7.7-4.8,21.541,21.541,0,0,0,4.224-8.053,43.649,43.649,0,0,0,1.408-8.9q.338-4.491.38-8.912a130.779,130.779,0,0,0-4.125-33.649,113.041,113.041,0,0,0-4.914-15.022,14.149,14.149,0,0,0-4.519-5.913,6.8,6.8,0,0,0-6.871-.366,13.9,13.9,0,0,0-4.97,4.885,38.011,38.011,0,0,0-3.055,6.1A66.794,66.794,0,0,0,402,299.677a42.238,42.238,0,0,0,.972,21.823,22.061,22.061,0,0,0,.859,2.224,14.156,14.156,0,0,0,.986,2.084,15.19,15.19,0,0,0,2.6,3.463,9.094,9.094,0,0,0,3.309,2.14,5.744,5.744,0,0,0,3.534.084,6.857,6.857,0,0,0,4.224-4.012,17.442,17.442,0,0,0,1.281-4.224c.211-1.183.282-2.1.352-2.717S420.258,319.529,420.258,319.529Z" transform="translate(-244.79 -23.753)" fill="#263238"/>
      <path id="Path_5156" data-name="Path 5156" d="M406.582,277.46s-.394.338-1.14.929a34.09,34.09,0,0,1-3.449,2.393,49.488,49.488,0,0,1-14.234,5.885,103.861,103.861,0,0,1-22.71,2.647c-8.6.282-18.12.07-27.947,1.549a72.479,72.479,0,0,0-26.173,9.363,63.877,63.877,0,0,0-17.12,14.924,60.317,60.317,0,0,0-7.927,13.164c-.8,1.647-1.2,3.013-1.577,3.886a12.981,12.981,0,0,0-.535,1.408s.155-.479.479-1.408a33.819,33.819,0,0,1,1.535-3.914,58.557,58.557,0,0,1,7.87-13.248,63.75,63.75,0,0,1,17.19-15.121,72.31,72.31,0,0,1,26.272-9.4c9.855-1.492,19.387-1.267,27.975-1.535a105.312,105.312,0,0,0,22.667-2.576,50.137,50.137,0,0,0,14.248-5.716,36.179,36.179,0,0,0,3.463-2.337C406.173,277.756,406.582,277.46,406.582,277.46Z" transform="translate(-283.77 -1.775)" fill="#263238"/>
      <path id="Path_5157" data-name="Path 5157" d="M284.65,440.333l3.52-.127c2.295-.113,5.632-.239,10.038-.788a84.181,84.181,0,0,0,15.487-3.28,101.271,101.271,0,0,0,19.274-8.448,100.2,100.2,0,0,0,20.739-14.8,104.176,104.176,0,0,0,9.729-10.376,111.34,111.34,0,0,0,8.8-12.249c11.151-17.458,18.3-39.548,21.569-63.131a307.871,307.871,0,0,0,2.675-31.819l.141.141c-20.035.268-38.858,3.52-54.683,9.644A106.156,106.156,0,0,0,304.572,328.9a88.117,88.117,0,0,0-10.742,13.037,100.588,100.588,0,0,0-6.8,10.7,27.47,27.47,0,0,0-2.816,7.42,13.757,13.757,0,0,0-.253,2.041v0a15.048,15.048,0,0,1,.225-2.056,27.4,27.4,0,0,1,2.731-7.462A102.532,102.532,0,0,1,293.7,341.85a86.385,86.385,0,0,1,10.728-13.079,105.973,105.973,0,0,1,37.394-23.934c15.853-6.153,34.719-9.419,54.782-9.686h.155v.141a304.763,304.763,0,0,1-2.675,31.861c-3.309,23.611-10.433,45.757-21.611,63.243a113.176,113.176,0,0,1-8.842,12.263,102.779,102.779,0,0,1-9.757,10.376,113.548,113.548,0,0,1-40.125,23.273,84.167,84.167,0,0,1-15.6,3.238c-4.336.535-7.743.648-10.038.732Z" transform="translate(-283.692 5.441)" fill="#263238"/>
      <path id="Path_5158" data-name="Path 5158" d="M329.643,350.729a31.492,31.492,0,0,1,2.1-2.731,14.332,14.332,0,0,1,3.1-2.816,8.35,8.35,0,0,1,2.436-1.07,7.039,7.039,0,0,1,3.027,0,5.745,5.745,0,0,1,2.914,1.689,3.985,3.985,0,0,1,.929,3.534,9.7,9.7,0,0,1-1.816,3.632c-.831,1.14-1.7,2.323-2.661,3.506a82.418,82.418,0,0,1-14.8,14.332,80.8,80.8,0,0,1-10.095,6.519c-3.675,1.9-7.589,4.111-12.15,4.519a9.025,9.025,0,0,1-6.547-1.732,8.729,8.729,0,0,1-3.1-6.251c-.451-4.871,1.408-9.672,3.435-14.262a72.915,72.915,0,0,1,19.711-24.582,129.514,129.514,0,0,1,13.586-9.855,82.757,82.757,0,0,1,15.332-7.955,36.465,36.465,0,0,1,16.993-2.534,18.134,18.134,0,0,1,7.969,2.816,12.376,12.376,0,0,1,4.9,6.645,18.007,18.007,0,0,1,.3,8.166,37.677,37.677,0,0,1-2.239,7.715,107,107,0,0,1-6.814,13.966,118.463,118.463,0,0,1-17.317,22.836,128.111,128.111,0,0,1-19.049,16.191A148.58,148.58,0,0,1,297.8,409.833c-4,1.535-7.152,2.548-9.306,3.238s-3.28.986-3.28.986l3.266-1.042c2.14-.7,5.294-1.732,9.278-3.295a148.728,148.728,0,0,0,31.917-16.895,127.767,127.767,0,0,0,18.979-16.191,118.1,118.1,0,0,0,17.275-22.808,108.105,108.105,0,0,0,6.786-13.924,38.561,38.561,0,0,0,2.224-7.659,17.839,17.839,0,0,0-.31-8.039,12.066,12.066,0,0,0-4.787-6.49,17.867,17.867,0,0,0-7.828-2.816,36.6,36.6,0,0,0-16.895,2.52,83.461,83.461,0,0,0-15.149,8.053,132.5,132.5,0,0,0-13.558,9.855c-8.448,7.04-15.417,15.3-19.711,24.483-2,4.576-3.872,9.334-3.435,14.079a8.447,8.447,0,0,0,2.914,6.068,8.673,8.673,0,0,0,6.378,1.675c4.491-.394,8.447-2.562,12.066-4.477a82.8,82.8,0,0,0,24.864-20.738c.957-1.183,1.83-2.365,2.675-3.492a10.094,10.094,0,0,0,1.8-3.576,3.914,3.914,0,0,0-.887-3.421,5.73,5.73,0,0,0-2.816-1.661,6.858,6.858,0,0,0-2.971,0,8.225,8.225,0,0,0-2.422,1.042,15.05,15.05,0,0,0-3.1,2.745c-.732.845-1.253,1.535-1.605,2Z" transform="translate(-283.183 13.344)" fill="#263238"/>
      <path id="Path_5159" data-name="Path 5159" d="M462.941,339.322l-1.873-1.056-5.322-3.083c-2.323-1.309-5.181-2.914-8.56-4.646a88.418,88.418,0,0,0-11.8-5.139,49.277,49.277,0,0,0-15.318-2.562,38.693,38.693,0,0,0-8.6.943,31.719,31.719,0,0,0-8.532,3.351,38.986,38.986,0,0,0-13.558,14.079,77.1,77.1,0,0,0-7.842,19.711c-1.929,7.04-3.393,14.009-5.378,20.6a98.188,98.188,0,0,1-17.5,33.269,114.455,114.455,0,0,1-10.7,11.39,123.768,123.768,0,0,1-18.021,13.671c-2.253,1.408-4.055,2.45-5.28,3.14s-1.887,1.056-1.887,1.056.634-.394,1.844-1.1,3.027-1.746,5.266-3.2a127.149,127.149,0,0,0,17.937-13.713,116.134,116.134,0,0,0,10.658-11.4,97.54,97.54,0,0,0,17.4-33.2c1.985-6.575,3.449-13.544,5.378-20.6a77.338,77.338,0,0,1,7.87-19.711,39.323,39.323,0,0,1,13.685-14.149,32.019,32.019,0,0,1,8.6-3.365,38.418,38.418,0,0,1,8.658-.929,49.278,49.278,0,0,1,15.388,2.6,87.609,87.609,0,0,1,11.812,5.2c3.365,1.746,6.209,3.365,8.532,4.688C460.421,337.773,462.941,339.322,462.941,339.322Z" transform="translate(-267.862 16.67)" fill="#263238"/>
      <path id="Path_5160" data-name="Path 5160" d="M451.618,364.841s-.31-.408-.873-1.211a14.379,14.379,0,0,0-1.126-1.408,19.024,19.024,0,0,0-1.69-1.788,28.666,28.666,0,0,0-13.769-7.04,34.829,34.829,0,0,0-10.77-.605,37.084,37.084,0,0,0-11.855,3.309c-7.955,3.717-15.346,10.306-21.414,18.373s-10.5,16.754-14.628,24.484-7.884,14.741-11.981,20.006a54.8,54.8,0,0,1-11.193,11.01c-2.985,2.2-4.759,3.238-4.759,3.238s.408-.3,1.225-.845,2-1.408,3.463-2.492a55.458,55.458,0,0,0,11.108-11.038c4.055-5.252,7.786-12.263,11.9-20.006s8.532-16.388,14.628-24.526,13.53-14.727,21.541-18.444a37.168,37.168,0,0,1,11.981-3.393,35.2,35.2,0,0,1,10.827.648,28.4,28.4,0,0,1,13.8,7.194,19.029,19.029,0,0,1,1.689,1.816,11.9,11.9,0,0,1,1.1,1.408C451.337,364.4,451.618,364.841,451.618,364.841Z" transform="translate(-257.75 28.756)" fill="#263238"/>
      <path id="Path_5161" data-name="Path 5161" d="M412.579,393.847a6.2,6.2,0,0,1,1.07,0,6.349,6.349,0,0,1,2.943.915,8.926,8.926,0,0,1,3.294,3.6,8.307,8.307,0,0,1,.507,6.364,10.828,10.828,0,0,1-5.026,5.913,11.066,11.066,0,0,1-8.8,1.014,13.826,13.826,0,0,1-7.645-6.195,15.488,15.488,0,0,1-1.887-4.956,17.237,17.237,0,0,1-.084-5.449A22.048,22.048,0,0,1,408.9,378.966a18.979,18.979,0,0,1,8.743-2.056,16.5,16.5,0,0,1,4.069.605,16.083,16.083,0,0,1,3.449,1.563,14.67,14.67,0,0,1,6.659,8.954,11.165,11.165,0,0,1,.3,3.069,4.622,4.622,0,0,1-.1,1.084,13.1,13.1,0,0,0-.31-4.125,14.544,14.544,0,0,0-6.659-8.8,15.639,15.639,0,0,0-3.407-1.521,15.936,15.936,0,0,0-4-.591,18.935,18.935,0,0,0-8.631,2.055,21.823,21.823,0,0,0-11.77,15.9,17.023,17.023,0,0,0,.07,5.35,15.237,15.237,0,0,0,1.844,4.857,13.657,13.657,0,0,0,7.49,6.1,10.912,10.912,0,0,0,8.6-.971,10.672,10.672,0,0,0,4.942-5.772,8.166,8.166,0,0,0-.465-6.223,8.757,8.757,0,0,0-3.2-3.576,6.407,6.407,0,0,0-2.886-.957C412.945,393.819,412.579,393.932,412.579,393.847Z" transform="translate(-237.675 38.791)" fill="#263238"/>
      <path id="Path_5162" data-name="Path 5162" d="M447.49,160.11a3.423,3.423,0,0,1,.127,1.112,12.827,12.827,0,0,1-.253,3.013,9.165,9.165,0,0,1-2,4.083,7.039,7.039,0,0,1-4.914,2.619,8.053,8.053,0,0,1-5.237-1.929,10.208,10.208,0,0,1-2.675-3.661,27.421,27.421,0,0,1-1.126-2.816c-.225-.676-.324-1.056-.267-1.07s.69,1.408,1.858,3.632a10.573,10.573,0,0,0,2.633,3.379,7.659,7.659,0,0,0,4.787,1.718,6.448,6.448,0,0,0,4.435-2.337,9.181,9.181,0,0,0,2.013-3.745C447.434,161.715,447.335,160.1,447.49,160.11Z" transform="translate(-223.661 -49.643)" fill="#263238"/>
    </g>
    <g id="freepik--character-3--inject-209" transform="translate(457.974 445.941)">
      <path id="Path_5163" data-name="Path 5163" d="M407,438.508l-36.254,1.957,1.971-31.115s-2.506-.366-3.576-13.769-3.21-36.183-3.21-36.183h0a46.757,46.757,0,0,1,47.263,2.816l2.1,1.408Z" transform="translate(-314.668 -334.725)" fill="#aa6550"/>
      <path id="Path_5164" data-name="Path 5164" d="M398.76,372.566c.211-.113,9.039-3.351,9.363,5.843s-9.025,7.7-9.025,7.363S398.76,372.566,398.76,372.566Z" transform="translate(-301.276 -327.536)" fill="#aa6550"/>
      <path id="Path_5165" data-name="Path 5165" d="M370.3,373.118c-.239-.084-8.56-1.732-7.659,7.42s9.926,6.35,9.855,6.082S370.3,373.118,370.3,373.118Z" transform="translate(-316.038 -327.116)" fill="#aa6550"/>
      <path id="Path_5166" data-name="Path 5166" d="M415.59,379.228c-.859,7.786-.31,11.8-1.239,17.022-1.408,8.264-5.083,14.769-12.122,19.316s-16.965,5.139-23.625,0c-4.618-3.548-8-7.673-9.039-13.4s-2.365-15.909-2.816-21.71c-.774-10.475-2.14-20.443-2.14-20.443l29.566-7.42,17.726,9.025Z" transform="translate(-315.207 -335.422)" fill="#263238"/>
      <path id="Path_5167" data-name="Path 5167" d="M370.406,377.458a5.814,5.814,0,0,1-5.026-1.042c-1.408-1.014-2.126-5.068-2.126-5.068s-3.815-1.9-4.336-3.745a5.238,5.238,0,0,1,1.225-5.308A9.855,9.855,0,0,1,372.1,349.623a9.729,9.729,0,0,1,15.388-3.027,12.559,12.559,0,0,1,23.188,4.125A6.195,6.195,0,0,1,420.316,358a4.97,4.97,0,0,1,4.871,8.166c-.788.873-1.943,1.549-2.2,2.7a7.166,7.166,0,0,0,.69,3.083,6.392,6.392,0,0,1-2.577,6.307,18.782,18.782,0,0,1-6.561,2.816,18.148,18.148,0,0,1-8.081,1.084c-2.7-.451-5.35-2.52-5.5-5.251a13.46,13.46,0,0,1-18.092-1.872,7.04,7.04,0,0,1-12.066,1.408" transform="translate(-317.637 -340.396)" fill="#263238"/>
      <path id="Path_5168" data-name="Path 5168" d="M380.79,401.883a9.729,9.729,0,0,0,5.28.113,9.856,9.856,0,0,0,4.871-1.985c-.1-.225-2.267.619-5.054,1.1S380.818,401.644,380.79,401.883Z" transform="translate(-308.607 -316.094)" fill="#263238"/>
      <path id="Path_5169" data-name="Path 5169" d="M335.73,460.633s2.351-32.157,7.828-36.845,40.154-15.065,40.154-15.065l36.7-1.633s21.344,6.758,22.907,7.617,13.7,3.984,19.176,14.952,11.77,32.959,11.77,32.959Z" transform="translate(-326.987 -313.191)" fill="#8dc63f"/>
      <path id="Path_5170" data-name="Path 5170" d="M410.455,368.292a1.535,1.535,0,0,1-.465,1.506,3.379,3.379,0,0,1-1.647,1.014,17.405,17.405,0,0,1-2.492.352,5.449,5.449,0,0,0-2.661,1.112,12.179,12.179,0,0,1-3.069,1.858,8.574,8.574,0,0,1-8.11-1.183l.493-.07a8.2,8.2,0,0,1-3.886,2.7,7.842,7.842,0,0,1-6.336-.619,8.166,8.166,0,0,1-3.717-4.407l.563.1A6.2,6.2,0,0,1,374,372.812a5.786,5.786,0,0,1-3.844-1.915,5.632,5.632,0,0,1-1.408-2.436,2.321,2.321,0,0,1-.1-.971,7.04,7.04,0,0,0,1.7,3.14,5.392,5.392,0,0,0,3.618,1.647,5.632,5.632,0,0,0,4.576-2.027l.366-.436.2.535a7.546,7.546,0,0,0,3.435,4,7.138,7.138,0,0,0,5.772.535,7.561,7.561,0,0,0,3.548-2.436l.225-.282.282.211a8.011,8.011,0,0,0,7.462,1.169,12.18,12.18,0,0,0,2.971-1.732,5.814,5.814,0,0,1,2.914-1.112,21.514,21.514,0,0,0,2.464-.239,3.364,3.364,0,0,0,1.549-.831,2.238,2.238,0,0,0,.718-1.338Z" transform="translate(-313.563 -329.344)" fill="#455a64"/>
      <path id="Path_5171" data-name="Path 5171" d="M370.946,370.1a4.788,4.788,0,0,1-.718-1.408,10.516,10.516,0,0,1-.493-4.407,10.967,10.967,0,0,1,2.506-6.082,11.08,11.08,0,0,1,7.11-3.731,10.939,10.939,0,0,1,5.181.605l-.422.141a8.321,8.321,0,0,1,5.012-3.675,7.856,7.856,0,0,1,4.928.38,7.659,7.659,0,0,1,2.689,1.83,2.817,2.817,0,0,1,.69.943,10.63,10.63,0,0,0-3.534-2.351,7.589,7.589,0,0,0-4.6-.211,7.814,7.814,0,0,0-4.576,3.449l-.155.253-.282-.1a10.236,10.236,0,0,0-4.843-.535,10.574,10.574,0,0,0-6.688,3.449,10.728,10.728,0,0,0-2.492,5.632A13.178,13.178,0,0,0,370.946,370.1Z" transform="translate(-313.138 -335.941)" fill="#455a64"/>
      <path id="Path_5172" data-name="Path 5172" d="M382.366,371.507a4.691,4.691,0,0,1-.451-.887,11.8,11.8,0,0,1-.69-2.59,8.236,8.236,0,0,1,.3-4.013,6.068,6.068,0,0,1,3.435-3.576,4.351,4.351,0,0,1,2.6-.183l-.451.366a6.434,6.434,0,0,1,1.239-3.886,6.885,6.885,0,0,1,2.422-2.14,6.013,6.013,0,0,1,2.041-.648h.774a11.418,11.418,0,0,0-2.577,1.014,6.631,6.631,0,0,0-2.14,2.084,6.138,6.138,0,0,0-1.042,3.506v.507l-.465-.1a3.6,3.6,0,0,0-2.168.169,5.5,5.5,0,0,0-3.055,3.126,8.587,8.587,0,0,0-.422,3.717C381.986,370.155,382.507,371.464,382.366,371.507Z" transform="translate(-308.479 -334.867)" fill="#455a64"/>
      <path id="Path_5173" data-name="Path 5173" d="M391.246,381.075a3.665,3.665,0,0,1-1.83,1.591,5.632,5.632,0,0,1-2.689.479,5.322,5.322,0,0,1-3.168-1.225h.493a5.626,5.626,0,0,1-.605.535,5.406,5.406,0,0,1-3.534,1.014,5.068,5.068,0,0,1-2.816-1.084,3.45,3.45,0,0,1-1.507-2.224,10.166,10.166,0,0,0,1.816,1.8,4.7,4.7,0,0,0,2.52.831,4.857,4.857,0,0,0,3.055-.943,5.53,5.53,0,0,0,.535-.436l.239-.239.253.211a5.322,5.322,0,0,0,5.181.845A12.948,12.948,0,0,0,391.246,381.075Z" transform="translate(-310.728 -324.176)" fill="#455a64"/>
      <path id="Path_5174" data-name="Path 5174" d="M390.373,385.92c.084,0,0,.605-.338,1.408a5.139,5.139,0,0,1-6.237,2.591c-.9-.3-1.309-.718-1.267-.788a10.581,10.581,0,0,1,1.408.3,5.463,5.463,0,0,0,5.632-2.351C390.077,386.413,390.232,385.892,390.373,385.92Z" transform="translate(-307.898 -321.827)" fill="#455a64"/>
      <path id="Path_5175" data-name="Path 5175" d="M351.37,449.956a38.9,38.9,0,0,1-.859-7.617,41.221,41.221,0,0,1-.127-7.659,39.1,39.1,0,0,1,.859,7.617A41.2,41.2,0,0,1,351.37,449.956Z" transform="translate(-321.058 -301.937)" fill="#263238"/>
      <path id="Path_5176" data-name="Path 5176" d="M416.45,431.3a20.806,20.806,0,0,1,1.985-5.125,20.3,20.3,0,0,1,2.647-4.8,41.576,41.576,0,0,1-4.632,9.926Z" transform="translate(-294.061 -307.366)" fill="#263238"/>
      <path id="Path_5177" data-name="Path 5177" d="M413.251,450.512a40,40,0,0,1,.634-7.56,40.931,40.931,0,0,1,1.408-7.462,39.938,39.938,0,0,1-.634,7.56A38.017,38.017,0,0,1,413.251,450.512Z" transform="translate(-295.367 -301.606)" fill="#263238"/>
      <path id="Path_5178" data-name="Path 5178" d="M347.422,444.87a25.513,25.513,0,0,1-1.985-4.224,25.089,25.089,0,0,1-1.577-4.407,25.7,25.7,0,0,1,1.985,4.224A28.056,28.056,0,0,1,347.422,444.87Z" transform="translate(-323.671 -301.3)" fill="#fafafa"/>
      <path id="Path_5179" data-name="Path 5179" d="M354.35,431.333a26.991,26.991,0,0,1,.605-4.717A24.436,24.436,0,0,1,356,421.97a27.145,27.145,0,0,1-.605,4.717,24.433,24.433,0,0,1-1.042,4.646Z" transform="translate(-319.392 -307.121)" fill="#fafafa"/>
      <path id="Path_5180" data-name="Path 5180" d="M367.331,440.91a28.163,28.163,0,0,1-2.633-4.224,29.648,29.648,0,0,1-2.239-4.407,26.884,26.884,0,0,1,2.633,4.224A28.157,28.157,0,0,1,367.331,440.91Z" transform="translate(-316.083 -302.916)" fill="#fafafa"/>
      <path id="Path_5181" data-name="Path 5181" d="M369.386,419.366a31.338,31.338,0,0,1-4.871-2.168,33.186,33.186,0,0,1-4.674-2.548,32.019,32.019,0,0,1,4.871,2.154,32.369,32.369,0,0,1,4.674,2.562Z" transform="translate(-317.152 -310.107)" fill="#fafafa"/>
      <path id="Path_5182" data-name="Path 5182" d="M373.82,428.687a41.083,41.083,0,0,1,2.576-5.209,38.212,38.212,0,0,1,2.971-5,36.115,36.115,0,0,1-2.577,5.209,38.218,38.218,0,0,1-2.971,5Z" transform="translate(-311.45 -308.545)" fill="#fafafa"/>
      <path id="Path_5183" data-name="Path 5183" d="M388.031,414.489a30.587,30.587,0,0,1-4.928-.9,27.774,27.774,0,0,1-4.843-1.337,30.571,30.571,0,0,1,4.928.9A27.758,27.758,0,0,1,388.031,414.489Z" transform="translate(-309.639 -311.086)" fill="#fafafa"/>
      <path id="Path_5184" data-name="Path 5184" d="M387.94,439.226a29.572,29.572,0,0,1,.085-5.012,27.524,27.524,0,0,1,.507-4.984,28.668,28.668,0,0,1,0,5.012A28.248,28.248,0,0,1,387.94,439.226Z" transform="translate(-305.718 -304.16)" fill="#fafafa"/>
      <path id="Path_5185" data-name="Path 5185" d="M378.269,445.853a33.637,33.637,0,0,1-1.028-5.181,32.38,32.38,0,0,1-.591-5.252,30.976,30.976,0,0,1,1.028,5.181,30.378,30.378,0,0,1,.591,5.251Z" transform="translate(-310.295 -301.635)" fill="#fafafa"/>
      <path id="Path_5186" data-name="Path 5186" d="M362.348,446.012a13.237,13.237,0,0,1-2.957-1.563,12.5,12.5,0,0,1-2.731-1.929,13.456,13.456,0,0,1,2.957,1.549,12.673,12.673,0,0,1,2.731,1.943Z" transform="translate(-318.449 -298.739)" fill="#fafafa"/>
      <path id="Path_5187" data-name="Path 5187" d="M402.651,441c.07.113-1.872,1.408-4.083,3.14s-3.914,3.337-4,3.252a18.159,18.159,0,0,1,3.717-3.59,18.614,18.614,0,0,1,4.365-2.8Z" transform="translate(-302.986 -299.359)" fill="#fafafa"/>
      <path id="Path_5188" data-name="Path 5188" d="M410.717,436.207c-.113.084-1.619-1.9-3.618-4.224s-3.7-4.224-3.618-4.224a23.928,23.928,0,0,1,3.956,3.97,25.056,25.056,0,0,1,3.28,4.477Z" transform="translate(-299.352 -304.759)" fill="#fafafa"/>
      <path id="Path_5189" data-name="Path 5189" d="M402.384,416a31.84,31.84,0,0,1-4.153,3.323,32.286,32.286,0,0,1-4.421,2.971,33.3,33.3,0,0,1,4.153-3.323,32.9,32.9,0,0,1,4.421-2.97Z" transform="translate(-303.296 -309.556)" fill="#fafafa"/>
      <path id="Path_5190" data-name="Path 5190" d="M412.954,425.018a44.235,44.235,0,0,1-1.478-6.237,44.9,44.9,0,0,1-1.056-6.321A50.231,50.231,0,0,1,411.9,418.7,47.538,47.538,0,0,1,412.954,425.018Z" transform="translate(-296.52 -311)" fill="#fafafa"/>
      <path id="Path_5191" data-name="Path 5191" d="M426.821,438.819a18.639,18.639,0,0,1-2.393-4.66,18.2,18.2,0,0,1-1.408-5.069c.127,0,.746,2.225,1.788,4.9S426.934,438.819,426.821,438.819Z" transform="translate(-291.381 -304.217)" fill="#fafafa"/>
      <path id="Path_5192" data-name="Path 5192" d="M421.56,447.261a22.045,22.045,0,0,1,1.408-4.125,21.2,21.2,0,0,1,1.788-3.956,22.052,22.052,0,0,1-1.408,4.125,21.209,21.209,0,0,1-1.788,3.956Z" transform="translate(-291.976 -300.101)" fill="#fafafa"/>
      <path id="Path_5193" data-name="Path 5193" d="M351.117,436.95h105.79a21.611,21.611,0,0,1,21.682,21.611v43.645H329.52V458.561a21.612,21.612,0,0,1,21.6-21.611Z" transform="translate(-329.52 -301.011)" fill="#455a64"/>
      <path id="Path_5194" data-name="Path 5194" d="M437.006,455.12a5.233,5.233,0,0,1-.732.563l-2.2,1.506c-1.9,1.309-4.716,3.1-8.25,5.209s-7.828,4.505-12.671,7.04-10.32,4.97-16.149,7.349-11.5,4.322-16.7,5.969-9.954,2.9-13.966,3.83-7.279,1.619-9.56,2l-2.619.451a4.44,4.44,0,0,1-.915.1,4.006,4.006,0,0,1,.887-.253l2.591-.577c2.253-.465,5.5-1.211,9.489-2.224s8.7-2.337,13.882-3.97,10.813-3.661,16.641-6.012,11.263-4.857,16.106-7.265,9.18-4.759,12.742-6.814,6.406-3.787,8.349-5.012L436.2,455.6A3.692,3.692,0,0,1,437.006,455.12Z" transform="translate(-319.84 -293.599)" fill="#263238"/>
      <path id="Path_5195" data-name="Path 5195" d="M363.072,437.159a3.092,3.092,0,0,1-.845.07l-2.407.113a55.522,55.522,0,0,0-8.757,1.183,21.8,21.8,0,0,0-5.632,2.084,14.909,14.909,0,0,0-5.139,4.491,18.668,18.668,0,0,0-2.816,7.04,51.929,51.929,0,0,0-.76,8.25c-.352,11.4-.662,21.724-.887,29.313-.155,3.675-.268,6.688-.352,8.87,0,.986-.1,1.788-.141,2.422a3.508,3.508,0,0,1-.1.831,3.2,3.2,0,0,1,0-.845v-2.408c0-2.2.07-5.209.127-8.884.169-7.589.408-17.909.676-29.313a50.691,50.691,0,0,1,.788-8.447,19.248,19.248,0,0,1,2.957-7.293A15.262,15.262,0,0,1,345.192,440a21.549,21.549,0,0,1,5.843-2.056,49.276,49.276,0,0,1,8.856-.957h2.422A5.529,5.529,0,0,1,363.072,437.159Z" transform="translate(-327.199 -300.994)" fill="#263238"/>
    </g>
    <g id="freepik--character-2--inject-209" transform="translate(284.266 458.749)">
      <path id="Path_5196" data-name="Path 5196" d="M213.36,451.816s2.351-20.738,7.828-25.427,25.863-10.728,25.863-10.728l46.461-2.971s25.821,3.773,27.384,4.618,13.7,4,19.176,14.952a82.124,82.124,0,0,1,7.04,23.076Z" transform="translate(-203.195 -323.714)" fill="#8dc63f"/>
      <path id="Path_5197" data-name="Path 5197" d="M245.575,444.227l35.2.507-3.294-31.776s2.6,1.309,3.111-11.714,1.718-35.113,1.718-35.113h0a45.278,45.278,0,0,0-45.616,4.477l-1.971,1.408Z" transform="translate(-194.482 -344.41)" fill="#ffbe9d"/>
      <path id="Path_5198" data-name="Path 5198" d="M239.838,380.712c-.211-.1-8.87-2.886-8.828,6.012s8.968,7.04,8.982,6.772S239.838,380.712,239.838,380.712Z" transform="translate(-195.995 -336.958)" fill="#ffbe9d"/>
      <path id="Path_5199" data-name="Path 5199" d="M267.477,380.129c.225-.1,8.222-2.013,7.7,6.871s-9.349,6.533-9.349,6.279S267.477,380.129,267.477,380.129Z" transform="translate(-181.792 -337.094)" fill="#ffbe9d"/>
      <path id="Path_5200" data-name="Path 5200" d="M260.683,353.85s-12.136-.436-16.472,1.774c-7.209,3.689-12.8,13.952-12.911,26.638s5.632,29.89,14.952,38.394,16.67,10.067,16.67,10.067,19.711-10.771,21.921-26.483,3.7-30.875-2.464-38.506S265.161,354.075,260.683,353.85Z" transform="translate(-195.878 -347.73)" fill="#263238"/>
      <path id="Path_5201" data-name="Path 5201" d="M232.662,392.2c-.718-8.067-1.408-16.388,1.126-24.075s9.137-14.642,17.233-14.938c2.591-.1,5.209.479,7.772,0a32.456,32.456,0,0,0,6.279-2.323,16.388,16.388,0,0,1,11.263-.69,9.856,9.856,0,0,1,6.772,8.447,14.388,14.388,0,0,0,.2,4.674c.563,1.521,2,2.492,3,3.759a10.01,10.01,0,0,1,1.788,7.237,29.2,29.2,0,0,1-2.056,7.335q-3.294,8.87-6.617,17.726" transform="translate(-195.592 -349.493)" fill="#263238"/>
      <path id="Path_5202" data-name="Path 5202" d="M247.961,383.645a16.008,16.008,0,0,1,22.963,12.671c.563,5.266.577,6.11,3.97,10.165,2.112,2.506,4.125,2.365,6.6,4.505a9.855,9.855,0,0,1,2.253,11.573c6.378-.31,12.333-.718,14.515,5.28-9.532-1.971-19.049,6.927-28.566,4.956a20.991,20.991,0,0,1-8.588-3.14c-2.816-2.126-4.336-5.505-5.758-8.729q-3.844-8.7-7.659-17.416c-1.718-3.9-3.478-7.969-3.393-12.235s2.534-8.814,6.659-9.855" transform="translate(-190.575 -336.47)" fill="#263238"/>
      <path id="Path_5203" data-name="Path 5203" d="M244.361,392.094a13.445,13.445,0,0,1,4.618-14.839,13.629,13.629,0,0,1,15.6.619,12.911,12.911,0,0,1,5.336,11.038,8.447,8.447,0,0,1-7.842,7.828" transform="translate(-190.819 -339.048)" fill="#8dc63f"/>
      <path id="Path_5204" data-name="Path 5204" d="M265.608,381.867a14.178,14.178,0,0,0-18.5.929c-4.548,4.533-5,13.91-3.618,20.189,1.478,6.758,5.632,13.291,4.224,20.077-.831,4.125-3.675,8.321-2.027,12.207,1.323,3.14,5.054,4.505,7.04,7.265,2.957,4.041,1.492,9.715-.493,14.318s-4.449,9.574-3.055,14.389c1.07,3.745,4.224,6.434,6.73,9.4s4.533,7.138,2.816,10.644a9.926,9.926,0,0,0,15.67-10,11.868,11.868,0,0,1,3.337,7.631A15.994,15.994,0,0,0,289.824,464.4c-2.14-3.379-5.632-6.11-6.35-10.038-.873-4.674,2.52-9.264,2.084-14.009-.394-4.224-3.745-7.6-7.18-10.137s-7.279-4.829-9.5-8.447c-3.59-5.9-1.929-13.431-.535-20.2s2.056-14.755-2.816-19.711" transform="translate(-191.186 -337.508)" fill="#263238"/>
      <path id="Path_5205" data-name="Path 5205" d="M249.936,384c-4.815,3.252-5.125,10.137-4.463,15.909s1.605,12.235-1.943,16.895c-2.393,3.1-6.575,4.9-7.8,8.616-1.408,4.519,2.239,9.067,2.661,13.812.31,3.435-1.126,6.772-2.816,9.855s-3.576,5.955-4.379,9.306-.225,7.307,2.436,9.489a12.375,12.375,0,0,0,6.054,2.168,74.8,74.8,0,0,0,23.174-.07c2.295-9.433,4.59-18.965,4.59-28.665,0-19.26-9.109-37.619-9.349-56.894" transform="translate(-196.056 -335.417)" fill="#263238"/>
      <path id="Path_5206" data-name="Path 5206" d="M258.328,484.286a4.985,4.985,0,0,1-.788-.873l-2.154-2.576a116.636,116.636,0,0,1-7.56-9.855,29,29,0,0,1-3.731-7.758,15.487,15.487,0,0,1,.211-9.855,63.351,63.351,0,0,1,4.9-9.7c1.732-3.252,3.492-6.885,3.055-10.742s-2.943-7.04-4.1-10.714a11.617,11.617,0,0,1-.521-2.816,8.447,8.447,0,0,1,.465-2.816,14.782,14.782,0,0,1,3.013-4.505A24.777,24.777,0,0,0,254.2,408.2a8.814,8.814,0,0,0,1.309-4.379,25.117,25.117,0,0,0-1.521-8.236,27.359,27.359,0,0,1-1.408-6.927,10.559,10.559,0,0,1,1.084-5.266,7.04,7.04,0,0,1,2.182-2.591,3.7,3.7,0,0,1,1.056-.535,7.519,7.519,0,0,0-2.928,3.28,10.56,10.56,0,0,0-.887,5.083,28.157,28.157,0,0,0,1.577,6.772,25.342,25.342,0,0,1,1.675,8.447,9.687,9.687,0,0,1-1.323,4.7,25.471,25.471,0,0,1-3.154,4.027,13.742,13.742,0,0,0-2.816,4.224,7.308,7.308,0,0,0-.577,2.506,10.73,10.73,0,0,0,.493,2.619c1.07,3.463,3.731,6.673,4.139,10.883a13.656,13.656,0,0,1-.746,6,36.67,36.67,0,0,1-2.422,5.266,65.481,65.481,0,0,0-4.9,9.56,14.7,14.7,0,0,0-.253,9.377,29.016,29.016,0,0,0,3.534,7.617c2.816,4.365,5.632,7.6,7.307,9.926.887,1.154,1.577,2.07,2.013,2.689A5.855,5.855,0,0,1,258.328,484.286Z" transform="translate(-190.945 -336.939)" fill="#455a64"/>
      <path id="Path_5207" data-name="Path 5207" d="M240.56,417.742a28.678,28.678,0,0,0,1.858-6.5,44.109,44.109,0,0,0,.282-7.349c-.07-2.816-.282-5.871-.1-9.123a21.485,21.485,0,0,1,2.239-8.94,13.755,13.755,0,0,1,5.28-5.378,9.335,9.335,0,0,1,4.928-1.225,6.776,6.776,0,0,1,1.408.225c.31.084.465.141.451.169s-.662-.07-1.816,0a9.7,9.7,0,0,0-4.6,1.408,13.389,13.389,0,0,0-4.871,5.209,21.314,21.314,0,0,0-2.07,8.6c-.183,3.182,0,6.251,0,9.053a39.844,39.844,0,0,1-.479,7.462,19.47,19.47,0,0,1-1.506,4.829A5.548,5.548,0,0,1,240.56,417.742Z" transform="translate(-192.1 -337.368)" fill="#455a64"/>
      <path id="Path_5208" data-name="Path 5208" d="M285.775,479.174a7.824,7.824,0,0,1,.113-1.112,17.257,17.257,0,0,0,0-3.182,39.9,39.9,0,0,0-2.731-11.263c-1-2.21-2.562-4.505-3.731-7.223a18.373,18.373,0,0,1-1.408-4.421,15.909,15.909,0,0,1,.07-4.9c.253-1.647.634-3.294.845-4.97a16.092,16.092,0,0,0-.113-5.125,17.007,17.007,0,0,0-5.012-9.334c-2.647-2.591-6.35-3.759-9.067-6.322a16.9,16.9,0,0,1-4.716-9.292,35.016,35.016,0,0,1-.31-9.4c.239-2.928.591-5.632.746-8.1a33.185,33.185,0,0,0-.084-6.645,8.785,8.785,0,0,0-1.844-4.519,6.082,6.082,0,0,0-3.562-2.154,3.111,3.111,0,0,1,1.126.141,5.984,5.984,0,0,1,2.7,1.774,9.292,9.292,0,0,1,2.084,4.674,31.733,31.733,0,0,1,.211,6.758c-.113,2.506-.422,5.209-.634,8.124a34.621,34.621,0,0,0,.38,9.194,16.177,16.177,0,0,0,4.505,8.8c2.52,2.393,6.223,3.562,9.081,6.307a17.88,17.88,0,0,1,5.266,9.855,17.178,17.178,0,0,1,.1,5.364c-.239,1.746-.62,3.393-.873,4.984a14.952,14.952,0,0,0-.113,4.674,16.894,16.894,0,0,0,1.253,4.224c1.112,2.675,2.619,4.928,3.618,7.265a37.842,37.842,0,0,1,2.506,11.559,15.064,15.064,0,0,1-.141,3.224,4.068,4.068,0,0,1-.2.817C285.817,479.089,285.789,479.174,285.775,479.174Z" transform="translate(-186.222 -336.557)" fill="#455a64"/>
      <path id="Path_5209" data-name="Path 5209" d="M278.164,430.423a14.654,14.654,0,0,0,.76-2.154,11.7,11.7,0,0,0-.366-6.1,12.066,12.066,0,0,0-6.026-6.561,12.192,12.192,0,0,1-4.731-3.1,24.862,24.862,0,0,1-2.971-5.28c-1.633-3.942-1.408-8.011-1.408-11.488a25.583,25.583,0,0,0-1.1-9.137,11.152,11.152,0,0,0-3.492-5c-1.169-.9-1.985-1.126-1.943-1.211s.211,0,.591.127a7.108,7.108,0,0,1,1.549.8,10.883,10.883,0,0,1,3.886,5.054,25.189,25.189,0,0,1,1.408,9.349c0,3.506-.113,7.476,1.408,11.151a24.865,24.865,0,0,0,2.816,5.054,8.547,8.547,0,0,0,2.042,1.732c.746.465,1.563.774,2.393,1.211a12.544,12.544,0,0,1,6.209,7.04,11.347,11.347,0,0,1,.085,6.378,7.182,7.182,0,0,1-.7,1.605C278.262,430.282,278.164,430.437,278.164,430.423Z" transform="translate(-185.439 -336.9)" fill="#455a64"/>
      <path id="Path_5210" data-name="Path 5210" d="M246.068,389.436a11.645,11.645,0,0,1-3.562-2.154,23.653,23.653,0,0,1-6.336-7.814,23.934,23.934,0,0,1-2.6-9.729,10.8,10.8,0,0,1,.38-4.139c.155,0,0,1.591.267,4.1a26.75,26.75,0,0,0,8.7,17.106C244.787,388.478,246.153,389.3,246.068,389.436Z" transform="translate(-194.976 -342.923)" fill="#455a64"/>
      <path id="Path_5211" data-name="Path 5211" d="M244.534,386.483c-.1.211-2.985-.986-6.11-3.182s-5.28-4.449-5.111-4.618,2.534,1.746,5.632,3.886S244.646,386.243,244.534,386.483Z" transform="translate(-195.06 -337.59)" fill="#455a64"/>
      <path id="Path_5212" data-name="Path 5212" d="M271.236,368c.211,0-.169,4.984-3.126,10.278s-6.913,8.307-7.04,8.124,3.435-3.421,6.237-8.56S270.954,368,271.236,368Z" transform="translate(-183.735 -341.944)" fill="#455a64"/>
      <path id="Path_5213" data-name="Path 5213" d="M272.429,372.93c.225,0-.591,3.942-2.661,8.363s-4.491,7.56-4.674,7.434,1.844-3.463,3.858-7.814S272.175,372.86,272.429,372.93Z" transform="translate(-182.097 -339.933)" fill="#455a64"/>
      <path id="Path_5214" data-name="Path 5214" d="M272.76,359.51a29.227,29.227,0,0,1-1.675-3.309,10.839,10.839,0,0,0-2.351-3.069,6.082,6.082,0,0,0-4.224-1.591,11.544,11.544,0,0,0-7.56,3.731,21.321,21.321,0,0,1-2.689,2.548,11.74,11.74,0,0,1,2.239-3,14.9,14.9,0,0,1,3.126-2.675,9.447,9.447,0,0,1,4.885-1.506,6.715,6.715,0,0,1,4.773,1.873,10.249,10.249,0,0,1,2.365,3.407,10.882,10.882,0,0,1,1.112,3.59Z" transform="translate(-186.512 -349.025)" fill="#455a64"/>
      <path id="Path_5215" data-name="Path 5215" d="M269.664,482.1a5.9,5.9,0,0,1-.831-.718c-.507-.493-1.267-1.225-2.182-2.239a27.593,27.593,0,0,1-3.041-3.928,13.953,13.953,0,0,1-2.182-6.237,10.63,10.63,0,0,1,.521-3.872,20.12,20.12,0,0,1,1.788-3.787c1.408-2.45,3.154-5.04,3.238-8.18a17.219,17.219,0,0,0-2.717-9.264c-1.732-2.971-4.083-5.716-6.167-8.828a24.4,24.4,0,0,1-4.125-10.067,40.169,40.169,0,0,1-.169-10.123c.648-6.42,1.9-12.052,2.1-16.895a31.537,31.537,0,0,0-1.1-11.263c-.817-2.562-1.619-3.844-1.535-3.886a5.01,5.01,0,0,1,.591.915,19.039,19.039,0,0,1,1.281,2.816,30.566,30.566,0,0,1,1.408,11.418c-.127,4.885-1.323,10.573-1.915,16.895a39.152,39.152,0,0,0,.211,9.855,23.723,23.723,0,0,0,4.012,9.715c2.027,3.041,4.393,5.8,6.167,8.87a17.966,17.966,0,0,1,2.816,9.757c-.127,3.407-2.013,6.124-3.421,8.447a20.077,20.077,0,0,0-1.774,3.632,9.857,9.857,0,0,0-.535,3.6,13.277,13.277,0,0,0,1.971,6.012,28.959,28.959,0,0,0,2.816,3.97c.859,1.042,1.577,1.8,2.042,2.337A4.053,4.053,0,0,1,269.664,482.1Z" transform="translate(-186.921 -335.903)" fill="#455a64"/>
      <path id="Path_5216" data-name="Path 5216" d="M227.751,436.95H333.6a21.611,21.611,0,0,1,21.583,21.611v43.645H206.14V458.561a21.611,21.611,0,0,1,21.611-21.611Z" transform="translate(-206.14 -313.819)" fill="#455a64"/>
      <path id="Path_5217" data-name="Path 5217" d="M312.006,455.12a5.234,5.234,0,0,1-.732.563l-2.2,1.506c-1.9,1.309-4.716,3.1-8.25,5.209s-7.828,4.505-12.671,7.04-10.32,4.97-16.149,7.349-11.5,4.322-16.7,5.969-9.954,2.9-13.966,3.83-7.279,1.619-9.56,2l-2.619.451a4.444,4.444,0,0,1-.915.1,4.008,4.008,0,0,1,.887-.253l2.591-.577c2.253-.465,5.5-1.211,9.489-2.224s8.7-2.337,13.882-3.97,10.813-3.661,16.641-6.012,11.263-4.857,16.106-7.265,9.18-4.759,12.742-6.814,6.406-3.787,8.349-5.012L311.2,455.6A3.692,3.692,0,0,1,312.006,455.12Z" transform="translate(-197.121 -306.407)" fill="#263238"/>
      <path id="Path_5218" data-name="Path 5218" d="M238.072,437.159a3.094,3.094,0,0,1-.845.07l-2.407.113a55.521,55.521,0,0,0-8.757,1.183,21.794,21.794,0,0,0-5.632,2.084,14.909,14.909,0,0,0-5.139,4.491,18.67,18.67,0,0,0-2.816,7.04,51.928,51.928,0,0,0-.76,8.25c-.352,11.4-.662,21.724-.887,29.313-.155,3.675-.268,6.688-.352,8.87,0,.986-.1,1.788-.141,2.422a3.5,3.5,0,0,1-.1.831,3.21,3.21,0,0,1,0-.845c0-.62,0-1.408,0-2.408,0-2.2.07-5.209.127-8.884.169-7.589.408-17.909.676-29.313a50.685,50.685,0,0,1,.788-8.447,19.246,19.246,0,0,1,2.957-7.293A15.261,15.261,0,0,1,220.192,440a21.554,21.554,0,0,1,5.843-2.056,49.281,49.281,0,0,1,8.856-.957h2.422A5.531,5.531,0,0,1,238.072,437.159Z" transform="translate(-204.48 -313.802)" fill="#263238"/>
    </g>
    <g id="freepik--character-1--inject-209" transform="translate(101.351 437.263)">
      <path id="Path_5219" data-name="Path 5219" d="M121.851,428.318l36.31-.465-4.055-30.974s2.478-.521,2.647-13.98.788-36.31.788-36.31h0a46.785,46.785,0,0,0-46.982,5.913l-2,1.535Z" transform="translate(-63.028 -330.739)" fill="#ffbe9d"/>
      <path id="Path_5220" data-name="Path 5220" d="M114.176,362.682c-.225-.1-9.25-2.731-8.954,6.462s9.475,7.04,9.475,6.744S114.176,362.682,114.176,362.682Z" transform="translate(-64.393 -322.799)" fill="#ffbe9d"/>
      <path id="Path_5221" data-name="Path 5221" d="M142.647,361.287c.225-.1,8.447-2.309,8.124,6.885s-9.461,7.04-9.461,6.744S142.647,361.287,142.647,361.287Z" transform="translate(-49.669 -323.319)" fill="#ffbe9d"/>
      <path id="Path_5222" data-name="Path 5222" d="M167.1,345.633a4.97,4.97,0,0,0-1.83-4.435,3.52,3.52,0,0,0-4.576.338,4.1,4.1,0,0,0-3.534-4.984c-2.182-.141-4.055,1.521-6.181,2.1a10.01,10.01,0,0,1-6.279-.732c-1.985-.8-3.844-1.9-5.871-2.633a17.176,17.176,0,0,0-21.992,10.095,7.659,7.659,0,0,0-8.11,3.069,12.671,12.671,0,0,0-1.915,8.828,28.679,28.679,0,0,0,1.535,6.026c0,.183,0,.352,0,.521.141,7.392,4,30.777,7.152,30.819,5.5.084,1.169-24.962,1.169-24.962,6.758-2.6,4.224-12.671,5.927-14.262s5.223-5.1,19.359,2.126c5.477,2.816,12.784,2.717,16.768,1.816l.352-.07h.2a12.4,12.4,0,0,0,3.618-1.535,7.04,7.04,0,0,0,2.985-3.323,3.928,3.928,0,0,0-.76-4.224A8.6,8.6,0,0,0,167.1,345.633Z" transform="translate(-63.8 -334.232)" fill="#263238"/>
      <path id="Path_5223" data-name="Path 5223" d="M109.46,369.919c1.408,7.7,1.112,11.756,2.379,16.895,2.013,8.138,6.054,14.389,13.389,18.458s17.261,3.984,23.568-1.549c4.379-3.844,7.476-8.18,8.124-13.966s1.3-16.036,1.408-21.865c0-10.489.774-20.527.774-20.527L129.044,342l-17.078,10.151Z" transform="translate(-62.661 -331.063)" fill="#263238"/>
      <path id="Path_5224" data-name="Path 5224" d="M134.422,390.579c0,.225-2.309.8-5.251.465a9.743,9.743,0,0,1-5.04-1.591c.1-.225,2.309.465,5.125.76S134.38,390.34,134.422,390.579Z" transform="translate(-56.677 -311.725)" fill="#263238"/>
      <path id="Path_5225" data-name="Path 5225" d="M145.484,343.089a4.054,4.054,0,0,1-1.408.267,8.3,8.3,0,0,1-3.844-.9,27.8,27.8,0,0,1-4.857-3.252,13.135,13.135,0,0,0-6.336-2.928,11.445,11.445,0,0,0-6.828,1.2,11.122,11.122,0,0,0-4.224,3.9,13.149,13.149,0,0,0-1.788,5,7.841,7.841,0,0,1,.155-1.408,11.263,11.263,0,0,1,1.408-3.675,11.109,11.109,0,0,1,4.224-4.041,11.461,11.461,0,0,1,7.04-1.253,13.164,13.164,0,0,1,6.476,3,28.734,28.734,0,0,0,4.773,3.294,8.588,8.588,0,0,0,3.745.986,10.9,10.9,0,0,0,1.464-.183Z" transform="translate(-59.912 -333.56)" fill="#455a64"/>
      <path id="Path_5226" data-name="Path 5226" d="M119.685,344.05a12.926,12.926,0,0,0-2.154-.8,6.913,6.913,0,0,0-8.447,5.209,12.079,12.079,0,0,0-.225,2.295,1.408,1.408,0,0,1-.113-.619,6,6,0,0,1,.113-1.718,6.913,6.913,0,0,1,8.7-5.336,6.337,6.337,0,0,1,1.591.662,1.815,1.815,0,0,1,.535.31Z" transform="translate(-62.96 -330.734)" fill="#455a64"/>
      <path id="Path_5227" data-name="Path 5227" d="M117.1,369.831a33.791,33.791,0,0,1-4.224-9.771,16.9,16.9,0,0,1,2.52,4.716,17.107,17.107,0,0,1,1.7,5.054Z" transform="translate(-61.266 -323.697)" fill="#455a64"/>
      <path id="Path_5228" data-name="Path 5228" d="M123.32,373.6a14.6,14.6,0,0,1-6.42-9.855c.239-.07,1.1,2.45,2.816,5.139S123.489,373.4,123.32,373.6Z" transform="translate(-59.626 -322.196)" fill="#455a64"/>
      <path id="Path_5229" data-name="Path 5229" d="M128.819,373.59a8.447,8.447,0,0,1-3.59-2.224c-1.76-1.535-2.816-3.112-2.675-3.252s1.521,1.14,3.238,2.633S128.917,373.308,128.819,373.59Z" transform="translate(-57.325 -320.416)" fill="#455a64"/>
      <path id="Path_5230" data-name="Path 5230" d="M137.708,363.09a10.841,10.841,0,0,1-3.478,8.447,42.245,42.245,0,0,1,1.887-4.139,43.424,43.424,0,0,1,1.591-4.308Z" transform="translate(-52.557 -322.461)" fill="#455a64"/>
      <path id="Path_5231" data-name="Path 5231" d="M140.968,357.93a13.586,13.586,0,0,1-3.323,10.573c-.2-.141,1.1-2.281,1.985-5.181S140.715,357.93,140.968,357.93Z" transform="translate(-51.172 -324.565)" fill="#455a64"/>
      <path id="Path_5232" data-name="Path 5232" d="M152.732,346.4a5.013,5.013,0,0,1-1.2.929,8.926,8.926,0,0,1-3.956,1.211,13.444,13.444,0,0,1-6.054-.929,47.323,47.323,0,0,1-6.716-3.351,29.17,29.17,0,0,0-6.828-2.942,11.362,11.362,0,0,0-5.97,0,8.109,8.109,0,0,0-3.506,2.013c-.69.69-.943,1.169-.985,1.14a5.334,5.334,0,0,1,.887-1.239,8.222,8.222,0,0,1,3.534-2.14,11.264,11.264,0,0,1,6.11-.1,28.16,28.16,0,0,1,6.913,2.943,51.168,51.168,0,0,0,6.673,3.365,14.08,14.08,0,0,0,5.927.986,9.32,9.32,0,0,0,5.167-1.887Z" transform="translate(-59.373 -331.625)" fill="#455a64"/>
      <path id="Path_5233" data-name="Path 5233" d="M148.578,347.831a2.718,2.718,0,0,1-.493.324,12.1,12.1,0,0,1-1.408.7,17.317,17.317,0,0,1-10.348.943,11.706,11.706,0,0,1-1.535-.437,2.239,2.239,0,0,1-.535-.225s.8.2,2.112.422a19.583,19.583,0,0,0,5.167.225,19.088,19.088,0,0,0,5.04-1.155C147.818,348.169,148.55,347.775,148.578,347.831Z" transform="translate(-52.545 -328.687)" fill="#455a64"/>
      <path id="Path_5234" data-name="Path 5234" d="M79,479.53s6.673-52.571,11.263-58.3,38.8-17.261,38.8-17.261l2.393-7.349,38.76-1.408,2.914,8.335s28.975,7.04,36.845,13.7,17.852,56.232,17.852,56.232Z" transform="translate(-75.086 -309.359)" fill="#8dc63f"/>
      <path id="Path_5235" data-name="Path 5235" d="M154.72,401.414c0,.211-8.771.591-19.6.859s-19.612.324-19.612.127,8.771-.591,19.6-.859S154.706,401.217,154.72,401.414Z" transform="translate(-60.193 -306.876)" fill="#263238"/>
      <path id="Path_5236" data-name="Path 5236" d="M101.375,450.248c-.2,0-1.408-6.406-2.633-14.375s-2.112-14.445-1.915-14.473a145.02,145.02,0,0,1,2.633,14.361C100.714,443.729,101.573,450.206,101.375,450.248Z" transform="translate(-67.825 -298.675)" fill="#263238"/>
      <path id="Path_5237" data-name="Path 5237" d="M169.951,448.945c-.2,0-.676-6.744-1.042-15.079s-.521-15.093-.324-15.107.676,6.744,1.056,15.079S170.148,448.931,169.951,448.945Z" transform="translate(-38.579 -299.752)" fill="#263238"/>
      <g id="Group_1003" data-name="Group 1003" transform="translate(54.247 94.538)" opacity="0.3">
        <path id="Path_5238" data-name="Path 5238" d="M114.75,402.365a31.326,31.326,0,0,0,21.119,5.421c7.42-.732,14.741-3.942,21.766-6.406-14.079.239-28.735.746-42.871.986" transform="translate(-114.75 -401.38)"/>
      </g>
      <path id="Path_5239" data-name="Path 5239" d="M119.321,404.39a15.994,15.994,0,0,1,.493-4.224,15.093,15.093,0,0,1,1.169-4.027,28.722,28.722,0,0,1-.746,4.125A27.076,27.076,0,0,1,119.321,404.39Z" transform="translate(-58.64 -308.979)" fill="#fafafa"/>
      <path id="Path_5240" data-name="Path 5240" d="M134.538,403.516a12.375,12.375,0,0,1-.971-3.9,12.812,12.812,0,0,1-.127-4.027,35.67,35.67,0,0,1,.563,3.97A33.6,33.6,0,0,1,134.538,403.516Z" transform="translate(-52.921 -309.204)" fill="#fafafa"/>
      <path id="Path_5241" data-name="Path 5241" d="M157.07,398.83h-1.633l-4.463.084-14.727.31-14.727.479-4.463.141H115.41a1.97,1.97,0,0,0,.422-.07l1.211-.113,4.463-.282c3.759-.225,8.968-.451,14.727-.605s10.968-.2,14.741-.183h5.674Z" transform="translate(-60.234 -307.981)" fill="#fafafa"/>
      <path id="Path_5242" data-name="Path 5242" d="M87.793,453.893a2.489,2.489,0,0,1,0-.422,5.5,5.5,0,0,0-.1-1.225c-.084-1.056-.169-2.6-.239-4.505-.141-3.8-.141-9.067.239-14.868s1.056-11.024,1.689-14.783c.31-1.887.591-3.393.817-4.435.1-.451.183-.845.268-1.2s.1-.422.127-.408a1.6,1.6,0,0,1,0,.422,8.753,8.753,0,0,1-.183,1.211l-.746,4.449c-.549,3.759-1.183,8.982-1.563,14.769s-.422,11.038-.366,14.839l.1,4.491v1.225a1.534,1.534,0,0,1-.042.436Z" transform="translate(-71.672 -302.49)" fill="#fafafa"/>
      <path id="Path_5243" data-name="Path 5243" d="M103.384,433.455c0,.113-4.9.957-10.982,1.858s-11.024,1.549-11.052,1.408,4.9-.943,10.982-1.858S103.285,433.328,103.384,433.455Z" transform="translate(-74.127 -293.765)" fill="#fafafa"/>
      <path id="Path_5244" data-name="Path 5244" d="M101.341,425.233s-.929-.465-2.422-1.2a35.771,35.771,0,0,0-6.068-2.267,35.4,35.4,0,0,0-6.378-1.1c-1.661-.127-2.7-.113-2.7-.183a2.211,2.211,0,0,1,.732-.1h1.985a28.889,28.889,0,0,1,6.476.986,28.491,28.491,0,0,1,6.1,2.422,18.074,18.074,0,0,1,1.7,1.014C101.158,425.051,101.355,425.205,101.341,425.233Z" transform="translate(-73.14 -299.088)" fill="#fafafa"/>
      <path id="Path_5245" data-name="Path 5245" d="M114.677,455.652a2.278,2.278,0,0,1-.155-.507q-.127-.605-.338-1.408c-.31-1.408-.718-3.154-1.211-5.294-1.028-4.463-2.52-10.616-4.365-17.359s-3.689-12.812-5.068-17.176c-.662-2.084-1.225-3.815-1.647-5.167-.169-.549-.324-1.014-.451-1.408a2.676,2.676,0,0,1-.113-.493,1.788,1.788,0,0,1,.2.465l.521,1.408c.451,1.2,1.056,2.957,1.788,5.125,1.408,4.35,3.351,10.4,5.2,17.162s3.295,12.925,4.224,17.416c.479,2.239.845,4.055,1.07,5.322l.268,1.408A2.028,2.028,0,0,1,114.677,455.652Z" transform="translate(-65.977 -304.615)" fill="#fafafa"/>
      <path id="Path_5246" data-name="Path 5246" d="M129.457,455.261a1.943,1.943,0,0,1-.127-.535,11.2,11.2,0,0,0-.239-1.563c-.211-1.478-.507-3.407-.845-5.716-.746-4.829-1.844-11.489-3.28-18.8s-2.943-13.9-4.083-18.641c-.563-2.267-1.028-4.153-1.408-5.632-.141-.591-.268-1.1-.366-1.535a2.125,2.125,0,0,1-.1-.535,3.233,3.233,0,0,1,.183.521c.127.422.267.929.451,1.506.38,1.309.887,3.224,1.506,5.632,1.225,4.731,2.816,11.263,4.224,18.627s2.492,13.995,3.14,18.838c.338,2.422.577,4.379.718,5.744a13.979,13.979,0,0,0,.169,1.563,3.209,3.209,0,0,1,.056.521Z" transform="translate(-58.766 -306.462)" fill="#fafafa"/>
      <path id="Path_5247" data-name="Path 5247" d="M143.784,456.44a2.421,2.421,0,0,1-.183-.535l-.408-1.563c-.366-1.408-.831-3.323-1.408-5.772-1.056-4.885-2.309-11.714-3.182-19.3s-1.225-14.53-1.309-19.528v-7.546a2.981,2.981,0,0,1,0-.563,1.986,1.986,0,0,1,0,.563q0,.676,0,1.605c0,1.408,0,3.421.127,5.927.169,5,.563,11.9,1.408,19.485s2.07,14.389,3.055,19.3c.493,2.45.915,4.435,1.225,5.8.127.605.239,1.126.324,1.577a2.282,2.282,0,0,1,.352.549Z" transform="translate(-51.313 -306.74)" fill="#fafafa"/>
      <path id="Path_5248" data-name="Path 5248" d="M156.692,453.016a2.369,2.369,0,0,1-.169-.465l-.436-1.408c-.366-1.183-.831-2.914-1.338-5.069a99.342,99.342,0,0,1-1.929-34.367c.268-2.2.549-3.97.774-5.181.113-.535.2-.986.282-1.408a1.888,1.888,0,0,1,.127-.479,2.167,2.167,0,0,1,0,.493,10.152,10.152,0,0,1-.2,1.408c-.183,1.225-.408,3-.634,5.181A109.536,109.536,0,0,0,155.087,446c.479,2.154.887,3.886,1.211,5.083.127.521.253.971.352,1.408a1.983,1.983,0,0,1,.042.521Z" transform="translate(-45.256 -305.512)" fill="#fafafa"/>
      <path id="Path_5249" data-name="Path 5249" d="M168.635,425.307a64.923,64.923,0,0,1-.084-7.56,68.666,68.666,0,0,1,.366-7.546,126.7,126.7,0,0,1-.282,15.107Z" transform="translate(-38.587 -303.244)" fill="#fafafa"/>
      <path id="Path_5250" data-name="Path 5250" d="M201.439,409.78s-.394.084-1.14.2l-3.28.479c-2.816.422-6.969.957-12.08,1.549-10.221,1.211-24.371,2.506-40.055,3.21s-29.9.634-40.2.352c-5.139-.155-9.292-.324-12.164-.493l-3.309-.183-1.154-.1h1.154l3.309.1c2.816.113,7.04.239,12.178.338,10.278.225,24.484.225,40.154-.465s29.834-1.957,40.041-3.083c5.111-.549,9.25-1.042,12.094-1.408l3.294-.394C201.03,409.794,201.439,409.78,201.439,409.78Z" transform="translate(-71.39 -303.415)" fill="#fafafa"/>
      <path id="Path_5251" data-name="Path 5251" d="M196.335,427.39H181.847c-8.94,0-21.3.2-34.958.662s-25.99,1.14-34.916,1.718l-10.587.7-2.816.183h-1a6.7,6.7,0,0,0,1-.113l2.816-.268c2.492-.225,6.1-.521,10.559-.845,8.926-.648,21.273-1.408,34.93-1.844s26.032-.577,34.972-.535c4.477,0,8.11.07,10.6.127l2.816.07C196,427.348,196.335,427.39,196.335,427.39Z" transform="translate(-67.511 -296.373)" fill="#fafafa"/>
      <path id="Path_5252" data-name="Path 5252" d="M183.531,431.86a48.933,48.933,0,0,1-6.659,1.1,53.339,53.339,0,0,1-6.7.648,49.886,49.886,0,0,1,6.645-1.084A55.489,55.489,0,0,1,183.531,431.86Z" transform="translate(-37.897 -294.409)" fill="#fafafa"/>
      <path id="Path_5253" data-name="Path 5253" d="M177.09,449.785a9.861,9.861,0,0,1-.394-1.408c-.239-.9-.535-2.2-.859-3.815a108.253,108.253,0,0,1-2.041-25.694,38.657,38.657,0,0,1,.239-3.9,11.26,11.26,0,0,1,.183-1.408,9.345,9.345,0,0,1,0,1.408c0,1.084,0,2.379-.113,3.9,0,3.295,0,7.842.394,12.854s1.07,9.517,1.647,12.77c.282,1.478.521,2.816.718,3.829A6.42,6.42,0,0,1,177.09,449.785Z" transform="translate(-36.454 -301.873)" fill="#fafafa"/>
      <path id="Path_5254" data-name="Path 5254" d="M97.831,437.9H211.365a21.611,21.611,0,0,1,21.611,21.611v43.645H76.22V459.511A21.611,21.611,0,0,1,97.831,437.9Z" transform="translate(-76.22 -291.945)" fill="#455a64"/>
      <path id="Path_5255" data-name="Path 5255" d="M183.546,456.12a3.463,3.463,0,0,1-.732.563l-2.2,1.506c-1.887,1.309-4.7,3.1-8.25,5.223s-7.828,4.505-12.671,7.04-10.32,4.956-16.149,7.335-11.5,4.336-16.7,5.97-9.954,2.9-13.966,3.829-7.279,1.619-9.56,2.013l-2.619.436a3.447,3.447,0,0,1-.915.1,7.719,7.719,0,0,1,.887-.239l2.591-.577c2.253-.479,5.5-1.225,9.489-2.239s8.7-2.323,13.882-3.956,10.813-3.675,16.641-6.012,11.263-4.871,16.121-7.265,9.165-4.759,12.671-6.828,6.406-3.773,8.349-5.012l2.267-1.408a5.769,5.769,0,0,1,.859-.479Z" transform="translate(-66.606 -284.513)" fill="#263238"/>
      <path id="Path_5256" data-name="Path 5256" d="M109.574,438.157a3.868,3.868,0,0,1-.845.07l-2.408.1a55.51,55.51,0,0,0-8.757,1.183,21.525,21.525,0,0,0-5.632,2.084,14.98,14.98,0,0,0-5.153,4.491,18.64,18.64,0,0,0-2.816,7.04,51.768,51.768,0,0,0-.76,8.25c-.352,11.39-.662,21.71-.887,29.3-.155,3.675-.268,6.688-.352,8.884,0,.986-.1,1.774-.141,2.408a2.929,2.929,0,0,1-.1.845,4.406,4.406,0,0,1,0-.845c0-.634,0-1.408,0-2.422,0-2.2,0-5.209.127-8.884.169-7.589.408-17.909.676-29.313a50.585,50.585,0,0,1,.788-8.363,19.161,19.161,0,0,1,2.957-7.293,15.487,15.487,0,0,1,5.406-4.646,21.708,21.708,0,0,1,5.843-2.056,49.276,49.276,0,0,1,8.856-.957H108.8a3.249,3.249,0,0,1,.774.127Z" transform="translate(-73.982 -291.892)" fill="#263238"/>
    </g>
  </g>
</svg>
