<svg xmlns="http://www.w3.org/2000/svg" width="61.867" height="62" viewBox="0 0 61.867 62">
  <g id="_781902" data-name="781902" transform="translate(-0.549)">
    <g id="Group_141" data-name="Group 141" transform="translate(0.549)">
      <g id="Group_140" data-name="Group 140">
        <path id="Path_1854" data-name="Path 1854" d="M54.828,20.266H50.358V11.471a5.712,5.712,0,0,0-1.579-3.936L45.892,4.513c-2.451-2.525-2.76-3.238-4.22-3.947A5.711,5.711,0,0,0,39.2,0H18.106a5.7,5.7,0,0,0-5.7,5.7V36.424h-1.2a3.285,3.285,0,0,0-2.333,5.6,3.275,3.275,0,0,0-.954,2.313,3.372,3.372,0,0,0,.065.65A8.286,8.286,0,0,0,9.168,61.509L25.377,61.5a3.285,3.285,0,0,0,2.333-5.6,3.269,3.269,0,0,0,.95-2.15h1.233v.659A7.6,7.6,0,0,0,37.481,62H54.828a7.6,7.6,0,0,0,7.588-7.588V27.854A7.6,7.6,0,0,0,54.828,20.266ZM47.074,8.571s0,0,0,0h0l0,.006h0a.021.021,0,0,0,.007.007l0,0s0,0,0,0,0,0,0,0,0,0,0,0H42.224V3.444C46.05,7.487,46.912,8.4,47.074,8.571Zm-35.867,29.8H25.378a1.339,1.339,0,1,1,0,2.678H11.206a1.339,1.339,0,1,1,0-2.678Zm0,4.626H25.378a1.339,1.339,0,1,1,0,2.678H15.589a7.932,7.932,0,0,0-1.233-.446,8.211,8.211,0,0,0-1.948-.286c-.191,0-.382,0-.573,0H10.017a1.317,1.317,0,0,1-.15-.612A1.342,1.342,0,0,1,11.206,43Zm15.51,5.966A1.341,1.341,0,0,1,25.378,50.3H19.927a8.193,8.193,0,0,0-1.653-2.678h7.1A1.342,1.342,0,0,1,26.717,48.964ZM6.468,47.215a8.4,8.4,0,0,0-1.534,1.967H3.8A6.432,6.432,0,0,1,6.468,47.215Zm-3.7,3.794H4.182a8.408,8.408,0,0,0-.265,1.46h-1.5A6.4,6.4,0,0,1,2.763,51.009Zm.157,4.827a6.394,6.394,0,0,1-.458-1.541H3.95A7.35,7.35,0,0,0,4.3,55.836Zm1.215,1.826c.6,0,.945,0,1.026,0a8.225,8.225,0,0,0,1.31,1.585A6.434,6.434,0,0,1,4.135,57.662Zm8.31,2.022A6.461,6.461,0,1,1,16.539,48.47,6.456,6.456,0,0,1,12.446,59.684Zm12.932-.129H17.517a8.343,8.343,0,0,0,2.093-2.678h5.768a1.339,1.339,0,0,1,0,2.678Zm1.328-5.8a1.34,1.34,0,0,1-1.328,1.176h-5.1a8.368,8.368,0,0,0,.118-2.678h4.978A1.34,1.34,0,0,1,26.706,53.753ZM29.893,51.8H28.135a3.231,3.231,0,0,0-.425-.528,3.28,3.28,0,0,0,0-4.626,3.28,3.28,0,0,0,0-4.626,3.29,3.29,0,0,0-2.333-5.6H14.356V5.7a3.755,3.755,0,0,1,3.75-3.75H40.277v7.63a.974.974,0,0,0,.974.974h7.044c.2.789.078.528.116,9.714H37.481a7.6,7.6,0,0,0-7.588,7.588V51.8Zm30.7,2.607a5.768,5.768,0,0,1-5.762,5.762H37.481a5.769,5.769,0,0,1-5.762-5.762V27.854a5.769,5.769,0,0,1,5.762-5.762H54.828a5.768,5.768,0,0,1,5.762,5.762V54.412Z" transform="translate(-0.549)" fill="#fff"/>
      </g>
    </g>
    <g id="Group_143" data-name="Group 143" transform="translate(34.481 24.163)">
      <g id="Group_142" data-name="Group 142">
        <path id="Path_1855" data-name="Path 1855" d="M301.04,199.538H283.822a3.066,3.066,0,0,0-3.065,3.065v3.342a3.066,3.066,0,0,0,3.065,3.065h3.313a.913.913,0,0,0,0-1.826h-3.313a1.243,1.243,0,0,1-1.239-1.239V202.6a1.243,1.243,0,0,1,1.239-1.239H301.04a1.241,1.241,0,0,1,1.239,1.239v3.342a1.241,1.241,0,0,1-1.239,1.239h-9.967a.913.913,0,1,0,0,1.826h9.967a3.069,3.069,0,0,0,3.065-3.065V202.6A3.069,3.069,0,0,0,301.04,199.538Z" transform="translate(-280.757 -199.538)" fill="#fff"/>
      </g>
    </g>
    <g id="Group_145" data-name="Group 145" transform="translate(34.481 43.403)">
      <g id="Group_144" data-name="Group 144">
        <path id="Path_1856" data-name="Path 1856" d="M285.789,358.428h-3.12a1.914,1.914,0,0,0-1.911,1.911v3.119a1.914,1.914,0,0,0,1.911,1.911h3.12a1.913,1.913,0,0,0,1.911-1.911v-3.119A1.913,1.913,0,0,0,285.789,358.428Zm.085,5.03a.086.086,0,0,1-.085.085h-3.12a.086.086,0,0,1-.085-.085v-3.119a.086.086,0,0,1,.085-.085h3.12a.086.086,0,0,1,.085.085Z" transform="translate(-280.757 -358.428)" fill="#fff"/>
      </g>
    </g>
    <g id="Group_147" data-name="Group 147" transform="translate(50.985 35.247)">
      <g id="Group_146" data-name="Group 146">
        <path id="Path_1857" data-name="Path 1857" d="M422.086,291.068h-3.119a1.913,1.913,0,0,0-1.911,1.911V296.1a1.913,1.913,0,0,0,1.911,1.911h3.119A1.913,1.913,0,0,0,424,296.1v-3.119A1.913,1.913,0,0,0,422.086,291.068Zm.085,5.03a.085.085,0,0,1-.085.085h-3.119a.086.086,0,0,1-.085-.085c.038-3.086-.079-3.2.085-3.2h3.119a.085.085,0,0,1,.085.085Z" transform="translate(-417.056 -291.068)" fill="#fff"/>
      </g>
    </g>
    <g id="Group_149" data-name="Group 149" transform="translate(34.481 35.247)">
      <g id="Group_148" data-name="Group 148">
        <path id="Path_1858" data-name="Path 1858" d="M285.789,291.068h-3.12a1.914,1.914,0,0,0-1.911,1.911V296.1a1.914,1.914,0,0,0,1.911,1.911h3.12A1.913,1.913,0,0,0,287.7,296.1v-3.119A1.913,1.913,0,0,0,285.789,291.068Zm.085,5.03a.086.086,0,0,1-.085.085h-3.12a.086.086,0,0,1-.085-.085v-3.119a.086.086,0,0,1,.085-.085h3.12a.086.086,0,0,1,.085.085Z" transform="translate(-280.757 -291.068)" fill="#fff"/>
      </g>
    </g>
    <g id="Group_151" data-name="Group 151" transform="translate(34.477 51.161)">
      <g id="Group_150" data-name="Group 150">
        <path id="Path_1859" data-name="Path 1859" d="M287.2,423.135a1.91,1.91,0,0,0-1.43-.644h-3.12a1.906,1.906,0,0,0-1.429.644,2.612,2.612,0,0,0-.482,1.948v2.439a1.914,1.914,0,0,0,1.911,1.911h3.12a1.913,1.913,0,0,0,1.911-1.911v-2.439A2.633,2.633,0,0,0,287.2,423.135Zm-1.43,4.472c-3.083-.038-3.206.079-3.206-.085,0-3.3-.037-3.2.085-3.2h3.12c.15,0,.057.208.085.766A12.982,12.982,0,0,1,285.765,427.607Z" transform="translate(-280.73 -422.491)" fill="#fff"/>
      </g>
    </g>
    <g id="Group_153" data-name="Group 153" transform="translate(50.985 43.403)">
      <g id="Group_152" data-name="Group 152">
        <path id="Path_1860" data-name="Path 1860" d="M421.6,358.428h-2.15a2.4,2.4,0,0,0-2.4,2.4v9.687a2.619,2.619,0,0,0,2.615,2.616h1.712A2.618,2.618,0,0,0,424,370.511v-9.687A2.4,2.4,0,0,0,421.6,358.428Zm-.219,12.873H419.67a.791.791,0,0,1-.789-.79v-9.687a.57.57,0,0,1,.57-.57h2.15a.57.57,0,0,1,.57.57v9.687h0A.79.79,0,0,1,421.382,371.3Z" transform="translate(-417.055 -358.428)" fill="#fff"/>
      </g>
    </g>
    <g id="Group_155" data-name="Group 155" transform="translate(20.185 20.258)">
      <g id="Group_154" data-name="Group 154">
        <path id="Path_1861" data-name="Path 1861" d="M166.575,173.553c-1.113-.409-1.918-.7-1.918-1.736,0-.94.624-1.417,1.856-1.417,1.307,0,1.659.575,2.119.575a.877.877,0,0,0,.778-.9c0-.761-1.241-1.138-2.35-1.237v-.686a.865.865,0,0,0-1.73,0v.8a2.83,2.83,0,0,0-2.35,2.96c0,2.125,1.565,2.713,2.822,3.186,1.231.463,2.2.828,2.2,2.234,0,1.161-.645,1.75-1.916,1.75-1.861,0-1.878-1.256-2.588-1.256a.913.913,0,0,0-.794.9c0,.72,1.072,1.665,2.623,1.911v.663a.865.865,0,1,0,1.73,0v-.681a3.126,3.126,0,0,0,2.623-3.376C169.683,174.7,167.959,174.062,166.575,173.553Z" transform="translate(-162.707 -167.288)" fill="#fff"/>
      </g>
    </g>
    <g id="Group_157" data-name="Group 157" transform="translate(42.681 51.161)">
      <g id="Group_156" data-name="Group 156">
        <path id="Path_1862" data-name="Path 1862" d="M354.833,423.027a1.9,1.9,0,0,0-1.325-.536h-3.12a1.91,1.91,0,0,0-1.43.644,2.622,2.622,0,0,0-.481,1.948v2.439a1.913,1.913,0,0,0,1.911,1.911h3.12a1.913,1.913,0,0,0,1.91-1.911V424.4A1.9,1.9,0,0,0,354.833,423.027Zm-1.325,4.58c-3.083-.038-3.206.079-3.206-.085V424.4a.085.085,0,0,1,.085-.084h3.12a.084.084,0,0,1,.084.084C353.556,427.491,353.671,427.607,353.509,427.607Z" transform="translate(-348.474 -422.491)" fill="#fff"/>
      </g>
    </g>
    <g id="Group_159" data-name="Group 159" transform="translate(42.684 35.247)">
      <g id="Group_158" data-name="Group 158">
        <path id="Path_1863" data-name="Path 1863" d="M353.531,291.068h-3.12a1.913,1.913,0,0,0-1.911,1.911V296.1a1.913,1.913,0,0,0,1.911,1.911h3.12a1.882,1.882,0,0,0,.7-.132,1.914,1.914,0,0,0,1.215-1.78v-3.119A1.914,1.914,0,0,0,353.531,291.068Zm0,5.116h-3.12a.086.086,0,0,1-.085-.085v-3.119c0-.164.113-.049,3.206-.085a.085.085,0,0,1,.084.085V296.1h0A.085.085,0,0,1,353.531,296.184Z" transform="translate(-348.499 -291.068)" fill="#fff"/>
      </g>
    </g>
    <g id="Group_161" data-name="Group 161" transform="translate(42.684 43.403)">
      <g id="Group_160" data-name="Group 160">
        <path id="Path_1864" data-name="Path 1864" d="M354.226,358.56a1.882,1.882,0,0,0-.7-.132h-3.12a1.913,1.913,0,0,0-1.911,1.911v3.119a1.913,1.913,0,0,0,1.911,1.911h3.12a1.913,1.913,0,0,0,1.91-1.911v-3.119A1.913,1.913,0,0,0,354.226,358.56Zm-.611,4.9a.085.085,0,0,1-.084.085h-3.12a.086.086,0,0,1-.085-.085v-3.119a.086.086,0,0,1,.085-.085h3.12a.085.085,0,0,1,.084.085Z" transform="translate(-348.499 -358.428)" fill="#fff"/>
      </g>
    </g>
    <g id="Group_163" data-name="Group 163" transform="translate(39.238 12.478)">
      <g id="Group_162" data-name="Group 162">
        <path id="Path_1865" data-name="Path 1865" d="M323.254,103.041H320.96a.913.913,0,1,0,0,1.826h2.294a.913.913,0,1,0,0-1.826Z" transform="translate(-320.047 -103.041)" fill="#fff"/>
      </g>
    </g>
    <g id="Group_165" data-name="Group 165" transform="translate(19.394 12.478)">
      <g id="Group_164" data-name="Group 164">
        <path id="Path_1866" data-name="Path 1866" d="M173.275,103.041H157.083a.913.913,0,1,0,0,1.826h16.192a.913.913,0,1,0,0-1.826Z" transform="translate(-156.17 -103.041)" fill="#fff"/>
      </g>
    </g>
    <g id="Group_167" data-name="Group 167" transform="translate(19.394 17.01)">
      <g id="Group_166" data-name="Group 166">
        <path id="Path_1867" data-name="Path 1867" d="M159.985,140.472h-2.9a.913.913,0,1,0,0,1.826h2.9a.913.913,0,0,0,0-1.826Z" transform="translate(-156.17 -140.472)" fill="#fff"/>
      </g>
    </g>
    <g id="Group_169" data-name="Group 169" transform="translate(25.949 17.01)">
      <g id="Group_168" data-name="Group 168">
        <path id="Path_1868" data-name="Path 1868" d="M226.8,140.472H211.212a.913.913,0,0,0,0,1.826H226.8a.913.913,0,1,0,0-1.826Z" transform="translate(-210.299 -140.472)" fill="#fff"/>
      </g>
    </g>
    <g id="Group_171" data-name="Group 171" transform="translate(9.669 48.358)">
      <g id="Group_170" data-name="Group 170">
        <path id="Path_1869" data-name="Path 1869" d="M77.844,402.473c0-.229.085-.3.164-.339a1.569,1.569,0,0,1,1.324.09,1.044,1.044,0,0,0,.494.15c.9,0,1.613-1.673-.538-2.043v-.058a.925.925,0,0,0-1.851,0v.176a2.076,2.076,0,0,0-1.411,2.079c0,1.557,1.131,1.982,1.958,2.293.788.3,1.06.426,1.06.962,0,.335-.09.645-.745.645-.954,0-.84-.754-1.554-.754a.954.954,0,0,0-.882.946c0,.633.658,1.233,1.575,1.476v.069a.925.925,0,0,0,1.851,0v-.093a2.288,2.288,0,0,0,1.575-2.343C80.862,402.953,77.844,403.369,77.844,402.473Z" transform="translate(-75.861 -399.347)" fill="#fff"/>
      </g>
    </g>
  </g>
</svg>
