<svg xmlns="http://www.w3.org/2000/svg" width="60" height="60" viewBox="0 0 60 60">
  <g id="Group_1031" data-name="Group 1031" transform="translate(-200 -1302)">
    <rect id="Rectangle_138" data-name="Rectangle 138" width="60" height="60" rx="10" transform="translate(200 1302)" fill="#ec008c"/>
    <g id="_2102628" data-name="2102628" transform="translate(148 1311)">
      <path id="Path_1871" data-name="Path 1871" d="M173.383,100a7.383,7.383,0,1,0,7.383,7.383A7.391,7.391,0,0,0,173.383,100Zm0,13.125a5.742,5.742,0,1,1,5.742-5.742A5.749,5.749,0,0,1,173.383,113.125Z" transform="translate(-91.797 -91.797)" fill="#fff"/>
      <ellipse id="Ellipse_35" data-name="Ellipse 35" cx="0.5" cy="1" rx="0.5" ry="1" transform="translate(88.586 30)" fill="#fff"/>
      <path id="Path_1872" data-name="Path 1872" d="M92.736,23.964l-2.367,3.352a.82.82,0,1,0,1.34.946l2.36-3.343a15.586,15.586,0,1,0-24.967,0L80,40.359H69.281a.82.82,0,0,0,0,1.641H93.891a.82.82,0,0,0,0-1.641H83.169l4.285-6.069a.82.82,0,1,0-1.34-.946l-4.528,6.413L70.422,23.945a13.945,13.945,0,1,1,22.327,0l-.014.019Z" fill="#fff"/>
    </g>
  </g>
</svg>
