<?xml version="1.0" encoding="UTF-8"?>
<svg width="149px" height="117px" viewBox="0 0 149 117" version="1.1" xmlns="http://www.w3.org/2000/svg" xmlns:xlink="http://www.w3.org/1999/xlink">
    <title>logo</title>
    <g id="Page-1" stroke="none" stroke-width="1" fill="none" fill-rule="evenodd">
        <g id="Registration" transform="translate(-648.000000, -172.000000)" fill-rule="nonzero">
            <g id="Group" transform="translate(631.000000, 168.000000)">
                <g id="final_logo" transform="translate(16.000000, 3.000000)">
                    <path d="M30.8382353,3.76470588 C30.834139,4.63988074 30.5276111,5.48672893 29.9705882,6.16176471 C29.4589133,6.85913436 28.7024285,7.3371907 27.8529412,7.5 C27.3438646,7.5628319 26.8281037,7.45967972 26.3823529,7.20588235 C25.9328328,6.95808487 25.4247853,6.83615349 24.9117647,6.85294118 C22.4667237,7.17678597 20.0830631,7.86066363 17.8382353,8.88235294 C14.2941176,10.3529412 11.9558824,11.2647059 10.8823529,11.5735294 C10.7058824,14.3235294 10.6323529,17.1176471 10.6323529,19.9558824 C10.6323529,22.7941176 10.7058824,25.6470588 10.8823529,28.4852941 C11.2480053,28.5754053 11.6234143,28.6198617 12,28.6176471 C13.6120181,28.4660305 15.1982452,28.1102413 16.7205882,27.5588235 C18.3011727,27.0251449 19.9650831,26.7810383 21.6323529,26.8382353 C22.6029412,26.9264706 23.1029412,27.2941176 22.9558824,27.9558824 C22.6168583,29.7478564 21.3769661,31.237951 19.6764706,31.8970588 C17.8823529,32.4558824 16.0882353,33.0441176 14.2941176,33.6617647 C13.6029412,33.75 12.4558824,33.9705882 10.8823529,34.3088235 C10.7941176,35.1911765 10.75,36.1715686 10.75,37.25 C10.75,38.2941176 10.75,39.8970588 10.9264706,42.0294118 C11.1029412,44.1617647 11.0882353,45.7794118 11.0882353,46.8235294 C11.2602232,49.8938886 10.6743883,52.9594212 9.38235294,55.75 C9.17335269,56.2072063 8.7081309,56.4921547 8.20588235,56.4705882 C7.59197575,56.4379981 7.01127355,56.1816521 6.57352941,55.75 C6.05543738,55.3457679 5.66692999,54.7987903 5.45588235,54.1764706 C4.9892156,52.6473571 4.76589995,51.0543722 4.79411765,49.4558824 C4.79411765,48.8529412 4.95588235,46.7205882 5.26470588,43.1029412 C5.48974572,40.9837281 5.45022646,38.8447482 5.14705882,36.7352941 C5.05882353,36.1764706 4.61764706,35.7205882 3.82352941,35.3676471 C3.14167851,35.1117895 2.50217622,34.754858 1.92647059,34.3088235 C1.79539869,33.4375905 1.83032651,32.5494258 2.02941176,31.6911765 C2.54013625,31.786269 3.06020587,31.5805272 3.36764706,31.1617647 C3.62252569,30.8018467 4.01793625,30.5667377 4.45588235,30.5147059 C4.63168645,30.4930156 4.80949002,30.4930156 4.98529412,30.5147059 C5.43614382,28.1396898 5.65286838,25.7261663 5.63235294,23.3088235 C5.63235294,22.3970588 5.45588235,19 5.11764706,13.1470588 C4.17967861,12.8813655 3.32780479,12.3742977 2.64705882,11.6764706 C1.94215737,11.075981 1.50772981,10.2177217 1.44117647,9.29411765 C1.44117647,8.19117647 2.23529412,7.54411765 3.79411765,7.32352941 C7.82303762,6.51435853 11.7890121,5.41843248 15.6617647,4.04411765 C19.5938358,2.59271821 23.7146923,1.71604562 27.8970588,1.44117647 C28.6309943,1.42700685 29.3509471,1.64299269 29.9558824,2.05882353 C30.5237753,2.43788878 30.8570301,3.08218144 30.8382353,3.76470588 Z" id="Path" fill="#92278F"></path>
                    <path d="M49.3235294,12.6176471 C46.9830954,13.5072715 44.5974395,14.2730375 42.1764706,14.9117647 C39.7534946,15.5436045 37.3674694,16.3094891 35.0294118,17.2058824 C34.4694107,19.7016294 34.1834044,22.2510302 34.1764706,24.8088235 C34.9549038,25.0857522 35.7768411,25.220251 36.6029412,25.2058824 C37.638948,25.1648488 38.6708481,25.0518312 39.6911765,24.8676471 C40.7078085,24.6948786 41.7343825,24.5868182 42.7647059,24.5441176 C43.8674403,24.5084496 44.9579773,24.7836319 45.9117647,25.3382353 C46.3434112,25.8310244 46.6598952,26.4137569 46.8382353,27.0441176 C46.8289197,27.3494357 46.6542571,27.6255153 46.3823529,27.7647059 C46.0502742,28.0440561 45.7405097,28.3489037 45.4558824,28.6764706 C45.1383833,29.0645189 44.6450565,29.2640669 44.1470588,29.2058824 C42.4817476,29.4940665 40.7926644,29.622102 39.1029412,29.5882353 C37.4279004,29.5751856 35.7625685,29.8436271 34.1764706,30.3823529 C33.456168,32.8779018 33.0316872,35.4494657 32.9117647,38.0441176 C32.8696067,39.1054107 33.0551364,40.1634314 33.4558824,41.1470588 C35.5147059,42.5882353 39.0784314,43.1960784 44.1470588,42.9705882 C44.5645204,42.9429458 44.9594915,42.7714452 45.2647059,42.4852941 C45.5313006,42.2202327 45.8773711,42.04978 46.25,42 C47.4705882,41.7352941 48.2794118,42.6470588 48.6764706,44.75 C48.8020874,45.4155434 48.6707098,46.1039621 48.3088235,46.6764706 C47.9707843,47.2459129 47.3675629,47.6056321 46.7058824,47.6323529 C42.0682043,47.853308 37.4228172,47.4075886 32.9117647,46.3088235 C31.6240003,45.9646622 30.4609515,45.2607116 29.5588235,44.2794118 C28.6003723,43.3287777 27.9980545,42.0774104 27.8529412,40.7352941 C27.4698356,37.3392015 27.4698356,33.9107985 27.8529412,30.5147059 C26.6372549,29.6813725 26.0931373,28.872549 26.2205882,28.0882353 C26.2205882,27.6911765 26.6029412,27.3382353 27.2352941,27 C27.8676471,26.6617647 28.2352941,26.3382353 28.3235294,25.9852941 C28.4117647,25.6323529 28.5882353,23.5588235 28.8382353,19.7647059 C26.3970588,19.2794118 25.1911765,18.2941176 25.2352941,17.0147059 C25.3430664,15.6470345 26.2399514,14.4684356 27.5294118,14 L31.7205882,12.2941176 C33.6716363,11.3388217 35.71702,10.5896692 37.8235294,10.0588235 C39.9705882,9.48529412 42.1029412,8.94117647 44.25,8.42647059 C44.509189,8.40119184 44.7702227,8.40119184 45.0294118,8.42647059 C46.5045041,8.51560468 47.9299501,8.99244424 49.1617647,9.80882353 C49.1617647,9.98529412 49.3235294,10.3088235 49.5,10.7941176 C49.6329819,11.1283644 49.717178,11.4800066 49.75,11.8382353 C49.7373965,12.1503931 49.5796306,12.4387239 49.3235294,12.6176471 Z" id="Path" fill="#92278F"></path>
                    <path d="M69.6764706,37.8088235 C69.5735294,37.8088235 67.0294118,39.6764706 62,43.2794118 C59.559308,45.0944223 56.9433738,46.661027 54.1911765,47.9558824 C53.9511086,48.0828949 53.6833572,48.1485697 53.4117647,48.1470843 C52.6799839,48.0707494 52.0372557,47.6274886 51.7058824,46.9705882 C50.9264706,45.9117647 50.5,45.3676471 50.4558824,45.3235294 C50.3676471,41.4705882 50.6176471,36.1176471 51.1764706,29.2352941 C51.8333333,21.9313725 52.1617647,16.6568627 52.1617647,13.4117647 C52.1617647,11.1764706 52.0735294,9.08823529 51.8970588,7.10294118 C52.4735549,6.53014771 53.2613577,6.22141421 54.0735294,6.25 C55.7352941,6.25 56.6911765,6.86764706 57.0147059,8.08823529 C57.1519608,11.6764706 56.995098,17.0441176 56.5441176,24.1911765 C56.1176471,31.3382353 55.9411765,36.6911765 56.0294118,40.2794118 C57.7133551,39.5031807 59.3271833,38.5831019 60.8529412,37.5294118 C62.3457734,36.4553798 63.9025713,35.4731729 65.5147059,34.5882353 C65.8996428,34.5704895 66.2829016,34.5262673 66.6617647,34.4558824 C67.0599635,34.3824404 67.4629983,34.3382049 67.8676471,34.3235294 C68.6567519,34.2739224 69.4028265,34.6871329 69.7794118,35.3823529 C70.2628143,36.1312535 70.2215651,37.1035562 69.6764706,37.8088235 L69.6764706,37.8088235 Z" id="Path" fill="#92278F"></path>
                    <path d="M90.5,37.8088235 C90.4117647,37.8088235 87.8529412,39.6323529 82.8235294,43.2794118 C80.3828374,45.0944223 77.7669032,46.661027 75.0147059,47.9558824 C74.774638,48.0828949 74.5068866,48.1485697 74.2352941,48.1470843 C73.5035133,48.0707494 72.8607851,47.6274886 72.5294118,46.9705882 C71.75,45.9117647 71.3235294,45.3676471 71.2794118,45.3235294 C71.1911765,41.4705882 71.4411765,36.1176471 72,29.2352941 C72.6568627,21.9313725 72.9852941,16.6568627 72.9852941,13.4117647 C72.9852941,11.1764706 72.8970588,9.08823529 72.7352941,7.10294118 C73.3082433,6.53392811 74.0899364,6.22550496 74.8970588,6.25 C76.5441176,6.25 77.5147059,6.86764706 77.8382353,8.08823529 C77.9705882,11.6764706 77.8382353,17.0441176 77.3823529,24.1911765 C76.9264706,31.3382353 76.7647059,36.6911765 76.8529412,40.2794118 C78.5216996,39.500937 80.1206853,38.5809052 81.6323529,37.5294118 C83.1251851,36.4553798 84.681983,35.4731729 86.2941176,34.5882353 C86.6790545,34.5704895 87.0623133,34.5262673 87.4411765,34.4558824 C87.8393753,34.3824404 88.24241,34.3382049 88.6470588,34.3235294 C89.4361637,34.2739224 90.1822383,34.6871329 90.5588235,35.3823529 C91.0550618,36.1220154 91.0314967,37.0940759 90.5,37.8088235 Z" id="Path" fill="#92278F"></path>
                    <path d="M145.955882,11.6323529 C146.834239,11.9611958 147.419017,12.7974282 147.426471,13.7352941 C147.345839,14.6096213 147.080157,15.4567978 146.647059,16.2205882 C145.985294,17.6911765 145.632353,18.4117647 145.588235,18.5882353 C144.218961,23.4043341 143.235459,28.3218439 142.647059,33.2941176 C142.043874,38.2039471 141.090463,43.0643746 139.794118,47.8382353 C139.529412,48.7205882 138.779412,49.1470588 137.558824,49.1470588 C137.049949,49.1569339 136.54598,49.0460607 136.088235,48.8235294 C134.291982,47.772075 133.025493,46.00861 132.602941,43.9705882 C132.602941,43.75 132.147059,41.5735294 131.367647,37.4117647 C130.970588,35.2352941 130.602941,32.8970588 130.25,30.3970588 C129.14802,33.3505882 128.335384,36.404127 127.823529,39.5147059 C126.941176,43.7058824 125.926471,46.3823529 124.735294,47.5147059 C124.397059,47.8676471 123.779412,47.9117647 122.911765,47.6470588 C121.622224,47.4932368 120.568532,46.5455027 120.279412,45.2794118 C120.014706,44.0588235 119.764706,42.8382353 119.5,41.6176471 C118.480353,36.7743317 117.855751,31.8562036 117.632353,26.9117647 C117.40847,22.020819 116.783827,17.1564741 115.764706,12.3676471 C115.639143,11.8709734 115.707504,11.3451201 115.955882,10.8970588 C116.15581,10.4507103 116.585589,10.1509958 117.073529,10.1176471 C117.414712,10.0302888 117.765459,9.985828 118.117647,9.98529412 C119.290207,9.95787758 120.379836,10.5878197 120.941176,11.6176471 C121.627451,15.2941176 122.455882,22.4411765 123.426471,33.0588235 C123.964013,31.7132844 124.372706,30.319788 124.647059,28.8970588 C124.940192,27.3843526 125.388646,25.905934 125.985294,24.4852941 C126.382353,22.8235294 126.75,21.1617647 127.102941,19.5 C127.632353,17.4852941 128.720588,16.4852941 130.382353,16.4852941 C130.878579,16.487811 131.372566,16.5520293 131.852941,16.6764706 C131.852941,16.9411765 132.088235,17.1029412 132.441176,17.1470588 C132.794118,17.1911765 132.985294,17.25 133.029412,17.3382353 C134.144933,20.0868299 134.8725,22.9773002 135.191176,25.9264706 C135.946078,31.004902 136.406863,33.9460784 136.573529,34.75 C137.259804,30.8284314 137.980392,26.9607843 138.735294,23.1470588 C139.42798,19.3358195 140.619599,15.632407 142.279412,12.1323529 C142.695644,11.5074971 143.432823,11.1760522 144.176471,11.2794118 C144.788597,11.2618126 145.396814,11.3824508 145.955882,11.6323529 L145.955882,11.6323529 Z" id="Path" fill="#92278F"></path>
                    <path d="M39.1176471,79 C37.8225758,82.4696517 37.0494527,86.1122506 36.8235294,89.8088235 C36.6029412,93.5294118 36.4117647,97.1617647 36.2352941,100.955882 C36.1470588,102.044118 35.4264706,102.588483 34.0735294,102.588483 C33.6924525,102.593031 33.3136992,102.528245 32.9558824,102.397059 C31.1549007,101.699768 30.0167846,99.9121511 30.1470588,97.9852941 C30.1772938,97.0548125 30.2607637,96.1268242 30.3970588,95.2058824 C30.5420563,94.3054418 30.630465,93.3967972 30.6617647,92.4852941 C30.8382353,91.2205882 31.0588235,89.3088235 31.3235294,86.7794118 C28.3601969,89.5790195 24.8576111,91.745619 21.0294118,93.1470588 C20.520675,93.3099592 19.9900563,93.3942632 19.4558824,93.3970588 C17.1615145,93.233715 15.0890606,91.9672154 13.8970588,90 C12.8935925,88.6347785 12.3759023,86.972993 12.4264706,85.2794118 C12.4877454,83.2720955 12.8649194,81.2869696 13.5441176,79.3970588 C16.0755458,71.9093369 19.821653,64.8891122 24.6323529,58.6176471 C27.2107843,55.2843137 29.4803922,53.6176471 31.4411765,53.6176471 C33.1911765,53.6176471 34.1764706,54.2794118 34.3823529,55.5882353 C34.6264584,56.5394961 34.1647003,57.5307368 33.2794118,57.9558824 C31.75,58.7794118 30.9411765,59.2352941 30.8529412,59.3235294 C26.7459734,64.0553842 23.3432665,69.3550877 20.75,75.0588235 C19.0419292,78.3737907 18.08305,82.0235559 17.9411765,85.75 C17.9411765,86.3235294 17.9411765,86.8823529 17.9411765,87.4558824 C18.1191233,87.6286078 18.2549756,87.8399336 18.3382353,88.0735294 C18.5,88.4411765 18.75,88.5735294 19.0588235,88.4411765 C21.9901961,87.3039216 26.3627451,84.3088235 32.1764706,79.4558824 C32.8745494,78.5939889 33.3763913,77.590305 33.6470588,76.5147059 C33.9134505,75.4263689 34.8943012,74.6648388 36.0147059,74.6764706 C35.6617647,74.6764706 36.0147059,74.6764706 37.0588235,74.5441176 C37.5882353,74.4558824 37.9411765,74.5441176 38.1029412,74.8088235 C38.7877722,75.6522381 39.2210035,76.6716058 39.3529794,77.75 C39.3549843,78.177863 39.2751161,78.6021629 39.1176471,79 Z" id="Path" fill="#EC008C"></path>
                    <path d="M66,62.6029412 C63.6619424,63.4993344 61.2759172,64.265219 58.8529412,64.8970588 C55.7058824,65.7794118 53.3235294,66.5441176 51.7058824,67.1911765 C51.1392495,69.6858064 50.8531605,72.2359442 50.8529412,74.7941176 C51.6313744,75.0710463 52.4533117,75.2055451 53.2794118,75.1911765 C54.3152065,75.1568969 55.3472369,75.0487795 56.3676471,74.8676471 C57.3638399,74.6900897 58.3711691,74.5819861 59.3823529,74.5441176 C60.4836721,74.5039938 61.5741142,74.7740566 62.5294118,75.3235294 C62.9563675,75.8195711 63.2722602,76.4012148 63.4558824,77.0294118 C63.4504375,77.3400546 63.267536,77.6201226 62.9852941,77.75 C62.6600327,78.031805 62.3553344,78.3365033 62.0735294,78.6617647 C61.7560304,79.049813 61.2627036,79.249361 60.7647059,79.1911765 C59.0990454,79.4777585 57.4105737,79.6106703 55.7205882,79.5882353 C54.0463398,79.5698915 52.3809371,79.8333732 50.7941176,80.3676471 C50.0824977,82.8691199 49.6678788,85.4456803 49.5588235,88.0441176 C49.5222858,89.0497532 49.6976495,90.0518316 50.0735294,90.9852941 C52.1323529,92.4264706 55.6960784,93.0392157 60.7647059,92.8235294 C61.1853076,92.7968791 61.5821642,92.619338 61.8823529,92.3235294 C62.1476461,92.0566509 62.494371,91.8858759 62.8676471,91.8382353 C64.0882353,91.5735294 64.8970588,92.4852941 65.2794118,94.5882353 C65.4178759,95.256581 65.2913307,95.9525796 64.9264706,96.5294118 C64.5868605,97.0951967 63.9830836,97.449708 63.3235294,97.4705882 C58.6999874,97.7105819 54.0657537,97.2946892 49.5588235,96.2352941 C48.2677174,95.8908662 47.1034718,95.181085 46.2058824,94.1911765 C45.250445,93.2443514 44.6483674,91.9986736 44.5,90.6617647 C44.1113444,87.2413975 44.1113444,83.7880143 44.5,80.3676471 C43.2843137,79.5441176 42.7401961,78.7352941 42.8676471,77.9411765 C42.8676471,77.5441176 43.25,77.1911765 43.8823529,76.8676471 C44.5147059,76.5441176 44.8823529,76.1911765 44.9705882,75.8529412 C45.0588235,75.5147059 45.2205882,73.4264706 45.4852941,69.6176471 C43.0441176,69.1323529 41.8382353,68.1470588 41.8823529,66.8676471 C42.0208342,65.5288697 42.9116961,64.3867392 44.1764706,63.9264706 L48.3676471,62.2205882 C50.3176739,61.2629003 52.3633135,60.513654 54.4705882,59.9852941 C56.6176471,59.4264706 58.75,58.8823529 60.8970588,58.3529412 C61.15621,58.3268955 61.4173194,58.3268955 61.6764706,58.3529412 C63.1502441,58.4488331 64.5739961,58.925106 65.8088235,59.7352941 C65.8088235,59.9117647 65.9558824,60.2352941 66.1323529,60.7205882 C66.2737126,61.052959 66.3629961,61.4051331 66.3970588,61.7647059 C66.4101244,62.0923139 66.2617653,62.4055162 66,62.6029412 Z" id="Path" fill="#EC008C"></path>
                    <path d="M95.2352941,55.6617647 C94.6176471,61.5441176 94.0294118,67.4264706 93.4705882,73.3088235 C92.7951856,79.1188615 92.4221337,84.9600696 92.3529412,90.8088235 C92.3529412,92.2794118 92.3529412,93.8529412 92.4852941,95.3382353 C92.5313725,96.0294572 92.2543588,96.7029807 91.7352941,97.1617647 C91.2429722,97.6640859 90.5709753,97.9498168 89.8676471,97.9558824 C88.5,97.9558824 87.3676471,97.0441176 86.4558824,95.2058824 C82.4689351,86.8537022 78.9871775,78.2696228 76.0294118,69.5 C75.9411765,69.2352941 75.8382353,69.1176471 75.7058824,69.1176471 C75.5735294,69.1176471 75.2058824,69.4117647 75.1176471,70.0294118 C74.3527474,76.5797447 73.9795347,83.1698962 74,89.7647059 C74,93.0882353 74.0882353,96.4754902 74.2647059,99.9264706 C74.414699,100.939852 73.9827252,101.95158 73.1470588,102.544118 C72.8955908,102.825509 72.5390267,102.990486 72.1617647,103 C71.7430785,102.965652 71.339166,102.829332 70.9852941,102.602941 C70.3235294,102.308824 69.9117647,102.102941 69.7352941,102.014706 C69.1617647,101.838235 68.8235294,101.323529 68.6911765,100.441176 C68.5588235,99.5588235 68.6029412,98.9705882 68.5588235,98.2794118 C68.4264706,95.8382353 68.3529412,93.2794118 68.3529412,90.6176471 C68.3529412,85.9901961 68.6176471,80.1960784 69.1470588,73.2352941 C69.9705882,62.6666667 70.4313725,56.8137255 70.5294118,55.6764706 C70.5294118,54.7058824 71.3823529,54.2058824 72.9558824,54.2058824 C73.7107843,54.127451 74.7990196,54.6764706 76.2205882,55.8529412 C78.2623534,60.0539414 80.0068333,64.393028 81.4411765,68.8382353 C82.8813114,73.3218608 84.6762001,77.6836861 86.8088235,81.8823529 C87.4754902,76.0784314 88.504902,67.2941176 89.8970588,55.5294118 C90.0294118,54.6470588 90.6617647,54.2205882 91.7941176,54.2205882 C92.2697047,54.2135655 92.7442103,54.2679359 93.2058824,54.3823529 L94.4558824,54.7058824 C94.8513087,54.884526 95.1399101,55.2384711 95.2352941,55.6617647 Z" id="Path" fill="#EC008C"></path>
                    <path d="M106.058824,47.75 C106.147059,49.0147059 106.191176,50.3382353 106.191176,51.6911765 C106.191176,54.6323529 105.882353,59.1078431 105.264706,65.1176471 C104.661765,71.1176471 104.352941,75.6323529 104.352941,78.6911765 C104.352941,79.8382353 104.352941,80.9411765 104.352941,82.0441176 C104.065243,83.1922024 102.969503,83.9478853 101.794118,83.8088235 C99.9264706,83.7205882 98.8529412,82.9117647 98.7205882,81.3823529 C98.5395982,79.7711009 98.4512176,78.1507904 98.4558824,76.5294118 C98.5752416,72.1010071 98.9385375,67.6825441 99.5441176,63.2941176 C100.14708,58.9056697 100.505477,54.4870802 100.617647,50.0588235 C100.617647,48.9117647 100.617647,47.8088235 100.485294,46.7058824 C100.917005,45.8848329 101.795707,45.3992345 102.720588,45.4705882 C103.59886,45.4821542 104.457638,45.7311488 105.205882,46.1911765 C105.317146,46.0878538 105.454384,46.0166931 105.602941,45.9852941 C105.735294,45.9852941 105.794118,46.2058824 105.794118,46.6470588 C105.743384,46.9488631 105.743384,47.2570192 105.794118,47.5588235 C105.854656,47.6540578 105.949385,47.7224738 106.058824,47.75 L106.058824,47.75 Z" id="Path" fill="#8DC63F"></path>
                    <path d="M133.323529,59.6617647 C132.791146,63.8104438 131.915596,67.9078213 130.705882,71.9117647 C128.745098,78.7745098 127.607843,82.9264706 127.294118,84.3676471 C126.355109,88.7379297 124.478564,92.8522779 121.794118,96.4264706 C120.540485,98.4894196 118.324913,99.774451 115.911765,99.8382353 C113.955882,99.8382353 112.485294,98.5588235 111.5,96.1029412 C109.743733,91.4799802 108.89492,86.5618558 109,81.6176471 C109.067045,77.4951971 109.376402,73.3802544 109.926471,69.2941176 C109.805664,67.9446362 109.781092,66.5882657 109.852941,65.2352941 C109.852941,62.5147059 110.911765,61.1617647 113,61.1617647 C113.512756,61.1632547 114.017456,61.2894298 114.470588,61.5294118 C114.970588,61.7647059 115.470588,62.0147059 115.941176,62.2794118 C115.941176,64.5147059 115.941176,67.7794118 115.75,72.1176471 C115.52451,76.745098 115.416667,80.0882353 115.426471,82.1470588 C115.426471,84.3235294 115.426471,86.3235294 115.617647,88.1029412 C115.891095,89.8774443 116.284147,91.6314402 116.794118,93.3529412 C118.810942,90.9675071 120.286064,88.1728019 121.117647,85.1617647 C121.470588,84.0147059 122.176471,80.9264706 123.220588,75.8529412 C123.821616,72.7423909 124.76868,69.7088262 126.044118,66.8088235 C126.468432,65.690062 126.730883,64.5164614 126.823529,63.3235294 C126.925445,62.1162572 127.192647,60.9286959 127.617647,59.7941176 C128.017203,58.7861636 129.02094,58.1506617 130.102941,58.2205882 C131.352394,58.1179999 132.567484,58.6617389 133.323529,59.6617647 Z" id="Path" fill="#EC008C"></path>
                    <path d="M149.25,55.7205882 C149.25,56.6029412 148.617647,57.3676471 147.352941,58.0147059 C146.99491,58.1617912 146.593326,58.1617912 146.235294,58.0147059 L145.25,57.75 C144.947042,57.770967 144.665659,57.914313 144.470588,58.1470588 C142.146,60.4164524 140.863286,63.5460623 140.926471,66.7941176 C140.913293,68.0008373 141.112403,69.2004751 141.514706,70.3382353 C141.691176,70.8088235 143.352941,74.2058824 146.5,80.5 C148.343179,83.7749266 149.419213,87.4253991 149.647059,91.1764706 C149.642256,93.6052497 149.03597,95.9950279 147.882353,98.1323529 C147.100758,99.2932032 146.102027,100.291934 144.941176,101.073529 C143.974309,101.876163 142.782286,102.359138 141.529412,102.455882 C141.147456,102.455882 140.768733,102.385883 140.411765,102.25 C139.102941,101.691176 138.455882,100.955882 138.455882,100.088235 C138.549252,99.3591406 138.898417,98.686867 139.441176,98.1911765 C139.602941,97.9705882 140.029412,97.8382353 140.676471,97.7941176 C141.223795,97.7981238 141.728059,97.4978316 141.985294,97.0147059 C142.885104,95.1837299 143.357752,93.1724589 143.367647,91.1323529 C143.367647,88.2892157 141.960784,84.1715686 139.147059,78.7794118 C136.333333,73.3872549 134.921569,69.0735294 134.911765,65.8382353 C134.868395,63.3654354 135.407427,60.9171198 136.485294,58.6911765 C137.516795,56.4338397 139.299543,54.6043149 141.529412,53.5147059 C142.442756,53.0553445 143.44834,52.8089765 144.470588,52.7941176 C145.994861,52.67156 147.498776,53.2067611 148.602941,54.2647059 C148.991287,54.653256 149.221823,55.1719632 149.25,55.7205882 Z" id="Path" fill="#EC008C"></path>
                    <polygon id="Path" fill="#010101" points="77.6176471 115.720588 77.6176471 108.367647 78.2058824 108.367647 78.2058824 115.720588"></polygon>
                    <path d="M82.6470588,114 C82.64815,114.502415 82.4883947,114.991987 82.1911765,115.397059 C81.9142448,115.713517 81.5083225,115.88671 81.0882353,115.867647 C80.5852628,115.894718 80.1132114,115.624152 79.8823529,115.176471 C79.3450715,113.800592 79.3450715,112.272938 79.8823529,110.897059 C80.1285982,110.449928 80.6077612,110.181825 81.1176471,110.205882 C81.5774012,110.184024 82.014167,110.408006 82.2647059,110.794118 C82.5628944,111.321667 82.7008729,111.924684 82.6617647,112.529412 L82.6617647,112.985294 L80.1029412,112.985294 L80.1029412,113.294118 C80.0861459,113.796164 80.1711881,114.296413 80.3529412,114.764706 C80.4647446,115.074342 80.7590337,115.280344 81.0882353,115.279412 C81.3643398,115.290022 81.6261109,115.156351 81.7794118,114.926471 C81.9715673,114.629079 82.0689938,114.280395 82.0588235,113.926471 L82.6470588,114 Z M80.1029412,112.529412 L82.0735294,112.529412 L82.0735294,112.411765 C82.0791605,112.372751 82.0791605,112.333131 82.0735294,112.294118 C82.0953394,111.896202 82.0089463,111.49981 81.8235294,111.147059 C81.6774272,110.887639 81.4006159,110.729461 81.1029412,110.735294 C80.7893162,110.727493 80.4985008,110.898561 80.3529412,111.176471 C80.1536779,111.582742 80.0625093,112.03352 80.0882353,112.485294 L80.1029412,112.529412 Z" id="Shape" fill="#010101"></path>
                    <path d="M86.8088235,115.735294 L86.5735294,115.735294 L86.3970588,115.735294 C86.2694279,115.73754 86.1448748,115.696022 86.0441176,115.617647 C85.9313566,115.526905 85.8492155,115.403694 85.8088235,115.264706 C85.6716042,115.446099 85.489001,115.588124 85.2794118,115.676471 C85.0792769,115.778443 84.8569026,115.828982 84.6323529,115.823529 C84.2745355,115.841385 83.9280802,115.695225 83.6911765,115.426471 C83.4515029,115.110414 83.3316574,114.719613 83.3529412,114.323529 C83.333406,113.968567 83.4431149,113.618543 83.6617647,113.338235 C83.9443096,113.031827 84.2978076,112.799528 84.6911765,112.661765 L85.1176471,112.514706 C85.5882353,112.352941 85.8235294,112.147059 85.8235294,111.867647 L85.8235294,111.426471 C85.8473334,111.198564 85.7784336,110.970664 85.6323529,110.794118 C85.4674258,110.648039 85.2483791,110.578585 85.0294118,110.602941 C84.7777665,110.580055 84.5292246,110.671907 84.3529412,110.852941 C84.1810191,111.064135 84.0921199,111.330833 84.1029412,111.602941 L83.5441176,111.602941 L83.5441176,111.5 C83.5227999,111.125765 83.6746174,110.762488 83.9558824,110.514706 C84.2537881,110.249698 84.6465321,110.117014 85.0441176,110.147059 C85.2788965,110.138277 85.5132641,110.173183 85.7352941,110.25 C85.9068267,110.312594 86.0589453,110.419077 86.1764706,110.558824 C86.2536143,110.658916 86.3087397,110.774178 86.3382353,110.897059 C86.3658215,111.082312 86.3658215,111.270629 86.3382353,111.455882 L86.3382353,114.676471 C86.3382353,114.941176 86.3382353,115.117647 86.3382353,115.176471 C86.3382353,115.235294 86.4705882,115.279412 86.6176471,115.279412 L86.6176471,115.279412 L86.8088235,115.735294 Z M85.8088235,112.794118 C85.2809888,112.975659 84.7847963,113.238641 84.3382353,113.573529 C84.1332236,113.774255 84.0212859,114.051434 84.0294118,114.338235 C84.0147731,114.597037 84.0929959,114.852565 84.25,115.058824 C84.3857149,115.236379 84.6003648,115.335448 84.8235294,115.323529 C85.1410343,115.346892 85.4458338,115.194492 85.6176471,114.926471 C85.82127,114.54815 85.9130778,114.119714 85.8823529,113.691176 L85.8088235,112.794118 Z" id="Shape" fill="#010101"></path>
                    <path d="M87.6323529,115.720588 L87.6323529,110.338235 L88.2058824,110.338235 L88.2058824,110.926471 C88.3100529,110.713264 88.4734275,110.534573 88.6764706,110.411765 C88.8946019,110.299846 89.1372532,110.244238 89.3823529,110.25 L89.5,110.25 L89.5,110.838235 C89.1246295,110.809135 88.7549071,110.943092 88.4852941,111.205882 C88.2365743,111.653326 88.1385989,112.168986 88.2058824,112.676471 L88.2058824,115.794118 L87.6323529,115.720588 Z" id="Path" fill="#010101"></path>
                    <path d="M92.7941176,115.720588 L92.7941176,112.088235 C92.8322406,111.711497 92.7714139,111.33133 92.6176471,110.985294 C92.4685516,110.791381 92.2280681,110.690714 91.9852941,110.720588 C91.704802,110.717088 91.43275,110.816491 91.2205882,111 C91.0138575,111.140318 90.8835807,111.368302 90.8676471,111.617647 L90.8676471,115.720588 L90.2647059,115.720588 L90.2647059,110.338235 L90.7941176,110.338235 L90.7941176,110.926471 C90.9476013,110.699954 91.1482686,110.50932 91.3823529,110.367647 C91.6035203,110.248207 91.8516108,110.187451 92.1029412,110.191176 C92.4737106,110.165274 92.8344922,110.318332 93.0735294,110.602941 C93.3108984,110.990733 93.4190329,111.443869 93.3823529,111.897059 L93.3823529,115.720588 L92.7941176,115.720588 Z" id="Path" fill="#010101"></path>
                    <path d="M94.75,109.338235 L94.75,108.411765 L95.3970588,108.411765 L95.3970588,109.338235 L94.75,109.338235 Z M94.75,115.720588 L94.75,110.338235 L95.3382353,110.338235 L95.3382353,115.720588 L94.75,115.720588 Z" id="Shape" fill="#010101"></path>
                    <path d="M99.2941176,115.720588 L99.2941176,112.088235 C99.3322406,111.711497 99.2714139,111.33133 99.1176471,110.985294 C98.9685516,110.791381 98.7280681,110.690714 98.4852941,110.720588 C98.2006557,110.718818 97.9245667,110.817793 97.7058824,111 C97.5063594,111.144866 97.3822441,111.371512 97.3676471,111.617647 L97.3676471,115.720588 L96.7794118,115.720588 L96.7794118,110.338235 L97.3088235,110.338235 L97.3088235,110.926471 C97.4623072,110.699954 97.6629745,110.50932 97.8970588,110.367647 C98.1182262,110.248207 98.3663167,110.187451 98.6176471,110.191176 C98.9884165,110.165274 99.3491981,110.318332 99.5882353,110.602941 C99.8195357,110.992806 99.9224248,111.445518 99.8823529,111.897059 L99.8823529,115.720588 L99.2941176,115.720588 Z" id="Path" fill="#010101"></path>
                    <path d="M103.735294,115.25 C103.613672,115.442561 103.453434,115.607806 103.264706,115.735294 C103.055395,115.842532 102.823417,115.898005 102.588235,115.897059 C102.073685,115.908431 101.596318,115.629967 101.352941,115.176471 C100.807972,113.791891 100.807972,112.252227 101.352941,110.867647 C101.600593,110.423606 102.080718,110.16068 102.588235,110.191176 C102.816168,110.188426 103.040318,110.249557 103.235294,110.367647 C103.438687,110.510111 103.613321,110.689734 103.75,110.897059 L103.75,110.338235 L104.323529,110.338235 L104.323529,115.352941 C104.376705,115.963394 104.237889,116.575212 103.926471,117.102941 C103.572393,117.461465 103.074762,117.639963 102.573529,117.588235 C102.202887,117.602768 101.840443,117.476701 101.558824,117.235294 C101.292831,117.012635 101.137111,116.685088 101.132353,116.338235 L101.705882,116.338235 C101.722677,116.556541 101.835887,116.756006 102.014706,116.882353 C102.216373,117.023422 102.460387,117.090915 102.705882,117.073529 C103.011393,117.091968 103.305221,116.95337 103.485294,116.705882 C103.682049,116.394733 103.774752,116.029071 103.75,115.661765 L103.735294,115.25 Z M103.735294,113.044118 C103.768686,112.425907 103.683836,111.807002 103.485294,111.220588 C103.338853,110.883816 102.999134,110.672956 102.632353,110.691176 C102.274157,110.681021 101.949119,110.899683 101.823529,111.235294 C101.612002,111.808549 101.521863,112.419494 101.558824,113.029412 C101.523906,113.634434 101.614015,114.240163 101.823529,114.808824 C101.95869,115.151978 102.293022,115.374866 102.661765,115.367647 C103.020306,115.381972 103.349473,115.170365 103.485294,114.838235 C103.684396,114.262118 103.769312,113.652719 103.735294,113.044118 Z" id="Shape" fill="#010101"></path>
                    <path d="M107.705882,113.044118 C107.658932,112.306622 107.811319,111.570083 108.147059,110.911765 C108.423882,110.502149 108.888001,110.259039 109.382353,110.264706 C109.909026,110.251201 110.402684,110.520469 110.676471,110.970588 C110.999228,111.633008 111.146094,112.367339 111.102941,113.102941 C111.153947,113.83434 111.00661,114.565948 110.676471,115.220588 C110.402684,115.670707 109.909026,115.939976 109.382353,115.926471 C108.850491,115.945338 108.349937,115.675376 108.073529,115.220588 C107.760081,114.540556 107.633193,113.789376 107.705882,113.044118 L107.705882,113.044118 Z M108.323529,113.044118 C108.296787,113.630792 108.391925,114.216642 108.602941,114.764706 C108.731994,115.116671 109.066301,115.351273 109.441176,115.352941 C109.81341,115.343129 110.143599,115.111418 110.279412,114.764706 C110.651681,113.647851 110.651681,112.440384 110.279412,111.323529 C110.146861,110.975765 109.813345,110.745964 109.441176,110.745964 C109.069008,110.745964 108.735492,110.975765 108.602941,111.323529 C108.391925,111.871593 108.296787,112.457443 108.323529,113.044118 Z" id="Shape" fill="#010101"></path>
                    <path d="M114.779412,115.720588 L114.779412,112.088235 C114.817535,111.711497 114.756708,111.33133 114.602941,110.985294 C114.447369,110.791332 114.202793,110.691278 113.955882,110.720588 C113.67539,110.717088 113.403338,110.816491 113.191176,111 C112.984446,111.140318 112.854169,111.368302 112.838235,111.617647 L112.838235,115.720588 L112.323529,115.720588 L112.323529,110.338235 L112.852941,110.338235 L112.852941,110.926471 C113.010307,110.703277 113.210212,110.513368 113.441176,110.367647 C113.666703,110.245737 113.92018,110.184903 114.176471,110.191176 C114.543465,110.162645 114.900975,110.316649 115.132353,110.602941 C115.369722,110.990733 115.477856,111.443869 115.441176,111.897059 L115.441176,115.720588 L114.779412,115.720588 Z" id="Path" fill="#010101"></path>
                    <polygon id="Path" fill="#010101" points="116.441176 113.294118 116.441176 112.779412 119.058824 112.779412 119.058824 113.294118"></polygon>
                    <path d="M123.191176,108.411765 L123.191176,115.764706 L122.617647,115.764706 L122.617647,115.205882 C122.485238,115.420656 122.310033,115.605873 122.102941,115.75 C121.90391,115.856494 121.681613,115.912068 121.455882,115.911765 C120.947551,115.945921 120.465594,115.681993 120.220588,115.235294 C119.910425,114.564183 119.773891,113.825886 119.823529,113.088235 C119.780985,112.344754 119.922414,111.602252 120.235294,110.926471 C120.482488,110.471299 120.967859,110.197207 121.485294,110.220588 C121.711489,110.216353 121.934762,110.272171 122.132353,110.382353 C122.331837,110.507736 122.498273,110.679216 122.617647,110.882353 L122.617647,108.455882 L123.191176,108.411765 Z M122.617647,113.029412 C122.651338,112.416007 122.566456,111.801859 122.367647,111.220588 C122.231826,110.888459 121.902659,110.676852 121.544118,110.691176 C121.171656,110.686253 120.836223,110.91576 120.705882,111.264706 C120.511488,111.836867 120.426674,112.440541 120.455882,113.044118 C120.416741,113.65292 120.501797,114.263325 120.705882,114.838235 C120.836909,115.176154 121.167179,115.394369 121.529412,115.382353 C121.893333,115.387823 122.22449,115.172861 122.367647,114.838235 C122.566456,114.256965 122.651338,113.642817 122.617647,113.029412 Z" id="Shape" fill="#010101"></path>
                    <path d="M127.455882,114 C127.450079,114.501302 127.290994,114.988819 127,115.397059 C126.712479,115.707376 126.305247,115.878842 125.882353,115.867647 C125.384587,115.888836 124.919791,115.619139 124.691176,115.176471 C124.383438,114.509803 124.24696,113.776869 124.294118,113.044118 C124.243841,112.304893 124.385693,111.565235 124.705882,110.897059 C124.952128,110.449928 125.431291,110.181825 125.941176,110.205882 C126.400931,110.184024 126.837696,110.408006 127.088235,110.794118 C127.386424,111.321667 127.524402,111.924684 127.485294,112.529412 L127.485294,112.985294 L124.911765,112.985294 L124.911765,113.294118 C124.894969,113.796164 124.980012,114.296413 125.161765,114.764706 C125.268081,115.072043 125.557148,115.278519 125.882353,115.279412 C126.162973,115.292329 126.430198,115.158717 126.588235,114.926471 C126.780391,114.629079 126.877817,114.280395 126.867647,113.926471 L127.455882,114 Z M124.911765,112.529412 L126.882353,112.529412 L126.882353,112.411765 C126.882353,112.411765 126.882353,112.323529 126.882353,112.294118 C126.906787,111.894221 126.814845,111.49581 126.617647,111.147059 C126.48157,110.885047 126.206818,110.724776 125.911765,110.735294 C125.59814,110.727493 125.307324,110.898561 125.161765,111.176471 C124.962501,111.582742 124.871333,112.03352 124.897059,112.485294 L124.911765,112.529412 Z" id="Shape" fill="#010101"></path>
                    <path d="M128.5,115.720588 L128.5,110.338235 L129.029412,110.338235 L129.029412,110.926471 C129.184522,110.699958 129.391161,110.513478 129.632353,110.382353 C129.856475,110.255323 130.110035,110.189397 130.367647,110.191176 C130.622892,110.187231 130.873602,110.258862 131.088235,110.397059 C131.288621,110.54056 131.442112,110.740098 131.529412,110.970588 C131.68377,110.731803 131.88983,110.530769 132.132353,110.382353 C132.377968,110.277646 132.646187,110.23716 132.911765,110.264706 C133.278331,110.238721 133.634712,110.392239 133.867647,110.676471 C134.090222,111.069763 134.192487,111.519728 134.161765,111.970588 L134.161765,115.794118 L133.588235,115.794118 L133.588235,112.161765 C133.626358,111.785026 133.565532,111.40486 133.411765,111.058824 C133.253018,110.870327 133.008951,110.776029 132.764706,110.808824 C132.482836,110.808793 132.208846,110.901846 131.985294,111.073529 C131.786866,111.201395 131.657078,111.412299 131.632353,111.647059 L131.632353,115.794118 L131.073529,115.794118 L131.073529,112.161765 C131.114104,111.778714 131.047939,111.391904 130.882353,111.044118 C130.717537,110.865469 130.476365,110.777771 130.235294,110.808824 C129.954802,110.805323 129.68275,110.904727 129.470588,111.088235 C129.264908,111.215869 129.133474,111.434925 129.117647,111.676471 L129.117647,115.794118 L128.5,115.720588 Z" id="Path" fill="#010101"></path>
                    <path d="M138.455882,115.735294 L138.220588,115.735294 L138.044118,115.735294 C137.916112,115.740068 137.790717,115.69827 137.691176,115.617647 C137.578415,115.526905 137.496274,115.403694 137.455882,115.264706 C137.318663,115.446099 137.13606,115.588124 136.926471,115.676471 C136.721719,115.78025 136.49414,115.830823 136.264706,115.823529 C135.910754,115.843503 135.567877,115.696555 135.338235,115.426471 C135.098562,115.110414 134.978716,114.719613 135,114.323529 C134.980465,113.968567 135.090174,113.618543 135.308824,113.338235 C135.591368,113.031827 135.944866,112.799528 136.338235,112.661765 L136.764706,112.514706 C137.235294,112.352941 137.470588,112.147059 137.470588,111.867647 L137.470588,111.426471 C137.494392,111.198564 137.425492,110.970664 137.279412,110.794118 C137.114485,110.648039 136.895438,110.578585 136.676471,110.602941 C136.42454,110.577861 136.175074,110.670055 136,110.852941 C135.821584,111.060509 135.731808,111.329837 135.75,111.602941 L135.191176,111.602941 L135.191176,111.5 C135.169859,111.125765 135.321676,110.762488 135.602941,110.514706 C135.900847,110.249698 136.293591,110.117014 136.691176,110.147059 C136.925955,110.138277 137.160323,110.173183 137.382353,110.25 C137.553886,110.312594 137.706004,110.419077 137.823529,110.558824 C137.900673,110.658916 137.955799,110.774178 137.985294,110.897059 C138.005462,111.082787 138.005462,111.270154 137.985294,111.455882 L137.985294,114.676471 C137.948527,114.84111 137.948527,115.011832 137.985294,115.176471 C138.060747,115.256592 138.170464,115.294992 138.279412,115.279412 L138.279412,115.279412 L138.455882,115.735294 Z M137.455882,112.794118 C136.899691,112.973209 136.374047,113.236031 135.897059,113.573529 C135.701779,113.779525 135.59603,114.054474 135.602941,114.338235 C135.590085,114.594579 135.662481,114.847965 135.808824,115.058824 C135.947653,115.232447 136.16016,115.330527 136.382353,115.323529 C136.703696,115.345998 137.012415,115.194445 137.191176,114.926471 C137.394799,114.54815 137.486607,114.119714 137.455882,113.691176 L137.455882,112.794118 Z" id="Shape" fill="#010101"></path>
                    <path d="M141.808824,115.720588 L141.808824,112.088235 C141.846946,111.711497 141.78612,111.33133 141.632353,110.985294 C141.476781,110.791332 141.232204,110.691278 140.985294,110.720588 C140.704802,110.717088 140.43275,110.816491 140.220588,111 C140.013858,111.140318 139.883581,111.368302 139.867647,111.617647 L139.867647,115.720588 L139.279412,115.720588 L139.279412,110.338235 L139.808824,110.338235 L139.808824,110.926471 C139.966189,110.703277 140.166094,110.513368 140.397059,110.367647 C140.622585,110.245737 140.876063,110.184903 141.132353,110.191176 C141.499347,110.162645 141.856858,110.316649 142.088235,110.602941 C142.325604,110.990733 142.433739,111.443869 142.397059,111.897059 L142.397059,115.720588 L141.808824,115.720588 Z" id="Path" fill="#010101"></path>
                    <path d="M146.808824,108.411765 L146.808824,115.764706 L146.25,115.764706 L146.25,115.205882 C146.11664,115.424718 145.935689,115.610696 145.720588,115.75 C145.521557,115.856494 145.29926,115.912068 145.073529,115.911765 C144.566012,115.942261 144.085887,115.679335 143.838235,115.235294 C143.539519,114.56091 143.408339,113.824283 143.455882,113.088235 C143.40833,112.344434 143.549992,111.600709 143.867647,110.926471 C144.107181,110.471048 144.588967,110.195742 145.102941,110.220588 C145.33357,110.218459 145.561067,110.27407 145.764706,110.382353 C145.958351,110.514805 146.123386,110.684841 146.25,110.882353 L146.25,108.455882 L146.808824,108.411765 Z M146.25,113.029412 C146.289022,112.414602 146.198851,111.798435 145.985294,111.220588 C145.849473,110.888459 145.520306,110.676852 145.161765,110.691176 C144.793324,110.688101 144.463122,110.918063 144.338235,111.264706 C144.128721,111.833367 144.038612,112.439095 144.073529,113.044118 C144.042095,113.65261 144.126942,114.261517 144.323529,114.838235 C144.458083,115.173293 144.786074,115.390002 145.147059,115.382353 C145.51098,115.387823 145.842137,115.172861 145.985294,114.838235 C146.198851,114.260389 146.289022,113.644221 146.25,113.029412 Z" id="Shape" fill="#010101"></path>
                    <circle id="Oval" fill="#8DC63F" cx="103.294118" cy="28.9705882" r="12.0147059"></circle>
                </g>
            </g>
        </g>
    </g>
</svg>