<svg xmlns="http://www.w3.org/2000/svg" width="189.984" height="142.685" viewBox="0 0 189.984 142.685">
  <g id="Group_172" data-name="Group 172" transform="translate(-160 -60)">
    <path id="Path_1" data-name="Path 1" d="M32.6,2.351a4.142,4.142,0,0,1-.784,2.435,3.414,3.414,0,0,1-2.043,1.371,2.267,2.267,0,0,1-1.4-.308A2.547,2.547,0,0,0,27,5.6a22.387,22.387,0,0,0-6.912,1.959c-3.414,1.511-5.6,2.435-6.688,2.8-.168,2.8-.252,5.6-.252,8.535s0,5.793.252,8.7a4.477,4.477,0,0,0,1.091.084,17.49,17.49,0,0,0,4.645-1.091,12.313,12.313,0,0,1,4.7-.728c.923,0,1.343.476,1.259,1.147a5.233,5.233,0,0,1-3.134,4c-1.735.588-3.442,1.175-5.177,1.819a21.3,21.3,0,0,0-3.274.644v3.022c0,1.119,0,2.8.168,4.869a45.969,45.969,0,0,1,0,4.869,20.037,20.037,0,0,1-1.707,9.095,1.2,1.2,0,0,1-1.119.756,2.351,2.351,0,0,1-1.567-.756,3.5,3.5,0,0,1-1.091-1.6,17.63,17.63,0,0,1-.616-4.813,52.476,52.476,0,0,1,.448-6.492,26.277,26.277,0,0,0,0-6.464,1.875,1.875,0,0,0-1.259-1.4,6.576,6.576,0,0,1-1.931-.979,7.724,7.724,0,0,1,0-2.8,1.287,1.287,0,0,0,1.287-.532,1.4,1.4,0,0,1,1.035-.672h.5a38.982,38.982,0,0,0,.756-7.192c0-.951-.168-4.393-.5-10.382a5.037,5.037,0,0,1-2.351-1.567A3.554,3.554,0,0,1,4.39,8c0-1.119.756-1.763,2.267-1.987A80.9,80.9,0,0,0,18.046,2.6,40.661,40.661,0,0,1,29.772,0a3.3,3.3,0,0,1,1.987.644,2.015,2.015,0,0,1,.84,1.707Z" transform="translate(167.895 60)" fill="#92278f"/>
    <path id="Path_2" data-name="Path 2" d="M35.72,6.812a63.578,63.578,0,0,1-6.856,2.351,58.766,58.766,0,0,0-6.856,2.323,36.379,36.379,0,0,0-.812,7.752,5.933,5.933,0,0,0,2.323.392,19.14,19.14,0,0,0,2.938-.308,20.4,20.4,0,0,1,2.966-.336,5.6,5.6,0,0,1,3.022.784,5.065,5.065,0,0,1,.9,1.735.923.923,0,0,1-.448.756,5.261,5.261,0,0,0-.9.923,1.4,1.4,0,0,1-1.259.532,23.758,23.758,0,0,1-4.841.392,13.684,13.684,0,0,0-4.7.812,34.7,34.7,0,0,0-1.2,7.808,7.668,7.668,0,0,0,.5,3.078,16.287,16.287,0,0,0,10.242,1.875,1.735,1.735,0,0,0,1.091-.5,1.539,1.539,0,0,1,.923-.5c1.175-.252,1.959.672,2.351,2.8a2.8,2.8,0,0,1-.364,1.959,1.847,1.847,0,0,1-1.539.979A44.242,44.242,0,0,1,19.993,41.12a6.52,6.52,0,0,1-3.33-2.043,6.1,6.1,0,0,1-1.623-3.61,46.09,46.09,0,0,1,0-10.41c-1.175-.84-1.707-1.679-1.6-2.463s.392-.784.979-1.119.951-.672,1.035-1.035.252-2.463.5-6.352c-2.351-.476-3.5-1.427-3.442-2.8A3.526,3.526,0,0,1,14.7,8.211l4.03-1.735a29.719,29.719,0,0,1,5.849-2.267c2.071-.588,4.114-1.147,6.184-1.679h.756a7.752,7.752,0,0,1,3.974,1.4A9.683,9.683,0,0,0,35.8,4.937,3.666,3.666,0,0,1,36.056,6,1.007,1.007,0,0,1,35.72,6.812Z" transform="translate(182.515 64.55)" fill="#92278f"/>
    <path id="Path_3" data-name="Path 3" d="M39.661,33.9s-2.547,1.9-7.388,5.6A44.047,44.047,0,0,1,24.8,44.258a1.511,1.511,0,0,1-.756.2,2.071,2.071,0,0,1-1.651-1.2L21.22,41.572c0-3.918.14-9.375.672-16.4s.951-12.817.951-16.119a52.893,52.893,0,0,0-.252-6.436,2.8,2.8,0,0,1,2.071-.868c1.6,0,2.519.644,2.8,1.875,0,3.666,0,9.123-.448,16.4s-.588,12.761-.5,16.427a30.782,30.782,0,0,0,4.617-2.8,39.179,39.179,0,0,1,4.449-2.994l1.119-.14a8.2,8.2,0,0,1,1.147,0,1.959,1.959,0,0,1,1.847,1.091,2.323,2.323,0,0,1-.028,2.295Z" transform="translate(198.162 63.147)" fill="#92278f"/>
    <path id="Path_4" data-name="Path 4" d="M46.782,33.9s-2.519,1.9-7.36,5.6a44.047,44.047,0,0,1-7.472,4.757,1.511,1.511,0,0,1-.756.2,2.071,2.071,0,0,1-1.651-1.2l-1.2-1.679c0-3.918.168-9.375.7-16.4s.951-12.817.951-16.119a52.891,52.891,0,0,0-.252-6.436A2.8,2.8,0,0,1,31.81,1.75c1.6,0,2.519.644,2.8,1.875q.21,5.5-.448,16.4c-.448,7.276-.588,12.761-.5,16.427a30.782,30.782,0,0,0,4.617-2.8,39.18,39.18,0,0,1,4.449-2.994l1.119-.14a8.2,8.2,0,0,1,1.147,0,1.9,1.9,0,0,1,1.819,1.091,2.239,2.239,0,0,1-.028,2.295Z" transform="translate(210.967 63.147)" fill="#92278f"/>
    <path id="Path_5" data-name="Path 5" d="M72.758,4.709a2.351,2.351,0,0,1,1.455,2.155,6.408,6.408,0,0,1-.756,2.519,23.316,23.316,0,0,0-1.007,2.407,104.579,104.579,0,0,0-2.8,15.055,110.257,110.257,0,0,1-2.8,14.832c-.252.9-.979,1.315-2.155,1.315a3.47,3.47,0,0,1-1.455-.308,7.668,7.668,0,0,1-3.33-4.953c0-.224-.448-2.463-1.2-6.688-.364-2.239-.728-4.617-1.063-7.164a52.5,52.5,0,0,0-2.323,9.291,17.854,17.854,0,0,1-2.966,8.171c-.336.364-.923.392-1.763.14a3.022,3.022,0,0,1-2.519-2.407l-.756-3.75A101.135,101.135,0,0,1,45.53,20.352a93.271,93.271,0,0,0-1.9-14.8,2.239,2.239,0,0,1,.2-1.539,1.343,1.343,0,0,1,.951-.84,4.169,4.169,0,0,1,1.007,0,2.994,2.994,0,0,1,2.8,1.679q1.007,5.6,2.379,21.856a25.52,25.52,0,0,0,1.2-4.366,25.355,25.355,0,0,1,1.287-4.505c.364-1.679.728-3.386,1.063-5.065A3.5,3.5,0,0,1,57.675,9.69a5.065,5.065,0,0,1,1.371.2c0,.28.224.42.56.476s.532,0,.588.2a34.476,34.476,0,0,1,2.071,8.759c.7,5.149,1.147,8.143,1.315,8.955.672-3.974,1.371-7.919,2.071-11.837A46.62,46.62,0,0,1,69.065,5.24a1.819,1.819,0,0,1,1.819-.867,3.89,3.89,0,0,1,1.875.336Z" transform="translate(238.356 65.645)" fill="#92278f"/>
    <path id="Path_6" data-name="Path 6" d="M33.787,44.857a40.549,40.549,0,0,0-2.211,11.026c-.2,3.778-.392,7.584-.56,11.362,0,1.119-.784,1.679-2.071,1.679a2.8,2.8,0,0,1-1.063-.224,4.421,4.421,0,0,1-2.8-4.477,23.675,23.675,0,0,1,.252-2.8,23.45,23.45,0,0,0,.252-2.8c.168-1.287.364-3.246.616-5.821A28.152,28.152,0,0,1,16.409,59.3a4.757,4.757,0,0,1-1.511.252,6.8,6.8,0,0,1-5.373-3.47,8.031,8.031,0,0,1-1.371-4.813,20.652,20.652,0,0,1,1.063-5.933A75.277,75.277,0,0,1,19.851,24.149C22.37,20.707,24.525,19,26.428,19s2.631.672,2.8,1.987a2.127,2.127,0,0,1-1.063,2.407,22.612,22.612,0,0,0-2.323,1.427,66.965,66.965,0,0,0-9.71,16.035,27.368,27.368,0,0,0-2.8,10.886c0,.588,0,1.147,0,1.735a1.763,1.763,0,0,1,.364.644c.168.364.42.5.7.364a56.444,56.444,0,0,0,12.537-9.151,7.947,7.947,0,0,0,1.427-3.078,2.323,2.323,0,0,1,2.267-1.875c-.336,0,0,0,1.007-.14.5,0,.84,0,1.007.28a6.017,6.017,0,0,1,1.2,3.078A3.61,3.61,0,0,1,33.787,44.857Z" transform="translate(174.653 94.17)" fill="#ec008c"/>
    <path id="Path_7" data-name="Path 7" d="M41.458,25.04A63.579,63.579,0,0,1,34.6,27.39a58.768,58.768,0,0,0-6.856,2.323,36.379,36.379,0,0,0-.812,7.752,5.933,5.933,0,0,0,2.323.392,19.727,19.727,0,0,0,2.8-.336,23.925,23.925,0,0,1,2.966-.308A5.6,5.6,0,0,1,38.044,38a5.065,5.065,0,0,1,.9,1.735.923.923,0,0,1-.448.756,5.26,5.26,0,0,0-.9.923,1.4,1.4,0,0,1-1.259.532,23.759,23.759,0,0,1-4.841.392,13.8,13.8,0,0,0-4.7.812,34.7,34.7,0,0,0-1.2,7.808,7.668,7.668,0,0,0,.5,3.078,16.287,16.287,0,0,0,10.242,1.875,1.735,1.735,0,0,0,1.091-.5,1.539,1.539,0,0,1,.923-.5c1.175-.252,1.959.672,2.351,2.8a2.8,2.8,0,0,1-.364,1.959,1.847,1.847,0,0,1-1.539.979,44.243,44.243,0,0,1-13.208-1.287,6.52,6.52,0,0,1-3.218-2.071,6.1,6.1,0,0,1-1.623-3.61,46.091,46.091,0,0,1,0-10.41c-1.175-.84-1.707-1.679-1.6-2.463s.392-.784.979-1.119S21.086,39,21.17,38.64s.252-2.463.5-6.352c-2.351-.476-3.5-1.427-3.442-2.8a3.526,3.526,0,0,1,2.183-3.078l4.03-1.735a30.027,30.027,0,0,1,5.877-2.267c2.043-.588,4.086-1.147,6.156-1.679h.756a7.752,7.752,0,0,1,3.974,1.4,9.682,9.682,0,0,0,.308,1.007,3.665,3.665,0,0,1,.252,1.063,1.007,1.007,0,0,1-.308.84Z" transform="translate(192.784 97.281)" fill="#ec008c"/>
    <path id="Path_8" data-name="Path 8" d="M53.015,20.6q-.868,8.955-1.707,17.966c-.7,7.136-1.063,13.069-1.063,17.854V61.04a2.631,2.631,0,0,1-2.519,2.8c-1.315,0-2.407-.923-3.274-2.8a247.1,247.1,0,0,1-9.794-26.333.387.387,0,0,0-.308-.42c-.112,0-.476.336-.56.951A177.077,177.077,0,0,0,32.7,55.359c0,3.386,0,6.828.252,10.354a2.8,2.8,0,0,1-1.063,2.8,1.315,1.315,0,0,1-.951.476,2.8,2.8,0,0,1-1.119-.392l-1.2-.616q-.784-.252-1.007-1.6V64.174c-.14-2.491-.2-5.093-.2-7.808q0-7.08.756-17.714c.812-10.774,1.231-16.79,1.315-17.91s.812-1.483,2.323-1.483c.728,0,1.763.476,3.162,1.679a109.418,109.418,0,0,1,4.981,13.236A95.147,95.147,0,0,0,45.1,47.468q.979-8.9,2.966-26.865c0-.9.728-1.343,1.819-1.343a6.52,6.52,0,0,1,1.315.2l1.2.336A1.4,1.4,0,0,1,53.015,20.6Z" transform="translate(209.294 94.637)" fill="#ec008c"/>
    <path id="Path_9" data-name="Path 9" d="M44.946,18.41v4c0,3.022-.308,7.612-.9,13.712s-.868,10.718-.868,13.824v3.414a2.3,2.3,0,0,1-2.463,1.791c-1.791,0-2.8-.9-2.8-2.463a46.538,46.538,0,0,1-.252-4.953,127.861,127.861,0,0,1,1.035-13.572,134.654,134.654,0,0,0,1.035-13.488V17.263A2.211,2.211,0,0,1,41.9,16a4.617,4.617,0,0,1,2.379.728.7.7,0,0,1,.392-.2,1.177,1.177,0,0,1,.168.672,4.421,4.421,0,0,0,0,.923A.56.56,0,0,0,44.946,18.41Z" transform="translate(227.746 88.771)" fill="#8dc63f"/>
    <path id="Path_10" data-name="Path 10" d="M64.616,22.145A84.288,84.288,0,0,1,62.1,34.654c-1.9,7-2.994,11.194-3.274,12.7a32.35,32.35,0,0,1-5.289,12.285,6.688,6.688,0,0,1-5.6,3.47c-1.9,0-3.3-1.315-4.226-3.806a41.3,41.3,0,0,1-2.407-14.776A114.931,114.931,0,0,1,42.2,32a31.708,31.708,0,0,1,0-4.17c0-2.8,1.007-4.142,3.022-4.142a2.8,2.8,0,0,1,1.343.392l1.427.756c0,2.267,0,5.6-.2,10.018s-.308,8.143-.308,10.242,0,4.254.168,6.073a43.319,43.319,0,0,0,1.147,5.345,22.387,22.387,0,0,0,4.142-8.4q.5-1.707,2.015-9.487a45.222,45.222,0,0,1,2.8-9.207,14.607,14.607,0,0,0,.756-3.554,13.32,13.32,0,0,1,.756-3.61,2.407,2.407,0,0,1,2.379-1.6A3.47,3.47,0,0,1,64.616,22.145Z" transform="translate(234.268 97.154)" fill="#ec008c"/>
    <path id="Path_11" data-name="Path 11" d="M63.922,21.6c0,.9-.616,1.679-1.819,2.351a1.287,1.287,0,0,1-1.063,0l-.951-.252a1.007,1.007,0,0,0-.756.392,12.369,12.369,0,0,0-3.386,8.815,10.858,10.858,0,0,0,.56,3.61c.168.5,1.763,3.946,4.785,10.354a26.7,26.7,0,0,1,3.022,10.886,15.645,15.645,0,0,1-1.708,7.11,10.382,10.382,0,0,1-2.8,2.8,5.765,5.765,0,0,1-3.274,1.4,3.275,3.275,0,0,1-1.063-.2c-1.259-.588-1.9-1.315-1.9-2.211a3.218,3.218,0,0,1,.951-1.931,1.679,1.679,0,0,1,1.2-.42,1.343,1.343,0,0,0,1.259-.784A14.775,14.775,0,0,0,58.3,57.507,32.237,32.237,0,0,0,54.24,44.914a32.266,32.266,0,0,1-4.058-13.208,16.791,16.791,0,0,1,1.511-7.276,10.578,10.578,0,0,1,4.813-4.953,6.324,6.324,0,0,1,2.8-.728,4.953,4.953,0,0,1,3.974,1.539A2.211,2.211,0,0,1,63.922,21.6Z" transform="translate(250.242 93.693)" fill="#ec008c"/>
    <ellipse id="Ellipse_1" data-name="Ellipse 1" cx="11.529" cy="12.229" rx="11.529" ry="12.229" transform="translate(258.532 75.811)" fill="#8dc63f"/>
    <path id="Path_12" data-name="Path 12" d="M0,64.542V40H1.623V64.57Z" transform="translate(160 131.936)" fill="#010101"/>
    <path id="Path_13" data-name="Path 13" d="M10.5,54.837a9.011,9.011,0,0,1-1.231,4.7,3.47,3.47,0,0,1-3.05,1.6,3.47,3.47,0,0,1-3.3-2.323,18.33,18.33,0,0,1-1.063-7.164,17.8,17.8,0,0,1,1.091-7.136A3.61,3.61,0,0,1,6.361,42.16,3.386,3.386,0,0,1,9.5,44.147a12.369,12.369,0,0,1,1.2,5.765v1.539H3.535v1.007a15.363,15.363,0,0,0,.672,5.233c.448,1.147,1.119,1.735,2.015,1.735a2.155,2.155,0,0,0,1.931-1.2,6.8,6.8,0,0,0,.756-3.386ZM3.535,49.828h5.4a2.8,2.8,0,0,1,0-.42v-.364a9.067,9.067,0,0,0-.672-3.89,2.155,2.155,0,0,0-1.959-1.371,2.239,2.239,0,0,0-2.071,1.511,10.522,10.522,0,0,0-.728,4.366Z" transform="translate(163.293 135.821)" fill="#010101"/>
    <path id="Path_14" data-name="Path 14" d="M15,60.734a2.8,2.8,0,0,1-.616,0h-.476a1.455,1.455,0,0,1-1.007-.392,2.574,2.574,0,0,1-.7-1.007,4.309,4.309,0,0,1-1.455,1.4,3.61,3.61,0,0,1-1.819.476A2.938,2.938,0,0,1,6.6,59.867a6.436,6.436,0,0,1-.923-3.694,5.933,5.933,0,0,1,.728-3.246,6.632,6.632,0,0,1,2.8-2.239l1.175-.56c1.315-.532,1.959-1.259,1.959-2.183V46.434a3.526,3.526,0,0,0-.5-2.1,1.987,1.987,0,0,0-1.679-.672,2.267,2.267,0,0,0-1.875.868,4.393,4.393,0,0,0-.672,2.547H6.1v-.392a4.645,4.645,0,0,1,1.119-3.3,3.834,3.834,0,0,1,2.994-1.231,4.673,4.673,0,0,1,1.875.336,2.8,2.8,0,0,1,1.231,1.063,3.358,3.358,0,0,1,.448,1.119,10.578,10.578,0,0,1,0,1.9V57.32a4.142,4.142,0,0,0,.2,1.707.9.9,0,0,0,.784.308H15Zm-2.8-9.766A13.993,13.993,0,0,0,7.972,53.6a3.862,3.862,0,0,0-.84,2.575,4.309,4.309,0,0,0,.588,2.407,1.791,1.791,0,0,0,1.567.9A2.351,2.351,0,0,0,11.5,58.131a9.179,9.179,0,0,0,.7-4.17Z" transform="translate(170.189 135.8)" fill="#010101"/>
    <path id="Path_15" data-name="Path 15" d="M9.83,60.6V42.5H11.4v1.959a3.778,3.778,0,0,1,1.287-1.707,3.358,3.358,0,0,1,1.959-.56h.28V44.15a3.218,3.218,0,0,0-2.8,1.259,9.6,9.6,0,0,0-.728,4.645V60.549Z" transform="translate(177.678 135.874)" fill="#010101"/>
    <path id="Path_16" data-name="Path 16" d="M19.36,60.736V48.507a8.759,8.759,0,0,0-.5-3.722,1.763,1.763,0,0,0-1.735-.868,2.8,2.8,0,0,0-2.127.951,2.8,2.8,0,0,0-.951,2.043V60.736H12.42V42.631h1.455V44.59A5.6,5.6,0,0,1,15.5,42.715a3.526,3.526,0,0,1,1.987-.588A2.8,2.8,0,0,1,20.144,43.5a8.927,8.927,0,0,1,.812,4.366V60.708Z" transform="translate(182.336 135.742)" fill="#010101"/>
    <path id="Path_17" data-name="Path 17" d="M16.81,43.106V40H18.6v3.134Zm0,21.436V46.436h1.651V64.542Z" transform="translate(190.231 131.936)" fill="#010101"/>
    <path id="Path_18" data-name="Path 18" d="M25.712,60.735V48.506a9.4,9.4,0,0,0-.476-3.722,1.847,1.847,0,0,0-1.763-.868,3.221,3.221,0,0,0-3.05,2.994V60.735H18.8V42.629h1.455v1.959a5.205,5.205,0,0,1,1.623-1.875,3.386,3.386,0,0,1,1.987-.588A2.8,2.8,0,0,1,26.5,43.5a8.563,8.563,0,0,1,.84,4.366V60.707Z" transform="translate(193.81 135.744)" fill="#010101"/>
    <path id="Path_19" data-name="Path 19" d="M30.579,59.089a4.141,4.141,0,0,1-1.315,1.623,3.106,3.106,0,0,1-1.819.56,3.638,3.638,0,0,1-3.414-2.379,17.8,17.8,0,0,1-1.119-7.248A17.826,17.826,0,0,1,23.975,44.4a3.526,3.526,0,0,1,3.386-2.267,2.8,2.8,0,0,1,1.763.588,5.121,5.121,0,0,1,1.455,1.791V42.635h1.539v16.79a11.473,11.473,0,0,1-1.063,5.821A4.086,4.086,0,0,1,27.333,66.9a3.694,3.694,0,0,1-2.8-1.147,4.673,4.673,0,0,1-1.2-3.05H24.9a2.538,2.538,0,0,0,2.77,2.463,2.323,2.323,0,0,0,2.127-1.2,6.688,6.688,0,0,0,.756-3.5Zm0-7.388a18.274,18.274,0,0,0-.728-6.1,2.323,2.323,0,0,0-4.561,0,19,19,0,0,0-.7,6.017,18.106,18.106,0,0,0,.728,5.961c.5,1.259,1.259,1.9,2.295,1.9A2.379,2.379,0,0,0,29.88,57.69a18.749,18.749,0,0,0,.7-5.989Z" transform="translate(201.144 135.766)" fill="#010101"/>
    <path id="Path_20" data-name="Path 20" d="M29.527,51.676a16.37,16.37,0,0,1,1.343-7.136,3.834,3.834,0,0,1,7.108,0A16.79,16.79,0,0,1,39.154,51.7a16.79,16.79,0,0,1-1.175,7.136,3.89,3.89,0,0,1-7.136,0,16.79,16.79,0,0,1-1.315-7.164Zm1.707,0a17.014,17.014,0,0,0,.756,5.793c.532,1.287,1.287,1.959,2.295,1.959s1.763-.672,2.295-1.987a16.623,16.623,0,0,0,.784-5.765,16.79,16.79,0,0,0-.9-5.793c-.532-1.287-1.287-1.959-2.295-1.959s-1.763.644-2.295,1.959A17.014,17.014,0,0,0,31.234,51.676Z" transform="translate(213.082 135.792)" fill="#010101"/>
    <path id="Path_21" data-name="Path 21" d="M40.856,60.746V48.517a8.9,8.9,0,0,0-.476-3.722,1.791,1.791,0,0,0-1.735-.868,3.278,3.278,0,0,0-3.078,2.994V60.746H34V42.64h1.455V44.6a5.6,5.6,0,0,1,1.623-1.875,3.47,3.47,0,0,1,1.987-.588,2.8,2.8,0,0,1,2.8,1.371A8.927,8.927,0,0,1,42.4,47.9V60.746Z" transform="translate(221.146 135.733)" fill="#010101"/>
    <path id="Path_22" data-name="Path 22" d="M38.09,46.965V45.23h7.164v1.735Z" transform="translate(228.501 141.342)" fill="#010101"/>
    <path id="Path_23" data-name="Path 23" d="M50.664,40V64.57H49.1v-1.9a5.877,5.877,0,0,1-1.427,1.819,3.078,3.078,0,0,1-1.791.56,3.5,3.5,0,0,1-3.358-2.267,17.686,17.686,0,0,1-1.091-7.22A17.63,17.63,0,0,1,42.576,48.4a3.582,3.582,0,0,1,3.3-2.491,3.022,3.022,0,0,1,1.819.532,4.338,4.338,0,0,1,1.315,1.679V40ZM49.1,55.5a17.937,17.937,0,0,0-.7-6.045,2.351,2.351,0,0,0-2.267-1.791c-1.035,0-1.791.644-2.267,1.9a18.414,18.414,0,0,0-.784,5.961,18.3,18.3,0,0,0,.7,6.017,2.351,2.351,0,0,0,4.561,0,18.246,18.246,0,0,0,.756-6.073Z" transform="translate(234.453 131.936)" fill="#010101"/>
    <path id="Path_24" data-name="Path 24" d="M54.466,54.837a9.011,9.011,0,0,1-1.231,4.7,3.61,3.61,0,0,1-6.352-.728,17.826,17.826,0,0,1-1.063-7.164,17.8,17.8,0,0,1,1.091-7.136,3.61,3.61,0,0,1,3.414-2.351,3.386,3.386,0,0,1,3.134,1.987,12.369,12.369,0,0,1,1.091,5.821v1.539H47.5v1.007a15.363,15.363,0,0,0,.672,5.233c.448,1.147,1.119,1.735,2.015,1.735a2.155,2.155,0,0,0,1.931-1.2,7.136,7.136,0,0,0,.756-3.386ZM47.5,49.828h5.4a2.8,2.8,0,0,1,0-.42v-.364a8.619,8.619,0,0,0-.7-3.89,2.071,2.071,0,0,0-1.931-1.371A2.239,2.239,0,0,0,48.2,45.294a10.522,10.522,0,0,0-.728,4.366Z" transform="translate(242.348 135.821)" fill="#010101"/>
    <path id="Path_25" data-name="Path 25" d="M50,60.734V42.628h1.455v1.959a5.121,5.121,0,0,1,1.651-1.847,3.358,3.358,0,0,1,2.015-.616,3.022,3.022,0,0,1,1.959.672,3.806,3.806,0,0,1,1.2,1.9,5.821,5.821,0,0,1,1.679-1.931,3.638,3.638,0,0,1,2.071-.644,2.8,2.8,0,0,1,2.6,1.371,8.7,8.7,0,0,1,.84,4.366V60.706H63.992V48.5a8.591,8.591,0,0,0-.5-3.722,1.931,1.931,0,0,0-1.791-.84,2.938,2.938,0,0,0-2.1.923,2.6,2.6,0,0,0-.979,1.9V60.762H57.052V48.5a8.4,8.4,0,0,0-.5-3.722,1.9,1.9,0,0,0-1.791-.84,3.293,3.293,0,0,0-3.05,2.938V60.874Z" transform="translate(249.92 135.745)" fill="#010101"/>
    <path id="Path_26" data-name="Path 26" d="M65.765,60.756a3.218,3.218,0,0,1-.616,0h-.476a1.455,1.455,0,0,1-1.007-.392,2.575,2.575,0,0,1-.616-1.175,4.31,4.31,0,0,1-1.455,1.4,3.61,3.61,0,0,1-1.819.476,2.8,2.8,0,0,1-2.547-1.343,6.436,6.436,0,0,1-.923-3.694,6.184,6.184,0,0,1,.812-3.078,6.94,6.94,0,0,1,2.8-2.239l1.147-.56c1.315-.532,1.959-1.259,1.959-2.183V46.456a3.3,3.3,0,0,0-.532-2.1,1.931,1.931,0,0,0-1.651-.672,2.239,2.239,0,0,0-1.875.867,4.394,4.394,0,0,0-.672,2.547H56.754v-.392a4.757,4.757,0,0,1,1.119-3.3,3.946,3.946,0,0,1,3.19-1.259,4.673,4.673,0,0,1,1.875.336,2.8,2.8,0,0,1,1.231,1.063,3.358,3.358,0,0,1,.448,1.119,10.579,10.579,0,0,1,.14,1.9V57.314a4.141,4.141,0,0,0,.2,1.707.9.9,0,0,0,.784.308h0Zm-2.8-9.766a14.16,14.16,0,0,0-4.254,2.63,4,4,0,0,0-.812,2.575,4.309,4.309,0,0,0,.588,2.407,1.763,1.763,0,0,0,1.567.9,2.351,2.351,0,0,0,2.211-1.343,9.179,9.179,0,0,0,.7-4.17Z" transform="translate(261.244 135.778)" fill="#010101"/>
    <path id="Path_27" data-name="Path 27" d="M67.5,60.735V48.506a8.9,8.9,0,0,0-.476-3.722,1.847,1.847,0,0,0-1.763-.868,3.274,3.274,0,0,0-3.05,2.994V60.735H60.5V42.629h1.4v1.959a5.6,5.6,0,0,1,1.623-1.875,3.47,3.47,0,0,1,1.987-.588A2.8,2.8,0,0,1,68.14,43.5a8.563,8.563,0,0,1,.84,4.366V60.707Z" transform="translate(268.804 135.744)" fill="#010101"/>
    <path id="Path_28" data-name="Path 28" d="M73.789,40V64.57H72.222v-1.9A5.876,5.876,0,0,1,70.8,64.486a3.078,3.078,0,0,1-1.791.56,3.554,3.554,0,0,1-3.3-2.295,18.274,18.274,0,0,1-1.063-7.22A17.713,17.713,0,0,1,65.7,48.4a3.638,3.638,0,0,1,3.414-2.379,2.938,2.938,0,0,1,1.791.532,4.142,4.142,0,0,1,1.343,1.679V40ZM72.222,55.5a17.937,17.937,0,0,0-.7-6.045,2.351,2.351,0,0,0-2.267-1.791c-1.035,0-1.791.644-2.267,1.9a17.658,17.658,0,0,0-.728,5.989,18.3,18.3,0,0,0,.7,6.017A2.351,2.351,0,0,0,69.2,63.395a2.407,2.407,0,0,0,2.323-1.819,19.029,19.029,0,0,0,.7-6.1Z" transform="translate(276.194 131.936)" fill="#010101"/>
  </g>
</svg>
