<?xml version="1.0" encoding="UTF-8"?>
<svg width="477px" height="325px" viewBox="0 0 477 325" version="1.1" xmlns="http://www.w3.org/2000/svg" xmlns:xlink="http://www.w3.org/1999/xlink">
    <title>Group 43</title>
    <g id="Symbols" stroke="none" stroke-width="1" fill="none" fill-rule="evenodd">
        <g id="Group-43">
            <path d="M156.111,176.6287 C158.441,183.2687 179.424,186.9487 181.017,185.0717 C192.154,156.4777 180.42,100.3877 180.42,100.3877 L169.979,95.6447 C169.979,95.6447 166.332,139.0597 156.111,176.6287" id="Fill-1" fill="#F37A50"></path>
            <path d="M103.8746,232.3743 C123.4396,226.1283 178.8516,191.0753 181.3276,184.0733 L158.1496,171.6593 C158.1496,171.6593 95.0146,199.7063 84.7616,204.8703 C66.9866,213.7703 71.9516,242.6333 103.8746,232.3743" id="Fill-3" fill="#F37A50"></path>
            <path d="M118.6061,126.5213 C120.0801,106.4603 114.2791,88.7373 98.2851,79.7123 C82.0721,70.5643 61.7611,79.5363 61.7611,79.5363 C61.7601,79.5363 44.5701,73.4203 28.9911,90.5823 C13.4101,107.7443 25.1961,122.8463 18.8221,135.3623 C15.0471,142.7743 -4.1449,144.3023 0.8131,168.4453 C2.2431,175.4093 10.6171,180.0953 17.7101,180.5613 C30.1711,181.3803 41.7771,176.5623 46.8291,181.3803 C63.4751,197.2543 100.3651,191.5133 105.5281,176.9923 C107.1281,172.4893 140.3121,181.2033 137.0021,150.5343 C135.3241,134.9943 117.2891,144.4473 118.6061,126.5213" id="Fill-5" fill="#2C2858"></path>
            <path d="M120.4713,293.0828 C120.4713,276.3118 135.0053,251.1868 128.0373,234.2568 C122.9633,220.6388 114.4863,197.7768 104.1053,193.9628 C99.2053,192.1628 94.1713,190.9098 88.0683,189.2218 C88.0683,189.2218 89.9653,200.3808 82.7913,200.9568 C68.9813,202.0638 61.7223,184.3578 61.7223,184.3578 C54.2763,183.6458 20.3733,194.7198 18.7773,200.1638 C18.8583,222.1318 38.0653,251.6928 43.9023,275.4448 C46.1983,301.0978 40.7173,314.7928 40.6843,317.7108 C40.6843,317.7108 89.1793,333.9158 121.7503,315.9848 C121.7503,315.9848 120.4713,304.4098 120.4713,293.0828" id="Fill-7" fill="#3F964F"></path>
            <path d="M81.5406,169.8533 L60.1476,166.6483 L61.2416,184.3253 C61.2416,184.3253 67.0936,203.8493 79.2576,204.1253 C91.4206,204.4023 88.0676,189.2213 88.0676,189.2213 L81.5406,169.8533 Z" id="Fill-9" fill="#F37A50"></path>
            <path d="M40.3551,141.1419 C45.8771,164.2069 65.0401,179.3879 83.1551,175.0509 C101.2691,170.7129 111.4771,148.4989 105.9551,125.4339 C100.4321,102.3699 81.2701,87.1879 63.1551,91.5259 C45.0401,95.8629 34.8321,118.0769 40.3551,141.1419" id="Fill-11" fill="#F37A50"></path>
            <path d="M97.4655,131.4935 C98.2635,133.0955 100.2085,133.7455 101.8095,132.9485 C103.4105,132.1515 104.0625,130.2055 103.2655,128.6045 C102.4675,127.0035 100.5225,126.3515 98.9215,127.1495 C97.3195,127.9475 96.6675,129.8915 97.4655,131.4935" id="Fill-13" fill="#000000"></path>
            <path d="M72.0221,137.7703 C72.8851,139.5033 74.9911,140.2093 76.7241,139.3453 C78.4581,138.4813 79.1631,136.3763 78.2991,134.6433 C77.4361,132.9093 75.3311,132.2043 73.5971,133.0673 C71.8641,133.9313 71.1591,136.0363 72.0221,137.7703" id="Fill-15" fill="#000000"></path>
            <path d="M68.1451,134.866 C68.3841,134.747 68.5851,134.549 68.7071,134.287 C70.4641,130.496 75.2121,129.757 75.2601,129.75 C75.9241,129.653 76.3871,129.035 76.2911,128.369 C76.1961,127.704 75.5821,127.242 74.9161,127.336 C74.6671,127.37 68.8161,128.251 66.4941,133.262 C66.2101,133.873 66.4771,134.598 67.0871,134.881 C67.4381,135.043 67.8251,135.026 68.1451,134.866" id="Fill-17" fill="#2C2858"></path>
            <path d="M104.5309,126.7982 C104.6479,126.7402 104.7579,126.6612 104.8539,126.5632 C105.3279,126.0842 105.3229,125.3132 104.8439,124.8392 C101.1249,121.1632 96.5399,122.6872 96.3459,122.7542 C95.7109,122.9732 95.3719,123.6682 95.5909,124.3042 C95.8099,124.9392 96.5009,125.2772 97.1349,125.0622 C97.2869,125.0112 100.5129,123.9882 103.1299,126.5732 C103.5099,126.9502 104.0769,127.0242 104.5309,126.7982" id="Fill-19" fill="#2C2858"></path>
            <path d="M95.3824,138.5379 C97.1594,140.3659 98.7184,142.2499 100.4154,143.3199 C100.9874,143.6809 101.1704,144.4409 100.8384,145.0299 C99.4674,147.4609 95.4654,149.4619 93.0114,150.5049 C92.6534,150.6569 92.3594,150.1879 92.6524,149.9319 C95.1284,147.7599 96.1934,146.1599 96.6404,145.2819 C96.8614,144.8449 96.8564,144.3309 96.6344,143.8939 C96.1274,142.8919 95.1154,140.8449 94.4314,139.1509 C94.1954,138.5659 94.9434,138.0849 95.3824,138.5379" id="Fill-21" fill="#DE623C"></path>
            <path d="M49.0719,141.2889 C53.4729,144.7129 54.7689,150.4099 51.9679,154.0129 C49.1649,157.6139 43.3239,157.7589 38.9229,154.3339 C34.5209,150.9089 33.2239,145.2129 36.0269,141.6109 C38.8299,138.0079 44.6699,137.8649 49.0719,141.2889" id="Fill-23" fill="#F37A50"></path>
            <path d="M46.566,152.9661 C46.73,152.8841 46.878,152.7641 46.996,152.6081 C48.686,150.3591 48.844,147.8331 47.42,145.8491 C45.962,143.8181 43.255,142.8891 40.983,143.6391 C40.343,143.8521 39.997,144.5411 40.208,145.1801 C40.42,145.8201 41.109,146.1671 41.749,145.9551 C42.994,145.5441 44.615,146.1221 45.44,147.2711 C46.232,148.3751 46.092,149.7501 45.046,151.1421 C44.641,151.6811 44.75,152.4451 45.289,152.8491 C45.67,153.1361 46.166,153.1661 46.566,152.9661" id="Fill-25" fill="#DE623C"></path>
            <path d="M75.3571,156.928 C74.8461,156.24 75.3981,155.278 76.2501,155.379 C78.4131,155.638 81.9901,155.99 85.4041,155.99 C88.8171,155.99 92.3941,155.638 94.5581,155.379 C95.4091,155.278 95.9611,156.24 95.4501,156.928 C93.8801,159.046 90.6361,162.259 85.4041,162.259 C80.1701,162.259 76.9261,159.046 75.3571,156.928" id="Fill-27" fill="#FFFFFF"></path>
            <path d="M39.9069,139.1024 C61.5289,136.2064 91.7829,114.1784 94.2639,102.8724 C90.0829,89.2914 67.7989,82.4674 55.2169,88.7574 C42.6349,95.0494 30.7489,122.0134 39.9069,139.1024" id="Fill-29" fill="#2C2858"></path>
            <path d="M472.2867,194.4901 C471.6117,198.7911 469.9467,202.6671 467.6437,206.0641 C450.3157,241.2511 396.8127,230.0811 319.8207,219.8421 C306.9487,218.1271 311.9177,234.3561 311.2227,268.1591 C310.7717,290.1441 291.6407,321.0091 268.2067,317.3291 C229.5687,311.2621 271.5017,286.7571 249.1207,206.3571 C237.1627,163.4001 192.8337,179.4511 199.1567,139.1791 L213.5507,47.5101 C216.0117,31.8351 219.9237,17.0101 242.4577,18.0061 C264.3017,18.9731 261.8647,2.9841 292.8327,7.8471 L447.8297,32.1831 C463.6187,34.6621 474.4517,49.4721 471.9837,65.1911 C470.9607,71.7071 467.7347,77.2821 463.2777,81.5081 C471.2727,87.7661 475.8387,97.9291 474.1607,108.6191 C473.1397,115.1181 469.9227,120.6961 465.4747,124.9131 C473.4987,131.1671 478.0797,141.3411 476.3977,152.0491 C475.1777,159.8221 470.9097,166.3731 465.0067,170.7301 C470.6887,176.9761 473.6917,185.5451 472.2867,194.4901" id="Fill-31" fill="#FACB32"></path>
            <path d="M374.2321,149.8875 L448.1401,161.4925 C458.1901,163.0705 466.7821,169.9045 470.5671,179.3225 C472.1231,183.2035 470.2251,187.6115 466.3201,189.1625 C462.4221,190.7165 457.9971,188.8025 456.4331,184.9195 C454.6451,180.4425 450.5491,177.2045 445.7821,176.4565 L370.1051,164.5745 C362.6051,163.3965 355.5531,168.5115 354.3811,175.9765 C353.2091,183.4425 358.3541,190.4725 365.8531,191.6505 L416.4221,199.5905 C420.5721,200.2415 423.4131,204.1225 422.7641,208.2535 C422.1161,212.3835 418.2211,215.2075 414.0731,214.5555 L363.4951,206.6145 C347.7071,204.1355 336.8721,189.3335 339.3401,173.6155 C340.7161,164.8495 346.0141,157.7335 353.1071,153.4845 C348.6361,147.4815 346.4741,139.7815 347.7201,131.8445 C349.1011,123.0535 354.4281,115.9155 361.5541,111.6805 C357.1171,105.6905 354.9851,98.0215 356.2291,90.1025 C357.7331,80.5245 363.8611,72.8295 371.9741,68.8015 C368.2641,63.0575 366.4761,56.0555 367.6161,48.8035 C370.0841,33.0855 384.9321,22.3165 400.7211,24.7955 L447.8291,32.1915 C457.8781,33.7695 466.4801,40.5965 470.2651,50.0145 C471.8291,53.8975 469.9311,58.3055 466.0351,59.8575 C462.1321,61.3915 457.7011,59.5125 456.1451,55.6325 C454.3401,51.1515 450.2471,47.9065 445.4791,47.1575 L398.3711,39.7615 C390.8731,38.5835 383.8201,43.6985 382.6481,51.1635 C381.4751,58.6305 386.6221,65.6595 394.1211,66.8365 L450.0061,75.6125 C460.0571,77.1895 468.6661,84.0265 472.4421,93.4445 C474.0041,97.3345 472.1071,101.7425 468.2111,103.2865 C464.2751,104.8675 459.8691,102.9405 458.3221,99.0615 C456.4931,94.5065 452.5021,91.3385 447.6571,90.5775 L386.9861,81.0515 C379.4871,79.8735 372.4331,84.9965 371.2611,92.4625 C370.0881,99.9295 375.2341,106.9585 382.7331,108.1355 L452.2351,119.0485 C462.2851,120.6265 470.8861,127.4525 474.6701,136.8715 C476.2361,140.7545 474.3371,145.1615 470.4411,146.7145 C466.5291,148.2565 462.1071,146.3695 460.5511,142.4885 C458.7211,137.9425 454.7291,134.7745 449.8851,134.0135 L378.4851,122.8035 C370.9861,121.6255 363.9331,126.7405 362.7611,134.2055 C361.5891,141.6725 366.7241,148.7095 374.2321,149.8875" id="Fill-33" fill="#EBA223"></path>
            <path d="M222.1656,7.7278 L173.9046,0.1508 C167.2206,-0.8982 160.9506,3.6688 159.9006,10.3528 L137.3836,153.7678 C136.3336,160.4518 140.9016,166.7218 147.5866,167.7708 L195.8476,175.3488 C202.5316,176.3978 208.8016,171.8308 209.8516,165.1458 L232.3686,21.7308 C233.4186,15.0468 228.8506,8.7778 222.1656,7.7278" id="Fill-35" fill="#7F99EB"></path>
            <path d="M219.983,203.4319 C215.117,203.7289 209.441,202.1389 206.213,205.6869 L197.748,195.9439 C206.003,182.7179 225.41,178.2309 227.402,178.0569 C232.578,177.6009 234.981,177.0679 235.384,177.7599 C235.79,178.4519 237.057,183.0599 229.546,183.9609 C220.122,185.0929 226.379,192.6269 245.5,185.4549 C250.287,183.6599 259.296,185.9909 256.038,189.4889 C252.447,193.3439 242.13,202.0809 219.983,203.4319" id="Fill-37" fill="#F37A50"></path>
            <path d="M121.608,232.2591 C117.06,238.7411 127.441,260.3481 130.201,260.5761 C163.655,252.0301 207.279,204.5501 207.279,204.5501 L204.778,191.8901 C204.778,191.8901 162.671,216.9971 121.608,232.2591" id="Fill-39" fill="#F37A50"></path>
            <path d="M31.6666,233.1229 C51.7756,244.5109 123.0656,263.4999 130.7416,260.1949 L123.2866,231.5649 C123.2866,231.5649 51.8826,200.8449 39.7826,196.3209 C18.8516,188.4379 -1.1974,214.5919 31.6666,233.1229" id="Fill-41" fill="#F37A50"></path>
        </g>
    </g>
</svg>