<svg xmlns="http://www.w3.org/2000/svg" width="90.188" height="68.878" viewBox="0 0 90.188 68.878">
  <g id="Group_1300" data-name="Group 1300" transform="translate(-15327.294 -8501.999)">
    <g id="Group_1299" data-name="Group 1299" transform="translate(15327.294 8501.999)">
      <rect id="Rectangle_1490" data-name="Rectangle 1490" width="2.062" height="2.062" transform="translate(71.903 5.224)" fill="#fff"/>
      <rect id="Rectangle_1491" data-name="Rectangle 1491" width="2.062" height="2.062" transform="translate(77.127 5.224)" fill="#fff"/>
      <rect id="Rectangle_1492" data-name="Rectangle 1492" width="2.062" height="2.062" transform="translate(66.679 5.224)" fill="#fff"/>
      <path id="Path_5940" data-name="Path 5940" d="M84.939,67.2V11.249A3.843,3.843,0,0,0,81.089,7.4H8.361a3.843,3.843,0,0,0-3.849,3.849V67.2H-.3v4.124l3.849,4.949H86.039l3.849-4.949V67.2ZM8.361,9.6H81.227a1.82,1.82,0,0,1,1.787,1.787v6.049H6.712V11.387A1.706,1.706,0,0,1,8.361,9.6Zm-1.65,9.9H82.876V67.2H6.712ZM87.826,70.642l-2.75,3.712H4.649L1.9,70.642V69.267H87.826Z" transform="translate(0.3 -7.4)" fill="#fff"/>
      <rect id="Rectangle_1493" data-name="Rectangle 1493" width="47.569" height="2.062" transform="translate(12.923 5.224)" fill="#fff"/>
      <path id="Path_5941" data-name="Path 5941" d="M45.061,36.2H43v5.637H37.5V43.9H43v5.5h2.062V43.9h5.5V41.837h-5.5Z" transform="translate(14.468 3.395)" fill="#fff"/>
      <path id="Path_5942" data-name="Path 5942" d="M52.682,33.162a10.258,10.258,0,0,0-6.324,2.062,4.646,4.646,0,0,0-1.65-.825l-6.049-2.2-5.224,9.761h-1.65L26.561,32.2l-6.049,2.2a7.341,7.341,0,0,0-3.849,3.162,7.958,7.958,0,0,0-1.237,4.124c-.137.55-.55,4.674-.825,9.486v1.1H44.846a10.813,10.813,0,0,0,7.7,3.162,10.488,10.488,0,0,0,7.836-3.3,10.955,10.955,0,0,0,0-15.673A10.708,10.708,0,0,0,52.682,33.162Zm-35.2,8.8v-.137a7.767,7.767,0,0,1,.962-3.3,4.457,4.457,0,0,1,2.75-2.2l4.262-1.512,4.949,9.349h4.124l4.949-9.349,4.262,1.512a2.323,2.323,0,0,0,.687.275A11.018,11.018,0,0,0,43.059,50.21H16.8A74.717,74.717,0,0,1,17.487,41.961Zm41.519,8.8a9.149,9.149,0,0,1-6.462,2.612,9.4,9.4,0,0,1-6.462-2.612,8.963,8.963,0,0,1,0-12.786,9.149,9.149,0,0,1,6.462-2.612,9.4,9.4,0,0,1,6.462,2.612A8.962,8.962,0,0,1,59.007,50.76Z" transform="translate(5.885 1.895)" fill="#fff"/>
      <path id="Path_5943" data-name="Path 5943" d="M29.911,35.923a8.111,8.111,0,1,0,0-16.223A8.039,8.039,0,0,0,21.8,27.811,8.126,8.126,0,0,0,29.911,35.923Zm0-14.023a6.049,6.049,0,1,1-6.049,6.049A6.1,6.1,0,0,1,29.911,21.9Z" transform="translate(8.583 -2.79)" fill="#fff"/>
    </g>
  </g>
</svg>
