<svg id="_3039564" data-name="3039564" xmlns="http://www.w3.org/2000/svg" width="42" height="42" viewBox="0 0 42 42">
  <path id="Path_4452" data-name="Path 4452" d="M37.488,6.563h-1.23V3.691a3.691,3.691,0,0,0-7.383,0V4.7A2.883,2.883,0,0,1,26.793,7.46l-1.2.343V7.793a1.23,1.23,0,0,0-1.23-1.23H19.441a1.23,1.23,0,0,0-1.23,1.23v5.5H3.691A3.7,3.7,0,0,0,0,16.98V40.77a1.23,1.23,0,0,0,1.913,1.024l4.612-3.075H29.941a3.7,3.7,0,0,0,3.691-3.691V22.148h3.855A4.517,4.517,0,0,0,42,17.637V11.074A4.517,4.517,0,0,0,37.488,6.563ZM20.672,9.023h2.461V19.688H20.672Zm10.5,26a1.232,1.232,0,0,1-1.23,1.23H6.152a1.23,1.23,0,0,0-.682.207L2.461,38.47V16.98a1.232,1.232,0,0,1,1.23-1.23h14.52v5.168a1.23,1.23,0,0,0,1.23,1.23h4.922a1.23,1.23,0,0,0,1.222-1.09,6.93,6.93,0,0,0,3.725,1.09h1.861Zm8.367-17.391a2.053,2.053,0,0,1-2.051,2.051H29.311A4.478,4.478,0,0,1,25.594,17.7V10.362l1.875-.536A5.355,5.355,0,0,0,31.336,4.7V3.691a1.23,1.23,0,0,1,2.461,0v4.1a1.23,1.23,0,0,0,1.23,1.23h2.461a2.053,2.053,0,0,1,2.051,2.051Z" fill="#b5b3b3"/>
  <path id="Path_4453" data-name="Path 4453" d="M61.23,254.461h8.2a1.23,1.23,0,0,0,0-2.461h-8.2a1.23,1.23,0,0,0,0,2.461Z" transform="translate(-55.078 -231.328)" fill="#b5b3b3"/>
  <path id="Path_4454" data-name="Path 4454" d="M82.559,312H61.23a1.23,1.23,0,0,0,0,2.461H82.559a1.23,1.23,0,0,0,0-2.461Z" transform="translate(-55.078 -286.406)" fill="#b5b3b3"/>
  <path id="Path_4455" data-name="Path 4455" d="M82.559,372H61.23a1.23,1.23,0,0,0,0,2.461H82.559a1.23,1.23,0,0,0,0-2.461Z" transform="translate(-55.078 -341.484)" fill="#b5b3b3"/>
</svg>
