<svg xmlns="http://www.w3.org/2000/svg" width="56.06" height="62" viewBox="0 0 56.06 62">
  <g id="_1389079" data-name="1389079" transform="translate(-0.499 0)">
    <path id="Path_1841" data-name="Path 1841" d="M57.894,81.516c-2.849-2.836-6.143-.182-6.143-.182V66.4a.908.908,0,1,0-1.816,0V82.612a49.5,49.5,0,0,1-6.192,4.248V59.976A2.269,2.269,0,0,1,46.01,57.71h1.659a2.269,2.269,0,0,1,2.266,2.266v2.709a.908.908,0,1,0,1.816,0V59.976a4.087,4.087,0,0,0-4.082-4.082H46.01a4.087,4.087,0,0,0-4.083,4.082v27.6a9.544,9.544,0,0,1-1.662.309V68.743a4.107,4.107,0,0,0-4.1-4.1H34.543a4.107,4.107,0,0,0-4.1,4.1V78l-1.663.883V75.8a3.7,3.7,0,0,0-3.693-3.694H22.648A3.7,3.7,0,0,0,18.954,75.8v8.294l-2.965,1.574-8.327,2.38a5.739,5.739,0,0,0-3.978,6.962l.931,3.584a.908.908,0,1,0,1.758-.457l-.931-3.583a3.9,3.9,0,0,1,2.719-4.759l7.613-2.176L21.5,102.89a4.068,4.068,0,0,1-2.7,5.015l-5.753,1.307a3.766,3.766,0,0,1-4.5-2.737L7.373,101.98a.908.908,0,1,0-1.758.457l1.168,4.495a5.57,5.57,0,0,0,5.4,4.193,44.522,44.522,0,0,0,7.015-1.449,5.6,5.6,0,0,0,4.237-6.614l19.9-4.873a11.454,11.454,0,0,0,4.518-2.262l9.687-7.959a4.308,4.308,0,0,0,.352-6.452ZM34.543,66.456h1.619a2.289,2.289,0,0,1,2.286,2.287V87.935l-5.731,0c-.526,0-.162-.352-.133-.376l1.65-1.337a8.632,8.632,0,0,0,2.989-5.155,3.6,3.6,0,0,0-4.966-4.02v-8.3a2.289,2.289,0,0,1,2.286-2.287ZM20.771,75.8a1.879,1.879,0,0,1,1.877-1.877h2.437A1.88,1.88,0,0,1,26.962,75.8v4.043L20.77,83.129V75.8ZM56.389,86.565,46.7,94.524a9.616,9.616,0,0,1-3.8,1.9l-20.052,4.91L17.461,86.943l15.4-8.173A1.785,1.785,0,0,1,35.444,80.7a6.866,6.866,0,0,1-2.352,4.106l-1.65,1.337a2.028,2.028,0,0,0,1.276,3.6l6.617,0h0a11.324,11.324,0,0,0,6.547-2.071l7.4-5.2a2.558,2.558,0,0,1,3.314.306,2.52,2.52,0,0,1-.206,3.779Zm0,0" transform="translate(-2.636 -49.126)" fill="#fff"/>
    <path id="Path_1842" data-name="Path 1842" d="M71.476,422.817a3.578,3.578,0,1,0-3.578,3.578A3.582,3.582,0,0,0,71.476,422.817Zm-5.34,0a1.762,1.762,0,1,1,1.762,1.762A1.764,1.764,0,0,1,66.137,422.817Zm0,0" transform="translate(-56.093 -368.471)" fill="#fff"/>
    <path id="Path_1843" data-name="Path 1843" d="M5.274,28.515l13.2-13.3,2.97,1.536a2.793,2.793,0,0,0,3.221-.469l7.186-6.918s-.2,3.553,2.794,3.553a2.8,2.8,0,0,0,2.794-2.794V2.793c0-.009,0-.018,0-.026A2.644,2.644,0,0,0,34.647,0H27.385a2.8,2.8,0,0,0-2.794,2.794c0,3.071,3.125,2.794,3.125,2.794l-5.482,5.277L19.221,9.306a2.783,2.783,0,0,0-3.267.513L1.308,24.579a2.8,2.8,0,0,0,.015,3.951,2.754,2.754,0,0,0,3.951-.015ZM2.6,25.859,17.244,11.1a.826.826,0,0,1,1.143-.179l3.591,1.857a.908.908,0,0,0,1.047-.152L30.6,5.334a.908.908,0,0,0-.63-1.562H27.385a.978.978,0,0,1,0-1.955h7.262a.854.854,0,0,1,.977.972c0,.008,0,.016,0,.025V10.12a.978.978,0,0,1-1.955,0V7.226a.908.908,0,0,0-1.538-.654l-8.724,8.4a.977.977,0,0,1-1.127.164l-3.562-1.842a.909.909,0,0,0-1.062.167L3.985,27.236a.937.937,0,0,1-1.383.005A.979.979,0,0,1,2.6,25.859Zm0,0" transform="translate(0)" fill="#fff"/>
  </g>
</svg>
