<?xml version="1.0" encoding="UTF-8"?>
<svg width="346px" height="912px" viewBox="0 0 346 912" version="1.1" xmlns="http://www.w3.org/2000/svg" xmlns:xlink="http://www.w3.org/1999/xlink">
    <title>Group 6</title>
    <g id="Symbols" stroke="none" stroke-width="1" fill="none" fill-rule="evenodd">
        <g id="SideBar_Dashboard" transform="translate(134.000000, 0.000000)">
            <g id="Group-6" transform="translate(-134.000000, 0.000000)">
                <polygon id="Rectangle-Copy-2" fill="#521B52" opacity="0.683842076" transform="translate(110.000000, 802.000000) rotate(-30.000000) translate(-110.000000, -802.000000) " points="30 722 190 722 190 882 30 882"></polygon>
                <path d="M201,746.127406 C234.388065,736.924717 254.847028,743.11114 262.376888,764.686674 C273.671678,797.049975 303.320806,779.732365 321.102485,784.254334 C338.884164,788.776303 341.221101,809.053482 343,820" id="Path-3-Copy" stroke="#FFFFFF" stroke-width="5" opacity="0.100655692" stroke-linecap="round" transform="translate(272.000000, 781.000000) rotate(-78.000000) translate(-272.000000, -781.000000) "></path>
                <polygon id="Rectangle" fill="#562056" opacity="0.205822173" transform="translate(136.000000, 110.000000) rotate(-30.000000) translate(-136.000000, -110.000000) " points="56 30 216 30 216 190 56 190"></polygon>
                <path d="M201,184.127406 C234.388065,174.924717 254.847028,181.11114 262.376888,202.686674 C273.671678,235.049975 303.320806,217.732365 321.102485,222.254334 C338.884164,226.776303 341.221101,247.053482 343,258" id="Path-3" stroke="#FFFFFF" stroke-width="5" opacity="0.100655692" stroke-linecap="round"></path>
                <rect id="Rectangle" stroke="#FFFFFF" stroke-width="5" opacity="0.122791109" transform="translate(309.000000, 89.000000) rotate(15.000000) translate(-309.000000, -89.000000) " x="295.5" y="75.5" width="27" height="27"></rect>
            </g>
        </g>
    </g>
</svg>