<?xml version="1.0" encoding="UTF-8"?>
<svg width="100px" height="100px" viewBox="0 0 100 100" version="1.1" xmlns="http://www.w3.org/2000/svg" xmlns:xlink="http://www.w3.org/1999/xlink">
    <title>Stamp</title>
    <defs>
        <filter id="filter-1">
            <feColorMatrix in="SourceGraphic" type="matrix" values="0 0 0 0 1.000000 0 0 0 0 1.000000 0 0 0 0 1.000000 0 0 0 1.000000 0"></feColorMatrix>
        </filter>
    </defs>
    <g id="Symbols" stroke="none" stroke-width="1" fill="none" fill-rule="evenodd" opacity="0.515973772">
        <g id="Profile" transform="translate(-564.000000, -51.000000)">
            <g id="Group" transform="translate(546.000000, 33.000000)">
                <g transform="translate(18.000000, 18.000000)" id="Stamp" filter="url(#filter-1)">
                    <g transform="translate(50.000000, 50.000000) rotate(28.000000) translate(-50.000000, -50.000000) " id="stamp" fill="#000000" fill-rule="nonzero">
                        <path d="M97.4717129,46.5099761 C97.018089,45.9670368 96.9583396,45.1965649 97.3239115,44.590858 C98.7869858,42.2535512 99.2240999,39.4188112 98.533837,36.7504054 C97.8561531,34.0765074 96.0738913,31.8153062 93.6296692,30.5285713 C93.0133069,30.1849188 92.692547,29.4811376 92.8379896,28.7922635 C92.9181796,28.4125198 92.9787152,28.0296377 93.0195963,27.6444018 C93.0934968,26.9461128 92.7192769,26.2768537 92.0840464,25.9732156 C91.4496021,25.6703623 90.6925144,25.798251 90.1940785,26.2941147 L82.2890758,34.1824277 L34.1719399,82.2011789 L26.2606477,90.0965532 C25.7637843,90.5947707 25.6348514,91.3519043 25.9398878,91.9850721 C26.2449242,92.6190245 26.9163187,92.9924914 27.6168019,92.9163856 C28.0020281,92.8755869 28.3848961,92.815173 28.7638332,92.735929 C29.454882,92.5899943 30.1608684,92.9093243 30.5052136,93.5252309 C31.7937566,95.9653199 34.0595169,97.7447801 36.7380194,98.4218852 C39.4070881,99.1076207 42.2412537,98.6729555 44.5809144,97.220671 C45.1972767,96.8432811 45.987384,96.9060487 46.536135,97.3768054 C48.3647812,98.9899316 50.7217377,99.8804464 53.162029,99.881231 C53.469424,99.881231 53.7776052,99.8678929 54.0865724,99.8380782 C56.8460514,99.5666086 59.3751806,98.1849376 61.0921897,96.011611 C61.5434548,95.4561181 62.2966118,95.245062 62.9719373,95.4843635 C65.5443062,96.4964903 68.4217116,96.4046928 70.9241108,95.2301549 C73.4367302,94.043848 75.3565728,91.888567 76.2425936,89.2593908 C76.4870943,88.5728706 77.1419793,88.1170213 77.871551,88.1248673 C80.6294575,88.1625278 83.2883057,87.0962639 85.2529604,85.1638076 C87.2011054,83.2172288 88.2742361,80.5652994 88.2262793,77.8145111 C88.2231344,77.0824845 88.6814753,76.4273481 89.3709521,76.1770626 C92.0007118,75.2896862 94.1556211,73.3737066 95.3427472,70.869281 C96.5165086,68.3781935 96.6100636,65.5152083 95.6021855,62.9527226 C95.3545399,62.27091 95.569166,61.5074995 96.1359993,61.0532194 C98.3074182,59.3365267 99.6871577,56.8132708 99.9583885,54.061698 C100.210751,51.3101251 99.3105792,48.5765979 97.4717129,46.5099761 L97.4717129,46.5099761 Z M74.6804612,74.6149349 C65.1771618,84.1791415 50.9764589,87.3716566 38.2820699,82.7966861 L40.9527109,80.1298495 C43.9213127,81.0337023 47.0062685,81.4981822 50.1093063,81.5099512 C60.0685882,81.4762136 69.4272311,76.7506012 75.3542143,68.7634292 C81.2819837,60.7754729 83.0815415,50.4643323 80.2104254,40.9464167 L82.8692738,38.2929182 C87.4518955,50.9594115 84.2576613,65.1276185 74.6804612,74.6149349 L74.6804612,74.6149349 Z M77.5059788,43.6516984 C79.7159205,53.1186155 76.8715347,63.0539352 69.9838438,69.9261983 C63.0961531,76.7992459 53.1415886,79.6363396 43.655585,77.4292754 L77.5059788,43.6516984 Z M94.092727,58.4311046 C92.3631391,59.7853147 91.720833,62.1077144 92.509368,64.1570752 C93.196486,65.8659218 93.1359504,67.78504 92.3426984,69.4475956 C91.5478743,71.1336893 90.1013098,72.4251317 88.3339855,73.0277002 C86.2561214,73.7283431 84.8693064,75.6874756 84.9023257,77.8757096 C84.9400621,79.7038146 84.238793,81.4699368 82.9565394,82.775502 C81.6750719,84.081852 79.9195402,84.8178015 78.0877495,84.817017 L77.8652615,84.817017 C75.7087798,84.8201554 73.7920821,86.1900572 73.0963159,88.227649 C72.4964635,89.9937712 71.2024172,91.4405635 69.5113518,92.2345731 C67.8399411,93.0309365 65.9114506,93.0905657 64.1928691,92.4009071 C62.1480245,91.6225894 59.8335214,92.2628185 58.4805118,93.9795112 C57.3279774,95.4357185 55.6306227,96.3607555 53.7807499,96.5427814 C51.9560347,96.7153922 50.1415397,96.1261617 48.7680896,94.9155326 C47.8663453,94.1034772 46.6941564,93.6562583 45.4803001,93.6617505 C44.5478951,93.6617505 43.633572,93.919882 42.839534,94.4078999 C41.275043,95.3949196 39.370138,95.6883581 37.5808005,95.2168168 C35.8056144,94.7688133 34.3040175,93.5895678 33.4486577,91.9725186 C32.9517943,91.0459124 32.1679765,90.3052552 31.2135586,89.8596055 L35.70577,85.3630947 C49.920624,91.0882806 66.1866122,87.7819994 77.0248391,76.9647954 C87.8638519,66.1475913 91.1760129,49.9135469 85.4392841,35.7288633 L89.9495778,31.2268602 C90.3945535,32.179358 91.1382764,32.9615987 92.0667506,33.4558931 C93.6862739,34.3111012 94.8671106,35.8096765 95.3183759,37.581291 C95.7900817,39.3709509 95.4936931,41.2767309 94.4999662,42.8396431 C93.343501,44.6959937 93.5463344,47.0905761 94.9991882,48.72724 C96.2169753,50.1002805 96.812897,51.9142629 96.6462277,53.7400143 C96.4661933,55.5853805 95.5424361,57.2793199 94.0864376,58.4311046 L94.092727,58.4311046 Z" id="Shape"></path>
                        <path d="M2.67457175,55.3790321 C1.21307012,57.7171237 0.776742206,60.5510789 1.46857737,63.2194847 C2.14547513,65.8925981 3.92616445,68.1537993 6.36960066,69.4413188 C6.9859629,69.7849713 7.30672284,70.4887525 7.16049394,71.1776266 C7.08030406,71.5573703 7.01976833,71.9402524 6.97967349,72.3254883 C6.90577282,73.0237773 7.27999274,73.6930364 7.91443709,73.9966745 C8.54888123,74.2995278 9.3067554,74.1716391 9.80519109,73.6757754 L17.7094079,65.7874624 L65.8320467,17.763219 L73.7331188,9.8764753 C74.2307684,9.37825775 74.3589151,8.62190868 74.0538787,7.98795634 C73.7496284,7.354004 73.0774476,6.98053703 72.3769647,7.05664264 C71.9917382,7.09744175 71.6088703,7.15785548 71.2299334,7.23709947 C70.5388843,7.38381869 69.8328979,7.06370414 69.4885528,6.44779733 C68.2007961,4.00927789 65.9381805,2.22981741 63.2604639,1.55114323 C60.5921815,0.863053927 57.7572296,1.29693462 55.4175689,2.75235743 C54.8012066,3.13053207 54.0110995,3.06697977 53.4631346,2.59622308 C51.3962771,0.7673333 48.6627419,-0.125535117 45.9126972,0.130242784 C43.1532182,0.401712373 40.6233029,1.7833832 38.90708,3.95671001 C38.4550285,4.51141835 37.7026578,4.72247422 37.0273323,4.4839575 C34.4549634,3.47026143 31.5767719,3.56205893 29.0743729,4.73738156 C26.5625395,5.92447296 24.6419106,8.07975384 23.7558899,10.70893 C23.5349744,11.4127112 22.8651522,11.8787604 22.1269325,11.8434537 C19.3682399,11.7995164 16.7070331,12.8649956 14.7431645,14.7990212 C12.7942334,16.7479536 11.7218891,19.4030214 11.7729905,22.155379 C11.7753489,22.8874056 11.3170082,23.542542 10.6275316,23.7928275 C7.998558,24.6802039 5.84286243,26.5961835 4.65573608,29.1006091 C3.48276121,31.5916966 3.38920618,34.4546818 4.39708412,37.0171675 C4.64394359,37.6989801 4.43010363,38.4623906 3.86327035,38.9166707 C1.69185145,40.6333634 0.31211195,43.1566192 0.0408811688,45.9081921 C-0.208336675,48.6589803 0.694193743,51.3909384 2.53384634,53.4552065 C2.98825615,54.0004995 3.04486085,54.7733252 2.67457175,55.3790321 Z M25.3180223,25.3565245 C34.8221078,15.7938868 49.0220246,12.6013719 61.7164138,17.174773 L59.0575653,19.8369023 C47.9426046,16.4858992 35.8818735,19.5081571 27.6718343,27.7008926 C19.4610086,35.8944128 16.4318713,47.9300921 19.7888443,59.0226889 L17.1213478,61.6856025 C12.5371539,49.0151863 15.7353191,34.8414871 25.3180223,25.3549552 L25.3180223,25.3565245 Z M22.4932908,56.319761 C20.2817769,46.8520593 23.1261627,36.9159549 30.0146395,30.0429072 C36.9023304,23.1690749 46.8584674,20.332766 56.3452571,22.5406147 L22.4932908,56.319761 Z M5.90575653,41.5403546 C7.63613057,40.1861447 8.27843657,37.863745 7.48990187,35.8151688 C6.80278367,34.1055373 6.86253307,32.1864193 7.65578493,30.5238636 C8.45139557,28.8377701 9.89796,27.5463275 11.664498,26.9437589 C13.7431482,26.2431161 15.1299633,24.2831992 15.096944,22.0941805 C15.0592075,20.2660755 15.7596907,18.4999533 17.0419441,17.194388 C18.3241977,15.8880381 20.0789433,15.1520886 21.9115203,15.1528731 L22.1340081,15.1528731 C24.2904898,15.1497347 26.2064016,13.7790481 26.9021676,11.7422411 C27.5051647,9.97611885 28.8015696,8.53089572 30.4942072,7.73845539 C32.165618,6.94209195 34.0941086,6.88246277 35.81269,7.57212136 C37.8567484,8.35043909 40.1704654,7.71099454 41.5234748,5.99508636 C42.6760094,4.53966355 44.3733639,3.61462681 46.2232369,3.43260089 C48.0479521,3.25920536 49.8624471,3.84843587 51.2358972,5.05984974 C52.880578,6.52233385 55.2941392,6.72868225 57.1644528,5.56669788 C58.7289437,4.58046267 60.6338488,4.28780878 62.4231861,4.75778092 C64.1983724,5.20656896 65.699969,6.38502977 66.5553289,8.00207914 C67.0521923,8.92868517 67.8360103,9.6701269 68.7904282,10.114992 L64.2832794,14.6169952 C50.0692115,8.88631717 33.8000786,12.1902444 22.9610658,23.0098023 C12.1228389,33.8285755 8.81539505,50.0657583 14.5599855,64.2496572 L10.049692,68.7430298 C9.60392995,67.790532 8.86099338,67.0082914 7.93173287,66.513997 C6.31299597,65.6587889 5.13215903,64.1602135 4.68089372,62.3885991 C4.2084018,60.5989392 4.50479023,58.6931592 5.4985171,57.130247 C6.65498252,55.2738964 6.45214913,52.879314 5.00008141,51.2418655 C3.78150801,49.8696096 3.18558646,48.0556272 3.35304196,46.2298758 C3.53307649,44.3845096 4.45683352,42.6905702 5.91283207,41.5387855 L5.90575653,41.5403546 Z" id="Shape"></path>
                    </g>
                </g>
            </g>
        </g>
    </g>
</svg>