<svg xmlns="http://www.w3.org/2000/svg" width="460.088" height="615.098" viewBox="0 0 460.088 615.098">
  <g id="Mobile_login-pana_3_" data-name="Mobile login-pana (3)" transform="translate(-93.67 -38.719)">
    <g id="freepik--Floor--inject-48" transform="translate(93.67 653.046)">
      <path id="Path_2413" data-name="Path 2413" d="M553.758,453.256c0,.208-103,.386-230.022.386s-230.066-.178-230.066-.386,102.988-.386,230.066-.386S553.758,453.063,553.758,453.256Z" transform="translate(-93.67 -452.87)" fill="#263238"/>
    </g>
    <g id="freepik--Plant--inject-48" transform="translate(426.094 313.812)">
      <path id="Path_2414" data-name="Path 2414" d="M345.076,382.2c-22.918-16.005-28.109-45.717-27.2-72.432.148-4.45-.341-9.167,1.78-13.068s7.076-6.586,11.066-4.717c3.308,1.557,4.747,5.414,6.6,8.6a26.049,26.049,0,0,0,10.458,9.983c2.833,1.483,6.349,2.373,9.152.831,3.857-2.121,4.3-7.417,4.272-11.867q0-12.415-.148-24.8a41.283,41.283,0,0,1,1.335-13.172c1.38-4.213,4.45-8.114,8.648-9.3s9.434,1.261,10.383,5.592a42.713,42.713,0,0,1,.134,5.518c.119,1.854.979,3.886,2.715,4.45s3.545-.727,4.88-2.032c4.569-4.45,7.684-10.25,10.576-15.976s5.726-11.615,9.879-16.495,9.894-8.752,16.317-9.123,13.113,3.575,14.715,9.8S438.6,246.6,434.7,251.654a99.19,99.19,0,0,1-20.6,19.654A8.069,8.069,0,0,0,410.64,275c-.964,2.967,1.839,5.933,4.762,6.868,3.308,1.1,6.9.756,10.383,1.172s7.194,1.928,8.514,5.192c1.81,4.539-1.988,9.286-5.711,12.4a85.116,85.116,0,0,1-25.1,14.492c-3.263,1.187-6.69,2.24-9.33,4.524s-4.213,6.275-2.626,9.4,5.666,4.124,9.093,3.486,6.467-2.477,9.731-3.708c6.1-2.3,13.958-1.884,17.8,3.382a14.032,14.032,0,0,1,1.483,12.416,32.383,32.383,0,0,1-6.72,10.962,85.485,85.485,0,0,1-36.579,25.558c-14.136,4.9-27.234,6.23-41.281,1.083" transform="translate(-317.775 -224.174)" fill="#8dc63f"/>
      <path id="Path_2415" data-name="Path 2415" d="M425.548,226.66s-.134.148-.43.415l-1.32,1.172c-1.157,1.038-2.863,2.551-5.014,4.554a165.55,165.55,0,0,0-16.94,18.29c-3.308,4.109-6.734,8.767-10.383,13.825s-7.417,10.517-11.155,16.317a201.236,201.236,0,0,0-10.932,18.957c-1.721,3.4-3.234,6.942-4.791,10.561l-4.6,11.051a407.692,407.692,0,0,0-15.812,42.676,198.77,198.77,0,0,0-7.417,36.386,144.688,144.688,0,0,0-.415,25.054c.237,2.967.46,5.236.668,6.779.089.742.148,1.335.208,1.765v.608a3.092,3.092,0,0,1-.134-.593c-.074-.43-.163-1.009-.282-1.75-.267-1.483-.549-3.827-.816-6.794a137.853,137.853,0,0,1,.148-25.128,195.514,195.514,0,0,1,7.254-36.55,398.117,398.117,0,0,1,15.768-42.779l4.717-11.006c1.557-3.6,3.085-7.179,4.821-10.591a198.629,198.629,0,0,1,11.021-19c3.8-5.933,7.624-11.3,11.229-16.317s7.09-9.7,10.383-13.8a157.682,157.682,0,0,1,17.162-18.156c2.2-1.973,3.946-3.456,5.132-4.45L425,227.046a3.236,3.236,0,0,1,.549-.386Z" transform="translate(-309.217 -222.972)" fill="#263238"/>
      <path id="Path_2416" data-name="Path 2416" d="M360.107,291.9a9.182,9.182,0,0,1-.43-1.884c-.237-1.231-.5-2.967-.816-5.221-.638-4.45-1.29-10.547-1.988-17.3s-1.483-12.861-2.136-17.266c-.341-2.2-.638-3.961-.845-5.192a8.007,8.007,0,0,1-.252-1.928,8.205,8.205,0,0,1,.549,1.854c.326,1.216.7,2.967,1.112,5.177.846,4.45,1.676,10.5,2.373,17.266s1.29,12.7,1.75,17.311c.222,2.077.415,3.842.564,5.251a8.219,8.219,0,0,1,.119,1.928Z" transform="translate(-300.44 -215.021)" fill="#263238"/>
      <path id="Path_2417" data-name="Path 2417" d="M415.011,268.853a11.863,11.863,0,0,1-2.2.267c-1.483.134-3.59.311-6.2.608-5.221.564-12.4,1.6-20.277,3.085s-14.952,3.16-20.04,4.45c-2.537.653-4.584,1.246-5.933,1.646a10.826,10.826,0,0,1-2.225.534,12.921,12.921,0,0,1,2.136-.845c1.394-.49,3.412-1.172,5.933-1.9,5.058-1.483,12.134-3.249,20.04-4.762A201.946,201.946,0,0,1,406.5,269.12c2.626-.223,4.747-.311,6.23-.341a11.4,11.4,0,0,1,2.284.074Z" transform="translate(-298.265 -202.627)" fill="#263238"/>
      <path id="Path_2418" data-name="Path 2418" d="M350.653,342.452a3.087,3.087,0,0,1-.386-.7l-.979-2.062c-.846-1.795-1.988-4.45-3.352-7.7-2.759-6.527-6.275-15.664-10.013-25.81s-7.179-19.283-9.79-25.884c-1.276-3.2-2.329-5.829-3.115-7.788l-.831-2.121a2.863,2.863,0,0,1-.237-.771,3.087,3.087,0,0,1,.386.7l.979,2.062c.831,1.795,1.988,4.45,3.352,7.7,2.759,6.527,6.275,15.664,10.013,25.81s7.179,19.283,9.79,25.884c1.276,3.2,2.329,5.83,3.1,7.788.341.845.623,1.483.846,2.121a2.866,2.866,0,0,1,.237.771Z" transform="translate(-315.757 -202.208)" fill="#263238"/>
      <path id="Path_2419" data-name="Path 2419" d="M417.074,302.25a3.146,3.146,0,0,1-.757.311l-2.2.742-8.114,2.625c-6.853,2.225-16.317,5.4-26.7,8.9s-19.892,6.616-26.789,8.692c-3.441,1.053-6.245,1.854-8.188,2.388l-2.24.579a3.845,3.845,0,0,1-.8.163,3.141,3.141,0,0,1,.757-.311l2.2-.742,8.114-2.625c6.853-2.225,16.317-5.4,26.7-8.9s19.877-6.616,26.774-8.692c3.456-1.053,6.245-1.854,8.2-2.388l2.24-.579A3.847,3.847,0,0,1,417.074,302.25Z" transform="translate(-306.409 -186.436)" fill="#263238"/>
    </g>
    <g id="freepik--Padlock--inject-48" transform="translate(418.894 38.719)">
      <path id="Path_2420" data-name="Path 2420" d="M399.873,69.811l-7.639,2.729-3.278-9.983c-6.022-18.408-25.217-28.183-42.854-21.968s-27.026,26.4-21,44.812l3.278,9.983-7.669,2.744a12.193,12.193,0,0,0-7.15,15.249l21.256,64.956a11.466,11.466,0,0,0,14.626,7.58L428.605,157.6a12.252,12.252,0,0,0,7.224-15.4L414.558,77.243a11.437,11.437,0,0,0-14.685-7.432ZM339.531,80.194a19.565,19.565,0,0,1,11.511-24.549,18.334,18.334,0,0,1,23.481,12.03l3.263,9.983L342.794,90.177Zm44.5,57.643,5.429,16.584a1.35,1.35,0,0,1-.845,1.661l-7.61,2.715a1.216,1.216,0,0,1-1.483-.8l-5.474-16.51A14.833,14.833,0,0,1,360.7,131.1a15.59,15.59,0,0,1,9.182-19.55,14.611,14.611,0,0,1,18.7,9.582,15.842,15.842,0,0,1-4.539,16.747Z" transform="translate(-312.921 -38.719)" fill="#8dc63f"/>
      <path id="Path_2421" data-name="Path 2421" d="M386.968,61.4c0,.208-14.166,5.533-31.788,11.867s-32,11.422-32.07,11.273,14.166-5.518,31.8-11.867S386.894,61.209,386.968,61.4Z" transform="translate(-307.996 -27.759)" fill="#263238"/>
      <path id="Path_2422" data-name="Path 2422" d="M396.563,63.24a2.593,2.593,0,0,1,.163.4c.119.3.252.682.43,1.157.386,1.083.92,2.581,1.587,4.45l5.7,16.584c2.373,7.031,5.207,15.367,8.351,24.623,1.483,4.643,3.234,9.479,4.865,14.566a22.249,22.249,0,0,1,1.113,8.144,10.934,10.934,0,0,1-1.2,4.109,11.333,11.333,0,0,1-2.8,3.308,26.7,26.7,0,0,1-7.535,3.842l-7.639,2.744-14.463,5.177-24.49,8.722L344.1,166.881l-4.45,1.483-1.187.386a1.262,1.262,0,0,1-.4.1.779.779,0,0,0,.371-.178l1.157-.46,4.45-1.676,16.45-6.052,24.445-8.9,14.433-5.221,7.639-2.759a25.41,25.41,0,0,0,7.313-3.723,10.546,10.546,0,0,0,2.611-3.071A9.759,9.759,0,0,0,418.042,133a21.344,21.344,0,0,0-1.068-7.847c-1.6-5.043-3.293-9.924-4.821-14.566-3.085-9.271-5.933-17.637-8.188-24.668s-4.153-12.683-5.459-16.658c-.623-1.943-1.1-3.456-1.483-4.554l-.356-1.187a1.385,1.385,0,0,1-.1-.282Z" transform="translate(-300.77 -26.868)" fill="#263238"/>
      <path id="Path_2423" data-name="Path 2423" d="M359.635,50.381s-.786-.386-2.24-.979a19.758,19.758,0,0,0-6.482-1.305,22.25,22.25,0,0,0-9.582,1.81,21.36,21.36,0,0,0-9.063,7.58,20.054,20.054,0,0,0-3.486,11.259,34.7,34.7,0,0,0,1.483,9.716c.771,2.7,1.572,4.851,2.106,6.349a16.578,16.578,0,0,1,.771,2.344,13.02,13.02,0,0,1-1.053-2.24c-.608-1.483-1.483-3.59-2.344-6.3a33.732,33.732,0,0,1-1.706-9.864,20.336,20.336,0,0,1,3.56-11.689,21.7,21.7,0,0,1,9.419-7.8,22.072,22.072,0,0,1,9.864-1.691,18.675,18.675,0,0,1,6.571,1.558,12.247,12.247,0,0,1,1.6.89A2.211,2.211,0,0,1,359.635,50.381Z" transform="translate(-305.613 -34.464)" fill="#263238"/>
      <path id="Path_2424" data-name="Path 2424" d="M352.7,89.185a5.116,5.116,0,0,1,.742-.371,14.728,14.728,0,0,1,2.3-.816,16.449,16.449,0,0,1,3.842-.653,13.024,13.024,0,0,1,5.207.786c3.8,1.335,7.283,5.207,9,10.383a14.952,14.952,0,0,1,0,8.514,19.283,19.283,0,0,1-4.776,8l.089-.4c1.973,5.414,4.124,11.288,6.349,17.414l.134.371-.371.133-3.4,1.127-7.417,2.477-.371.119-.119-.371c-2.032-6.141-4.257-11.867-5.933-17.489l.326.252a14.833,14.833,0,0,1-7.951-3.13,17.95,17.95,0,0,1-4.969-5.933,13.557,13.557,0,0,1-1.572-6.675,16.109,16.109,0,0,1,6.215-12.252,9.435,9.435,0,0,1,2.566-1.483A28.6,28.6,0,0,0,350.16,90.8a15.769,15.769,0,0,0-4.584,6.512,14.032,14.032,0,0,0,.46,11.971,17.415,17.415,0,0,0,4.85,5.7,14.122,14.122,0,0,0,7.58,2.967h.252l.074.222c1.632,5.518,3.871,11.288,5.933,17.459l-.489-.237,7.417-2.477,3.382-1.142-.237.5c-2.21-6.126-4.346-12.015-6.3-17.429v-.223l.178-.178a18.9,18.9,0,0,0,4.687-7.669,14.344,14.344,0,0,0,0-8.144c-1.617-4.984-4.954-8.767-8.574-10.1a12.743,12.743,0,0,0-5.029-.845,17,17,0,0,0-3.8.519C353.75,88.755,352.711,89.26,352.7,89.185Z" transform="translate(-297.992 -15.225)" fill="#263238"/>
    </g>
    <g id="freepik--Device--inject-48" transform="translate(247.463 104.298)">
      <path id="Path_2425" data-name="Path 2425" d="M377.635,519.611l-148.171-.682A32.293,32.293,0,0,1,197.35,486.5l1.572-371.443A32.263,32.263,0,0,1,231.348,82.93l148.156.682a32.292,32.292,0,0,1,32.129,32.411l-1.572,371.429A32.292,32.292,0,0,1,377.635,519.611Z" transform="translate(-197.35 -82.93)" fill="#455a64"/>
      <path id="Path_2426" data-name="Path 2426" d="M376.068,92.164H347.35a7.135,7.135,0,0,0-7,7.268v5.207a7.12,7.12,0,0,1-7,7.254l-55.981-.252a7.15,7.15,0,0,1-6.957-7.328V99.106a7.15,7.15,0,0,0-6.942-7.328h-10.1l-25.143-.119a22.606,22.606,0,0,0-22.74,22.384L204,476.6a22.591,22.591,0,0,0,22.487,22.7l147.859.682a22.606,22.606,0,0,0,22.71-22.5l1.483-362.558a22.621,22.621,0,0,0-22.473-22.754Z" transform="translate(-194.136 -78.71)" fill="#fff"/>
      <path id="Path_2427" data-name="Path 2427" d="M343.082,345.645l-109.945-.475c-1.142,0-2.062-1.246-2.047-2.759l.119-28.762c0-1.483.935-2.759,2.077-2.759l109.945.5a2.492,2.492,0,0,1,2.047,2.774l-.1,28.732C345.174,344.428,344.224,345.659,343.082,345.645Z" transform="translate(-181.042 27.253)" fill="#8dc63f"/>
      <text id="SING_UP" data-name="SING UP" transform="translate(81.94 357.132)" fill="#e8e8e3" font-size="10" font-family="Montserrat-Regular, Montserrat"><tspan x="0" y="0">SING UP</tspan></text>
      <rect id="Rectangle_153" data-name="Rectangle 153" width="38.152" height="7.001" transform="translate(35.874 119.86) rotate(0.26)" fill="#8dc63f"/>
      <rect id="Rectangle_154" data-name="Rectangle 154" width="38.152" height="7.001" transform="translate(35.874 119.86) rotate(0.26)" opacity="0.1"/>
      <path id="Path_2428" data-name="Path 2428" d="M371.692,201.347a3.411,3.411,0,0,0,.875-.208,2.343,2.343,0,0,0,1.483-2v-19.7a2.878,2.878,0,0,0-.415-1.943,2.225,2.225,0,0,0-1.765-.9H348.122l-124.067-.46a1.973,1.973,0,0,0-1.632.816,2.833,2.833,0,0,0-.386,1.943v17.8a11.7,11.7,0,0,0,0,2.077,2,2,0,0,0,1.157,1.335,2.314,2.314,0,0,0,.92.163h7.55l32.945.178,55.774.341,37.6.3,10.22.119H320.383l-55.774-.178-32.945-.133h-7.55a2.967,2.967,0,0,1-1.216-.208,2.788,2.788,0,0,1-1.6-1.854,4.2,4.2,0,0,1-.089-1.187v-18.9a8.3,8.3,0,0,1,0-1.187,2.522,2.522,0,0,1,.49-1.2,2.729,2.729,0,0,1,2.255-1.142l124.067.682,21.434.148h2.314a2.537,2.537,0,0,1,2.077,1.083,3.159,3.159,0,0,1,.475,2.18v9.479c0,4.45-.1,7.862-.133,10.235a2.4,2.4,0,0,1-1.557,2.062,1.779,1.779,0,0,1-.934.267Z" transform="translate(-185.829 -38.327)" fill="#e0e0e0"/>
      <rect id="Rectangle_155" data-name="Rectangle 155" width="69.776" height="6.542" transform="translate(47.334 145.249)" fill="#8dc63f"/>
      <rect id="Rectangle_156" data-name="Rectangle 156" width="69.776" height="6.542" transform="translate(47.334 145.249)" fill="#fff" opacity="0.2"/>
      <rect id="Rectangle_157" data-name="Rectangle 157" width="38.152" height="7.001" transform="translate(35.613 183.731) rotate(0.26)" fill="#8dc63f"/>
      <rect id="Rectangle_158" data-name="Rectangle 158" width="38.152" height="7.001" transform="translate(35.613 183.731) rotate(0.26)" opacity="0.1"/>
      <path id="Path_2429" data-name="Path 2429" d="M370.84,244.353a7.662,7.662,0,0,0,.89-.163A3.041,3.041,0,0,0,373.6,242.5a4.154,4.154,0,0,0,.267-1.884v-17.7a3.189,3.189,0,0,0-.43-1.958,2.877,2.877,0,0,0-1.617-1.261,9.092,9.092,0,0,0-2.24-.119H348.233l-123.636-.46a2.744,2.744,0,0,0-2.715,2.388v17.8a8.516,8.516,0,0,0,.089,2.077,2.818,2.818,0,0,0,1.083,1.483,3.086,3.086,0,0,0,1.839.475h6.349l32.826.163,55.581.341,37.469.3,10.191.119h-47.66l-55.61-.059-32.826-.119H224.76a3.723,3.723,0,0,1-2.269-.608,3.56,3.56,0,0,1-1.394-1.943,9.346,9.346,0,0,1-.119-2.284q0-2.225,0-4.45v-13.35a3.516,3.516,0,0,1,3.486-3.071l123.636.682,21.345.163a9.184,9.184,0,0,1,2.373.163,3.278,3.278,0,0,1,1.824,1.483,3.575,3.575,0,0,1,.475,2.166v17.77a4.14,4.14,0,0,1-.312,1.943,3.145,3.145,0,0,1-2,1.691A2.787,2.787,0,0,1,370.84,244.353Z" transform="translate(-185.941 -17.461)" fill="#e0e0e0"/>
      <rect id="Rectangle_159" data-name="Rectangle 159" width="38.152" height="7.001" transform="translate(35.326 250.376) rotate(0.26)" fill="#8dc63f"/>
      <rect id="Rectangle_160" data-name="Rectangle 160" width="38.152" height="7.001" transform="translate(35.326 250.376) rotate(0.26)" opacity="0.1"/>
      <path id="Path_2430" data-name="Path 2430" d="M370.6,289.326a7.094,7.094,0,0,0,.89-.163,3.056,3.056,0,0,0,1.869-1.676,4.183,4.183,0,0,0,.267-1.884c0-.727,0-1.483,0-2.359V267.892a3.189,3.189,0,0,0-.43-1.958,2.967,2.967,0,0,0-1.617-1.246,9.063,9.063,0,0,0-2.24-.133H347.99l-123.636-.46a2.744,2.744,0,0,0-2.715,2.388v17.8a8.394,8.394,0,0,0,.089,2.062,2.714,2.714,0,0,0,1.083,1.483,2.967,2.967,0,0,0,1.839.475H231.1l32.826.178,55.581.341,37.469.3,10.191.119H319.51l-55.581-.163L231.1,288.94H224.65a3.634,3.634,0,0,1-2.27-.608,3.56,3.56,0,0,1-1.394-1.943,9.343,9.343,0,0,1-.119-2.284q0-2.225,0-4.45V266.231a3.5,3.5,0,0,1,3.471-3.071l123.636.682,21.345.163a9.185,9.185,0,0,1,2.373.163,3.278,3.278,0,0,1,1.824,1.483,3.575,3.575,0,0,1,.475,2.166v17.77a4.065,4.065,0,0,1-.311,1.943,3.145,3.145,0,0,1-2,1.691A2.344,2.344,0,0,1,370.6,289.326Z" transform="translate(-185.994 4.183)" fill="#e0e0e0"/>
      <rect id="Rectangle_161" data-name="Rectangle 161" width="69.776" height="6.542" transform="translate(45.844 210.656) rotate(0.26)" fill="#8dc63f"/>
      <rect id="Rectangle_162" data-name="Rectangle 162" width="69.776" height="6.542" transform="translate(45.844 210.656) rotate(0.26)" fill="#fff" opacity="0.2"/>
      <path id="Path_2431" data-name="Path 2431" d="M234.5,273.708a3.056,3.056,0,1,1-2.967-3.278A3.145,3.145,0,0,1,234.5,273.708Z" transform="translate(-182.344 7.697)" fill="#8dc63f"/>
      <path id="Path_2432" data-name="Path 2432" d="M240.869,273.735a3.056,3.056,0,1,1-1.459-2.823,3.056,3.056,0,0,1,1.459,2.823Z" transform="translate(-179.266 7.715)" fill="#8dc63f"/>
      <path id="Path_2433" data-name="Path 2433" d="M247.249,273.769a3.056,3.056,0,1,1-2.967-3.278A3.16,3.16,0,0,1,247.249,273.769Z" transform="translate(-176.182 7.726)" fill="#8dc63f"/>
      <path id="Path_2434" data-name="Path 2434" d="M253.619,273.8a3.056,3.056,0,1,1-2.967-3.278,3.16,3.16,0,0,1,2.967,3.278Z" transform="translate(-173.103 7.74)" fill="#8dc63f"/>
      <path id="Path_2435" data-name="Path 2435" d="M259.989,273.814a3.056,3.056,0,1,1-2.967-3.263A3.159,3.159,0,0,1,259.989,273.814Z" transform="translate(-170.024 7.755)" fill="#8dc63f"/>
      <path id="Path_2436" data-name="Path 2436" d="M266.369,273.843a3.056,3.056,0,1,1-3.041-3.263,3.16,3.16,0,0,1,3.041,3.263Z" transform="translate(-166.94 7.769)" fill="#8dc63f"/>
      <path id="Path_2437" data-name="Path 2437" d="M272.739,273.875a3.056,3.056,0,1,1-1.459-2.823A3.056,3.056,0,0,1,272.739,273.875Z" transform="translate(-163.861 7.782)" fill="#8dc63f"/>
      <path id="Path_2438" data-name="Path 2438" d="M279.109,273.9a3.056,3.056,0,1,1-3.041-3.263,3.16,3.16,0,0,1,3.041,3.263Z" transform="translate(-160.783 7.798)" fill="#8dc63f"/>
      <path id="Path_2439" data-name="Path 2439" d="M285.479,273.934a3.056,3.056,0,1,1-2.967-3.263A3.16,3.16,0,0,1,285.479,273.934Z" transform="translate(-157.704 7.813)" fill="#8dc63f"/>
      <g id="Group_214" data-name="Group 214" transform="translate(46.051 278.126)" opacity="0.2">
        <path id="Path_2440" data-name="Path 2440" d="M234.5,273.708a3.056,3.056,0,1,1-2.967-3.278A3.145,3.145,0,0,1,234.5,273.708Z" transform="translate(-228.395 -270.429)" fill="#fff"/>
        <path id="Path_2441" data-name="Path 2441" d="M240.869,273.735a3.056,3.056,0,1,1-1.459-2.823,3.056,3.056,0,0,1,1.459,2.823Z" transform="translate(-225.317 -270.411)" fill="#fff"/>
        <path id="Path_2442" data-name="Path 2442" d="M247.249,273.769a3.056,3.056,0,1,1-2.967-3.278A3.16,3.16,0,0,1,247.249,273.769Z" transform="translate(-222.233 -270.4)" fill="#fff"/>
        <path id="Path_2443" data-name="Path 2443" d="M253.619,273.8a3.056,3.056,0,1,1-2.967-3.278,3.16,3.16,0,0,1,2.967,3.278Z" transform="translate(-219.154 -270.386)" fill="#fff"/>
        <path id="Path_2444" data-name="Path 2444" d="M259.989,273.814a3.056,3.056,0,1,1-2.967-3.263A3.159,3.159,0,0,1,259.989,273.814Z" transform="translate(-216.075 -270.371)" fill="#fff"/>
        <path id="Path_2445" data-name="Path 2445" d="M266.369,273.843a3.056,3.056,0,1,1-3.041-3.263,3.16,3.16,0,0,1,3.041,3.263Z" transform="translate(-212.992 -270.357)" fill="#fff"/>
        <path id="Path_2446" data-name="Path 2446" d="M272.739,273.875a3.056,3.056,0,1,1-1.459-2.823A3.056,3.056,0,0,1,272.739,273.875Z" transform="translate(-209.913 -270.344)" fill="#fff"/>
        <path id="Path_2447" data-name="Path 2447" d="M279.109,273.9a3.056,3.056,0,1,1-3.041-3.263,3.16,3.16,0,0,1,3.041,3.263Z" transform="translate(-206.834 -270.327)" fill="#fff"/>
        <path id="Path_2448" data-name="Path 2448" d="M285.479,273.934a3.056,3.056,0,1,1-2.967-3.263A3.16,3.16,0,0,1,285.479,273.934Z" transform="translate(-203.755 -270.313)" fill="#fff"/>
      </g>
      <path id="Path_2449" data-name="Path 2449" d="M278.3,132.1a5.741,5.741,0,0,0,3.426-5.325,5.4,5.4,0,1,0-10.784,0,5.756,5.756,0,0,0,3.441,5.385c-8.307,1.246-7.936,10.265-7.936,10.265l19.639.089S286.55,133.328,278.3,132.1Z" transform="translate(-163.952 -64.486)" fill="#8dc63f"/>
      <path id="Path_2450" data-name="Path 2450" d="M278.3,132.1a5.741,5.741,0,0,0,3.426-5.325,5.4,5.4,0,1,0-10.784,0,5.756,5.756,0,0,0,3.441,5.385c-8.307,1.246-7.936,10.265-7.936,10.265l19.639.089S286.55,133.328,278.3,132.1Z" transform="translate(-163.952 -64.486)" opacity="0.1"/>
      <rect id="Rectangle_163" data-name="Rectangle 163" width="69.999" height="8.366" transform="translate(76.266 83.524) rotate(0.26)" fill="#8dc63f"/>
      <rect id="Rectangle_164" data-name="Rectangle 164" width="69.999" height="8.366" transform="translate(76.266 83.524) rotate(0.26)" fill="#fff" opacity="0.2"/>
    </g>
    <g id="freepik--speech-bubble--inject-48" transform="translate(98.231 231.495)">
      <path id="Path_2451" data-name="Path 2451" d="M134.9,168.68h-.7l-2.017.148a22.882,22.882,0,0,0-3.249.43,20.063,20.063,0,0,0-2.062.4l-2.3.638a37.779,37.779,0,0,0-10.932,5.414A38.477,38.477,0,0,0,102.879,187.7a40.169,40.169,0,0,0-3.768,8.618,41.445,41.445,0,0,0-1.646,10.057,40.76,40.76,0,0,0,.089,5.37,21.9,21.9,0,0,0,.371,2.729,17.537,17.537,0,0,0,.519,2.744,39.145,39.145,0,0,0,22.25,27.19,35.245,35.245,0,0,0,12.742,2.863,34.4,34.4,0,0,0,13.35-1.913l1.305-.49h.178l.148.089,18.7,9.493-.549.475c-2-6.2-3.931-12.208-5.8-17.978v-.222l.163-.163a40.05,40.05,0,0,0,9.82-16.317,41.088,41.088,0,0,0,1.483-17.385,40.614,40.614,0,0,0-4.91-14.744,40.051,40.051,0,0,0-8.455-10.383,41.312,41.312,0,0,0-9.182-5.844,39.959,39.959,0,0,0-7.773-2.447l-2.967-.49-2.151-.163-1.305-.089h-.445a2.02,2.02,0,0,1,.445,0h1.32l2.151.089,2.967.43a39.307,39.307,0,0,1,7.877,2.359,41.223,41.223,0,0,1,9.345,5.83,40.155,40.155,0,0,1,8.633,10.383,40.718,40.718,0,0,1,5.058,14.937,41.533,41.533,0,0,1-1.379,17.681,40.584,40.584,0,0,1-9.968,16.658l.089-.386c1.869,5.77,3.812,11.778,5.83,17.963l.282.9-.846-.43-18.7-9.479h.326l-1.335.49a35.394,35.394,0,0,1-13.6,1.958,36.045,36.045,0,0,1-13.009-2.967,39.027,39.027,0,0,1-18.586-16.628,39.6,39.6,0,0,1-4.2-10.977,22.724,22.724,0,0,1-.519-2.8c-.119-.935-.312-1.854-.356-2.774a43.833,43.833,0,0,1,1.646-15.664,39.888,39.888,0,0,1,3.872-8.722,38.819,38.819,0,0,1,10.992-12.06,37.5,37.5,0,0,1,11.11-5.37l2.329-.593a20.611,20.611,0,0,1,2.077-.371,22.024,22.024,0,0,1,3.278-.356l2.032-.074A4.978,4.978,0,0,1,134.9,168.68Z" transform="translate(-96.745 -168.68)" fill="#8dc63f"/>
      <path id="Path_2452" data-name="Path 2452" d="M135.683,196.5h-2.744l-5.933-8.336V182.69s-4.242-.267-3.738,6.9,0,5.34,0,5.34-9,0-9.746.816-.786,9.508-.89,14.359a5.251,5.251,0,0,0,3.723,5.281,3.678,3.678,0,0,0,.964.134c2.255,0,13.721-1.825,13.721-1.825h4.732Z" transform="translate(-89.069 -161.909)" fill="#8dc63f"/>
      <path id="Path_2453" data-name="Path 2453" d="M135.538,191.01l-1.691,18.749H129.16V191.4Z" transform="translate(-81.077 -157.887)" fill="#8dc63f"/>
    </g>
    <g id="freepik--Character--inject-48" transform="translate(136.375 240.313)">
      <path id="Path_2454" data-name="Path 2454" d="M178.622,452.526V439.843l-22.74-.163-.193,19.18,1.409.1c6.275.4,31.921.994,36.134-.311C197.921,457.2,178.622,452.526,178.622,452.526Z" transform="translate(-106.399 -46.513)" fill="#8dc63f"/>
      <path id="Path_2455" data-name="Path 2455" d="M193.743,451.8c0,.208-8.514.386-19,.386s-19-.178-19-.386,8.514-.386,19-.386S193.743,451.588,193.743,451.8Z" transform="translate(-106.374 -40.843)" fill="#263238"/>
      <path id="Path_2456" data-name="Path 2456" d="M171.444,450.866c-.193-.1,0-.771.46-1.483s1.083-1.009,1.231-.86-.163.712-.608,1.32S171.637,450.97,171.444,450.866Z" transform="translate(-98.82 -42.257)" fill="#263238"/>
      <path id="Path_2457" data-name="Path 2457" d="M172.433,451.555c-.208,0-.1-.831.341-1.617s1.038-1.261,1.2-1.142-.1.786-.519,1.483S172.626,451.629,172.433,451.555Z" transform="translate(-98.355 -42.115)" fill="#263238"/>
      <path id="Path_2458" data-name="Path 2458" d="M162.5,453.08c-.089,0-.43-.267-.92-.831a14.7,14.7,0,0,0-1.988-1.988,5.235,5.235,0,0,0-2.462-1.083c-.7-.089-1.142,0-1.187-.089s.386-.4,1.2-.46a4.583,4.583,0,0,1,2.967,1.009,8.365,8.365,0,0,1,1.958,2.3C162.408,452.591,162.586,453.021,162.5,453.08Z" transform="translate(-106.279 -42.187)" fill="#263238"/>
      <path id="Path_2459" data-name="Path 2459" d="M172.186,448.5c.1.178-.282.623-.935.86s-1.231.148-1.261,0,.43-.46.994-.668S172.067,448.327,172.186,448.5Z" transform="translate(-99.487 -42.284)" fill="#263238"/>
      <path id="Path_2460" data-name="Path 2460" d="M172.119,447.771c0,.223-.593.4-1.365.415s-1.38-.163-1.365-.371.623-.4,1.365-.415S172.09,447.563,172.119,447.771Z" transform="translate(-99.777 -42.781)" fill="#263238"/>
      <path id="Path_2461" data-name="Path 2461" d="M216.372,452.526V439.843l-22.74-.163-.193,18.987,1.409.1c6.275.4,31.936,1.187,36.134-.119C235.671,457.2,216.372,452.526,216.372,452.526Z" transform="translate(-88.152 -46.513)" fill="#8dc63f"/>
      <path id="Path_2462" data-name="Path 2462" d="M231.488,451.816c0,.208-8.5.386-19,.386s-18.987-.178-18.987-.386,8.5-.386,18.987-.386S231.488,451.608,231.488,451.816Z" transform="translate(-88.123 -40.833)" fill="#263238"/>
      <path id="Path_2463" data-name="Path 2463" d="M209.192,450.866c-.178-.1,0-.771.46-1.483s1.083-1.009,1.231-.86-.163.712-.608,1.32S209.385,450.97,209.192,450.866Z" transform="translate(-80.572 -42.257)" fill="#263238"/>
      <path id="Path_2464" data-name="Path 2464" d="M210.181,451.555c-.193,0-.1-.831.356-1.617s1.038-1.261,1.2-1.142-.119.786-.534,1.483S210.389,451.629,210.181,451.555Z" transform="translate(-80.107 -42.115)" fill="#263238"/>
      <path id="Path_2465" data-name="Path 2465" d="M200.247,453.08c-.089,0-.415-.267-.92-.831a14.7,14.7,0,0,0-1.988-1.988,5.235,5.235,0,0,0-2.462-1.083c-.682-.089-1.142,0-1.187-.089s.386-.4,1.2-.46a4.583,4.583,0,0,1,2.967,1.009,8.115,8.115,0,0,1,1.958,2.3C200.158,452.591,200.336,453.021,200.247,453.08Z" transform="translate(-88.033 -42.187)" fill="#263238"/>
      <path id="Path_2466" data-name="Path 2466" d="M209.936,448.5c.1.178-.282.623-.935.86s-1.231.148-1.261,0,.43-.46.994-.668S209.817,448.327,209.936,448.5Z" transform="translate(-81.241 -42.284)" fill="#263238"/>
      <path id="Path_2467" data-name="Path 2467" d="M209.885,447.771c0,.223-.593.4-1.365.415s-1.365-.163-1.35-.371.608-.4,1.35-.415S209.885,447.563,209.885,447.771Z" transform="translate(-81.516 -42.781)" fill="#263238"/>
      <path id="Path_2468" data-name="Path 2468" d="M334.459,200.955c-.593-.608-2.062-.312-2.062-.312a7.6,7.6,0,0,0,0-2.581c-.267-.831-2.136-.668-2.136-.668a8.615,8.615,0,0,1,0-2.106.757.757,0,0,0-.43-.756,6.852,6.852,0,0,0-2.789-.5c-1.142-.816,3.486-7.3,5.207-9.375s1.409-3.694-.119-3.694c-1.053,0-6.452,6.23-8.114,8.322s-6.067,7.906-6.215,3.263-2.017-8.144-3.189-8.737-2.418.8-1.78,2.091a16.6,16.6,0,0,1,1.038,4.569,10.919,10.919,0,0,1-.163,3.738,44.83,44.83,0,0,1-2,6.7h-.119s-32.367,31.046-34.71,33.257c-2.091,1.988-44.159-2.359-52.6-3.249a56.494,56.494,0,0,0-8.663-.593c-3.664.163-4.317.682-7.966.727a180.41,180.41,0,0,0-27.5,2.418,22.8,22.8,0,0,0-17.889,15.516c-8.5,26.552-27.753,89.4-31.15,124.7a149.82,149.82,0,0,0-6.942,14.344c-2.388,6.5-1.81,6.72-1.009,6.868,2.166.4,4.628-11.259,5.548-8.44s-4.673,13.9-2.4,14.225c2.967.415,5.325-11.867,5.607-12.846s1.75-.668,1.483.252c-.43,1.305-4.6,15.145-1.691,15.59,1.6.237,1.78-2.685,1.78-2.685s2.967-13.246,4.317-12.979-.089,8.084-.771,10.695.267,3.931,1.661,3.293c.949-.445,3.219-8.381,3.842-10.962s2.18-9.731,4.272-5.592,5.266,6.542,6.571,6.6a1.483,1.483,0,0,0,.727-2.655,16.809,16.809,0,0,1-2.863-3.708,10.932,10.932,0,0,1-1.483-3.471,37.637,37.637,0,0,1-1.038-7.506l-.237-1.483c3.323-16.45,12.89-64.733,26.7-95.572l5.666,11.659,2.462,8.633-15.1,37.276,64.407-.845L223,297.388l11.674-38.567h0c12.623.282,45.034.757,50.434-1.691,6.794-2.967,41.934-47.348,41.934-47.348h0a81.166,81.166,0,0,0,6.571-5.7S335.75,202.29,334.459,200.955Z" transform="translate(-122.46 -171.563)" fill="#ffbe9d"/>
      <path id="Path_2469" data-name="Path 2469" d="M157.925,292.592c1.869-6.378,11.466-37.914,11.466-37.914s4.717,25.706,3.471,28.807a54.883,54.883,0,0,1-4.05,7.654C157.925,307.707,159.349,316,159.349,316l65.786-2c.148-9.2-5.3-30.586-6.423-34s2.626-14.581,2.626-14.581,7.417-7.55,7.15-11.437A62.863,62.863,0,0,0,227.2,243.6l40.05,1.483-1.261-27.145-57.524-5.755c-2,5.652-20.114,2.878-20.114,2.878-19.55.653-20.767,4.242-28.9,10.561s-21.583,60.55-21.583,60.55Z" transform="translate(-115.012 -156.473)" fill="#8dc63f"/>
      <path id="Path_2470" data-name="Path 2470" d="M185.252,262.828a13.84,13.84,0,0,1-3.456.178c-2.151,0-5.1-.148-8.351-.475s-6.186-.786-8.277-1.2a14.268,14.268,0,0,1-3.367-.86,18.538,18.538,0,0,1,3.456.326c2.106.267,5.029.638,8.262.964s6.171.549,8.292.7A18.3,18.3,0,0,1,185.252,262.828Z" transform="translate(-103.445 -133.132)" fill="#263238"/>
      <path id="Path_2471" data-name="Path 2471" d="M188.959,258.29a15.208,15.208,0,0,1-3.59,1.231,65.947,65.947,0,0,1-18.141,2.151,14.962,14.962,0,0,1-3.768-.356,25.349,25.349,0,0,1,3.768-.193c2.329-.074,5.533-.237,9.063-.653s6.675-1.009,8.9-1.483a24.584,24.584,0,0,1,3.768-.7Z" transform="translate(-102.643 -134.186)" fill="#263238"/>
      <path id="Path_2472" data-name="Path 2472" d="M197.358,241.47a15.442,15.442,0,0,1-.46,3.352c-.386,2.062-.979,4.88-1.735,7.966s-1.483,5.933-2.136,7.862a14.833,14.833,0,0,1-1.157,3.189,15.1,15.1,0,0,1,.623-3.323c.564-2.314,1.2-4.984,1.914-7.906s1.394-5.592,1.958-7.906a14.15,14.15,0,0,1,.994-3.234Z" transform="translate(-88.911 -142.316)" fill="#263238"/>
      <path id="Path_2473" data-name="Path 2473" d="M158.4,265.624a68.955,68.955,0,0,1-10.131-2.359,70.412,70.412,0,0,1-9.938-3.115,71.323,71.323,0,0,1,10.131,2.359,69.615,69.615,0,0,1,9.938,3.115Z" transform="translate(-114.789 -133.287)" fill="#263238"/>
      <path id="Path_2474" data-name="Path 2474" d="M204.538,242.763a4.985,4.985,0,0,1-1.691,0,17.579,17.579,0,0,1-4.524-1.083,18.586,18.586,0,0,1-10.739-10.547,19.165,19.165,0,0,1-1.32-8.351,12.979,12.979,0,0,1,2.032-6.616,6.868,6.868,0,0,1,3.753-2.774,4.539,4.539,0,0,1,1.261-.163h.445a4.81,4.81,0,0,0-1.617.4,6.749,6.749,0,0,0-3.4,2.774c-2.017,3.174-2.581,8.974-.43,14.388a18.126,18.126,0,0,0,4.584,6.7,19.474,19.474,0,0,0,5.622,3.619,28.565,28.565,0,0,0,6.022,1.646Z" transform="translate(-91.641 -155.965)" fill="#263238"/>
      <path id="Path_2475" data-name="Path 2475" d="M222.013,242.908a123.6,123.6,0,0,1-.356-13.676,122.373,122.373,0,0,1,.415-13.662,123.2,123.2,0,0,1,.356,13.662,118.667,118.667,0,0,1-.415,13.676Z" transform="translate(-74.54 -154.834)" fill="#263238"/>
      <path id="Path_2476" data-name="Path 2476" d="M192.407,230.231c.163-3.308.5-7.046.5-7.046s8.188-.9,8.678-9.36,0-27.961,0-27.961l-14.833-7.595L170.29,191.22l2.536,42.275,15.1.964a4.361,4.361,0,0,0,4.48-4.228Z" transform="translate(-99.342 -172.863)" fill="#ffbe9d"/>
      <path id="Path_2477" data-name="Path 2477" d="M187.291,199.3a.688.688,0,0,1-.133.356,1.1,1.1,0,0,1-.935.415c-.949,0-1.869-1.1-2.2-2.373a3.872,3.872,0,0,1,0-1.884,1.632,1.632,0,0,1,.89-1.276.816.816,0,0,1,.623,0,.756.756,0,0,1,.341.341.418.418,0,0,1,0,.4.433.433,0,0,0-.148-.3.534.534,0,0,0-.7-.148,1.261,1.261,0,0,0-.608,1.053,3.8,3.8,0,0,0,0,1.676c.3,1.157,1.1,2.091,1.81,2.18a1.023,1.023,0,0,0,.786-.222C187.2,199.406,187.262,199.287,187.291,199.3Z" transform="translate(-92.758 -165.029)" fill="#eb996e"/>
      <path id="Path_2478" data-name="Path 2478" d="M219.314,183.058c-1.142-3.886-5.281-5.815-9.048-6.883-5.741-1.632-11.941-2.344-17.548-.282s-12.341,5.681-12.341,11.867c-3.308-.267-5.206,2.626-6.512,6.215a23.289,23.289,0,0,0-1.483,6.823h0c-.415,8.1-2.685,19.283-7.936,25.217-2.967,3.308-7.076,5.592-8.767,9.716-1.483,3.575-.712,7.817-2.091,11.437-1.231,3.189-3.946,5.459-5.933,8.233a22.072,22.072,0,0,0-1.409,21.345A27.027,27.027,0,0,0,162.4,290.689a37.78,37.78,0,0,0,21.286.208,35.6,35.6,0,0,0,14.27-7.076,23.822,23.822,0,0,0,8.277-13.706c1.053-6.052-.638-12.208-1.9-18.23-3.946-19.031-2.818-20.025,2.166-37.692.119-.312.178-.638.267-.949s.133-.46.193-.7h0a11.182,11.182,0,0,0,.223-2.121,4.079,4.079,0,0,1-4.287-.92,4.45,4.45,0,0,1-1.009-4.45,6.467,6.467,0,0,1,3.827-3.6c1.647-.682,3.412-1.038,5.029-1.795,3.427-1.632,5.8-5.014,7.417-8.559a11.748,11.748,0,0,0,1.157-8.04Z" transform="translate(-111.98 -174.625)" fill="#263238"/>
      <path id="Path_2479" data-name="Path 2479" d="M187.413,198a7.253,7.253,0,0,1,.771,1.483c.445.934,1.038,2.255,1.691,3.783l.119.282h-.312l-1.483.133c-1.024,0-1.884.193-2.893.178a.534.534,0,0,1-.386-.341.668.668,0,0,1,0-.415,5.948,5.948,0,0,1,.133-.593l.267-1.053a10.04,10.04,0,0,1,.623-2.047,10.015,10.015,0,0,1-.312,2.121l-.208,1.053c-.074.356-.208.9,0,.86.742,0,1.795-.163,2.774-.222l1.483-.133-.193.326c-.638-1.483-1.172-2.878-1.483-3.842a5.785,5.785,0,0,1-.593-1.572Z" transform="translate(-92.286 -163.326)" fill="#8dc63f"/>
      <path id="Path_2480" data-name="Path 2480" d="M153.385,282.823l65.786-2L247.8,392.575l-5.266,128.19H207.749L212.006,395.3l-25.439-77.8,3.916,208.231-35.155.519-3.694-195.727c-.163-5.444-1.943-17.711-1.276-23.111Z" transform="translate(-109.048 -123.296)" fill="#263238"/>
      <path id="Path_2481" data-name="Path 2481" d="M187.609,308.04a13.176,13.176,0,0,1-3.219-.193c-1.988-.237-4.7-.653-7.684-1.246s-5.652-1.276-7.58-1.825a12.238,12.238,0,0,1-2.967-1.068c0-.222,4.836.935,10.769,2.136S187.639,307.818,187.609,308.04Z" transform="translate(-101.338 -112.246)" fill="#455a64"/>
      <path id="Path_2482" data-name="Path 2482" d="M223.68,437.966c0,.208-7.877.386-17.592.386s-17.607-.178-17.607-.386,7.877-.386,17.607-.386S223.68,437.743,223.68,437.966Z" transform="translate(-90.55 -47.528)" fill="#455a64"/>
      <path id="Path_2483" data-name="Path 2483" d="M188.281,442.406c0,.223-7.654.386-17.088.386s-17.073-.163-17.073-.386,7.654-.386,17.073-.386S188.281,442.2,188.281,442.406Z" transform="translate(-107.157 -45.381)" fill="#455a64"/>
      <path id="Path_2484" data-name="Path 2484" d="M175.195,508.147c-.208,0-1.127-45.494-2.062-101.609S171.65,304.9,171.843,304.9s1.142,45.479,2.062,101.624S175.417,508.147,175.195,508.147Z" transform="translate(-98.61 -111.657)" fill="#455a64"/>
      <path id="Path_2485" data-name="Path 2485" d="M216.789,513.082a3.794,3.794,0,0,1,0-.608v-1.78c0-1.6.119-3.9.208-6.823.208-5.933.5-14.552.875-25.113.8-21.241,1.928-50.523,3.16-82.845v-.771c-7.788-31.15-14.833-59.423-19.951-79.878l-5.933-24.193c-.682-2.833-1.2-5.043-1.572-6.586-.178-.727-.3-1.29-.4-1.721a2.567,2.567,0,0,1-.1-.593,3.279,3.279,0,0,1,.178.579c.119.415.267.979.475,1.691.4,1.483.979,3.738,1.721,6.556,1.483,5.726,3.575,13.973,6.186,24.134,5.162,20.44,12.282,48.639,20.173,79.833v.979c-1.32,32.322-2.522,61.588-3.4,82.83-.46,10.576-.846,19.135-1.113,25.1-.148,2.967-.267,5.221-.341,6.823,0,.757-.089,1.35-.1,1.78A2.834,2.834,0,0,1,216.789,513.082Z" transform="translate(-88.331 -122.644)" fill="#455a64"/>
      <path id="Path_2486" data-name="Path 2486" d="M206.558,356.5a39.738,39.738,0,0,1-7.684,1.706c-3.2.549-5.933.934-7.165.994v-.3c.4.119.608.193.608.252s-.252,0-.668,0h-.89l.89-.267c1.157-.341,3.886-.9,7.09-1.483a40.052,40.052,0,0,1,7.817-.9Z" transform="translate(-89.448 -86.717)" fill="#455a64"/>
      <path id="Path_2487" data-name="Path 2487" d="M205.5,359.765a38.278,38.278,0,0,1-6.927-.312,39.131,39.131,0,0,1-6.9-.756,43.919,43.919,0,0,1,13.825,1.068Z" transform="translate(-89.003 -85.725)" fill="#455a64"/>
      <path id="Path_2488" data-name="Path 2488" d="M152.16,285.181a9.019,9.019,0,0,0,6.5,3.456,29.263,29.263,0,0,0,7.966-.148c16.984-1.884,34.977-3.619,51.605-7.669-21.523,1.2-44.263.8-65.786,2l-.222,1.839" transform="translate(-108.105 -123.296)" opacity="0.2"/>
      <g id="Group_215" data-name="Group 215" transform="translate(66.231 192.219)" opacity="0.2">
        <path id="Path_2489" data-name="Path 2489" d="M167.11,304.21l12.134,47.081L178.4,306.2Z" transform="translate(-167.11 -304.21)"/>
      </g>
    </g>
  </g>
</svg>
