<?xml version="1.0" encoding="UTF-8"?>
<svg width="193px" height="298px" viewBox="0 0 193 298" version="1.1" xmlns="http://www.w3.org/2000/svg" xmlns:xlink="http://www.w3.org/1999/xlink">
    <title>Group 39</title>
    <defs>
        <polygon id="path-1" points="0.370418074 0.437055944 55.5939719 0.437055944 55.5939719 83 0.370418074 83"></polygon>
        <polygon id="path-3" points="0.358077999 0.223691489 151.60468 0.223691489 151.60468 162.70412 0.358077999 162.70412"></polygon>
    </defs>
    <g id="Symbols" stroke="none" stroke-width="1" fill="none" fill-rule="evenodd" opacity="0.7">
        <g id="Thank-You-via-Google" transform="translate(0.000000, -67.000000)">
            <g id="Group-39" transform="translate(0.000000, 67.000000)">
                <path d="M62,162.607745 C54.1103009,155.674495 40.1040775,156.125593 37.9689569,166.98091 C35.8350348,177.836227 36.5589263,185.061331 22.5754744,183.382596 C11.4408473,182.045515 -0.00838486417,191.706782 0,206.892412 C0.0101918237,226.319759 13.938513,218.753581 10.7133603,228.351149 C7.48820756,237.948139 5.41181326,247.682948 19.7835779,247.993911 C34.1547434,248.304874 45.3121418,236.671281 43.6240602,220.87936 C41.9359786,205.08686 52.4006464,210.880493 55.4436277,203.069367 C59.7689997,191.961574 62,162.607745 62,162.607745" id="Fill-1" fill="#201D40"></path>
                <path d="M87,184.500287 C87,196.926205 79.1651564,207 69.5,207 C59.8348436,207 52,196.926205 52,184.500287 C52,172.073795 59.8348436,162 69.5,162 C79.1651564,162 87,172.073795 87,184.500287" id="Fill-3" fill="#F37A50"></path>
                <path d="M63,202 L63,226.096078 C63,226.096078 71.5709872,230.379902 79,226.096078 C77.8567897,220.741587 77.178897,203.683303 77.178897,203.683303 L63,202 Z" id="Fill-5" fill="#F37A50"></path>
                <g id="Group-9" transform="translate(41.000000, 215.000000)">
                    <mask id="mask-2" fill="white">
                        <use xlink:href="#path-1"></use>
                    </mask>
                    <g id="Clip-8"></g>
                    <path d="M7.47648172,0.437055944 L49.0477505,0.437055944 C49.0477505,0.437055944 56.5138151,16.5912937 55.4991914,30.4221119 C54.4845677,44.2535105 52.6624602,81.8879161 52.6624602,81.8879161 C52.6624602,81.8879161 17.2289118,85.2108182 0.950374194,80.368958 C-0.344851613,51.9881818 0.848610753,30.1481538 1.45136344,20.9276084 C2.05351398,11.7064825 7.47648172,0.437055944 7.47648172,0.437055944" id="Fill-7" fill="#F5A3B7" mask="url(#mask-2)"></path>
                </g>
                <path d="M63,215.771113 C61.944124,215.291376 52.5828238,214.932008 52.5828238,214.932008 C52.5828238,214.932008 38.2079125,186.009517 33.1907019,177.407827 C29.7717036,163.596743 30.0212743,140.85122 30.0212743,140.85122 L24.414333,138 C24.414333,138 15.0272357,165.135487 17.3777596,177.68502 C17.9974868,180.995144 35.7044066,225.273828 35.7044066,225.273828 C35.7044066,225.273828 31.3777149,277.824927 29.1585756,290.259879 C44.61396,293.591414 54.6657791,291.114608 54.6657791,291.114608 L63,215.771113 Z" id="Fill-10" fill="#3F964F"></path>
                <path d="M77,215.109571 L84.9205598,290.495441 C84.9205598,290.495441 91.423152,292.5 105.390162,288.518093 C105.949012,272.592773 100.007685,222.541271 100.007685,222.541271 C100.007685,222.541271 112.45825,202.829751 120,173.783876 C119.441755,162.835218 114.48642,137.738248 114.48642,137.738248 L100.020977,137 L105.170851,172.445764 C105.170851,172.445764 87.4193725,209.560839 85.5948042,214.917916 C79.4377924,214.487127 77,215.109571 77,215.109571" id="Fill-12" fill="#3F964F"></path>
                <path d="M51.0273327,184 C60.6689862,182.824615 69.6326126,177.704232 74.695335,171.086761 C77.9667709,178.821333 87.1186382,184 87.1186382,184 C87.1186382,184 93.977443,169.205687 81.5031829,161.224838 C69.6026379,153.610833 41.210627,158.812927 51.0273327,184" id="Fill-14" fill="#2C2858"></path>
                <path d="M62.9996771,189 C61.8952043,189 61,188.104651 61,187 C61,185.895349 61.8952043,185 62.9996771,185 C64.1041498,185 65,185.895349 65,187 C65,188.104651 64.1041498,189 62.9996771,189" id="Fill-16" fill="#000000"></path>
                <path d="M76.9996771,189 C75.8952043,189 75,188.104651 75,187 C75,185.895349 75.8952043,185 76.9996771,185 C78.1041498,185 79,185.895349 79,187 C79,188.104651 78.1041498,189 76.9996771,189" id="Fill-18" fill="#000000"></path>
                <path d="M81.0976257,186 C80.789001,186 80.4882741,185.828319 80.3193811,185.520477 C79.8546214,184.671937 79.2920496,184.163472 78.6468538,184.009551 C77.5320381,183.741833 76.4275504,184.547617 76.4166149,184.556168 C76.0059253,184.860063 75.4439609,184.749556 75.16146,184.306868 C74.8783515,183.864181 74.9767712,183.259021 75.3844231,182.950521 C75.4542889,182.897898 77.1243861,181.652716 79.0168389,182.094746 C80.1784344,182.365752 81.1395452,183.182718 81.8734402,184.522621 C82.1279949,184.987673 81.9864406,185.58757 81.5575252,185.863181 C81.4129333,185.955929 81.2537607,186 81.0976257,186" id="Fill-20" fill="#2C2858"></path>
                <path d="M58.8415115,186 C58.6574393,186 58.4716679,185.932958 58.315348,185.795741 C57.9528672,185.473688 57.8939641,184.887226 58.1850815,184.4856 C59.2917806,182.957416 60.5174188,182.125342 61.8268806,182.012561 C63.5163809,181.867825 64.6780185,183.020699 64.7261605,183.06957 C65.0693845,183.416686 65.0931723,184.00628 64.7793998,184.385977 C64.4667602,184.763794 63.9383312,184.791989 63.5951072,184.450513 C63.5701866,184.426703 62.879774,183.780718 61.9356248,183.872196 C61.1160784,183.951769 60.296532,184.550136 59.4996407,185.650379 C59.3331261,185.880327 59.0890179,186 58.8415115,186" id="Fill-22" fill="#2C2858"></path>
                <path d="M71.8893591,190 C74.3107618,191.727184 75.0659008,192.43588 76,193.01121 C75.3542926,195.149258 71.9643289,196.211405 71,195.965006 C73.3621524,194.813749 73.694075,193.253422 73.694075,193.253422 L71.8893591,190 Z" id="Fill-24" fill="#DE623C"></path>
                <path d="M55.421595,186.475181 C57.4353162,188.858097 57.5354294,191.920156 55.6459449,193.315075 C53.7558572,194.708867 50.5914381,193.907986 48.5783199,191.52507 C46.5645986,189.142153 46.4644855,186.079531 48.3545731,184.685176 C50.2440576,183.29082 53.4078737,184.092265 55.421595,186.475181" id="Fill-26" fill="#F37A50"></path>
                <path d="M53.0849161,191 C53.0121594,191 52.9376975,190.986558 52.8660776,190.958061 C52.5790298,190.843534 52.4448847,190.530602 52.5659563,190.259609 C52.9683917,189.358451 52.9780547,188.633653 52.5932401,188.104572 C52.0003868,187.288906 50.5992523,187.036732 49.582364,187.068455 C49.2714429,187.079209 49.010542,186.848005 49.0003106,186.553354 C48.9900791,186.259779 49.2339277,186.012982 49.5442804,186.003304 C50.9101734,185.960289 52.6711125,186.330753 53.5220246,187.500753 C53.9460596,188.08414 54.3041589,189.107353 53.6044443,190.674701 C53.5134984,190.877946 53.3048914,191 53.0849161,191" id="Fill-28" fill="#DE623C"></path>
                <path d="M65.0792548,198.768323 C64.8387309,198.389933 65.1809255,197.92015 65.6323435,198.011543 C66.781513,198.243927 68.6842078,198.589438 70.5171855,198.746589 C72.3501632,198.903183 74.2865546,198.886465 75.4601251,198.853029 C75.9220006,198.839654 76.1718201,199.360149 75.864484,199.691728 C74.9209798,200.709312 73.0258377,202.21507 70.2168212,201.974327 C67.4078046,201.733584 65.8199985,199.930242 65.0792548,198.768323" id="Fill-30" fill="#FFFFFF"></path>
                <g id="Group-34" transform="translate(41.000000, 0.000000)">
                    <mask id="mask-4" fill="white">
                        <use xlink:href="#path-3"></use>
                    </mask>
                    <g id="Clip-33"></g>
                    <path d="M151.52087,86.9491131 C151.767794,84.7694216 151.457186,82.667184 150.757265,80.7129181 C146.815478,61.3315245 118.259905,59.721755 77.9642846,54.5699145 C71.2276206,53.7104074 75.9570435,46.4759819 80.2274625,29.9551805 C83.0061186,19.2104748 77.5617549,1.69259894 65.2203162,0.398425177 C44.8715415,-1.73618121 62.7048063,15.6909465 40.404664,51.8231911 C28.4897866,71.1282869 8.2906087,57.4952443 5.97816601,77.9003011 L0.714640316,124.347787 C-0.185343874,132.29028 -0.236411067,140.010815 11.2843478,142.490496 C22.4512411,144.893879 19.0339447,152.344482 35.343004,154.055404 L116.972411,162.61695 C125.287352,163.489173 132.784617,157.716546 133.687605,149.752088 C134.061296,146.450471 133.194356,143.316478 131.520553,140.676688 C136.415194,138.686007 140.111858,134.347432 140.725265,128.930861 C141.098356,125.638493 140.236221,122.5045 138.566625,119.869333 C143.473881,117.88501 147.179557,113.54239 147.794767,108.117727 C148.241154,104.17856 146.980095,100.433606 144.594356,97.539489 C148.318656,95.2505528 151.007794,91.4813223 151.52087,86.9491131" id="Fill-32" fill="#FACB32" mask="url(#mask-4)"></path>
                </g>
                <path d="M137.396767,96.0585668 L176.406303,100.139327 C181.710897,100.69456 186.996825,98.5036719 190.203666,94.4258006 C191.523492,92.7450797 191.166441,90.3542847 189.401655,89.0872442 C187.641686,87.8202037 185.138712,88.167441 183.814671,89.8481618 C182.295546,91.7882995 179.779326,92.8225004 177.262504,92.5596169 L137.319696,88.3806366 C133.361422,87.9669563 130.491763,84.5546712 130.92167,80.7731938 C131.350975,76.9922942 134.919684,74.2536841 138.877958,74.6679422 L165.568314,77.4602845 C167.75819,77.6890798 169.728295,76.1770666 169.966129,74.0855542 C170.203963,71.9928863 168.619208,70.1093697 166.429934,69.8805744 L139.734762,67.0870766 C131.40095,66.2158057 123.887213,71.9819088 122.982843,79.9423665 C122.478274,84.382497 124.185859,88.5360556 127.194004,91.532927 C124.108187,93.8619011 121.958051,97.3186741 121.502253,101.337613 C120.995878,105.790455 122.714903,109.959035 125.742315,112.953018 C122.674562,115.279681 120.544897,118.724898 120.089099,122.735749 C119.537566,127.586671 121.585946,132.131377 125.141409,135.154826 C122.476468,137.457222 120.611731,140.623957 120.195071,144.296814 C119.290099,152.25785 125.33288,159.442368 133.66609,160.314217 L158.529642,162.914741 C163.833633,163.469974 169.123776,161.284286 172.331219,157.206414 C173.65526,155.525694 173.298209,153.134898 171.53824,151.868436 C169.772852,150.609484 167.271684,150.939966 165.951858,152.620687 C164.424304,154.560247 161.90688,155.598492 159.39066,155.335031 L134.526506,152.733929 C130.568833,152.319671 127.699777,148.907964 128.128479,145.127064 C128.558386,141.345587 132.127095,138.607554 136.084768,139.021235 L165.582162,142.107082 C170.886154,142.662315 176.181716,140.472582 179.38374,136.394133 C180.708985,134.709368 180.352536,132.318573 178.59076,131.056155 C176.815136,129.770048 174.320592,130.127107 173.004981,131.808406 C171.455148,133.780898 168.999742,134.795455 166.44318,134.52795 L134.421136,131.177486 C130.462862,130.763227 127.593805,127.346898 128.02311,123.565998 C128.453017,119.784521 132.021124,117.046489 135.979398,117.460169 L172.66238,121.298267 C177.966974,121.8535 183.257117,119.667235 186.463957,115.589363 C187.787999,113.908642 187.431549,111.517847 185.670978,110.250807 C183.901375,108.987811 181.404423,109.322915 180.085199,111.003636 C178.535968,112.971506 176.080561,113.986063 173.523398,113.71798 L135.837902,109.775883 C131.88023,109.361625 129.010571,105.949918 129.440478,102.168441 C129.870385,98.3875409 133.434277,95.6437309 137.396767,96.0585668" id="Fill-35" fill="#EBA223"></path>
                <path d="M41.8708582,145.981401 L16.7144103,143.308427 C12.1742973,142.825646 9.65716594,139.773055 10.0377386,136.376779 L18.1873455,63.5156473 C18.5673235,60.1199509 21.6999123,57.6666341 25.1839361,58.0369789 L50.3409786,60.710532 C53.8255971,61.0802972 56.3415392,64.1334682 55.9621558,67.5297441 L47.8119543,140.390296 C47.4319763,143.786572 44.2993875,146.239309 41.8708582,145.981401" id="Fill-37" fill="#7F99EB"></path>
            </g>
        </g>
    </g>
</svg>