<svg xmlns="http://www.w3.org/2000/svg" width="60" height="60" viewBox="0 0 60 60">
  <g id="time-icon" transform="translate(13508 10177)">
    <rect id="Rectangle_1516" data-name="Rectangle 1516" width="60" height="60" rx="10" transform="translate(-13508 -10177)" fill="#ec008c"/>
    <path id="_2364820" data-name="2364820" d="M12.225,28.311a1.188,1.188,0,0,1-.182-.014A14.232,14.232,0,1,1,28.333,12.3a1.181,1.181,0,0,1-2.341.318A11.87,11.87,0,1,0,12.4,25.963a1.181,1.181,0,0,1-.179,2.348ZM10.7,19.492l4.37-4.429a1.181,1.181,0,0,0,.34-.829v-8.8a1.181,1.181,0,0,0-2.362,0v8.314L9.021,17.833A1.181,1.181,0,0,0,10.7,19.492Zm19.512,4.227a1.181,1.181,0,0,0-2.323-.429,5.605,5.605,0,1,1-4-6.43,1.181,1.181,0,1,0,.635-2.275,7.973,7.973,0,1,0,5.691,9.133Zm-6.382.6,5.161-5.108a1.181,1.181,0,0,0-1.662-1.679l-4.952,4.9L20.848,20.9a1.181,1.181,0,0,0-1.67,1.67l1.739,1.739a2.071,2.071,0,0,0,2.915.007Z" transform="translate(-13493 -10162.002)" fill="#fff"/>
  </g>
</svg>
