<?xml version="1.0" encoding="UTF-8"?>
<svg width="112px" height="112px" viewBox="0 0 112 112" version="1.1" xmlns="http://www.w3.org/2000/svg" xmlns:xlink="http://www.w3.org/1999/xlink">
    <title>Group 7</title>
    <defs>
        <filter id="filter-1">
            <feColorMatrix in="SourceGraphic" type="matrix" values="0 0 0 0 1.000000 0 0 0 0 1.000000 0 0 0 0 1.000000 0 0 0 1.000000 0"></feColorMatrix>
        </filter>
        <filter id="filter-2">
            <feColorMatrix in="SourceGraphic" type="matrix" values="0 0 0 0 1.000000 0 0 0 0 1.000000 0 0 0 0 1.000000 0 0 0 1.000000 0"></feColorMatrix>
        </filter>
        <path d="M30.2166668,7.11111106 C29.8722223,7.11111106 29.5222223,7.21111106 29.2055556,7.42777772 L23.1111112,11.2277777 L23.1111112,7.98888884 C23.1111112,6.52222216 21.8222223,5.33333327 20.2333334,5.33333327 L2.8777777,5.33333327 C1.2888888,5.33333327 -1.00000001e-07,6.52222216 -1.00000001e-07,7.98888884 L-1.00000001e-07,24.0111112 C-1.00000001e-07,25.4777778 1.2888888,26.6666667 2.8777777,26.6666667 L20.2333334,26.6666667 C21.8222223,26.6666667 23.1111112,25.4777778 23.1111112,24.0111112 L23.1111112,20.7722223 L29.2055556,24.5666667 C29.5222223,24.7888889 29.8777779,24.8833334 30.2166668,24.8833334 C31.138889,24.8833334 31.9999999,24.1611112 31.9999999,23.1333334 L31.9999999,8.86111107 C31.9999999,7.83333327 31.138889,7.11111106 30.2166668,7.11111106 Z M20.4444445,12.8888889 L20.4444445,23.9388889 C20.4111111,23.9611112 20.3444445,23.9999999 20.2333334,23.9999999 L2.8777777,23.9999999 C2.76666658,23.9999999 2.69999992,23.9666667 2.66666658,23.9388889 L2.66666658,8.06111106 C2.69999992,8.03888884 2.76666658,7.99999995 2.8777777,7.99999995 L20.2333334,7.99999995 C20.3444445,7.99999995 20.4111111,8.03333328 20.4444445,8.06111106 L20.4444445,12.8888889 Z M29.3333334,21.5111111 L23.1111112,17.6333333 L23.1111112,14.3722222 L29.3333334,10.4944444 L29.3333334,21.5111111 Z" id="path-3"></path>
    </defs>
    <g id="Symbols" stroke="none" stroke-width="1" fill="none" fill-rule="evenodd">
        <g id="Tutor-Dashboard" transform="translate(-34.000000, -127.000000)">
            <g id="Group-7" transform="translate(34.000000, 127.000000)">
                <rect id="Rectangle" fill="#7D0F7D" x="0" y="0" width="112" height="112"></rect>
                <g id="Group" transform="translate(6.000000, 16.000000)" opacity="0.2">
                    <g filter="url(#filter-1)" id="logo">
                        <g id="final_logo" transform="translate(8.839779, 1.951220)" fill-rule="nonzero">
                            <path d="M17.0376991,2.44858919 C17.0354359,3.01780861 16.8660835,3.56860418 16.558336,4.00765184 C16.2756427,4.4612256 15.8576953,4.77215656 15.3883653,4.87804878 C15.1071075,4.91891505 14.8221567,4.85182421 14.5758856,4.68675275 C14.3275319,4.52558366 14.0468427,4.44627869 13.7634059,4.45719751 C12.4125545,4.66782827 11.095615,5.11262675 9.85537862,5.77714012 C7.89730257,6.73362028 6.60545986,7.32663797 6.01234969,7.5274988 C5.91485213,9.31611669 5.87422814,11.133429 5.87422814,12.9794357 C5.87422814,14.8254424 5.91485213,16.6810139 6.01234969,18.5270206 C6.21436756,18.5856295 6.42177588,18.6145442 6.62983425,18.6131038 C7.52045199,18.5144914 8.39682053,18.2830837 9.23789405,17.9244381 C10.1111452,17.57733 11.0304326,17.4185615 11.9515762,17.4557628 C12.4878128,17.5131516 12.7640559,17.7522716 12.6828079,18.1826877 C12.4955018,19.3481993 11.8104785,20.3173665 10.8709782,20.7460545 C9.87975301,21.109517 8.88852779,21.492109 7.89730257,21.8938307 C7.51543711,21.9512195 6.88170296,22.0946915 6.01234969,22.314682 C5.96360091,22.8885701 5.93922652,23.5262235 5.93922652,24.2276423 C5.93922652,24.9067432 5.93922652,25.9493066 6.03672408,27.3362028 C6.13422164,28.723099 6.12609685,29.7752272 6.12609685,30.4543281 C6.22111779,32.4513096 5.89745209,34.445152 5.18362041,36.2601626 C5.06815066,36.5575326 4.81112204,36.7428648 4.53363666,36.7288379 C4.19446174,36.707641 3.8736318,36.5409119 3.63178421,36.2601626 C3.34554551,35.9972474 3.13090055,35.6414897 3.01429964,35.2367288 C2.75647271,34.2421835 2.6330939,33.2060957 2.64868378,32.1664275 C2.64868378,31.7742707 2.73805655,30.3873745 2.90867728,28.0344333 C3.03300869,26.6560833 3.01117484,25.2648769 2.84367891,23.8928742 C2.79493013,23.5294118 2.55118622,23.2329029 2.11244719,23.0033477 C1.73573398,22.8369363 1.3824178,22.6047857 1.06434839,22.314682 C0.991932975,21.7480263 1.01123012,21.1703582 1.12122197,20.6121473 C1.4033902,20.6739961 1.69072148,20.5401803 1.86057849,20.2678144 C2.00139541,20.0337214 2.21985428,19.880805 2.46181345,19.8469632 C2.55894279,19.8328557 2.65717681,19.8328557 2.75430614,19.8469632 C3.00339438,18.3022373 3.1231317,16.7324659 3.11179721,15.1602104 C3.11179721,14.5671927 3.01429964,12.3577236 2.82742931,8.55093257 C2.3092147,8.37812388 1.83856618,8.04832372 1.46246344,7.59445242 C1.07301512,7.20389009 0.832999896,6.64567265 0.796230094,6.04495457 C0.796230094,5.32759445 1.23496913,4.90674319 2.0961976,4.76327116 C4.32212023,4.23698116 6.51326638,3.52418373 8.65290868,2.63032042 C10.8253236,1.68632079 13.1020399,1.11612723 15.4127397,0.93735055 C15.8182289,0.928134539 16.2159928,1.06861313 16.5502112,1.33907221 C16.8639642,1.58561872 17.0480829,2.00467086 17.0376991,2.44858919 Z" id="Path" fill="#92278F"></path>
                            <path d="M27.2505687,8.20659971 C25.9575113,8.78521721 24.6394694,9.28327644 23.3019175,9.69870875 C21.9632567,10.1096615 20.6450107,10.6077978 19.3532662,11.1908178 C19.0438733,12.8140679 18.8858588,14.4722148 18.8820279,16.1358202 C19.3121015,16.3159364 19.7662106,16.4034153 20.2226194,16.3940698 C20.7949989,16.3673813 21.3651094,16.2938739 21.9288268,16.1740794 C22.490502,16.0617097 23.0576699,15.9914265 23.6269093,15.9636538 C24.2361549,15.940455 24.8386615,16.1194354 25.3656159,16.480153 C25.6040946,16.8006663 25.7789476,17.1796793 25.8774781,17.58967 C25.8723313,17.7882508 25.7758326,17.9678148 25.6256094,18.0583453 C25.4421405,18.2400365 25.2709998,18.4383114 25.1137472,18.651363 C24.9383333,18.9037521 24.6657771,19.0335394 24.3906402,18.9956958 C23.4705788,19.1831327 22.5373836,19.2664078 21.6038349,19.2443807 C20.678398,19.2358931 19.7583251,19.4104892 18.8820279,19.76088 C18.4840707,21.3840012 18.2495509,23.0565631 18.1832954,24.7441416 C18.1600037,25.4344135 18.2625063,26.122557 18.4839129,26.7623147 C19.6213845,27.6996652 21.5902936,28.0950104 24.3906402,27.9483501 C24.621282,27.9303712 24.8394981,27.8188261 25.0081248,27.6327116 C25.1554147,27.4603139 25.3466139,27.3494504 25.5524862,27.3170732 C26.2268443,27.1449067 26.6737082,27.7379244 26.8930777,29.1056911 C26.9624792,29.5385648 26.8898949,29.9863168 26.6899578,30.3586801 C26.5031957,30.7290491 26.1699242,30.9630128 25.8043549,30.9803922 C23.2421018,31.1241028 20.6755896,30.8342039 18.1832954,30.11956 C17.4718234,29.8957152 16.829255,29.4378612 16.3308417,28.7996174 C15.8013107,28.1813188 15.4685384,27.3674214 15.3883653,26.4945002 C15.1767047,24.2856595 15.1767047,22.0558039 15.3883653,19.8469632 C14.7167154,19.3049578 14.4160979,18.7788937 14.4865128,18.2687709 C14.4865128,18.0105213 14.6977576,17.780966 15.0471238,17.5609756 C15.3964901,17.3409852 15.59961,17.1305595 15.6483588,16.9010043 C15.6971076,16.6714491 15.7946051,15.3228121 15.9327267,12.8550933 C14.5840104,12.5394548 13.9177771,11.8986131 13.9421514,11.0664754 C14.0016941,10.176933 14.4972107,9.41036462 15.2096198,9.10569106 L17.5251869,7.99617408 C18.603114,7.37484341 19.7331602,6.8875897 20.8969776,6.54232425 C22.0831979,6.16929699 23.2612935,5.81539933 24.4475138,5.48063128 C24.5907122,5.46418981 24.7349297,5.46418981 24.878128,5.48063128 C25.6930962,5.53860467 26.4806354,5.84874422 27.161196,6.37972262 C27.161196,6.49450024 27.2505687,6.70492587 27.3480663,7.02056432 C27.421537,7.23796057 27.4680541,7.46667098 27.4861878,7.69966523 C27.4792246,7.90269468 27.3920611,8.0902269 27.2505687,8.20659971 Z" id="Path" fill="#92278F"></path>
                            <path d="M38.4952876,24.5911047 C38.438414,24.5911047 37.0328242,25.8058345 34.2541436,28.1492109 C32.905695,29.3297056 31.4604275,30.3486354 29.9398765,31.1908178 C29.8072423,31.2734276 29.6593134,31.3161429 29.5092623,31.3151768 C29.1049635,31.2655281 28.749865,30.9772283 28.5667858,30.5499761 C28.1361716,29.8613104 27.9005525,29.5074127 27.8761781,29.4787183 C27.8274293,26.9727403 27.9655509,23.4911526 28.2742931,19.0148254 C28.6372007,14.2643073 28.8186545,10.8337319 28.8186545,8.723099 C28.8186545,7.26924916 28.7699058,5.91104735 28.6724082,4.61979914 C28.9909143,4.24725054 29.4261644,4.04644827 29.8748781,4.06504065 C30.7929802,4.06504065 31.321092,4.46676231 31.4998375,5.26064084 C31.5756689,7.59445242 31.4890044,11.085605 31.239844,15.7340985 C31.0042249,20.3825921 30.9067273,23.8641798 30.9554761,26.1979914 C31.8858316,25.6931257 32.7774493,25.0947004 33.6204095,24.4093735 C34.4451787,23.7108161 35.305288,23.0719824 36.1959701,22.4964132 C36.4086424,22.4848712 36.6203876,22.4561088 36.8297043,22.41033 C37.0497036,22.3625629 37.2723747,22.3337918 37.4959376,22.3242468 C37.9319071,22.291982 38.3441031,22.5607369 38.5521612,23.0129125 C38.8192344,23.5000023 38.7964448,24.1323943 38.4952876,24.5911047 L38.4952876,24.5911047 Z" id="Path" fill="#92278F"></path>
                            <path d="M50,24.5911047 C49.9512512,24.5911047 48.5375366,25.7771401 45.758856,28.1492109 C44.4104074,29.3297056 42.9651399,30.3486354 41.4445889,31.1908178 C41.3119547,31.2734276 41.1640258,31.3161429 41.0139747,31.3151768 C40.6096758,31.2655281 40.2545774,30.9772283 40.0714982,30.5499761 C39.640884,29.8613104 39.4052649,29.5074127 39.3808905,29.4787183 C39.3321417,26.9727403 39.4702632,23.4911526 39.7790055,19.0148254 C40.1419131,14.2643073 40.3233669,10.8337319 40.3233669,8.723099 C40.3233669,7.26924916 40.2746181,5.91104735 40.1852454,4.61979914 C40.5017919,4.24970934 40.9336665,4.04910892 41.3795905,4.06504065 C42.2895678,4.06504065 42.8258044,4.46676231 43.0045499,5.26064084 C43.0776731,7.59445242 43.0045499,11.085605 42.7526812,15.7340985 C42.5008125,20.3825921 42.4114397,23.8641798 42.4601885,26.1979914 C43.3821545,25.6916664 44.265572,25.0932717 45.1007475,24.4093735 C45.9255167,23.7108161 46.785626,23.0719824 47.6763081,22.4964132 C47.8889804,22.4848712 48.1007256,22.4561088 48.3100422,22.41033 C48.5300416,22.3625629 48.7527127,22.3337918 48.9762756,22.3242468 C49.4122451,22.291982 49.824441,22.5607369 50.0324992,23.0129125 C50.306664,23.4939937 50.2936446,24.1262282 50,24.5911047 Z" id="Path" fill="#92278F"></path>
                            <path d="M80.638609,7.56575801 C81.123889,7.77963954 81.4469707,8.32353053 81.4510887,8.93352463 C81.406541,9.50219272 81.259755,10.0532018 81.0204745,10.5499761 C80.6548586,11.5064562 80.4598635,11.9751315 80.4354891,12.0899091 C79.6789839,15.2223311 79.1356126,18.4207115 78.8105297,21.6547107 C78.4772783,24.8480957 77.9505322,28.0093494 77.2343191,31.1142994 C77.0880728,31.6881875 76.6737082,31.9655667 75.99935,31.9655667 C75.7182041,31.9719895 75.439768,31.8998769 75.1868703,31.7551411 C74.1944651,31.0712683 73.4947477,29.9242992 73.2612935,28.5987566 C73.2612935,28.4552846 73.0094248,27.0396939 72.5788105,24.3328551 C72.359441,22.9172645 72.1563211,21.396461 71.961326,19.7704448 C71.3524971,21.6914395 70.9035273,23.677481 70.6207345,25.7006217 C70.1332467,28.4265901 69.5726357,30.167384 68.9145271,30.9038737 C68.7276568,31.133429 68.3864153,31.1621234 67.9070523,30.989957 C67.1945988,30.8899101 66.6124486,30.2734977 66.4527137,29.4500239 C66.3064673,28.6561454 66.1683458,27.8622669 66.0220994,27.0683883 C65.4587587,23.9182645 65.1136745,20.719482 64.9902502,17.5035868 C64.8665582,14.3224839 64.5214516,11.1586823 63.958401,8.04399809 C63.8890293,7.7209583 63.9267978,7.37893993 64.0640234,7.08751793 C64.1744805,6.79720997 64.4119277,6.60227369 64.681508,6.58058345 C64.8700066,6.5237651 65.0637893,6.49484748 65.2583685,6.49450024 C65.9061915,6.47666835 66.5081968,6.88638679 66.8183295,7.55619321 C67.1974867,9.94739359 67.6551836,14.5958871 68.1914202,21.5016738 C68.488405,20.6265264 68.7142024,19.7201873 68.8657784,18.794835 C69.0277304,17.810961 69.2754948,16.849388 69.6051349,15.9253945 C69.8245044,14.844572 70.0276243,13.7637494 70.2226194,12.6829268 C70.5151121,11.372549 71.1163471,10.7221425 72.0344491,10.7221425 C72.308607,10.7237795 72.5815279,10.7655475 72.8469288,10.8464849 C72.8469288,11.0186514 72.9769256,11.1238642 73.1719207,11.1525586 C73.3669158,11.181253 73.4725382,11.2195122 73.4969126,11.276901 C74.1132227,13.0646048 74.5151935,14.9445855 74.6912577,16.8627451 C75.1083306,20.1657899 75.3629076,22.0787502 75.4549886,22.601626 C75.8341458,20.0510123 76.2322609,17.5354695 76.6493338,15.0549976 C77.032033,12.5761428 77.6903859,10.1674192 78.6074098,7.89096126 C78.8373725,7.48455096 79.2446538,7.26897702 79.6555086,7.33620277 C79.9936999,7.32475615 80.3297316,7.40322 80.638609,7.56575801 L80.638609,7.56575801 Z" id="Path" fill="#92278F"></path>
                            <path d="M21.6119597,51.3821138 C20.8964507,53.6387978 20.4693109,56.0079679 20.3444914,58.4122429 C20.2226194,60.8321377 20.1169971,63.1946437 20.0194995,65.6623625 C19.9707507,66.3701578 19.5726357,66.7242168 18.8251544,66.7242168 C18.6146146,66.7271749 18.4053587,66.6850372 18.2076698,66.5997131 C17.2126523,66.1461906 16.5838589,64.9835129 16.6558336,63.7302726 C16.672538,63.1250813 16.718654,62.5215117 16.7939552,61.9225251 C16.8740643,61.3368727 16.9229088,60.7458843 16.9402015,60.1530368 C17.0376991,59.3304639 17.159571,58.0870397 17.3058174,56.4418938 C15.6686171,58.2627769 13.7334868,59.6719473 11.6184595,60.5834529 C11.3373895,60.6894044 11.04423,60.7442362 10.7491063,60.7460545 C9.48149973,60.6398147 8.33649759,59.8160751 7.67793305,58.5365854 C7.12353177,57.6486364 6.83751509,56.5678003 6.86545336,55.4662841 C6.89930686,54.1607125 7.10769025,52.8695737 7.48293793,51.6403635 C8.88151703,46.7703004 10.9511895,42.2043006 13.6090348,38.1252989 C15.0335825,35.9572772 16.2875095,34.8732664 17.3708157,34.8732664 C18.3376666,34.8732664 18.8820279,35.3036824 18.9957751,36.1549498 C19.13064,36.773656 18.875525,37.4183654 18.3864153,37.6948828 C17.5414365,38.2305117 17.0945726,38.5270206 17.0458239,38.5844094 C14.7767809,41.6620385 12.8968323,45.1090002 11.4640884,48.818747 C10.5204028,50.9748233 9.99063536,53.3486542 9.91225219,55.7723577 C9.91225219,56.145385 9.91225219,56.5088474 9.91225219,56.8818747 C10.0105654,56.9942165 10.0856219,57.1316641 10.1316217,57.2835964 C10.2209945,57.5227164 10.359116,57.6087996 10.5297368,57.5227164 C12.1492796,56.7830384 14.5650525,54.8350072 17.7770556,51.6786227 C18.1627345,51.1180416 18.4399952,50.465239 18.5895353,49.7656624 C18.736713,49.0578009 19.2786195,48.5624968 19.8976276,48.5700622 C19.7026324,48.5700622 19.8976276,48.5700622 20.4744881,48.483979 C20.7669808,48.4265901 20.961976,48.483979 21.0513487,48.6561454 C21.4297084,49.2047077 21.6690627,49.8677111 21.7419776,50.5691057 C21.7430852,50.8473905 21.6989592,51.123358 21.6119597,51.3821138 Z" id="Path" fill="#EC008C"></path>
                            <path d="M36.4640884,40.7173601 C35.1723439,41.3003801 33.8540979,41.7985164 32.5154371,42.2094692 C30.7767306,42.7833572 29.4605135,43.2807269 28.5667858,43.7015782 C28.253729,45.3241017 28.0956688,46.9827279 28.0955476,48.6465806 C28.5256212,48.8266968 28.9797302,48.9141757 29.4361391,48.9048302 C30.0084014,48.8825346 30.5785839,48.8122143 31.1423464,48.6944046 C31.6927292,48.5789201 32.2492647,48.5086088 32.8079298,48.483979 C33.4163934,48.4578822 34.0188476,48.6335327 34.5466363,48.9909134 C34.7825235,49.3135422 34.9570498,49.691847 35.0584985,50.1004304 C35.0554903,50.3024745 34.9544398,50.4846326 34.798505,50.5691057 C34.6188026,50.7523935 34.450461,50.9505712 34.2947676,51.1621234 C34.1193538,51.4145126 33.8467976,51.5442998 33.5716607,51.5064562 C32.6514063,51.6928511 31.718549,51.7792978 30.7848554,51.7647059 C29.8598562,51.752775 28.9397442,51.9241451 28.0630484,52.2716404 C27.6698882,53.8986146 27.440817,55.5744262 27.3805655,57.2644668 C27.3603789,57.9185387 27.4572649,58.570297 27.6649334,59.1774271 C28.8024049,60.1147776 30.7713141,60.513311 33.5716607,60.3730273 C33.8040373,60.3556937 34.0232951,60.2402198 34.1891453,60.047824 C34.3357161,59.8742445 34.5272768,59.7631713 34.7335067,59.7321856 C35.4078648,59.5600191 35.8547286,60.1530368 36.0659734,61.5208034 C36.1424729,61.9554998 36.0725584,62.4081818 35.8709782,62.7833572 C35.6833483,63.1513475 35.3497699,63.3819239 34.9853754,63.3955045 C32.4309323,63.551598 29.8705822,63.2810986 27.3805655,62.5920612 C26.6672472,62.3680431 26.0240176,61.9063967 25.5281118,61.2625538 C25.0002459,60.6467326 24.6676063,59.8365357 24.5856354,58.9670014 C24.3709085,56.7423723 24.3709085,54.4962695 24.5856354,52.2716404 C23.9139855,51.7360115 23.613368,51.2099474 23.6837829,50.6934481 C23.6837829,50.4351985 23.8950276,50.2056432 24.2443939,49.9952176 C24.5937602,49.784792 24.7968801,49.5552367 24.8456289,49.3352463 C24.8943776,49.1152559 24.9837504,47.757054 25.1299968,45.2797704 C23.7812805,44.964132 23.1150471,44.3232903 23.1394215,43.4911526 C23.2159305,42.6204031 23.7081194,41.8775539 24.4068898,41.5781923 L26.7224569,40.4686753 C27.7998199,39.8457888 28.9300075,39.3584741 30.0942476,39.0148254 C31.280468,38.651363 32.4585635,38.2974653 33.6447839,37.9531325 C33.7879613,37.9361922 33.9322207,37.9361922 34.0753981,37.9531325 C34.8896376,38.0155012 35.6762409,38.3252722 36.358466,38.8522238 C36.358466,38.9670014 36.439714,39.1774271 36.5372116,39.4930655 C36.6153108,39.7092416 36.6646387,39.9382979 36.6834579,40.1721664 C36.6906764,40.3852448 36.6087101,40.5889537 36.4640884,40.7173601 Z" id="Path" fill="#EC008C"></path>
                            <path d="M52.6161846,36.2027738 C52.2749431,40.0286944 51.9499513,43.854615 51.641209,47.6805356 C51.2680584,51.4594221 51.0619523,55.2585819 51.0237244,59.0626495 C51.0237244,60.0191296 51.0237244,61.0425634 51.0968476,62.0086083 C51.1223053,62.4581835 50.969259,62.8962476 50.6824829,63.1946437 C50.4104819,63.5213567 50.0392129,63.7071979 49.6506337,63.711143 C48.8950276,63.711143 48.2694183,63.1181253 47.7656809,61.9225251 C45.5629475,56.4902128 43.6393246,50.9070717 42.0051999,45.203252 C41.9564511,45.0310856 41.8995775,44.9545672 41.8264543,44.9545672 C41.7533312,44.9545672 41.5502112,45.1458632 41.5014625,45.5475849 C41.078866,49.8079641 40.8726711,54.0942414 40.8839779,58.3835485 C40.8839779,60.5451937 40.9327267,62.7482863 41.0302242,64.9928264 C41.1130934,65.6519361 40.8744338,66.3099707 40.4127397,66.6953611 C40.2738071,66.8783797 40.0768103,66.9856821 39.8683783,66.9918699 C39.6370599,66.9695298 39.4139039,66.8808661 39.2183945,66.7336203 C38.8527787,66.5423242 38.6252844,66.408417 38.5277868,66.3510282 C38.2109197,66.2362506 38.0240494,65.9014825 37.9509262,65.3275945 C37.8778031,64.7537064 37.9021774,64.3711143 37.8778031,63.9215686 C37.8046799,62.3338116 37.7640559,60.6695361 37.7640559,58.938307 C37.7640559,55.9285828 37.9103022,52.160051 38.2027949,47.6327116 C38.6577836,40.7588076 38.9123605,36.9520166 38.9665258,36.2123386 C38.9665258,35.5810617 39.4377641,35.2558584 40.3071173,35.2558584 C40.7241902,35.2048462 41.3254252,35.5619321 42.1108222,36.3271162 C43.2388693,39.0594741 44.2026703,41.8816442 44.9951251,44.772836 C45.7907798,47.6890151 46.782431,50.5259747 47.960676,53.2568149 C48.3290001,49.4819066 48.8977359,43.7685318 49.6668833,36.1166906 C49.7400065,35.5428025 50.0893728,35.2654232 50.7149821,35.2654232 C50.9777374,35.2608556 51.2398952,35.2962185 51.4949626,35.3706361 L52.1855704,35.5810617 C52.4040379,35.6972527 52.5634862,35.9274609 52.6161846,36.2027738 Z" id="Path" fill="#EC008C"></path>
                            <path d="M58.5960351,31.0569106 C58.6447839,31.8794835 58.6691583,32.7403156 58.6691583,33.6202774 C58.6691583,35.5332377 58.4985375,38.4441256 58.1572961,42.3529412 C57.8241794,46.2553802 57.6535587,49.1917743 57.6535587,51.181253 C57.6535587,51.9273075 57.6535587,52.6446676 57.6535587,53.3620277 C57.4946095,54.1087495 56.8892282,54.6002506 56.239844,54.5098039 C55.2079948,54.4524151 54.6148846,53.926351 54.5417615,52.9316117 C54.4417669,51.8836429 54.3929379,50.8297824 54.3955151,49.7752272 C54.4614595,46.894964 54.6621754,44.0211669 54.9967501,41.1669058 C55.3298787,38.3126307 55.5278879,35.4387513 55.5898603,32.5585844 C55.5898603,31.8125299 55.5898603,31.0951698 55.5167371,30.3778097 C55.7552515,29.8437938 56.2407221,29.5279574 56.7517062,29.5743663 C57.2369393,29.5818889 57.7114021,29.7438366 58.1247969,30.0430416 C58.1862683,29.9758399 58.2620907,29.9295565 58.3441664,29.9091344 C58.4172896,29.9091344 58.4497888,30.0526064 58.4497888,30.3395505 C58.4217591,30.5358459 58.4217591,30.7362727 58.4497888,30.9325681 C58.4832351,30.9945091 58.535572,31.0390074 58.5960351,31.0569106 L58.5960351,31.0569106 Z" id="Path" fill="#8DC63F"></path>
                            <path d="M73.6594085,38.8043998 C73.3652741,41.5027277 72.8815448,44.1676887 72.2131947,46.7718795 C71.1298884,51.2354535 70.5015708,53.9359158 70.3282418,54.8732664 C69.8094522,57.7157266 68.7726875,60.3917254 67.2895678,62.7164036 C66.5969528,64.0581591 65.3728803,64.8939519 64.039649,64.9354376 C62.959051,64.9354376 62.1465713,64.1032999 61.6022099,62.505978 C60.6318968,59.4991741 60.1629391,56.300394 60.2209945,53.0846485 C60.2580358,50.4033802 60.4289514,47.7269947 60.7328567,45.0693448 C60.6661125,44.1916333 60.6525368,43.3094411 60.6922327,42.4294596 C60.6922327,40.6599713 61.2772181,39.7800096 62.4309392,39.7800096 C62.7142296,39.7809787 62.9930694,39.8630437 63.2434189,40.0191296 C63.519662,40.1721664 63.7959051,40.3347681 64.0558986,40.5069345 C64.0558986,41.9607843 64.0558986,44.0841703 63.9502762,46.9057867 C63.825696,49.9155109 63.7661142,52.0899091 63.7715307,53.4289813 C63.7715307,54.844572 63.7715307,56.145385 63.8771531,57.302726 C64.0282293,58.4568743 64.2453853,59.5976847 64.5271368,60.7173601 C65.6414042,59.1658582 66.4563891,57.3481639 66.9158271,55.3897657 C67.1108222,54.6437111 67.5008125,52.6351028 68.0776731,49.3352463 C68.4097324,47.3121241 68.9329722,45.3390739 69.6376341,43.4528934 C69.872062,42.7252436 70.0170624,41.9619261 70.0682483,41.1860354 C70.1245555,40.4008177 70.2721805,39.6284201 70.5069873,38.890483 C70.7277366,38.2349031 71.2822872,37.8215686 71.880078,37.8670493 C72.5703833,37.8003251 73.2417039,38.1539765 73.6594085,38.8043998 Z" id="Path" fill="#EC008C"></path>
                            <path d="M82.4585635,36.241033 C82.4585635,36.8149211 82.1091973,37.3122908 81.4104647,37.733142 C81.2126573,37.8288073 80.9907876,37.8288073 80.7929802,37.733142 L80.2486188,37.5609756 C80.0812386,37.5746127 79.9257785,37.6678459 79.8180045,37.8192253 C78.5337019,39.2952536 77.8250199,41.3307723 77.8599285,43.4433286 C77.8526479,44.2281869 77.9626534,45.0084391 78.1849204,45.7484457 C78.2824179,46.0545194 79.20052,48.2639885 80.9392265,52.3577236 C81.9575572,54.4877571 82.5520514,56.8620482 82.6779331,59.3017695 C82.6752798,60.8814632 82.340315,62.4357905 81.7029574,63.8259206 C81.2711369,64.5809452 80.7193518,65.2305264 80.0779981,65.7388809 C79.543817,66.260919 78.885241,66.5750489 78.1930452,66.6379723 C77.9820198,66.6379723 77.7727806,66.5924441 77.5755606,66.504065 C76.8524537,66.1406026 76.4949626,65.6623625 76.4949626,65.0980392 C76.5465479,64.6238313 76.7394569,64.1865802 77.039324,63.8641798 C77.1286968,63.7207078 77.3643159,63.6346246 77.721807,63.6059302 C78.0241962,63.6085358 78.3027952,63.4132238 78.4449139,63.0989957 C78.9420462,61.908117 79.2031781,60.5999733 79.2086448,59.2730751 C79.2086448,57.4238801 78.4313725,54.7457357 76.8768281,51.2386418 C75.3222836,47.7315479 74.5423031,44.9258728 74.5368866,42.8216165 C74.5129254,41.2132913 74.8107334,39.6208909 75.4062398,38.1731229 C75.9761301,36.7049364 76.9610733,35.5150016 78.1930452,34.8063128 C78.6976555,34.5075412 79.2532267,34.3473018 79.8180045,34.3376375 C80.6601442,34.2579252 81.4910365,34.6060235 82.1010725,35.2941176 C82.315628,35.5468332 82.4429962,35.8842037 82.4585635,36.241033 Z" id="Path" fill="#EC008C"></path>
                            <polygon id="Path" fill="#010101" points="42.8826779 75.2654232 42.8826779 70.4830225 43.2076698 70.4830225 43.2076698 75.2654232"></polygon>
                            <path d="M45.6613585,74.1463415 C45.6619613,74.4731152 45.5736987,74.7915364 45.4094898,75.0549976 C45.2564889,75.2608238 45.0322224,75.37347 44.80013,75.3610713 C44.5222447,75.3786783 44.2614427,75.2027004 44.1338967,74.9115256 C43.8370561,74.0166451 43.8370561,73.0230488 44.1338967,72.1281683 C44.2699438,71.8373518 44.5346747,71.6629758 44.8163796,71.6786227 C45.0703874,71.6644058 45.3116945,71.8100855 45.4501137,72.0612147 C45.6148588,72.4043363 45.69109,72.7965426 45.6694833,73.1898613 L45.6694833,73.4863702 L44.2557686,73.4863702 L44.2557686,73.687231 C44.2464894,74.0137653 44.2934741,74.3391302 44.3938902,74.6437111 C44.45566,74.8451005 44.6182507,74.9790858 44.80013,74.9784792 C44.9526739,74.9853799 45.0972989,74.8984399 45.1819955,74.748924 C45.2881587,74.5554984 45.3419855,74.3287119 45.3363666,74.0985175 L45.6613585,74.1463415 Z M44.2557686,73.1898613 L45.3444914,73.1898613 L45.3444914,73.1133429 C45.3476025,73.0879682 45.3476025,73.0621991 45.3444914,73.0368245 C45.3565411,72.7780174 45.3088101,72.5202015 45.2063698,72.29077 C45.1256504,72.1220419 44.972716,72.0191619 44.8082548,72.0229555 C44.6349813,72.0178815 44.4743098,72.1291452 44.3938902,72.3098996 C44.2838,72.5741409 44.2334306,72.8673299 44.2476438,73.1611669 L44.2557686,73.1898613 Z" id="Shape" fill="#010101"></path>
                            <path d="M47.960676,75.274988 L47.8306792,75.274988 L47.7331817,75.274988 C47.6626673,75.2764489 47.5938535,75.2494455 47.5381865,75.1984696 C47.4758876,75.1394506 47.4305058,75.0593129 47.4081898,74.9689144 C47.332378,75.0868939 47.2314923,75.1792677 47.1156971,75.2367288 C47.0051254,75.3030521 46.8822666,75.3359234 46.758206,75.3323769 C46.5605169,75.3439906 46.3691051,75.2489266 46.238219,75.0741272 C46.1058027,74.8685618 46.0395897,74.6143825 46.0513487,74.3567671 C46.0405558,74.125897 46.1011684,73.8982394 46.2219695,73.7159254 C46.3780716,73.5166353 46.5733743,73.3655467 46.7907052,73.2759445 L47.0263243,73.1802965 C47.2863178,73.0750837 47.4163146,72.9411765 47.4163146,72.7594452 L47.4163146,72.4725012 C47.429466,72.324269 47.3913998,72.1760417 47.3106922,72.0612147 C47.2195723,71.9662043 47.098552,71.9210311 46.9775756,71.9368723 C46.838545,71.9219869 46.7012291,71.9817283 46.6038349,72.0994739 C46.5088503,72.2368359 46.4597347,72.4102977 46.4657134,72.5872788 L46.1569711,72.5872788 L46.1569711,72.5203252 C46.1451933,72.2769206 46.2290704,72.0406426 46.3844654,71.8794835 C46.5490542,71.7071208 46.7660399,71.6208224 46.9857004,71.6403635 C47.1154124,71.6346516 47.2448973,71.6573545 47.3675658,71.7073171 C47.4623352,71.7480284 47.5463786,71.8172856 47.6113097,71.9081779 C47.6539305,71.9732787 47.6843866,72.048246 47.7006825,72.1281683 C47.7159235,72.2486582 47.7159235,72.3711409 47.7006825,72.4916308 L47.7006825,74.5863223 C47.7006825,74.7584888 47.7006825,74.8732664 47.7006825,74.9115256 C47.7006825,74.9497848 47.7738057,74.9784792 47.8550536,74.9784792 L47.8550536,74.9784792 L47.960676,75.274988 Z M47.4081898,73.3620277 C47.1165684,73.4801036 46.8424289,73.6511488 46.5957101,73.8689622 C46.482444,73.9995158 46.4206,74.1797948 46.4250894,74.3663319 C46.4170017,74.5346584 46.4602187,74.7008554 46.5469613,74.8350072 C46.6219419,74.9504905 46.740533,75.0149257 46.8638284,75.0071736 C47.0392455,75.0223685 47.207643,74.9232467 47.3025674,74.748924 C47.4150663,74.5028621 47.4657888,74.2242042 47.4488138,73.9454806 L47.4081898,73.3620277 Z" id="Shape" fill="#010101"></path>
                            <path d="M48.4156646,75.2654232 L48.4156646,71.7647059 L48.7325317,71.7647059 L48.7325317,72.1472979 C48.7900845,72.0086272 48.8803467,71.8924054 48.9925252,71.8125299 C49.1130397,71.7397372 49.2471012,71.7035697 49.3825154,71.7073171 L49.4475138,71.7073171 L49.4475138,72.0899091 C49.2401268,72.0709819 49.0358603,72.1581087 48.8869028,72.3290292 C48.7494885,72.6200496 48.6953585,72.9554381 48.7325317,73.2855093 L48.7325317,75.3132473 L48.4156646,75.2654232 Z" id="Path" fill="#010101"></path>
                            <path d="M51.2674683,75.2654232 L51.2674683,72.9029173 C51.2885307,72.6578841 51.2549248,72.4106213 51.1699708,72.1855571 C51.0875976,72.0594348 50.9547338,71.99396 50.8206045,72.0133907 C50.6656365,72.0111139 50.5153315,72.0757667 50.398115,72.195122 C50.2838992,72.2863856 50.211923,72.4346682 50.2031199,72.5968436 L50.2031199,75.2654232 L49.8700032,75.2654232 L49.8700032,71.7647059 L50.1624959,71.7647059 L50.1624959,72.1472979 C50.2472935,71.9999704 50.3581595,71.8759808 50.4874878,71.7838355 C50.6096797,71.7061512 50.7467463,71.6666346 50.8856029,71.6690579 C51.0904478,71.6522104 51.2897747,71.7517609 51.4218395,71.9368723 C51.5529825,72.1890948 51.6127254,72.483817 51.5924602,72.7785748 L51.5924602,75.2654232 L51.2674683,75.2654232 Z" id="Path" fill="#010101"></path>
                            <path d="M52.3480663,71.1142994 L52.3480663,70.5117169 L52.7880663,70.5117169 L52.7880663,71.1142994 L52.3480663,71.1142994 Z M52.3480663,75.2654232 L52.3480663,71.7647059 L52.7480663,71.7647059 L52.7480663,75.2654232 L52.3480663,75.2654232 Z" id="Shape" fill="#010101"></path>
                            <path d="M54.8586285,75.2654232 L54.8586285,72.9029173 C54.8796909,72.6578841 54.846085,72.4106213 54.761131,72.1855571 C54.6787578,72.0594348 54.545894,71.99396 54.4117647,72.0133907 C54.2545059,72.0122393 54.1019705,72.0766135 53.9811505,72.195122 C53.8709168,72.289344 53.8023448,72.4367555 53.7942801,72.5968436 L53.7942801,75.2654232 L53.4692883,75.2654232 L53.4692883,71.7647059 L53.761781,71.7647059 L53.761781,72.1472979 C53.8465786,71.9999704 53.9574445,71.8759808 54.0867728,71.7838355 C54.2089648,71.7061512 54.3460313,71.6666346 54.4848879,71.6690579 C54.6897329,71.6522104 54.8890597,71.7517609 55.0211245,71.9368723 C55.1489147,72.190443 55.2057596,72.48489 55.1836204,72.7785748 L55.1836204,75.2654232 L54.8586285,75.2654232 Z" id="Path" fill="#010101"></path>
                            <path d="M57.3123172,74.9593496 C57.2451224,75.0845926 57.1565936,75.1920687 57.0523237,75.274988 C56.9366822,75.3447363 56.8085174,75.3808163 56.678583,75.3802009 C56.3943013,75.3875974 56.1305624,75.2064824 55.9961001,74.9115256 C55.6950124,74.0109858 55.6950124,73.0095785 55.9961001,72.1090387 C56.1329243,71.8202314 56.3981866,71.649223 56.678583,71.6690579 C56.804513,71.6672687 56.9283522,71.707029 57.0360741,71.7838355 C57.1484459,71.876495 57.2449286,71.9933231 57.320442,72.1281683 L57.320442,71.7647059 L57.6373091,71.7647059 L57.6373091,75.0263032 C57.666688,75.4233455 57.5899941,75.821276 57.4179396,76.1645146 C57.2223165,76.3977006 56.9473826,76.5137968 56.6704582,76.480153 C56.4656835,76.4896054 56.2654383,76.4076103 56.1098473,76.2505978 C55.9628899,76.105779 55.8768571,75.8927399 55.8742281,75.6671449 L56.1910952,75.6671449 C56.2003742,75.8091326 56.2629211,75.9388659 56.361716,76.0210426 C56.4731343,76.1127945 56.6079489,76.1566927 56.7435814,76.145385 C56.9123717,76.1573777 57.0747076,76.0672325 57.1741956,75.9062649 C57.2829003,75.7038912 57.3341173,75.4660626 57.320442,75.227164 L57.3123172,74.9593496 Z M57.3123172,73.5246294 C57.3307655,73.1225411 57.2838871,72.720001 57.1741956,72.338594 C57.093289,72.1195552 56.905599,71.9824105 56.7029574,71.9942611 C56.5050589,71.9876559 56.32548,72.129875 56.2560936,72.3481588 C56.1392277,72.7210076 56.0894269,73.1183704 56.1098473,73.5150646 C56.090556,73.9085751 56.1403397,74.3025449 56.2560936,74.6724055 C56.3307682,74.8955955 56.5154816,75.0405629 56.719207,75.035868 C56.9172964,75.045185 57.0991564,74.9075544 57.1741956,74.6915352 C57.2841967,74.3168244 57.3311117,73.9204679 57.3123172,73.5246294 Z" id="Shape" fill="#010101"></path>
                            <path d="M59.5060123,73.5246294 C59.4800727,73.0449576 59.5642647,72.5659074 59.7497563,72.1377331 C59.9026972,71.8713161 60.1591163,71.7131959 60.4322392,71.7168819 C60.7232185,71.7080981 60.995958,71.8832319 61.1472213,72.1759923 C61.3255402,72.6068348 61.4066817,73.0844481 61.3828404,73.5628886 C61.4110206,74.0385952 61.3296186,74.5144375 61.1472213,74.94022 C60.995958,75.2329804 60.7232185,75.4081142 60.4322392,75.3993305 C60.1383929,75.4116017 59.8618436,75.2360168 59.7091323,74.94022 C59.5359564,74.4979226 59.4658523,74.0093502 59.5060123,73.5246294 L59.5060123,73.5246294 Z M59.8472538,73.5246294 C59.8324791,73.9062062 59.8850415,74.2872467 60.001625,74.6437111 C60.0729249,74.8726315 60.2576251,75.025218 60.4647384,75.0263032 C60.6703924,75.0199214 60.8528171,74.8692148 60.9278518,74.6437111 C61.1335257,73.9173017 61.1335257,73.131957 60.9278518,72.4055476 C60.8546196,72.1793596 60.6703564,72.0298954 60.4647384,72.0298954 C60.2591204,72.0298954 60.0748572,72.1793596 60.001625,72.4055476 C59.8850415,72.762012 59.8324791,73.1430525 59.8472538,73.5246294 Z" id="Shape" fill="#010101"></path>
                            <path d="M63.4140396,75.2654232 L63.4140396,72.9029173 C63.435102,72.6578841 63.4014962,72.4106213 63.3165421,72.1855571 C63.2305909,72.0594031 63.0954655,71.9943272 62.959051,72.0133907 C62.804083,72.0111139 62.6537781,72.0757667 62.5365616,72.195122 C62.4223457,72.2863856 62.3503696,72.4346682 62.3415665,72.5968436 L62.3415665,75.2654232 L62.0571986,75.2654232 L62.0571986,71.7647059 L62.3496913,71.7647059 L62.3496913,72.1472979 C62.4366336,72.0021315 62.5470782,71.8786131 62.6746831,71.7838355 C62.7992832,71.7045446 62.9393262,71.6649774 63.080923,71.6690579 C63.2836821,71.6505006 63.4812018,71.7506662 63.6090348,71.9368723 C63.7401779,72.1890948 63.7999207,72.483817 63.7796555,72.7785748 L63.7796555,75.2654232 L63.4140396,75.2654232 Z" id="Path" fill="#010101"></path>
                            <polygon id="Path" fill="#010101" points="64.3321417 73.687231 64.3321417 73.3524629 65.7783555 73.3524629 65.7783555 73.687231"></polygon>
                            <path d="M68.0614235,70.5117169 L68.0614235,75.2941176 L67.7445564,75.2941176 L67.7445564,74.9306552 C67.6714024,75.0703455 67.5746041,75.1908115 67.4601885,75.2845528 C67.3502263,75.3538173 67.2274106,75.389963 67.1026974,75.3897657 C66.8218514,75.4119814 66.5555768,75.2403204 66.4202145,74.9497848 C66.2488537,74.5132894 66.1734203,74.0330963 66.200845,73.5533238 C66.17734,73.0697587 66.2554775,72.5868306 66.4283393,72.1472979 C66.5649104,71.8512511 66.833071,71.6729801 67.118947,71.6881875 C67.2439166,71.6854326 67.367272,71.7217372 67.4764381,71.7934003 C67.58665,71.8749505 67.6786038,71.9864821 67.7445564,72.1186035 L67.7445564,70.5404113 L68.0614235,70.5117169 Z M67.7445564,73.5150646 C67.7631703,73.1161021 67.716274,72.7166562 67.6064348,72.338594 C67.5313956,72.1225748 67.3495356,71.9849441 67.1514462,71.9942611 C66.9456662,71.9910588 66.7603441,72.1403315 66.6883328,72.3672884 C66.5809324,72.7394257 66.534074,73.1320593 66.5502112,73.5246294 C66.5285862,73.9205986 66.5755786,74.3176096 66.6883328,74.6915352 C66.760723,74.9113199 66.9431927,75.0532478 67.1433214,75.0454328 C67.3443829,75.0489905 67.5273425,74.9091782 67.6064348,74.6915352 C67.716274,74.3134729 67.7631703,73.9140271 67.7445564,73.5150646 Z" id="Shape" fill="#010101"></path>
                            <path d="M70.4176146,74.1463415 C70.4144082,74.4723912 70.3265161,74.7894761 70.1657459,75.0549976 C70.0068947,75.2568298 69.7819044,75.3683526 69.5482613,75.3610713 C69.2732523,75.3748524 69.0164591,75.1994403 68.8901527,74.9115256 C68.7201314,74.4779208 68.6447295,74.0012156 68.6707832,73.5246294 C68.643006,73.0438326 68.7213773,72.5627548 68.8982775,72.1281683 C69.0343247,71.8373518 69.2990556,71.6629758 69.5807605,71.6786227 C69.8347683,71.6644058 70.0760753,71.8100855 70.2144946,72.0612147 C70.3792397,72.4043363 70.4554709,72.7965426 70.4338642,73.1898613 L70.4338642,73.4863702 L69.0120247,73.4863702 L69.0120247,73.687231 C69.0027455,74.0137653 69.0497302,74.3391302 69.1501462,74.6437111 C69.2088845,74.8436052 69.3685899,74.9778987 69.5482613,74.9784792 C69.7032997,74.9868808 69.8509379,74.8999784 69.9382515,74.748924 C70.0444148,74.5554984 70.0982416,74.3287119 70.0926227,74.0985175 L70.4176146,74.1463415 Z M69.0120247,73.1898613 L70.1007475,73.1898613 L70.1007475,73.1133429 C70.1007475,73.1133429 70.1007475,73.0559541 70.1007475,73.0368245 C70.1142467,72.7767292 70.0634505,72.5175997 69.9545011,72.29077 C69.8793202,72.120356 69.7275238,72.0161142 69.5645109,72.0229555 C69.3912374,72.0178815 69.2305659,72.1291452 69.1501462,72.3098996 C69.0400561,72.5741409 68.9896867,72.8673299 69.0038999,73.1611669 L69.0120247,73.1898613 Z" id="Shape" fill="#010101"></path>
                            <path d="M70.9944751,75.2654232 L70.9944751,71.7647059 L71.2869678,71.7647059 L71.2869678,72.1472979 C71.372664,71.9999724 71.4868294,71.8786849 71.6200845,71.7934003 C71.7439088,71.7107791 71.8839971,71.6679007 72.0263243,71.6690579 C72.1673436,71.6664916 72.3058577,71.7130813 72.4244394,71.8029651 C72.5351497,71.8962991 72.6199513,72.02608 72.6681833,72.1759923 C72.7534641,72.0206848 72.8673092,71.8899311 73.0013,71.7934003 C73.1369987,71.725298 73.2851863,71.6989657 73.4319142,71.7168819 C73.6344371,71.6999814 73.8313326,71.7998304 73.960026,71.9846963 C74.0829958,72.2404966 74.1394956,72.5331562 74.1225219,72.8263989 L74.1225219,75.3132473 L73.8056549,75.3132473 L73.8056549,72.9507413 C73.8267172,72.7057081 73.7931114,72.4584453 73.7081573,72.2333812 C73.6204518,72.110782 73.4856085,72.0494498 73.3506662,72.0707795 C73.1949372,72.0707597 73.0435613,72.1312821 72.920052,72.242946 C72.8104231,72.3261104 72.7387173,72.4632842 72.7250569,72.6159732 L72.7250569,75.3132473 L72.4163146,75.3132473 L72.4163146,72.9507413 C72.4387313,72.7016025 72.4021761,72.4500191 72.3106922,72.2238164 C72.2196336,72.1076223 72.0863896,72.0505825 71.9532012,72.0707795 C71.7982331,72.0685027 71.6479282,72.1331555 71.5307117,72.2525108 C71.4170762,72.3355242 71.3444607,72.4780001 71.3357166,72.6351028 L71.3357166,75.3132473 L70.9944751,75.2654232 Z" id="Path" fill="#010101"></path>
                            <path d="M76.4949626,75.274988 L76.3649659,75.274988 L76.2674683,75.274988 C76.196747,75.278093 76.1274678,75.250907 76.0724732,75.1984696 C76.0101743,75.1394506 75.9647925,75.0593129 75.9424764,74.9689144 C75.8666647,75.0868939 75.7657789,75.1792677 75.6499838,75.2367288 C75.5368615,75.3042275 75.4111271,75.3371206 75.2843679,75.3323769 C75.0888145,75.3453675 74.8993794,75.2497919 74.7725057,75.0741272 C74.6400894,74.8685618 74.5738764,74.6143825 74.5856354,74.3567671 C74.5748425,74.125897 74.6354551,73.8982394 74.7562561,73.7159254 C74.9123582,73.5166353 75.107661,73.3655467 75.3249919,73.2759445 L75.560611,73.1802965 C75.8206045,73.0750837 75.9506012,72.9411765 75.9506012,72.7594452 L75.9506012,72.4725012 C75.9637526,72.324269 75.9256864,72.1760417 75.8449789,72.0612147 C75.7538589,71.9662043 75.6328386,71.9210311 75.5118622,71.9368723 C75.3726738,71.9205601 75.2348475,71.9805236 75.1381215,72.0994739 C75.039549,72.2344777 74.9899491,72.40965 75,72.5872788 L74.6912577,72.5872788 L74.6912577,72.5203252 C74.67948,72.2769206 74.763357,72.0406426 74.918752,71.8794835 C75.0833408,71.7071208 75.3003265,71.6208224 75.519987,71.6403635 C75.6496991,71.6346516 75.7791839,71.6573545 75.9018525,71.7073171 C75.9966219,71.7480284 76.0806653,71.8172856 76.1455964,71.9081779 C76.1882172,71.9732787 76.2186732,72.048246 76.2349691,72.1281683 C76.2461117,72.2489674 76.2461117,72.3708317 76.2349691,72.4916308 L76.2349691,74.5863223 C76.214656,74.6934046 76.214656,74.8044433 76.2349691,74.9115256 C76.2766557,74.9636367 76.3372727,74.9886129 76.3974651,74.9784792 L76.3974651,74.9784792 L76.4949626,75.274988 Z M75.9424764,73.3620277 C75.6351884,73.4785098 75.3447771,73.649451 75.081248,73.8689622 C74.9733587,74.0029429 74.9149334,74.1817718 74.918752,74.3663319 C74.9116494,74.5330597 74.9516471,74.6978632 75.0324992,74.8350072 C75.1092004,74.9479329 75.2266079,75.011725 75.3493663,75.0071736 C75.5269038,75.0217872 75.6974666,74.9232162 75.7962301,74.748924 C75.9087289,74.5028621 75.9594515,74.2242042 75.9424764,73.9454806 L75.9424764,73.3620277 Z" id="Shape" fill="#010101"></path>
                            <path d="M78.3474163,75.2654232 L78.3474163,72.9029173 C78.3684787,72.6578841 78.3348728,72.4106213 78.2499188,72.1855571 C78.1639675,72.0594031 78.0288422,71.9943272 77.8924277,72.0133907 C77.7374597,72.0111139 77.5871547,72.0757667 77.4699383,72.195122 C77.3557224,72.2863856 77.2837462,72.4346682 77.2749431,72.5968436 L77.2749431,75.2654232 L76.9499513,75.2654232 L76.9499513,71.7647059 L77.2424439,71.7647059 L77.2424439,72.1472979 C77.3293863,72.0021315 77.4398309,71.8786131 77.5674358,71.7838355 C77.6920359,71.7045446 77.8320789,71.6649774 77.9736757,71.6690579 C78.1764348,71.6505006 78.3739545,71.7506662 78.5017875,71.9368723 C78.6329305,72.1890948 78.6926734,72.483817 78.6724082,72.7785748 L78.6724082,75.2654232 L78.3474163,75.2654232 Z" id="Path" fill="#010101"></path>
                            <path d="M81.1098473,70.5117169 L81.1098473,75.2941176 L80.801105,75.2941176 L80.801105,74.9306552 C80.7274255,75.0729876 80.6274526,75.1939485 80.5086123,75.2845528 C80.3986501,75.3538173 80.2758344,75.389963 80.1511212,75.3897657 C79.8707248,75.4096006 79.6054625,75.2385922 79.4686383,74.9497848 C79.3036016,74.5111607 79.2311264,74.0320537 79.2573936,73.5533238 C79.2311218,73.0695504 79.309388,72.5858269 79.4848879,72.1472979 C79.6172273,71.8510881 79.8834074,71.6720271 80.1673708,71.6881875 C80.2947901,71.6868028 80.4204788,71.7229721 80.5329867,71.7934003 C80.6399729,71.8795478 80.7311527,71.9901407 80.801105,72.1186035 L80.801105,70.5404113 L81.1098473,70.5117169 Z M80.801105,73.5150646 C80.8226641,73.1151884 80.772846,72.7144293 80.6548586,72.338594 C80.5798194,72.1225748 80.3979594,71.9849441 80.19987,71.9942611 C79.9963114,71.9922607 79.8138796,72.1418293 79.7448814,72.3672884 C79.6291274,72.737149 79.5793438,73.1311188 79.598635,73.5246294 C79.5812678,73.9203966 79.628145,74.3164336 79.7367566,74.6915352 C79.8110957,74.9094592 79.9923059,75.0504075 80.1917452,75.0454328 C80.3928067,75.0489905 80.5757662,74.9091782 80.6548586,74.6915352 C80.772846,74.3156999 80.8226641,73.9149407 80.801105,73.5150646 Z" id="Shape" fill="#010101"></path>
                            <ellipse id="Oval" fill="#8DC63F" cx="57.0685733" cy="18.842659" rx="6.63795905" ry="7.81444285"></ellipse>
                        </g>
                    </g>
                </g>
                <g id="video" transform="translate(40.000000, 38.000000)" filter="url(#filter-2)">
                    <g>
                        <mask id="mask-4" fill="white">
                            <use xlink:href="#path-3"></use>
                        </mask>
                        <g fill-rule="nonzero"></g>
                        <g id="Group" mask="url(#mask-4)" fill="#90A4AE">
                            <g id="🎨-color">
                                <rect id="Rectangle-14" x="0" y="0" width="32" height="32"></rect>
                            </g>
                        </g>
                    </g>
                </g>
            </g>
        </g>
    </g>
</svg>