<?xml version="1.0" ?><svg id="Layer_1" style="enable-background:new 0 0 256 256;" version="1.1" viewBox="0 0 256 256" xml:space="preserve" xmlns="http://www.w3.org/2000/svg" xmlns:xlink="http://www.w3.org/1999/xlink"><g><path d="M117.1,83.7c1,1.1,2.4,1.6,3.7,1.6c1.3,0,2.6-0.5,3.5-1.4l27.5-26.1c2.1-2,2.2-5.2,0.2-7.3c-2-2.1-5.2-2.2-7.3-0.2   L121,72.9l-9.6-10c-2-2.1-5.2-2.1-7.3-0.1c-2.1,2-2.1,5.2-0.1,7.3L117.1,83.7z"/><path d="M81.6,92.8c4.3,22.2,23.8,38.3,46.4,38.3s42.1-16.1,46.4-38.3l6.5-33.4c1.9-14.2-2.4-28.5-11.8-39.3   c-9.4-10.8-23-17-37.3-17h-7.6c-14.3,0-27.9,6.2-37.3,17c-9.4,10.8-13.7,25.1-11.7,39.5L81.6,92.8z M94.6,26.9   c7.4-8.5,18.2-13.4,29.5-13.4h7.6c11.3,0,22.1,4.9,29.5,13.4c7.4,8.5,10.8,19.9,9.4,30.8l-6.4,33.1c-3.4,17.3-18.6,29.9-36.3,29.9   s-32.9-12.6-36.3-29.9l-6.4-32.9C83.8,46.7,87.2,35.4,94.6,26.9z"/><path d="M243.1,240.2l-14-65.8c-1.3-6-5.6-10.9-11.4-13l-44.9-15.9c-1.8-0.6-3.8-0.2-5.2,1.1l-39.6,37l-39.6-37   c-1.4-1.3-3.4-1.7-5.2-1.1l-44.9,15.9c-5.7,2-10.1,7-11.4,13l-14,65.8c-0.7,3.1,0.1,6.3,2.1,8.8s5,3.9,8.2,3.9h209.6   c3.2,0,6.2-1.4,8.2-3.9S243.7,243.3,243.1,240.2z M23,242.4l14-65.8c0.5-2.5,2.3-4.6,4.7-5.4l42-14.9l40.8,38.1c2,1.9,5.1,1.9,7,0   l40.8-38.1l41.9,14.9c2.4,0.9,4.2,2.9,4.7,5.4l13.8,66L23,242.4z"/></g></svg>