<svg xmlns="http://www.w3.org/2000/svg" viewBox="0 0 67.89 51"><defs><style>.cls-1{fill:#92278f;}.cls-2{fill:#ec008c;}.cls-3{fill:#8dc63f;}.cls-4{fill:#010101;}</style></defs><g id="Layer_2" data-name="Layer 2"><g id="Layer_1-2" data-name="Layer 1"><path class="cls-1" d="M14.47.84a1.48,1.48,0,0,1-.28.87,1.22,1.22,0,0,1-.73.49.81.81,0,0,1-.5-.11A.91.91,0,0,0,12.47,2,8,8,0,0,0,10,2.7c-1.22.54-2,.87-2.39,1-.06,1-.09,2-.09,3.05s0,2.07.09,3.11A1.6,1.6,0,0,0,8,9.89,6.25,6.25,0,0,0,9.66,9.5a4.4,4.4,0,0,1,1.68-.26c.33,0,.48.17.45.41a1.87,1.87,0,0,1-1.12,1.43c-.62.21-1.23.42-1.85.65-.24,0-.63.11-1.17.23,0,.32,0,.68,0,1.08s0,1,.06,1.74,0,1.36,0,1.74a7.16,7.16,0,0,1-.61,3.25.43.43,0,0,1-.4.27.84.84,0,0,1-.56-.27,1.25,1.25,0,0,1-.39-.57,6.3,6.3,0,0,1-.22-1.72c0-.22,0-1,.16-2.32a9.39,9.39,0,0,0,0-2.31.67.67,0,0,0-.45-.5A2.35,2.35,0,0,1,4.55,12a2.76,2.76,0,0,1,0-1,.46.46,0,0,0,.46-.19.5.5,0,0,1,.37-.24l.18,0A13.93,13.93,0,0,0,5.83,8c0-.34-.06-1.57-.18-3.71a1.8,1.8,0,0,1-.84-.56,1.27,1.27,0,0,1-.42-.87c0-.4.27-.63.81-.71A28.91,28.91,0,0,0,9.27.93,14.53,14.53,0,0,1,13.46,0a1.18,1.18,0,0,1,.71.23A.72.72,0,0,1,14.47.84Z"/><path class="cls-1" d="M20.81,4.06a22.72,22.72,0,0,1-2.45.84,21,21,0,0,0-2.45.83,13,13,0,0,0-.29,2.77,2.12,2.12,0,0,0,.83.14,6.84,6.84,0,0,0,1.05-.11,7.29,7.29,0,0,1,1.06-.12,2,2,0,0,1,1.08.28,1.81,1.81,0,0,1,.32.62.33.33,0,0,1-.16.27,1.88,1.88,0,0,0-.32.33.5.5,0,0,1-.45.19,8.49,8.49,0,0,1-1.73.14,4.89,4.89,0,0,0-1.68.29,12.4,12.4,0,0,0-.43,2.79,2.74,2.74,0,0,0,.18,1.1,5.82,5.82,0,0,0,3.66.67.62.62,0,0,0,.39-.18.55.55,0,0,1,.33-.18c.42-.09.7.24.84,1a1,1,0,0,1-.13.7.66.66,0,0,1-.55.35,15.81,15.81,0,0,1-4.72-.46A2.33,2.33,0,0,1,14,15.59a2.18,2.18,0,0,1-.58-1.29,16.47,16.47,0,0,1,0-3.72c-.42-.3-.61-.6-.57-.88s.14-.28.35-.4.34-.24.37-.37.09-.88.18-2.27c-.84-.17-1.25-.51-1.23-1a1.26,1.26,0,0,1,.78-1.1l1.44-.62a10.62,10.62,0,0,1,2.09-.81c.74-.21,1.47-.41,2.21-.6l.27,0a2.77,2.77,0,0,1,1.42.5,3.46,3.46,0,0,0,.11.36,1.31,1.31,0,0,1,.09.38A.36.36,0,0,1,20.81,4.06Z"/><path class="cls-1" d="M27.81,13.24s-.91.68-2.64,2a15.74,15.74,0,0,1-2.67,1.7.54.54,0,0,1-.27.07.74.74,0,0,1-.59-.43l-.42-.6c0-1.4.05-3.35.24-5.86s.34-4.58.34-5.76c0-.81,0-1.58-.09-2.3a1,1,0,0,1,.74-.31c.57,0,.9.23,1,.67,0,1.31,0,3.26-.16,5.86s-.21,4.56-.18,5.87a11,11,0,0,0,1.65-1,14,14,0,0,1,1.59-1.07l.4-.05a2.93,2.93,0,0,1,.41,0,.7.7,0,0,1,.66.39A.83.83,0,0,1,27.81,13.24Z"/><path class="cls-1" d="M34.93,13.24s-.9.68-2.63,2a15.74,15.74,0,0,1-2.67,1.7.54.54,0,0,1-.27.07.74.74,0,0,1-.59-.43l-.43-.6c0-1.4.06-3.35.25-5.86s.34-4.58.34-5.76c0-.81,0-1.58-.09-2.3a1,1,0,0,1,.74-.31c.57,0,.9.23,1,.67.05,1.31,0,3.26-.16,5.86s-.21,4.56-.18,5.87a11,11,0,0,0,1.65-1,14,14,0,0,1,1.59-1.07l.4-.05a2.93,2.93,0,0,1,.41,0,.68.68,0,0,1,.65.39A.8.8,0,0,1,34.93,13.24Z"/><path class="cls-1" d="M54,3.7a.84.84,0,0,1,.52.77,2.29,2.29,0,0,1-.27.9,8.33,8.33,0,0,0-.36.86,37.37,37.37,0,0,0-1,5.38,39.4,39.4,0,0,1-1,5.3c-.09.32-.35.47-.77.47a1.24,1.24,0,0,1-.52-.11,2.74,2.74,0,0,1-1.19-1.77c0-.08-.16-.88-.43-2.39-.13-.8-.26-1.65-.38-2.56a18.76,18.76,0,0,0-.83,3.32,6.38,6.38,0,0,1-1.06,2.92c-.12.13-.33.14-.63.05a1.08,1.08,0,0,1-.9-.86l-.27-1.34a36.14,36.14,0,0,1-.64-5.35A33.33,33.33,0,0,0,43.59,4a.8.8,0,0,1,.07-.55A.48.48,0,0,1,44,3.15a1.49,1.49,0,0,1,.36,0,1.07,1.07,0,0,1,1,.6q.36,2,.85,7.81A9.12,9.12,0,0,0,46.64,10a9.06,9.06,0,0,1,.46-1.61c.13-.6.26-1.21.38-1.81s.56-1.1,1.13-1.1a1.81,1.81,0,0,1,.49.07c0,.1.08.15.2.17s.19,0,.21.07a12.32,12.32,0,0,1,.74,3.13c.25,1.84.41,2.91.47,3.2.24-1.42.49-2.83.74-4.23a16.66,16.66,0,0,1,1.22-4,.65.65,0,0,1,.65-.31A1.39,1.39,0,0,1,54,3.7Z"/><path class="cls-2" d="M17.31,28.24a14.49,14.49,0,0,0-.79,3.94c-.07,1.35-.14,2.71-.2,4.06,0,.4-.28.6-.74.6a1,1,0,0,1-.38-.08,1.58,1.58,0,0,1-1-1.6,8.46,8.46,0,0,1,.09-1,8.38,8.38,0,0,0,.09-1c.06-.46.13-1.16.22-2.08a10.06,10.06,0,0,1-3.5,2.32,1.7,1.7,0,0,1-.54.09,2.43,2.43,0,0,1-1.92-1.24,2.87,2.87,0,0,1-.49-1.72,7.38,7.38,0,0,1,.38-2.12,26.9,26.9,0,0,1,3.8-7.57C13.23,19.61,14,19,14.68,19s.94.24,1,.71a.76.76,0,0,1-.38.86,8.08,8.08,0,0,0-.83.51A23.93,23.93,0,0,0,11,26.81a9.78,9.78,0,0,0-1,3.89c0,.21,0,.41,0,.62a.63.63,0,0,1,.13.23c.06.13.15.18.25.13a20.17,20.17,0,0,0,4.48-3.27,2.84,2.84,0,0,0,.51-1.1.83.83,0,0,1,.81-.67c-.12,0,0,0,.36-.05.18,0,.3,0,.36.1a2.15,2.15,0,0,1,.43,1.1A1.29,1.29,0,0,1,17.31,28.24Z"/><path class="cls-2" d="M26.53,22.27a22.72,22.72,0,0,1-2.45.84,21,21,0,0,0-2.45.83,13,13,0,0,0-.29,2.77,2.12,2.12,0,0,0,.83.14,7.05,7.05,0,0,0,1-.12,8.55,8.55,0,0,1,1.06-.11,2,2,0,0,1,1.08.28,1.81,1.81,0,0,1,.32.62.33.33,0,0,1-.16.27,1.88,1.88,0,0,0-.32.33.5.5,0,0,1-.45.19,8.49,8.49,0,0,1-1.73.14,4.93,4.93,0,0,0-1.68.29,12.4,12.4,0,0,0-.43,2.79,2.74,2.74,0,0,0,.18,1.1,5.82,5.82,0,0,0,3.66.67.62.62,0,0,0,.39-.18.55.55,0,0,1,.33-.18c.42-.09.7.24.84,1a1,1,0,0,1-.13.7.66.66,0,0,1-.55.35,15.81,15.81,0,0,1-4.72-.46,2.33,2.33,0,0,1-1.15-.74,2.18,2.18,0,0,1-.58-1.29,16.47,16.47,0,0,1,0-3.72c-.42-.3-.61-.6-.57-.88s.14-.28.35-.4.34-.24.37-.37.09-.88.18-2.27c-.84-.17-1.25-.51-1.23-1a1.26,1.26,0,0,1,.78-1.1l1.44-.62a10.73,10.73,0,0,1,2.1-.81c.73-.21,1.46-.41,2.2-.6l.27,0a2.77,2.77,0,0,1,1.42.5,3.46,3.46,0,0,0,.11.36,1.31,1.31,0,0,1,.09.38A.36.36,0,0,1,26.53,22.27Z"/><path class="cls-2" d="M36.56,19.74q-.31,3.2-.61,6.42c-.25,2.55-.38,4.67-.38,6.38,0,.56,0,1.1,0,1.65a.94.94,0,0,1-.9,1c-.47,0-.86-.33-1.17-1A88.3,88.3,0,0,1,30,24.78c0-.1-.07-.15-.11-.15s-.17.12-.2.34a63.28,63.28,0,0,0-.39,7.19c0,1.21,0,2.44.09,3.7a1,1,0,0,1-.38,1,.47.47,0,0,1-.34.17,1,1,0,0,1-.4-.14l-.43-.22q-.28-.09-.36-.57c0-.26,0-.52,0-.79-.05-.89-.07-1.82-.07-2.79q0-2.53.27-6.33c.29-3.85.44-6,.47-6.4s.29-.53.83-.53c.26,0,.63.17,1.13.6a39.1,39.1,0,0,1,1.78,4.73,34,34,0,0,0,1.84,4.75q.35-3.18,1.06-9.6c0-.32.26-.48.65-.48a2.33,2.33,0,0,1,.47.07l.43.12A.5.5,0,0,1,36.56,19.74Z"/><path class="cls-3" d="M40.27,16.86c0,.46,0,.94,0,1.43,0,1.08-.11,2.72-.32,4.9s-.31,3.83-.31,4.94c0,.41,0,.82,0,1.22a.82.82,0,0,1-.88.64c-.64,0-1-.32-1-.88a16.63,16.63,0,0,1-.09-1.77,45.69,45.69,0,0,1,.37-4.85,48.12,48.12,0,0,0,.37-4.82c0-.41,0-.82,0-1.22a.79.79,0,0,1,.77-.45,1.65,1.65,0,0,1,.85.26.25.25,0,0,1,.14-.07s.06.08.06.24a1.58,1.58,0,0,0,0,.33A.2.2,0,0,0,40.27,16.86Z"/><path class="cls-2" d="M49.63,21.19a30.12,30.12,0,0,1-.9,4.47c-.68,2.5-1.07,4-1.17,4.54a11.56,11.56,0,0,1-1.89,4.39,2.39,2.39,0,0,1-2,1.24c-.68,0-1.18-.47-1.51-1.36a14.76,14.76,0,0,1-.86-5.28,41.07,41.07,0,0,1,.32-4.48,11.33,11.33,0,0,1,0-1.49c0-1,.36-1.48,1.08-1.48a1,1,0,0,1,.48.14l.51.27c0,.81,0,2-.07,3.58s-.11,2.91-.11,3.66,0,1.52.06,2.17a15.48,15.48,0,0,0,.41,1.91,8,8,0,0,0,1.48-3q.18-.61.72-3.39a16.16,16.16,0,0,1,1-3.29,5.22,5.22,0,0,0,.27-1.27,4.76,4.76,0,0,1,.27-1.29.86.86,0,0,1,.85-.57A1.24,1.24,0,0,1,49.63,21.19Z"/><path class="cls-2" d="M55.09,19.76c0,.32-.22.6-.65.84a.46.46,0,0,1-.38,0l-.34-.09a.36.36,0,0,0-.27.14,4.42,4.42,0,0,0-1.21,3.15,3.88,3.88,0,0,0,.2,1.29c.06.18.63,1.41,1.71,3.7a9.54,9.54,0,0,1,1.08,3.89,5.59,5.59,0,0,1-.61,2.54,3.71,3.71,0,0,1-1,1,2.06,2.06,0,0,1-1.17.5,1.17,1.17,0,0,1-.38-.07c-.45-.21-.68-.47-.68-.79a1.15,1.15,0,0,1,.34-.69.6.6,0,0,1,.43-.15.48.48,0,0,0,.45-.28,5.28,5.28,0,0,0,.47-2.15,11.52,11.52,0,0,0-1.45-4.5,11.53,11.53,0,0,1-1.45-4.72,6,6,0,0,1,.54-2.6A3.78,3.78,0,0,1,52.44,19a2.26,2.26,0,0,1,1-.26,1.77,1.77,0,0,1,1.42.55A.79.79,0,0,1,55.09,19.76Z"/><ellipse class="cls-3" cx="39.33" cy="10.02" rx="4.12" ry="4.37"/><path class="cls-4" d="M0,48.77V40H.58v8.78Z"/><path class="cls-4" d="M4.93,46.69a3.22,3.22,0,0,1-.44,1.68,1.24,1.24,0,0,1-1.09.57,1.24,1.24,0,0,1-1.18-.83,6.55,6.55,0,0,1-.38-2.56A6.36,6.36,0,0,1,2.23,43a1.29,1.29,0,0,1,1.22-.84,1.21,1.21,0,0,1,1.12.71A4.42,4.42,0,0,1,5,44.93v.55H2.44v.36a5.49,5.49,0,0,0,.24,1.87c.16.41.4.62.72.62a.77.77,0,0,0,.69-.43,2.43,2.43,0,0,0,.27-1.21ZM2.44,44.9H4.37a1,1,0,0,1,0-.15v-.13a3.24,3.24,0,0,0-.24-1.39.77.77,0,0,0-.7-.49.8.8,0,0,0-.74.54,3.76,3.76,0,0,0-.26,1.56Z"/><path class="cls-4" d="M9,48.79a1,1,0,0,1-.22,0l-.17,0a.52.52,0,0,1-.36-.14A.92.92,0,0,1,8,48.29a1.54,1.54,0,0,1-.52.5,1.29,1.29,0,0,1-.65.17A1.05,1.05,0,0,1,6,48.48a2.3,2.3,0,0,1-.33-1.32A2.12,2.12,0,0,1,5.93,46a2.37,2.37,0,0,1,1-.8L7.35,45c.47-.19.7-.45.7-.78v-.54a1.26,1.26,0,0,0-.18-.75.71.71,0,0,0-.6-.24A.81.81,0,0,0,6.6,43a1.57,1.57,0,0,0-.24.91H5.82v-.14a1.66,1.66,0,0,1,.4-1.18,1.37,1.37,0,0,1,1.07-.44,1.67,1.67,0,0,1,.67.12,1,1,0,0,1,.44.38,1.2,1.2,0,0,1,.16.4,3.78,3.78,0,0,1,0,.68v3.84a1.48,1.48,0,0,0,.07.61.32.32,0,0,0,.28.11H9ZM8,45.3a5,5,0,0,0-1.51.94,1.38,1.38,0,0,0-.3.92,1.54,1.54,0,0,0,.21.86.64.64,0,0,0,.56.32.84.84,0,0,0,.79-.48A3.28,3.28,0,0,0,8,46.37Z"/><path class="cls-4" d="M9.83,48.77V42.3h.56V43a1.35,1.35,0,0,1,.46-.61,1.2,1.2,0,0,1,.7-.2h.1v.7a1.15,1.15,0,0,0-1,.45A3.43,3.43,0,0,0,10.39,45v3.75Z"/><path class="cls-4" d="M14.9,48.77V44.4a3.13,3.13,0,0,0-.18-1.33.63.63,0,0,0-.62-.31,1,1,0,0,0-.76.34,1,1,0,0,0-.34.73v4.94h-.58V42.3h.52V43a2,2,0,0,1,.58-.67,1.26,1.26,0,0,1,.71-.21,1,1,0,0,1,.95.49,3.19,3.19,0,0,1,.29,1.56v4.59Z"/><path class="cls-4" d="M16.81,41.11V40h.64v1.12Zm0,7.66V42.3h.59v6.47Z"/><path class="cls-4" d="M21.27,48.77V44.4a3.36,3.36,0,0,0-.17-1.33.66.66,0,0,0-.63-.31,1,1,0,0,0-.76.34,1,1,0,0,0-.33.73v4.94H18.8V42.3h.52V43a1.86,1.86,0,0,1,.58-.67,1.21,1.21,0,0,1,.71-.21,1,1,0,0,1,.94.49,3.06,3.06,0,0,1,.3,1.56v4.59Z"/><path class="cls-4" d="M25.63,48.19a1.48,1.48,0,0,1-.47.58,1.11,1.11,0,0,1-.65.2,1.3,1.3,0,0,1-1.22-.85,6.36,6.36,0,0,1-.4-2.59,6.37,6.37,0,0,1,.38-2.59,1.26,1.26,0,0,1,1.21-.81,1,1,0,0,1,.63.21,1.83,1.83,0,0,1,.52.64v-.67h.55v6a4.1,4.1,0,0,1-.38,2.08,1.46,1.46,0,0,1-1.33.59,1.32,1.32,0,0,1-1-.41,1.67,1.67,0,0,1-.43-1.09h.56a1,1,0,0,0,.31.66,1,1,0,0,0,.68.22.83.83,0,0,0,.76-.43,2.39,2.39,0,0,0,.27-1.25Zm0-2.64a6.53,6.53,0,0,0-.26-2.18.83.83,0,0,0-1.63,0,6.79,6.79,0,0,0-.25,2.15,6.47,6.47,0,0,0,.26,2.13c.18.45.45.68.82.68a.85.85,0,0,0,.81-.64A6.7,6.7,0,0,0,25.63,45.55Z"/><path class="cls-4" d="M29.52,45.55A5.85,5.85,0,0,1,30,43a1.37,1.37,0,0,1,2.54,0,6,6,0,0,1,.42,2.56,6,6,0,0,1-.42,2.55,1.39,1.39,0,0,1-2.55,0A6,6,0,0,1,29.52,45.55Zm.61,0a6.08,6.08,0,0,0,.27,2.07c.19.46.46.7.82.7s.63-.24.82-.71a5.94,5.94,0,0,0,.28-2.06A6,6,0,0,0,32,43.48c-.19-.46-.46-.7-.82-.7s-.63.23-.82.7A6.08,6.08,0,0,0,30.13,45.55Z"/><path class="cls-4" d="M36.45,48.77V44.4a3.18,3.18,0,0,0-.17-1.33.64.64,0,0,0-.62-.31,1,1,0,0,0-.76.34,1,1,0,0,0-.34.73v4.94H34V42.3h.52V43a2,2,0,0,1,.58-.67,1.24,1.24,0,0,1,.71-.21,1,1,0,0,1,1,.49A3.19,3.19,0,0,1,37,44.18v4.59Z"/><path class="cls-4" d="M38.09,45.85v-.62h2.56v.62Z"/><path class="cls-4" d="M44.71,40v8.78h-.56v-.68a2.1,2.1,0,0,1-.51.65,1.1,1.1,0,0,1-.64.2,1.25,1.25,0,0,1-1.2-.81,6.32,6.32,0,0,1-.39-2.58A6.3,6.3,0,0,1,41.82,43,1.28,1.28,0,0,1,43,42.11a1.08,1.08,0,0,1,.65.19,1.55,1.55,0,0,1,.47.6V40Zm-.56,5.54a6.41,6.41,0,0,0-.25-2.16.84.84,0,0,0-.81-.64c-.37,0-.64.23-.81.68A6.58,6.58,0,0,0,42,45.55a6.54,6.54,0,0,0,.25,2.15.84.84,0,0,0,1.63,0A6.52,6.52,0,0,0,44.15,45.53Z"/><path class="cls-4" d="M48.89,46.69a3.22,3.22,0,0,1-.44,1.68,1.29,1.29,0,0,1-2.27-.26,6.37,6.37,0,0,1-.38-2.56A6.36,6.36,0,0,1,46.19,43a1.29,1.29,0,0,1,1.22-.84,1.21,1.21,0,0,1,1.12.71,4.42,4.42,0,0,1,.39,2.08v.55H46.4v.36a5.49,5.49,0,0,0,.24,1.87c.16.41.4.62.72.62a.77.77,0,0,0,.69-.43,2.55,2.55,0,0,0,.27-1.21ZM46.4,44.9h1.93a1,1,0,0,1,0-.15v-.13a3.08,3.08,0,0,0-.25-1.39.74.74,0,0,0-.69-.49.8.8,0,0,0-.74.54,3.76,3.76,0,0,0-.26,1.56Z"/><path class="cls-4" d="M50,48.77V42.3h.52V43a1.83,1.83,0,0,1,.59-.66,1.2,1.2,0,0,1,.72-.22,1.08,1.08,0,0,1,.7.24,1.36,1.36,0,0,1,.43.68,2.08,2.08,0,0,1,.6-.69,1.3,1.3,0,0,1,.74-.23,1,1,0,0,1,.93.49,3.11,3.11,0,0,1,.3,1.56v4.59H55V44.4a3.07,3.07,0,0,0-.18-1.33.69.69,0,0,0-.64-.3,1.05,1.05,0,0,0-.75.33.93.93,0,0,0-.35.68v5h-.56V44.4a3,3,0,0,0-.18-1.33.68.68,0,0,0-.64-.3,1,1,0,0,0-.75.34,1,1,0,0,0-.34.71v5Z"/><path class="cls-4" d="M59.68,48.79a1.15,1.15,0,0,1-.22,0l-.17,0a.52.52,0,0,1-.36-.14.92.92,0,0,1-.22-.42,1.54,1.54,0,0,1-.52.5,1.29,1.29,0,0,1-.65.17,1,1,0,0,1-.91-.48,2.3,2.3,0,0,1-.33-1.32A2.21,2.21,0,0,1,56.59,46a2.48,2.48,0,0,1,1-.8L58,45c.47-.19.7-.45.7-.78v-.54a1.18,1.18,0,0,0-.19-.75.69.69,0,0,0-.59-.24.8.8,0,0,0-.67.31,1.57,1.57,0,0,0-.24.91h-.55v-.14a1.7,1.7,0,0,1,.4-1.18A1.41,1.41,0,0,1,58,42.14a1.67,1.67,0,0,1,.67.12,1,1,0,0,1,.44.38,1.2,1.2,0,0,1,.16.4,3.78,3.78,0,0,1,.05.68v3.84a1.48,1.48,0,0,0,.07.61.32.32,0,0,0,.28.11h0Zm-1-3.49a5.06,5.06,0,0,0-1.52.94,1.43,1.43,0,0,0-.29.92,1.54,1.54,0,0,0,.21.86.63.63,0,0,0,.56.32.84.84,0,0,0,.79-.48,3.28,3.28,0,0,0,.25-1.49Z"/><path class="cls-4" d="M63,48.77V44.4a3.18,3.18,0,0,0-.17-1.33.66.66,0,0,0-.63-.31,1.17,1.17,0,0,0-1.09,1.07v4.94H60.5V42.3H61V43a2,2,0,0,1,.58-.67,1.24,1.24,0,0,1,.71-.21,1,1,0,0,1,.94.49,3.06,3.06,0,0,1,.3,1.56v4.59Z"/><path class="cls-4" d="M67.89,40v8.78h-.56v-.68a2.1,2.1,0,0,1-.51.65,1.1,1.1,0,0,1-.64.2A1.27,1.27,0,0,1,65,48.13a6.53,6.53,0,0,1-.38-2.58A6.33,6.33,0,0,1,65,43a1.3,1.3,0,0,1,1.22-.85,1.05,1.05,0,0,1,.64.19,1.48,1.48,0,0,1,.48.6V40Zm-.56,5.54a6.41,6.41,0,0,0-.25-2.16.84.84,0,0,0-.81-.64c-.37,0-.64.23-.81.68a6.31,6.31,0,0,0-.26,2.14,6.54,6.54,0,0,0,.25,2.15.84.84,0,0,0,.8.65.86.86,0,0,0,.83-.65A6.8,6.8,0,0,0,67.33,45.53Z"/></g></g></svg>