<?xml version="1.0" encoding="UTF-8"?>
<svg width="494px" height="295px" viewBox="0 0 494 295" version="1.1" xmlns="http://www.w3.org/2000/svg" xmlns:xlink="http://www.w3.org/1999/xlink">
    <title>v</title>
    <defs>
        <path d="M8,0 C3.582,0 0,3.581 0,8 L0,583 C0,587.418 3.582,591 8,591 L658,591 C662.419,591 666,587.418 666,583 L666,8 C666,3.581 662.419,0 658,0 L8,0 Z" id="path-1"></path>
        <polygon id="path-3" points="0.751314291 0.109783133 58.2653874 0.109783133 58.2653874 67.4239676 0.751314291 67.4239676"></polygon>
        <polygon id="path-5" points="0 285 278 285 278 1 0 1"></polygon>
    </defs>
    <g id="v" stroke="none" stroke-width="1" fill="none" fill-rule="evenodd">
        <g id="Group-3" transform="translate(-172.000000, -296.000000)">
            <mask id="mask-2" fill="white">
                <use xlink:href="#path-1"></use>
            </mask>
            <g id="Clip-2"></g>
            <path d="M14.9135,615.2553 C20.6005,615.2553 44.8715,579.0993 77.9295,597.6933 C110.9865,616.2873 157.4735,617.3203 172.9695,593.5613 C188.4655,569.8013 237.0185,525.3803 278.3405,552.2383 C319.6625,579.0983 384.7445,577.0323 391.9755,530.5453 C399.2065,484.0583 414.7105,442.8933 483.5395,460.6683 C552.3695,478.4433 604.0345,442.7353 605.1575,405.4663 C606.2805,368.1973 603.7505,329.1003 643.0065,312.5713 C682.2625,296.0433 758.7075,300.1753 734.9475,253.6883 C711.1875,207.2013 715.4665,173.1103 752.5825,140.0523 C789.6995,106.9953 787.6335,49.1453 787.6335,43.9793 C787.6335,38.8143 731.8485,678.2713 731.8485,678.2713 L10.7815,677.2373 L14.9135,615.2553 Z" id="Fill-1" fill="#ECBFEF" mask="url(#mask-2)"></path>
        </g>
        <g id="Group-411" transform="translate(220.000000, 10.000000)">
            <path d="M243.714744,258 L17.2852562,258 C16.0280737,258 15,257.100091 15,255.999635 C15,254.899909 16.0280737,254 17.2852562,254 L243.714744,254 C244.971926,254 246,254.899909 246,255.999635 C246,257.100091 244.971926,258 243.714744,258" id="Fill-1" fill="#DAD9F4"></path>
            <path d="M176.396642,48.6085581 L176.502571,48.7411255 C176.552616,48.8025592 181.457875,54.8958104 187.655967,55.6313979 C190.420962,55.9611998 193.036655,55.1835787 195.447997,53.3268265 C201.80957,48.4323404 197.677508,41.9187534 192.444454,33.6704733 C188.012122,26.6807753 182.992593,18.7679554 182.629766,9.53431136 C177.568533,12.7886798 169.503756,19.8753784 163.472482,27.9846244 C156.695534,37.0970177 154.663701,44.6493189 157.753155,49.2503784 C159.59148,51.9857939 161.878544,53.5095109 164.555125,53.7786874 C164.846221,53.8094042 165.138985,53.823146 165.430081,53.823146 C170.960904,53.823146 176.219816,48.780734 176.274865,48.7265754 L176.396642,48.6085581 Z M188.879571,56 C188.462528,56 188.042149,55.9741332 187.617599,55.9240162 C181.800684,55.2328873 177.122297,49.9447406 176.368283,49.0491022 C175.490825,49.8550151 170.032567,54.6306756 164.524264,54.0729224 C161.750928,53.7932375 159.388797,52.2250619 157.499593,49.4112376 C153.445101,43.3729534 158.376217,34.3333104 163.225592,27.8124484 C169.371137,19.5512349 177.622748,12.344094 182.688152,9.14388415 L182.915023,9 L182.923364,9.26270982 C183.198612,18.5303041 188.248168,26.4916242 192.703855,33.5160808 C198.014479,41.8888449 202.209931,48.5010491 195.637334,53.5580111 C193.527931,55.1811537 191.259218,56 188.879571,56 L188.879571,56 Z" id="Fill-3" fill="#FFFFFF"></path>
            <path d="M183.766248,82 C183.701541,81.915586 177.376476,73.3217471 176.18264,49.5350239 C174.992849,25.7663308 180.003562,14.1155571 180.053709,14 L180.32305,14.1237526 C180.272903,14.236851 175.290499,25.8318951 176.477055,49.5194523 C177.665229,73.197175 183.936911,81.7344646 184,81.8172396 L183.766248,82 Z" id="Fill-5" fill="#FFFFFF"></path>
            <path d="M190.775604,45 C186.757028,40.9987205 178.952491,40.4802386 176.1759,42.274142 L176,42.0590194 C178.9229,40.1652117 186.811277,40.6516075 191,44.8235266 L190.775604,45 Z" id="Fill-7" fill="#FFFFFF"></path>
            <path d="M176.819382,36 C176.763615,35.9632092 171.079548,32.3164133 163.130678,35.7357068 L163,35.4886827 C171.120333,31.9950568 176.940904,35.7409626 177,35.7792551 L176.819382,36 Z" id="Fill-9" fill="#FFFFFF"></path>
            <path d="M184.772396,28 C184.748066,27.9725942 182.231865,25.3201069 178.09889,26.5748998 L178,26.3517385 C182.337818,25.0375664 184.973315,27.8270826 185,27.8551409 L184.772396,28 Z" id="Fill-11" fill="#FFFFFF"></path>
            <path d="M178.817838,20 C178.804989,19.9861632 177.600151,18.6687048 175.094482,19.8774457 L175,19.5394331 C177.666667,18.2506366 178.946334,19.6679175 179,19.7291946 L178.817838,20 Z" id="Fill-13" fill="#FFFFFF"></path>
            <path d="M161.148175,43 L161,42.6910348 C169.192321,37.4182233 175.930517,41.5124978 176,41.5542761 L175.854336,41.8651845 C175.79155,41.8253493 169.191483,37.8262905 161.148175,43" id="Fill-15" fill="#FFFFFF"></path>
            <path d="M187.808895,36 C182.089527,31.3288512 176.191105,34.2125941 176.13429,34.2410823 L176,33.9387396 C176.06198,33.9084134 182.123099,30.9336921 188,35.7344163 L187.808895,36 Z" id="Fill-17" fill="#FFFFFF"></path>
            <path d="M176.797614,29 C176.764571,28.9688565 173.365305,25.9041713 168.114823,28.0951561 L168,27.8114981 C173.429738,25.5456007 176.966131,28.7407517 177,28.7727369 L176.797614,29 Z" id="Fill-19" fill="#FFFFFF"></path>
            <path d="M182.780957,21 C180.94206,19.492215 178.186363,20.8385079 178.158983,20.8518999 L178,20.6013902 C178.03003,20.5872104 180.986222,19.1392957 183,20.7880908 L182.780957,21 Z" id="Fill-21" fill="#FFFFFF"></path>
            <path d="M179.789762,15.8581406 C179.769441,15.8311406 179.290348,15.2131406 178.082063,15.6751406 L178,15.3271406 C179.397421,14.7941406 179.974209,15.5771406 180,15.6111406 L179.788199,15.8571406 L179.89449,15.7341406 L179.789762,15.8581406 Z" id="Fill-23" fill="#FFFFFF"></path>
            <path d="M26.5420767,181.29665 C31.5478294,189.161321 31.9900716,198.478144 32.3795088,206.708085 C32.8399027,216.420211 33.2021123,224.090072 41.2152769,224.668822 C44.2631178,224.891231 46.8447891,224.094942 48.9116113,222.313235 C53.5584548,218.306628 54.0675284,210.565337 54.0716537,210.487413 L54.0823798,210.318577 L54.2506958,210.349422 C54.3299034,210.364845 62.3042893,211.808879 66.7382625,208.12371 C68.7704314,206.434538 69.7654763,203.91661 69.6961697,200.641355 C69.5790085,195.129023 63.5815112,189.972221 52.8043328,186.119839 C43.4322635,182.769906 33.0304959,181.294215 26.9562663,181.294215 C26.8151778,181.294215 26.6782147,181.295838 26.5420767,181.29665 M42.1921701,225 C41.865439,225 41.5329322,224.988636 41.19465,224.964285 C32.9149849,224.366865 32.5453496,216.579307 32.0791801,206.721072 C31.6864426,198.450546 31.2425503,189.077715 26.1452139,181.233337 L26,181.010928 L26.2681506,181.006057 C32.2656479,180.89323 43.1377104,182.351063 52.9074677,185.843045 C60.6194786,188.598805 69.8430337,193.402513 69.9964984,200.634049 C70.0682802,204.005086 69.0361067,206.600127 66.9305058,208.350177 C62.7481817,211.825925 55.5402939,210.855118 54.3604313,210.669236 C54.2581215,211.824302 53.4693463,218.776609 49.1104553,222.535644 C47.2119492,224.173678 44.8868773,225 42.1921701,225" id="Fill-25" fill="#35FF8B"></path>
            <path d="M65.9965807,241 L65.6925372,240.982885 C65.6983841,240.879382 66.1544494,230.304144 53.5867605,210.169137 C41.0073777,190.015386 30.108587,183.317844 30,183.25346 L30.1595393,183 C30.2689616,183.066014 41.2303986,189.801045 53.8456987,210.013475 C66.4718575,230.243835 66.0024277,240.895682 65.9965807,241" id="Fill-27" fill="#35FF8B"></path>
            <path d="M39.3074429,215 L39,214.959941 C39.8331532,208.821851 46.109404,204 49.8666615,204 C49.9108246,204 49.9558369,204.001635 50,204.002453 L49.9898085,204.300855 C49.9498919,204.29922 49.9099753,204.298402 49.870908,204.298402 C46.3021927,204.298402 40.1066245,209.10799 39.3074429,215" id="Fill-29" fill="#35FF8B"></path>
            <path d="M47.2761808,200 L47,199.901484 C47.0248162,199.836076 49.404774,193.326739 57.9567717,192 L58,192.292319 C49.6281202,193.590794 47.2977949,199.935399 47.2761808,200" id="Fill-31" fill="#35FF8B"></path>
            <path d="M35.296026,197 L35,196.981852 C35.0024331,196.936051 35.3017032,192.24874 39.9286294,191 L40,191.304191 C35.5823195,192.498488 35.298459,196.955063 35.296026,197" id="Fill-33" fill="#35FF8B"></path>
            <path d="M35.3249943,187 L35,186.915401 C35.0220335,186.830803 35.5646087,184.845057 38.9192105,184 L39,184.328169 C35.8528804,185.121165 35.3305026,186.981407 35.3249943,187" id="Fill-35" fill="#35FF8B"></path>
            <path d="M49.2725103,204 L49,203.855219 C49.0360552,203.785414 52.6231295,196.88075 61.9714912,196 L62,196.311106 C52.8235294,197.176344 49.3060501,203.931057 49.2725103,204" id="Fill-37" fill="#35FF8B"></path>
            <path d="M36.298855,206 L36,205.904742 C38.3204198,199.088782 44.8849237,198.009192 44.9510496,198 L45,198.299979 C44.9355916,198.310842 38.5574427,199.365365 36.298855,206" id="Fill-39" fill="#35FF8B"></path>
            <path d="M41.2928419,194 L41,193.927933 C41.0107845,193.881844 42.1738564,189.234358 47.9361223,188 L48,188.297486 C42.4210713,189.494134 41.304456,193.954749 41.2928419,194" id="Fill-41" fill="#35FF8B"></path>
            <path d="M32.3111208,191 L32,190.928159 C32.617872,188.320254 35.9388246,188.003462 35.9720341,188 L36,188.315061 C35.9694123,188.317657 32.8756828,188.616272 32.3111208,191" id="Fill-43" fill="#35FF8B"></path>
            <path d="M32.3498062,184 L32,183.969329 C32.0067829,183.943287 32.1734496,183.326968 33.8924419,183 L34,183.201389 C32.5067829,183.484375 32.3556202,183.979745 32.3498062,184" id="Fill-45" fill="#35FF8B"></path>
            <g id="Group-49" transform="translate(112.000000, 0.000000)">
                <mask id="mask-4" fill="white">
                    <use xlink:href="#path-3"></use>
                </mask>
                <g id="Clip-48"></g>
                <path d="M32.4742648,51.2055566 C32.4742648,51.2055566 25.5338704,72.0848337 8.98644789,66.4629542 C-11.4375239,59.5236771 13.7189127,28.3297012 4.53901127,0.109701205 C22.8290113,4.49365301 62.3523634,25.0992916 57.9215465,43.123388 C53.4907296,61.1474843 32.4742648,51.2055566 32.4742648,51.2055566" id="Fill-47" fill="#1C2248" mask="url(#mask-4)"></path>
            </g>
            <path d="M148.876373,99 L148.587094,98.9070049 C148.634476,98.765065 153.216393,84.2823009 143.425788,51.9020578 C133.635183,19.5161044 121.124689,6.33364033 121,6.20475238 L121.219453,6 C121.345805,6.1297037 133.902019,19.3529551 143.717561,51.8172201 C153.53726,84.3035103 148.923755,98.8564286 148.876373,99" id="Fill-50" fill="#FFFFFF"></path>
            <path d="M122.28106,53 L122,52.8827763 C125.459716,44.3600199 135.966849,39.7680539 141,41.2877459 L140.911332,41.5820703 C136.108215,40.1332186 125.624505,44.7673513 122.28106,53" id="Fill-52" fill="#FFFFFF"></path>
            <path d="M138.255864,34 L138,33.8382684 C138.057612,33.7577971 144.009409,25.8574067 157,27.1410032 L156.966111,27.4273864 C144.174619,26.1579908 138.313475,33.9218955 138.255864,34" id="Fill-54" fill="#FFFFFF"></path>
            <path d="M122.288477,27 L122,26.9093117 C122.020724,26.848583 124.047527,21 130.876485,21 C130.917933,21 130.958552,21 131,21.0008097 L130.997513,21.2955466 C130.956894,21.2947368 130.916275,21.2947368 130.877314,21.2947368 C124.263885,21.2947368 122.307544,26.9433198 122.288477,27" id="Fill-56" fill="#FFFFFF"></path>
            <path d="M126.27347,12 L126,11.87722 C126.055898,11.799025 127.396589,9.94566476 132,10.0012244 L131.99484,10.2508999 C127.609001,10.1980839 126.286369,11.982166 126.27347,12" id="Fill-58" fill="#FFFFFF"></path>
            <path d="M140.230882,41 L140,40.8075077 C140.074973,40.7320822 147.589273,33.2790962 161,35.3697979 L160.948882,35.6510723 C147.708548,33.594155 140.305002,40.9253601 140.230882,41" id="Fill-60" fill="#FFFFFF"></path>
            <path d="M122.25708,39 L122,38.8317499 C127.643965,30.1639087 136.908968,31.020378 137,31.0254508 L136.968813,31.3332048 C136.873567,31.3230591 127.792313,30.4978725 122.25708,39" id="Fill-62" fill="#FFFFFF"></path>
            <path d="M133.273657,24 L133,23.8500218 C133.031543,23.7889842 136.171355,18 144.141517,18 C144.4237,18 144.707587,18.0069757 145,18.0217992 L144.985507,18.3400669 C136.568627,17.9032117 133.3052,23.9398343 133.273657,24" id="Fill-64" fill="#FFFFFF"></path>
            <path d="M122.259817,17 L122,16.8414894 C123.654922,13.2634135 127.954814,14.0763598 128,14.0856294 L127.949973,14.418409 C127.910436,14.4109933 123.814685,13.6416143 122.259817,17" id="Fill-66" fill="#FFFFFF"></path>
            <path d="M123.307904,8 L123,7.9145551 C123.022059,7.88096641 123.58364,7.07542722 125.984375,7 L126,7.21508544 C123.825368,7.28285209 123.328125,7.97053624 123.307904,8" id="Fill-68" fill="#FFFFFF"></path>
            <path d="M33.7873744,216.645409 C33.7873744,216.645409 36.8166565,228.579553 27.2364684,230.772829 C15.413575,233.479948 17.9254383,211.309151 5,200.628424 C15.0324071,197.33769 40.0891838,195.500658 43.4469725,205.344131 C46.8030893,215.188424 33.7873744,216.645409 33.7873744,216.645409" id="Fill-70" fill="#1C2248"></path>
            <path d="M49.7092082,237 C49.6877901,236.917725 47.4883165,228.75779 33.2007997,216.33012 C18.8992787,203.887788 9.0972052,201.311181 9,201.287557 L9.07413956,201 C9.17216853,201.024438 19.043439,203.618152 33.4001527,216.107732 C47.7700468,228.607902 49.9802295,236.846854 50,236.9275 L49.7092082,237 Z" id="Fill-72" fill="#FFFFFF"></path>
            <path d="M23.1378134,224 C22.2310413,219.013861 25.9863164,213.777178 28.9165494,213 L29,213.289278 C26.2435506,214.020304 22.5820498,219.195175 23.4458061,223.948078 L23.1378134,224 Z" id="Fill-74" fill="#FFFFFF"></path>
            <path d="M25.3073212,210 L25,209.988294 C25.0025329,209.931438 25.298034,204.181438 31.8649138,201 L32,201.273411 C25.6045109,204.372074 25.3098541,209.944816 25.3073212,210" id="Fill-76" fill="#FFFFFF"></path>
            <path d="M16.1101612,211 C16.1002056,210.961868 15.1815753,207.193911 18.8280397,205 L19,205.275791 C15.5644133,207.342891 16.3925381,210.77653 16.4305504,210.921963 L16.1101612,211 Z" id="Fill-78" fill="#FFFFFF"></path>
            <path d="M14.0005498,203 C13.9976051,202.934593 13.9534346,201.373547 15.8601268,200 L16,200.270349 C14.2398065,201.538372 14.2685173,202.972093 14.2685173,202.985174 L14.0005498,203 Z" id="Fill-80" fill="#FFFFFF"></path>
            <path d="M29.2924538,213 L29,212.947138 C29.0098029,212.885046 30.1240682,206.887283 36.8856326,204 L37,204.281932 C30.3936485,207.102088 29.3038905,212.940425 29.2924538,213" id="Fill-82" fill="#FFFFFF"></path>
            <path d="M19.3094186,217 L19,216.995069 C19.1028562,211.334909 23.8146889,209.023012 23.8614417,209 L24,209.268749 C23.9540972,209.290939 19.4088745,211.527224 19.3094186,217" id="Fill-84" fill="#FFFFFF"></path>
            <path d="M20.0023776,207 C19.9999266,206.961202 19.7940405,203.253536 23.8529385,201 L24,201.257847 C20.1020527,203.420854 20.2965007,206.945036 20.2989517,206.978984 L20.0023776,207 Z" id="Fill-86" fill="#FFFFFF"></path>
            <path d="M12.0058711,207 C11.8779699,204.976725 13.8819917,204.008119 13.9024841,204 L14,204.272801 C13.9816274,204.281732 12.1486117,205.170771 12.2623803,206.979702 L12.0058711,207 Z" id="Fill-88" fill="#FFFFFF"></path>
            <path d="M11.0047299,202 C11.0001888,201.979741 10.9048245,201.486213 11.8425733,201 L12,201.167698 C11.2151368,201.575127 11.2749287,201.952729 11.2771993,201.968486 L11.0047299,202 Z" id="Fill-90" fill="#FFFFFF"></path>
            <path d="M238.488481,217.2938 C238.488481,217.2938 234.676183,234.001256 248.077012,236.742178 C264.617332,240.126161 260.376585,209.352426 278,194.06733 C263.931317,189.813225 229.009745,188.07055 224.669933,201.878955 C220.330948,215.688171 238.488481,217.2938 238.488481,217.2938" id="Fill-92" fill="#35FF8B"></path>
            <path d="M215.295983,248 L215,247.934815 C215.027437,247.818296 217.882508,236.155003 237.871335,218.07747 C257.84686,200.014604 271.780507,196.038296 271.91769,196 L272,196.285186 C271.861154,196.323482 257.991525,200.287568 238.077526,218.295841 C218.156874,236.309819 215.321757,247.884296 215.295983,248" id="Fill-94" fill="#1C2248"></path>
            <path d="M251.868231,227 L251.582502,226.956197 C252.553664,220.308728 247.61554,213.217554 244,212.285529 L244.069651,212 C247.871192,212.978261 252.878176,220.088092 251.868231,227" id="Fill-96" fill="#1C2248"></path>
            <path d="M248.694733,208 C248.689701,207.923139 248.088393,200.300971 239,196.267799 L239.127474,196 C248.388628,200.108414 248.994968,207.902913 249,207.981392 L248.694733,208 Z" id="Fill-98" fill="#1C2248"></path>
            <path d="M262.889676,209 L262.588976,208.931558 C262.599956,208.882793 263.625378,203.996043 259,201.271201 L259.153729,201 C263.979292,203.84376 262.900656,208.948669 262.889676,209" id="Fill-100" fill="#1C2248"></path>
            <path d="M265.999822,198 L265.71304,197.992332 C265.71304,197.971885 265.717754,195.964643 263,194.269223 L263.142998,194 C266.019465,195.795101 266.002179,197.911395 265.999822,198" id="Fill-102" fill="#1C2248"></path>
            <path d="M244.696538,212 C244.678587,211.91925 242.869782,203.929853 233,200.276509 L233.111982,200 C243.147599,203.714519 244.983758,211.858891 245,211.942088 L244.696538,212 Z" id="Fill-104" fill="#1C2248"></path>
            <path d="M257.700024,218 C257.379444,210.299265 251.062632,207.298225 251,207.269628 L251.126089,207 C251.192842,207.030231 257.672004,210.10072 258,217.987744 L257.700024,218 Z" id="Fill-106" fill="#1C2248"></path>
            <path d="M256.999121,203 L256.687245,202.986701 C256.689809,202.938979 256.84361,198.08938 251,195.251907 L251.146112,195 C257.170012,197.925093 257.001684,202.949149 256.999121,203" id="Fill-108" fill="#1C2248"></path>
            <path d="M267.996121,203 L267.722722,202.985731 C267.838391,200.450654 265.029293,199.282996 265,199.271106 L265.099145,199 C265.128437,199.012683 268.122305,200.254063 267.996121,203" id="Fill-110" fill="#1C2248"></path>
            <path d="M269.996973,197 L269.795795,196.959098 L269.896105,196.979967 L269.795795,196.960768 C269.798024,196.92571 269.852637,196.101002 269,195.254591 L269.113128,195 C270.07945,195.960768 270.000874,196.958264 269.996973,197" id="Fill-112" fill="#1C2248"></path>
            <path d="M227.475284,185.877216 L227.511246,186.042037 C227.536335,186.157331 230.092938,197.615283 237.796199,201.450838 C241.332958,203.211914 245.432555,203.11367 249.977905,201.163415 C257.620951,197.883219 261.387696,186.963578 260.58651,170.417263 C259.869792,155.63852 255.771031,140.533381 252.220891,132.602452 C244.142963,143.756741 231.379184,149.622121 220.109057,154.800608 C206.80753,160.912815 196.300954,165.739737 200.100315,176.789287 C201.541279,180.97722 204.138861,183.988667 207.823648,185.741623 C216.094764,189.677858 227.201811,185.970588 227.312204,185.932427 L227.475284,185.877216 Z M243.19375,203 C241.228419,203 239.378499,202.571301 237.655698,201.713092 C230.33045,198.065904 227.594877,187.687007 227.250317,186.264506 C225.83946,186.70782 215.521891,189.73307 207.689838,186.007936 C203.928947,184.219255 201.277841,181.149349 199.811788,176.884283 C195.925451,165.58547 206.540747,160.707397 219.978592,154.532672 C231.28719,149.336322 244.103656,143.446584 252.127224,132.215973 L252.281942,132 L252.391499,132.241143 C255.975928,140.12904 260.165846,155.435537 260.890928,170.402648 C261.462964,182.20161 260.055453,197.161414 250.102515,201.433788 C247.669687,202.477929 245.362304,203 243.19375,203 L243.19375,203 Z" id="Fill-114" fill="#1C2248"></path>
            <path d="M191.099872,220 L191,219.718929 C191.147312,219.668418 206.024968,214.301194 226.782611,186.33427 C247.544415,158.360829 250.671253,140.180048 250.701215,140 L251,140.046438 C250.971703,140.227301 247.839039,158.470813 227.028963,186.508615 C206.203906,214.564341 191.249681,219.949489 191.099872,220" id="Fill-116" fill="#1C2248"></path>
            <path d="M232.716575,178 C230.90663,173.17542 220.724862,167.501023 212.080387,169.88437 L212,169.588234 C220.952762,167.131063 231.108011,172.850761 233,177.89178 L232.716575,178 Z" id="Fill-118" fill="#1C2248"></path>
            <path d="M254.746828,181 C248.143993,169.872353 238.126179,170.295219 238.015467,170.306942 L238,170.002144 C238.106642,170.002981 248.306805,169.562531 255,180.840065 L254.746828,181 Z" id="Fill-120" fill="#1C2248"></path>
            <path d="M244.74874,157 C240.435728,151.669566 234.166352,153.643682 234.105703,153.664563 L234,153.388284 C234.066714,153.367402 240.550961,151.324216 245,156.823309 L244.74874,157 Z" id="Fill-122" fill="#1C2248"></path>
            <path d="M253.777017,151 C251.401826,148.001726 249.059361,148.270143 249.038813,148.270143 L249,148.012434 C249.10274,147.999584 251.513699,147.709037 254,150.844375 L253.777017,151 Z" id="Fill-124" fill="#1C2248"></path>
            <path d="M250.739643,190 C244.626112,178.327715 234.10673,177.306584 234,177.298409 L234.025874,177 C234.132604,177.008993 244.809655,178.038299 251,189.860197 L250.739643,190 Z" id="Fill-126" fill="#1C2248"></path>
            <path d="M239.749207,167 C239.701629,166.926656 234.911564,159.619596 225.022579,160.335087 L225,160.051856 C235.087361,159.309836 239.951616,166.775287 240,166.850972 L239.749207,167 Z" id="Fill-128" fill="#1C2248"></path>
            <path d="M254.747466,166 C249.88598,159.381799 243.117399,160.330887 243.048986,160.340418 L243,160.0545 C243.072635,160.043381 250.030405,159.070466 255,165.834803 L254.747466,166 Z" id="Fill-130" fill="#1C2248"></path>
            <path d="M247.72677,150 C247.706341,149.956732 245.576678,145.758797 242.051071,146.392498 L242,146.067986 C245.74351,145.405438 247.980423,149.802588 248,149.847659 L247.72677,150 Z" id="Fill-132" fill="#1C2248"></path>
            <path d="M252.74505,145 C251.308559,143.086774 250.09869,143.397054 250.082242,143.399116 L250,143.035232 C250.058483,143.017708 251.418215,142.6497 253,144.756723 L252.74505,145 Z" id="Fill-134" fill="#1C2248"></path>
            <path d="M27,251 C31.7072691,251 31.7072691,214 27,214 L167.469548,214 C172.176817,214 172.176817,251 167.469548,251 L27,251 Z" id="Fill-136" fill="#F1F1F4"></path>
            <path d="M169.391382,221 L28.6077831,221 C28.2721666,221 28,220.776559 28,220.500343 C28,220.223441 28.2721666,220 28.6077831,220 L169.391382,220 C169.727833,220 170,220.223441 170,220.500343 C170,220.776559 169.727833,221 169.391382,221" id="Fill-138" fill="#E5E5E8"></path>
            <path d="M169.391382,228 L28.6077831,228 C28.2721666,228 28,227.776406 28,227.5 C28,227.222908 28.2721666,227 28.6077831,227 L169.391382,227 C169.727833,227 170,227.222908 170,227.5 C170,227.776406 169.727833,228 169.391382,228" id="Fill-140" fill="#E5E5E8"></path>
            <path d="M169.391382,239 L28.6077831,239 C28.2721666,239 28,238.776406 28,238.5 C28,238.223594 28.2721666,238 28.6077831,238 L169.391382,238 C169.727833,238 170,238.223594 170,238.5 C170,238.776406 169.727833,239 169.391382,239" id="Fill-142" fill="#E5E5E8"></path>
            <path d="M169.391382,246 L28.6077831,246 C28.2721666,246 28,245.776406 28,245.5 C28,245.223594 28.2721666,245 28.6077831,245 L169.391382,245 C169.727833,245 170,245.223594 170,245.5 C170,245.776406 169.727833,246 169.391382,246" id="Fill-144" fill="#E5E5E8"></path>
            <path d="M169.391382,224 L28.6077831,224 C28.2721666,224 28,223.776406 28,223.5 C28,223.222908 28.2721666,223 28.6077831,223 L169.391382,223 C169.727833,223 170,223.222908 170,223.5 C170,223.776406 169.727833,224 169.391382,224" id="Fill-146" fill="#E5E5E8"></path>
            <path d="M169.391382,231 L28.6077831,231 C28.2721666,231 28,230.776406 28,230.5 C28,230.223594 28.2721666,230 28.6077831,230 L169.391382,230 C169.727833,230 170,230.223594 170,230.5 C170,230.776406 169.727833,231 169.391382,231" id="Fill-148" fill="#E5E5E8"></path>
            <path d="M169.391382,235 L28.6077831,235 C28.2721666,235 28,234.776406 28,234.5 C28,234.223594 28.2721666,234 28.6077831,234 L169.391382,234 C169.727833,234 170,234.223594 170,234.5 C170,234.776406 169.727833,235 169.391382,235" id="Fill-150" fill="#E5E5E8"></path>
            <path d="M169.391382,242 L28.6077831,242 C28.2721666,242 28,241.776406 28,241.5 C28,241.223594 28.2721666,241 28.6077831,241 L169.391382,241 C169.727833,241 170,241.223594 170,241.5 C170,241.776406 169.727833,242 169.391382,242" id="Fill-152" fill="#E5E5E8"></path>
            <path d="M167,251 C171.699963,251 171.699963,214 167,214 L235.475653,214 C240.174782,214 240.174782,251 235.475653,251 L167,251 Z" id="Fill-154" fill="#2300B0"></path>
            <path d="M234.318427,248.292727 L170.815105,248.292727 C171.728125,245.315678 172.409135,240.455073 172.409135,232.500404 C172.409135,224.556225 171.728125,219.684322 170.815105,216.707273 L234.318427,216.707273 C236.752035,220.931956 236.752035,244.079343 234.318427,248.292727 M235.024474,212 L166.433608,212 C165.095791,212 164,213.058793 164,214.353233 C164,215.38943 164.693528,216.260191 165.64327,216.577345 C168.187041,220.472768 168.187041,244.526425 165.64327,248.421848 C164.693528,248.739809 164,249.621868 164,250.64596 C164,251.952505 165.095791,253 166.433608,253 L235.024474,253 C236.509175,253 241,253 241,232.500404 C241,212 236.509175,212 235.024474,212" id="Fill-156" fill="#2300B0"></path>
            <path d="M221.900349,248.292727 C221.566712,250.18758 221.172563,251.79998 220.695005,253 L203,253 C203.476741,251.79998 203.870072,250.18758 204.203708,248.292727 C205.65928,239.713434 205.65928,225.285759 204.203708,216.707273 C203.870072,214.81242 203.476741,213.200827 203,212 L220.695005,212 C221.172563,213.200827 221.566712,214.81242 221.900349,216.707273 C223.36655,225.285759 223.36655,239.713434 221.900349,248.292727" id="Fill-158" fill="#2A14CB"></path>
            <path d="M167.070741,253 L27.4191574,253 C26.0834772,253 25,251.946194 25,250.647091 C25,249.346375 26.0834772,248.293376 27.4191574,248.293376 L166.360591,248.293376 C168.784726,244.072503 168.784726,220.926691 166.360591,216.706624 L27.4191574,216.706624 C26.0834772,216.706624 25,215.652818 25,214.352909 C25,213.053806 26.0834772,212 27.4191574,212 L167.070741,212 C168.537501,212 173,212 173,232.5 C173,253 168.537501,253 167.070741,253 L167.070741,253 Z" id="Fill-160" fill="#3500DA"></path>
            <g id="Group-166" transform="translate(149.000000, 222.000000)" fill="#E5E5E8">
                <path d="M0.760114286,1.89608333 L0.760114286,18.3035833 C0.760114286,18.9210833 1.38325714,19.35525 1.98497143,19.1585833 L6.0144,17.83775 L10.0438286,19.1585833 C10.6446857,19.35525 11.2678286,18.9210833 11.2678286,18.3035833 L11.2678286,1.89608333 C11.2678286,1.45941667 10.9035429,1.10525 10.4544,1.10525 L1.57354286,1.10525 C1.1244,1.10525 0.760114286,1.45941667 0.760114286,1.89608333" id="Fill-162"></path>
                <path d="M6.01431429,17.22975 C6.08117143,17.22975 6.14974286,17.2405833 6.21402857,17.2614167 L10.2443143,18.58225 C10.3720286,18.6280833 10.4706,18.5755833 10.5168857,18.54225 C10.5640286,18.50975 10.6420286,18.43475 10.6420286,18.3030833 L10.6420286,1.89641667 C10.6420286,1.79558333 10.5571714,1.71225 10.4543143,1.71225 L1.57345714,1.71225 C1.46974286,1.71225 1.38574286,1.79558333 1.38574286,1.89641667 L1.38574286,18.3030833 C1.38574286,18.43475 1.4646,18.50975 1.51174286,18.54225 C1.55888571,18.5755833 1.66002857,18.6280833 1.78345714,18.58225 L5.8146,17.2614167 C5.8806,17.2405833 5.94745714,17.22975 6.01431429,17.22975 M1.68831429,19.8130833 C1.36688571,19.8130833 1.04974286,19.7155833 0.782314286,19.52975 C0.377742857,19.24725 0.136028571,18.7889167 0.136028571,18.3030833 L0.136028571,1.89641667 C0.136028571,1.12475 0.7806,0.49725 1.57345714,0.49725 L10.4543143,0.49725 C11.2463143,0.49725 11.8926,1.12475 11.8926,1.89641667 L11.8926,18.3030833 C11.8926,18.7880833 11.6508857,19.24725 11.2463143,19.52975 C10.8417429,19.81225 10.3180286,19.88975 9.84488571,19.7339167 L6.01431429,18.4780833 L2.18374286,19.7339167 C2.0226,19.7864167 1.85545714,19.8130833 1.68831429,19.8130833" id="Fill-164"></path>
            </g>
            <path d="M149,223.786401 L149,240.101936 C149,240.715975 149.593034,241.148537 150.165674,240.952144 L154.000408,239.638714 L157.835142,240.952144 C158.406966,241.148537 159,240.715975 159,240.101936 L159,223.786401 C159,223.352182 158.653316,223 158.225875,223 L149.774125,223 C149.346684,223 149,223.352182 149,223.786401" id="Fill-167" fill="#35FF8B"></path>
            <path d="M150.34653,223.195134 C150.24949,223.195134 150.169291,223.277104 150.169291,223.376289 L150.169291,239.51469 C150.169291,239.644204 150.243074,239.717977 150.287183,239.749946 C150.331292,239.782734 150.425124,239.831917 150.543817,239.789292 L154.312336,238.490056 C154.434237,238.448251 154.564159,238.448251 154.686862,238.490056 L158.458589,239.789292 C158.574074,239.831917 158.668708,239.782734 158.713619,239.749946 C158.756124,239.717977 158.830709,239.644204 158.830709,239.51469 L158.830709,223.376289 C158.830709,223.277104 158.751312,223.195134 158.654272,223.195134 L150.34653,223.195134 Z M158.547609,241 C158.391222,241 158.234835,240.973769 158.08326,240.922128 L154.5,239.686829 L150.917542,240.922128 C150.468431,241.074593 149.982429,240.998361 149.604695,240.721299 C149.226159,240.443419 149,239.99176 149,239.51469 L149,223.376289 C149,222.61724 149.603893,222 150.34653,222 L158.654272,222 C159.396909,222 160,222.61724 160,223.376289 L160,239.51469 C160,239.992579 159.773841,240.443419 159.394503,240.721299 C159.145086,240.904094 158.848352,241 158.547609,241 L158.547609,241 Z" id="Fill-169" fill="#35FF8B"></path>
            <path d="M242,210 C237.289277,210 237.289277,173 242,173 L154.533042,173 C149.822319,173 149.822319,210 154.533042,210 L242,210 Z" id="Fill-171" fill="#E5E5E8"></path>
            <path d="M151.60924,179 L239.39076,179 C239.72672,179 240,178.776406 240,178.5 C240,178.223594 239.72672,178 239.39076,178 L151.60924,178 C151.272445,178 151,178.223594 151,178.5 C151,178.776406 151.272445,179 151.60924,179" id="Fill-173" fill="#F1F1F4"></path>
            <path d="M151.60924,186 L239.39076,186 C239.72672,186 240,185.776559 240,185.500343 C240,185.223441 239.72672,185 239.39076,185 L151.60924,185 C151.272445,185 151,185.223441 151,185.500343 C151,185.776559 151.272445,186 151.60924,186" id="Fill-175" fill="#F1F1F4"></path>
            <path d="M151.60924,197 L239.39076,197 C239.72672,197 240,196.776406 240,196.5 C240,196.223594 239.72672,196 239.39076,196 L151.60924,196 C151.272445,196 151,196.223594 151,196.5 C151,196.776406 151.272445,197 151.60924,197" id="Fill-177" fill="#F1F1F4"></path>
            <path d="M151.60924,204 L239.39076,204 C239.72672,204 240,203.776406 240,203.5 C240,203.223594 239.72672,203 239.39076,203 L151.60924,203 C151.272445,203 151,203.223594 151,203.5 C151,203.776406 151.272445,204 151.60924,204" id="Fill-179" fill="#F1F1F4"></path>
            <path d="M151.60924,183 L239.39076,183 C239.72672,183 240,182.776559 240,182.500343 C240,182.223441 239.72672,182 239.39076,182 L151.60924,182 C151.272445,182 151,182.223441 151,182.500343 C151,182.776559 151.272445,183 151.60924,183" id="Fill-181" fill="#F1F1F4"></path>
            <path d="M151.60924,190 L239.39076,190 C239.72672,190 240,189.776406 240,189.5 C240,189.222908 239.72672,189 239.39076,189 L151.60924,189 C151.272445,189 151,189.222908 151,189.5 C151,189.776406 151.272445,190 151.60924,190" id="Fill-183" fill="#F1F1F4"></path>
            <path d="M151.60924,194 L239.39076,194 C239.72672,194 240,193.776406 240,193.5 C240,193.223594 239.72672,193 239.39076,193 L151.60924,193 C151.272445,193 151,193.223594 151,193.5 C151,193.776406 151.272445,194 151.60924,194" id="Fill-185" fill="#F1F1F4"></path>
            <path d="M151.60924,201 L239.39076,201 C239.72672,201 240,200.776406 240,200.5 C240,200.223594 239.72672,200 239.39076,200 L151.60924,200 C151.272445,200 151,200.223594 151,200.5 C151,200.776406 151.272445,201 151.60924,201" id="Fill-187" fill="#F1F1F4"></path>
            <path d="M155,210 C150.305192,210 150.305192,173 155,173 L58.520482,173 C53.826506,173 53.826506,210 58.520482,210 L155,210 Z" id="Fill-189" fill="#FB7528"></path>
            <path d="M58.6708333,207.293534 L150.195,207.293534 C149.283333,204.316485 148.603333,199.45588 148.603333,191.500404 C148.603333,183.557032 149.283333,178.685129 150.195,175.707273 L58.6708333,175.707273 C56.2408333,179.932763 56.2408333,203.08015 58.6708333,207.293534 M57.9658333,171 L154.57,171 C155.906667,171 157,172.0596 157,173.35404 C157,174.390237 156.3075,175.260998 155.359167,175.578152 C152.82,179.473575 152.82,203.527232 155.359167,207.422655 C156.3075,207.740616 157,208.622675 157,209.646767 C157,210.952505 155.906667,212 154.57,212 L57.9658333,212 C56.4841667,212 52,212 52,191.500404 C52,171 56.4841667,171 57.9658333,171" id="Fill-191" fill="#FB7528"></path>
            <path d="M72.1515119,207.293534 C72.5017394,209.188387 72.9136206,210.79998 73.4137008,212 L83,212 C82.4999197,210.79998 82.0880385,209.188387 81.7378111,207.293534 C80.2153064,198.714241 80.2153064,184.286566 81.7378111,175.707273 C82.0880385,173.813227 82.4999197,172.200827 83,171 L73.4137008,171 C72.9136206,172.200827 72.5017394,173.813227 72.1515119,175.707273 C70.6161627,184.286566 70.6161627,198.714241 72.1515119,207.293534" id="Fill-193" fill="#FC945A"></path>
            <path d="M126.151594,207.293534 C126.50099,209.188387 126.913757,210.79998 127.413873,212 L137,212 C136.50074,210.79998 136.08883,209.188387 135.738577,207.293534 C134.215108,198.714241 134.215108,184.286566 135.738577,175.707273 C136.08883,173.813227 136.50074,172.200827 137,171 L127.413873,171 C126.913757,172.200827 126.50099,173.813227 126.151594,175.707273 C124.616135,184.286566 124.616135,198.714241 126.151594,207.293534" id="Fill-195" fill="#FC945A"></path>
            <path d="M85.0956283,207.293534 C85.4278589,209.188387 85.8203471,210.79998 86.2950786,212 L92,212 C91.5252685,210.79998 91.1335946,209.188387 90.8013639,207.293534 C89.3527406,198.714241 89.3527406,184.286566 90.8013639,175.707273 C91.1335946,173.813227 91.5252685,172.200827 92,171 L86.2950786,171 C85.8203471,172.200827 85.4278589,173.813227 85.0956283,175.707273 C83.6347906,184.286566 83.6347906,198.714241 85.0956283,207.293534" id="Fill-197" fill="#FC945A"></path>
            <path d="M93.0956283,207.293534 C93.4278589,209.188387 93.8195328,210.79998 94.2950786,212 L100,212 C99.5252685,210.79998 99.1335946,209.188387 98.8005496,207.293534 C97.3527406,198.714241 97.3527406,184.286566 98.8005496,175.707273 C99.1335946,173.813227 99.5252685,172.200827 100,171 L94.2950786,171 C93.8195328,172.200827 93.4278589,173.813227 93.0956283,175.707273 C91.6347906,184.286566 91.6347906,198.714241 93.0956283,207.293534" id="Fill-199" fill="#FC945A"></path>
            <path d="M154.976429,212 L242.561597,212 C243.908739,212 245,210.946194 245,209.647091 C245,208.346375 243.908739,207.293376 242.561597,207.293376 L155.692229,207.293376 C153.248809,203.072503 153.248809,179.926691 155.692229,175.706624 L242.561597,175.706624 C243.908739,175.706624 245,174.652818 245,173.352909 C245,172.053806 243.908739,171 242.561597,171 L154.976429,171 C153.498001,171 149,171 149,191.5 C149,212 153.498001,212 154.976429,212 L154.976429,212 Z" id="Fill-201" fill="#CC4D11"></path>
            <g id="Group-207" transform="translate(161.000000, 180.000000)" fill="#E5E5E8">
                <path d="M11.03208,2.05316667 L11.03208,18.4598333 C11.03208,19.0773333 10.45048,19.5123333 9.88888,19.3156667 L6.12808,17.994 L2.36728,19.3156667 C1.80648,19.5123333 1.22488,19.0773333 1.22488,18.4598333 L1.22488,2.05316667 C1.22488,1.6165 1.56488,1.2615 1.98408,1.2615 L10.27208,1.2615 C10.69128,1.2615 11.03208,1.6165 11.03208,2.05316667" id="Fill-203"></path>
                <path d="M6.12816,17.3868333 C6.06576,17.3868333 6.00176,17.3976667 5.94176,17.4185 L2.18016,18.7393333 C2.06096,18.7843333 1.96896,18.7318333 1.92576,18.6985 C1.88176,18.6668333 1.80816,18.5918333 1.80816,18.4601667 L1.80816,2.0535 C1.80816,1.95266667 1.88736,1.86933333 1.98416,1.86933333 L10.27296,1.86933333 C10.36976,1.86933333 10.44816,1.95266667 10.44816,2.0535 L10.44816,18.4601667 C10.44816,18.5918333 10.37456,18.6668333 10.33056,18.6985 C10.28656,18.7318333 10.19216,18.7843333 10.07696,18.7393333 L6.31456,17.4185 C6.25296,17.3976667 6.19056,17.3868333 6.12816,17.3868333 M10.16576,19.9701667 C10.46576,19.9701667 10.76176,19.8726667 11.01136,19.6868333 C11.38896,19.4043333 11.61456,18.946 11.61456,18.4601667 L11.61456,2.0535 C11.61456,1.28183333 11.01296,0.654333333 10.27296,0.654333333 L1.98416,0.654333333 C1.24496,0.654333333 0.64176,1.28183333 0.64176,2.0535 L0.64176,18.4601667 C0.64176,18.9443333 0.86736,19.4043333 1.24496,19.6868333 C1.62256,19.9693333 2.11136,20.0468333 2.55296,19.891 L6.12816,18.6351667 L9.70336,19.891 C9.85376,19.9435 10.00976,19.9701667 10.16576,19.9701667" id="Fill-205"></path>
            </g>
            <path d="M173,181.786413 L173,198.102209 C173,198.716257 172.406966,199.147997 171.834326,198.95243 L167.999592,197.638979 L164.164858,198.95243 C163.593034,199.147997 163,198.716257 163,198.102209 L163,181.786413 C163,181.352187 163.346684,181 163.774125,181 L172.225875,181 C172.6525,181 173,181.352187 173,181.786413" id="Fill-208" fill="#2300B0"></path>
            <path d="M171.65347,182.195134 C171.75051,182.195134 171.830709,182.277104 171.830709,182.376289 L171.830709,198.51469 C171.830709,198.644204 171.756124,198.717977 171.712817,198.749126 C171.668708,198.781915 171.574876,198.831097 171.456183,198.789292 L167.687664,197.490056 C167.565763,197.447431 167.435841,197.447431 167.313138,197.490056 L163.541411,198.789292 C163.425926,198.831097 163.331292,198.781915 163.286381,198.749126 C163.243876,198.717977 163.169291,198.644204 163.169291,198.51469 L163.169291,182.376289 C163.169291,182.277104 163.248688,182.195134 163.345728,182.195134 L171.65347,182.195134 Z M163.452391,200 C163.608778,200 163.765165,199.973769 163.91674,199.922128 L167.5,198.686829 L171.082458,199.922128 C171.531569,200.074593 172.017571,199.997541 172.395305,199.721299 C172.773841,199.443419 173,198.99094 173,198.51469 L173,182.376289 C173,181.61724 172.396107,181 171.65347,181 L163.345728,181 C162.603091,181 162,181.61724 162,182.376289 L162,198.51469 C162,198.992579 162.225357,199.443419 162.605497,199.721299 C162.854914,199.904094 163.151648,200 163.452391,200 L163.452391,200 Z" id="Fill-210" fill="#2300B0"></path>
            <path d="M69,147 L229.501027,147 C238.166324,147 238.166324,169 229.501027,169 L69,169" id="Fill-212" fill="#27D36A"></path>
            <path d="M229.569083,171 L68.9268522,171 C67.8637038,171 67,170.160924 67,169.12628 C67,168.091635 67.8637038,167.253371 68.9268522,167.253371 L229.569083,167.253371 C232.542393,167.253371 234.146296,162.485893 234.146296,157.999189 C234.146296,153.514107 232.542393,148.746629 229.569083,148.746629 L68.9268522,148.746629 C67.8637038,148.746629 67,147.907553 67,146.87372 C67,145.838265 67.8637038,145 68.9268522,145 L229.569083,145 C235.361322,145 238,151.738577 238,157.999189 C238,164.260612 235.361322,171 229.569083,171" id="Fill-214" fill="#27D36A"></path>
            <path d="M22,169 C30.6216093,169 30.6216093,147 22,147 L132.533793,147 C141.155402,147 141.155402,169 132.533793,169 L22,169 Z" id="Fill-216" fill="#F1F1F4"></path>
            <path d="M134.521775,154 L27.4782245,154 C27.2130047,154 27,153.775563 27,153.5 C27,153.22357 27.2130047,153 27.4782245,153 L134.521775,153 C134.786167,153 135,153.22357 135,153.5 C135,153.775563 134.786167,154 134.521775,154" id="Fill-218" fill="#E5E5E8"></path>
            <path d="M134.521775,162 L27.4782245,162 C27.2130047,162 27,161.77643 27,161.5 C27,161.22357 27.2130047,161 27.4782245,161 L134.521775,161 C134.786167,161 135,161.22357 135,161.5 C135,161.77643 134.786167,162 134.521775,162" id="Fill-220" fill="#E5E5E8"></path>
            <path d="M134.520358,151 L26.4796416,151 C26.2144671,151 26,150.77643 26,150.5 C26,150.22357 26.2144671,150 26.4796416,150 L134.520358,150 C134.785533,150 135,150.22357 135,150.5 C135,150.77643 134.785533,151 134.520358,151" id="Fill-222" fill="#E5E5E8"></path>
            <path d="M135.518754,157 L28.4812455,157 C28.2151843,157 28,156.77643 28,156.5 C28,156.22357 28.2151843,156 28.4812455,156 L135.518754,156 C135.784816,156 136,156.22357 136,156.5 C136,156.77643 135.784816,157 135.518754,157" id="Fill-224" fill="#E5E5E8"></path>
            <path d="M135.518754,160 L28.4812455,160 C28.2151843,160 28,159.77643 28,159.5 C28,159.22357 28.2151843,159 28.4812455,159 L135.518754,159 C135.784816,159 136,159.22357 136,159.5 C136,159.77643 135.784816,160 135.518754,160" id="Fill-226" fill="#E5E5E8"></path>
            <path d="M134.520358,165 L26.4796416,165 C26.2144671,165 26,164.775563 26,164.5 C26,164.22357 26.2144671,164 26.4796416,164 L134.520358,164 C134.785533,164 135,164.22357 135,164.5 C135,164.775563 134.785533,165 134.520358,165" id="Fill-228" fill="#E5E5E8"></path>
            <path d="M132.607191,171 L21.9181427,171 C20.8589691,171 20,170.160924 20,169.12628 C20,168.091635 20.8589691,167.253371 21.9181427,167.253371 L132.607191,167.253371 C135.567062,167.253371 137.163715,162.485893 137.163715,157.999189 C137.163715,153.514107 135.567062,148.746629 132.607191,148.746629 L21.9181427,148.746629 C20.8589691,148.746629 20,147.907553 20,146.87372 C20,145.838265 20.8589691,145 21.9181427,145 L132.607191,145 C138.373249,145 141,151.738577 141,157.999189 C141,164.260612 138.373249,171 132.607191,171" id="Fill-230" fill="#35FF8B"></path>
            <g id="Group-236" transform="translate(119.000000, 150.000000)" fill="#E5E5E8">
                <path d="M1.20608333,1.76777857 L1.20608333,9.17235 C1.20608333,9.63356429 1.68525,9.95727857 2.14858333,9.81035 L5.25025,8.82427857 L8.35025,9.81035 C8.81358333,9.95727857 9.29275,9.63356429 9.29275,9.17235 L9.29275,1.76777857 C9.29275,1.44092143 9.01191667,1.17692143 8.66608333,1.17692143 L1.83275,1.17692143 C1.48691667,1.17692143 1.20608333,1.44092143 1.20608333,1.76777857" id="Fill-232"></path>
                <path d="M1.83275,1.63043571 C1.75275,1.63043571 1.68691667,1.69172143 1.68691667,1.76793571 L1.68691667,9.17250714 C1.68691667,9.27072143 1.74775,9.32650714 1.78441667,9.35086429 C1.82108333,9.37522143 1.89775,9.41215 1.99358333,9.38072143 L5.09525,8.39465 C5.19441667,8.36243571 5.30191667,8.36243571 5.40275,8.39465 L8.50525,9.38072143 C8.60358333,9.41057857 8.67941667,9.37522143 8.71441667,9.35086429 C8.75108333,9.32650714 8.81191667,9.27072143 8.81191667,9.17250714 L8.81191667,1.76793571 C8.81191667,1.69172143 8.74608333,1.63043571 8.66608333,1.63043571 L1.83275,1.63043571 Z M1.92025,10.2992214 C1.67441667,10.2992214 1.42941667,10.2269357 1.22441667,10.0878643 C0.911916667,9.87650714 0.72525,9.53472143 0.72525,9.17250714 L0.72525,1.76793571 C0.72525,1.19122143 1.22275,0.723721429 1.83275,0.723721429 L8.66608333,0.723721429 C9.27775,0.723721429 9.77358333,1.19122143 9.77358333,1.76793571 L9.77358333,9.17250714 C9.77358333,9.53472143 9.58858333,9.87650714 9.27525,10.0878643 C8.96358333,10.2984357 8.55775,10.3550071 8.19691667,10.2395071 L5.24941667,9.30372143 L2.30191667,10.2395071 C2.17858333,10.2795786 2.04858333,10.2992214 1.92025,10.2992214 L1.92025,10.2992214 Z" id="Fill-234"></path>
            </g>
            <path d="M120,151.613382 L120,159.301055 C120,159.779037 120.474031,160.115908 120.932399,159.962562 L124,158.938899 L127.067601,159.962562 C127.525969,160.115908 128,159.779037 128,159.301055 L128,151.613382 C128,151.27488 127.722176,151 127.380049,151 L120.619951,151 C120.277824,151 120,151.27488 120,151.613382" id="Fill-237" fill="#FB7528"></path>
            <path d="M123.5,157.986214 C123.551391,157.986214 123.60361,157.99442 123.653343,158.010832 L126.736784,159.041523 C126.838736,159.072706 126.910849,159.034958 126.946491,159.009519 C126.982133,158.98408 127.042641,158.926637 127.042641,158.82406 L127.042641,151.089775 C127.042641,151.010996 126.97716,150.946988 126.898416,150.946988 L120.099926,150.946988 C120.021183,150.946988 119.957359,151.010996 119.957359,151.089775 L119.957359,158.82406 C119.957359,158.926637 120.017867,158.98408 120.053509,159.01034 C120.08998,159.035779 120.167066,159.072706 120.261558,159.041523 L123.345828,158.010832 C123.395561,157.99442 123.448609,157.986214 123.5,157.986214 M120.189446,160 C119.943268,160 119.699576,159.924504 119.494843,159.780075 C119.184841,159.55933 119,159.201543 119,158.82406 L119,151.089775 C119,150.487445 119.493185,150 120.099926,150 L126.898416,150 C127.505157,150 128,150.487445 128,151.089775 L128,158.82406 C128,159.200722 127.81433,159.55851 127.504329,159.780075 C127.194327,160 126.793977,160.059084 126.431755,159.938454 L123.5,158.960282 L120.568245,159.938454 C120.443912,159.979485 120.316265,160 120.189446,160" id="Fill-239" fill="#FB7528"></path>
            <path d="M227.014875,161 L151.98596,161 C150.343515,161 149,159.650629 149,158 C149,156.35021 150.343515,155 151.98596,155 L227.014875,155 C228.65732,155 230,156.35021 230,158 C230,159.650629 228.65732,161 227.014875,161" id="Fill-241" fill="#35FF8B"></path>
            <path d="M55,142 L98.561417,142 C104.537032,138.844151 108.989124,131.70107 109.005811,122.39022 L129.657644,51 L254,51 L233.346498,122.39022 C233.330646,131.70107 228.878554,138.844151 222.902939,142 L152.148384,142" id="Fill-243" fill="#3500DA"></path>
            <path d="M222.612791,145 L152.15895,145 C150.820525,145 149.735495,143.936735 149.735495,142.625971 C149.735495,141.315207 150.820525,140.251942 152.15895,140.251942 L221.972241,140.251942 C227.290217,137.13379 230.575216,130.570203 230.588509,122.958004 C230.588509,122.741443 230.619249,122.52651 230.679898,122.318905 L250.37826,53.7488721 L131.599874,53.7488721 L111.619038,123.2975 C111.502725,132.753723 107.052108,140.939075 99.9553805,144.712609 C99.6006272,144.902303 99.2026721,145 98.7997321,145 L55.4234553,145 C54.0841992,145 53,143.936735 53,142.625971 C53,141.315207 54.0841992,140.251942 55.4234553,140.251942 L98.1575206,140.251942 C103.476328,137.13379 106.762988,130.571017 106.775451,122.958004 C106.775451,122.741443 106.80619,122.52651 106.86767,122.318905 L127.433392,50.7316734 C127.726666,49.7074867 128.679598,49 129.764628,49 L253.577687,49 C254.336211,49 255.050702,49.3492656 255.509306,49.9411445 C255.967079,50.5338376 256.114962,51.3023847 255.908923,52.0180128 L235.432096,123.298314 C235.314953,132.752909 230.865167,140.939075 223.76927,144.712609 C223.414517,144.901489 223.016561,145 222.612791,145" id="Fill-245" fill="#3500DA"></path>
            <path d="M108.325877,133 C105.036165,129.456586 127.582626,53 134.16205,53 L252,53 L229.404302,132.699973 L108.325877,133 Z" id="Fill-247" fill="#F1F1F4"></path>
            <path d="M118.602103,119 C118.574095,119 118.547734,118.997562 118.518079,118.994311 C118.190221,118.949608 117.960392,118.650507 118.005699,118.327022 C120.561009,99.94043 126.7244,79.9957483 136.850087,57.3534668 C136.98436,57.0543657 137.33693,56.9186323 137.642546,57.0503018 C137.944867,57.1827841 138.083259,57.5330901 137.948162,57.8321912 C127.869429,80.3712503 121.735695,100.211897 119.196035,118.487139 C119.154847,118.783802 118.897833,119 118.602103,119" id="Fill-249" fill="#E5E5E8"></path>
            <path d="M122.601728,119 C122.575367,119 122.547359,118.997562 122.519351,118.994311 C122.191492,118.949608 121.961661,118.651319 122.00532,118.327022 C124.556527,99.8436882 130.719129,79.8989839 140.849816,57.3525844 C140.986562,57.0526701 141.339958,56.9185621 141.643104,57.0510445 C141.94625,57.183527 142.082996,57.5338333 141.947898,57.8329348 C131.864165,80.2744863 125.730395,100.115968 123.195664,118.487138 C123.154475,118.783802 122.89746,119 122.601728,119" id="Fill-251" fill="#E5E5E8"></path>
            <path d="M126.601097,119 C126.574736,119 126.547551,118.997562 126.518719,118.994311 C126.190857,118.950421 125.961024,118.651318 126.005508,118.327833 C128.548498,99.7550418 134.713622,79.8094689 144.850159,57.3507864 C144.984435,57.0516841 145.344424,56.9183885 145.643454,57.0516841 C145.946602,57.1841669 146.082525,57.535287 145.94825,57.8343894 C135.85702,80.1874107 129.7232,100.02651 127.195038,118.486324 C127.155496,118.783801 126.896831,119 126.601097,119" id="Fill-253" fill="#E5E5E8"></path>
            <path d="M129.601732,119 C129.574547,119 129.548185,118.997562 129.520176,118.99431 C129.192306,118.95042 128.961644,118.652125 129.005305,118.328634 C131.50552,99.9254038 137.847913,79.4089151 147.851247,57.3497477 C147.987997,57.0506403 148.342229,56.9197809 148.644561,57.0506403 C148.946894,57.1839382 149.083644,57.5350642 148.946894,57.8333588 C138.989692,79.7901144 132.681075,100.196063 130.195687,118.485503 C130.155322,118.782985 129.89665,119 129.601732,119" id="Fill-255" fill="#E5E5E8"></path>
            <path d="M133.602333,119 C133.57515,119 133.54879,118.997562 133.520783,118.994311 C133.192933,118.950421 132.962285,118.652944 133.00512,118.329458 C135.501884,99.8338904 141.842232,79.3177572 151.851531,57.3491903 C151.985801,57.0517137 152.344129,56.9184182 152.645619,57.0517137 C152.947933,57.1866348 153.083026,57.5377548 152.947109,57.8360441 C142.985587,79.6989499 136.676541,100.103733 134.197076,118.484699 C134.155888,118.782988 133.897233,119 133.602333,119" id="Fill-257" fill="#E5E5E8"></path>
            <path d="M137.602303,119 C137.575943,119 137.550407,118.997562 137.5224,118.994311 C137.194551,118.951234 136.962255,118.653758 137.00509,118.329462 C139.493617,99.7486393 145.834788,79.2326025 155.8515,57.3486674 C155.989066,57.0503794 156.344099,56.9178973 156.647236,57.0528177 C156.947902,57.1877382 157.082996,57.5388565 156.947078,57.8371445 C146.97732,79.615419 140.669921,100.019293 138.197869,118.484701 C138.157506,118.782177 137.898851,119 137.602303,119" id="Fill-259" fill="#E5E5E8"></path>
            <path d="M141.602133,119 C141.57495,119 141.549415,118.997562 141.522232,118.994311 C141.193569,118.952046 140.962928,118.654569 141.004938,118.330271 C143.486798,99.6607643 149.828598,79.1430008 159.853239,57.3475505 C159.989976,57.0500739 160.348293,56.9175911 160.648126,57.053325 C160.949607,57.1882461 161.083049,57.5393661 160.946312,57.8376556 C150.971094,79.5266319 144.662243,99.9306066 142.196857,118.483886 C142.157318,118.782176 141.898671,119 141.602133,119" id="Fill-261" fill="#E5E5E8"></path>
            <path d="M144.6021,119 C144.576565,119 144.550207,118.997562 144.523025,118.994311 C144.194372,118.952046 143.962915,118.655382 144.004923,118.331084 C146.480941,99.5746099 152.822547,79.0568464 162.852645,57.3475505 C162.991025,57.0500739 163.351802,56.9175911 163.648332,57.053325 C163.950627,57.1890589 164.083241,57.5409917 163.945684,57.8384684 C153.965007,79.4404775 147.65635,99.8452649 145.196805,118.483073 C145.157268,118.781363 144.898629,119 144.6021,119" id="Fill-263" fill="#E5E5E8"></path>
            <path d="M148.601936,119 C148.576401,119 148.550866,118.997562 148.523683,118.995123 C148.195022,118.952046 147.963559,118.656193 148.004745,118.331081 C150.472586,99.4924347 156.814345,78.9737694 166.853748,57.3464703 C166.992955,57.0473668 167.352093,56.9181345 167.649453,57.053869 C167.950932,57.1904163 168.08355,57.5415378 167.945166,57.8390158 C157.956834,79.3598405 151.648023,99.7630909 149.19748,118.483071 C149.157118,118.781362 148.898472,119 148.601936,119" id="Fill-265" fill="#E5E5E8"></path>
            <path d="M152.602002,120 C152.576498,120 152.550172,119.997545 152.523846,119.995089 C152.19559,119.952531 151.96359,119.653806 152.004725,119.327254 C153.862372,104.935227 157.733155,90.2338351 163.840026,74.3833727 C163.959316,74.0756444 164.307317,73.9217803 164.615005,74.0396337 C164.924339,74.1566686 165.079005,74.5020445 164.959714,74.8097728 C158.88822,90.5710267 155.039649,105.18321 153.195988,119.478662 C153.157321,119.779843 152.89735,120 152.602002,120" id="Fill-267" fill="#E5E5E8"></path>
            <path d="M156.602092,119 C156.576556,119 156.551021,118.997562 156.524662,118.995123 C156.195997,118.952859 155.962884,118.65701 156.004894,118.332714 C158.457935,99.3235968 164.799762,78.8051616 174.8541,57.3447233 C174.993308,57.0464359 175.350803,56.9172051 175.652285,57.0553764 C175.952943,57.1927349 176.083091,57.5446653 175.944706,57.8421399 C165.941439,79.1920412 159.634208,99.59425 157.196818,118.481451 C157.158103,118.780551 156.899455,119 156.602092,119" id="Fill-269" fill="#E5E5E8"></path>
            <path d="M159.60182,119 C159.576282,119 159.550744,118.997562 159.525207,118.995123 C159.195689,118.953673 158.964203,118.657827 159.004569,118.333535 C161.447941,99.246627 167.791153,78.7268193 177.855441,57.3446709 C177.993838,57.0447616 178.35466,56.9171579 178.653697,57.0561403 C178.953558,57.1943099 179.083717,57.5470487 178.943673,57.8437069 C168.932931,79.1153197 162.625143,99.5156513 160.196599,118.480645 C160.15788,118.780554 159.899209,119 159.60182,119" id="Fill-271" fill="#E5E5E8"></path>
            <path d="M163.601755,119 C163.576219,119 163.551507,118.997562 163.525147,118.995123 C163.197298,118.954484 162.964179,118.657817 163.004542,118.333515 C165.441993,99.1598869 171.783978,78.6394716 181.854216,57.3420327 C181.995076,57.0437401 182.355051,56.918571 182.652421,57.0551191 C182.953911,57.1932928 183.084062,57.546042 182.943202,57.842709 C172.92486,79.0279834 166.617472,99.4297319 164.19732,118.48063 C164.159428,118.779735 163.899949,119 163.601755,119" id="Fill-273" fill="#E5E5E8"></path>
            <path d="M167.601753,119 C167.577865,119 167.551505,118.998374 167.526793,118.995123 C167.197297,118.954485 166.964179,118.658634 167.004542,118.334336 C169.433751,99.08211 175.774902,78.5611401 185.855008,57.3411828 C185.995867,57.0445195 186.355018,56.9169137 186.654036,57.0567112 C186.953877,57.1956959 187.084028,57.5484407 186.943168,57.8451039 C176.916605,78.9512726 170.609228,99.3519516 168.197317,118.479823 C168.159425,118.779738 167.899947,119 167.601753,119" id="Fill-275" fill="#E5E5E8"></path>
            <path d="M171.602543,119 C171.577831,119 171.552296,118.998374 171.52676,118.995123 C171.198916,118.954485 170.964153,118.659447 171.004516,118.335149 C173.423808,99.0048962 179.766524,78.4831136 189.855559,57.3411828 C189.996417,57.0445195 190.358034,56.9169137 190.654577,57.0567112 C190.955238,57.1956959 191.08374,57.5500662 190.942882,57.8451039 C180.906565,78.8748716 174.600918,99.2739251 172.197276,118.479011 C172.159384,118.779738 171.899909,119 171.602543,119" id="Fill-277" fill="#E5E5E8"></path>
            <path d="M174.601751,119 C174.577039,119 174.552326,118.998374 174.527613,118.995123 C174.198111,118.955298 173.964164,118.660261 174.004528,118.335152 C176.416485,98.9212785 182.75858,78.3995962 192.856176,57.3398587 C192.998686,57.0431969 193.358667,56.9172172 193.656043,57.057014 C193.95589,57.1976236 194.083572,57.5511795 193.94271,57.8470285 C183.899481,78.7905395 177.592808,99.1911188 175.196503,118.479013 C175.159434,118.779739 174.900775,119 174.601751,119" id="Fill-279" fill="#E5E5E8"></path>
            <path d="M178.593103,119 C178.569551,119 178.544375,118.998383 178.520011,118.995149 C178.195159,118.955532 177.965326,118.662043 178.004308,118.339448 C179.58309,105.41785 182.895769,91.9755731 187.850576,78.387764 C187.961838,78.0813389 188.302121,77.9261051 188.609918,78.0344454 C188.917716,78.1452111 189.076081,78.4839766 188.964007,78.7895931 C184.039249,92.2949343 180.747685,105.648276 179.180273,118.480937 C179.143727,118.780894 178.887906,119 178.593103,119" id="Fill-281" fill="#E5E5E8"></path>
            <path d="M182.601411,119 C182.577522,119 182.553633,118.998374 182.52892,118.995123 C182.199419,118.95611 181.965472,118.661072 182.004189,118.33596 C184.397195,98.769959 190.739278,78.2465052 200.856628,57.3377947 C200.999961,57.0419436 201.354999,56.9167758 201.65814,57.0581991 C201.957163,57.1996225 202.084021,57.5523681 201.941512,57.8482192 C191.880178,78.6407025 185.572692,99.0398013 183.196985,118.478197 C183.16074,118.778924 182.900433,119 182.601411,119" id="Fill-283" fill="#E5E5E8"></path>
            <path d="M186.601536,119 C186.576825,119 186.552937,118.998374 186.529049,118.995123 C186.199564,118.95611 185.964806,118.661883 186.004344,118.33677 C188.388994,98.6877553 194.733232,78.1641871 204.857491,57.3358256 C205.00164,57.0399728 205.364898,56.9172426 205.658963,57.0586668 C205.957148,57.1992781 206.083999,57.5536513 205.941497,57.849504 C195.873251,78.5591994 189.567727,98.957599 187.197081,118.477381 C187.160014,118.778923 186.900544,119 186.601536,119" id="Fill-285" fill="#E5E5E8"></path>
            <path d="M189.601512,119 C189.577624,119 189.553737,118.998374 189.529849,118.995123 C189.201187,118.956923 188.964781,118.661888 189.004319,118.337594 C191.379912,98.6133349 197.723338,78.0901247 207.858323,57.3360883 C208.003297,57.0410534 208.364908,56.9158871 208.659798,57.0597471 C208.958806,57.2019815 209.084011,57.5555357 208.940684,57.8513833 C198.862536,78.4859428 192.557,98.8831739 190.197058,118.476577 C190.160814,118.778114 189.900521,119 189.601512,119" id="Fill-287" fill="#E5E5E8"></path>
            <path d="M193.602176,119 C193.578288,119 193.553577,118.998374 193.530513,118.995123 C193.20103,118.956923 192.96545,118.662696 193.004164,118.337583 C195.3715,98.5365897 201.715699,78.0122208 211.858838,57.3342361 C212.003811,57.040009 212.3613,56.9172789 212.66113,57.058703 C212.960136,57.2017526 213.083692,57.5561255 212.940367,57.8511654 C202.854063,78.4104839 196.548579,98.8064333 194.196893,118.475756 C194.161473,118.778111 193.902005,119 193.602176,119" id="Fill-289" fill="#E5E5E8"></path>
            <path d="M197.602512,119 C197.579449,119 197.554738,118.998374 197.530851,118.995123 C197.202199,118.956922 196.967448,118.663502 197.00369,118.338384 C199.361914,98.4598348 205.705148,77.9351127 215.859594,57.3323622 C216.005388,57.0373173 216.368635,56.9186491 216.662692,57.05845 C216.960044,57.2015021 217.084421,57.5558811 216.939452,57.850926 C206.845958,78.3333827 200.538966,98.7313086 198.198864,118.475747 C198.161798,118.778107 197.902335,119 197.602512,119" id="Fill-291" fill="#E5E5E8"></path>
            <path d="M201.602493,119 C201.57943,119 201.555543,118.998374 201.531656,118.995123 C201.203009,118.957735 200.967437,118.664318 201.003679,118.339202 C203.35116,98.3876389 209.695949,77.8622464 219.859307,57.3319772 C220.006745,57.0377471 220.365868,56.9174542 220.663216,57.0596925 C220.961387,57.2027435 221.084115,57.5571201 220.939148,57.852163 C210.835095,78.2613265 204.529019,98.6582981 202.198835,118.474937 C202.162593,118.778108 201.902311,119 201.602493,119" id="Fill-293" fill="#E5E5E8"></path>
            <path d="M204.601876,119 C204.578811,119 204.554923,118.998374 204.531858,118.995123 C204.20236,118.958549 203.966769,118.664324 204.003838,118.340027 C206.342447,98.314897 212.6861,77.788285 222.859339,57.3323844 C223.006789,57.0381601 223.365941,56.916244 223.664137,57.0609178 C223.960685,57.2055916 224.084246,57.5599611 223.939267,57.8541854 C213.825338,78.1889827 207.519577,98.5847381 205.198267,118.474948 C205.162846,118.7773 204.902543,119 204.601876,119" id="Fill-295" fill="#E5E5E8"></path>
            <path d="M208.602677,119 C208.578789,119 208.556548,118.998374 208.533483,118.995123 C208.203985,118.958548 207.966747,118.665132 208.003815,118.340017 C210.332541,98.2397975 216.677023,77.7128648 226.860979,57.3297953 C227.007606,57.0371921 227.370877,56.9168996 227.664954,57.0607629 C227.962326,57.2054389 228.08424,57.5606268 227.938437,57.8548557 C217.815438,78.1143815 211.509673,98.5104555 209.198245,118.474127 C209.163648,118.777296 208.902521,119 208.602677,119" id="Fill-297" fill="#E5E5E8"></path>
            <path d="M212.602668,119 C212.579603,119 212.556539,118.998374 212.533474,118.995123 C212.203982,118.959361 211.966747,118.665947 212.003815,118.340022 C214.321794,98.1692362 220.666172,77.6416398 230.860668,57.3294303 C231.009764,57.0352035 231.371382,56.9173503 231.666278,57.0612125 C231.963644,57.2067003 232.083909,57.5626984 231.938109,57.8552996 C221.803744,78.0439664 215.500554,98.4390795 213.198225,118.474131 C213.163628,118.776485 212.903329,119 212.602668,119" id="Fill-299" fill="#E5E5E8"></path>
            <path d="M215.645638,119 C215.621805,119 215.596206,118.998368 215.572373,118.995919 C215.220172,118.959194 214.965068,118.664572 215.003908,118.337305 C216.090524,109.420304 218.018364,100.368642 220.737112,91.4345022 C220.833327,91.117845 221.183763,90.9334004 221.530668,91.0223582 C221.87316,91.111316 222.070887,91.4402151 221.976437,91.7560561 C219.277109,100.628986 217.36251,109.616991 216.28472,118.471966 C216.246764,118.775565 215.96871,119 215.645638,119" id="Fill-301" fill="#E5E5E8"></path>
            <path d="M251.001417,52.1943556 C246.048983,54.9971256 238.920204,69.2725459 232.934422,89.3130397 C221.462919,127.720949 222.208857,124.108364 228.598343,128.108851 C234.718693,131.941706 232.532379,128.762372 232.532379,128.762372 L253,52 L251.001417,52.1943556 Z" id="Fill-303" fill="#D4D4D4"></path>
            <path d="M36,142 C36,142 42.1647648,135.884333 44.9328226,130.796389 C45.274661,130.168512 45.9833505,129.814588 46.7228889,129.898516 C52.8834849,130.594486 80.7633294,133.402911 112.636014,131.255618 C132.127476,129.942064 197.393609,120.937211 226.562435,127.184313 C230.18092,127.95946 232.071037,131.810652 230.366013,134.939746 C228.683501,138.026875 226.24811,141.307989 223.261609,142 L36,142 Z" id="Fill-305" fill="#FFFFFF"></path>
            <path d="M155.301243,129.146281 C155.120851,133.790696 153.525455,140.028658 153,142 L222.322777,142 C225.285182,141.308565 227.700619,138.034348 229.370489,134.949423 C231.074286,131.800345 229.160307,127.953496 225.545014,127.176523 C209.303086,123.683707 181.832152,124.973119 157.413819,127.023663 C156.248716,127.121081 155.3451,128.027946 155.301243,129.146281" id="Fill-307" fill="#D4D4D4"></path>
            <path d="M188.573187,145 L28.4259812,145 C27.0865334,145 26,143.880316 26,142.5 C26,141.119684 27.0865334,140 28.4259812,140 L188.573187,140 C189.912635,140 191,141.119684 191,142.5 C191,143.880316 189.912635,145 188.573187,145" id="Fill-309" fill="#4B2EF6"></path>
            <path d="M222.695383,145 L152.417406,145 C151.082322,145 150,143.936728 150,142.625956 C150,141.315184 151.082322,140.251912 152.417406,140.251912 L222.056432,140.251912 C227.361134,137.133741 230.637933,130.570112 230.651193,122.957865 C230.651193,122.741303 230.681856,122.526369 230.742353,122.318762 L251.25674,50.7310808 C251.618895,49.4683435 252.952322,48.736428 254.238511,49.0881382 C255.523043,49.4439191 256.271386,50.754691 255.908402,52.0174283 L235.48269,123.298178 C235.365839,132.752832 230.92716,140.938236 223.848975,144.712607 C223.495107,144.901489 223.098146,145 222.695383,145" id="Fill-311" fill="#3500DA"></path>
            <path d="M82.0561697,197 L82.0561697,197 C79.1850706,197 76.1693359,193.694706 75.3538905,189.655442 L66.2061065,144.344558 C65.3898299,140.305294 67.0722574,137 69.9433566,137 C72.8144557,137 75.8310217,140.305294 76.646467,144.344558 L85.7942511,189.655442 C86.6096964,193.694706 84.9272689,197 82.0561697,197" id="Fill-313" fill="#B2B1C2"></path>
            <path d="M67.5433722,197 L67.5433722,197 C64.6709263,197 61.324452,193.694706 60.1069474,189.655442 L46.4474441,144.344558 C45.2299396,140.305294 46.5838313,137 49.4562772,137 C52.3287231,137 55.6751974,140.305294 56.892702,144.344558 L70.5522052,189.655442 C71.7705415,193.694706 70.4158181,197 67.5433722,197" id="Fill-315" fill="#B2B1C2"></path>
            <path d="M82.2357927,71.0950449 C82.9342698,76.5269253 83.1232695,81.8261433 82.9268742,87.2928073 C82.8036135,90.0164322 82.554627,92.7635158 82.05008,95.5518541 C81.7879456,96.9480456 81.4650027,98.3563708 81.0171556,99.7889635 C80.5693085,101.240161 79.9677965,102.65334 79.3005454,103.957315 C77.9537172,106.57659 76.3258547,108.945909 74.476123,111.118661 C72.6362521,113.297884 70.5728686,115.276496 68.2958332,117.018096 C66.021263,118.75565 63.539615,120.290976 60.8024065,121.396766 C58.0701284,122.471008 55.053529,123.178811 51.9843385,122.960403 C50.8067882,122.877084 49.9209549,121.869982 50.0055939,120.710804 C50.0828373,119.668109 50.9185446,118.857574 51.9432516,118.766975 L51.995021,118.762122 C54.263839,118.558274 56.4973223,117.817306 58.5722102,116.680777 C60.6544937,115.562044 62.6233774,114.142394 64.4049049,112.495438 C67.9375555,109.195864 70.9911331,105.194959 72.9213951,100.971601 C73.398003,99.911919 73.7702502,98.8789314 74.0521063,97.8111604 C74.3405362,96.7272111 74.5582967,95.5664146 74.7283965,94.3789238 C75.0612003,91.9942353 75.2444478,89.5116677 75.3257998,87.001597 C75.4309823,84.4923352 75.4334475,81.9523345 75.3594911,79.4074803 C75.3299085,76.8755687 75.2025392,74.2740903 75.0825654,71.80851 L75.077635,71.7098221 C74.9823134,69.7579044 76.5115674,68.0988148 78.4952424,68.0041714 C80.3803088,67.9143816 81.9974888,69.2846877 82.2357927,71.0950449" id="Fill-317" fill="#E8896C"></path>
            <path d="M80.5598107,63.034449 C83.053418,62.4249297 84.6319007,70.0525118 85.6845089,74.1277007 C86.4269199,77.0051228 86.8273407,83.3293971 86.9974765,86.7926123 C87.0602034,88.0599216 85.9448683,89.0924227 84.6172931,88.993427 L74.1281597,88.2170057 C73.017121,88.1351911 72.148397,87.2794096 72.0899665,86.2199095 C71.7917991,80.7915059 71.7230574,65.1959927 80.5598107,63.034449" id="Fill-319" fill="#2300B0"></path>
            <path d="M57,184.732635 C58.4406659,187.595284 60.8615369,194 60.8615369,194 L65,193.020446 C65,193.020446 63.0477109,185.260027 62.2664704,183 L57,184.732635 Z" id="Fill-321" fill="#FCAE92"></path>
            <path d="M74,188.733295 C75.1641175,191.59574 77.0054625,198 77.0054625,198 L81,197.020516 C81,197.020516 79.6990774,189.26065 79.1187181,187 L74,188.733295 Z" id="Fill-323" fill="#FCAE92"></path>
            <path d="M111.55781,68.8047056 C110.347642,63.0898238 105.181319,59 99.2204321,59 C99.1404761,59 99.0596872,59.0016226 98.9797312,59.0024339 L87.8208717,59.2060732 C87.2611797,59.2166203 86.7106493,59.3529207 86.2134229,59.6036161 L79.9893479,62.7433936 L79.9893479,62.7442049 C75.5318008,64.9939731 73.178096,69.9194483 74.2616664,74.7224154 C79.642039,98.5749884 78.9432568,118.117872 78.9349281,118.312587 C78.8941172,119.34701 79.3188835,120.347357 80.0976216,121.051576 C80.774749,121.664117 81.660928,122 82.5762577,122 C82.7120163,122 82.8486078,121.99351 82.9860322,121.978095 L111.336265,118.849675 C113.082804,118.656583 114.439557,117.277353 114.561157,115.569541 C116.074491,94.3585999 113.328502,77.1652758 111.55781,68.8047056" id="Fill-325" fill="#7D0F7D"></path>
            <path d="M89,56.3068586 C85.3094894,56.3068586 82.307683,59.3096887 82.307683,62.9995785 C82.307683,66.6903113 85.3094894,69.6931414 89,69.6931414 C92.6896676,69.6931414 95.691474,66.6903113 95.691474,62.9995785 C95.691474,59.3096887 92.6896676,56.3068586 89,56.3068586 M89,70 C85.140896,70 82,66.860601 82,62.9995785 C82,59.1402421 85.140896,56 89,56 C92.859104,56 96,59.1402421 96,62.9995785 C96,66.860601 92.859104,70 89,70" id="Fill-327" fill="#FFFFFF"></path>
            <path d="M88.976468,71.3207519 C88.966912,71.3207519 88.959745,71.3216331 88.9517817,71.3216331 C88.0089224,71.3427816 87.2643502,72.5614628 87.2914256,74.0383316 C87.3041669,74.7626671 87.5000651,75.4394184 87.8408959,75.9399324 C88.1658002,76.4175356 88.5862644,76.6783669 89.0242481,76.6792481 C89.0330077,76.6792481 89.0409711,76.6783669 89.0489344,76.6783669 C89.496474,76.6686738 89.9153456,76.3875753 90.2291012,75.8870612 C90.5524127,75.3698047 90.7220318,74.6860038 90.7092905,73.9616684 C90.6949565,73.2373329 90.500651,72.5614628 90.1590238,72.0600676 C89.8333233,71.5824644 89.4136553,71.3207519 88.976468,71.3207519 L88.976468,71.3207519 Z M89.0242481,77 C88.492297,77 87.9906067,76.6942282 87.6091628,76.1337935 C87.2309042,75.5786459 87.0150977,74.8366867 87.0007637,74.0444999 C86.970503,72.3913937 87.8432849,71.0255544 88.9446147,71.0008812 C88.9557633,71.0008812 88.9661157,71 88.976468,71 C89.508419,71 90.009313,71.306653 90.3899606,71.8662065 C90.7690155,72.4213541 90.9840257,73.1641944 90.999156,73.9555001 C91.0142864,74.7468057 90.8255552,75.4975767 90.467205,76.0694669 C90.1000951,76.6572184 89.5984048,76.9876634 89.0561014,77 L89.0242481,77 Z" id="Fill-329" fill="#FFFFFF"></path>
            <path d="M89.9761057,78.3216331 L89.951415,78.3216331 C89.5029987,78.3322074 89.0848486,78.6133059 88.7710369,79.1138199 C88.4484639,79.6293141 88.276425,80.3139962 88.2907616,81.0383316 C88.3178418,82.5019827 89.0936098,83.6783669 90.0238943,83.6792481 C90.0326556,83.6792481 90.0406203,83.6783669 90.0485851,83.6783669 C90.4962048,83.6677926 90.9151514,83.3875753 91.2289632,82.8870612 C91.5523326,82.3706859 91.7227786,81.6860038 91.7092385,80.9616684 C91.6956984,80.2373329 91.5005616,79.5614628 91.1588732,79.0600676 C90.8331144,78.5833456 90.4141678,78.3216331 89.9761057,78.3216331 M90.0254873,84 C88.9359075,84 88.0311103,82.6835071 88.0008442,81.0453811 C87.9857111,80.2531943 88.174476,79.5024233 88.5320939,78.9305331 C88.8992696,78.3427816 89.4018462,78.0123366 89.9442467,78.0008812 C89.9561938,78.0008812 89.9657515,78 89.9761057,78 C90.508152,78 91.0091357,78.306653 91.3898514,78.8662065 C91.7689742,79.4213541 91.9840228,80.1633133 91.9991559,80.9546189 C92.0142889,81.7476869 91.825524,82.4975767 91.4671096,83.0694669 C91.099934,83.6572184 90.5981538,83.9876634 90.0557534,83.9991188 C90.0453992,83.9991188 90.035045,84 90.0254873,84" id="Fill-331" fill="#FFFFFF"></path>
            <path d="M82.6289418,121.003266 L79.3958849,121 C77.2468872,121.018778 75.1045402,121.07838 72.9596992,121.180437 C68.6683545,121.391899 64.3703592,121.742158 60.0407731,122.337355 C55.7120184,122.926836 51.3541671,123.731861 46.9505923,124.941849 C42.5553309,126.150204 38.0869122,127.759438 33.6500841,130.270856 L33.6492528,130.271673 L32.817919,130.725622 C32.4163848,130.949331 32.0289833,131.213046 31.6631965,131.516768 C28.4924897,134.151471 28.0967748,138.810168 30.7786574,141.923314 C30.9873222,142.165801 31.3323257,142.642612 31.6207985,143.037776 L32.5261209,144.314713 C33.1288378,145.187505 33.7340488,146.06846 34.3242957,146.974726 C35.515597,148.771746 36.6719822,150.624284 37.8142347,152.489069 C40.0912578,156.23007 42.2627015,160.073944 44.3668071,163.968438 C46.4625994,167.867832 48.4711017,171.830908 50.4089406,175.839707 C52.3509362,179.846055 54.1923404,183.910373 55.9996599,188 L63.5490015,185.525322 C62.4233756,181.113195 61.2536891,176.701067 59.9667844,172.310168 C58.6848678,167.917635 57.3164925,163.538166 55.8367185,159.176659 C54.3477998,154.817601 52.7715911,150.471607 51.0390916,146.145207 C50.4397,144.660074 49.8203564,143.174941 49.1852174,141.690624 C49.9517071,141.443238 50.7306668,141.208099 51.5254218,140.992554 C54.9671434,140.044649 58.6308312,139.354744 62.3676762,138.847725 C66.1045213,138.333358 69.9319818,138.018206 73.7744063,137.828788 C75.6964498,137.737345 77.6259754,137.684275 79.5496816,137.66713 L82.425265,137.669579 C82.435241,137.670396 82.4435543,137.670396 82.4535303,137.670396 C83.9640637,137.689174 85.2218716,136.533889 85.2966917,135.052022 L86,121.088994 C84.7396981,121.035108 83.7396036,121.018778 82.6289418,121.003266" id="Fill-333" fill="#12172C"></path>
            <path d="M116.964919,124.136979 L116.238639,115.293262 C116.159896,114.326901 115.681573,113.433365 114.915921,112.816399 C114.148594,112.199434 113.161791,111.913862 112.172476,112.02269 L81.7415906,115.389816 C79.8442152,115.59929 78.4285135,117.198982 78.4913405,119.063788 L78.6178322,122.818768 C75.8718735,123.436552 73.1225641,124.104249 70.3590138,124.893867 C66.0524325,126.130252 61.7290973,127.527835 57.3152912,129.465466 L57.3144535,129.465466 L56.627545,129.75022 C56.354457,129.865594 56.0863951,129.998151 55.8233594,130.147074 C52.1584512,132.224628 50.9102881,136.810138 53.0380292,140.39001 C53.2298609,140.71404 53.5037866,141.24918 53.7416915,141.709858 L54.4788617,143.171265 L55.9247203,146.181631 C56.8805284,148.207634 57.8003157,150.273732 58.7100506,152.349649 C60.5186305,156.507211 62.2308756,160.736779 63.8853199,164.999078 C65.5380888,169.263013 67.1045753,173.574407 68.624151,177.908712 C70.1412136,182.243836 71.579533,186.613326 72.9876954,191 L80.9231642,189.257113 C80.2287165,184.641328 79.4974102,180.023088 78.6798215,175.411393 C77.8580444,170.798881 76.9834926,166.188005 76.0075798,161.582857 C75.0299917,156.97689 73.9828751,152.37256 72.8101045,147.76823 C72.3242423,145.882967 71.8207887,143.996886 71.2930419,142.106713 C72.5453934,141.704131 73.8119857,141.312186 75.0978449,140.944788 C78.853224,139.867963 82.7736287,138.994883 86.7065989,138.172535 C90.6479459,137.355097 94.6588215,136.676762 98.6763986,136.05325 C99.8541954,135.874052 101.045395,135.7014 102.239108,135.533657 L106.973751,135.28818 C108.197621,135.225175 109.371229,134.952695 110.46777,134.510018 C110.538974,134.501836 110.613528,134.492017 110.68557,134.484652 L110.678868,134.421647 C112.077816,133.821046 113.341895,132.933238 114.380635,131.77295 C116.278848,129.653665 117.196122,126.941963 116.964919,124.136979" id="Fill-335" fill="#1C2248"></path>
            <path d="M78.094033,113.695853 C78.0772716,114.963739 78.0429107,117.319182 78,118.703564 C77.9943027,118.875115 78.141803,119.008367 78.3211501,118.99959 C81.4597233,118.847188 106.025239,117.608027 115.755235,115.73612 C115.897707,115.707395 115.994923,115.598081 115.996599,115.460042 C116.006656,114.82171 116.010008,112.915493 115.77032,110.462704 C115.680647,109.549092 114.80654,108.890015 113.851139,109.015287 C108.51347,109.717452 91.8467662,111.843096 79.0092058,112.763091 C78.4937926,112.800593 78.1007376,113.20354 78.094033,113.695853" id="Fill-337" fill="#2300B0"></path>
            <path d="M88.2571007,68 C87.120645,68 85.9801247,67.5946504 85.0712853,66.7726014 C78.7264807,61.0296084 78.061516,51.9959875 78.0070506,50.9850456 C77.8656034,48.3770263 79.8694398,46.1484143 82.4837757,46.0065419 C85.0981116,45.8711552 87.322248,47.8533147 87.4742632,50.4516055 C87.5848197,52.1451561 88.5107303,57.1131207 91.4453549,59.7697819 C93.384971,61.5249456 93.528857,64.5156149 91.7688952,66.4499432 C90.8340425,67.477099 89.5480104,68 88.2571007,68" id="Fill-339" fill="#FCAE92"></path>
            <path d="M86.093178,55 C86.093178,55 73.455738,57.7947349 81.9172183,63.690488 C89.1625715,68.7389902 91.3672759,57.7541624 86.093178,55" id="Fill-341" fill="#D27754"></path>
            <path d="M85.5128047,45.0170844 C85.5477698,45.8370809 85.6285224,46.8360002 85.7034476,47.745057 L85.9756755,50.509135 C86.0789057,51.4109707 86.1887959,52.3120039 86.3170011,53.1528614 C86.4427089,53.989707 86.5834016,54.7984707 86.7132718,55.4435559 L86.839812,56.0701873 C87.7505686,60.5914006 84.6852983,64.9681918 79.9941527,65.8459571 C75.8616156,66.6186152 71.8464612,64.4153762 70.325481,60.7895798 C69.7951776,59.5282937 69.3897494,58.3977897 69.0084638,57.2857398 C68.6296756,56.1768992 68.3025025,55.1121875 67.982822,54.0474759 C67.6664714,52.9851713 67.3759284,51.9373089 67.0937104,50.8870395 C66.81066,49.8175138 66.551752,48.8338389 66.2836865,47.6656248 L66.231239,47.4337472 C65.0698995,42.3597182 68.3965752,37.3418534 73.6604818,36.2225824 C78.9235559,35.1041136 84.1316849,38.3102837 85.2913594,43.3827079 C85.4129046,43.9114532 85.4861647,44.4931532 85.5128047,45.0170844" id="Fill-343" fill="#FCAE92"></path>
            <path d="M77.0184417,52.6343928 C77.0929866,52.9006152 77.3687464,53.0558648 77.634978,52.9813226 C77.9000886,52.9067803 78.0559041,52.63103 77.9813593,52.3659286 C77.9068145,52.0997063 77.6310546,51.9444566 77.3653835,52.0184384 C77.0997124,52.0929806 76.9444574,52.3687309 77.0184417,52.6343928" id="Fill-345" fill="#1C2248"></path>
            <path d="M69.0184417,54.6347624 C69.0929866,54.9005612 69.3687464,55.0558909 69.634978,54.9813102 C69.9000886,54.9067295 70.0559041,54.6313979 69.9813593,54.365599 C69.9068145,54.0992395 69.6310546,53.9444706 69.3653835,54.0184905 C69.0997124,54.0925104 68.9444574,54.3684028 69.0184417,54.6347624" id="Fill-347" fill="#1C2248"></path>
            <path d="M75.2479689,50 L75,49.6497865 C75.1159445,49.5968473 77.8986121,48.3487028 80,49.4577121 L79.7232566,49.7943514 C77.8723764,48.8170115 75.2750508,49.9877833 75.2479689,50" id="Fill-349" fill="#1C2248"></path>
            <path d="M79.2682353,61 L79,60.5542252 C80.614902,59.2141377 81.574902,57.0230256 81.5843137,57 L82,57.248676 C81.9592157,57.3426203 80.9772549,59.5834676 79.2682353,61" id="Fill-351" fill="#1C2248"></path>
            <path d="M66.4299674,52 L66,51.8853665 C66.0067652,51.8637797 66.6141318,49.7586916 69,50.0229442 L68.9511401,50.4621245 C66.925332,50.2365794 66.4502631,51.9277958 66.4299674,52" id="Fill-353" fill="#1C2248"></path>
            <path d="M75,59 L72.7141585,59 L72.7720392,58.7194474 C73.1567231,56.8870882 72.8967053,55.0268332 72,53.1888948 L72.4844167,53 C73.3784506,54.8323592 73.667854,56.6910202 73.3455031,58.5265675 L75,58.5265675 L75,59 Z" id="Fill-355" fill="#D27754"></path>
            <path d="M88.9652029,45.3922825 C88.8900905,41.3394366 88.7966172,39.5238531 86.6175213,39.458603 L88.3075516,38.5124768 C88.3075516,38.5124768 87.4813146,38.1511544 86.5574313,38.6764176 C87.2768418,37.2221563 86.4255673,36.1569487 86.4255673,36.1569487 L85.611849,38.8966366 C84.2397947,35.8935015 80.0944216,33.3593514 73.6631259,36.3176271 C67.8001813,39.015718 63.9535888,38.9292617 63.9535888,38.9292617 C63.9535888,38.9292617 64.6796759,39.8199253 66.1293463,40.5115762 C63.6706652,40.7252702 61.3163069,40.55562 61.3163069,40.55562 C61.9205449,41.6322464 63.0505701,42.4185099 64.3975869,42.8874949 C62.5097604,43.0587763 61,43.0375701 61,43.0375701 C61.8579512,44.4216875 63.5571619,45.2666761 65.4625146,45.5709046 C64.0287012,46.2666336 63.0004951,46.6793404 63.0004951,46.6793404 C65.9173623,49.2501937 73.4736756,47.2225473 77.6599433,43.4829019 C80.0451812,48.0145202 84.2139226,53.1562268 86.0608545,52.9963641 C89.0536687,52.7386263 89.0862175,51.8634595 88.9652029,45.3922825" id="Fill-357" fill="#1C2248"></path>
            <path d="M82,51.2430074 C83.0705578,48.4182357 84.8205251,46.830176 86.828597,49.0369804 C89.7458004,52.2418603 86.5518662,57.4460009 84.4293768,55.6224141 C82.3077743,53.7980499 82,51.2430074 82,51.2430074" id="Fill-359" fill="#FCAE92"></path>
            <path d="M78.7971315,189 C74.0253135,164.011964 68.3639768,145.911959 66.1515198,139.290919 C65.6458633,137.776074 66.4446661,136.117151 67.9691952,135.512352 C85.2396318,128.670719 109.721133,126.025234 109.966402,126 L110,126.293852 C109.754731,126.3199 85.3152283,128.961316 68.0842699,135.787483 C66.7075739,136.33286 65.9860475,137.832239 66.4429862,139.198938 C68.6579632,145.82649 74.3234996,163.940333 79.0986775,188.94709 L78.7971315,189 Z" id="Fill-361" fill="#FFFFFF"></path>
            <path d="M80.7357408,193.317189 C79.8009796,194.408186 78.1131047,195.334236 77.1695023,195.723578 C76.9179286,195.82824 76.7386923,196.038402 76.6711773,196.312198 C76.2122361,198.17267 74.0581862,204.821639 71.6260389,206.635222 C68.9133828,208.65813 75.7613324,208.646408 77.9636072,205.138974 C80.1666859,201.633215 81.8039245,199.550859 83.3631994,198.273145 C84.6106193,197.250807 83.9619931,195.067975 81.9711045,193.226761 C81.606202,192.887656 81.0612596,192.937894 80.7357408,193.317189" id="Fill-363" fill="#2A14CB"></path>
            <path d="M65.3688063,192.165812 C64.1467973,192.963656 62.1833736,193.441569 61.1161467,193.590023 C60.8305267,193.629717 60.5970708,193.784522 60.4645226,194.021891 C59.5572087,195.637426 55.7859985,201.294575 52.8459937,202.425846 C49.5664945,203.686519 56.6659475,205.208377 59.7598792,202.463159 C62.8538109,199.717941 65.0327324,198.161946 66.9439921,197.33076 C68.4738549,196.665493 68.3062456,194.504567 66.669489,192.35793 C66.3693315,191.964168 65.7938157,191.887956 65.3688063,192.165812" id="Fill-365" fill="#2300B0"></path>
            <path d="M75.1089149,197.274074 C74.7936054,197.274074 74.5296464,197.335957 74.3440642,197.397085 C73.7269585,197.602355 73.3611995,197.998555 73.3305695,198.267217 C73.3170562,198.390983 73.3684066,198.482298 73.4891251,198.547199 C74.5918074,199.13584 76.1323194,198.086852 76.5881668,197.742723 C76.0440327,197.383501 75.5305287,197.274074 75.1089149,197.274074 M74.2359581,199 C73.9224504,199 73.6071409,198.935853 73.3125518,198.778882 C73.0882316,198.65889 72.9783237,198.467204 73.0035485,198.240049 C73.0521962,197.822718 73.5638985,197.360106 74.2224449,197.141252 C75.1215273,196.842404 76.1125,197.022769 76.9431152,197.634805 C76.9773488,197.659709 76.99897,197.695179 76.9998709,197.732912 C77.0016727,197.770646 76.9845559,197.807624 76.952124,197.834038 C76.882756,197.892147 75.5485464,199 74.2359581,199" id="Fill-367" fill="#FFFFFF"></path>
            <path d="M74.774141,195.321934 C74.7589364,195.321934 74.744532,195.321934 74.7309278,195.323703 C74.4028281,195.347583 74.3140011,195.635024 74.2963957,195.870283 C74.2715882,196.206368 74.356414,196.49204 74.5556746,196.742335 C75.0750325,197.400354 76.208177,197.602005 76.6643158,197.658608 C76.2954036,196.126769 75.3503162,195.321934 74.774141,195.321934 M76.8539734,198 L76.845971,198 C76.7739491,197.994693 75.0726318,197.885908 74.3356076,196.956368 C74.0859317,196.639741 73.9738976,196.265625 74.0051071,195.845519 C74.0427186,195.345814 74.3059986,195.03184 74.711722,195.001769 C74.7293274,195 74.7493334,195 74.7693395,195 C75.491159,195 76.6307055,195.944575 76.9964167,197.805425 C77.0068199,197.853184 76.994016,197.905366 76.9652072,197.943396 C76.9371987,197.979658 76.8955861,198 76.8539734,198" id="Fill-369" fill="#FFFFFF"></path>
            <path d="M57.9131738,194.290347 C57.7511341,194.290347 57.6085747,194.307015 57.4916936,194.328446 C56.8550461,194.448296 56.4220549,194.803084 56.337936,195.077708 C56.3007466,195.203115 56.3317378,195.306297 56.4362223,195.391224 C57.387209,196.170648 59.0881825,195.311853 59.5973234,195.023736 C59.0058345,194.434009 58.380698,194.290347 57.9131738,194.290347 M57.4323676,196 C56.9976055,196 56.5725836,195.894436 56.219284,195.605526 C56.0253677,195.446784 55.9571871,195.232482 56.0262532,195.001512 C56.1581871,194.574496 56.7461342,194.172878 57.4261694,194.045885 C58.3541341,193.869681 59.2812133,194.206214 59.9639049,194.965001 C59.9922397,194.995956 60.0046362,195.035642 59.9984379,195.075327 C59.9922397,195.115013 59.9683322,195.15073 59.9311428,195.172954 C59.8611912,195.218195 58.6118037,196 57.4323676,196" id="Fill-371" fill="#FFFFFF"></path>
            <path d="M57.8701143,192.287965 C57.5551695,192.287965 57.4231247,192.506347 57.3678086,192.698713 C57.2821579,192.989626 57.3267676,193.254522 57.5007456,193.508381 C57.9584416,194.172199 59.1673658,194.539585 59.6607496,194.665726 C59.516214,193.223775 58.573164,192.349459 57.937029,192.291119 C57.9147241,192.288754 57.891527,192.287965 57.8701143,192.287965 M59.8374042,195 C59.8249135,195 59.8133149,194.998423 59.8017164,194.996846 C59.722311,194.981079 57.8718987,194.598713 57.223273,193.657385 C57.0020087,193.337302 56.9458004,192.991991 57.0519716,192.62697 C57.1777711,192.197302 57.5168051,191.962364 57.9718246,192.004936 C58.7685546,192.078256 59.9159173,193.10946 59.9997837,194.850996 C60.0024603,194.895145 59.9801554,194.938506 59.9408988,194.9661 C59.9123486,194.988963 59.8748764,195 59.8374042,195" id="Fill-373" fill="#FFFFFF"></path>
            <path d="M114.840172,81.8893823 C113.587514,76.3676509 111.826709,71.2274828 109.466342,66.0840743 C108.690533,64.4055198 106.70901,63.5686729 104.925146,64.2224342 C103.061394,64.9053596 102.113459,66.9460347 102.807733,68.7793208 L102.854677,68.9040782 C103.72849,71.2088502 104.641012,73.6967078 105.383877,76.1335282 C106.168745,78.5760194 106.874549,81.0330927 107.413168,83.4877356 C107.934491,85.9383279 108.37181,88.3840596 108.481345,90.7228563 C108.609823,93.03978 108.393223,95.3097171 107.682477,96.7711613 C107.572941,97.0344481 107.170213,97.7108926 106.85396,98.2350358 L105.84508,99.8657936 C105.161512,100.942434 104.449943,101.99072 103.710372,103.009033 C102.253466,105.06348 100.634317,106.959145 98.8965723,108.683065 C95.4556734,112.070959 91.2554379,114.500488 86.4679929,115.22716 C84.8760212,114.942 82.8541431,114.72651 80.5242478,113.994977 C80.1421087,113.874271 79.7154965,113.876701 79.2790015,113.954472 C76.9392232,114.3733 74.4684964,119.02173 75.1001789,121.277085 C75.4922008,122.67615 77.4638408,121.66918 79.6529048,121.355666 C84.3983474,120.674361 90.1477287,120.654108 90.2243212,119.52481 C90.2350277,119.374129 90.2284391,119.246941 90.2317334,119.106792 C91.9752429,118.835404 93.6989867,118.385791 95.3453143,117.750662 C98.1471185,116.621364 100.701026,115.01572 102.985625,113.180814 C105.283401,111.349958 107.268218,109.236373 109.098203,107.061219 C110.003313,105.963515 110.858184,104.837458 111.677642,103.699249 L112.880886,101.980189 C113.282791,101.375034 113.622104,100.935143 114.121191,100.006753 C115.00077,98.3516921 115.441383,96.6820488 115.701632,95.0917967 C115.951999,93.497494 116.039298,91.9526081 115.984119,90.46281 C115.891055,87.4759227 115.466913,84.6405266 114.840172,81.8893823" id="Fill-375" fill="#FCAE92"></path>
            <path d="M102.403125,59.0062903 C99.9329474,58.7403761 101.426331,66.9715941 101.66514,71.1098342 C101.903949,75.2480742 103.263832,83 103.263832,83 L115.671107,81.047268 C116.536789,80.9106737 117.125519,80.1185887 116.977093,79.2763922 C116.137945,74.5028677 112.762284,60.1232919 102.403125,59.0062903" id="Fill-377" fill="#3500DA"></path>
            <path d="M102.730834,84 C102.718088,83.9211078 101.497468,76.062292 101.283035,71.8949747 C101.262042,71.470929 101.23505,71.0057936 101.206559,70.5151826 C101.091845,68.5305502 100.948639,66.0602375 101.018368,64 L101.292032,64.0106833 C101.222304,66.0561285 101.36476,68.5182233 101.479474,70.4962814 C101.507215,70.988536 101.533457,71.4528496 101.5567,71.8777171 C101.770383,76.0294202 102.988754,83.8709783 103,83.9490488 L102.730834,84 Z" id="Fill-379" fill="#FFFFFF"></path>
            <polygon id="Fill-381" fill="#2A3569" points="72 189.110877 72.8345289 192 82 190.555439 81.4548063 187"></polygon>
            <polygon id="Fill-383" fill="#1C2248" points="55 185.768446 55.9453565 189 65 186.996318 64.3163613 183"></polygon>
            <mask id="mask-6" fill="white">
                <use xlink:href="#path-5"></use>
            </mask>
            <g id="Clip-386"></g>
            <polygon id="Fill-385" fill="#FFFFFF" mask="url(#mask-6)" points="93.318 45 93.682 45 93.682 38 93.318 38"></polygon>
            <path d="M93.9997853,44.3515454 C93.9043018,44.3515454 93.8097828,44.3718014 93.7220151,44.4142426 C93.5667339,44.4885147 93.4490674,44.618732 93.3911987,44.7817448 C93.3323654,44.9447575 93.3400812,45.1203098 93.4143462,45.2765705 C93.4886111,45.4328313 93.6188158,45.5514737 93.7818129,45.6103127 C93.9486678,45.6691516 94.1232386,45.6595059 94.2785199,45.5852338 C94.4328366,45.5109617 94.5514676,45.3807444 94.6093363,45.2177316 L94.6103008,45.216767 C94.6681696,45.0547188 94.6604538,44.8791666 94.5852244,44.7229058 C94.5109594,44.5666451 94.3817192,44.4480026 94.2177576,44.3891637 C94.1463862,44.3640848 94.0721212,44.3515454 93.9997853,44.3515454 M94.0007497,46 C93.8879056,46 93.774097,45.979744 93.6641464,45.9401965 C93.4114527,45.8514558 93.2118055,45.668187 93.0960679,45.4260793 C92.9812948,45.1849361 92.9697211,44.9148558 93.0594177,44.6631023 C93.1491143,44.4113489 93.3304364,44.2107178 93.5725208,44.0959336 C93.8097828,43.9821141 94.083695,43.9695746 94.3363886,44.0583153 C94.5871533,44.1480206 94.7887295,44.3312894 94.9035026,44.5724325 C95.0173112,44.8135757 95.0308139,45.0846206 94.9420818,45.336374 C94.8514207,45.5871629 94.6691341,45.7887586 94.4270497,45.9025782 C94.2939515,45.9681691 94.1473506,46 94.0007497,46" id="Fill-387" fill="#FFFFFF" mask="url(#mask-6)"></path>
            <path d="M87.9105729,45 C85.5090417,45 81.759167,44.1628909 78.2370307,42.9384388 C72.7449976,41.0297341 67.4330177,38.0486333 68.048816,36.3648116 L69.6503849,32 L69.9340303,32.0984363 L68.3324614,36.463248 C67.9049379,37.6292785 71.8233555,40.3999015 78.3373343,42.6639375 C84.8521353,44.9279734 89.6872621,45.2040754 90.1147856,44.0356439 L91.7163546,39.6708323 L92,39.7684684 L90.3976089,44.13328 C90.1756255,44.7375031 89.2548056,45 87.9105729,45" id="Fill-388" fill="#FFFFFF" mask="url(#mask-6)"></path>
            <path d="M65.9347132,26.2885904 C65.6109716,26.2885904 65.4148911,26.4997749 65.3431339,26.6927675 C65.2638673,26.8992063 65.2838926,27.210051 65.5926152,27.4030436 L79.9273554,36.3597981 C80.5189346,36.7299642 81.2056338,36.9625044 81.9106894,37.0321083 L98.9880543,38.7073473 C99.3593558,38.7524316 99.5804679,38.5159366 99.6580657,38.3079159 C99.7356636,38.1014771 99.7164727,37.7906325 99.4077501,37.5968489 L85.0738443,28.6393035 C84.4814307,28.2691374 83.7938971,28.0365971 83.0888415,27.9669932 L66.012311,26.2925452 C65.9856107,26.2893814 65.9589103,26.2885904 65.9347132,26.2885904 M99.0639834,39 C99.0297736,39 98.993895,38.9976271 98.957182,38.9944633 L81.8798171,37.3184334 C81.1255328,37.2448748 80.3921081,36.9965154 79.7604784,36.6010388 L65.4265725,27.6442843 C64.9985328,27.3769421 64.931782,26.9253078 65.055271,26.5954803 C65.17876,26.2664437 65.5158517,25.9548082 66.0423489,26.0054292 L83.1197138,27.6798772 C83.8756669,27.7550177 84.6082572,28.0025861 85.2407213,28.3980627 L99.5737928,37.3556082 C100.001833,37.6237414 100.067749,38.0745847 99.9450943,38.4044122 C99.8291147,38.7113021 99.5170546,39 99.0639834,39" id="Fill-389" fill="#FFFFFF" mask="url(#mask-6)"></path>
            <path d="M94.9697948,37 L82.3236113,35.7049596 C81.5848083,35.6290657 80.8672307,35.3755479 80.2484322,34.971857 L73,30.2462514 L73.1632714,30 L80.4108872,34.7264129 C80.9913169,35.1034602 81.6631786,35.3408304 82.3538165,35.4110727 L95,36.7069204 L94.9697948,37 Z" id="Fill-390" fill="#FFFFFF" mask="url(#mask-6)"></path>
            <path d="M90.3668713,120 C90.3534457,120 90.339181,119.999137 90.3257555,119.999137 C89.9892771,119.975841 89.7333522,119.675582 89.7560079,119.328732 C89.8499868,117.898188 89.6150394,116.8956 89.0402572,116.263158 C88.4168073,115.578085 87.3284971,115.258844 85.6125416,115.258844 C85.2743851,115.258844 85,114.977567 85,114.628991 C85,114.281277 85.2743851,114 85.6125416,114 C87.6909875,114 89.0629129,114.446074 89.9338967,115.403796 C90.7536955,116.304573 91.0943693,117.615186 90.9777347,119.413287 C90.9559181,119.744607 90.6874067,120 90.3668713,120" id="Fill-391" fill="#1C2248" mask="url(#mask-6)"></path>
            <path d="M90.9988925,114.52572 C91.0469123,115.148525 89.5274272,115.790563 87.6066334,115.959086 C85.6849821,116.12761 84.0883222,115.760338 84.0403024,115.136618 L84,114.610898 L90.9577326,114 L90.9988925,114.52572 Z" id="Fill-392" fill="#F1F1F4" mask="url(#mask-6)"></path>
            <path d="M90.9988465,114.738671 C91.0480049,115.271515 89.5197844,115.820815 87.5879481,115.964996 C85.6552493,116.109177 84.048548,115.794956 84.0011145,115.261329 C83.9528186,114.728485 85.4801767,114.179185 87.4128754,114.035004 C89.3455741,113.890823 90.9505506,114.205044 90.9988465,114.738671" id="Fill-393" fill="#1C2248" mask="url(#mask-6)"></path>
            <path d="M89.9995645,114.327851 C90.0250784,114.58783 88.9263862,114.874474 87.5462439,114.9698 C86.1653043,115.063792 85.0259494,114.931136 85.0004355,114.67249 C84.9749216,114.412511 86.0736138,114.125201 87.4537561,114.030542 C88.8338984,113.935882 89.9740506,114.068538 89.9995645,114.327851" id="Fill-394" fill="#F1F1F4" mask="url(#mask-6)"></path>
            <path d="M24,128.304441 C24.1672774,129.382859 25.241198,130.136727 26.3870479,129.979179 L97.1997348,120.246638 C98.3447483,120.089089 99.1451705,119.078418 98.9778931,118 L24,128.304441 Z" id="Fill-395" fill="#27D36A" mask="url(#mask-6)"></path>
            <path d="M74,121.356147 L74,121.356147 C74.3376039,122.447266 75.5022525,123.140052 76.7211892,122.976033 L97.1733686,120.228319 C98.3346242,120.071329 99.1472487,119.06925 98.9775985,118 L74,121.356147 Z" id="Fill-396" fill="#1DA64E" mask="url(#mask-6)"></path>
            <path d="M73.2479837,122.319258 L26.3832813,128.96094 C24.3559283,129.249393 22.2049765,127.908649 21.6035727,125.982134 L12.1578001,95.7066037 C11.5572258,93.780089 12.724364,91.9687944 14.7517169,91.6819524 L61.6164194,85.0386591 C63.6437723,84.7518171 65.7947242,86.0925618 66.3952984,88.0190766 L75.8419005,118.294607 C76.4433043,120.221122 75.2753367,122.03161 73.2479837,122.319258" id="Fill-397" fill="#27D36A" mask="url(#mask-6)"></path>
            <path d="M72.247948,122.319274 L25.3834677,128.960959 C23.3560885,129.249412 21.2051088,127.907861 20.6036972,125.981346 L11.1578022,95.7066083 C10.5572201,93.7800927 11.7243734,91.9687974 13.7517526,91.6819553 L60.6170625,85.0386591 C62.6444417,84.751817 64.7954214,86.0925622 65.3960035,88.0190779 L74.8418985,118.294621 C75.4433101,120.221137 74.2753273,122.031626 72.247948,122.319274" id="Fill-398" fill="#35FF8B" mask="url(#mask-6)"></path>
            <path d="M24.9516424,127.681698 L24.9732766,127.826747 L24.9516424,127.681698 L71.9603379,121.038463 C72.5769136,120.950627 73.0869823,120.643607 73.3956862,120.172199 C73.7102147,119.691926 73.780942,119.102061 73.5945547,118.508167 L64.1187599,88.2292259 C63.7310079,86.9906701 62.3564019,86.1332705 61.0475307,86.3186106 L14.0396673,92.9618465 C13.4230916,93.0496816 12.9130229,93.3567016 12.6051511,93.8281102 C12.2897905,94.3075772 12.2198953,94.899054 12.4054505,95.4929483 L21.8812452,125.771889 C22.2673331,127.008833 23.641107,127.866233 24.9516424,127.681698 M24.5971738,128 C23.2758213,128 21.9802635,127.102309 21.5900151,125.856501 L12.1150525,95.5775601 C11.9028706,94.9006657 11.9860791,94.2229653 12.3488686,93.670974 C12.7050014,93.1262351 13.2899578,92.7716713 13.9963988,92.6717488 L61.0050943,86.028513 C62.4479314,85.8206097 63.9798016,86.7722911 64.4091579,88.1446141 L73.8841206,118.423555 C74.0971346,119.099643 74.0147581,119.776538 73.6511366,120.329335 C73.2950038,120.874074 72.7100473,121.229444 72.0036064,121.32856 L24.9949108,127.971796 C24.8634413,127.991136 24.7303075,128 24.5971738,128" id="Fill-399" fill="#FFFFFF" mask="url(#mask-6)"></path>
            <path d="M39.9493989,112.054988 C39.7014205,112.455626 39.6781725,112.932191 39.8865433,113.3611 C40.1129958,113.829588 40.5736501,114.16803 41.116964,114.266574 C42.0348285,114.433776 42.9526931,114.4572 43.8421435,114.334424 C45.8044449,114.066255 47.4266371,113.117163 48.4116624,111.663235 C49.4139086,110.18346 49.6395,108.359588 49.0479682,106.526831 C47.8218527,102.728849 43.4572603,100.0932 39.3285918,100.664271 C38.7318937,100.74666 38.1593047,100.892053 37.6271843,101.097218 C37.0700939,101.311269 36.6998484,101.774103 36.6369927,102.334673 C36.572415,102.904935 36.8376142,103.439658 37.3439034,103.765984 C38.834357,104.725576 39.927012,106.094692 40.4186636,107.620508 C40.9232308,109.179442 40.7561898,110.755338 39.9493989,112.055796 L39.9493989,112.054988 Z M42.7029926,115 C42.1381529,115 41.5681469,114.949113 40.998141,114.845722 C40.2542057,114.710022 39.6256493,114.247188 39.3156763,113.605037 C39.0212019,112.999234 39.0556433,112.326388 39.4069461,111.759356 L39.4069461,111.758549 C40.1241892,110.60106 40.2705654,109.192366 39.8185214,107.791749 C39.3664774,106.392747 38.3625092,105.136715 36.9882955,104.251434 C36.287412,103.800717 35.9231937,103.060829 36.0136025,102.272477 C36.0997062,101.493818 36.6154668,100.850858 37.3886773,100.551995 C37.9672936,100.32906 38.5898228,100.170743 39.238183,100.081892 C43.6509934,99.4768966 48.3350302,102.289439 49.6498325,106.356399 C50.2947486,108.35555 50.043326,110.352277 48.9411997,111.978253 C47.8571552,113.580805 46.0782544,114.624402 43.9325523,114.917611 C43.5270042,114.972537 43.11629,115 42.7029926,115 L42.7029926,115 Z" id="Fill-400" fill="#FFFFFF" mask="url(#mask-6)"></path>
            <path d="M17.5,58.2934826 C12.4321419,58.2934826 8.30977336,62.1990594 8.30977336,67.0004031 C8.30977336,71.8009406 12.4321419,75.7065174 17.5,75.7065174 C22.5670071,75.7065174 26.6893756,71.8009406 26.6893756,67.0004031 C26.6893756,62.1990594 22.5670071,58.2934826 17.5,58.2934826 M17.5,76 C12.2619368,76 8,71.9621948 8,67.0004031 C8,62.0378052 12.2619368,58 17.5,58 C22.7372122,58 27,62.0378052 27,67.0004031 C27,71.9621948 22.7372122,76 17.5,76" id="Fill-401" fill="#35FF8B" mask="url(#mask-6)"></path>
            <path d="M10,33.0004141 C10,35.7614907 7.76149068,38 4.99958592,38 C2.23850932,38 0,35.7614907 0,33.0004141 C0,30.2385093 2.23850932,28 4.99958592,28 C7.76149068,28 10,30.2385093 10,33.0004141" id="Fill-402" fill="#FFFFFF" mask="url(#mask-6)"></path>
            <path d="M263.000804,74.292628 C260.405145,74.292628 258.293408,76.4045341 258.293408,78.999598 C258.293408,81.5954659 260.405145,83.707372 263.000804,83.707372 C265.595659,83.707372 267.706592,81.5954659 267.706592,78.999598 C267.706592,76.4045341 265.595659,74.292628 263.000804,74.292628 M263.000804,84 C260.242765,84 258,81.7570544 258,78.999598 C258,76.2429456 260.242765,74 263.000804,74 C265.757235,74 268,76.2429456 268,78.999598 C268,81.7570544 265.757235,84 263.000804,84" id="Fill-403" fill="#FFFFFF" mask="url(#mask-6)"></path>
            <path d="M116,273.000422 C116,274.656729 114.657195,276 112.999578,276 C111.342805,276 110,274.656729 110,273.000422 C110,271.343271 111.342805,270 112.999578,270 C114.657195,270 116,271.343271 116,273.000422" id="Fill-404" fill="#1C2248" mask="url(#mask-6)"></path>
            <polygon id="Fill-405" fill="#FC945A" mask="url(#mask-6)" points="211 26 206 34 216 34"></polygon>
            <path d="M45.435186,63.4351126 L47.8388294,72.4055148 L54.4071013,65.8391939 L45.435186,63.4351126 Z M47.6802733,73 L47.6102724,72.7419681 L45,63 L55,65.678978 L54.8127688,65.8678641 L47.6802733,73 Z" id="Fill-406" fill="#FC945A" mask="url(#mask-6)"></path>
            <polygon id="Fill-407" fill="#1C2248" mask="url(#mask-6)" points="268 102.499608 261.999144 108 256 102.499608 261.999144 97"></polygon>
            <polygon id="Fill-408" fill="#35FF8B" mask="url(#mask-6)" points="261.209965 27 261 26.7908326 273.790035 14 274 14.2091674"></polygon>
            <polygon id="Fill-409" fill="#FC945A" mask="url(#mask-6)" points="14.7908326 139 2 126.20918 2.20835672 126 15 138.79163"></polygon>
            <polygon id="Fill-410" fill="#1C2248" mask="url(#mask-6)" points="188.790035 285 176 272.209965 176.209965 272 189 284.790035"></polygon>
        </g>
    </g>
</svg>